<?xml version="1.0" encoding="UTF-8" standalone="no"?>
<svg
   xmlns:dc="http://purl.org/dc/elements/1.1/"
   xmlns:cc="http://creativecommons.org/ns#"
   xmlns:rdf="http://www.w3.org/1999/02/22-rdf-syntax-ns#"
   xmlns:svg="http://www.w3.org/2000/svg"
   xmlns="http://www.w3.org/2000/svg"
   xmlns:sodipodi="http://sodipodi.sourceforge.net/DTD/sodipodi-0.dtd"
   xmlns:inkscape="http://www.inkscape.org/namespaces/inkscape"
   viewBox="0 0 512 512"
   version="1.1"
   id="svg4"
   sodipodi:docname="phone.svg"
   inkscape:version="1.0.1 (3bc2e813f5, 2020-09-07)">
  <path
     d="M497.4 361.8l-112-48a24 24 0 0 0 -28 6.9l-49.6 60.6A370.7 370.7 0 0 1 130.6 204.1l60.6-49.6a23.9 23.9 0 0 0 6.9-28l-48-112A24.2 24.2 0 0 0 122.6 .6l-104 24A24 24 0 0 0 0 48c0 256.5 207.9 464 464 464a24 24 0 0 0 23.4-18.6l24-104a24.3 24.3 0 0 0 -14-27.6z"
     id="path2"
     style="fill:#8aaef4;fill-opacity:1" />
</svg>
