<?xml version="1.0" encoding="UTF-8" standalone="no"?>
<svg
   xmlns:dc="http://purl.org/dc/elements/1.1/"
   xmlns:cc="http://creativecommons.org/ns#"
   xmlns:rdf="http://www.w3.org/1999/02/22-rdf-syntax-ns#"
   xmlns:svg="http://www.w3.org/2000/svg"
   xmlns="http://www.w3.org/2000/svg"
   xmlns:sodipodi="http://sodipodi.sourceforge.net/DTD/sodipodi-0.dtd"
   xmlns:inkscape="http://www.inkscape.org/namespaces/inkscape"
   version="1.1"
   id="svg833"
   width="44.352562"
   height="34.891884"
   viewBox="0 0 44.352562 34.891883"
   sodipodi:docname="logo2.svg"
   inkscape:version="1.0.1 (3bc2e813f5, 2020-09-07)">
  <metadata
     id="metadata839">
    <rdf:RDF>
      <cc:Work
         rdf:about="">
        <dc:format>image/svg+xml</dc:format>
        <dc:type
           rdf:resource="http://purl.org/dc/dcmitype/StillImage" />
        <dc:title></dc:title>
      </cc:Work>
    </rdf:RDF>
  </metadata>
  <defs
     id="defs837" />
  <sodipodi:namedview
     pagecolor="#ffffff"
     bordercolor="#666666"
     borderopacity="1"
     objecttolerance="10"
     gridtolerance="10"
     guidetolerance="10"
     inkscape:pageopacity="0"
     inkscape:pageshadow="2"
     inkscape:window-width="1920"
     inkscape:window-height="1106"
     id="namedview835"
     showgrid="false"
     inkscape:zoom="11.313709"
     inkscape:cx="6.7722258"
     inkscape:cy="22.16654"
     inkscape:window-x="-11"
     inkscape:window-y="-11"
     inkscape:window-maximized="1"
     inkscape:current-layer="layer2"
     inkscape:document-rotation="0"
     showguides="true"
     inkscape:guide-bbox="true"
     fit-margin-top="0"
     fit-margin-left="0"
     fit-margin-right="0"
     fit-margin-bottom="0">
    <sodipodi:guide
       position="26.517284,-9.6849344"
       orientation="0,-1"
       id="guide921"
       inkscape:locked="false" />
    <sodipodi:guide
       position="26.595409,10.208189"
       orientation="0,1"
       id="guide861"
       inkscape:locked="false" />
    <sodipodi:guide
       position="33.876659,3.0245952"
       orientation="0,1"
       id="guide863"
       inkscape:locked="false" />
    <sodipodi:guide
       position="9.2770742,28.289952"
       orientation="1,0"
       id="guide867"
       inkscape:locked="false" />
    <sodipodi:guide
       position="38.936888,-3.0131285e-07"
       orientation="0,1"
       id="guide869"
       inkscape:locked="false" />
  </sodipodi:namedview>
  <g
     inkscape:groupmode="layer"
     id="layer2"
     inkscape:label="Image 2"
     style="display:inline"
     transform="translate(-0.09209061,0.06119347)">
    <path
       style="fill:#ffffff;fill-opacity:1;stroke:none;stroke-width:0.1;stroke-linecap:butt;stroke-linejoin:miter;stroke-miterlimit:4;stroke-dasharray:none;stroke-opacity:1"
       d="m 0.17179568,24.565595 0.060793,-9.147056 C 0.16993907,6.9002231 12.757742,3.086434 17.29898,10.859838 l 0.389933,-0.0068 C 18.944353,8.221022 21.92775,7.2036798 24.869266,6.91008 l 0.03527,2.198204 c -2.62779,0.61245 -5.846801,1.680289 -6.162146,6.475348 l -0.0133,8.960553 -2.824332,0.02048 -0.107214,-10.753567 -0.0012,-0.188099 C 15.656883,9.11754 4.4806394,5.4360385 3.1556614,15.102235 l 0.030785,9.459809 z"
       id="path835"
       sodipodi:nodetypes="cccccccccccccc"
       inkscape:connector-curvature="0" />
    <path
       style="fill:#ffffff;fill-opacity:1;stroke:none;stroke-width:0.1;stroke-linecap:butt;stroke-linejoin:miter;stroke-miterlimit:4;stroke-dasharray:none;stroke-opacity:1"
       d="m 35.466645,24.57761 c 5.732431,-0.749982 8.686731,-4.749856 8.67078,-9.820947 -0.29189,-5.3259358 -4.155141,-8.4619746 -9.294291,-8.487391 -3.592255,0.2049509 -5.125081,2.1916457 -6.507715,3.4337877 l 0.07719,-9.45011205 -2.393477,-0.0171802 -0.0665,16.27721455 c 0.3237,3.693668 2.627291,5.812191 4.011104,6.566577 l 10e-4,-3.054112 C 29.26816,19.197486 28.710824,18.523938 28.368882,16.398304 l -0.01701,-1.686924 c 0.172559,-3.759493 3.664415,-6.1385501 6.555418,-6.2228161 4.237172,0.026554 6.703942,3.5058621 6.896501,6.7656841 0.05042,3.602115 -3.010586,6.352875 -6.353733,7.12761 z"
       id="path837"
       sodipodi:nodetypes="ccccccccccccccc"
       inkscape:connector-curvature="0" />
    <path
       style="fill:#ffffff;fill-opacity:1;stroke:none;stroke-width:0.1;stroke-linecap:butt;stroke-linejoin:miter;stroke-miterlimit:4;stroke-dasharray:none;stroke-opacity:1"
       d="m 31.30011,24.622501 0.07747,-11.890696 c 0.0039,-0.384096 -0.121625,-0.768191 -0.493022,-1.152287 l 2.229317,-1.556973 c 0.814511,0.84707 1.045579,2.193008 1.12171,3.10161 l 0.0099,11.498346 z"
       id="path839"
       sodipodi:nodetypes="ccccccc"
       inkscape:connector-curvature="0" />
    <path
       style="fill:#ffffff;fill-opacity:1;stroke:#00ff00;stroke-width:0;stroke-linecap:butt;stroke-linejoin:miter;stroke-miterlimit:4;stroke-dasharray:none;stroke-opacity:1"
       d="M 3.967856,32.754395 C 1.3969698,33.573561 1.0998338,32.456856 0.92934637,31.519475 0.96987837,29.805156 2.7064915,29.322344 3.9496201,30.297922 l -0.2307859,0.466786 c -0.3663017,-0.196243 -2.0727143,-1.009056 -2.2978973,0.662034 -0.00658,1.275233 1.4078947,1.24167 2.3054215,0.879563 z"
       id="path841"
       sodipodi:nodetypes="ccccccc"
       inkscape:connector-curvature="0" />
    <path
       id="path841-4"
       style="fill:#ffffff;fill-opacity:1;stroke:none;stroke-width:0.0377953;stroke-linecap:butt;stroke-linejoin:miter;stroke-miterlimit:4;stroke-dasharray:none;stroke-opacity:1"
       d="m 7.7387618,29.94994 c -0.964243,0.05284 -1.6450993,0.715567 -1.6781907,1.634766 0.028141,0.832746 0.5765415,1.44244 1.6860032,1.492187 1.191001,-0.05297 1.5896907,-0.655844 1.6225906,-1.513672 C 9.3274079,30.559625 8.7537123,29.979229 7.7387618,29.94994 Z m 0.00244,0.434542 c 1.5388406,0.07462 1.5674515,2.184933 0.00537,2.227347 -1.6642979,-0.109238 -1.3258667,-2.058245 -0.00537,-2.227347 z"
       inkscape:connector-curvature="0"
       sodipodi:nodetypes="cccccccc" />
    <path
       style="fill:#ffffff;fill-opacity:1;stroke:none;stroke-width:0.0377953;stroke-linecap:butt;stroke-linejoin:miter;stroke-miterlimit:4;stroke-dasharray:none;stroke-opacity:1"
       d="m 16.311197,32.711876 c 0.629066,0.619075 1.745733,0.29494 1.755235,-0.551534 0.105227,-0.75839 -1.344522,-1.143249 -1.239776,-1.610051 0.130553,-0.446928 0.487301,-0.187169 0.849453,0.04646 l 0.229136,-0.255545 c -0.127341,-0.12165 -1.16103,-0.837857 -1.476683,0.137812 0.0076,0.972507 1.053542,1.007979 1.208031,1.686107 0.07029,0.308557 -0.721581,0.751445 -1.238107,0.224706 z"
       id="path841-0"
       sodipodi:nodetypes="ccccccscc"
       inkscape:connector-curvature="0" />
    <path
       style="fill:#ffffff;fill-opacity:1;stroke:none;stroke-width:0.0377953;stroke-linecap:butt;stroke-linejoin:miter;stroke-miterlimit:4;stroke-dasharray:none;stroke-opacity:1"
       d="m 22.735477,29.94994 c 0.02558,2.966607 -0.353844,3.093198 -1.243874,3.137799 -0.97762,-0.04777 -1.384261,-0.171192 -1.330425,-3.137799 h 0.594619 c 0.02864,1.365028 -0.06312,2.687644 0.751502,2.683593 0.788991,-0.0012 0.555432,-1.255776 0.609471,-2.683593 z"
       id="path841-6"
       sodipodi:nodetypes="ccccccc"
       inkscape:connector-curvature="0" />
    <path
       style="fill:#ffffff;fill-opacity:1;stroke:none;stroke-width:0.0377953;stroke-linecap:butt;stroke-linejoin:miter;stroke-miterlimit:4;stroke-dasharray:none;stroke-opacity:1"
       d="m 24.767738,32.916547 0.0065,-2.971807 0.473086,0.0052 0.02469,2.592913 1.229144,0.01021 -0.01364,0.363482 z"
       id="path841-68"
       sodipodi:nodetypes="ccccccc"
       inkscape:connector-curvature="0" />
    <path
       style="fill:#ffffff;fill-opacity:1;stroke:none;stroke-width:0.0377953;stroke-linecap:butt;stroke-linejoin:miter;stroke-miterlimit:4;stroke-dasharray:none;stroke-opacity:1"
       d="m 28.422049,32.916547 0.0049,-2.601577 -0.593545,-2.29e-4 10e-4,-0.354401 1.686919,-0.0104 -0.0013,0.357736 -0.625258,0.0065 0.01303,2.602371 z"
       id="path841-76"
       sodipodi:nodetypes="ccccccccc"
       inkscape:connector-curvature="0" />
    <path
       style="fill:#ffffff;fill-opacity:1;stroke:none;stroke-width:0.0377953;stroke-linecap:butt;stroke-linejoin:miter;stroke-miterlimit:4;stroke-dasharray:none;stroke-opacity:1"
       d="M 31.36267,32.916547 31.34542,29.94994 h 0.674565 l 0.0056,2.968332 z"
       id="path841-1"
       sodipodi:nodetypes="ccccc"
       inkscape:connector-curvature="0" />
    <path
       style="fill:#ffffff;fill-opacity:1;stroke:none;stroke-width:0.0377953;stroke-linecap:butt;stroke-linejoin:miter;stroke-miterlimit:4;stroke-dasharray:none;stroke-opacity:1"
       d="m 40.564587,33.088432 c -0.764392,-0.01972 -1.734664,-0.357547 -1.694483,-1.521535 0.01777,-1.3957 1.907756,-2.272401 3.208214,-1.19308 l -0.399749,0.292461 c -0.173527,-0.211623 -1.595294,-0.716338 -2.193183,0.509485 -0.108816,0.223102 -0.09087,0.445934 -0.0344,0.650864 0.329499,1.064888 1.514513,0.884068 2.054702,0.584952 0.255488,-0.141471 0.30341,-0.443981 0.180868,-0.445257 l -0.713485,-0.0074 0.01559,-0.369118 c 0.430786,0.0019 1.00032,-0.01923 1.077328,0.139071 0.06688,0.11846 0.09132,0.187984 0.0588,0.354859 -0.141778,0.727497 -0.692905,1.000246 -1.560208,1.00473 z"
       id="path841-706"
       sodipodi:nodetypes="ccccscsscccscc"
       inkscape:connector-curvature="0" />
    <path
       style="fill:#ffffff;fill-opacity:1;stroke:none;stroke-width:0.0377953;stroke-linecap:butt;stroke-linejoin:miter;stroke-miterlimit:4;stroke-dasharray:none;stroke-opacity:1"
       d="m 34.063752,32.914411 -0.0318,-2.964471 h 0.44098 l 1.862242,2.283519 -0.01983,-2.283519 h 0.464274 l 0.04607,2.957074 -0.580554,0.001 -1.579724,-1.820248 0.01289,1.828781 z"
       id="path841-7-4"
       sodipodi:nodetypes="ccccccccccc"
       inkscape:connector-curvature="0" />
    <path
       style="display:inline;fill:#ffffff;fill-opacity:1;stroke:none;stroke-width:0.0377953;stroke-linecap:butt;stroke-linejoin:miter;stroke-miterlimit:4;stroke-dasharray:none;stroke-opacity:1"
       d="m 11.34778,32.922944 -0.0318,-2.964471 h 0.44098 l 1.862242,2.283519 -0.01983,-2.283519 h 0.464274 l 0.04607,2.957074 -0.580554,0.001 -1.579724,-1.820248 0.01289,1.828781 z"
       id="path841-7-4-3"
       sodipodi:nodetypes="ccccccccccc"
       inkscape:connector-curvature="0" />
  </g>
</svg>
