<?xml version="1.0" encoding="UTF-8" standalone="no"?>
<svg
   xmlns:dc="http://purl.org/dc/elements/1.1/"
   xmlns:cc="http://creativecommons.org/ns#"
   xmlns:rdf="http://www.w3.org/1999/02/22-rdf-syntax-ns#"
   xmlns:svg="http://www.w3.org/2000/svg"
   xmlns="http://www.w3.org/2000/svg"
   xmlns:sodipodi="http://sodipodi.sourceforge.net/DTD/sodipodi-0.dtd"
   xmlns:inkscape="http://www.inkscape.org/namespaces/inkscape"
   version="1.1"
   id="svg5334"
   xml:space="preserve"
   width="1496"
   height="1496"
   viewBox="0 0 1496 1496"
   sodipodi:docname="classeurs.svg"
   inkscape:version="1.0.1 (3bc2e813f5, 2020-09-07)"><metadata
     id="metadata5340"><rdf:RDF><cc:Work
         rdf:about=""><dc:format>image/svg+xml</dc:format><dc:type
           rdf:resource="http://purl.org/dc/dcmitype/StillImage" /><dc:title /></cc:Work></rdf:RDF></metadata><defs
     id="defs5338" /><sodipodi:namedview
     pagecolor="#ffffff"
     bordercolor="#666666"
     borderopacity="1"
     objecttolerance="10"
     gridtolerance="10"
     guidetolerance="10"
     inkscape:pageopacity="0"
     inkscape:pageshadow="2"
     inkscape:window-width="1920"
     inkscape:window-height="1106"
     id="namedview5336"
     showgrid="false"
     inkscape:zoom="0.22309786"
     inkscape:cx="229.84766"
     inkscape:cy="730.14039"
     inkscape:window-x="-11"
     inkscape:window-y="-11"
     inkscape:window-maximized="1"
     inkscape:current-layer="g5344"
     inkscape:document-rotation="0" /><g
     inkscape:groupmode="layer"
     id="layer7"
     inkscape:label="Layer 1"
     transform="matrix(1.3333333,0,0,-1.3333333,0,1496)"
     style="display:inline"><g
       transform="matrix(0.06981964,0,0,-0.06981964,57.685287,363.03536)"
       inkscape:label="Layer 1"
       id="layer5"><path
         sodipodi:nodetypes="ccccc"
         inkscape:connector-curvature="0"
         id="path10262"
         d="m 104.21293,-648.56721 1389.59427,3.69127 2.7815,1376.08659 -1389.67102,0.59127 z"
         style="fill:none;stroke:#000000;stroke-width:97.7953;stroke-linecap:butt;stroke-linejoin:miter;stroke-miterlimit:4;stroke-dasharray:none;stroke-opacity:1" /><path
         sodipodi:nodetypes="cccccsc"
         inkscape:connector-curvature="0"
         id="path10264"
         d="M 624.22695,-489.937 C 592.54659,-448.50879 291.58288,44.97426 291.58288,44.97426 L 627.88241,573.79311 918.17557,574.38437 588.8912,37.663408 c 0,0 341.17339,-526.381898 324.11475,-528.818858 -17.05875,-2.43695 -288.779,1.21845 -288.779,1.21845 z"
         style="fill:#1ea062;fill-opacity:1;stroke:none;stroke-width:5.41004px;stroke-linecap:butt;stroke-linejoin:miter;stroke-opacity:1" /><path
         sodipodi:nodetypes="ccccccc"
         inkscape:connector-curvature="0"
         id="path10266"
         d="M 1051.3717,-489.937 715.07217,43.755757 1047.938,575.01156 H 1348.68 L 1019.6913,37.749914 1343.8061,-489.937 Z"
         style="fill:#de113b;fill-opacity:1;stroke:none;stroke-width:5.41004px;stroke-linecap:butt;stroke-linejoin:miter;stroke-opacity:1" /></g><g
       id="g11482"
       transform="matrix(0.57091902,0,0,-0.52968189,249.02868,474.50557)"><g
         inkscape:label="Layer 1"
         id="layer6" /><path
         sodipodi:nodetypes="ccccc"
         inkscape:connector-curvature="0"
         id="path10826"
         d="M 48.300265,144.85511 92.478814,41.23411 105.34958,69.496327 70.729608,149.00185 Z"
         style="fill:#895ca3;fill-opacity:1;stroke:none;stroke-width:0.399286;stroke-linecap:butt;stroke-linejoin:miter;stroke-miterlimit:4;stroke-dasharray:none;stroke-opacity:1" /><path
         sodipodi:nodetypes="ccccc"
         inkscape:connector-curvature="0"
         id="path10828"
         d="m 70.729608,149.00185 30.392652,-7.76479 6.57295,-14.9998 -13.735775,-30.926562 z"
         style="fill:#57375f;fill-opacity:1;stroke:none;stroke-width:0.4;stroke-linecap:butt;stroke-linejoin:miter;stroke-miterlimit:4;stroke-dasharray:none;stroke-opacity:1" /><path
         sodipodi:nodetypes="ccccc"
         inkscape:connector-curvature="0"
         id="path10830"
         d="M 105.34958,69.597457 158.02436,190.91631 132.99788,186.14936 93.959435,95.310698 Z"
         style="fill:#e30009;fill-opacity:1;stroke:none;stroke-width:0.4;stroke-linecap:butt;stroke-linejoin:miter;stroke-miterlimit:4;stroke-dasharray:none;stroke-opacity:1" /><path
         inkscape:connector-curvature="0"
         id="path10832"
         d="m 92.478814,41.23411 30.300466,-6.765306 12.13467,27.977159 -29.56437,7.151494 z"
         style="fill:#72437e;fill-opacity:1;stroke:none;stroke-width:0.4;stroke-linecap:butt;stroke-linejoin:miter;stroke-miterlimit:4;stroke-dasharray:none;stroke-opacity:1" /><path
         sodipodi:nodetypes="ccccc"
         inkscape:connector-curvature="0"
         id="path10834"
         d="m 48.300265,144.85511 -10.219349,24.22668 94.916964,17.06757 -12.21531,-28.91288 z"
         style="fill:#00a3af;fill-opacity:1;stroke:none;stroke-width:0.4;stroke-linecap:butt;stroke-linejoin:miter;stroke-miterlimit:4;stroke-dasharray:none;stroke-opacity:1" /><path
         inkscape:connector-curvature="0"
         id="path10836"
         d="M 105.34958,69.597457 158.02436,190.91631 187.41326,181.8545 134.91395,62.445963 Z"
         style="fill:#b50501;fill-opacity:1;stroke:none;stroke-width:0.4;stroke-linecap:butt;stroke-linejoin:miter;stroke-miterlimit:4;stroke-dasharray:none;stroke-opacity:1" /><path
         sodipodi:nodetypes="ccccc"
         inkscape:connector-curvature="0"
         id="path10838"
         d="m 70.856011,148.74904 49.926559,8.48744 -6.20713,-14.08081 -13.45318,-1.91861 z"
         style="fill:#00656c;fill-opacity:1;stroke:none;stroke-width:0.4;stroke-linecap:butt;stroke-linejoin:miter;stroke-miterlimit:4;stroke-dasharray:none;stroke-opacity:1" /></g><g
       inkscape:label="Layer 1"
       id="layer4"
       transform="matrix(0.08444224,0,0,-0.08444224,667.1186,513.76416)"><path
         sodipodi:nodetypes="ccccc"
         inkscape:connector-curvature="0"
         id="path9697"
         d="M 51.27711,960.44262 177.42891,334.8231 431.60146,333.67301 300.92111,961.19736 Z"
         style="fill:#00a77e;fill-opacity:1;stroke:none;stroke-width:3.94665px;stroke-linecap:butt;stroke-linejoin:miter;stroke-opacity:1" /><path
         inkscape:connector-curvature="0"
         id="path9699"
         d="M 677.98924,334.8231 549.21374,962.92252 H 801.37361 L 929.93342,334.8231 Z m 133.87903,61.45858 -11.14159,57.50509 57.10974,-0.43128 -8.26635,49.95756 h -58.51145 l -11.86041,57.86449 -47.83708,0.25146 10.4228,-58.2239 h -57.75666 l 10.06338,-48.16054 59.12244,-0.28752 11.1416,-57.86451 z"
         style="fill:#ed1c24;fill-opacity:1;stroke:none;stroke-width:3.94665px;stroke-linecap:butt;stroke-linejoin:miter;stroke-opacity:1" /></g><g
       id="g5344"
       transform="matrix(0.1,0,0,0.1,-4.0529172,-5.6863702)"
       style="display:inline"><path
         d="m 5768.3101,9090.2825 -0.2173,310.902 -2.094,2.38 -93.4063,-0.08 -2.0711,-2.385 0.2175,-310.901 97.5712,0.09"
         style="fill:#b22b49;fill-opacity:1;fill-rule:nonzero;stroke:none;stroke-width:2.11634"
         id="path5348"
         inkscape:connector-curvature="0" /><path
         d="m 5958.8608,8967.0465 -0.2173,310.901 -2.0942,2.381 -93.4061,-0.09 -2.071,-2.384 0.2174,-310.902 97.5712,0.09"
         style="fill:#6488ad;fill-opacity:1;fill-rule:nonzero;stroke:none;stroke-width:2.11634"
         id="path5350"
         inkscape:connector-curvature="0" /><path
         d="m 6140.4584,8888.1155 -0.2173,310.879 -2.0744,2.381 -93.4062,-0.09 -2.0908,-2.384 0.2175,-310.879 97.5712,0.09"
         style="fill:#a9c2a9;fill-opacity:1;fill-rule:nonzero;stroke:none;stroke-width:2.11634"
         id="path5352"
         inkscape:connector-curvature="0" /><path
         d="M 2238.6627,10258.435 2210.7423,115.94706 97.898301,123.63256 125.81901,10266.121 Z"
         style="fill:#9a8473;fill-opacity:1;fill-rule:nonzero;stroke:none;stroke-width:2.43778"
         id="path5360"
         inkscape:connector-curvature="0" /><path
         d="m -71.894769,6998.0268 3.27679,82.4563 -4.73742,2.1783 -3.23723,-81.2311 4.69786,-3.4035"
         style="fill:#ebebeb;fill-opacity:1;fill-rule:nonzero;stroke:none;stroke-width:2.11634"
         id="path5362"
         inkscape:connector-curvature="0" /><path
         d="m 901.78535,6289.3197 -0.33554,341.715 v -341.4655 l 0.33554,-0.2495"
         style="fill:#8e7a6a;fill-opacity:1;fill-rule:nonzero;stroke:none;stroke-width:2.11634"
         id="path5366"
         inkscape:connector-curvature="0" /><path
         d="m 554.73034,9700.2965 1302.49756,-4.737 -18.7323,-6804.7087 -1302.49725,4.7379 18.73199,6804.7078"
         style="fill:#f0f0f0;fill-opacity:1;fill-rule:nonzero;stroke:none;stroke-width:2.43778"
         id="path5368"
         inkscape:connector-curvature="0" /><path
         d="m 1170.7864,1080.0812 c 265.6094,-0.9661 481.5438,227.457 482.3221,510.1985 0.7784,282.7668 -213.8941,512.7306 -479.5035,513.6968 -265.60936,0.9664 -481.54373,-227.4314 -482.32225,-510.1983 -0.77829,-282.7415 213.89424,-512.7307 479.50365,-513.697"
         style="fill:#303030;fill-opacity:1;fill-rule:nonzero;stroke:none;stroke-width:2.43778"
         id="path5370"
         inkscape:connector-curvature="0" /><path
         d="m 8042.4538,9793.9745 7.7921,-9682.72694 -1818.9753,-2.2479 -7.7921,9682.72684 z"
         style="fill:#c9c9c9;fill-opacity:1;fill-rule:nonzero;stroke:none;stroke-width:2.19738"
         id="path5384"
         inkscape:connector-curvature="0" /><path
         d="m 9327.1658,8660.0032 -7.1469,-8550.26864 -1284.7115,1.2857 7.1464,8550.26874 z"
         style="fill:#a9c2a9;fill-opacity:1;fill-rule:nonzero;stroke:none;stroke-width:2.06489"
         id="path5386"
         inkscape:connector-curvature="0" /><path
         d="m 5596.4935,8793.4685 5.1013,-8685.06494 -1530.9441,-1.111 -5.1012,8685.06494 z"
         style="fill:#6488ad;fill-opacity:1;fill-rule:nonzero;stroke:none;stroke-width:2.0811"
         id="path5388"
         inkscape:connector-curvature="0" /><path
         d="m 4065.5495,9088.9745 -31.9991,-8981.60844 -1822.8081,8.581 31.9992,8981.60844 z"
         style="fill:#b22b49;fill-opacity:1;fill-rule:nonzero;stroke:none;stroke-width:2.11634"
         id="path5390"
         inkscape:connector-curvature="0" /><path
         d="m 11149.974,9088.7715 -9.941,-8981.69914 -1822.8077,2.6655 9.9405,8981.69964 z"
         style="fill:#f7de8d;fill-opacity:1;fill-rule:nonzero;stroke:none;stroke-width:2.11634"
         id="path5392"
         inkscape:connector-curvature="0" /><path
         d="m 6223.4785,9090.7035 6.2812,-8981.68174 -626.985,-0.5792 -6.2812,8981.68094 z"
         style="fill:#e8cbad;fill-opacity:1;fill-rule:nonzero;stroke:none;stroke-width:2.11634"
         id="path5396"
         inkscape:connector-curvature="0" /><path
         d="m 3762.2192,2874.2217 19.8669,5576.24 -1260.4225,5.9337 -19.8668,-5576.2399 1260.4224,-5.9338"
         style="fill:#f0f0f0;fill-opacity:1;fill-rule:nonzero;stroke:none;stroke-width:2.11634"
         id="path5402"
         inkscape:connector-curvature="0" /><path
         d="m 4747.7133,1114.2268 c 217.4875,0.1631 393.6474,197.5644 393.5092,440.8946 -0.1382,243.3301 -176.5222,440.4441 -394.0096,440.2808 -217.4482,-0.1631 -393.6278,-197.5417 -393.4897,-440.8718 0.1382,-243.3302 176.542,-440.4668 393.9901,-440.3036"
         style="fill:#373736;fill-opacity:1;fill-rule:nonzero;stroke:none;stroke-width:2.11634"
         id="path5404"
         inkscape:connector-curvature="0" /><path
         d="m 3139.9201,737.57936 c 217.4463,-1.0237 394.459,195.391 395.3259,438.71904 0.8668,243.3282 -174.7404,441.4256 -392.1866,442.4492 -217.4659,1.0237 -394.4589,-195.4136 -395.3257,-438.7419 -0.867,-243.32804 174.7204,-441.40254 392.1864,-442.42634"
         style="fill:#373736;fill-opacity:1;fill-rule:nonzero;stroke:none;stroke-width:2.11634"
         id="path5408"
         inkscape:connector-curvature="0" /><path
         d="m 10294.071,970.67417 c 217.468,-0.3181 393.976,196.67013 394.247,440.00013 0.269,243.3299 -175.804,440.8568 -393.272,441.1748 -217.468,0.318 -393.9585,-196.6931 -394.2275,-440.023 -0.268,-243.33 175.7845,-440.83403 393.2525,-441.15193"
         style="fill:#373736;fill-opacity:1;fill-rule:nonzero;stroke:none;stroke-width:2.11634"
         id="path5412"
         inkscape:connector-curvature="0" /><path
         d="m 7201.2319,1028.8402 c 217.4676,0.2492 393.5882,197.6974 393.3771,441.0503 -0.2112,243.33 -176.6737,440.3742 -394.1415,440.1248 -217.4677,-0.2492 -393.5882,-197.6975 -393.377,-441.0276 0.211,-243.3528 176.6737,-440.3968 394.1414,-440.1475"
         style="fill:#373736;fill-opacity:1;fill-rule:nonzero;stroke:none;stroke-width:2.11634"
         id="path5416"
         inkscape:connector-curvature="0" /><path
         d="m 9763.0802,8510.8822 296.4448,-0.4334 c 33.593,-128.1583 139.211,-221.9102 264.635,-222.0937 125.403,-0.1839 231.252,93.2592 265.109,221.319 l 324.828,-0.4751 -1.994,-1801.7404 -1151.0163,1.6835 1.9935,1801.7401"
         style="fill:#f6f1e3;fill-opacity:1;fill-rule:nonzero;stroke:none;stroke-width:2.11634"
         id="path5462"
         inkscape:connector-curvature="0" /><path
         d="m 8261.6026,8302.642 217.6847,-0.229 c 24.6316,-128.135 102.2113,-221.8366 194.2951,-221.9333 92.0839,-0.097 169.7929,93.4414 194.648,221.5244 l 238.5094,-0.2507 -1.4328,-1801.7408 -845.138,0.8884 1.4336,1801.741"
         style="fill:#f0f0f0;fill-opacity:1;fill-rule:nonzero;stroke:none;stroke-width:2.11634"
         id="path5464"
         inkscape:connector-curvature="0" /><path
         d="m 10815.428,7106.2681 0.03,43.1796 -962.942,1.4081 -0.045,-43.1795 962.943,-1.4082"
         style="fill:#9a8473;fill-opacity:1;fill-rule:nonzero;stroke:none;stroke-width:2.11634"
         id="path5466"
         inkscape:connector-curvature="0" /><path
         d="m 10815.105,6814.313 0.224,202.669 -962.9416,1.4084 -0.2237,-202.6693 962.9413,-1.4081"
         style="fill:#e8cbad;fill-opacity:1;fill-rule:nonzero;stroke:none;stroke-width:2.11634"
         id="path5468"
         inkscape:connector-curvature="0" /><path
         d="m 7547.3481,4096.2872 -4.4967,5183.2663 -905.9937,-1.038 4.4967,-5183.2669 905.9937,1.0386"
         style="fill:#f0f0f0;fill-opacity:1;fill-rule:nonzero;stroke:none;stroke-width:2.11634"
         id="path5470"
         inkscape:connector-curvature="0" /><path
         d="m 5246.3875,3334.3202 -2.9437,5183.268 -905.9744,-0.68 2.9438,-5183.2678 905.9743,0.6798"
         style="fill:#f0f0f0;fill-opacity:1;fill-rule:nonzero;stroke:none;stroke-width:2.11634"
         id="path5472"
         inkscape:connector-curvature="0" /><path
         d="m 8996.9215,7744.755 -0.097,-121.8892 -542.9923,0.5709 0.097,121.8892 z"
         style="fill:#d9dfe5;fill-opacity:1;fill-rule:nonzero;stroke:none;stroke-width:2.11634"
         id="path5474"
         inkscape:connector-curvature="0" /><path
         d="m 8996.6966,7461.944 -0.097,-121.8892 -542.9923,0.5709 0.097,121.8891 z"
         style="fill:#d9dfe5;fill-opacity:1;fill-rule:nonzero;stroke:none;stroke-width:2.11634"
         id="path5476"
         inkscape:connector-curvature="0" /><path
         d="m 8996.4081,7098.9004 -0.097,-121.8714 -542.9924,0.5709 0.097,121.8714 z"
         style="fill:#d9dfe5;fill-opacity:1;fill-rule:nonzero;stroke:none;stroke-width:2.11634"
         id="path5478"
         inkscape:connector-curvature="0" /><path
         d="m 9100.9043,941.85766 0.1562,195.54454 -762.6675,0.8018 -0.1559,-195.54454 762.6672,-0.8018"
         style="fill:#f7de8d;fill-opacity:1;fill-rule:nonzero;stroke:none;stroke-width:2.11634"
         id="path5480"
         inkscape:connector-curvature="0" /><flowRoot
         xml:space="preserve"
         id="flowRoot8494"
         style="font-style:normal;font-weight:normal;font-size:32px;line-height:1.25;font-family:sans-serif;letter-spacing:0px;word-spacing:0px;fill:#000000;fill-opacity:1;stroke:none"
         transform="matrix(0.01363491,7.4999878,7.4999878,-0.01363491,-4056.5197,6657.309)"><flowRegion
           id="flowRegion8496"
           style="font-size:32px;line-height:1.25"><rect
             id="rect8498"
             width="308.56693"
             height="116.85937"
             x="76.067795"
             y="656.08472"
             style="font-size:32px;line-height:1.25" /></flowRegion><flowPara
           id="flowPara8500"
           style="font-size:74.6667px;line-height:1.25">Banque</flowPara></flowRoot><flowRoot
         xml:space="preserve"
         id="flowRoot8502"
         style="font-style:normal;font-weight:normal;font-size:14.6667px;line-height:1.25;font-family:sans-serif;letter-spacing:0px;word-spacing:0px;fill:#000000;fill-opacity:1;stroke:none"><flowRegion
           id="flowRegion8504"><rect
             id="rect8506"
             width="239.80508"
             height="53.788055"
             x="-15.688183"
             y="630.90881" /></flowRegion><flowPara
           id="flowPara8508" /></flowRoot><flowRoot
         xml:space="preserve"
         id="flowRoot8510"
         style="font-style:normal;font-weight:normal;font-size:14.6667px;line-height:1.25;font-family:sans-serif;letter-spacing:0px;word-spacing:0px;fill:#000000;fill-opacity:1;stroke:none"><flowRegion
           id="flowRegion8512"><rect
             id="rect8514"
             width="31.376366"
             height="45.943962"
             x="168.08768"
             y="496.43866" /></flowRegion><flowPara
           id="flowPara8516" /></flowRoot><flowRoot
         xml:space="preserve"
         id="flowRoot8494-2"
         style="font-style:normal;font-weight:normal;font-size:32px;line-height:1.25;font-family:sans-serif;letter-spacing:0px;word-spacing:0px;fill:#000000;fill-opacity:1;stroke:none"
         transform="matrix(0.0136349,7.4999878,7.4999878,-0.0136349,-2070.4116,4714.0859)"><flowRegion
           id="flowRegion8496-0"
           style="font-size:32px;line-height:1.25"><rect
             id="rect8498-2"
             width="454.36905"
             height="119.7638"
             x="76.067795"
             y="656.08472"
             style="font-size:32px;line-height:1.25" /></flowRegion><flowPara
           id="flowPara8500-1"
           style="font-size:64px;line-height:1.25;fill:#333333">assurances</flowPara></flowRoot><flowRoot
         xml:space="preserve"
         id="flowRoot8494-27"
         style="font-style:normal;font-weight:normal;font-size:32px;line-height:1.25;font-family:sans-serif;letter-spacing:0px;word-spacing:0px;fill:#000000;fill-opacity:1;stroke:none"
         transform="matrix(0.0136349,7.4999878,7.4999878,-0.0136349,1804.2919,6425.6114)"><flowRegion
           id="flowRegion8496-9"
           style="font-size:32px;line-height:1.25"><rect
             id="rect8498-21"
             width="308.56693"
             height="116.85937"
             x="76.067795"
             y="656.08472"
             style="font-size:32px;line-height:1.25" /></flowRegion><flowPara
           id="flowPara8500-3"
           style="font-size:74.6667px;line-height:1.25">Impôts</flowPara></flowRoot><path
         d="m 2956.4833,12684.343 c -151,-11 -246,-52 -342,-145 -90,-89 -133,-205 -133,-365 0,-91 15,-168 42,-224 61,-121 152,-199 282,-242 75,-24 94,-27 251,-27 190.0001,0 249,13 345,74 90,58 180,180 192,260 l 3,25 -150,17 c -187,21 -205,22 -205,5 0,-23 -58,-95 -89,-111 -107,-56 -245,-6 -283,103 -19,54 -16,197 5,253 33,86 121,137 215,124 59,-8 96,-32 122,-78 18,-32 26.0001,-38 53.0001,-38 45,1 307,37 313.9999,43 3,3 -7.9999,35 -24.9999,71 -92.0001,196 -285.0001,279 -597.0001,255 z"
         id="path4860"
         style="stroke-width:0.999997" /><path
         d="m 4319.5209,12666.413 3,-668.001 173,-3 172,-2 v 66 66.001 l 53,-48.001 c 83,-75 143,-99 257,-99 84,0 102.0001,3 157,29 149.0001,68 234.0001,221.001 249.0001,443.001 15,233 -71.0001,415 -234.0001,495 -54,27 -78.9999,33 -152,36 -105,5 -176,-13 -248,-64 l -47,-34 -3,225 -2,225 h -190 -190 z m 616,17 c 56,-34 75,-93 70,-220 -3,-96 -6,-111 -30,-147 -70,-106 -211,-85 -262,39 -25,60 -22,203 7,258 42,85 139,116 215,70 z"
         id="path4854"
         style="stroke-width:0.999997" /><path
         d="m 6397.0961,12830.018 c -173,-12 -285,-60 -343,-148 -29,-44 -60,-132 -50,-142 8,-6 284,-39 329,-39 13,0 26,12 37,35 25,52 67,69 165,70 80,0 85,-1 108,-29 17,-20 24,-38 22,-59 -3,-27 -9,-32 -57,-49 -30,-10 -138,-36 -240,-59 -257,-56 -324,-89 -374,-184 -30,-58 -30,-184 0,-241 29,-55 103,-119 161,-139 149,-53 374,-18 492,75 21,16 40,30 43,30 3,0 8,-15 11,-33 3,-18 13,-43 22,-55 15,-21 21,-22 185,-22 92.9999,0 169,2 169,5 0,3 -8,22 -17,43 -14.0001,31 -18,86 -23.0001,357 -6,297 -7.9999,324 -27.9999,375 -31,78 -73,124 -145,159 -96,47 -256,64 -467,50 z m 265,-657 c -8,-42 -59,-100 -110,-123 -22,-10 -64,-19 -92,-19 -70,0 -114,36 -116,94 -2,57 38,88 165,126 57,18 114,35 128,39 24,7 25,6 28,-38 2,-25 1,-61 -3,-79 z"
         id="path4858"
         style="stroke-width:0.999997" /><path
         d="m 7931.1093,12906.307 c -67,-14 -122,-45 -189,-106 l -62,-56 v 76 76 h -170 -170 v -485 -485 h 184 185 l 3,288 c 3,264 5,290 23,326 26,52 61,77 111,78 55,3 96,-17 120,-55 17,-29 19,-56 22,-334 l 4,-303 h 185 184 l -3,373 c -4,328 -6,378 -22,419 -25,67 -94,140 -158,168 -59,25 -176,35 -247,20 z"
         id="path4878"
         style="stroke-width:0.999997" /><path
         d="m 9073.0324,12877.294 c -142,-33 -237,-126 -292,-285 -20,-59 -23,-86 -23,-222 0,-137 3,-163 23,-223 28,-79 68,-135 138,-192 125,-103 341,-107 469,-10 34.9999,27 45,31 49,18 3,-8 6,-109 6,-224 v -208.999 h 185 184.9999 v 664.999 665 h -175 -174.9999 v -63 -63 l -53,52 c -86,83 -217,118 -337,91 z m 306,-308 c 76,-73 87,-260 21,-353 -29,-41 -98,-69 -148,-61 -90,15 -136,108 -126.0001,255 9,139 64.0001,205 165.0001,197 43,-3 59,-10 88,-38 z"
         id="path4886"
         style="stroke-width:0.999997" /><path
         d="m 10026.443,12605.843 c 4,-358 5,-375 26,-429 44,-110 121,-170 243,-190 130,-21 256,19 351,111 29,28 53,50 55,50 2,0 3,-31 3,-70 v -70 h 174.999 175.001 v 473 c 0,259 -4.001,478 -8,485 -7,9 -51,12 -188.001,10 l -178.999,-3 -5,-295 c -6,-327 -8,-341 -73,-380 -40,-25 -114,-26 -146,-4 -47,33 -51,63 -51,361 0,153 -3,288 -6,301 -6,22 -8,22 -191,22 h -185 z"
         id="path4896"
         style="stroke-width:0.999997" /><path
         d="m 11747.53,12720.718 c -291,-27 -465,-216 -465,-504 0,-153 44,-268 140,-365 105,-107 243,-147 470,-136 191,9 281,39 373,124 49,46 107,122 107,140 0,4 -80,16 -177,24 l -178,16 -37,-33 c -60,-55 -142,-69 -213,-36 -49,22 -73,48 -91,98 -28,79 -58,72 354,75 l 367,3 -2,97 c -4,240 -111,400 -313,468 -73,25 -231,38 -335,29 z m 168,-230 c 45,-23 78,-64 93,-116 8,-29 13,-57 9,-63 -7,-11 -294,-14 -332,-4 -26,7 -27,14 -13,66 13,47 55,97 95,114 37,16 119,18 148,3 z"
         id="path4862"
         style="stroke-width:0.999997" /></g></g><g
     inkscape:groupmode="layer"
     id="layer9"
     inkscape:label="Layer 2"
     style="display:inline"><path
       id="path7007"
       style="display:inline;fill:#ff0000;stroke:none;stroke-width:1px;stroke-linecap:butt;stroke-linejoin:miter;stroke-opacity:1"
       d="m 160.93945,494.65039 c -6.94838,0.0683 -13.74627,4.93106 -14.18945,11.09375 -4.31525,-14.30063 -24.63621,-10.26727 -25.35352,4.34375 l -0.0703,23.46094 54.62891,0.14062 0.0684,-21.36133 c -1.03854,-13.0194 -8.1356,-17.74605 -15.08399,-17.67773 z m -0.32226,9.14453 c 5.01085,0.0987 9.60665,3.35605 9.43888,10.0011 l -0.0695,12.68579 -20.0081,-0.0335 0.11664,-13.00221 c 0.0868,-7.11096 5.51121,-9.74989 10.52206,-9.65119 z m -24.22461,1.95703 c 4.26516,0.10043 8.07347,2.49982 7.67939,8.32586 l 0.16379,12.41852 -16.44364,-0.0932 -0.11636,-13.01614 c 0.67087,-5.38505 4.95344,-7.72365 8.71682,-7.63504 z"
       sodipodi:nodetypes="scccccssccccssccccs" /></g><g
     inkscape:groupmode="layer"
     id="layer10"
     inkscape:label="Layer 3"
     style="display:inline" /></svg>
