<?xml version="1.0" encoding="UTF-8" standalone="no"?>
<svg
   xmlns:dc="http://purl.org/dc/elements/1.1/"
   xmlns:cc="http://creativecommons.org/ns#"
   xmlns:rdf="http://www.w3.org/1999/02/22-rdf-syntax-ns#"
   xmlns:svg="http://www.w3.org/2000/svg"
   xmlns="http://www.w3.org/2000/svg"
   xmlns:sodipodi="http://sodipodi.sourceforge.net/DTD/sodipodi-0.dtd"
   xmlns:inkscape="http://www.inkscape.org/namespaces/inkscape"
   version="1.1"
   id="svg833"
   xml:space="preserve"
   width="1496"
   height="1496"
   viewBox="0 0 1496 1496"
   sodipodi:docname="classeurs.svg"
   inkscape:version="1.0.1 (3bc2e813f5, 2020-09-07)"><metadata
     id="metadata839"><rdf:RDF><cc:Work
         rdf:about=""><dc:format>image/svg+xml</dc:format><dc:type
           rdf:resource="http://purl.org/dc/dcmitype/StillImage" /><dc:title /></cc:Work></rdf:RDF></metadata><defs
     id="defs837" /><sodipodi:namedview
     pagecolor="#ffffff"
     bordercolor="#666666"
     borderopacity="1"
     objecttolerance="10"
     gridtolerance="10"
     guidetolerance="10"
     inkscape:pageopacity="0"
     inkscape:pageshadow="2"
     inkscape:window-width="1920"
     inkscape:window-height="1106"
     id="namedview835"
     showgrid="false"
     inkscape:zoom="0.49131016"
     inkscape:cx="748"
     inkscape:cy="748"
     inkscape:window-x="-11"
     inkscape:window-y="-11"
     inkscape:window-maximized="1"
     inkscape:current-layer="g843"
     inkscape:document-rotation="0" /><g
     id="g841"
     inkscape:groupmode="layer"
     inkscape:label="ink_ext_XXXXXX"
     transform="matrix(1.3333333,0,0,-1.3333333,0,1496)"><g
       id="g843"
       transform="scale(0.1)"><path
         d="m 2589.05,7745.47 h -137.02 l -1.05,1.06 v 47.32 l 1.05,1.05 h 137.02 v -49.43"
         style="fill:#b22b49;fill-opacity:1;fill-rule:nonzero;stroke:none"
         id="path847" /><path
         d="m 2643.44,7648.98 h -137.02 l -1.05,1.06 v 47.32 l 1.05,1.05 h 137.02 v -49.43"
         style="fill:#6488ad;fill-opacity:1;fill-rule:nonzero;stroke:none"
         id="path849" /><path
         d="m 2678.3,7557.01 h -137.01 l -1.05,1.05 v 47.32 l 1.05,1.06 h 137.01 v -49.43"
         style="fill:#a9c2a9;fill-opacity:1;fill-rule:nonzero;stroke:none"
         id="path851" /><path
         d="m 6654.91,2110 711.91,559.22 c 37.66,29.58 17.3,91.37 -30.1,91.37 H 3228.21 L 2676.35,2110 h 3978.56"
         style="fill:#907b67;fill-opacity:1;fill-rule:nonzero;stroke:none"
         id="path853" /><path
         d="m 6488.96,2926.73 v -726.84 l 680.39,477.08 -23.05,504.37 -657.34,-254.61"
         style="fill:#e3e4e3;fill-opacity:1;fill-rule:nonzero;stroke:none"
         id="path855" /><path
         d="m 6654.91,2982.3 582.54,236.59 c 33.63,13.66 24.27,64.96 -11.89,65.2 l -3834.18,24.69 -715.03,-292.42 3978.56,-34.06"
         style="fill:#907b67;fill-opacity:1;fill-rule:nonzero;stroke:none"
         id="path857" /><path
         d="m 2676.35,2110 h 3978.56 v 906.359 H 2676.35 Z"
         style="fill:#9a8473;fill-opacity:1;fill-rule:nonzero;stroke:none"
         id="path859" /><path
         d="m 7148.01,3144.04 -1.66,36.34 2.4,0.96 1.64,-35.8 -2.38,-1.5"
         style="fill:#ebebeb;fill-opacity:1;fill-rule:nonzero;stroke:none"
         id="path861" /><path
         d="m 6654.91,2831.81 v 150.49 l 491.44,198.08 1.66,-36.34 -493.1,-312.23"
         style="fill:#d1d2d1;fill-opacity:1;fill-rule:nonzero;stroke:none"
         id="path863" /><path
         d="m 6654.74,2831.7 0.17,150.6 v -150.49 l -0.17,-0.11"
         style="fill:#8e7a6a;fill-opacity:1;fill-rule:nonzero;stroke:none"
         id="path865" /><path
         d="M 2897.69,2831.7 V 2272.96 H 5566.95 V 2831.7 H 2897.69"
         style="fill:#f0f0f0;fill-opacity:1;fill-rule:nonzero;stroke:none"
         id="path867" /><path
         d="m 6278.2,2557.25 c 0,-113.94 -89.91,-206.3 -200.82,-206.3 -110.92,0 -200.82,92.36 -200.82,206.3 0,113.94 89.9,206.3 200.82,206.3 110.91,0 200.82,-92.36 200.82,-206.3"
         style="fill:#303030;fill-opacity:1;fill-rule:nonzero;stroke:none"
         id="path869" /><path
         d="m 6077.38,2753.88 c -105.55,0 -191.41,-88.2 -191.41,-196.63 0,-108.43 85.86,-196.63 191.41,-196.63 105.54,0 191.41,88.2 191.41,196.63 0,108.43 -85.87,196.63 -191.41,196.63 z m 0,-412.61 c -115.93,0 -210.24,96.88 -210.24,215.98 0,119.09 94.31,215.97 210.24,215.97 115.93,0 210.23,-96.88 210.23,-215.97 0,-119.1 -94.3,-215.98 -210.23,-215.98"
         style="fill:#bdc6aa;fill-opacity:1;fill-rule:nonzero;stroke:none"
         id="path871" /><path
         d="m 6086.25,9110 1072.17,-633.2 c 55.87,-36.15 20.25,-102.19 -39.93,-102.19 l -4058.5,87.48 -344.96,458.28 3371.22,189.63"
         style="fill:#507798;fill-opacity:1;fill-rule:nonzero;stroke:none"
         id="path873" /><path
         d="m 6051.13,8209.54 -35.03,872.7 892.56,-527.49 -31.94,-635.62 -825.59,290.41"
         style="fill:#e4e4e2;fill-opacity:1;fill-rule:nonzero;stroke:none"
         id="path875" /><path
         d="m 6080.73,8258.54 926.81,-359.78 c 48.38,-18.83 35.11,-80.52 -16.73,-78.1 l -3817.45,178.64 -470.75,259.24 h 3378.12"
         style="fill:#507798;fill-opacity:1;fill-rule:nonzero;stroke:none"
         id="path877" /><path
         d="m 6086.25,9110 -3385.83,-190.22 2.19,-661.24 h 3378.12 l 5.52,851.46"
         style="fill:#6488ad;fill-opacity:1;fill-rule:nonzero;stroke:none"
         id="path879" /><path
         d="m 2842.23,8335.92 -1.6,483.97 2152.91,138.55 2.03,-611.43 -2153.34,-11.09"
         style="fill:#ffffff;fill-opacity:1;fill-rule:nonzero;stroke:none"
         id="path881" /><path
         d="m 2780.71,3113.42 h 3958.4 v 921.5 h -3958.4 z"
         style="fill:#c9c9c9;fill-opacity:1;fill-rule:nonzero;stroke:none"
         id="path883" /><path
         d="m 2686.43,4032.85 h 3958.4 v 650.84 h -3958.4 z"
         style="fill:#a9c2a9;fill-opacity:1;fill-rule:nonzero;stroke:none"
         id="path885" /><path
         d="m 2838.2,4682.11 h 3958.39 v 775.582 H 2838.2 Z"
         style="fill:#6488ad;fill-opacity:1;fill-rule:nonzero;stroke:none"
         id="path887" /><path
         d="m 2589.05,5407.76 h 3958.39 v 923.449 H 2589.05 Z"
         style="fill:#b22b49;fill-opacity:1;fill-rule:nonzero;stroke:none"
         id="path889" /><path
         d="m 2678.3,6337.13 h 3958.4 v 923.441 H 2678.3 Z"
         style="fill:#f7de8d;fill-opacity:1;fill-rule:nonzero;stroke:none"
         id="path891" /><path
         d="m 2767.56,7264.08 h 3958.4 v 317.637 h -3958.4 z"
         style="fill:#e8cbad;fill-opacity:1;fill-rule:nonzero;stroke:none"
         id="path893" /><path
         d="m 2589.05,7514.88 h 3958.39 v 317.633 H 2589.05 Z"
         style="fill:#e8cbad;fill-opacity:1;fill-rule:nonzero;stroke:none"
         id="path895" /><path
         d="M 6666.12,7992.05 H 2707.73 c 12.84,52.12 12.84,106.7 0,158.81 l 3958.39,-79.4 v -79.41"
         style="fill:#e3e4e3;fill-opacity:1;fill-rule:nonzero;stroke:none"
         id="path897" /><path
         d="m 6739.11,7833.23 h -3958.4 c 17.24,51.45 17.24,107.36 0,158.82 h 3958.4 v -158.82"
         style="fill:#dadadb;fill-opacity:1;fill-rule:nonzero;stroke:none"
         id="path899" /><path
         d="M 5328.61,5550.21 H 2871.04 v 638.54 h 2457.57 v -638.54"
         style="fill:#f0f0f0;fill-opacity:1;fill-rule:nonzero;stroke:none"
         id="path901" /><path
         d="m 6353.04,5114.4 c 0,-110.18 -86.94,-199.48 -194.18,-199.48 -107.24,0 -194.17,89.3 -194.17,199.48 0,110.16 86.93,199.47 194.17,199.47 107.24,0 194.18,-89.31 194.18,-199.47"
         style="fill:#373736;fill-opacity:1;fill-rule:nonzero;stroke:none"
         id="path903" /><path
         d="m 6158.86,5304.2 c -101.88,0 -184.76,-85.14 -184.76,-189.8 0,-104.67 82.88,-189.82 184.76,-189.82 101.88,0 184.77,85.15 184.77,189.82 0,104.66 -82.89,189.8 -184.77,189.8 m 0,-398.95 c -112.26,0 -203.59,93.81 -203.59,209.15 0,115.32 91.33,209.14 203.59,209.14 112.27,0 203.6,-93.82 203.6,-209.14 0,-115.34 -91.33,-209.15 -203.6,-209.15"
         style="fill:#beae97;fill-opacity:1;fill-rule:nonzero;stroke:none"
         id="path905" /><path
         d="m 6271.55,5861.61 c 0,-110.16 -86.93,-199.48 -194.17,-199.48 -107.24,0 -194.18,89.32 -194.18,199.48 0,110.17 86.94,199.48 194.18,199.48 107.24,0 194.17,-89.31 194.17,-199.48"
         style="fill:#373736;fill-opacity:1;fill-rule:nonzero;stroke:none"
         id="path907" /><path
         d="m 6077.38,6051.42 c -101.88,0 -184.77,-85.15 -184.77,-189.81 0,-104.66 82.89,-189.81 184.77,-189.81 101.88,0 184.76,85.15 184.76,189.81 0,104.66 -82.88,189.81 -184.76,189.81 z m 0,-398.96 c -112.27,0 -203.6,93.82 -203.6,209.15 0,115.33 91.33,209.15 203.6,209.15 112.26,0 203.59,-93.82 203.59,-209.15 0,-115.33 -91.33,-209.15 -203.59,-209.15"
         style="fill:#beae97;fill-opacity:1;fill-rule:nonzero;stroke:none"
         id="path909" /><path
         d="m 6246.08,6699.96 c 0,-110.17 -86.93,-199.48 -194.17,-199.48 -107.24,0 -194.18,89.31 -194.18,199.48 0,110.17 86.94,199.47 194.18,199.47 107.24,0 194.17,-89.3 194.17,-199.47"
         style="fill:#373736;fill-opacity:1;fill-rule:nonzero;stroke:none"
         id="path911" /><path
         d="m 6051.91,6889.77 c -101.89,0 -184.77,-85.15 -184.77,-189.81 0,-104.67 82.88,-189.81 184.77,-189.81 101.88,0 184.76,85.14 184.76,189.81 0,104.66 -82.88,189.81 -184.76,189.81 m 0,-398.97 c -112.27,0 -203.6,93.83 -203.6,209.16 0,115.33 91.33,209.15 203.6,209.15 112.26,0 203.59,-93.82 203.59,-209.15 0,-115.33 -91.33,-209.16 -203.59,-209.16"
         style="fill:#beae97;fill-opacity:1;fill-rule:nonzero;stroke:none"
         id="path913" /><path
         d="m 6334.21,3543.13 c 0,-110.17 -86.93,-199.48 -194.18,-199.48 -107.24,0 -194.17,89.31 -194.17,199.48 0,110.17 86.93,199.48 194.17,199.48 107.25,0 194.18,-89.31 194.18,-199.48"
         style="fill:#373736;fill-opacity:1;fill-rule:nonzero;stroke:none"
         id="path915" /><path
         d="m 6140.03,3732.94 c -101.88,0 -184.76,-85.15 -184.76,-189.81 0,-104.66 82.88,-189.81 184.76,-189.81 101.89,0 184.77,85.15 184.77,189.81 0,104.66 -82.88,189.81 -184.77,189.81 z m 0,-398.96 c -112.26,0 -203.59,93.82 -203.59,209.15 0,115.33 91.33,209.15 203.59,209.15 112.27,0 203.6,-93.82 203.6,-209.15 0,-115.33 -91.33,-209.15 -203.6,-209.15"
         style="fill:#beae97;fill-opacity:1;fill-rule:nonzero;stroke:none"
         id="path917" /><path
         d="m 5726.38,8684.27 c 0,-110.17 -86.94,-199.48 -194.18,-199.48 -107.24,0 -194.17,89.31 -194.17,199.48 0,110.17 86.93,199.48 194.17,199.48 107.24,0 194.18,-89.31 194.18,-199.48"
         style="fill:#373736;fill-opacity:1;fill-rule:nonzero;stroke:none"
         id="path919" /><path
         d="m 5532.2,8874.08 c -101.88,0 -184.76,-85.15 -184.76,-189.81 0,-104.67 82.88,-189.81 184.76,-189.81 101.89,0 184.77,85.14 184.77,189.81 0,104.66 -82.88,189.81 -184.77,189.81 z m 0,-398.96 c -112.26,0 -203.59,93.82 -203.59,209.15 0,115.32 91.33,209.15 203.59,209.15 112.27,0 203.6,-93.83 203.6,-209.15 0,-115.33 -91.33,-209.15 -203.6,-209.15"
         style="fill:#beae97;fill-opacity:1;fill-rule:nonzero;stroke:none"
         id="path921" /><path
         d="m 5603.64,6729.53 c 0,0 1264.34,-739.98 2105.78,526.98 l 1059.6,-673.19 c 0,0 -1590.65,-666.22 -1712.5,-624.21 -900.95,310.6 -1452.88,770.42 -1452.88,770.42"
         style="fill:#f0f0f0;fill-opacity:1;fill-rule:nonzero;stroke:none"
         id="path923" /><path
         d="m 6086.25,8549.2 c 0,0 233.15,-106.72 867.6,217.12 l 679.48,-265.63 c 0,0 -697.84,-389.63 -763.55,-366.97 -485.88,167.51 -783.53,415.48 -783.53,415.48"
         style="fill:#f0f0f0;fill-opacity:1;fill-rule:nonzero;stroke:none"
         id="path925" /><path
         d="m 6725.6,4034.92 h -80.77 v 519.61 c 18.58,-22.2 38.1,-44.08 58.6,-65.52 7.99,-151.35 15.97,-302.68 22.17,-454.09"
         style="fill:#ededed;fill-opacity:1;fill-rule:nonzero;stroke:none"
         id="path927" /><path
         d="m 6736.42,3653.33 c -167.25,128.93 -289.17,232.68 -298.21,267.35 -9.85,37.8 -19.13,75.17 -27.9,112.17 h 234.52 v 2.07 h 80.77 c 5.2,-127.14 9.15,-254.33 10.82,-381.59"
         style="fill:#bbbbbb;fill-opacity:1;fill-rule:nonzero;stroke:none"
         id="path929" /><path
         d="m 6644.83,4032.85 h -234.52 c -56.08,236.76 -90.67,456.65 -111.5,649.26 h 251.02 c 28.58,-43.2 60.14,-85.96 95,-127.58 v -519.61 -2.07"
         style="fill:#9db49d;fill-opacity:1;fill-rule:nonzero;stroke:none"
         id="path931" /><path
         d="m 6549.83,4682.11 h -251.02 c -10.2,94.32 -17.11,182.08 -21.63,262.16 42.87,31.56 73.38,79.78 82.47,135.37 40.46,-122.8 100.71,-262.33 190.18,-397.53 m -238.04,570.21 c -12.09,14.14 -26,26.58 -41.36,36.95 1.06,50.21 2.92,90.15 4.6,118.49 h 8.89 c 4.62,-36.05 13.03,-89.83 27.87,-155.44"
         style="fill:#5d7ea1;fill-opacity:1;fill-rule:nonzero;stroke:none"
         id="path933" /><path
         d="m 6283.92,5407.76 h -8.89 c 1.95,32.64 3.66,49.94 3.66,49.94 0,0 1.13,-18.01 5.23,-49.94"
         style="fill:#a52844;fill-opacity:1;fill-rule:nonzero;stroke:none"
         id="path935" /><path
         d="m 6275.91,4967.63 c -6.15,118.72 -7.06,219.55 -5.89,298.29 23.29,-18.07 42.31,-41.69 55.17,-68.91 5.23,-20.23 11.03,-41.27 17.46,-63 0.65,-6.45 0.98,-13 0.98,-19.61 0,-59.08 -26.4,-111.93 -67.72,-146.77"
         style="fill:#333332;fill-opacity:1;fill-rule:nonzero;stroke:none"
         id="path937" /><path
         d="m 6277.18,4944.27 c -0.45,7.88 -0.87,15.64 -1.27,23.36 41.32,34.84 67.72,87.69 67.72,146.77 0,6.61 -0.33,13.16 -0.98,19.61 5.24,-17.7 10.89,-35.84 17,-54.37 -9.09,-55.59 -39.6,-103.81 -82.47,-135.37 m 48.01,252.74 c -12.86,27.22 -31.88,50.84 -55.17,68.91 0.11,8.02 0.25,15.8 0.41,23.35 15.36,-10.37 29.27,-22.81 41.36,-36.95 3.98,-17.61 8.44,-36.11 13.4,-55.31"
         style="fill:#b1a28c;fill-opacity:1;fill-rule:nonzero;stroke:none"
         id="path939" /><path
         d="m 6384.72,5698.83 c 0,0 85.96,-1373.25 1480.58,-1383.81 l 31.72,-1178.11 c 0,0 -1322.23,907.61 -1352.79,1024.91 -225.96,867.3 -159.51,1537.01 -159.51,1537.01"
         style="fill:#f0f0f0;fill-opacity:1;fill-rule:nonzero;stroke:none"
         id="path941" /><path
         d="m 3239.98,8133.66 c -87.3,17.93 -175.2,32.69 -263.34,45.55 -83.43,12.18 -168.9,17.57 -251.72,33.24 50.48,-9.55 100.95,-19.1 151.43,-28.64 -82.11,17.08 -164.22,34.14 -246.34,51.2 49.19,-33.63 91.54,-50.05 120.4,-58.05 l -0.22,-0.88 -121.95,7.8 -0.22,-0.92 c 96.27,-53.7 163.68,-50.23 163.68,-50.23 l 415.11,7.93 33.17,-7"
         style="fill:#e3e4e3;fill-opacity:1;fill-rule:nonzero;stroke:none"
         id="path943" /><path
         d="m 6522.54,8231.15 515.05,-191.58 v -19.02 l -966.85,315.37 451.8,-104.77"
         style="fill:#f0f0f0;fill-opacity:1;fill-rule:nonzero;stroke:none"
         id="path945" /><path
         d="m 5885.33,7260.57 h -843.11 c -2,1.17 -4,2.34 -6.01,3.51 h 840.88 c 2.74,-1.16 5.52,-2.35 8.24,-3.51 m -1887.38,571.94 h -30.92 c -0.98,0.48 -1.47,0.72 -1.47,0.72 10.64,-0.09 21.42,-0.33 32.39,-0.72"
         style="fill:#cccccc;fill-opacity:1;fill-rule:nonzero;stroke:none"
         id="path947" /><path
         d="m 5838.39,6633.92 c -28.42,142.49 -394.84,391.97 -796.17,626.65 h 843.11 c 273.78,-116.82 458.3,-204.82 458.3,-204.82 l -201.56,-168.29 c -27.19,13.86 -57.81,21.65 -90.16,21.65 -112.27,0 -203.6,-93.82 -203.6,-209.15 0,-18.08 2.25,-35.62 6.46,-52.36 l -16.38,-13.68"
         style="fill:#c6b271;fill-opacity:1;fill-rule:nonzero;stroke:none"
         id="path949" /><path
         d="m 5877.09,7264.08 h -840.88 c -150.55,87.91 -305.81,173.65 -449.76,250.8 h 661.06 c 229.91,-84.58 448.76,-173.77 629.58,-250.8"
         style="fill:#baa38a;fill-opacity:1;fill-rule:nonzero;stroke:none"
         id="path951" /><path
         d="m 5247.51,7514.88 h -661.06 c -327.9,175.71 -597.3,306.89 -619.42,317.63 h 30.92 c 332.03,-11.64 810.95,-156.27 1249.56,-317.63"
         style="fill:#baa38a;fill-opacity:1;fill-rule:nonzero;stroke:none"
         id="path953" /><path
         d="m 5871.02,6661.16 c -2.54,12.53 -3.88,25.5 -3.88,38.8 0,104.66 82.88,189.81 184.77,189.81 26.27,0 51.27,-5.66 73.92,-15.86 l -254.81,-212.75"
         style="fill:#2c2c2b;fill-opacity:1;fill-rule:nonzero;stroke:none"
         id="path955" /><path
         d="m 5854.77,6647.6 c -4.21,16.74 -6.46,34.28 -6.46,52.36 0,115.33 91.33,209.15 203.6,209.15 32.35,0 62.97,-7.79 90.16,-21.65 l -16.24,-13.55 c -22.65,10.2 -47.65,15.86 -73.92,15.86 -101.89,0 -184.77,-85.15 -184.77,-189.81 0,-13.3 1.34,-26.27 3.88,-38.8 l -16.25,-13.56"
         style="fill:#988b79;fill-opacity:1;fill-rule:nonzero;stroke:none"
         id="path957" /><path
         d="m 6412.14,6775.56 v 0 c -441.56,347.99 -940.28,611.84 -1472.47,779.05 l -974.11,278.62 H 7585.22 L 6412.14,6775.56"
         style="fill:#e3e4e3;fill-opacity:1;fill-rule:nonzero;stroke:none"
         id="path959" /><path
         d="m 2933.88,7039.41 v -150.18 c 56.46,-17.09 97.71,-70.65 97.71,-134.19 0,-63.53 -41.25,-117.1 -97.71,-134.18 V 6456.3 h 794.06 v 583.11 h -794.06"
         style="fill:#f6f1e3;fill-opacity:1;fill-rule:nonzero;stroke:none"
         id="path961" /><path
         d="m 3034.56,4572.35 v -110.28 c 56.46,-12.53 97.72,-51.87 97.72,-98.52 0,-46.65 -41.26,-85.98 -97.72,-98.52 V 4144.2 h 794.06 v 428.15 h -794.06"
         style="fill:#f0f0f0;fill-opacity:1;fill-rule:nonzero;stroke:none"
         id="path963" /><path
         d="m 3552.24,6505.5 h -19.03 v 487.83 h 19.03 V 6505.5"
         style="fill:#9a8473;fill-opacity:1;fill-rule:nonzero;stroke:none"
         id="path965" /><path
         d="m 3680.91,6505.5 h -89.32 v 487.83 h 89.32 V 6505.5"
         style="fill:#e8cbad;fill-opacity:1;fill-rule:nonzero;stroke:none"
         id="path967" /><path
         d="M 5386.64,3343.07 H 3102.28 v 458.98 h 2284.36 v -458.98"
         style="fill:#f0f0f0;fill-opacity:1;fill-rule:nonzero;stroke:none"
         id="path969" /><path
         d="M 5386.64,4884.91 H 3102.28 v 458.97 h 2284.36 v -458.97"
         style="fill:#f0f0f0;fill-opacity:1;fill-rule:nonzero;stroke:none"
         id="path971" /><path
         d="m 3280.09,4199.61 h 53.7188 v 275.082 H 3280.09 Z"
         style="fill:#d9dfe5;fill-opacity:1;fill-rule:nonzero;stroke:none"
         id="path973" /><path
         d="m 3404.73,4199.61 h 53.7188 v 275.082 H 3404.73 Z"
         style="fill:#d9dfe5;fill-opacity:1;fill-rule:nonzero;stroke:none"
         id="path975" /><path
         d="m 3564.73,4199.61 h 53.7109 v 275.082 H 3564.73 Z"
         style="fill:#d9dfe5;fill-opacity:1;fill-rule:nonzero;stroke:none"
         id="path977" /><path
         d="m 6278.2,4144.19 h -86.18 v 386.37 h 86.18 v -386.37"
         style="fill:#f7de8d;fill-opacity:1;fill-rule:nonzero;stroke:none"
         id="path979" /></g></g></svg>
