<?xml version="1.0" encoding="UTF-8" standalone="no"?>
<!-- Created with Inkscape (http://www.inkscape.org/) -->

<svg
   xmlns:dc="http://purl.org/dc/elements/1.1/"
   xmlns:cc="http://creativecommons.org/ns#"
   xmlns:rdf="http://www.w3.org/1999/02/22-rdf-syntax-ns#"
   xmlns:svg="http://www.w3.org/2000/svg"
   xmlns="http://www.w3.org/2000/svg"
   xmlns:xlink="http://www.w3.org/1999/xlink"
   xmlns:sodipodi="http://sodipodi.sourceforge.net/DTD/sodipodi-0.dtd"
   xmlns:inkscape="http://www.inkscape.org/namespaces/inkscape"
   version="1.1"
   id="svg5334"
   xml:space="preserve"
   width="1496"
   height="1496"
   viewBox="0 0 1496 1496"
   sodipodi:docname="classeurs2.svg"
   inkscape:version="0.92.4 (5da689c313, 2019-01-14)"><metadata
     id="metadata5340"><rdf:RDF><cc:Work
         rdf:about=""><dc:format>image/svg+xml</dc:format><dc:type
           rdf:resource="http://purl.org/dc/dcmitype/StillImage" /><dc:title></dc:title></cc:Work></rdf:RDF></metadata><defs
     id="defs5338"><linearGradient
       id="linearGradient9134"
       inkscape:collect="always"><stop
         id="stop9130"
         offset="0"
         style="stop-color:#ffcc00;stop-opacity:1;" /><stop
         id="stop9132"
         offset="1"
         style="stop-color:#ffcc00;stop-opacity:0;" /></linearGradient><linearGradient
       gradientTransform="matrix(2.2824859,0,0,2.2569831,-676.42008,-316.54375)"
       gradientUnits="userSpaceOnUse"
       y2="-32.950512"
       x2="99.696381"
       y1="317.53015"
       x1="475.20569"
       id="linearGradient9136"
       xlink:href="#linearGradient9134"
       inkscape:collect="always" /></defs><sodipodi:namedview
     pagecolor="#ffffff"
     bordercolor="#666666"
     borderopacity="1"
     objecttolerance="10"
     gridtolerance="10"
     guidetolerance="10"
     inkscape:pageopacity="0"
     inkscape:pageshadow="2"
     inkscape:window-width="1920"
     inkscape:window-height="1001"
     id="namedview5336"
     showgrid="false"
     inkscape:zoom="1.2620321"
     inkscape:cx="1243.0786"
     inkscape:cy="366.42055"
     inkscape:window-x="-9"
     inkscape:window-y="-9"
     inkscape:window-maximized="1"
     inkscape:current-layer="g5344" /><g
     id="g5342"
     inkscape:groupmode="layer"
     inkscape:label="Classeurs"
     transform="matrix(1.3333333,0,0,-1.3333333,0,1496)"
     style="display:inline"><g
       id="g5344"
       transform="matrix(0.1,0,0,0.1,-1.6808768,-3.3617535)"><path
         d="m 5768.3101,9090.2825 -0.2173,310.902 -2.094,2.38 -93.4063,-0.08 -2.0711,-2.385 0.2175,-310.901 97.5712,0.09"
         style="fill:#b22b49;fill-opacity:1;fill-rule:nonzero;stroke:none;stroke-width:2.11633992"
         id="path5348"
         inkscape:connector-curvature="0" /><path
         d="m 5958.8608,8967.0465 -0.2173,310.901 -2.0942,2.381 -93.4061,-0.09 -2.071,-2.384 0.2174,-310.902 97.5712,0.09"
         style="fill:#6488ad;fill-opacity:1;fill-rule:nonzero;stroke:none;stroke-width:2.11633992"
         id="path5350"
         inkscape:connector-curvature="0" /><path
         d="m 6140.4584,8888.1155 -0.2173,310.879 -2.0744,2.381 -93.4062,-0.09 -2.0908,-2.384 0.2175,-310.879 97.5712,0.09"
         style="fill:#a9c2a9;fill-opacity:1;fill-rule:nonzero;stroke:none;stroke-width:2.11633992"
         id="path5352"
         inkscape:connector-curvature="0" /><path
         d="M 2238.6627,10258.435 2210.7423,115.94706 97.898301,123.63256 125.81901,10266.121 Z"
         style="fill:#9a8473;fill-opacity:1;fill-rule:nonzero;stroke:none;stroke-width:2.43778324"
         id="path5360"
         inkscape:connector-curvature="0" /><path
         d="m -71.894769,6998.0268 3.27679,82.4563 -4.73742,2.1783 -3.23723,-81.2311 4.69786,-3.4035"
         style="fill:#ebebeb;fill-opacity:1;fill-rule:nonzero;stroke:none;stroke-width:2.11633992"
         id="path5362"
         inkscape:connector-curvature="0" /><path
         d="m 901.78535,6289.3197 -0.33554,341.715 v -341.4655 l 0.33554,-0.2495"
         style="fill:#8e7a6a;fill-opacity:1;fill-rule:nonzero;stroke:none;stroke-width:2.11633992"
         id="path5366"
         inkscape:connector-curvature="0" /><path
         d="m 554.73034,9700.2965 1302.49756,-4.737 -18.7323,-6804.7087 -1302.49725,4.7379 18.73199,6804.7078"
         style="fill:#f0f0f0;fill-opacity:1;fill-rule:nonzero;stroke:none;stroke-width:2.43778324"
         id="path5368"
         inkscape:connector-curvature="0" /><path
         d="m 1170.7864,1080.0812 c 265.6094,-0.9661 481.5438,227.457 482.3221,510.1985 0.7784,282.7668 -213.8941,512.7306 -479.5035,513.6968 -265.60936,0.9664 -481.54373,-227.4314 -482.32225,-510.1983 -0.77829,-282.7415 213.89424,-512.7307 479.50365,-513.697"
         style="fill:#303030;fill-opacity:1;fill-rule:nonzero;stroke:none;stroke-width:2.43778324"
         id="path5370"
         inkscape:connector-curvature="0" /><path
         d="m 8042.4538,9793.9745 7.7921,-9682.72694 -1818.9753,-2.2479 -7.7921,9682.72684 z"
         style="fill:#c9c9c9;fill-opacity:1;fill-rule:nonzero;stroke:none;stroke-width:2.19737864"
         id="path5384"
         inkscape:connector-curvature="0" /><path
         d="m 9327.1658,8660.0032 -7.1469,-8550.26864 -1284.7115,1.2857 7.1464,8550.26874 z"
         style="fill:#a9c2a9;fill-opacity:1;fill-rule:nonzero;stroke:none;stroke-width:2.06488538"
         id="path5386"
         inkscape:connector-curvature="0" /><path
         d="m 5596.4935,8793.4685 5.1013,-8685.06494 -1530.9441,-1.111 -5.1012,8685.06494 z"
         style="fill:#6488ad;fill-opacity:1;fill-rule:nonzero;stroke:none;stroke-width:2.0811007"
         id="path5388"
         inkscape:connector-curvature="0" /><path
         d="m 4065.5495,9088.9745 -31.9991,-8981.60844 -1822.8081,8.581 31.9992,8981.60844 z"
         style="fill:#b22b49;fill-opacity:1;fill-rule:nonzero;stroke:none;stroke-width:2.11633992"
         id="path5390"
         inkscape:connector-curvature="0" /><path
         d="m 11149.974,9088.7715 -9.941,-8981.69914 -1822.8077,2.6655 9.9405,8981.69964 z"
         style="fill:#f7de8d;fill-opacity:1;fill-rule:nonzero;stroke:none;stroke-width:2.11633992"
         id="path5392"
         inkscape:connector-curvature="0" /><path
         d="m 6223.4785,9090.7035 6.2812,-8981.68174 -626.985,-0.5792 -6.2812,8981.68094 z"
         style="fill:#e8cbad;fill-opacity:1;fill-rule:nonzero;stroke:none;stroke-width:2.11633992"
         id="path5396"
         inkscape:connector-curvature="0" /><path
         d="m 3762.2192,2874.2217 19.8669,5576.24 -1260.4225,5.9337 -19.8668,-5576.2399 1260.4224,-5.9338"
         style="fill:#f0f0f0;fill-opacity:1;fill-rule:nonzero;stroke:none;stroke-width:2.11633992"
         id="path5402"
         inkscape:connector-curvature="0" /><path
         d="m 4747.7133,1114.2268 c 217.4875,0.1631 393.6474,197.5644 393.5092,440.8946 -0.1382,243.3301 -176.5222,440.4441 -394.0096,440.2808 -217.4482,-0.1631 -393.6278,-197.5417 -393.4897,-440.8718 0.1382,-243.3302 176.542,-440.4668 393.9901,-440.3036"
         style="fill:#373736;fill-opacity:1;fill-rule:nonzero;stroke:none;stroke-width:2.11633992"
         id="path5404"
         inkscape:connector-curvature="0" /><path
         d="m 3139.9201,737.57936 c 217.4463,-1.0237 394.459,195.391 395.3259,438.71904 0.8668,243.3282 -174.7404,441.4256 -392.1866,442.4492 -217.4659,1.0237 -394.4589,-195.4136 -395.3257,-438.7419 -0.867,-243.32804 174.7204,-441.40254 392.1864,-442.42634"
         style="fill:#373736;fill-opacity:1;fill-rule:nonzero;stroke:none;stroke-width:2.11633992"
         id="path5408"
         inkscape:connector-curvature="0" /><path
         d="m 10294.071,970.67417 c 217.468,-0.3181 393.976,196.67013 394.247,440.00013 0.269,243.3299 -175.804,440.8568 -393.272,441.1748 -217.468,0.318 -393.9585,-196.6931 -394.2275,-440.023 -0.268,-243.33 175.7845,-440.83403 393.2525,-441.15193"
         style="fill:#373736;fill-opacity:1;fill-rule:nonzero;stroke:none;stroke-width:2.11633992"
         id="path5412"
         inkscape:connector-curvature="0" /><path
         d="m 7201.2319,1028.8402 c 217.4676,0.2492 393.5882,197.6974 393.3771,441.0503 -0.2112,243.33 -176.6737,440.3742 -394.1415,440.1248 -217.4677,-0.2492 -393.5882,-197.6975 -393.377,-441.0276 0.211,-243.3528 176.6737,-440.3968 394.1414,-440.1475"
         style="fill:#373736;fill-opacity:1;fill-rule:nonzero;stroke:none;stroke-width:2.11633992"
         id="path5416"
         inkscape:connector-curvature="0" /><path
         d="m 9763.0802,8510.8822 296.4448,-0.4334 c 33.593,-128.1583 139.211,-221.9102 264.635,-222.0937 125.403,-0.1839 231.252,93.2592 265.109,221.319 l 324.828,-0.4751 -1.994,-1801.7404 -1151.0163,1.6835 1.9935,1801.7401"
         style="fill:#f6f1e3;fill-opacity:1;fill-rule:nonzero;stroke:none;stroke-width:2.11633992"
         id="path5462"
         inkscape:connector-curvature="0" /><path
         d="m 8261.6026,8302.642 217.6847,-0.229 c 24.6316,-128.135 102.2113,-221.8366 194.2951,-221.9333 92.0839,-0.097 169.7929,93.4414 194.648,221.5244 l 238.5094,-0.2507 -1.4328,-1801.7408 -845.138,0.8884 1.4336,1801.741"
         style="fill:#f0f0f0;fill-opacity:1;fill-rule:nonzero;stroke:none;stroke-width:2.11633992"
         id="path5464"
         inkscape:connector-curvature="0" /><path
         d="m 10815.428,7106.2681 0.03,43.1796 -962.942,1.4081 -0.045,-43.1795 962.943,-1.4082"
         style="fill:#9a8473;fill-opacity:1;fill-rule:nonzero;stroke:none;stroke-width:2.11633992"
         id="path5466"
         inkscape:connector-curvature="0" /><path
         d="m 10815.105,6814.313 0.224,202.669 -962.9416,1.4084 -0.2237,-202.6693 962.9413,-1.4081"
         style="fill:#e8cbad;fill-opacity:1;fill-rule:nonzero;stroke:none;stroke-width:2.11633992"
         id="path5468"
         inkscape:connector-curvature="0" /><path
         d="m 7547.3481,4096.2872 -4.4967,5183.2663 -905.9937,-1.038 4.4967,-5183.2669 905.9937,1.0386"
         style="fill:#f0f0f0;fill-opacity:1;fill-rule:nonzero;stroke:none;stroke-width:2.11633992"
         id="path5470"
         inkscape:connector-curvature="0" /><path
         d="m 5246.3875,3334.3202 -2.9437,5183.268 -905.9744,-0.68 2.9438,-5183.2678 905.9743,0.6798"
         style="fill:#f0f0f0;fill-opacity:1;fill-rule:nonzero;stroke:none;stroke-width:2.11633992"
         id="path5472"
         inkscape:connector-curvature="0" /><path
         d="m 8996.9215,7744.755 -0.097,-121.8892 -542.9923,0.5709 0.097,121.8892 z"
         style="fill:#d9dfe5;fill-opacity:1;fill-rule:nonzero;stroke:none;stroke-width:2.11633992"
         id="path5474"
         inkscape:connector-curvature="0" /><path
         d="m 8996.6966,7461.944 -0.097,-121.8892 -542.9923,0.5709 0.097,121.8891 z"
         style="fill:#d9dfe5;fill-opacity:1;fill-rule:nonzero;stroke:none;stroke-width:2.11633992"
         id="path5476"
         inkscape:connector-curvature="0" /><path
         d="m 8996.4081,7098.9004 -0.097,-121.8714 -542.9924,0.5709 0.097,121.8714 z"
         style="fill:#d9dfe5;fill-opacity:1;fill-rule:nonzero;stroke:none;stroke-width:2.11633992"
         id="path5478"
         inkscape:connector-curvature="0" /><path
         d="m 9100.9043,941.85766 0.1562,195.54454 -762.6675,0.8018 -0.1559,-195.54454 762.6672,-0.8018"
         style="fill:#f7de8d;fill-opacity:1;fill-rule:nonzero;stroke:none;stroke-width:2.11633992"
         id="path5480"
         inkscape:connector-curvature="0" /><flowRoot
         xml:space="preserve"
         id="flowRoot8494"
         style="font-style:normal;font-weight:normal;font-size:32px;line-height:1.25;font-family:sans-serif;letter-spacing:0px;word-spacing:0px;fill:#000000;fill-opacity:1;stroke:none"
         transform="matrix(0.01363491,7.4999878,7.4999878,-0.01363491,-4056.5197,6657.309)"><flowRegion
           id="flowRegion8496"
           style="font-size:32px;line-height:1.25"><rect
             id="rect8498"
             width="308.56693"
             height="116.85937"
             x="76.067795"
             y="656.08472"
             style="font-size:32px;line-height:1.25" /></flowRegion><flowPara
           id="flowPara8500"
           style="font-size:74.66666412px;line-height:1.25">Banque</flowPara></flowRoot><flowRoot
         xml:space="preserve"
         id="flowRoot8502"
         style="font-style:normal;font-weight:normal;font-size:14.66666698px;line-height:1.25;font-family:sans-serif;letter-spacing:0px;word-spacing:0px;fill:#000000;fill-opacity:1;stroke:none"><flowRegion
           id="flowRegion8504"><rect
             id="rect8506"
             width="239.80508"
             height="53.788055"
             x="-15.688183"
             y="630.90881" /></flowRegion><flowPara
           id="flowPara8508"></flowPara></flowRoot><flowRoot
         xml:space="preserve"
         id="flowRoot8510"
         style="font-style:normal;font-weight:normal;font-size:14.66666698px;line-height:1.25;font-family:sans-serif;letter-spacing:0px;word-spacing:0px;fill:#000000;fill-opacity:1;stroke:none"><flowRegion
           id="flowRegion8512"><rect
             id="rect8514"
             width="31.376366"
             height="45.943962"
             x="168.08768"
             y="496.43866" /></flowRegion><flowPara
           id="flowPara8516"></flowPara></flowRoot><flowRoot
         xml:space="preserve"
         id="flowRoot8494-2"
         style="font-style:normal;font-weight:normal;font-size:32px;line-height:1.25;font-family:sans-serif;letter-spacing:0px;word-spacing:0px;fill:#000000;fill-opacity:1;stroke:none"
         transform="matrix(0.0136349,7.4999878,7.4999878,-0.0136349,-2070.4116,4714.0859)"><flowRegion
           id="flowRegion8496-0"
           style="font-size:32px;line-height:1.25"><rect
             id="rect8498-2"
             width="454.36905"
             height="119.7638"
             x="76.067795"
             y="656.08472"
             style="font-size:32px;line-height:1.25" /></flowRegion><flowPara
           id="flowPara8500-1"
           style="font-size:64px;line-height:1.25;fill:#333333">assurances</flowPara></flowRoot><flowRoot
         xml:space="preserve"
         id="flowRoot8494-27"
         style="font-style:normal;font-weight:normal;font-size:32px;line-height:1.25;font-family:sans-serif;letter-spacing:0px;word-spacing:0px;fill:#000000;fill-opacity:1;stroke:none"
         transform="matrix(0.0136349,7.4999878,7.4999878,-0.0136349,1804.2919,6425.6114)"><flowRegion
           id="flowRegion8496-9"
           style="font-size:32px;line-height:1.25"><rect
             id="rect8498-21"
             width="308.56693"
             height="116.85937"
             x="76.067795"
             y="656.08472"
             style="font-size:32px;line-height:1.25" /></flowRegion><flowPara
           id="flowPara8500-3"
           style="font-size:74.66666412px;line-height:1.25">Impôts</flowPara></flowRoot></g><g
       id="g11542"
       transform="matrix(0.12133107,0,0,-0.12735224,988.61644,811.56473)"><g
         style="display:inline"
         inkscape:label="Layer 2"
         id="layer3"><rect
           ry="0"
           y="-5.3050749e-06"
           x="2.3896792"
           height="682.66669"
           width="682.66669"
           id="rect9128"
           style="opacity:1;fill:url(#linearGradient9136);fill-opacity:1;stroke:none;stroke-width:22.94252014;stroke-miterlimit:4;stroke-dasharray:none;stroke-opacity:1" /></g><g
         style="display:inline"
         inkscape:label="Layer 1"
         id="layer1"><path
           sodipodi:nodetypes="cccccccccccc"
           inkscape:connector-curvature="0"
           id="path9118"
           d="m 220.9375,226.85156 -50.8418,228.32032 50.41992,-0.27344 15.92774,-69.53125 c 55.2533,7.17527 128.53051,-9.00666 130.23633,-84.16602 1.15221,-15.84299 1.03086,-66.1631 -72.23828,-73.92773 z m 40.18555,42.63282 34.53125,0.38867 c 34.08355,9.86009 24.59807,72.06962 -22.15408,74.18164 l -29.30881,-0.10547 z"
           style="fill:#140000;fill-opacity:1;stroke:none;stroke-width:1px;stroke-linecap:butt;stroke-linejoin:miter;stroke-opacity:1" /><path
           inkscape:connector-curvature="0"
           id="path9120"
           d="m 402.16503,455.39275 -52.80528,-0.84488 51.11551,-226.85149 129.26733,0.42244 -8.0264,42.66667 -79.84159,0.84488 -11.40594,52.38284 74.34984,-0.84488 -9.71617,44.77888 -73.9274,-0.42245 z"
           style="fill:#000000;fill-opacity:1;stroke:none;stroke-width:1px;stroke-linecap:butt;stroke-linejoin:miter;stroke-opacity:1" /></g></g></g><g
     inkscape:groupmode="layer"
     id="layer7"
     inkscape:label="Layer 1"
     transform="matrix(1.3333333,0,0,-1.3333333,0,1496)"
     style="display:inline"><g
       transform="matrix(0.06981964,0,0,-0.06981964,57.685287,363.03536)"
       inkscape:label="Layer 1"
       id="layer5"><path
         sodipodi:nodetypes="ccccc"
         inkscape:connector-curvature="0"
         id="path10262"
         d="m 104.21293,-648.56721 1389.59427,3.69127 2.7815,1376.08659 -1389.67102,0.59127 z"
         style="fill:none;stroke:#000000;stroke-width:97.79531097;stroke-linecap:butt;stroke-linejoin:miter;stroke-miterlimit:4;stroke-dasharray:none;stroke-opacity:1" /><path
         sodipodi:nodetypes="cccccsc"
         inkscape:connector-curvature="0"
         id="path10264"
         d="M 624.22695,-489.937 C 592.54659,-448.50879 291.58288,44.97426 291.58288,44.97426 L 627.88241,573.79311 918.17557,574.38437 588.8912,37.663408 c 0,0 341.17339,-526.381898 324.11475,-528.818858 -17.05875,-2.43695 -288.779,1.21845 -288.779,1.21845 z"
         style="fill:#1ea062;fill-opacity:1;stroke:none;stroke-width:5.41003609px;stroke-linecap:butt;stroke-linejoin:miter;stroke-opacity:1" /><path
         sodipodi:nodetypes="ccccccc"
         inkscape:connector-curvature="0"
         id="path10266"
         d="M 1051.3717,-489.937 715.07217,43.755757 1047.938,575.01156 H 1348.68 L 1019.6913,37.749914 1343.8061,-489.937 Z"
         style="fill:#de113b;fill-opacity:1;stroke:none;stroke-width:5.41003609px;stroke-linecap:butt;stroke-linejoin:miter;stroke-opacity:1" /></g><g
       id="g11482"
       transform="matrix(0.57091902,0,0,-0.52968189,249.02868,474.50557)"><g
         inkscape:label="Layer 1"
         id="layer6" /><path
         sodipodi:nodetypes="ccccc"
         inkscape:connector-curvature="0"
         id="path10826"
         d="M 48.300265,144.85511 92.478814,41.23411 105.34958,69.496327 70.729608,149.00185 Z"
         style="fill:#895ca3;fill-opacity:1;stroke:none;stroke-width:0.39928627;stroke-linecap:butt;stroke-linejoin:miter;stroke-miterlimit:4;stroke-dasharray:none;stroke-opacity:1" /><path
         sodipodi:nodetypes="ccccc"
         inkscape:connector-curvature="0"
         id="path10828"
         d="m 70.729608,149.00185 30.392652,-7.76479 6.57295,-14.9998 -13.735775,-30.926562 z"
         style="fill:#57375f;fill-opacity:1;stroke:none;stroke-width:0.40000001;stroke-linecap:butt;stroke-linejoin:miter;stroke-miterlimit:4;stroke-dasharray:none;stroke-opacity:1" /><path
         sodipodi:nodetypes="ccccc"
         inkscape:connector-curvature="0"
         id="path10830"
         d="M 105.34958,69.597457 158.02436,190.91631 132.99788,186.14936 93.959435,95.310698 Z"
         style="fill:#e30009;fill-opacity:1;stroke:none;stroke-width:0.40000001;stroke-linecap:butt;stroke-linejoin:miter;stroke-miterlimit:4;stroke-dasharray:none;stroke-opacity:1" /><path
         inkscape:connector-curvature="0"
         id="path10832"
         d="m 92.478814,41.23411 30.300466,-6.765306 12.13467,27.977159 -29.56437,7.151494 z"
         style="fill:#72437e;fill-opacity:1;stroke:none;stroke-width:0.40000001;stroke-linecap:butt;stroke-linejoin:miter;stroke-miterlimit:4;stroke-dasharray:none;stroke-opacity:1" /><path
         sodipodi:nodetypes="ccccc"
         inkscape:connector-curvature="0"
         id="path10834"
         d="m 48.300265,144.85511 -10.219349,24.22668 94.916964,17.06757 -12.21531,-28.91288 z"
         style="fill:#00a3af;fill-opacity:1;stroke:none;stroke-width:0.40000001;stroke-linecap:butt;stroke-linejoin:miter;stroke-miterlimit:4;stroke-dasharray:none;stroke-opacity:1" /><path
         inkscape:connector-curvature="0"
         id="path10836"
         d="M 105.34958,69.597457 158.02436,190.91631 187.41326,181.8545 134.91395,62.445963 Z"
         style="fill:#b50501;fill-opacity:1;stroke:none;stroke-width:0.40000001;stroke-linecap:butt;stroke-linejoin:miter;stroke-miterlimit:4;stroke-dasharray:none;stroke-opacity:1" /><path
         sodipodi:nodetypes="ccccc"
         inkscape:connector-curvature="0"
         id="path10838"
         d="m 70.856011,148.74904 49.926559,8.48744 -6.20713,-14.08081 -13.45318,-1.91861 z"
         style="fill:#00656c;fill-opacity:1;stroke:none;stroke-width:0.40000001;stroke-linecap:butt;stroke-linejoin:miter;stroke-miterlimit:4;stroke-dasharray:none;stroke-opacity:1" /></g><g
       inkscape:label="Layer 1"
       id="layer4"
       transform="matrix(0.08444224,0,0,-0.08444224,667.1186,513.76416)"><path
         sodipodi:nodetypes="ccccc"
         inkscape:connector-curvature="0"
         id="path9697"
         d="M 51.27711,960.44262 177.42891,334.8231 431.60146,333.67301 300.92111,961.19736 Z"
         style="fill:#00a77e;fill-opacity:1;stroke:none;stroke-width:3.94664669px;stroke-linecap:butt;stroke-linejoin:miter;stroke-opacity:1" /><path
         inkscape:connector-curvature="0"
         id="path9699"
         d="M 677.98924,334.8231 549.21374,962.92252 H 801.37361 L 929.93342,334.8231 Z m 133.87903,61.45858 -11.14159,57.50509 57.10974,-0.43128 -8.26635,49.95756 h -58.51145 l -11.86041,57.86449 -47.83708,0.25146 10.4228,-58.2239 h -57.75666 l 10.06338,-48.16054 59.12244,-0.28752 11.1416,-57.86451 z"
         style="fill:#ed1c24;fill-opacity:1;stroke:none;stroke-width:3.94664669px;stroke-linecap:butt;stroke-linejoin:miter;stroke-opacity:1" /></g></g></svg>