<?xml version="1.0" encoding="UTF-8" standalone="no"?>
<svg
   xmlns:dc="http://purl.org/dc/elements/1.1/"
   xmlns:cc="http://creativecommons.org/ns#"
   xmlns:rdf="http://www.w3.org/1999/02/22-rdf-syntax-ns#"
   xmlns:svg="http://www.w3.org/2000/svg"
   xmlns="http://www.w3.org/2000/svg"
   xmlns:sodipodi="http://sodipodi.sourceforge.net/DTD/sodipodi-0.dtd"
   xmlns:inkscape="http://www.inkscape.org/namespaces/inkscape"
   version="1.1"
   id="svg12140"
   width="649.30603"
   height="649.30597"
   viewBox="0 0 649.30602 649.30596"
   sodipodi:docname="coaching_work_round.svg"
   inkscape:version="1.0.1 (3bc2e813f5, 2020-09-07)">
  <metadata
     id="metadata12146">
    <rdf:RDF>
      <cc:Work
         rdf:about="">
        <dc:format>image/svg+xml</dc:format>
        <dc:type
           rdf:resource="http://purl.org/dc/dcmitype/StillImage" />
        <dc:title />
      </cc:Work>
    </rdf:RDF>
  </metadata>
  <defs
     id="defs12144">
    <clipPath
       clipPathUnits="userSpaceOnUse"
       id="clipPath4214">
      <path
         d="m 2101.54,3867.4 c -33.21,38.04 -51.02,88.1 -60.42,138.33 -1.51,-1.1 -2.94,-2.28 -4.45,-3.38 -4.93,-3.57 -10.03,-6.78 -15.28,-9.73 1.85,-33.37 17.63,-78.06 16.08,-137.06 -0.62,-23.95 -2.78,-24.5 -6.73,-51.64 13.35,-28.13 110.61,-25.64 138.46,6.88 -24.21,14.94 -46.89,32.81 -67.66,56.6 z"
         id="path4212" />
    </clipPath>
    <linearGradient
       x1="0"
       y1="0"
       x2="1"
       y2="0"
       gradientUnits="userSpaceOnUse"
       gradientTransform="matrix(-64.9999,-88.333,-88.333,64.9999,2076.47,3876.12)"
       spreadMethod="pad"
       id="linearGradient4220">
      <stop
         style="stop-opacity:1;stop-color:#d1d1d1"
         offset="0"
         id="stop4216" />
      <stop
         style="stop-opacity:1;stop-color:#f2f2f2"
         offset="1"
         id="stop4218" />
    </linearGradient>
    <clipPath
       clipPathUnits="userSpaceOnUse"
       id="clipPath4266">
      <path
         d="m 2096.9,3999.62 c 7.46,-42.83 20.63,-123.94 20.63,-123.94 0,0 64.14,-50.36 91.99,-65.16 12.46,-6.34 -2.74,-43.1 -18.54,-35.2 -19.84,9.92 -109.63,42.47 -118.3,52.03 -8.68,9.56 -37.47,100.69 -48.75,148.27 -3.93,16.58 -4.36,29.19 1.13,39.76 6.74,12.98 21.77,20.34 36.14,17.6 24.57,-4.7 33.11,-18.44 35.7,-33.36 z"
         id="path4264" />
    </clipPath>
    <linearGradient
       x1="0"
       y1="0"
       x2="1"
       y2="0"
       gradientUnits="userSpaceOnUse"
       gradientTransform="matrix(-158.75,238.75,238.75,158.75,2179.97,3773.71)"
       spreadMethod="pad"
       id="linearGradient4274">
      <stop
         style="stop-opacity:1;stop-color:#ffffff"
         offset="0"
         id="stop4268" />
      <stop
         style="stop-opacity:1;stop-color:#ffffff"
         offset="0.22340954"
         id="stop4270" />
      <stop
         style="stop-opacity:1;stop-color:#f2f2f2"
         offset="1"
         id="stop4272" />
    </linearGradient>
    <clipPath
       clipPathUnits="userSpaceOnUse"
       id="clipPath4314">
      <path
         d="m 2567.73,3446.22 -0.01,-105.2 c 2.97,7.43 6.83,7.82 12.43,7.18 l -0.05,105.39 z"
         id="path4312" />
    </clipPath>
    <linearGradient
       x1="0"
       y1="0"
       x2="1"
       y2="0"
       gradientUnits="userSpaceOnUse"
       gradientTransform="matrix(12.428,0,0,-12.428,2567.72,3397.31)"
       spreadMethod="pad"
       id="linearGradient4322">
      <stop
         style="stop-opacity:1;stop-color:#5c3c25"
         offset="0"
         id="stop4316" />
      <stop
         style="stop-opacity:1;stop-color:#4f3320"
         offset="0.71696923"
         id="stop4318" />
      <stop
         style="stop-opacity:1;stop-color:#4f3320"
         offset="1"
         id="stop4320" />
    </linearGradient>
    <clipPath
       clipPathUnits="userSpaceOnUse"
       id="clipPath4342">
      <path
         d="m 2534.2,3425.04 2.07,1.2 -16.16,9.33 -2.07,-1.19 z"
         id="path4340" />
    </clipPath>
    <linearGradient
       x1="0"
       y1="0"
       x2="1"
       y2="0"
       gradientUnits="userSpaceOnUse"
       gradientTransform="matrix(-18.237,0,0,-18.237,2536.27,3430.31)"
       spreadMethod="pad"
       id="linearGradient4348">
      <stop
         style="stop-opacity:1;stop-color:#e5cfdd"
         offset="0"
         id="stop4344" />
      <stop
         style="stop-opacity:1;stop-color:#ecd5e4"
         offset="1"
         id="stop4346" />
    </linearGradient>
    <clipPath
       clipPathUnits="userSpaceOnUse"
       id="clipPath4362">
      <path
         d="m 2452.55,3472.18 2.08,1.2 -16.17,9.33 -2.07,-1.2 z"
         id="path4360" />
    </clipPath>
    <linearGradient
       x1="0"
       y1="0"
       x2="1"
       y2="0"
       gradientUnits="userSpaceOnUse"
       gradientTransform="matrix(-18.2369,0,0,-18.2369,2454.63,3477.45)"
       spreadMethod="pad"
       id="linearGradient4368">
      <stop
         style="stop-opacity:1;stop-color:#e5cfdd"
         offset="0"
         id="stop4364" />
      <stop
         style="stop-opacity:1;stop-color:#ecd5e4"
         offset="1"
         id="stop4366" />
    </linearGradient>
    <clipPath
       clipPathUnits="userSpaceOnUse"
       id="clipPath4390">
      <path
         d="m 2490.71,3676.71 c -1.57,-25.05 -10.74,-121.44 -11.57,-128.01 -2.28,-17.93 43.71,-21.52 46.35,-15.01 8.78,21.63 28.05,101.3 31.97,142.81 7.83,82.97 10.96,107.81 11.92,126.66 0.94,18.68 -7.45,37.09 -23.16,47.25 -22.77,14.73 -53.73,7.87 -54.25,-92.3 -0.12,-21.29 -0.65,-71.7 -1.26,-81.4 z"
         id="path4388" />
    </clipPath>
    <linearGradient
       x1="0"
       y1="0"
       x2="1"
       y2="0"
       gradientUnits="userSpaceOnUse"
       gradientTransform="matrix(20.0421,299.456,299.456,-20.0421,2513.37,3527.9)"
       spreadMethod="pad"
       id="linearGradient4398">
      <stop
         style="stop-opacity:1;stop-color:#b2c1d6"
         offset="0"
         id="stop4392" />
      <stop
         style="stop-opacity:1;stop-color:#b2c1d6"
         offset="0.4587866"
         id="stop4394" />
      <stop
         style="stop-opacity:1;stop-color:#9dabc4"
         offset="1"
         id="stop4396" />
    </linearGradient>
  </defs>
  <sodipodi:namedview
     pagecolor="#ffffff"
     bordercolor="#666666"
     borderopacity="1"
     objecttolerance="10"
     gridtolerance="10"
     guidetolerance="10"
     inkscape:pageopacity="0"
     inkscape:pageshadow="2"
     inkscape:window-width="1920"
     inkscape:window-height="1106"
     id="namedview12142"
     showgrid="false"
     showguides="true"
     inkscape:guide-bbox="true"
     fit-margin-top="0"
     fit-margin-left="0"
     fit-margin-right="0"
     fit-margin-bottom="0"
     inkscape:zoom="0.58870129"
     inkscape:cx="293.48987"
     inkscape:cy="351.82141"
     inkscape:window-x="-11"
     inkscape:window-y="-11"
     inkscape:window-maximized="1"
     inkscape:current-layer="layer2"
     inkscape:document-rotation="0">
    <sodipodi:guide
       position="-269.79436,53.236621"
       orientation="0,1"
       id="guide12993"
       inkscape:locked="false" />
    <sodipodi:guide
       position="117.66645,227.10903"
       orientation="1,0"
       id="guide937"
       inkscape:locked="false" />
    <sodipodi:guide
       position="542.75469,256.21063"
       orientation="0,-1"
       id="guide1106"
       inkscape:locked="false" />
  </sodipodi:namedview>
  <g
     inkscape:groupmode="layer"
     id="layer2"
     inkscape:label="Fond"
     transform="translate(115.9678,107.7214)"
     style="display:inline">
    <path
       style="display:inline;opacity:1;fill:#e7eefc;fill-opacity:1;stroke:none;stroke-width:0.383216;stroke-miterlimit:4;stroke-dasharray:none;stroke-opacity:1"
       d="M 533.33822,216.93155 A 324.65299,324.65299 0 0 1 208.68519,541.58456 324.65299,324.65299 0 0 1 -115.9678,216.93155 324.65299,324.65299 0 0 1 208.68519,-107.7214 324.65299,324.65299 0 0 1 533.33822,216.93155 Z"
       id="path4972"
       inkscape:connector-curvature="0" />
  </g>
  <g
     inkscape:groupmode="layer"
     id="layer3"
     inkscape:label="Layer 2"
     style="display:inline">
    <path
       d="m 255.13164,413.36898 c -13.70357,-3.19515 -24.00221,-0.27695 -29.77197,-8.71873 -3.65149,-5.34411 -15.88839,-2.49769 -22.17628,-0.43597 -2.69756,0.88216 -3.08759,1.76428 -3.34377,3.3952 -1.00009,6.37494 0.54351,18.39659 1.20511,19.44795 0.89739,1.42579 7.84688,0.96421 9.52896,0.94367 0.72314,-0.0154 1.49783,-0.51286 1.52321,-1.23089 0.0385,-0.70776 -0.0731,-1.00521 0.80546,-0.86673 18.25284,2.84642 38.36239,3.02078 41.71654,2.52331 4.53388,-0.67187 7.22106,-4.28759 6.80063,-7.97508 -0.30772,-2.68744 -0.86662,-5.81592 -6.28789,-7.08273"
       style="fill:#3d2c1f;fill-opacity:1;fill-rule:nonzero;stroke:none;stroke-width:0.512867"
       id="path4188" />
    <path
       d="m 261.41953,420.46194 c -0.31926,1.40013 -1.27204,2.80026 -2.76448,3.89266 -1.70785,1.25654 -5.07201,1.77455 -7.19028,1.67708 -13.23699,-0.58978 -49.84576,-1.91298 -50.42004,-2.32329 -0.25002,-0.18463 -0.38465,-1.26677 -0.60506,-2.6464 l -0.51312,0.0512 c 0.33849,3.47213 0.81546,6.24162 1.11818,6.7237 0.89739,1.42578 7.84688,0.9642 9.52896,0.9437 0.72314,-0.0154 40.69106,0.92316 44.04521,0.42566 5.11317,-0.19502 8.61118,-5.06201 6.80063,-8.74439"
       style="fill:#ef9a33;fill-opacity:1;fill-rule:nonzero;stroke:none;stroke-width:0.512867"
       id="path4190" />
    <path
       d="m 177.26831,479.53404 c 0,1.44629 0.84623,2.77976 2.17443,3.34904 0.61544,0.26657 1.24627,0.50774 1.83594,0.81546 1.84632,0.96932 3.27222,2.56947 4.68774,4.10296 5.19009,5.61075 10.9137,10.82661 17.58123,14.56542 18.49402,10.35996 31.94141,3.57983 30.31549,-5.93901 -1.95902,-11.44206 -23.55602,-16.86821 -27.10519,-25.21771 -0.69237,-1.61554 -1.66669,-8.32385 -2.90796,-9.44703 -1.37936,-1.24627 -16.40651,-1.87194 -22.07896,0.93343 -1.97441,0.97444 -4.32848,1.7899 -4.55427,4.06703 l 0.05,12.77041"
       style="fill:#3d2c1f;fill-opacity:1;fill-rule:nonzero;stroke:none;stroke-width:0.512867"
       id="path4192" />
    <path
       d="m 233.86314,496.42791 c -2.25136,7.10323 -14.61173,10.77538 -30.31549,1.97968 -6.66753,-3.7388 -21.77124,-17.03234 -23.48947,-18.41708 -1.12318,-0.90778 -2.78487,-2.96951 -2.78987,-4.41579 v 5.39538 c 0,0.56413 0.18463,1.09241 0.56928,1.50268 3.32338,3.54905 19.59642,17.24263 25.71006,20.6686 18.49402,10.36503 32.40799,3.44647 30.55128,-6.03133 l -0.23463,-0.68214"
       style="fill:#ef9a33;fill-opacity:1;fill-rule:nonzero;stroke:none;stroke-width:0.512867"
       id="path4194" />
    <path
       d="m 198.34179,338.80313 c -1.63092,11.66262 -6.43136,13.0884 -7.26721,24.84845 -0.86162,12.16008 2.89257,21.11476 2.89257,40.60375 0,11.82159 32.71572,11.82159 32.71572,-0.23079 0,-9.31367 3.30799,-42.1167 5.74937,-50.13282 1.92326,-6.31343 3.67226,-8.47259 5.77477,-14.76036 7.88303,-23.57653 12.73963,-58.33869 12.73963,-58.33869 3.14914,-27.95131 -1.70785,-40.40885 -8.32384,-39.92677 -7.55955,0.5539 -42.18313,40.36781 -43.68596,46.9428 -1.05663,4.61581 0.13463,45.77345 -0.59505,50.99443"
       style="fill:#231b23;fill-opacity:1;fill-rule:nonzero;stroke:none;stroke-width:0.512867"
       id="path4196" />
    <path
       d="m 178.90923,363.1695 c -1.63092,17.23236 -6.43137,19.34536 -7.26721,36.72131 -0.86162,17.96577 2.89257,38.69588 2.89257,67.49854 0,9.21623 32.71571,8.85208 32.71571,-0.3385 0,-13.76538 4.08269,-62.61089 6.52368,-74.46325 1.92326,-9.32909 4.11346,-18.60172 6.21596,-27.89489 7.88304,-34.84425 9.21624,-73.4427 9.21624,-73.4427 -5.17971,-4.17984 -8.64696,-32.66455 -15.26295,-31.95164 -6.2825,0.68211 -24.62766,-14.31928 -32.67994,-8.13409 -1.64092,1.25654 -4.75929,15.56555 -6.05171,21.45325 -5.56475,25.34595 4.42618,82.84356 3.69765,90.55197"
       style="fill:#231b23;fill-opacity:1;fill-rule:nonzero;stroke:none;stroke-width:0.512867"
       id="path4198" />
    <path
       d="m 343.84252,249.17436 -61.99533,-32.86457 10.65713,44.74771 61.99572,32.86457 -10.65752,-44.74771"
       style="fill:#ffffff;fill-opacity:1;fill-rule:nonzero;stroke:none;stroke-width:0.512867"
       id="path4200" />
    <path
       d="m 324.1434,238.74775 5.45665,2.85668 c 0,0 -0.42542,-3.03105 -0.69737,-3.79523 -0.29618,-0.82058 -0.92316,-1.47191 -1.5386,-2.08735 -2.70794,-2.68744 -5.6159,-5.16459 -8.69811,-7.41095 -0.70276,-0.51286 -1.4209,-1.02059 -2.23098,-1.33347 -0.71814,-0.27695 -1.48744,-0.38977 -2.25174,-0.50258 -2.69256,-0.4052 -5.37973,-0.80523 -8.07229,-1.21039 -0.7593,-0.1127 -1.56437,-0.24617 -2.15943,-0.73341 -0.62044,-0.50774 -13.57548,8.07255 -13.09851,8.8829 0.43581,0.73853 1.13856,1.27188 1.82055,1.78478 8.2573,6.16976 17.87357,11.1446 26.67438,16.62715 0.78469,0.49235 1.69747,1.00009 2.58986,0.7488 1.25165,-0.35888 1.6363,-2.08739 1.07202,-3.26184 -0.5589,-1.1745 -1.72323,-1.92326 -2.80026,-2.65156 -1.08202,-0.73337 -2.2002,-1.58987 -2.58485,-2.83103 0.43581,-1.99503 4.50311,-4.76963 6.51868,-5.0825"
       style="fill:#fbbd9e;fill-opacity:1;fill-rule:nonzero;stroke:none;stroke-width:0.512867"
       id="path4202" />
    <path
       d="m 267.05082,177.07028 c -1.28204,-4.26708 -8.35962,-32.25428 -10.64213,-42.21416 -3.04105,-13.29865 -7.42607,-25.93574 -20.01185,-28.28981 -2.45177,-0.45642 -4.88276,-0.46158 -7.10335,-0.27694 -4.58004,2.28228 -5.82092,3.67726 -6.1748,8.33923 7.15451,35.93154 17.36545,70.77064 21.03271,82.28451 0.17309,1.69247 38.32661,33.00305 49.10184,40.28065 4.22616,2.85157 17.00657,-7.36476 11.42682,-13.81666 -21.4739,-24.81768 -36.90609,-43.9066 -37.62924,-46.30682"
       style="fill:#f2f2f2;fill-opacity:1;fill-rule:nonzero;stroke:none;stroke-width:0.512867"
       id="path4204" />
    <path
       d="m 180.5813,237.41432 c -0.31926,12.28317 -1.4259,12.56523 -3.45147,26.48448 7.87227,16.59126 72.7194,12.42676 74.79152,-12.08319 0,0 -2.31329,-21.98149 -2.07212,-27.07939 0.0654,-6.12879 9.2624,-100.35799 -5.7286,-115.2414 -3.92344,-3.89783 -9.91899,-4.69274 -15.00139,-2.50793 -35.38288,15.19625 -53.38954,38.54714 -55.89746,48.25572 -4.6212,17.86831 8.35462,44.28101 7.35952,82.17171"
       style="fill:#f2f2f2;fill-opacity:1;fill-rule:nonzero;stroke:none;stroke-width:0.512867"
       id="path4206" />
    <g
       id="g4208"
       transform="matrix(0.51286783,0,0,-0.51286783,-864.37151,2214.807)">
      <g
         id="g4210"
         clip-path="url(#clipPath4214)">
        <path
           d="m 2101.54,3867.4 c -33.21,38.04 -51.02,88.1 -60.42,138.33 -1.51,-1.1 -2.94,-2.28 -4.45,-3.38 -4.93,-3.57 -10.03,-6.78 -15.28,-9.73 1.85,-33.37 17.63,-78.06 16.08,-137.06 -0.62,-23.95 -2.78,-24.5 -6.73,-51.64 13.35,-28.13 110.61,-25.64 138.46,6.88 -24.21,14.94 -46.89,32.81 -67.66,56.6"
           style="fill:url(#linearGradient4220);fill-opacity:1;fill-rule:nonzero;stroke:none"
           id="path4222" />
      </g>
    </g>
    <path
       d="m 246.17197,227.81855 v -0.91805 l -9.12892,-76.89941 -3.31838,2.32845 -2.88219,83.38204 c 0,0.5334 0.17309,1.05137 0.49735,1.46679 l 8.45732,10.91897 c 0.62544,0.80519 1.91287,0.51286 2.12828,-0.48724 l 4.23116,-19.79155"
       style="fill:#2f5ba8;fill-opacity:1;fill-rule:nonzero;stroke:none;stroke-width:0.512867"
       id="path4224" />
    <path
       d="m 234.04278,118.08534 c 9.00083,12.22678 9.74436,61.45694 8.66233,72.74006 l 0.4512,0.63083 0.96432,-0.68214 c 1.08202,-11.22666 1.01548,-59.72859 -10.06247,-74.3761 v 1.68735"
       style="fill:#d33c3c;fill-opacity:1;fill-rule:nonzero;stroke:none;stroke-width:0.512867"
       id="path4226" />
    <path
       d="m 199.11109,131.66094 c -1.77439,-7.65198 4.69274,-12.49858 10.73445,-14.67828 -0.30387,-0.71287 -1.13356,-1.05137 -1.84132,-0.96932 -0.70237,0.0819 -1.31281,0.48724 -1.89748,0.88216 -1.49245,1.00521 -2.98489,2.01557 -4.47734,3.02589 -3.69765,2.4977 -4.44156,6.15442 -3.88767,10.88308 0.57967,4.92865 2.61063,9.84707 5.12355,14.14489 10.05747,17.2067 24.5615,33.77234 32.21336,48.08647 l 1.03086,0.1077 0.36927,-0.92316 c -7.64186,-14.28847 -22.24321,-30.97209 -32.2799,-48.1429 -1.9898,-3.40032 -3.90806,-7.32887 -5.08778,-12.41653"
       style="fill:#d33c3c;fill-opacity:1;fill-rule:nonzero;stroke:none;stroke-width:0.512867"
       id="path4228" />
    <path
       d="m 248.57719,207.24741 -12.96504,5.7185 -3.74919,-23.26885 12.96004,-5.71845 3.75419,23.2688"
       style="fill:#dddddd;fill-opacity:1;fill-rule:nonzero;stroke:none;stroke-width:0.512867"
       id="path4230" />
    <path
       d="m 237.12998,198.16454 -1.20011,-7.45711 5.67245,-2.50281 1.20011,7.46222 -5.67245,2.4977"
       style="fill:#928f92;fill-opacity:1;fill-rule:nonzero;stroke:none;stroke-width:0.512867"
       id="path4232" />
    <path
       d="m 235.98142,201.24686 -0.0616,-0.40004 8.58541,-3.78496 0.0615,0.39492 -8.5854,3.79008"
       style="fill:#c3c1c3;fill-opacity:1;fill-rule:nonzero;stroke:none;stroke-width:0.512867"
       id="path4234" />
    <path
       d="m 236.31452,203.30859 -0.0615,-0.39492 8.58041,-3.79008 0.0654,0.39492 -8.58541,3.79008"
       style="fill:#c3c1c3;fill-opacity:1;fill-rule:nonzero;stroke:none;stroke-width:0.512867"
       id="path4236" />
    <path
       d="m 236.64802,205.37032 -0.0654,-0.39492 8.5854,-3.79008 0.0654,0.40003 -8.5854,3.78497"
       style="fill:#c3c1c3;fill-opacity:1;fill-rule:nonzero;stroke:none;stroke-width:0.512867"
       id="path4238" />
    <path
       d="m 237.65311,207.1346 -0.0616,-0.39493 7.23683,-3.19002 0.0615,0.39488 -7.23682,3.19007"
       style="fill:#c3c1c3;fill-opacity:1;fill-rule:nonzero;stroke:none;stroke-width:0.512867"
       id="path4240" />
    <path
       d="m 238.68936,208.8886 -0.0615,-0.39492 5.82593,-2.56947 0.0654,0.39493 -5.83131,2.56946"
       style="fill:#c3c1c3;fill-opacity:1;fill-rule:nonzero;stroke:none;stroke-width:0.512867"
       id="path4242" />
    <path
       d="m 223.04176,152.24745 0.84623,-0.60517 c 4.88738,-4.28759 10.0367,-8.25203 15.49374,-11.83697 -2.1902,-5.76977 -5.53397,-11.04206 -10.15478,-15.13986 -6.8264,-6.0416 -13.79128,-16.08356 -16.81194,-14.36544 -2.33868,1.32831 -4.15923,2.92334 -6.2825,3.92343 -3.44647,1.62581 -4.91353,4.24143 -5.51859,7.32376 -0.73353,3.70292 -0.15771,8.00585 3.50802,12.90376 7.53415,5.90309 13.73473,11.86775 18.91982,17.79649"
       style="fill:#f2f2f2;fill-opacity:1;fill-rule:nonzero;stroke:none;stroke-width:0.512867"
       id="path4244" />
    <path
       d="m 235.96064,155.97087 c 3.82613,-1.46679 6.15442,-16.12968 -1.97441,-11.6113 -1.21549,0.67699 -4.01575,2.35406 -4.8466,3.46698 -0.94355,1.27192 -1.23088,3.81062 -0.60506,5.29279 0.76392,1.80017 5.54398,3.57468 7.42607,2.85153"
       style="fill:#2f5ba8;fill-opacity:1;fill-rule:nonzero;stroke:none;stroke-width:0.512867"
       id="path4246" />
    <path
       d="m 233.15539,144.25699 9.98053,3.46697 c 0,0 -6.73908,-17.0118 -11.62184,-21.02244 9.20085,13.57048 1.64131,17.55547 1.64131,17.55547"
       style="fill:#ffffff;fill-opacity:1;fill-rule:nonzero;stroke:none;stroke-width:0.512867"
       id="path4248" />
    <path
       d="m 232.23222,135.93826 c 1.08741,-5.65691 1.74901,-3.30285 -5.33395,-16.56049 -1.89748,-3.54906 -2.79487,-4.19528 -6.22096,-5.25691 -9.60588,-2.97462 -9.65743,-0.56929 -14.50403,-1.56422 l -0.7793,-0.004 -2.12327,-1.02063 c 0.86661,8.42643 -0.26541,12.46784 -0.35388,13.91413 -0.28849,4.65681 3.95421,7.41607 7.11335,10.69329 1.92825,2.00019 3.5234,4.35425 5.7286,6.04671 1.85171,1.42575 9.28316,4.97993 11.39105,4.57477 1.84633,-0.35888 4.54888,0.66672 4.89776,-1.64119 0.18463,-1.21549 -0.42042,-5.08762 0.18463,-9.18031"
       style="fill:#f2a883;fill-opacity:1;fill-rule:nonzero;stroke:none;stroke-width:0.512867"
       id="path4250" />
    <path
       d="m 228.06761,158.39675 4.62119,-13.75511 c 0,0 -10.69329,1.5181 -27.0848,-16.02714 0,0 -5.10278,-6.01594 -3.15914,-11.46259 0,0 -3.48763,5.1697 -3.67726,9.87783 -0.18079,4.50811 19.55565,24.61766 29.30001,31.36701"
       style="fill:#ffffff;fill-opacity:1;fill-rule:nonzero;stroke:none;stroke-width:0.512867"
       id="path4252" />
    <path
       d="m 203.58343,108.56138 c 1.4259,3.80547 3.26684,7.45711 5.49281,10.85743 6.29789,9.65216 20.55074,15.56551 24.65881,16.39636 5.16433,1.04113 10.9137,2.19508 11.3549,-3.03617 0.97432,-11.56003 3.45647,-36.316161 1.13318,-48.778849 -2.57447,-13.801274 -38.63933,-1.087293 -43.73711,4.174731 -1.72324,1.77451 -2.45677,5.754377 -2.54908,8.241799 -0.0616,1.646306 0.56928,2.200203 1.18472,3.636219 1.17434,2.72333 1.4259,5.739 2.46177,8.50848"
       style="fill:#fbbd9e;fill-opacity:1;fill-rule:nonzero;stroke:none;stroke-width:0.512867"
       id="path4254" />
    <path
       d="m 211.29183,107.09459 c 1.12318,0.20002 2.34368,-0.34349 2.94912,-1.30781 1.29743,-2.06688 0.82046,-3.90294 0.72814,-6.169804 -0.21156,-5.128704 -2.36445,-8.544404 14.62712,-8.467473 4.02076,0.01923 8.02613,-0.435925 11.86263,-1.656538 11.24181,-3.56956 4.4258,-16.652844 2.89258,-18.796619 -2.97489,-4.174731 -9.01122,-7.959696 -17.60701,-9.795788 -12.14458,-2.595086 -44.24485,6.005708 -27.30483,46.553032 0.72315,1.72835 1.94364,3.24134 3.43609,4.38502 1.31281,1.00521 2.61562,1.95914 2.61562,1.95914 0.38081,-2.61047 -1.03086,-5.32868 -1.90786,-7.82122 -0.58467,-1.64631 -1.57438,-5.49281 1.37435,-5.09789 3.43109,0.46158 3.53879,5.71845 6.33405,6.21595"
       style="fill:#724a2f;fill-opacity:1;fill-rule:nonzero;stroke:none;stroke-width:0.512867"
       id="path4256" />
    <path
       d="m 209.25049,105.37647 c 1.5386,4.67736 -0.48697,6.84679 2.93873,14.56031 -3.82074,0.16925 -4.51311,-3.02078 -5.76976,-4.82606 -12.10343,-12.06265 -0.96394,-21.243005 2.83103,-9.73425"
       style="fill:#fbbd9e;fill-opacity:1;fill-rule:nonzero;stroke:none;stroke-width:0.512867"
       id="path4258" />
    <g
       id="g4260"
       transform="matrix(0.51286783,0,0,-0.51286783,-864.37151,2214.807)">
      <g
         id="g4262"
         clip-path="url(#clipPath4266)">
        <path
           d="m 2096.9,3999.62 c 7.46,-42.83 20.63,-123.94 20.63,-123.94 0,0 64.14,-50.36 91.99,-65.16 12.46,-6.34 -2.74,-43.1 -18.54,-35.2 -19.84,9.92 -109.63,42.47 -118.3,52.03 -8.68,9.56 -37.47,100.69 -48.75,148.27 -3.93,16.58 -4.36,29.19 1.13,39.76 6.74,12.98 21.77,20.34 36.14,17.6 24.57,-4.7 33.11,-18.44 35.7,-33.36"
           style="fill:url(#linearGradient4274);fill-opacity:1;fill-rule:nonzero;stroke:none"
           id="path4276" />
      </g>
    </g>
    <path
       d="m 277.85182,290.28585 c 2.26675,1.60015 4.62081,1.93864 8.62656,2.43611 4.5285,0.56417 9.85207,-0.42054 11.3649,-1.07191 0.64121,-0.27695 1.20549,-0.70776 1.82094,-1.04109 1.05125,-0.57444 2.24097,-0.85651 3.28222,-1.45145 2.33368,-1.33858 3.28761,-4.89276 1.26166,-5.7236 -1.0001,-0.41027 -6.26712,-0.93855 -9.39587,-1.22061 -1.53322,-0.14348 -3.02566,-0.5539 -4.41579,-1.2155 -3.45148,-1.64119 -7.08758,-3.33877 -8.08767,-4.90303 -0.83623,-1.31804 -1.8721,-4.44141 0.0654,-7.32375 0.29233,-0.43081 1.01548,-0.82569 1.50783,-1.00521 3.37993,-1.24115 5.23625,-5.57486 3.79535,-8.87263 l -0.59505,-0.83596 c -0.51813,-0.37426 -1.26666,-0.24118 -1.80017,0.1127 -1.00009,0.6616 -1.28204,1.62065 -1.9848,2.47204 -0.78969,0.94878 -2.10289,1.38474 -3.21568,1.67192 -3.23107,0.84623 -6.621,0.92832 -9.86745,0.15386 -1.09241,-0.26156 -1.64131,-0.39488 -2.7541,-0.0269 -2.81064,0.9437 -4.85199,3.57471 -6.1598,6.96476 -2.11289,5.48769 -1.27166,7.68274 1.01048,9.06749 2.41561,1.46682 8.70349,6.98014 15.53989,11.81136"
       style="fill:#fbbd9e;fill-opacity:1;fill-rule:nonzero;stroke:none;stroke-width:0.512867"
       id="path4278" />
    <path
       d="m 470.0184,201.46226 -29.25924,-15.58605 c 0,0 -18.34516,-18.29911 -18.82212,-13.27303 -0.47197,5.021 0.94355,39.36263 3.66187,43.06551 1.08203,1.47195 8.80082,2.77464 12.0265,2.44127 l 1.19511,7.39556 c 18.49901,0.31273 32.53108,-7.05707 31.85409,-12.43191 -0.68198,-5.38 -0.65621,-11.61135 -0.65621,-11.61135"
       style="fill:#fbbd9e;fill-opacity:1;fill-rule:nonzero;stroke:none;stroke-width:0.512867"
       id="path4280" />
    <path
       d="m 438.98476,144.05697 c 10.88293,0.12309 22.68902,1.5181 27.59717,5.09789 6.24673,4.55942 9.64704,15.00654 9.77551,22.74056 0.18079,11.00102 -1.09779,25.91524 -6.22634,34.38267 -3.25684,7.24171 -29.3054,11.92418 -29.98738,-3.77985 0.45658,-4.92864 0.42581,-9.29828 -1.04625,-12.42676 -1.17973,-2.50792 -4.91853,-4.10295 -6.56484,-1.13345 -0.73314,1.3232 0.26541,2.95924 -1.91787,2.94385 -1.18472,-0.004 -2.46176,-1.46167 -2.61062,-2.55408 -0.28849,-2.11812 0.84623,-4.14396 0.29618,-6.49291 -0.54852,-2.34379 -1.8821,-4.54911 -3.34877,-6.43136 -0.71815,-0.91801 -2.81065,-2.18993 -3.24646,-3.10283 -6.11864,-12.82172 0.80508,-29.42325 17.27852,-29.24373"
       style="fill:#2b2119;fill-opacity:1;fill-rule:nonzero;stroke:none;stroke-width:0.512867"
       id="path4282" />
    <path
       d="m 457.39146,596.12942 c 0,-0.58467 0.0385,-1.16934 0.0385,-1.75401 0.12309,-6.88267 0.24617,-13.76539 0.36926,-20.64806 -4.68774,-1.31808 -9.48818,-2.23609 -14.33478,-2.74383 l -15.61144,2.64124 c -5.09278,7.83665 -37.72156,3.5901 -39.38825,15.79123 -2.54908,10.73945 29.7362,11.39078 34.67512,10.44712 3.62572,-0.69753 9.5905,-1.40529 12.40615,-2.21559 0,0 21.83778,-0.77957 21.84817,-1.5181"
       style="fill:#191619;fill-opacity:1;fill-rule:nonzero;stroke:none;stroke-width:0.512867"
       id="path4284" />
    <path
       d="m 487.39423,526.90253 -33.24922,-8.52386 c -4.61081,1.41551 -7.74418,9.76501 -6.36982,14.36028 0.5489,1.82582 17.42738,7.14424 22.63786,8.48798 4.48772,1.15395 10.28826,1.04109 14.51942,-1.10268 0.81045,-0.41031 2.45676,-1.32832 2.43599,-2.46177 0,0 0,-9.28289 0.0385,-10.75995"
       style="fill:#191619;fill-opacity:1;fill-rule:nonzero;stroke:none;stroke-width:0.512867"
       id="path4286" />
    <path
       d="m 480.07048,541.02176 c -3.81074,0.58982 -7.69302,0.3231 -11.45221,-0.52313 -4.82122,-1.08725 -10.25749,-2.76433 -13.47317,-4.6517 l 1.48206,5.3133 c 4.45695,1.85148 14.90907,4.19527 17.30929,4.1645 9.65243,0.55901 12.34499,-2.10277 13.11929,-3.30288 l 0.30387,-1.16934 v -3.67211 c 0,0 -0.11924,2.72333 -7.29298,3.84136"
       style="fill:#ef9a33;fill-opacity:1;fill-rule:nonzero;stroke:none;stroke-width:0.512867"
       id="path4288" />
    <path
       d="m 457.17106,594.21643 c -1.29243,1.22062 -16.70924,2.51304 -20.40189,2.84127 -18.35554,1.6258 -28.12567,1.04625 -35.87523,0.73341 -3.4107,-0.13848 -6.8364,-1.05137 -9.52395,-3.15925 -1.75901,-1.37452 -3.04144,-3.19007 -2.70295,-5.65183 -0.78468,1.49244 -0.82546,3.29261 0.12694,5.51335 1.38974,3.23619 4.37963,5.60563 7.8161,6.38005 8.93391,2.01046 31.03364,0.53851 36.0441,0.0973 4.92353,-0.42569 22.84326,-1.55399 24.13569,-2.77464 0.53851,-0.50259 0.58967,-1.32832 0.60005,-2.06685 0,-0.80519 0.0385,-1.61553 0.0462,-2.42072 l -0.26541,0.50774"
       style="fill:#ef9a33;fill-opacity:1;fill-rule:nonzero;stroke:none;stroke-width:0.512867"
       id="path4290" />
    <path
       d="m 409.33049,271.31998 c -1.30781,-3.27722 -0.91778,-7.63659 -8.39039,-7.63659 0,0 -7.08796,-0.0615 -15.46797,0.15386 -2.24636,0.0566 -8.2523,2.11301 -9.12392,2.38484 -5.54435,1.70785 -10.25248,3.26184 -9.39586,5.27226 0.52812,1.24626 2.53369,1.62068 3.98998,1.22576 -3.71803,0.96421 -6.45175,2.03608 -4.77467,4.6517 0.5539,0.86162 2.16943,0.66675 5.34395,0.0819 -4.00536,1.46167 -3.57456,3.6106 -1.4409,4.25682 0.86162,0.26156 2.89758,0.0819 5.3028,-0.24118 -2.08212,1.14372 -1.46667,3.94398 2.83103,3.33366 1.6363,-0.2308 8.32923,-1.17961 8.32923,-1.17961 4.46695,-0.16425 6.40059,-0.27195 7.95958,-0.36927 5.04662,-0.30272 10.60598,-1.15907 10.60598,-1.15907 2.63101,-2.35918 5.54436,-7.493 4.23116,-10.77534"
       style="fill:#f9ad87;fill-opacity:1;fill-rule:nonzero;stroke:none;stroke-width:0.512867"
       id="path4292" />
    <path
       d="m 378.08145,267.40166 c -0.53851,0.69237 -0.69737,1.76428 -0.1077,2.41561 1.65669,1.82582 6.3802,0.23079 8.72388,-0.38977 2.87219,-0.75391 5.71361,-2.05146 8.42155,-0.19502 3.26684,2.24125 4.61581,6.01594 8.74927,5.67233 1.71323,-0.13847 3.40031,-1.28731 3.83112,-2.95411 0.18463,-0.72315 0.13463,-1.48222 0.0423,-2.22075 -0.50274,-4.02087 -1.74362,-5.83131 -5.17471,-6.21596 -1.13856,-0.12808 -5.73399,-0.72826 -6.76485,-0.83596 -1.9898,-0.2154 -4.10807,0.0154 -6.02094,0.62056 -1.62092,0.51289 -10.64714,2.76437 -11.69877,4.10295"
       style="fill:#fbbd9e;fill-opacity:1;fill-rule:nonzero;stroke:none;stroke-width:0.512867"
       id="path4294" />
    <path
       d="m 418.92137,261.52419 -15.39142,0.37427 c -8.85697,0.877 -8.29307,22.08923 -2.2102,23.1406 l 25.58159,0.17424 -7.97997,-23.68934"
       style="fill:#ffffff;fill-opacity:1;fill-rule:nonzero;stroke:none;stroke-width:0.512867"
       id="path4296" />
    <path
       d="m 423.78336,260.53437 -16.99657,0.41543 c -9.78552,0.97443 -9.15969,24.39713 -2.44138,25.5562 l 28.25415,0.19502 -8.8162,-26.16649"
       style="fill:#9dabc4;fill-opacity:1;fill-rule:nonzero;stroke:none;stroke-width:0.512867"
       id="path4298" />
    <path
       d="m 484.08123,426.06761 c -0.12693,-13.03197 -0.11155,-37.91119 -0.867,-52.23559 l -30.54628,19.26332 c -2.07712,14.48849 -3.00528,29.14115 -2.77449,43.77327 0.22695,13.96536 8.88275,71.4527 10.39058,89.11076 0.94893,6.00567 27.28982,5.93389 27.541,0.92316 2.68217,-53.42543 1.64131,-69.13457 -2.07211,-85.32068 -0.81546,-3.56445 -1.63592,-11.86263 -1.6717,-15.51424"
       style="fill:#211921;fill-opacity:1;fill-rule:nonzero;stroke:none;stroke-width:0.512867"
       id="path4300" />
    <path
       d="m 460.15595,542.84758 c 0.78969,-16.26816 1.57437,-32.6594 -0.74392,-48.78397 -1.20011,-8.37515 -2.84641,-16.57076 -3.43608,-25.02796 -0.5589,-8.07767 1.36435,-15.63733 2.79526,-23.65861 3.1899,-17.87341 5.90285,-35.88019 6.77485,-54.0306 0.18848,-3.96448 0.11924,-8.41104 -2.67717,-11.2318 -2.49254,-2.51304 -6.35943,-2.90285 -9.88822,-3.14902 -4.45656,-0.30272 -8.94929,-0.61544 -13.36508,0.0565 -10.3498,1.56426 -17.88896,7.62636 -27.24367,12.32421 0,0 1.12318,45.36319 3.76958,66.74463 2.48754,20.07877 5.82092,30.13608 6.69793,42.94242 1.22088,17.71444 1.20011,50.3123 1.37474,73.65291 0.0923,12.3396 33.42847,14.72444 34.09007,4.57992 0.7643,-11.60107 1.28743,-22.8021 1.85171,-34.41856"
       style="fill:#211921;fill-opacity:1;fill-rule:nonzero;stroke:none;stroke-width:0.512867"
       id="path4302" />
    <path
       d="m 491.56385,215.46356 c 3.25145,2.79514 5.59551,6.65704 6.4979,11.39594 1.41552,7.41091 -0.33849,15.53985 -1.11779,23.01235 -2.0875,19.99673 -2.26713,34.16727 -5.30318,52.16378 -5.61591,33.2646 6.53906,26.37166 1.90787,75.33002 -1.17973,12.42169 -9.02661,7.89304 -9.02661,7.89304 0,0 -1.21011,3.48751 -3.66687,6.78013 -13.08313,17.51957 -37.67002,14.49876 -56.87179,13.82177 -2.84642,-0.1027 -11.0114,-2.05146 -13.32969,-3.70288 -0.54351,-0.38465 3.14913,-20.30957 3.60572,-25.88958 0.84623,-10.38557 1.25627,-20.80192 1.46167,-31.21827 0.40004,-20.49419 -0.0462,-40.99866 0.26156,-61.49286 0.14232,-9.64189 0.46658,-19.38125 2.90796,-28.71546 2.441,-9.32905 7.20067,-18.32988 14.81137,-24.25351 1.59515,-1.24115 3.29261,-2.3284 5.04662,-3.3285 2.33868,-1.33858 12.88349,-1.17961 15.3091,-2.35406 7.67763,-3.71319 8.61618,-3.59522 15.10909,-8.14437 1.96441,-0.94878 0.74391,-5.17994 2.89257,-5.57486 7.8215,-1.44629 15.20679,0.57955 19.5045,4.27732"
       style="fill:#9dabc4;fill-opacity:1;fill-rule:nonzero;stroke:none;stroke-width:0.512867"
       id="path4304" />
    <path
       d="m 451.48322,501.91049 1.04626,-0.60521 c 1.52321,-3.81058 3.50301,-4.0106 6.37481,-3.68238 l 0.71315,-0.4103 0.0385,-58.34381 -30.09508,-7.94946 21.9351,70.99116"
       style="fill:#5c3c25;fill-opacity:1;fill-rule:nonzero;stroke:none;stroke-width:0.512867"
       id="path4306" />
    <g
       id="g4308"
       transform="matrix(0.51286783,0,0,-0.51286783,-864.37151,2214.807)">
      <g
         id="g4310"
         clip-path="url(#clipPath4314)">
        <path
           d="m 2567.73,3446.22 -0.01,-105.2 c 2.97,7.43 6.83,7.82 12.43,7.18 l -0.05,105.39 -12.37,-7.37"
           style="fill:url(#linearGradient4322);fill-opacity:1;fill-rule:nonzero;stroke:none"
           id="path4324" />
      </g>
    </g>
    <path
       d="m 449.56497,476.46199 -0.0885,-31.726 v -4.24143 l -76.15084,-39.72159 v 31.66957 l 2.00557,1.15907 v 24.34071 l 76.15049,43.96817 v -26.55118 l -1.91826,1.10268"
       style="fill:#472d1a;fill-opacity:1;fill-rule:nonzero;stroke:none;stroke-width:0.512867"
       id="path4326" />
    <path
       d="m 449.47804,444.73599 10.16478,-5.8672 -76.15048,-43.96306 -10.16517,5.86724 76.15087,43.96302"
       style="fill:#66432a;fill-opacity:1;fill-rule:nonzero;stroke:none;stroke-width:0.512867"
       id="path4328" />
    <path
       d="m 458.90429,440.49456 -8.53925,4.9338 v 31.01309 l 1.08741,-0.62567 v -27.8385 l 7.43646,-4.41575 v -3.06697"
       style="fill:#472d1a;fill-opacity:1;fill-rule:nonzero;stroke:none;stroke-width:0.512867"
       id="path4330" />
    <path
       d="m 435.33827,464.98912 1.06164,-0.61544 v -6.77497 l -1.06164,0.61544 v 6.77497"
       style="fill:#d5bbc9;fill-opacity:1;fill-rule:nonzero;stroke:none;stroke-width:0.512867"
       id="path4332" />
    <path
       d="m 427.0502,460.20407 8.28807,4.78505 v -6.77497 l -8.28807,-4.79021 v 6.78013"
       style="fill:#ab9baa;fill-opacity:1;fill-rule:nonzero;stroke:none;stroke-width:0.512867"
       id="path4334" />
    <g
       id="g4336"
       transform="matrix(0.51286783,0,0,-0.51286783,-864.37151,2214.807)">
      <g
         id="g4338"
         clip-path="url(#clipPath4342)">
        <path
           d="m 2534.2,3425.04 2.07,1.2 -16.16,9.33 -2.07,-1.19 16.16,-9.34"
           style="fill:url(#linearGradient4348);fill-opacity:1;fill-rule:nonzero;stroke:none"
           id="path4350" />
      </g>
    </g>
    <path
       d="m 393.46249,440.81255 1.06663,-0.61033 v -6.78009 l -1.06663,0.61545 v 6.77497"
       style="fill:#9d8e9c;fill-opacity:1;fill-rule:nonzero;stroke:none;stroke-width:0.512867"
       id="path4352" />
    <path
       d="m 385.17441,436.02749 8.28808,4.78506 v -6.77497 l -8.28808,-4.78506 v 6.77497"
       style="fill:#ab9baa;fill-opacity:1;fill-rule:nonzero;stroke:none;stroke-width:0.512867"
       id="path4354" />
    <g
       id="g4356"
       transform="matrix(0.51286783,0,0,-0.51286783,-864.37151,2214.807)">
      <g
         id="g4358"
         clip-path="url(#clipPath4362)">
        <path
           d="m 2452.55,3472.18 2.08,1.2 -16.17,9.33 -2.07,-1.2 16.16,-9.33"
           style="fill:url(#linearGradient4368);fill-opacity:1;fill-rule:nonzero;stroke:none"
           id="path4370" />
      </g>
    </g>
    <path
       d="m 415.50029,409.04038 c -2.5437,4.90815 -9.19546,4.3286 -9.19546,4.3286 0,0 -3.50802,2.20535 -7.72379,-0.38977 -2.33368,-1.43602 -1.63631,-3.28234 -0.95932,-4.02087 5.43665,-5.92363 20.28418,-4.56454 17.87857,0.0819"
       style="fill:#472d1a;fill-opacity:1;fill-rule:nonzero;stroke:none;stroke-width:0.512867"
       id="path4372" />
    <path
       d="m 427.03482,396.9213 c -1.17434,-1.91298 -5.0774,-3.81573 -7.00065,-4.14396 -3.47224,-0.58978 -10.45212,2.27714 -11.82686,5.81593 -0.84623,2.18481 -1.39475,4.12857 -2.45638,6.28777 -1.39013,2.83615 -2.93373,6.657 -2.68256,9.86756 0.15002,1.92837 0.6566,2.42073 2.04635,3.28234 1.33358,0.83085 1.75939,0.3385 3.11836,1.11807 0.50274,0.28733 3.26184,2.73871 3.80535,2.92335 3.31838,1.13856 3.86728,2.8413 7.3753,2.89257 2.73333,0.0462 4.86698,-1.64119 6.61061,-3.73881 1.14395,-1.37962 2.3029,-2.77975 3.05182,-4.40552 1.57937,-3.42597 0.52812,-7.76483 -0.0769,-11.30873 -0.4412,-2.56436 -0.56429,-6.30828 -1.96441,-8.59057"
       style="fill:#fbbd9e;fill-opacity:1;fill-rule:nonzero;stroke:none;stroke-width:0.512867"
       id="path4374" />
    <path
       d="m 421.63432,420.73377 c 3.61572,4.17473 6.32366,9.29317 6.32366,9.29317 0,0 3.03605,3.02593 7.25182,0.43081 2.33368,-1.43602 1.37974,-3.11825 0.95393,-4.02088 -1.30781,-2.78487 -4.31809,-7.6007 -7.22605,-10.50354 -2.1902,-2.18993 -9.00621,2.83614 -7.30336,4.80044"
       style="fill:#472d1a;fill-opacity:1;fill-rule:nonzero;stroke:none;stroke-width:0.512867"
       id="path4376" />
    <path
       d="m 408.39194,391.15154 c -0.40004,4.11834 -0.68699,6.98526 -0.7743,7.67252 -1.03087,8.14433 19.85298,9.77524 21.0531,6.81601 1.02586,-2.52843 2.37483,-6.8314 3.83112,-12.11393 -8.10844,-0.52312 -16.2115,-0.88727 -24.10992,-2.3746"
       style="fill:#ffffff;fill-opacity:1;fill-rule:nonzero;stroke:none;stroke-width:0.512867"
       id="path4378" />
    <path
       d="m 435.40482,229.30588 2.42599,-7.70329 c 8.30846,-0.27195 16.13995,-0.97444 23.96106,-4.6517 4.71313,-2.50792 8.2623,-5.33896 8.375,-8.15976 l 2.91335,4.27221 c 0,0 6.0671,4.09268 -11.83725,12.69859 -7.503,3.61061 -17.50931,3.66703 -25.83815,3.54395"
       style="fill:#ffffff;fill-opacity:1;fill-rule:nonzero;stroke:none;stroke-width:0.512867"
       id="path4380" />
    <path
       d="m 436.33298,226.59278 c 20.67883,-0.60517 30.19279,-6.48775 31.86986,-7.9597 5.86708,-5.14405 3.47725,-7.16989 3.11298,-8.16487 11.78071,-1.20523 6.46214,11.48826 -3.01066,15.90405 -17.55008,8.18537 -36.09025,5.89797 -35.7006,5.11328 0.51274,-1.03598 2.58485,-4.09269 3.72842,-4.89276"
       style="fill:#b2c1d6;fill-opacity:1;fill-rule:nonzero;stroke:none;stroke-width:0.512867"
       id="path4382" />
    <g
       id="g4384"
       transform="matrix(0.51286783,0,0,-0.51286783,-864.37151,2214.807)">
      <g
         id="g4386"
         clip-path="url(#clipPath4390)">
        <path
           d="m 2490.71,3676.71 c -1.57,-25.05 -10.74,-121.44 -11.57,-128.01 -2.28,-17.93 43.71,-21.52 46.35,-15.01 8.78,21.63 28.05,101.3 31.97,142.81 7.83,82.97 10.96,107.81 11.92,126.66 0.94,18.68 -7.45,37.09 -23.16,47.25 -22.77,14.73 -53.73,7.87 -54.25,-92.3 -0.12,-21.29 -0.65,-71.7 -1.26,-81.4"
           style="fill:url(#linearGradient4398);fill-opacity:1;fill-rule:nonzero;stroke:none"
           id="path4400" />
      </g>
    </g>
  </g>
</svg>
