<?xml version="1.0" encoding="UTF-8" standalone="no"?>
<!-- Created with Inkscape (http://www.inkscape.org/) -->

<svg
   xmlns:dc="http://purl.org/dc/elements/1.1/"
   xmlns:cc="http://creativecommons.org/ns#"
   xmlns:rdf="http://www.w3.org/1999/02/22-rdf-syntax-ns#"
   xmlns:svg="http://www.w3.org/2000/svg"
   xmlns="http://www.w3.org/2000/svg"
   xmlns:sodipodi="http://sodipodi.sourceforge.net/DTD/sodipodi-0.dtd"
   xmlns:inkscape="http://www.inkscape.org/namespaces/inkscape"
   version="1.1"
   id="svg4695"
   xml:space="preserve"
   width="4000"
   height="2666.6667"
   viewBox="0 0 4000 2666.6667"
   sodipodi:docname="documents.svg"
   inkscape:version="0.92.4 (5da689c313, 2019-01-14)"><metadata
     id="metadata4701"><rdf:RDF><cc:Work
         rdf:about=""><dc:format>image/svg+xml</dc:format><dc:type
           rdf:resource="http://purl.org/dc/dcmitype/StillImage" /><dc:title></dc:title></cc:Work></rdf:RDF></metadata><defs
     id="defs4699" /><sodipodi:namedview
     pagecolor="#ffffff"
     bordercolor="#666666"
     borderopacity="1"
     objecttolerance="10"
     gridtolerance="10"
     guidetolerance="10"
     inkscape:pageopacity="0"
     inkscape:pageshadow="2"
     inkscape:window-width="1920"
     inkscape:window-height="1001"
     id="namedview4697"
     showgrid="false"
     inkscape:zoom="0.25031579"
     inkscape:cx="1615.5722"
     inkscape:cy="1244.8302"
     inkscape:window-x="-9"
     inkscape:window-y="-9"
     inkscape:window-maximized="1"
     inkscape:current-layer="g4705" /><g
     id="g4703"
     inkscape:groupmode="layer"
     inkscape:label="ink_ext_XXXXXX"
     transform="matrix(1.3333333,0,0,-1.3333333,0,2666.6667)"><g
       id="g4705"
       transform="scale(0.1)"><path
         d="M 20905.7,3055.4 12298.9,4671.2 14310.3,15385.5 22917,13769.7 20905.7,3055.4"
         style="fill:#bee5ed;fill-opacity:1;fill-rule:nonzero;stroke:none"
         id="path4709"
         inkscape:connector-curvature="0" /><path
         d="m 22500,14867.3 -1300.2,-9309 -9001,1257.2 1564.9,11205.1 7308,-1020.6 1428.3,-2132.7"
         style="fill:#f7fbfc;fill-opacity:1;fill-rule:nonzero;stroke:none"
         id="path4711"
         inkscape:connector-curvature="0" /><path
         d="m 15186.4,13349.6 c -45.9,-66.7 3.7,-154.7 76.8,-173 82,-20.6 144.4,56.6 138.4,133.3 -6.4,82.1 -76.9,138.3 -158.3,128.5 -80.9,-9.7 -135.7,-84.1 -115.1,-164.3 56.1,-218.1 412.9,-13.2 271,139.2 -54.1,58.1 -155.8,52.6 -193.8,-19.8 -36.8,-70 4.7,-165.7 85.6,-176 80,-10.1 157.8,67.1 134.2,148.2 -19.6,67.2 -100,94.8 -162.5,75.4 -78,-24.3 -101.4,-116.7 -52.6,-179.6 45.7,-58.8 137.8,-77.3 194.3,-22.7 53,51.4 46.8,143.2 -1.4,195.5 -58.4,63.4 -155.2,50.1 -208.1,-12.9 -56.7,-67.5 -45.8,-165.8 26.3,-217.8 67.7,-48.8 161.8,-38.5 212.5,29.1 50.3,66.9 43.3,170.5 -30.8,217.2 -61.8,38.8 -149.9,28.1 -203.4,-20.3 -62.8,-56.7 -57,-152.8 2.6,-209.4 61.9,-59 155.7,-67.6 222.7,-13.4 56.7,45.8 -21.2,127.9 -77.6,82.3 -22.7,-18.3 -69.6,2.4 -78.3,28 -10.5,30.6 27.9,44.9 52.3,43.1 34.8,-2.5 43.4,-39.6 18.8,-63.9 -29.7,-29.5 -85.6,8.3 -63.2,46.3 18.1,30.7 65.3,20.5 51.6,-17 -4,-10.9 -10.4,-8.3 -21.7,-1.8 -2.1,1.2 -13.2,13.7 -10.4,8.8 0.7,-1.1 -7,2.3 0.5,0.8 6.7,-1.3 13.8,2 20.7,-1.7 -5.4,2.9 4.4,6.1 -4.9,0.4 -8.2,-5 -4.4,-4.9 -5.9,-3 -4.2,5.4 -4.4,17.2 3.8,10.5 14.7,-12 -11.7,-29.7 -24.5,-36.9 -13.5,-7.7 -54.1,-24.1 -49.3,8 2.2,15.2 25.5,21.1 38.9,13.9 13.4,-7.2 15.6,-22.2 12.2,-36 -1.4,-5.5 7.2,-2.4 -0.4,-1.1 -0.6,0.2 -4.3,2.8 -4.3,3.4 -1,8.1 -6,-8.9 -0.7,-1.3 41.4,60.1 -54.8,119.8 -96,60 v 0"
         style="fill:#bee5ed;fill-opacity:1;fill-rule:nonzero;stroke:none"
         id="path4713"
         inkscape:connector-curvature="0" /><path
         d="m 16030.8,13132.4 c 1263.4,-213.7 2532.7,-393.1 3805.9,-538 367.1,-41.8 734.6,-80.6 1102.4,-116.8 61.9,-6.1 64.5,90.6 2.8,96.6 -1274.8,125.4 -2546.3,284.3 -3812.6,478.2 -357.1,54.6 -713.8,112.1 -1070.1,172.4 -60.5,10.2 -89.6,-82.1 -28.4,-92.4 v 0"
         style="fill:#bee5ed;fill-opacity:1;fill-rule:nonzero;stroke:none"
         id="path4715"
         inkscape:connector-curvature="0" /><path
         d="m 16126.6,13444 c 931.7,-157.8 1861.8,-322.6 2800.7,-431.7 317.6,-36.9 635.6,-69.7 953.8,-101 123.9,-12.2 129.1,181.1 5.7,193.2 -934.6,91.9 -1862.6,212.6 -2788.5,368.9 -305,51.5 -609.8,103.8 -914.8,155.4 -51.9,8.8 -103.5,-9.6 -120.9,-63.9 -14.2,-44.7 12.6,-112.2 64,-120.9 v 0"
         style="fill:#6699b2;fill-opacity:1;fill-rule:nonzero;stroke:none"
         id="path4717"
         inkscape:connector-curvature="0" /><path
         d="m 15991,12805.8 c 412.8,-77.3 828.5,-137.8 1246.1,-181.8 61.9,-6.5 64.5,90.2 2.9,96.7 -409.1,43.1 -816.3,101.8 -1220.6,177.5 -60.5,11.3 -89.5,-81 -28.4,-92.4 v 0"
         style="fill:#bee5ed;fill-opacity:1;fill-rule:nonzero;stroke:none"
         id="path4719"
         inkscape:connector-curvature="0" /><path
         d="m 17628.4,12547.8 c 412.8,-77.3 828.5,-137.7 1246.2,-181.7 61.8,-6.5 64.4,90.1 2.8,96.6 -409,43.1 -816.2,101.8 -1220.5,177.5 -60.6,11.4 -89.5,-81 -28.5,-92.4 v 0"
         style="fill:#bee5ed;fill-opacity:1;fill-rule:nonzero;stroke:none"
         id="path4721"
         inkscape:connector-curvature="0" /><path
         d="m 14776.6,11562.6 c -45.9,-66.7 3.7,-154.6 76.8,-173 82,-20.6 144.4,56.7 138.4,133.4 -6.4,82 -76.9,138.2 -158.3,128.4 -80.9,-9.7 -135.7,-84.1 -115.1,-164.2 56.1,-218.1 412.9,-13.3 271,139.2 -54.1,58 -155.8,52.6 -193.9,-19.9 -36.7,-69.9 4.8,-165.6 85.7,-175.9 79.9,-10.2 157.7,67.1 134.2,148.1 -19.6,67.2 -100,94.9 -162.5,75.4 -78,-24.3 -101.5,-116.7 -52.6,-179.5 45.7,-58.8 137.8,-77.4 194.3,-22.7 53,51.3 46.8,143.2 -1.4,195.5 -58.4,63.4 -155.2,50 -208.1,-12.9 -56.7,-67.5 -45.9,-165.9 26.2,-217.9 67.7,-48.8 161.9,-38.5 212.6,29.1 50.3,66.9 43.3,170.6 -30.9,217.2 -61.7,38.9 -149.8,28.2 -203.3,-20.2 -62.8,-56.8 -57,-152.8 2.6,-209.5 61.9,-58.9 155.7,-67.6 222.7,-13.4 56.7,45.9 -21.2,128 -77.6,82.4 -22.7,-18.4 -69.6,2.3 -78.3,28 -10.5,30.5 27.9,44.8 52.3,43.1 34.8,-2.5 43.4,-39.6 18.8,-64 -29.7,-29.5 -85.6,8.3 -63.2,46.3 18.1,30.7 65.3,20.5 51.6,-16.9 -4,-10.9 -10.4,-8.3 -21.7,-1.9 -2.2,1.3 -13.2,13.7 -10.4,8.9 0.7,-1.1 -7,2.2 0.5,0.7 6.7,-1.3 13.8,2 20.7,-1.6 -5.4,2.9 4.4,6 -4.9,0.4 -8.2,-5 -4.4,-5 -5.9,-3.1 -4.2,5.4 -4.4,17.2 3.8,10.5 14.7,-12 -11.7,-29.6 -24.5,-36.8 -13.5,-7.7 -54.1,-24.1 -49.4,8 2.3,15.1 25.6,21.1 39,13.9 13.4,-7.3 15.6,-22.3 12.2,-36.1 -1.4,-5.4 7.1,-2.3 -0.4,-1 -0.6,0.1 -4.3,2.7 -4.4,3.4 -0.9,8.1 -5.9,-8.9 -0.7,-1.4 41.5,60.2 -54.7,119.8 -95.9,60 v 0"
         style="fill:#bee5ed;fill-opacity:1;fill-rule:nonzero;stroke:none"
         id="path4723"
         inkscape:connector-curvature="0" /><path
         d="m 15621,11345.4 c 1263.4,-213.7 2532.6,-393 3805.9,-537.9 367.1,-41.8 734.6,-80.7 1102.4,-116.9 61.9,-6 64.5,90.6 2.8,96.7 -1274.8,125.3 -2546.3,284.3 -3812.6,478.1 -357.1,54.7 -713.8,112.2 -1070.1,172.4 -60.6,10.3 -89.6,-82 -28.4,-92.4 v 0"
         style="fill:#bee5ed;fill-opacity:1;fill-rule:nonzero;stroke:none"
         id="path4725"
         inkscape:connector-curvature="0" /><path
         d="m 15716.8,11657 c 931.7,-157.8 1861.8,-322.6 2800.7,-431.7 317.6,-36.9 635.6,-69.7 953.8,-101 123.9,-12.1 129.1,181.2 5.7,193.3 -934.6,91.8 -1862.6,212.6 -2788.5,368.8 -305,51.5 -609.9,103.8 -914.8,155.5 -51.9,8.8 -103.5,-9.7 -120.9,-64 -14.2,-44.7 12.6,-112.2 64,-120.9 v 0"
         style="fill:#6699b2;fill-opacity:1;fill-rule:nonzero;stroke:none"
         id="path4727"
         inkscape:connector-curvature="0" /><path
         d="m 15581.2,11018.8 c 412.8,-77.3 828.5,-137.7 1246.1,-181.7 61.9,-6.5 64.4,90.1 2.9,96.6 -409.1,43.1 -816.3,101.8 -1220.6,177.5 -60.5,11.4 -89.5,-81 -28.4,-92.4 v 0"
         style="fill:#bee5ed;fill-opacity:1;fill-rule:nonzero;stroke:none"
         id="path4729"
         inkscape:connector-curvature="0" /><path
         d="m 17218.6,10760.9 c 412.8,-77.3 828.5,-137.8 1246.2,-181.8 61.8,-6.5 64.4,90.2 2.8,96.7 -409,43.1 -816.2,101.8 -1220.5,177.5 -60.6,11.3 -89.5,-81 -28.5,-92.4 v 0"
         style="fill:#bee5ed;fill-opacity:1;fill-rule:nonzero;stroke:none"
         id="path4731"
         inkscape:connector-curvature="0" /><path
         d="m 14505.2,9808.6 c -45.9,-66.7 3.8,-154.6 76.9,-173 82,-20.6 144.4,56.7 138.4,133.3 -6.4,82.1 -76.9,138.3 -158.3,128.5 -81,-9.7 -135.7,-84.1 -115.1,-164.3 56.1,-218 412.9,-13.2 270.9,139.3 -54,58 -155.7,52.6 -193.8,-19.9 -36.7,-69.9 4.7,-165.7 85.7,-175.9 79.9,-10.2 157.7,67.1 134.1,148.1 -19.5,67.2 -99.9,94.9 -162.4,75.4 -78,-24.3 -101.5,-116.7 -52.7,-179.5 45.7,-58.9 137.8,-77.4 194.3,-22.7 53.1,51.3 46.8,143.1 -1.3,195.4 -58.4,63.4 -155.2,50.1 -208.1,-12.9 -56.7,-67.5 -45.9,-165.8 26.2,-217.8 67.7,-48.8 161.8,-38.5 212.6,29.1 50.2,66.9 43.3,170.5 -30.9,217.2 -61.7,38.8 -149.8,28.2 -203.3,-20.2 -62.8,-56.8 -57,-152.9 2.5,-209.5 62,-58.9 155.8,-67.6 222.8,-13.4 56.7,45.9 -21.2,127.9 -77.6,82.3 -22.7,-18.3 -69.6,2.4 -78.4,28.1 -10.4,30.5 28,44.8 52.4,43.1 34.7,-2.5 43.3,-39.7 18.8,-64 -29.7,-29.5 -85.6,8.3 -63.2,46.3 18.1,30.7 65.3,20.5 51.5,-16.9 -4,-11 -10.4,-8.3 -21.6,-1.9 -2.2,1.3 -13.3,13.7 -10.4,8.9 0.7,-1.2 -7,2.2 0.5,0.7 6.6,-1.3 13.8,2 20.6,-1.6 -5.3,2.9 4.5,6 -4.8,0.3 -8.2,-4.9 -4.5,-4.9 -6,-3 -4.2,5.4 -4.3,17.2 3.9,10.5 14.7,-12 -11.7,-29.6 -24.5,-36.9 -13.6,-7.6 -54.1,-24.1 -49.4,8.1 2.2,15.1 25.6,21.1 38.9,13.8 13.4,-7.2 15.7,-22.2 12.3,-36 -1.4,-5.4 7.1,-2.3 -0.4,-1 -0.7,0.1 -4.3,2.7 -4.4,3.4 -1,8.1 -5.9,-9 -0.7,-1.4 41.4,60.2 -54.8,119.8 -96,60 v 0"
         style="fill:#bee5ed;fill-opacity:1;fill-rule:nonzero;stroke:none"
         id="path4733"
         inkscape:connector-curvature="0" /><path
         d="m 15349.6,9591.4 c 806.5,-136.5 1611.1,-269.2 2425,-353.9 300.1,-31.2 600.4,-60.4 900.7,-89.9 61.9,-6.1 64.5,90.6 2.8,96.6 -813.5,79.9 -1624.5,162.4 -2431.6,294.1 -289.7,47.3 -579,96.5 -868.4,145.5 -60.6,10.3 -89.6,-82.1 -28.5,-92.4 v 0"
         style="fill:#bee5ed;fill-opacity:1;fill-rule:nonzero;stroke:none"
         id="path4735"
         inkscape:connector-curvature="0" /><path
         d="m 15445.5,9903 c 621.7,-105.3 1239.4,-233.3 1866.9,-299.4 272.3,-28.6 544.9,-54.9 817.4,-81.6 123.9,-12.2 129.1,181.1 5.7,193.2 -388,38.1 -777.1,71.4 -1163.8,121.4 -51.7,6.7 -103.4,13.9 -154.9,21.7 -24.7,3.7 -49.4,7.6 -74.1,11.6 -26.5,4.3 -0.2,0 -16.1,2.6 -15.8,2.7 -31.5,5.3 -47.2,8 -131.1,22.5 -261.9,46.8 -392.8,70.4 -261.1,47.1 -522.6,92.6 -784.2,137 -51.9,8.7 -103.5,-9.7 -120.9,-64 -14.3,-44.7 12.6,-112.2 64,-120.9 v 0"
         style="fill:#6699b2;fill-opacity:1;fill-rule:nonzero;stroke:none"
         id="path4737"
         inkscape:connector-curvature="0" /><path
         d="m 15309.9,9264.8 c 412.7,-77.3 828.4,-137.7 1246.1,-181.7 61.9,-6.6 64.4,90.1 2.8,96.6 -409,43.1 -816.2,101.8 -1220.5,177.5 -60.5,11.3 -89.5,-81 -28.4,-92.4 v 0"
         style="fill:#bee5ed;fill-opacity:1;fill-rule:nonzero;stroke:none"
         id="path4739"
         inkscape:connector-curvature="0" /><path
         d="m 16947.3,9006.8 c 412.8,-77.2 828.5,-137.7 1246.1,-181.7 61.9,-6.5 64.5,90.2 2.9,96.6 -409.1,43.1 -816.2,101.9 -1220.5,177.6 -60.6,11.3 -89.5,-81 -28.5,-92.5 v 0"
         style="fill:#bee5ed;fill-opacity:1;fill-rule:nonzero;stroke:none"
         id="path4741"
         inkscape:connector-curvature="0" /><path
         d="m 20970.4,16990.2 c -128.4,-632.2 -230,-1269.5 -304.3,-1910.3 -1.4,-12.1 9.6,-28.9 22.2,-31.1 584.1,-98.6 1172.4,-169.6 1763.2,-212 40.5,-2.9 42.3,60.2 1.9,63.1 -585.1,42 -1168,111.6 -1746.5,209.3 7.4,-10.4 14.9,-20.8 22.3,-31.1 73.7,635.1 174.2,1266.8 301.5,1893.5 8,39.5 -52.2,58.3 -60.3,18.6 v 0"
         style="fill:#bee5ed;fill-opacity:1;fill-rule:nonzero;stroke:none"
         id="path4743"
         inkscape:connector-curvature="0" /><path
         d="m 10539.9,10997.3 c 284.6,-4 776.2,-46.1 1054.2,-94.2 895.1,-154.7 544.6,-692.3 1439.7,-847 l -1338.6,-877.7 c -294.1,-199.7 -650.9,-268.2 -991.1,-257.1 -340.2,11.1 -669.2,96.3 -995.17,181 -761.25,197.7 -1671.96,321.9 -2433.21,519.7 847.7,697.5 2217.88,1389.9 3264.18,1375.3"
         style="fill:#fdbaa0;fill-opacity:1;fill-rule:nonzero;stroke:none"
         id="path4745"
         inkscape:connector-curvature="0" /><path
         d="m 14790,9259.1 c 154.6,-37.9 325.6,-101.5 386.1,-248.7 60.8,-148.2 -23.9,-324.2 -153.8,-417.9 -129.8,-93.8 -293.7,-124 -451.9,-149 -647.6,-102.3 -1302.6,-158.5 -1958.2,-168 l 416.6,1003.1 c 578.2,128.2 1185.9,121.5 1761.2,-19.5"
         style="fill:#fdbaa0;fill-opacity:1;fill-rule:nonzero;stroke:none"
         id="path4747"
         inkscape:connector-curvature="0" /><path
         d="m 14207.6,7766.1 c 142.2,-71.5 294.7,-171.8 320.7,-328.8 26.2,-158 -95.7,-310.7 -243.2,-373 -147.6,-62.3 -314,-55.1 -473.8,-44.1 -654.1,45 -1305.1,136.6 -1946.2,273.8 l 630.2,884.7 c 592.2,-4.3 1183.1,-146.7 1712.3,-412.6"
         style="fill:#fdbaa0;fill-opacity:1;fill-rule:nonzero;stroke:none"
         id="path4749"
         inkscape:connector-curvature="0" /><path
         d="m 13060,6872.1 c 113.8,-111.3 228.7,-253.1 205.9,-410.6 -23,-158.5 -185.4,-267 -344.9,-281.6 -159.5,-14.7 -315.9,42.7 -464.9,101.6 -609.6,241.3 -1202.1,526 -1771.4,851.2 l 868.8,651.9 c 563,-183.8 1082.9,-498.6 1506.5,-912.5"
         style="fill:#fdbaa0;fill-opacity:1;fill-rule:nonzero;stroke:none"
         id="path4751"
         inkscape:connector-curvature="0" /><path
         d="m 3393.33,5589.7 c 393.53,-749.2 1132.01,-1547.6 2367.43,-2445.3 261.28,-189.9 29.64,-780.4 336.88,-979.7 288.11,352.2 1075.55,1069.3 1308.17,1337.9 11.97,13.7 23.83,27.3 35.49,40.7 417.27,480.5 698.51,783.9 698.51,783.9 85.42,-16.3 179.34,-34.2 280.66,-46.5 456.07,-55.7 1060.65,1.3 1700.13,824 32.6,42.1 65.7,83.2 99.3,123.4 118.2,142.3 241.5,273.8 366,394.9 457,444.4 931.8,748.6 1245,923.9 63.4,35.3 120,65.4 168.7,90.4 l 0.2,0.1 c 119.7,61.4 190.8,91.5 190.8,91.5 h -0.1 l -93.8,33.7 -1288,463.2 -2058.35,2734 -490.69,-1817.1 -10.49,3.7 -2.97,1.1 -0.19,0.1 -159.82,57.5 -0.19,0.1 -14.82,5.4 -19.3,6.9 -0.09,0.1 -286.98,-81.8 -0.21,-0.1 -1512.93,-430.9 -40.55,-11.5 -280.15,-79.9 c -44.96,-63.9 -153.88,-169.2 -311.14,-305.4 -16.55,-14.3 -33.53,-28.8 -51.03,-43.9 -12.82,-10.8 -25.82,-21.9 -39.11,-33 0,0 0,0 -0.06,-0.1 C 5052.36,6828.4 4233.7,6208.9 3393.33,5589.7"
         style="fill:#fdbaa0;fill-opacity:1;fill-rule:nonzero;stroke:none"
         id="path4753"
         inkscape:connector-curvature="0" /><path
         d="m 6311.75,6534.3 c 4.98,-2.9 11.23,-3.5 16.96,-1.1 9.56,4.1 14.01,15.2 9.93,24.8 -274.21,642.4 -41.79,1323.9 -39.41,1330.7 3.43,9.9 -1.71,20.5 -11.58,24 -9.81,3.5 -20.56,-1.7 -23.99,-11.5 -2.42,-7 -239.54,-702.3 40.32,-1358 1.65,-3.9 4.42,-6.9 7.77,-8.9"
         style="fill:#fdbaa0;fill-opacity:1;fill-rule:nonzero;stroke:none"
         id="path4755"
         inkscape:connector-curvature="0" /><path
         d="m 18693.6,7033.8 430,-173.7 c 461,-186.1 762.9,-633.6 762.9,-1130.8 V 2723.4 c 0,-108.9 -88.2,-197.1 -197,-197.1 H 17854.1 9374.31 c -108.82,0 -197.02,88.2 -197.02,197.1 V 15579 c 0,108.8 88.2,197 197.02,197 h 8282.79 c 108.8,0 197,-88.2 197,-197 V 8278.2 c 0,-547.1 332.1,-1039.5 839.5,-1244.4"
         style="fill:#fa7267;fill-opacity:1;fill-rule:nonzero;stroke:none"
         id="path4757"
         inkscape:connector-curvature="0" /><path
         d="m 16409.2,11597.7 h -5563.4 c -89,0 -161.1,72.2 -161.1,161.2 V 13944 c 0,89 72.1,161.2 161.1,161.2 h 5563.4 c 89,0 161.2,-72.2 161.2,-161.2 v -2185.1 c 0,-89.1 -72.2,-161.2 -161.2,-161.2"
         style="fill:#e7eefd;fill-opacity:1;fill-rule:nonzero;stroke:none"
         id="path4759"
         inkscape:connector-curvature="0" /><path
         d="m 11448.9,12680.6 c 1171.8,-38.1 2344.2,-43.3 3515.8,-15.6 337.8,8 675.6,18.8 1013.3,32.1 56.8,2.3 46.5,93.3 -10.1,91.1 -1170.5,-46.3 -2342.4,-60.5 -3514.1,-41.4 -330.5,5.4 -660.9,13.5 -991.3,24.3 -56.2,1.8 -70.4,-88.6 -13.6,-90.5 v 0"
         style="fill:#75a1c9;fill-opacity:1;fill-rule:nonzero;stroke:none"
         id="path4761"
         inkscape:connector-curvature="0" /><path
         d="m 11524.8,13144.4 c 1045.6,-29.1 2090.6,-66 3136.8,-40.6 353.8,8.6 707.4,21.8 1061,36.6 137.7,5.8 113.5,218.5 -23.6,212.8 -1038.6,-43.7 -2074.5,-54.7 -3113.7,-26.5 -342.2,9.3 -684.4,19.6 -1026.7,29.1 -58.2,1.6 -112,-26.6 -122.6,-88.8 -8.8,-51.2 31.1,-121 88.8,-122.6 v 0"
         style="fill:#6699b2;fill-opacity:1;fill-rule:nonzero;stroke:none"
         id="path4763"
         inkscape:connector-curvature="0" /><path
         d="m 11455.9,12293.3 c 397.6,-17.9 795.8,-19.7 1193.6,-5.8 59,2.1 48.6,93.2 -10.1,91.1 -389.6,-13.7 -779.5,-12.4 -1169,5.2 -58.4,2.6 -73.3,-87.9 -14.5,-90.5 v 0"
         style="fill:#75a1c9;fill-opacity:1;fill-rule:nonzero;stroke:none"
         id="path4765"
         inkscape:connector-curvature="0" /><path
         d="m 13026.9,12267.8 c 397.7,-18 795.8,-19.7 1193.6,-5.8 59,2.1 48.6,93.2 -10.1,91.1 -389.6,-13.7 -779.5,-12.4 -1169,5.2 -58.3,2.6 -73.3,-87.9 -14.5,-90.5 v 0"
         style="fill:#75a1c9;fill-opacity:1;fill-rule:nonzero;stroke:none"
         id="path4767"
         inkscape:connector-curvature="0" /><path
         d="m 8808.94,4245.7 c -338.04,-28.5 -677.61,31.1 -986.56,170.8 -27.33,12.4 -3.46,52.5 23.66,40.2 301.38,-136.3 633.61,-192.1 963.03,-164.3 29.98,2.5 29.58,-44.2 -0.13,-46.7 v 0"
         style="fill:#e79780;fill-opacity:1;fill-rule:nonzero;stroke:none"
         id="path4769"
         inkscape:connector-curvature="0" /><path
         d="m 6207.07,8561.1 c 250.75,306.3 524.1,592.6 816.59,855.4 132.77,119.3 271.49,235 429.9,310.7 206.5,98.7 434.54,124 657.74,148 762.46,81.8 1555.27,107.4 2376.2,130.8 306.6,8.8 319.1,-92.6 323.3,-276.8 3,-127.7 -48.3,-254.6 -140.7,-344.7 -337.7,-329.4 -854.07,-283.3 -1347.15,-345.6 -152.99,-19.3 -199.84,-115.6 -365.31,-218.8 -327.96,-204.6 -649.58,-308 -662.28,-384 C 8098.75,7258.8 8649.21,6636.3 7462.73,5684 7171.57,5450.3 6976.5,6602.2 6626.6,6661.2 L 5367.33,6436.1 c -96.16,235.4 326.88,1220.7 422.05,1465 95.16,244.3 252.58,458.3 417.69,660"
         style="fill:#fdbaa0;fill-opacity:1;fill-rule:nonzero;stroke:none"
         id="path4771"
         inkscape:connector-curvature="0" /><path
         d="M 8198.41,6429.1 C 8016.1,5854.3 7614.49,5360 7088.66,5064.6 c -26.17,-14.7 -49.04,25.9 -22.79,40.7 514.81,289.3 908.93,773 1087.47,1336 9.06,28.5 54.16,16.5 45.07,-12.2 v 0"
         style="fill:#e79780;fill-opacity:1;fill-rule:nonzero;stroke:none"
         id="path4773"
         inkscape:connector-curvature="0" /><path
         d="m 5627.73,7381.9 c -33.83,-299 -48.21,-599.6 -43.08,-900.4 0.52,-30.1 -46.16,-29.8 -46.67,0.2 -5.13,300.7 9.26,601.4 43.08,900.3 3.35,29.6 50.04,29.7 46.67,-0.1 v 0"
         style="fill:#e79780;fill-opacity:1;fill-rule:nonzero;stroke:none"
         id="path4775"
         inkscape:connector-curvature="0" /><path
         d="m 10684.7,9829.8 c -241.5,-165.4 -749.91,-220.9 -882.42,111.2 -11.11,27.9 34.17,39.3 45.17,11.7 61.51,-154.1 234.55,-205.7 386.85,-203.8 149.6,2 303,36.3 427.6,121.6 24.8,17 47.4,-23.8 22.8,-40.7 v 0"
         style="fill:#e79780;fill-opacity:1;fill-rule:nonzero;stroke:none"
         id="path4777"
         inkscape:connector-curvature="0" /><path
         d="m 9305.99,9035.2 c -391.55,-281.9 -804.05,-573.6 -1291.68,-650.5 -29.44,-4.7 -41.4,40.5 -11.71,45.2 483.81,76.2 892.18,366.4 1280.61,646.1 24.31,17.5 46.95,-23.4 22.78,-40.8 v 0"
         style="fill:#e79780;fill-opacity:1;fill-rule:nonzero;stroke:none"
         id="path4779"
         inkscape:connector-curvature="0" /><path
         d="m 8318.69,8436 c -41.81,-453.6 -55.65,-909.4 -41.43,-1364.7 0.94,-30.1 -45.73,-29.9 -46.67,0.1 -14.22,455.3 -0.38,911.1 41.43,1364.8 2.74,29.7 49.43,29.7 46.67,-0.2 v 0"
         style="fill:#e79780;fill-opacity:1;fill-rule:nonzero;stroke:none"
         id="path4781"
         inkscape:connector-curvature="0" /><path
         d="m 10124.4,9105.2 c -280.63,-71.4 -571.21,-95.4 -859.75,-70.3 -29.77,2.6 -29.8,49.3 0.14,46.7 284.79,-24.8 570.88,-1.8 847.91,68.8 29.2,7.4 40.9,-37.8 11.7,-45.2 v 0"
         style="fill:#e79780;fill-opacity:1;fill-rule:nonzero;stroke:none"
         id="path4783"
         inkscape:connector-curvature="0" /><path
         d="M 9120.92,10000.7 C 8697.24,9899.1 8273.55,9797.5 7849.87,9696 c -29.21,-7 -40.98,38.1 -11.71,45.1 423.69,101.6 847.37,203.2 1271.06,304.8 29.21,7 40.98,-38.2 11.7,-45.2 v 0"
         style="fill:#e79780;fill-opacity:1;fill-rule:nonzero;stroke:none"
         id="path4785"
         inkscape:connector-curvature="0" /><path
         d="m 5846.18,1608 c 0,0 1371.61,1042.4 1191.83,1302.8 C 6858.23,3171.2 5491.04,3967.6 4852.93,4915.2 4214.83,5862.7 3852.08,6485.9 3528.62,6456.6 3205.17,6427.3 1676.15,5381.1 1676.15,5381.1 L 5846.18,1608"
         style="fill:#edf9fb;fill-opacity:1;fill-rule:nonzero;stroke:none"
         id="path4787"
         inkscape:connector-curvature="0" /><path
         d="M 1871.84,5811.5 6167.58,1473.8 5353.21,0 H 0 v 5061.4 l 1871.84,750.1"
         style="fill:#4e9093;fill-opacity:1;fill-rule:nonzero;stroke:none"
         id="path4789"
         inkscape:connector-curvature="0" /></g></g></svg>