<?xml version="1.0" encoding="UTF-8" standalone="no"?>
<svg
   xmlns:dc="http://purl.org/dc/elements/1.1/"
   xmlns:cc="http://creativecommons.org/ns#"
   xmlns:rdf="http://www.w3.org/1999/02/22-rdf-syntax-ns#"
   xmlns:svg="http://www.w3.org/2000/svg"
   xmlns="http://www.w3.org/2000/svg"
   xmlns:sodipodi="http://sodipodi.sourceforge.net/DTD/sodipodi-0.dtd"
   xmlns:inkscape="http://www.inkscape.org/namespaces/inkscape"
   version="1.1"
   id="svg2"
   xml:space="preserve"
   width="467.194"
   height="401.59119"
   viewBox="0 0 467.194 401.59118"
   sodipodi:docname="help.svg"
   inkscape:version="0.92.4 (5da689c313, 2019-01-14)"><metadata
     id="metadata8"><rdf:RDF><cc:Work
         rdf:about=""><dc:format>image/svg+xml</dc:format><dc:type
           rdf:resource="http://purl.org/dc/dcmitype/StillImage" /><dc:title /></cc:Work></rdf:RDF></metadata><defs
     id="defs6" /><sodipodi:namedview
     pagecolor="#ffffff"
     bordercolor="#666666"
     borderopacity="1"
     objecttolerance="10"
     gridtolerance="10"
     guidetolerance="10"
     inkscape:pageopacity="0"
     inkscape:pageshadow="2"
     inkscape:window-width="1920"
     inkscape:window-height="1001"
     id="namedview4"
     showgrid="false"
     showguides="true"
     inkscape:guide-bbox="true"
     inkscape:zoom="1.3435807"
     inkscape:cx="-23.73956"
     inkscape:cy="159.62414"
     inkscape:window-x="-9"
     inkscape:window-y="-9"
     inkscape:window-maximized="1"
     inkscape:current-layer="g12"
     fit-margin-top="0"
     fit-margin-left="0"
     fit-margin-right="0"
     fit-margin-bottom="0"
     inkscape:document-rotation="0"><sodipodi:guide
       position="7.6460035,7.9236629"
       orientation="0,1"
       id="guide2545"
       inkscape:locked="false" /></sodipodi:namedview><g
     inkscape:groupmode="layer"
     id="layer1"
     inkscape:label="Layer 1"
     transform="matrix(1.3333333,0,0,-1.3333333,-132.674,423.25267)"><circle
       style="opacity:1;fill:#8890a7;fill-opacity:0.37216827;stroke:none;stroke-width:0.075;stroke-miterlimit:4;stroke-dasharray:none;stroke-opacity:1"
       id="path1189"
       cx="274.20197"
       cy="-175.5507"
       r="109.96735"
       transform="scale(1,-1)" /></g><g
     id="g10"
     inkscape:groupmode="layer"
     inkscape:label="ink_ext_XXXXXX"
     transform="matrix(1.3333333,0,0,-1.3333333,-132.674,423.25267)"
     style="display:inline"><g
       id="g12"
       transform="scale(0.1)"><path
         d="m 2471.41,2520.1 -14.42,15.18 c -3.88,4.09 -9.57,5.92 -15.1,4.86 l -21.57,-4.15 c -7.05,-1.35 -12.42,-7.1 -13.29,-14.22 l -11.05,-90.39 33.46,-12.83 c 40.73,17.72 38.62,71.53 38.62,71.53 l 5.86,10.71 c 3.44,6.3 2.43,14.1 -2.51,19.31"
         style="fill:#f8a461;fill-opacity:1;fill-rule:nonzero;stroke:none"
         id="path1510"
         inkscape:connector-curvature="0" /><path
         d="m 2067.74,2249.22 c 0,0 32.03,-1.94 50.82,-1.48 18.94,0.25 37.8,0.6 56.33,1.66 18.45,1.19 36.8,2.48 53.63,4.81 8.34,1.18 16.44,2.68 22.82,4.41 2.99,0.86 5.88,1.78 7.2,2.31 1.15,0.53 1.01,0.29 0.82,0.05 -0.18,-0.22 -0.41,-0.43 0.16,-0.11 3.13,2.66 9.2,9.89 14.51,16.59 5.48,6.96 10.99,14.46 16.45,22.09 10.98,15.3 21.87,31.19 32.73,47.19 l 65.32,96.92 51.05,-27.17 c -7.51,-18.67 -15.64,-36.66 -23.79,-54.87 -8.44,-18.01 -17.04,-35.98 -25.91,-53.93 -9.01,-17.89 -18.36,-35.67 -28.53,-53.48 -5.15,-8.89 -10.45,-17.81 -16.27,-26.9 -6.06,-9.29 -11.63,-17.98 -22.16,-29.45 -5.67,-6.31 -16.06,-13.96 -22.76,-17.26 -7.37,-4.03 -13.72,-6.54 -19.99,-8.91 -12.28,-4.43 -23.41,-7.24 -34.35,-9.69 -21.82,-4.85 -42.59,-7.74 -63.28,-9.72 -41.43,-4.12 -81.18,-5.66 -122.72,-4.72 l 7.92,101.66"
         style="fill:#4870c0;fill-opacity:1;fill-rule:nonzero;stroke:none"
         id="path1512"
         inkscape:connector-curvature="0" /><path
         d="m 2156.14,2149.95 c -0.01,0.01 -0.03,0.02 -0.04,0.04 8.76,0.64 17.56,1.41 26.44,2.29 13.04,1.25 26.11,2.86 39.46,5.09 -13.35,-2.25 -26.42,-3.86 -39.46,-5.12 -8.9,-0.9 -17.7,-1.6 -26.4,-2.3 v 0 m 106.98,16.33 c 5.49,1.52 11.13,3.27 17.05,5.41 3.31,1.25 6.64,2.54 10.13,4.07 -3.5,-1.54 -6.83,-2.84 -10.16,-4.11 -5.91,-2.12 -11.55,-3.86 -17.02,-5.37"
         style="fill:#fafafa;fill-opacity:1;fill-rule:nonzero;stroke:none"
         id="path1514"
         inkscape:connector-curvature="0" /><path
         d="m 2318.2,2193.22 c 1.76,1.57 3.37,3.14 4.72,4.64 2.73,2.97 5.12,5.76 7.28,8.42 -2.15,-2.67 -4.54,-5.46 -7.26,-8.43 -1.35,-1.5 -2.97,-3.07 -4.74,-4.63 m 35.61,48.18 c 1.01,1.68 2,3.36 2.99,5.04 -0.98,-1.68 -1.98,-3.36 -2.99,-5.04 m -238.28,6.29 c 1.04,0.01 2.04,0.03 3.01,0.05 19,0.31 37.8,0.61 56.4,1.7 3.8,0.23 7.6,0.47 11.38,0.72 -3.8,-0.26 -7.61,-0.51 -11.43,-0.76 -18.53,-1.06 -37.39,-1.41 -56.33,-1.66 -0.98,-0.02 -1.99,-0.04 -3.03,-0.05 m -29.6,0.62 c -10.02,0.42 -17.8,0.89 -18.18,0.91 -0.01,0.02 -0.01,0.02 -0.01,0.02 v 0 c 0,0 7.91,-0.49 18.19,-0.93 m 134.5,4.87 c 2.74,0.33 5.45,0.68 8.11,1.06 1.37,0.19 2.73,0.38 4.08,0.58 -1.35,-0.21 -2.73,-0.41 -4.1,-0.61 -2.66,-0.36 -5.36,-0.71 -8.09,-1.03 m 27.09,4.48 c 1.32,0.31 2.6,0.65 3.82,0.99 0.48,0.13 0.96,0.26 1.43,0.39 -0.47,-0.14 -0.95,-0.28 -1.43,-0.42 -1.22,-0.33 -2.49,-0.65 -3.82,-0.96 m 11.66,3.04 c -0.07,0 0.06,0.14 0.18,0.28 0.11,0.13 0.2,0.27 0.05,0.27 -0.11,0 -0.37,-0.09 -0.87,-0.32 -0.1,-0.04 -0.22,-0.08 -0.34,-0.13 0.12,0.05 0.24,0.1 0.34,0.15 0.5,0.22 0.76,0.31 0.88,0.31 0.16,0 0.07,-0.15 -0.04,-0.29 -0.08,-0.11 -0.18,-0.22 -0.2,-0.27 v 0 m 22.92,27.33 c 2.8,3.78 5.58,7.63 8.34,11.52 8.29,11.53 16.52,23.4 24.74,35.4 -8.2,-12 -16.42,-23.87 -24.7,-35.4 -2.78,-3.89 -5.58,-7.75 -8.38,-11.52 m 127.94,61.38 c 1.93,4.07 3.84,8.13 5.75,12.21 1.8,4.02 3.6,8.03 5.39,12.04 v -0.01 c -1.77,-4 -3.56,-7.99 -5.34,-12 -1.93,-4.08 -3.86,-8.16 -5.8,-12.24"
         style="fill:#ffffff;fill-opacity:1;fill-rule:nonzero;stroke:none"
         id="path1516"
         inkscape:connector-curvature="0" /><path
         d="m 2421.18,2373.65 v 0.01 c 0.5,1.12 1,2.24 1.5,3.37 -0.5,-1.13 -1,-2.25 -1.5,-3.38"
         style="fill:#fcfdfd;fill-opacity:1;fill-rule:nonzero;stroke:none"
         id="path1518"
         inkscape:connector-curvature="0" /><path
         d="m 2156.1,2149.99 c -20.6,22.48 -47.57,31.29 -65.95,34.74 -10.32,42.38 -21.93,63.65 -22.4,64.49 0.38,-0.02 8.16,-0.49 18.18,-0.91 8.08,-0.34 17.64,-0.64 25.93,-0.64 1.26,0 2.48,0 3.67,0.02 1.04,0.01 2.05,0.03 3.03,0.05 18.94,0.25 37.8,0.6 56.33,1.66 3.82,0.25 7.63,0.5 11.43,0.76 11.64,0.78 23.15,1.71 34.11,3.02 2.73,0.32 5.43,0.67 8.09,1.03 1.37,0.2 2.75,0.4 4.1,0.61 5.29,0.8 10.39,1.75 14.9,2.84 1.33,0.31 2.6,0.63 3.82,0.96 0.48,0.14 0.96,0.28 1.43,0.42 2.23,0.62 4.25,1.27 5.43,1.76 0.12,0.05 0.24,0.09 0.34,0.13 0.5,0.23 0.76,0.32 0.87,0.32 0.15,0 0.06,-0.14 -0.05,-0.27 -0.12,-0.14 -0.25,-0.28 -0.18,-0.28 v 0 c 0,-0.01 0,-0.02 0.02,-0.02 0.03,0 0.13,0.05 0.34,0.17 3.1,2.7 9.2,9.9 14.5,16.6 2.69,3.42 5.38,6.96 8.06,10.58 2.8,3.77 5.6,7.63 8.38,11.52 8.28,11.53 16.5,23.4 24.7,35.4 2.69,3.92 5.37,7.85 8.06,11.79 l 65.3,96.91 51,-27.2 c -5.39,-13.35 -11.08,-26.39 -16.86,-39.42 -0.5,-1.13 -1,-2.25 -1.5,-3.37 -1.79,-4.01 -3.59,-8.02 -5.39,-12.04 -1.91,-4.08 -3.82,-8.14 -5.75,-12.21 -6.62,-13.92 -13.32,-27.84 -20.2,-41.76 -9,-17.81 -18.3,-35.6 -28.5,-53.41 -1.49,-2.6 -3,-5.2 -4.54,-7.8 -0.99,-1.68 -1.98,-3.36 -2.99,-5.04 -2.8,-4.65 -5.7,-9.32 -8.77,-14.06 -4.45,-6.89 -8.68,-13.45 -14.84,-21.06 -2.16,-2.66 -4.55,-5.45 -7.28,-8.42 -1.35,-1.5 -2.96,-3.07 -4.72,-4.64 -5.69,-5.04 -12.95,-10.06 -18.06,-12.57 -3.49,-1.93 -6.73,-3.51 -9.84,-4.89 -3.49,-1.53 -6.82,-2.82 -10.13,-4.07 -5.92,-2.14 -11.56,-3.89 -17.05,-5.41 -5.91,-1.63 -11.62,-2.99 -17.28,-4.23 -8.07,-1.82 -16,-3.36 -23.84,-4.68 -13.35,-2.23 -26.42,-3.84 -39.46,-5.09 -8.88,-0.88 -17.68,-1.65 -26.44,-2.29"
         style="fill:#c7d9f2;fill-opacity:1;fill-rule:nonzero;stroke:none"
         id="path1520"
         inkscape:connector-curvature="0" /><path
         d="m 2130.39,2148.42 c 8.55,0.41 17.11,0.93 25.71,1.57 0.01,-0.02 0.03,-0.03 0.04,-0.04 -8.61,-0.62 -17.19,-1.13 -25.75,-1.53"
         style="fill:#e2e1df;fill-opacity:1;fill-rule:nonzero;stroke:none"
         id="path1522"
         inkscape:connector-curvature="0" /><path
         d="m 2097.71,2147.41 c -2.29,13.88 -4.88,26.31 -7.56,37.32 18.38,-3.45 45.35,-12.26 65.95,-34.74 -8.6,-0.64 -17.16,-1.16 -25.71,-1.57 -10.89,-0.51 -21.76,-0.84 -32.68,-1.01"
         style="fill:#b1c2e8;fill-opacity:1;fill-rule:nonzero;stroke:none"
         id="path1524"
         inkscape:connector-curvature="0" /><path
         d="m 1532.9,455.309 c 0,0 -90.53,62.281 -84.98,104.132 0.55,4.098 -1.85,7.739 -6.2,8.391 l -76.74,11.609 c -3.58,0.539 -7.41,-1.089 -9.53,-4.07 l -45.34,-63.531 20.37,-7.379 10.94,7.668 5.14,-13.481 c 110.55,-40 158.75,-56.097 183.12,-57.128 6.71,8.628 3.22,13.789 3.22,13.789"
         style="fill:#100f0d;fill-opacity:1;fill-rule:nonzero;stroke:none"
         id="path1526"
         inkscape:connector-curvature="0" /><path
         d="m 2042.74,1631.65 c 0,0 -4.6,-12 -12.7,-32.8 -8.7,-22.5 -21.5,-55.3 -36.9,-94.31 -10.3,-25.99 -21.7,-54.79 -34,-85.1 -56.5,-140.4 -129.5,-314.1 -177.8,-401.79 -92.5,-167.798 -333.5,-486.509 -333.5,-486.509 l -96.3,35.211 c 0,0 173.4,328.187 260.9,494.498 26.7,50.69 57.4,125.29 87.8,206.7 14.5,38.7 28.9,78.99 42.8,118.9 6.3,17.99 12.5,35.99 18.5,53.7 15.9,46.79 30.8,91.89 43.9,132.1 1.6,5 3.2,10 4.8,14.79 5.3,16.51 10.3,32.11 14.8,46.51 18.8,59.19 30.5,98.2 30.9,99.69 h 0.1 l 85.9,-46.79 100.8,-54.8"
         style="fill:#1d2a30;fill-opacity:1;fill-rule:nonzero;stroke:none"
         id="path1528"
         inkscape:connector-curvature="0" /><path
         d="m 1743.04,1386.45 c 6.3,17.99 12.5,35.99 18.5,53.7 11.15,32.81 21.81,64.8 31.7,94.84 44.25,-25.81 94.72,-31.13 112.99,-32.25 4.55,-0.25 7.1,-0.25 7.1,-0.25 l 74.69,-10.86 c -8.92,-22.5 -18.59,-46.81 -28.88,-72.19 v 0 c -78.6,-15.8 -158.6,-26.49 -216.1,-32.99"
         style="fill:#161c1e;fill-opacity:1;fill-rule:nonzero;stroke:none"
         id="path1530"
         inkscape:connector-curvature="0" /><path
         d="m 1734.99,2195.97 0.06,-0.22 c 13.86,-46.52 21.99,-100.58 26.53,-153.88 3.49,-41.47 4.83,-82.29 5,-118.91 0.14,-36.9 -0.97,-69.57 -2.17,-94.57 -1.61,-32.13 -3.51,-51.91 -3.51,-51.91 l 303.84,-15.62 c 91.16,330.39 3,488.36 3,488.36 0,0 -37.85,3.82 -81.47,1.87 -5.62,-0.17 -11.33,-0.61 -17.17,-1.05 -37.16,-3.11 -96.37,-14.85 -135.89,-23.78 -8.15,-1.8 -16.33,-3.91 -24.33,-6.07 -39.69,-10.83 -73.89,-24.22 -73.89,-24.22"
         style="fill:#4870c0;fill-opacity:1;fill-rule:nonzero;stroke:none"
         id="path1532"
         inkscape:connector-curvature="0" /><path
         d="m 2065.93,1765.2 v 0 c 4.37,16.06 8.32,31.72 11.88,46.96 v 0 c -3.55,-15.24 -7.5,-30.9 -11.88,-46.96 m 18.28,75.9 h -0.01 c 8.79,42.23 14.51,81.11 17.87,116.65 h 0.02 c -3.38,-35.55 -9.09,-74.41 -17.88,-116.65 m 20.17,145.59 h -0.02 c 0.42,6.67 0.76,13.19 1.02,19.59 h 0.01 c -0.26,-6.4 -0.59,-12.92 -1.01,-19.59 m 1.67,48.54 h -0.01 c 0.03,6.68 -0.02,13.21 -0.15,19.58 h 0.02 c 0.13,-6.37 0.18,-12.89 0.14,-19.58 m -1.31,48.53 h -0.01 c -1.45,23.82 -3.97,45.02 -7.04,63.64 0.01,0 0.02,0 0.02,0 3.07,-18.62 5.59,-39.82 7.03,-63.64"
         style="fill:#fafafa;fill-opacity:1;fill-rule:nonzero;stroke:none"
         id="path1534"
         inkscape:connector-curvature="0" /><path
         d="m 2105.91,2054.81 h -0.02 c -0.21,10.05 -0.6,19.69 -1.16,28.95 h 0.01 c 0.56,-9.26 0.96,-18.9 1.17,-28.95"
         style="fill:#fcfdfd;fill-opacity:1;fill-rule:nonzero;stroke:none"
         id="path1536"
         inkscape:connector-curvature="0" /><path
         d="m 2105.39,2006.28 h -0.01 c 0.4,9.96 0.61,19.61 0.66,28.95 h 0.01 c -0.04,-9.34 -0.26,-18.99 -0.66,-28.95"
         style="fill:#fcfdfd;fill-opacity:1;fill-rule:nonzero;stroke:none"
         id="path1538"
         inkscape:connector-curvature="0" /><path
         d="m 2102.09,1957.75 h -0.02 c 0.94,9.9 1.7,19.55 2.29,28.94 h 0.02 c -0.6,-9.39 -1.35,-19.04 -2.29,-28.94"
         style="fill:#fcfdfd;fill-opacity:1;fill-rule:nonzero;stroke:none"
         id="path1540"
         inkscape:connector-curvature="0" /><path
         d="m 2077.81,1812.16 v 0 c 2.3,9.83 4.42,19.46 6.39,28.94 h 0.01 c -1.97,-9.47 -4.1,-19.13 -6.4,-28.94"
         style="fill:#fcfdfd;fill-opacity:1;fill-rule:nonzero;stroke:none"
         id="path1542"
         inkscape:connector-curvature="0" /><path
         d="m 2067.74,2249.22 c -0.19,0.02 -13.61,1.37 -33.6,2.04 20.12,-0.66 33.6,-2.02 33.6,-2.02 v -0.02"
         style="fill:#ffffff;fill-opacity:1;fill-rule:nonzero;stroke:none"
         id="path1544"
         inkscape:connector-curvature="0" /><path
         d="m 2097.69,2147.4 c 0,0.01 0,0 0,0.01 0,0 0.01,0 0.02,0 v -0.01 c 0,0 -0.01,0 -0.02,0"
         style="fill:#c7d9f2;fill-opacity:1;fill-rule:nonzero;stroke:none"
         id="path1546"
         inkscape:connector-curvature="0" /><path
         d="m 2067.75,2249.22 c -0.01,0 -0.01,0 -0.01,0 v 0 0 0.02 0 c 0,0 0,0 0.01,-0.02"
         style="fill:#ffffff;fill-opacity:1;fill-rule:nonzero;stroke:none"
         id="path1548"
         inkscape:connector-curvature="0" /><path
         d="m 2090.15,2184.73 c -0.01,0 -0.02,0 -0.02,0 -10.53,43.23 -22.39,64.49 -22.39,64.49 v 0 c 0,0 0,0 0.01,0 0.47,-0.84 12.08,-22.11 22.4,-64.49"
         style="fill:#f0f6fc;fill-opacity:1;fill-rule:nonzero;stroke:none"
         id="path1550"
         inkscape:connector-curvature="0" /><path
         d="m 2097.69,2147.41 c -2.29,13.88 -4.88,26.31 -7.56,37.32 0,0 0.01,0 0.02,0 2.68,-11.01 5.27,-23.44 7.56,-37.32 -0.01,0 -0.02,0 -0.02,0"
         style="fill:#e9effa;fill-opacity:1;fill-rule:nonzero;stroke:none"
         id="path1552"
         inkscape:connector-curvature="0" /><path
         d="m 1764.61,1832.67 c 0.35,8.33 0.69,17.58 1.03,27.48 0.44,13.73 0.77,28.81 0.92,44.93 -0.19,-27.6 -1.02,-52.27 -1.95,-72.41 m 1.84,104.8 c -0.1,6.51 -0.24,13.15 -0.41,19.87 0,1.71 -0.08,3.41 -0.1,5.12 0.24,-8.49 0.41,-16.82 0.51,-24.99 m -31.45,258.44 -0.06,0.04 c 0,0 0.01,0.01 0.05,0.02 l 0.01,-0.06 m 40.93,14.44 c 10.04,3.24 21.29,6.68 33.01,9.9 7.41,1.97 15.09,3.94 22.71,5.66 v 0 c -7.63,-1.72 -15.28,-3.7 -22.77,-5.72 -11.71,-3.2 -22.93,-6.61 -32.95,-9.84 m 192.7,39.65 -0.02,0.01 c 0.14,0.01 0.29,0.02 0.43,0.03 0.66,0.05 1.32,0.1 1.97,0.14 -0.63,-0.05 -1.27,-0.1 -1.91,-0.14 -0.16,-0.02 -0.31,-0.03 -0.47,-0.04"
         style="fill:#ffffff;fill-opacity:1;fill-rule:nonzero;stroke:none"
         id="path1554"
         inkscape:connector-curvature="0" /><path
         d="m 2065.93,1765.2 -301.69,59.4 c 0.07,1.26 0.13,2.54 0.2,3.85 0.06,1.38 0.12,2.78 0.17,4.22 0.93,20.14 1.76,44.81 1.95,72.41 0.05,5.82 0.08,11.79 0.08,17.87 -0.05,4.77 -0.11,9.61 -0.19,14.52 -0.1,8.17 -0.27,16.5 -0.51,24.99 0,0.19 0,0.39 0,0.59 -0.5,18.69 -1.4,38.1 -2.7,57.8 0.24,0.82 0.48,1.65 0.72,2.48 52.23,21.22 137.52,66.35 180.09,146.39 l 24.26,27.02 27.05,-11.7 -10.88,55.83 -15.85,9.13 c 0.16,0.01 0.31,0.02 0.47,0.04 0.64,0.04 1.28,0.09 1.91,0.14 5.2,0.37 10.27,0.78 15.33,0.87 9.06,0.41 17.88,0.58 26.17,0.58 7.76,0 15.05,-0.15 21.63,-0.37 19.99,-0.67 33.41,-2.02 33.6,-2.04 v 0 0 c 0,0 11.86,-21.26 22.39,-64.49 2.68,-11.01 5.27,-23.44 7.56,-37.32 v 0 c 0,-0.01 0,0 0,-0.01 3.07,-18.62 5.59,-39.82 7.04,-63.64 0.56,-9.26 0.95,-18.9 1.16,-28.95 0.13,-6.37 0.18,-12.9 0.15,-19.58 -0.05,-9.34 -0.26,-18.99 -0.66,-28.95 -0.26,-6.4 -0.6,-12.92 -1.02,-19.59 -0.59,-9.39 -1.35,-19.04 -2.29,-28.94 -3.36,-35.54 -9.08,-74.42 -17.87,-116.65 -1.97,-9.48 -4.09,-19.11 -6.39,-28.94 -3.56,-15.24 -7.51,-30.9 -11.88,-46.96 m -294.73,303.17 c 1.69,30.35 -2.76,53.28 -2.76,53.28 -0.14,-0.08 -0.27,-0.15 -0.4,-0.23 0.25,3.19 0.4,6.6 0.4,10.25 0,4.82 -0.25,10.06 -0.83,15.73 -4.03,39.84 -29.59,49.48 -29.59,49.48 -0.89,-0.59 -1.78,-1.18 -2.66,-1.78 -0.08,0.25 -0.15,0.5 -0.22,0.75 l -0.14,0.06 -0.01,0.06 c 1.02,0.4 17.73,6.88 40.94,14.38 10.02,3.23 21.24,6.64 32.95,9.84 7.49,2.02 15.14,4 22.77,5.72 l 63.2,-60.24 21.03,18.75 8.24,-12.94 c 0,0 -52.2,-63.27 -152.92,-103.11"
         style="fill:#c7d9f2;fill-opacity:1;fill-rule:nonzero;stroke:none"
         id="path1556"
         inkscape:connector-curvature="0" /><path
         d="m 2252.65,970.211 c 0,0 -86.8,67.379 -78.86,108.819 0.79,4.08 -1.4,7.85 -5.71,8.74 l -75.94,16.01 c -3.55,0.74 -7.46,-0.66 -9.75,-3.52 l -48.92,-60.82 19.91,-8.52 11.36,7.02 4.36,-13.76 c 108.07,-46.282 155.26,-65.129 179.54,-67.551 7.18,8.223 4.01,13.582 4.01,13.582"
         style="fill:#100f0d;fill-opacity:1;fill-rule:nonzero;stroke:none"
         id="path1558"
         inkscape:connector-curvature="0" /><path
         d="m 1906.23,1502.74 c 4.55,-0.25 7.1,-0.25 7.1,-0.25 l 364.23,-52.95 -207.34,-343.97 103.82,-39.52 c 0,0 375.43,404.79 291.56,497.09 -68.98,75.91 -406.97,122.09 -406.97,122.09 l 11.08,79.22 -312.63,61.56 c -133.64,-292.55 104.4,-320.53 149.15,-323.27"
         style="fill:#1d2a30;fill-opacity:1;fill-rule:nonzero;stroke:none"
         id="path1560"
         inkscape:connector-curvature="0" /><path
         d="m 1753.38,1794.9 -6.63,1.29 6.07,21.07 5.89,-1.15 -5.33,-21.21"
         style="fill:#1d2a30;fill-opacity:1;fill-rule:nonzero;stroke:none"
         id="path1562"
         inkscape:connector-curvature="0" /><path
         d="m 1999.3,1747.31 -133.47,25.84 5.21,21.18 132.92,-25.77 -4.66,-21.25"
         style="fill:#1d2a30;fill-opacity:1;fill-rule:nonzero;stroke:none"
         id="path1564"
         inkscape:connector-curvature="0" /><path
         d="m 2014.25,1766.55 56.43,-10.93 -3.76,-21.39 -57.13,11.05 4.46,21.27"
         style="fill:#1d2a30;fill-opacity:1;fill-rule:nonzero;stroke:none"
         id="path1566"
         inkscape:connector-curvature="0" /><path
         d="m 1769.01,1814.12 91.77,-17.8 -5.42,-21.15 -91.47,17.7 5.12,21.25"
         style="fill:#1d2a30;fill-opacity:1;fill-rule:nonzero;stroke:none"
         id="path1568"
         inkscape:connector-curvature="0" /><path
         d="m 1753.38,1794.9 -6.63,1.29 6.07,21.07 5.89,-1.15 -5.33,-21.21"
         style="fill:#45555c;fill-opacity:1;fill-rule:nonzero;stroke:none"
         id="path1570"
         inkscape:connector-curvature="0" /><path
         d="m 1999.3,1747.31 -133.47,25.84 5.21,21.18 132.92,-25.77 -4.66,-21.25"
         style="fill:#45555c;fill-opacity:1;fill-rule:nonzero;stroke:none"
         id="path1572"
         inkscape:connector-curvature="0" /><path
         d="m 2066.92,1734.23 -1.4,0.27 -55.73,10.78 4.46,21.27 56.43,-10.93 -3.76,-21.39"
         style="fill:#45555c;fill-opacity:1;fill-rule:nonzero;stroke:none"
         id="path1574"
         inkscape:connector-curvature="0" /><path
         d="m 1855.36,1775.17 -91.47,17.7 5.12,21.25 91.77,-17.8 -5.42,-21.15"
         style="fill:#45555c;fill-opacity:1;fill-rule:nonzero;stroke:none"
         id="path1576"
         inkscape:connector-curvature="0" /><path
         d="m 1962.26,1772.45 -2.87,0.67 -3.01,-12.9 -1,-0.79 -0.18,0.02 -33.41,5.93 v 0 l -0.84,1 0.03,0.25 3.36,13.39 v 0 l 0.97,0.76 0.2,-0.02 v 0 l 33.08,-6.4 v 0 l 0.82,-1.01 -0.02,-0.23 v 0 l 2.87,-0.67 2.87,-0.66 0.17,1.56 c 0,3.25 -2.27,6.13 -5.59,6.79 l -33.08,6.4 h 0.01 l -1.33,0.13 c -3.1,0 -5.9,-2.1 -6.69,-5.23 v 0.01 l -3.35,-13.39 v 0 l -0.21,-1.68 c 0,-3.28 2.34,-6.2 5.71,-6.8 h -0.01 l 33.42,-5.94 h 0.01 l 1.19,-0.1 c 3.17,0 5.99,2.16 6.74,5.34 l 3.02,12.98 -0.01,-0.07 -2.87,0.66"
         style="fill:#ffffff;fill-opacity:1;fill-rule:nonzero;stroke:none"
         id="path1578"
         inkscape:connector-curvature="0" /><path
         d="m 1935.08,1774.3 -10.2,1.79 c -1.61,0.29 -3.13,-0.78 -3.42,-2.38 -0.28,-1.61 0.79,-3.13 2.39,-3.42 l 10.21,-1.79 c 1.6,-0.29 3.13,0.78 3.41,2.39 0.28,1.6 -0.79,3.13 -2.39,3.41"
         style="fill:#ffffff;fill-opacity:1;fill-rule:nonzero;stroke:none"
         id="path1580"
         inkscape:connector-curvature="0" /><path
         d="m 1864.69,2364.12 79.35,-65.78 c -7.76,-32.2 5.72,-61.89 21.36,-67.39 0,0 11.59,-27.6 -10.73,-32.26 -45.23,-9.42 -96.83,34.39 -96.83,34.39 23.93,25.71 15.28,89.93 6.85,131.04"
         style="fill:#f9a95e;fill-opacity:1;fill-rule:nonzero;stroke:none"
         id="path1582"
         inkscape:connector-curvature="0" /><path
         d="m 1944.01,2298.37 -8.29,6.87 8.29,-6.87 v 0"
         style="fill:#cecdcc;fill-opacity:1;fill-rule:nonzero;stroke:none"
         id="path1584"
         inkscape:connector-curvature="0" /><path
         d="m 1940.23,2275.55 c -17.62,2.22 -41.94,21.07 -43.96,39.44 -1.01,9.16 -0.69,17.99 0.77,22.29 l 38.68,-32.04 8.29,-6.87 c -1.87,-7.62 -3.3,-15.34 -3.78,-22.82"
         style="fill:#ca8849;fill-opacity:1;fill-rule:nonzero;stroke:none"
         id="path1586"
         inkscape:connector-curvature="0" /><path
         d="m 1934.75,2494.09 c 19.2,-11.97 45.23,-48.06 12.95,-56.74 -32.28,-8.67 -45.96,77.32 -12.95,56.74"
         style="fill:#1d2a30;fill-opacity:1;fill-rule:nonzero;stroke:none"
         id="path1588"
         inkscape:connector-curvature="0" /><path
         d="m 1835.63,2370.75 c 33.57,-44.28 50.99,-71.93 89.99,-79.86 58.66,-11.92 101.31,47.82 81.58,101.4 -17.76,48.22 -69.68,112.54 -126.91,100.33 -56.39,-12.03 -78.24,-77.58 -44.66,-121.87"
         style="fill:#f8a461;fill-opacity:1;fill-rule:nonzero;stroke:none"
         id="path1590"
         inkscape:connector-curvature="0" /><path
         d="m 1845.54,2418.97 -40.33,47.06 c 0,0 -53.28,-39.2 -29.09,-62.93 -15.95,-37.53 47.42,-89.91 102.83,-79.14 6.42,33.84 -42.93,91.66 -42.93,91.66 3.04,0.91 6.25,2.07 9.52,3.35"
         style="fill:#1d2a30;fill-opacity:1;fill-rule:nonzero;stroke:none"
         id="path1592"
         inkscape:connector-curvature="0" /><path
         d="m 1843.43,2320.4 c 11.6,-9.43 26.47,-12.55 38.66,-11 18.33,2.32 20.46,20.59 9.47,34.27 -9.89,12.31 -31.35,25.94 -46.92,16.71 -15.33,-9.09 -14.48,-29.2 -1.21,-39.98"
         style="fill:#f8a461;fill-opacity:1;fill-rule:nonzero;stroke:none"
         id="path1594"
         inkscape:connector-curvature="0" /><path
         d="m 1913.95,2405.25 c 2.5,-3.76 6.51,-5.46 8.96,-3.8 2.44,1.67 2.4,6.06 -0.11,9.83 -2.5,3.76 -6.52,5.46 -8.96,3.79 -2.45,-1.66 -2.4,-6.06 0.11,-9.82"
         style="fill:#1d2a30;fill-opacity:1;fill-rule:nonzero;stroke:none"
         id="path1596"
         inkscape:connector-curvature="0" /><path
         d="m 1956.25,2434.02 c 2.5,-3.77 6.51,-5.46 8.96,-3.8 2.45,1.66 2.4,6.06 -0.1,9.82 -2.51,3.76 -6.52,5.46 -8.97,3.8 -2.44,-1.66 -2.39,-6.06 0.11,-9.82"
         style="fill:#1d2a30;fill-opacity:1;fill-rule:nonzero;stroke:none"
         id="path1598"
         inkscape:connector-curvature="0" /><path
         d="m 1944.04,2423 c 0,0 22.63,-14.96 38.84,-18.68 -2.62,-10.32 -15.78,-15.12 -15.78,-15.12 l -23.06,33.8"
         style="fill:#f5782f;fill-opacity:1;fill-rule:nonzero;stroke:none"
         id="path1600"
         inkscape:connector-curvature="0" /><path
         d="m 1932.29,2363.7 c -1.65,-0.89 -3.32,-1.93 -4.99,-3.15 l -0.3,-1.86 1.84,-0.3 c 16.08,11.69 31.6,5.89 31.76,5.83 l 1.7,0.77 -0.75,1.72 c -0.62,0.24 -14.01,5.25 -29.26,-3.01"
         style="fill:#1d2a30;fill-opacity:1;fill-rule:nonzero;stroke:none"
         id="path1602"
         inkscape:connector-curvature="0" /><path
         d="m 1885,2417.6 c 0.92,-0.04 1.85,0.4 2.39,1.24 6.43,10.01 16.21,10.26 16.31,10.26 1.47,0.02 2.66,1.23 2.65,2.69 -0.01,1.47 -1.21,2.64 -2.67,2.62 -0.52,0 -12.78,-0.31 -20.75,-12.73 -0.8,-1.24 -0.44,-2.89 0.79,-3.67 l 1.28,-0.41"
         style="fill:#1d2a30;fill-opacity:1;fill-rule:nonzero;stroke:none"
         id="path1604"
         inkscape:connector-curvature="0" /><path
         d="m 1956.74,2468.16 0.02,1.53 c -0.4,1.42 -1.86,2.26 -3.27,1.87 -14.12,-3.91 -17.78,-15.57 -18.01,-16.07 -0.43,-1.4 0.35,-2.9 1.75,-3.35 1.39,-0.44 2.87,0.33 3.31,1.71 0.13,0.49 3.06,9.44 14.4,12.57 l 1.8,1.74"
         style="fill:#1d2a30;fill-opacity:1;fill-rule:nonzero;stroke:none"
         id="path1606"
         inkscape:connector-curvature="0" /><path
         d="m 1836.02,2415.62 c 0,0 105.58,44.36 112.05,95 6.46,50.64 -38.14,29.89 -38.14,29.89 0,0 20.65,1.41 18.63,-13.63 0,0 -35.66,24.33 -69.63,3.42 0,0 15.87,0.31 24.23,-11.47 0,0 -32.27,-6.3 -68.48,-33.14 -36.2,-26.84 -101.23,-122.94 21.34,-70.07"
         style="fill:#1d2a30;fill-opacity:1;fill-rule:nonzero;stroke:none"
         id="path1608"
         inkscape:connector-curvature="0" /><path
         d="m 2058.63,1685.23 -172.09,19.76 c 0,0 49.24,8.08 130.16,8.08 14.29,0 29.54,-0.25 45.7,-0.84 l -3.77,-27 v 0"
         style="fill:#161c1e;fill-opacity:1;fill-rule:nonzero;stroke:none"
         id="path1610"
         inkscape:connector-curvature="0" /><path
         d="m 1763.24,2020.85 v 0 c -0.06,0.7 -0.12,1.41 -0.18,2.12 0.3,0.12 0.6,0.24 0.9,0.36 -0.24,-0.83 -0.48,-1.66 -0.72,-2.48"
         style="fill:#b1c2e8;fill-opacity:1;fill-rule:nonzero;stroke:none"
         id="path1612"
         inkscape:connector-curvature="0" /><path
         d="m 1759.54,2063.95 c -0.79,7.2 -1.61,14.39 -2.51,21.55 h 0.01 c 0,0 8.99,10.71 11,35.92 0.13,0.08 0.26,0.15 0.4,0.23 0,0 4.45,-22.93 2.76,-53.28 -3.81,-1.5 -7.71,-2.98 -11.66,-4.42"
         style="fill:#b1c2e8;fill-opacity:1;fill-rule:nonzero;stroke:none"
         id="path1614"
         inkscape:connector-curvature="0" /><path
         d="m 1476.45,1775.17 -29.9,-70.18 64.75,-16 c 0,0 27.8,46.11 0.66,81.27 l -35.51,4.91"
         style="fill:#f9a95e;fill-opacity:1;fill-rule:nonzero;stroke:none"
         id="path1616"
         inkscape:connector-curvature="0" /><path
         d="m 1451.21,1650.89 51.12,-0.38 8.97,38.48 -64.75,16 4.66,-54.1"
         style="fill:#f9a95e;fill-opacity:1;fill-rule:nonzero;stroke:none"
         id="path1618"
         inkscape:connector-curvature="0" /><path
         d="m 1767.61,2147.4 c 4.45,-44.01 -10.57,-61.9 -10.57,-61.9 0,0 -42.63,-26.78 -61.12,-40.49 -15.72,-11.85 -31.13,-23.88 -45.73,-35.93 -7.23,-6.06 -14.2,-12.19 -20.58,-18.26 -6.32,-6 -12.24,-12.26 -15.98,-17.09 -1.67,-1.93 -3.35,-5.07 -5.14,-7.87 -1.82,-2.94 -3.72,-7.33 -5.69,-10.9 -3.91,-8.06 -7.8,-16.6 -11.48,-25.56 -7.38,-17.87 -14.38,-36.5 -21.03,-55.4 -13.85,-37.59 -26.75,-76.35 -40.02,-114.46 l -59.06,14.04 c 6,41.49 14.11,81.92 23.48,122.89 4.94,20.37 10.41,40.77 16.68,61.51 3.12,10.35 6.68,20.9 10.68,31.72 2.39,5.69 4.3,10.83 7.3,16.92 3.15,6.16 6.05,12.2 10.4,18.6 8,11.96 15.84,20.97 23.75,29.67 7.9,8.61 15.84,16.53 23.82,24.19 15.9,15.27 32.22,29.17 48.75,42.56 33.11,26.92 66.34,51.5 101.95,75.24 0,0 25.56,-9.64 29.59,-49.48"
         style="fill:#4870c0;fill-opacity:1;fill-rule:nonzero;stroke:none"
         id="path1620"
         inkscape:connector-curvature="0" /><path
         d="m 1530.27,1759.54 -13.38,3.18 -41.53,9.87 -4.15,0.99 c 6,41.49 14.11,81.92 23.48,122.89 4.94,20.37 10.41,40.77 16.68,61.51 3.12,10.35 6.68,20.9 10.68,31.72 2.39,5.69 4.3,10.83 7.3,16.92 3.15,6.16 6.05,12.2 10.4,18.6 8,11.96 15.84,20.97 23.75,29.67 7.9,8.61 15.84,16.53 23.82,24.19 15.9,15.27 32.22,29.17 48.75,42.56 33.11,26.92 66.34,51.5 101.95,75.24 0,0 25.56,-9.64 29.59,-49.48 0.58,-5.67 0.83,-10.91 0.83,-15.73 0,-3.65 -0.15,-7.06 -0.4,-10.25 -2.01,-25.21 -11,-35.92 -11,-35.92 h -0.01 v 0 c -0.01,0 -0.01,0 -0.01,-0.01 -0.98,-0.61 -42.82,-26.93 -61.1,-40.48 -15.72,-11.85 -31.13,-23.88 -45.73,-35.93 -7.23,-6.06 -14.2,-12.19 -20.58,-18.26 -6.32,-6 -12.24,-12.26 -15.98,-17.09 -1.67,-1.93 -3.35,-5.07 -5.14,-7.87 -1.82,-2.94 -3.72,-7.33 -5.69,-10.9 -3.91,-8.06 -7.8,-16.6 -11.48,-25.56 -7.38,-17.87 -14.38,-36.5 -21.03,-55.4 -13.85,-37.59 -26.75,-76.35 -40.02,-114.46"
         style="fill:#c7d9f2;fill-opacity:1;fill-rule:nonzero;stroke:none"
         id="path1622"
         inkscape:connector-curvature="0" /><path
         d="m 1901.88,2206.41 22.24,-34.93 c 0,0 -77.53,-93.96 -225.9,-124.97 l -9.91,-30.19 31.56,-8.26 c 0,0 160.24,41.46 224.18,161.66 l 33.04,36.79 -38.94,13.07 -36.27,-13.17"
         style="fill:#4870c0;fill-opacity:1;fill-rule:nonzero;stroke:none"
         id="path1624"
         inkscape:connector-curvature="0" /><path
         d="m 1830.03,2227.45 36.13,31.6 71.99,-39.47 8.32,43.17 38.01,-21.88 10.88,-55.83 -53.04,22.95 -47.47,-42.32 -64.82,61.78"
         style="fill:#4870c0;fill-opacity:1;fill-rule:nonzero;stroke:none"
         id="path1626"
         inkscape:connector-curvature="0" /><path
         d="m 1894.85,2165.67 -64.82,61.78 36.13,31.6 71.99,-39.47 8.32,43.17 38.01,-21.88 10.88,-55.83 -27.05,11.7 -25.99,11.25 -26.44,-23.57 -21.03,-18.75"
         style="fill:#b4caec;fill-opacity:1;fill-rule:nonzero;stroke:none"
         id="path1628"
         inkscape:connector-curvature="0" /><path
         d="m 2821.88,2852.89 c 0,0 -67.24,-83.4 -135.48,-76.47 -68.24,6.92 -103.11,-20.78 -103.11,-20.78 l -6.67,-33.29 36.59,4.94 c 0,0 0,26.38 71.21,23.41 71.21,-2.97 124.62,58.26 145.39,86 l -7.93,16.19"
         style="fill:#4870c0;fill-opacity:1;fill-rule:nonzero;stroke:none"
         id="path1630"
         inkscape:connector-curvature="0" /><path
         d="m 3304.93,2991.54 -1.42,6.57 c -0.72,2.59 -0.33,2.93 -2.79,9.41 -3.91,10.14 -10.49,18.5 -16.3,23.72 -12.04,10.77 -21.95,14.56 -30.58,17.97 -17.11,6.06 -30.74,7.97 -44.24,9.63 -13.35,1.51 -26.01,2.17 -38.48,2.5 -24.89,0.72 -48.88,-0.52 -72.67,-2.01 -47.69,-3.15 -93.56,-8.78 -140.72,-16.93 l 17.16,-98.51 c 43.12,6.87 88.08,13.16 131.59,17.67 21.83,2.22 43.57,3.58 64.45,4.24 10.4,0.27 20.64,0.23 30.07,-0.34 6.63,-0.4 13.19,-1.15 18.11,-2 0.31,-3.39 0.44,-7.1 0.32,-11.03 -0.63,-17 -4.89,-36.91 -10.7,-56.73 -11.75,-39.82 -30.16,-81.2 -49.22,-119.85 l 47.46,-31.65 c 30.31,38.34 55.27,78.18 75.92,123.99 9.87,23.1 18.6,47.48 22.56,76.09 1.91,14.33 2.59,29.95 -0.52,47.26"
         style="fill:#4870c0;fill-opacity:1;fill-rule:nonzero;stroke:none"
         id="path1632"
         inkscape:connector-curvature="0" /><path
         d="m 3287.94,2880.35 c -0.01,0.01 -0.02,0.01 -0.02,0.02 7.29,18.4 13.51,37.89 16.94,59.86 -3.38,-21.96 -9.66,-41.5 -16.92,-59.88 v 0 m -76.63,24.61 v 0 c 2.83,10.62 5.13,21.16 6.53,31.09 0.29,1.85 0.54,3.69 0.75,5.5 -0.2,-1.82 -0.44,-3.67 -0.71,-5.53 -0.01,0.01 -0.03,0.02 -0.04,0.03 -1.4,-9.93 -3.7,-20.47 -6.53,-31.09 m 7.8,58.49 c -0.4,0.08 -0.81,0.15 -1.23,0.22 0.42,-0.07 0.83,-0.14 1.23,-0.21 0,0 0,0 0,-0.01 m -10.8,1.43 c -2.37,0.23 -4.82,0.42 -7.27,0.57 -5.28,0.33 -10.77,0.48 -16.39,0.51 5.63,-0.03 11.11,-0.19 16.35,-0.5 2.47,-0.15 4.94,-0.35 7.31,-0.58 m 97.98,17.2 c -0.34,3.1 -0.78,6.25 -1.36,9.46 l -1.42,6.57 c -0.72,2.59 -0.33,2.93 -2.79,9.41 -3.91,10.14 -10.49,18.5 -16.3,23.72 -12.04,10.77 -21.95,14.56 -30.58,17.97 -5.48,1.94 -10.59,3.45 -15.47,4.67 4.87,-1.21 9.99,-2.71 15.47,-4.63 8.6,-3.41 18.5,-7.2 30.6,-18 5.8,-5.2 12.4,-13.6 16.3,-23.71 2.4,-6.49 2.1,-6.79 2.8,-9.4 l 1.4,-6.59 c 0.57,-3.21 1.02,-6.37 1.35,-9.47 m -334.27,62.72 c -0.02,0 -0.04,0.01 -0.06,0.02 11.65,1.88 23.23,3.61 34.79,5.2 -11.55,-1.59 -23.11,-3.33 -34.73,-5.22 m 245.45,13.02 c -2.64,0.36 -5.26,0.69 -7.87,1.02 -13.35,1.51 -26.01,2.17 -38.48,2.5 -4.99,0.14 -9.95,0.21 -14.87,0.21 -19.64,0 -38.78,-1.03 -57.8,-2.22 -6.54,-0.43 -13.04,-0.91 -19.51,-1.43 6.47,0.53 12.96,1.01 19.5,1.45 19.02,1.19 38.17,2.2 57.8,2.2 4.93,0 9.89,-0.06 14.9,-0.2 12.5,-0.3 25.1,-1 38.5,-2.5 2.6,-0.33 5.2,-0.67 7.83,-1.03"
         style="fill:#ffffff;fill-opacity:1;fill-rule:nonzero;stroke:none"
         id="path1634"
         inkscape:connector-curvature="0" /><path
         d="m 3287.92,2880.37 c -23.39,21.77 -46.96,40.16 -70.04,55.65 0.27,1.86 0.51,3.71 0.71,5.53 0.44,3.75 0.71,7.39 0.85,10.9 0.1,3.9 0,7.6 -0.3,11 -0.01,0 -0.02,0 -0.03,0 0,0.01 0,0.01 0,0.01 -0.4,0.07 -0.81,0.14 -1.23,0.21 -2.82,0.47 -6.1,0.88 -9.57,1.21 -2.37,0.23 -4.84,0.43 -7.31,0.58 -5.24,0.31 -10.72,0.47 -16.35,0.5 -0.8,0 -1.6,0 -2.4,0 -3.73,0 -7.51,-0.04 -11.31,-0.12 l -2.3,-0.09 v 0 c -47.51,25.49 -89.66,39.25 -118.56,46.54 -36.66,17.82 -65.57,28.29 -78.06,32.51 11.62,1.89 23.18,3.63 34.73,5.22 23.98,3.27 47.89,5.89 72.19,7.88 6.47,0.52 12.97,1 19.51,1.43 19.02,1.19 38.16,2.22 57.8,2.22 4.92,0 9.88,-0.07 14.87,-0.21 12.47,-0.33 25.13,-0.99 38.48,-2.5 2.61,-0.33 5.23,-0.66 7.87,-1.02 6.66,-0.94 13.49,-2.11 20.9,-3.94 4.88,-1.22 9.99,-2.73 15.47,-4.67 8.63,-3.41 18.54,-7.2 30.58,-17.97 5.81,-5.22 12.39,-13.58 16.3,-23.72 2.46,-6.48 2.07,-6.82 2.79,-9.41 l 1.42,-6.57 c 0.58,-3.21 1.02,-6.36 1.36,-9.46 1.45,-13.59 0.7,-26.11 -0.85,-37.84 -0.18,-1.35 -0.38,-2.69 -0.58,-4.01 -3.43,-21.97 -9.65,-41.46 -16.94,-59.86"
         style="fill:#c7d9f2;fill-opacity:1;fill-rule:nonzero;stroke:none"
         id="path1636"
         inkscape:connector-curvature="0" /><path
         d="m 3135.07,2963.98 c -0.01,0 -0.02,0.01 -0.03,0.02 5.16,0.35 10.29,0.66 15.39,0.94 -5.09,-0.28 -10.21,-0.6 -15.36,-0.96"
         style="fill:#e8e8e6;fill-opacity:1;fill-rule:nonzero;stroke:none"
         id="path1638"
         inkscape:connector-curvature="0" /><path
         d="m 3135.04,2964 c -30.12,19.9 -59.41,35.88 -84.96,48.29 28.9,-7.29 71.05,-21.05 118.56,-46.54 -6.01,-0.21 -12.09,-0.48 -18.21,-0.81 -5.1,-0.28 -10.23,-0.59 -15.39,-0.94"
         style="fill:#b1c2e8;fill-opacity:1;fill-rule:nonzero;stroke:none"
         id="path1640"
         inkscape:connector-curvature="0" /><path
         d="m 3270.16,2841.66 c -0.01,0.02 -0.02,0.02 -0.03,0.03 4.43,8.63 8.68,17.45 12.76,26.5 1.72,4.02 3.4,8.07 5.03,12.18 0,-0.01 0.01,-0.01 0.02,-0.02 -1.6,-4.1 -3.3,-8.21 -5,-12.21 -4.09,-9.04 -8.35,-17.86 -12.78,-26.48 m -58.84,63.29 -0.01,0.01 c 2.83,10.62 5.13,21.16 6.53,31.09 0.01,-0.01 0.03,-0.02 0.04,-0.03 -1.43,-9.94 -3.72,-20.45 -6.56,-31.07"
         style="fill:#e8e8e6;fill-opacity:1;fill-rule:nonzero;stroke:none"
         id="path1642"
         inkscape:connector-curvature="0" /><path
         d="m 3270.13,2841.69 c -18.04,23.24 -37.92,44.22 -58.64,63.11 -0.06,0.05 -0.11,0.1 -0.17,0.15 2.84,10.62 5.13,21.13 6.56,31.07 23.08,-15.49 46.65,-33.88 70.04,-55.65 -1.63,-4.11 -3.31,-8.16 -5.03,-12.18 -4.08,-9.05 -8.33,-17.87 -12.76,-26.5"
         style="fill:#b1c2e8;fill-opacity:1;fill-rule:nonzero;stroke:none"
         id="path1644"
         inkscape:connector-curvature="0" /><path
         d="m 2648.83,2971.72 c 2.73,-3.45 3.11,-7.7 0.85,-9.49 -2.26,-1.78 -6.31,-0.43 -9.04,3.03 -2.72,3.46 -3.11,7.71 -0.85,9.5 2.26,1.78 6.31,0.43 9.04,-3.04"
         style="fill:#1d2a30;fill-opacity:1;fill-rule:nonzero;stroke:none"
         id="path1646"
         inkscape:connector-curvature="0" /><path
         d="m 2652.26,2964.27 c 0,0 7.9,-26.15 6.84,-42.62 10.63,-0.87 18.97,9.95 18.97,9.95 l -25.81,32.67"
         style="fill:#f03e4c;fill-opacity:1;fill-rule:nonzero;stroke:none"
         id="path1648"
         inkscape:connector-curvature="0" /><path
         d="m 2646.32,3000.93 0.61,1.78 c -0.06,1.43 -1.27,2.54 -2.7,2.47 -14.3,-0.63 -20.48,-10.84 -20.75,-11.29 -0.73,-1.23 -0.32,-2.82 0.91,-3.54 1.24,-0.72 2.83,-0.3 3.54,0.91 0.2,0.33 5.12,8.24 16.53,8.75 l 1.86,0.92"
         style="fill:#1d2a30;fill-opacity:1;fill-rule:nonzero;stroke:none"
         id="path1650"
         inkscape:connector-curvature="0" /><path
         d="m 2748.42,3025.22 c 33.04,-23.81 96.31,-61.49 132.21,-47.21 0,0 32.28,-26.86 1.27,-94.33 -34.1,-74.19 -53.13,-18.53 -53.13,-18.53 8.94,44.93 -21.58,57.7 -53.04,63.61 l -27.31,96.46"
         style="fill:#f47272;fill-opacity:1;fill-rule:nonzero;stroke:none"
         id="path1652"
         inkscape:connector-curvature="0" /><path
         d="m 2758.35,3070.15 c 30.94,-44.52 51.31,-69.01 47.08,-107.74 -6.36,-58.27 -74.13,-80.23 -117.75,-45.85 -39.25,30.95 -83.25,98.57 -55.03,148.29 27.79,49 94.77,49.82 125.7,5.3"
         style="fill:#f47272;fill-opacity:1;fill-rule:nonzero;stroke:none"
         id="path1654"
         inkscape:connector-curvature="0" /><path
         d="m 2808.06,2996.67 c -4.65,-25.23 -89.57,-59.74 -128.1,-5.35 0,0 -48.36,0.39 -77.45,29.55 -29.09,29.15 -22.85,60.77 3.21,77.97 22.98,15.16 82.38,126.84 151.56,47.14 75.11,3.05 56.57,-117.82 50.78,-149.31"
         style="fill:#1d2a30;fill-opacity:1;fill-rule:nonzero;stroke:none"
         id="path1656"
         inkscape:connector-curvature="0" /><path
         d="m 2664.58,3110.85 c 0,0 -44.6,2.16 -70.32,-18.28 -25.71,-20.44 -18.46,-83.14 -8.57,-94.98 9.89,-11.83 20.44,-11.83 20.44,-11.83 0,0 -15.16,7.86 -15.16,19.42 0,0 6.59,-15.47 36.92,-19.42 0,0 -8.65,6.91 -7.29,15.65 0,0 16.43,-21.27 54.39,0 37.95,21.27 -10.41,109.44 -10.41,109.44"
         style="fill:#1d2a30;fill-opacity:1;fill-rule:nonzero;stroke:none"
         id="path1658"
         inkscape:connector-curvature="0" /><path
         d="m 2702.52,3000.68 c 8.2,-11.59 11.4,-26.11 10.66,-37.87 -1.1,-17.68 -15.89,-19.08 -27.53,-7.92 -10.47,10.04 -22.52,31.34 -15.67,46.09 6.74,14.53 23.17,12.96 32.54,-0.3"
         style="fill:#f47272;fill-opacity:1;fill-rule:nonzero;stroke:none"
         id="path1660"
         inkscape:connector-curvature="0" /><path
         d="m 2791.31,2852.89 c 0,0 -8.31,100.68 57.43,157.22 l 78.28,-7.18 c 0,0 -45.11,-110.07 -135.71,-150.04"
         style="fill:#4870c0;fill-opacity:1;fill-rule:nonzero;stroke:none"
         id="path1662"
         inkscape:connector-curvature="0" /><path
         d="m 2791.1,2871.64 c 1.04,31.84 9.44,97.02 57.64,138.47 l 41.22,-3.77 c -13.12,-11.8 -25.51,-25.32 -36.99,-39.56 -25.79,-31.96 -47.04,-67.51 -61.87,-95.14"
         style="fill:#b4caec;fill-opacity:1;fill-rule:nonzero;stroke:none"
         id="path1664"
         inkscape:connector-curvature="0" /><path
         d="m 3017.01,2626.45 c 0,0 -118.39,116.24 -249.26,197.6 0,0 87.19,204.67 197.56,222.93 0,0 285.33,-86.17 368.12,-319.69 l -316.42,-100.84"
         style="fill:#4870c0;fill-opacity:1;fill-rule:nonzero;stroke:none"
         id="path1666"
         inkscape:connector-curvature="0" /><path
         d="m 3032.05,1917.39 -51.08,-21.68 -55.29,116.14 51.08,21.68 55.29,-116.14"
         style="fill:#f47272;fill-opacity:1;fill-rule:nonzero;stroke:none"
         id="path1668"
         inkscape:connector-curvature="0" /><path
         d="m 3333.43,2727.29 -30.13,-319.66 c -16.56,-12.25 -42.95,-21.78 -74.8,-29.22 -62.37,-14.51 -145.6,-21.11 -217.46,-24.96 -80.72,-4.41 -147.01,-5.24 -153,-9.88 -14.03,-10.92 163.7,-378 163.7,-378 L 2936.91,1955 c 0,0 -222.95,305.77 -251.8,411.99 -10.63,39.21 -21.34,88.32 50.67,134.21 63.38,40.41 299.4,70.72 299.4,70.72 l -18.17,54.53 316.42,100.84"
         style="fill:#1d2a30;fill-opacity:1;fill-rule:nonzero;stroke:none"
         id="path1670"
         inkscape:connector-curvature="0" /><path
         d="m 3011.04,2353.45 c -4.63,56.17 6.4,111.25 19.23,153.55 3.58,-43.27 8.56,-95.64 15.29,-151.52 -11.71,-0.76 -23.25,-1.43 -34.52,-2.03 v 0"
         style="fill:#182124;fill-opacity:1;fill-rule:nonzero;stroke:none"
         id="path1672"
         inkscape:connector-curvature="0" /><path
         d="m 3775.92,1964.46 9.04,-54.74 -125.89,-26.39 -9.04,54.76 125.89,26.37"
         style="fill:#f47272;fill-opacity:1;fill-rule:nonzero;stroke:none"
         id="path1674"
         inkscape:connector-curvature="0" /><path
         d="m 3788.23,1903.05 c 6.65,-8.02 13.93,-20 12.23,-24.08 -0.22,-0.53 -0.72,-1.24 -2.6,-1.31 -1.05,-0.03 -2,0.37 -2.92,1.23 l -1.59,2 c -3.4,5.53 -4.67,16.4 -5.12,22.16 z m -0.58,4.66 -1.46,0.32 -0.82,-1.26 c 0.03,-0.95 0.79,-23.25 7.77,-29.81 1.44,-1.33 3.05,-1.99 4.8,-1.92 3.13,0.1 4.42,1.64 4.96,2.91 1.51,3.64 -1.26,10.02 -5,16.08 -3.48,5.65 -7.79,11.03 -10.25,13.68"
         style="fill:#4870c0;fill-opacity:1;fill-rule:nonzero;stroke:none"
         id="path1676"
         inkscape:connector-curvature="0" /><path
         d="m 3774.81,1888.96 c 0.81,5.93 7.39,12.31 10.73,15.2 0.09,-7.97 -3.22,-20.58 -6.74,-22.05 -0.28,-0.12 -1.16,-0.48 -2.6,1.42 l -0.45,0.64 c -0.87,1.43 -1.18,3 -0.94,4.79 z m 12.38,19.07 -1.3,-0.17 c -0.5,-0.39 -12.45,-9.5 -13.68,-18.54 -0.37,-2.77 0.26,-5.25 1.9,-7.4 2.21,-2.88 4.32,-2.81 5.69,-2.23 5.88,2.42 9.15,20.01 8.19,27.29 l -0.18,0.52 -0.62,0.53"
         style="fill:#4870c0;fill-opacity:1;fill-rule:nonzero;stroke:none"
         id="path1678"
         inkscape:connector-curvature="0" /><path
         d="m 3778.13,1908.46 -31.79,51.6 c -1.19,1.93 -0.88,4.42 0.75,6.01 l 36.26,35.2 c 3.75,3.65 9.91,2.88 12.58,-1.62 11.15,-18.81 26.63,-46.38 41.04,-69.78 16.84,-27.35 32.89,-50.05 52.64,-82.14 11.95,-19.39 -4.34,-36.85 -11.12,-29.83 -30.85,31.98 -50.31,61.63 -89.68,81.45 -4.27,2.15 -8.17,5.04 -10.68,9.11"
         style="fill:#1d2a30;fill-opacity:1;fill-rule:nonzero;stroke:none"
         id="path1680"
         inkscape:connector-curvature="0" /><path
         d="m 3325.53,2724.32 c 0,0 101.65,-261.32 -69.84,-362.71 0,0 -2.18,-301.96 41.17,-337.34 52.75,-43.06 439.09,-64.97 439.09,-64.97 l -3.37,-95.94 c 0,0 -413.59,-33.86 -538.82,11.06 -146.62,52.62 -179.28,744.51 -179.28,744.51 l 311.05,105.39"
         style="fill:#1d2a30;fill-opacity:1;fill-rule:nonzero;stroke:none"
         id="path1682"
         inkscape:connector-curvature="0" /><path
         d="m 3257.38,2479.42 -27.09,8.62 c 0,0 -7.39,56.79 -14.39,78.84 l 61.75,18.67 c 0,0 8.48,-53.12 8.37,-81.55 l -28.64,-24.58"
         style="fill:#182124;fill-opacity:1;fill-rule:nonzero;stroke:none"
         id="path1684"
         inkscape:connector-curvature="0" /><path
         d="m 3037.36,2626.24 8,-25.4 -22.84,-7.08 -8.04,25.17 22.88,7.31"
         style="fill:#1d2a30;fill-opacity:1;fill-rule:nonzero;stroke:none"
         id="path1686"
         inkscape:connector-curvature="0" /><path
         d="m 3142.72,2660.03 8.59,-26.34 -94.54,-29.31 -8.35,25.44 94.3,30.21"
         style="fill:#1d2a30;fill-opacity:1;fill-rule:nonzero;stroke:none"
         id="path1688"
         inkscape:connector-curvature="0" /><path
         d="m 3260.4,2697.75 8.57,-27.57 -105.68,-32.75 -8.4,26.51 105.51,33.81"
         style="fill:#1d2a30;fill-opacity:1;fill-rule:nonzero;stroke:none"
         id="path1690"
         inkscape:connector-curvature="0" /><path
         d="m 3346.38,2694.21 -65.09,-20.18 -0.07,-0.01 -8.73,27.63 64.61,20.7 9.28,-28.14"
         style="fill:#1d2a30;fill-opacity:1;fill-rule:nonzero;stroke:none"
         id="path1692"
         inkscape:connector-curvature="0" /><path
         d="m 3022.52,2593.76 -8.04,25.17 22.88,7.31 8,-25.4 -21.42,-6.64 -1.42,-0.44"
         style="fill:#45555c;fill-opacity:1;fill-rule:nonzero;stroke:none"
         id="path1694"
         inkscape:connector-curvature="0" /><path
         d="m 3056.77,2604.38 -8.35,25.44 94.3,30.21 8.59,-26.34 -94.54,-29.31"
         style="fill:#45555c;fill-opacity:1;fill-rule:nonzero;stroke:none"
         id="path1696"
         inkscape:connector-curvature="0" /><path
         d="m 3163.29,2637.43 -8.4,26.51 105.51,33.81 8.57,-27.57 -105.68,-32.75"
         style="fill:#45555c;fill-opacity:1;fill-rule:nonzero;stroke:none"
         id="path1698"
         inkscape:connector-curvature="0" /><path
         d="m 3281.22,2674.02 -8.73,27.63 64.61,20.7 9.28,-28.14 -65.09,-20.18 -0.07,-0.01"
         style="fill:#45555c;fill-opacity:1;fill-rule:nonzero;stroke:none"
         id="path1700"
         inkscape:connector-curvature="0" /><path
         d="m 2960.97,1913.78 c -10.28,-1.71 -24.3,-1.95 -26.97,1.57 -0.35,0.46 -0.7,1.26 0.18,2.91 0.5,0.92 1.33,1.55 2.54,1.9 0.75,0.22 1.61,0.34 2.53,0.36 6.48,0.15 16.51,-4.22 21.72,-6.74 z m 4.31,-1.85 1.02,1.1 -0.67,1.34 c -0.84,0.46 -20.49,11.04 -29.66,8.31 -1.88,-0.56 -3.26,-1.62 -4.09,-3.17 -1.49,-2.75 -0.81,-4.65 0.02,-5.75 2.38,-3.14 9.28,-3.95 16.41,-3.79 6.63,0.16 13.45,1.17 16.97,1.96"
         style="fill:#4870c0;fill-opacity:1;fill-rule:nonzero;stroke:none"
         id="path1702"
         inkscape:connector-curvature="0" /><path
         d="m 2955.56,1932.47 c 4.72,-3.69 6.91,-12.59 7.73,-16.93 -6.93,3.93 -16.17,13.15 -15.65,16.93 0.04,0.31 0.17,1.24 2.53,1.54 l 0.79,0.06 c 1.66,0.04 3.18,-0.49 4.6,-1.6 z m 10.23,-20.3 0.51,1.2 c -0.08,0.63 -1.92,15.54 -9.12,21.17 -2.19,1.71 -4.65,2.41 -7.34,2.08 -3.6,-0.46 -4.6,-2.31 -4.81,-3.79 -0.86,-6.3 12.68,-17.99 19.46,-20.83 l 0.53,-0.1 0.77,0.27"
         style="fill:#4870c0;fill-opacity:1;fill-rule:nonzero;stroke:none"
         id="path1704"
         inkscape:connector-curvature="0" /><path
         d="m 2970.73,1919.78 60.59,1.43 c 2.26,0.06 4.27,-1.47 4.81,-3.67 l 12.13,-49.05 c 1.25,-5.09 -2.51,-10.03 -7.75,-10.06 -7.99,-0.05 -17.27,-0.02 -27.18,0.02 -17.22,0.06 -36.32,0.12 -53.76,-0.28 -32.12,-0.77 -59.82,-3.18 -97.48,-4.07 -22.78,-0.53 -29.64,22.34 -20.16,24.65 43.17,10.52 78.59,12.37 115.54,36.39 4.02,2.6 8.48,4.53 13.26,4.64"
         style="fill:#1d2a30;fill-opacity:1;fill-rule:nonzero;stroke:none"
         id="path1706"
         inkscape:connector-curvature="0" /><path
         d="m 3002.3,2640.46 c -21.49,20.08 -64.75,59.29 -118.36,101.39 v 0 c -0.01,0.01 -0.01,0.02 -0.02,0.03 53.63,-42.08 96.91,-81.33 118.38,-101.42 m -233.74,183.08 c -0.27,0.17 -0.55,0.34 -0.82,0.51 0,0 8.43,19.79 23.36,47.59 0,0 0,-0.01 0,-0.01 -14.92,-27.8 -23.35,-47.58 -23.35,-47.58 0.27,-0.16 0.55,-0.34 0.82,-0.5 0,-0.01 0,-0.01 -0.01,-0.01 m 442.75,81.42 c -21.78,19.84 -44.45,37.36 -66.86,52.7 22.4,-15.34 45.09,-32.86 66.86,-52.7 v 0"
         style="fill:#ffffff;fill-opacity:1;fill-rule:nonzero;stroke:none"
         id="path1708"
         inkscape:connector-curvature="0" /><path
         d="m 2791.1,2871.63 c 0,0 0,0.01 0,0.01 14.83,27.63 36.08,63.18 61.87,95.14 -25.79,-31.96 -47.04,-67.52 -61.87,-95.15"
         style="fill:#ebf3fb;fill-opacity:1;fill-rule:nonzero;stroke:none"
         id="path1710"
         inkscape:connector-curvature="0" /><path
         d="m 3017.03,2626.46 c -0.26,0.24 -5.47,5.35 -14.73,14 -21.47,20.09 -64.75,59.34 -118.38,101.42 -12.8,29.91 -37.89,51.76 -39.77,53.37 -4.5,7.59 -10.98,15.15 -20.28,20.73 -18.55,11.13 -34.88,13.22 -44.51,13.22 -5.76,0 -9.13,-0.75 -9.13,-0.75 -0.55,-1.63 -1.11,-3.27 -1.66,-4.9 -0.27,0.16 -0.55,0.34 -0.82,0.5 0,0 8.43,19.78 23.35,47.58 v 0 c 14.83,27.63 36.08,63.19 61.87,95.15 31.75,39.35 70.38,73.24 112.37,80.17 0,0 87.16,-26.31 179.11,-89.29 22.41,-15.34 45.08,-32.86 66.86,-52.7 v 0 l 0.01,-0.01 c 0.06,-0.05 0.11,-0.1 0.17,-0.15 50.48,-46.04 96.08,-104.59 121.93,-177.51 l -316.39,-100.83"
         style="fill:#c7d9f2;fill-opacity:1;fill-rule:nonzero;stroke:none"
         id="path1712"
         inkscape:connector-curvature="0" /><path
         d="m 3017.04,2626.45 c 0,0 -0.01,0 -0.01,0.01 l 316.4,100.83 c -0.01,0 -0.01,0 -0.01,0 l -2.23,-0.76 -314.15,-100.08"
         style="fill:#bdc1c2;fill-opacity:1;fill-rule:nonzero;stroke:none"
         id="path1714"
         inkscape:connector-curvature="0" /><path
         d="m 3331.19,2726.53 2.24,0.76 c 0,-0.02 0,-0.03 0.01,-0.04 l -2.25,-0.72"
         style="fill:#bdc1c2;fill-opacity:1;fill-rule:nonzero;stroke:none"
         id="path1716"
         inkscape:connector-curvature="0" /><path
         d="m 2883.94,2741.85 c -9.61,7.51 -19.51,15.11 -29.68,22.7 0.01,0.02 0.01,0.04 0.02,0.04 10.17,-7.6 20.06,-15.2 29.64,-22.71 0.01,-0.01 0.01,-0.02 0.02,-0.03"
         style="fill:#e8e8e6;fill-opacity:1;fill-rule:nonzero;stroke:none"
         id="path1718"
         inkscape:connector-curvature="0" /><path
         d="m 2883.92,2741.88 c -9.58,7.51 -19.47,15.11 -29.64,22.71 v 0.01 0 0 c 0,0 -1.09,15.41 -10.13,30.65 1.88,-1.61 26.97,-23.46 39.77,-53.37"
         style="fill:#b1c2e8;fill-opacity:1;fill-rule:nonzero;stroke:none"
         id="path1720"
         inkscape:connector-curvature="0" /><path
         d="m 2426.77,2533.04 -21.81,-5.2 c -5.44,-1.3 -9.57,-5.73 -10.46,-11.26 l -4.93,-30.37 c -1.04,-6.41 2.51,-12.68 8.55,-15.09 l 15.94,-6.35 c 0,0 46.02,-33.2 84.92,-11.76 l -16.81,44.5 -32.9,29.77 c -6.09,5.51 -14.51,7.67 -22.5,5.76"
         style="fill:#f47272;fill-opacity:1;fill-rule:nonzero;stroke:none"
         id="path1722"
         inkscape:connector-curvature="0" /><path
         d="m 2823.87,2815.98 c 27.97,-16.78 30.41,-51.38 30.41,-51.38 0,0 -21.98,-59.61 -34.72,-89.28 -8.66,-20.13 -17.65,-40.33 -28.12,-60.42 -10.81,-20.26 -21.2,-40.12 -38.85,-62.05 l -3.44,-4.15 -4.1,-4.41 c -2.47,-2.78 -6.13,-6.09 -9.69,-9.16 -1.52,-1.42 -4.29,-3.36 -6.62,-4.99 -2.26,-1.56 -5.43,-3.65 -6.35,-4.01 l -8.45,-4.4 c -11.02,-5.54 -21.33,-9.87 -31.68,-14.13 -20.55,-8.42 -40.89,-15.74 -61.29,-22.76 -40.93,-13.69 -81.63,-26.2 -123.43,-36.72 l -19.84,53.47 c 37.49,19.21 75.7,37.4 113,56.15 18.68,9.25 37.28,18.57 55.14,27.97 8.8,4.75 17.57,9.61 25.14,14.21 l 5.37,3.4 c 1.45,0.83 0.34,0.44 0.24,0.39 l -0.36,-0.12 c 0.32,0.54 0.64,0.71 1.56,2.02 l 1.19,1.5 1.44,2.11 c 8.1,11.76 17.26,29.76 25.18,47.39 7.93,18.05 15.86,36.68 23.16,55.76 14.53,38.02 28.47,77.67 41.47,116.08 0,0 23.97,5.33 53.64,-12.47"
         style="fill:#4870c0;fill-opacity:1;fill-rule:nonzero;stroke:none"
         id="path1724"
         inkscape:connector-curvature="0" /><path
         d="m 2497.54,2448.12 -1.29,3.48 -18.53,49.94 -0.02,0.05 c 37.49,19.21 75.7,37.4 113,56.15 18.68,9.25 37.28,18.57 55.14,27.97 8.8,4.75 17.57,9.61 25.14,14.21 l 5.37,3.4 c 0.57,0.32 0.74,0.46 0.74,0.51 0,0.01 -0.01,0.02 -0.04,0.02 -0.11,0 -0.41,-0.12 -0.46,-0.14 l -0.36,-0.12 c 0.32,0.54 0.64,0.71 1.56,2.02 l 1.19,1.5 1.44,2.11 c 8.1,11.76 17.26,29.76 25.18,47.39 7.93,18.05 15.86,36.68 23.16,55.76 14.53,38.02 28.47,77.67 41.47,116.08 0,0 3.37,0.75 9.13,0.75 9.63,0 25.96,-2.09 44.51,-13.22 27.97,-16.78 30.41,-51.38 30.41,-51.38 v -0.01 c -0.01,0 -0.01,-0.02 -0.02,-0.04 -0.65,-1.77 -22.15,-60.02 -34.7,-89.23 -8.66,-20.13 -17.65,-40.33 -28.12,-60.42 -10.81,-20.26 -21.2,-40.12 -38.85,-62.05 l -3.44,-4.15 -4.1,-4.41 c -2.47,-2.78 -6.13,-6.09 -9.69,-9.16 -1.52,-1.42 -4.29,-3.36 -6.62,-4.99 -2.26,-1.56 -5.43,-3.65 -6.35,-4.01 l -8.45,-4.4 c -11.02,-5.54 -21.33,-9.87 -31.68,-14.13 -20.55,-8.42 -40.89,-15.74 -61.29,-22.76 -40.93,-13.69 -81.63,-26.2 -123.43,-36.72"
         style="fill:#c7d9f2;fill-opacity:1;fill-rule:nonzero;stroke:none"
         id="path1726"
         inkscape:connector-curvature="0" /><path
         d="M 995.055,162.461 H 2683.9 l 893.76,721.961 39.19,-48.512 h 220.14 l 224.26,1032.3 -220.23,-0.44 0.1,0.44 -1056.4,-2.1 126.12,-156.12 L 995.055,162.461"
         style="fill:#5775ba;fill-opacity:1;fill-rule:nonzero;stroke:none"
         id="arrow_shadow"
         inkscape:connector-curvature="0" /><path
         d="m 3616.85,835.91 -39.19,48.512 v 0 l 39.19,-48.512"
         style="fill:#eeeeee;fill-opacity:1;fill-rule:nonzero;stroke:none"
         id="path1730"
         inkscape:connector-curvature="0" /><path
         d="m 3841.02,1867.77 0.1,0.44 -0.1,-0.44 v 0"
         style="fill:#45555c;fill-opacity:1;fill-rule:nonzero;stroke:none"
         id="path1732"
         inkscape:connector-curvature="0" /><path
         d="M 2173.27,222.039 H 1068.81 l 1842.03,1487.951 -32.43,40.14 -10.9,13.49 -35.08,43.43 -4.12,5.11 -43.59,53.95 1056.4,2.1 0.1467,-0.6867 -224.17,-1031.86 -39.19,48.512 -86.92,107.609 L 2561.7479,221.88847 2172.9,220.86724"
         style="fill:#8aaef4;fill-opacity:1;fill-rule:nonzero;stroke:none"
         id="arrow"
         inkscape:connector-curvature="0"
         sodipodi:nodetypes="ccccccccccccccc" /></g></g></svg>