<?xml version="1.0" encoding="UTF-8" standalone="no"?>
<!-- Created with Inkscape (http://www.inkscape.org/) -->

<svg
   xmlns:dc="http://purl.org/dc/elements/1.1/"
   xmlns:cc="http://creativecommons.org/ns#"
   xmlns:rdf="http://www.w3.org/1999/02/22-rdf-syntax-ns#"
   xmlns:svg="http://www.w3.org/2000/svg"
   xmlns="http://www.w3.org/2000/svg"
   xmlns:sodipodi="http://sodipodi.sourceforge.net/DTD/sodipodi-0.dtd"
   xmlns:inkscape="http://www.inkscape.org/namespaces/inkscape"
   version="1.1"
   id="svg9846"
   xml:space="preserve"
   width="292.63693"
   height="162.07791"
   viewBox="0 0 292.63693 162.07791"
   sodipodi:docname="hr.svg"
   inkscape:version="0.92.4 (5da689c313, 2019-01-14)"><metadata
     id="metadata9852"><rdf:RDF><cc:Work
         rdf:about=""><dc:format>image/svg+xml</dc:format><dc:type
           rdf:resource="http://purl.org/dc/dcmitype/StillImage" /><dc:title></dc:title></cc:Work></rdf:RDF></metadata><defs
     id="defs9850"><clipPath
       clipPathUnits="userSpaceOnUse"
       id="clipPath10950"><path
         d="m 1290.72,3718.21 c -0.21,0 -0.42,0 -0.64,0.01 -0.09,2.55 -0.4,5.9 -0.53,9.24 0.04,0.03 0.09,0.05 0.13,0.07 0.19,-3.05 0.49,-6.03 0.96,-8.88 0.95,-0.12 1.92,-0.17 2.9,-0.17 0.25,0 0.51,0 0.77,0.01 -1.21,-0.19 -2.4,-0.28 -3.59,-0.28 m 181.64,35.9 c -7.95,2.35 -15.84,4.9 -23.69,7.57 -13.42,4.57 -20.9,14.27 -29.45,24.37 -6.83,8.08 -16.1,17.21 -17.81,28.2 0.37,1.67 0.71,3.35 1.03,5.05 1.17,-3.23 2.32,-6.46 3.69,-9.5 7.23,-16.1 19.36,-31.21 35.06,-40.62 9.81,-5.86 20.67,-10.31 31.17,-15.07"
         id="path10948"
         inkscape:connector-curvature="0" /></clipPath><clipPath
       clipPathUnits="userSpaceOnUse"
       id="clipPath11056"><path
         d="m 4284.95,1080.37 v 0 0 m 0,0 c -0.07,0.01 -0.75,0.15 -1.93,0.37 0.06,0.26 0.13,0.51 0.2,0.77 0.63,-0.12 1.18,-0.23 1.62,-0.31 -0.09,-0.74 0.08,-0.82 0.11,-0.83 m -63.84,11.92 c -3.56,0.63 -6.74,1.18 -9.36,1.61 l -0.03,0.17 0.73,0.21 c 0.19,0.06 0.39,0.12 0.58,0.19 2.34,-0.39 5.13,-0.87 8.23,-1.41 -0.05,-0.26 -0.1,-0.51 -0.15,-0.77"
         id="path11054"
         inkscape:connector-curvature="0" /></clipPath><clipPath
       clipPathUnits="userSpaceOnUse"
       id="clipPath11192"><path
         d="m 2163.02,1015.84 4.8,4.85 h 105.07 c -5.51,-1.06 -11.31,-2.53 -17.03,-4.17 l -92.84,-0.68 m 144.41,1.06 c -2.91,1.34 -6.43,2.72 -10.18,3.79 h 484.61 c -0.41,-0.1 -0.81,-0.2 -1.22,-0.31 l -473.21,-3.48 m 515.67,3.79 h -0.01 0.36 v 550.43 -550.43 h -0.35"
         id="path11190"
         inkscape:connector-curvature="0" /></clipPath></defs><sodipodi:namedview
     pagecolor="#ffffff"
     bordercolor="#666666"
     borderopacity="1"
     objecttolerance="10"
     gridtolerance="10"
     guidetolerance="10"
     inkscape:pageopacity="0"
     inkscape:pageshadow="2"
     inkscape:window-width="1920"
     inkscape:window-height="1001"
     id="namedview9848"
     showgrid="false"
     fit-margin-top="0"
     fit-margin-left="0"
     fit-margin-right="0"
     fit-margin-bottom="0"
     inkscape:zoom="2.2250293"
     inkscape:cx="101.05548"
     inkscape:cy="155.052"
     inkscape:window-x="-9"
     inkscape:window-y="-9"
     inkscape:window-maximized="1"
     inkscape:current-layer="g9856" /><g
     id="g9854"
     inkscape:groupmode="layer"
     inkscape:label="ink_ext_XXXXXX"
     transform="matrix(1.3333333,0,0,-1.3333333,-29.557352,408.22526)"><g
       id="g9856"
       transform="scale(0.1)"><path
         d="m 2416.4571,1896.6695 h -28.148 v 79.81 h 28.148 v -79.81"
         style="fill:#6488a8;fill-opacity:1;fill-rule:nonzero;stroke:none"
         id="path10002"
         inkscape:connector-curvature="0" /><path
         d="m 1874.7301,2749.1595 h 507.422 v 16.375 h -507.422 z"
         style="fill:#6795ae;fill-opacity:1;fill-rule:nonzero;stroke:none"
         id="path10004"
         inkscape:connector-curvature="0" /><path
         d="m 1844.8281,1976.4895 h 571.629 v 1085.2 h -571.629 z"
         style="fill:#6795ae;fill-opacity:1;fill-rule:nonzero;stroke:none"
         id="path10006"
         inkscape:connector-curvature="0" /><path
         d="m 1874.7301,1896.6695 h -29.902 v 79.81 h 29.902 v -79.81"
         style="fill:#6488a8;fill-opacity:1;fill-rule:nonzero;stroke:none"
         id="path10008"
         inkscape:connector-curvature="0" /><path
         d="m 1874.7311,2019.4195 h 503.027 v 1012.54 h -503.027 z"
         style="fill:#4e7a9d;fill-opacity:1;fill-rule:nonzero;stroke:none"
         id="path10010"
         inkscape:connector-curvature="0" /><path
         d="m 1879.1251,2019.7895 h -4.395 l 4.395,13.9 v -13.9"
         style="fill:#436b8c;fill-opacity:1;fill-rule:nonzero;stroke:none"
         id="path10012"
         inkscape:connector-curvature="0" /><path
         d="m 1859.7811,2488.1095 h 528.531 v 14.0156 h -528.531 z"
         style="fill:#6795ae;fill-opacity:1;fill-rule:nonzero;stroke:none"
         id="path10016"
         inkscape:connector-curvature="0" /><path
         d="m 1919.0191,2792.7895 h 53.3281 v 218.98 h -53.3281 z"
         style="fill:#4a7fc9;fill-opacity:1;fill-rule:nonzero;stroke:none"
         id="path10018"
         inkscape:connector-curvature="0" /><path
         d="m 1929.7031,2902.2895 h 31.7578 v 99.5508 h -31.7578 z"
         style="fill:#e4edf6;fill-opacity:1;fill-rule:nonzero;stroke:none"
         id="path10020"
         inkscape:connector-curvature="0" /><path
         d="m 1956.6481,2836.6095 c 0,-5.32 -4.91,-9.65 -10.964,-9.65 -6.059,0 -10.973,4.33 -10.973,9.65 0,5.34 4.914,9.65 10.973,9.65 6.054,0 10.964,-4.31 10.964,-9.65"
         style="fill:#3355ae;fill-opacity:1;fill-rule:nonzero;stroke:none"
         id="path10022"
         inkscape:connector-curvature="0" /><path
         d="m 1945.6841,2843.7595 c -4.672,0 -8.473,-3.21 -8.473,-7.15 0,-3.94 3.801,-7.15 8.473,-7.15 4.667,0 8.464,3.21 8.464,7.15 0,3.94 -3.797,7.15 -8.464,7.15 m 0,-19.3 c -7.426,0 -13.473,5.45 -13.473,12.15 0,6.7 6.047,12.15 13.473,12.15 7.425,0 13.464,-5.45 13.464,-12.15 0,-6.7 -6.039,-12.15 -13.464,-12.15"
         style="fill:#fbeaf2;fill-opacity:1;fill-rule:nonzero;stroke:none"
         id="path10024"
         inkscape:connector-curvature="0" /><path
         d="m 1967.1521,2792.7895 h 5.1953 v 218.98 h -5.1953 z"
         style="fill:#3355ae;fill-opacity:1;fill-rule:nonzero;stroke:none"
         id="path10026"
         inkscape:connector-curvature="0" /><path
         d="m 1923.0661,2792.7895 h -4.047 v 218.98 h 4.047 v -218.98"
         style="fill:#3355ae;fill-opacity:1;fill-rule:nonzero;stroke:none"
         id="path10028"
         inkscape:connector-curvature="0" /><path
         d="m 1967.1521,2792.7895 h -27.16 l 2.789,31.96 c 0.934,-0.19 1.906,-0.29 2.903,-0.29 7.425,0 13.464,5.45 13.464,12.15 0,6.7 -6.039,12.15 -13.464,12.15 -0.274,0 -0.543,-0.01 -0.809,-0.02 l 4.668,53.55 h 11.918 v 99.55 h -3.235 l 0.864,9.93 h 8.062 v -218.98"
         style="fill:#4475c3;fill-opacity:1;fill-rule:nonzero;stroke:none"
         id="path10030"
         inkscape:connector-curvature="0" /><path
         d="m 1961.4611,2902.2895 h -11.918 l 8.683,99.55 h 3.235 v -99.55"
         style="fill:#c9daed;fill-opacity:1;fill-rule:nonzero;stroke:none"
         id="path10032"
         inkscape:connector-curvature="0" /><path
         d="m 1945.6841,2829.4595 c -0.856,0 -1.684,0.11 -2.465,0.31 l 1.215,13.91 c 0.406,0.06 0.824,0.08 1.25,0.08 4.667,0 8.464,-3.21 8.464,-7.15 0,-3.94 -3.797,-7.15 -8.464,-7.15"
         style="fill:#2e4fa9;fill-opacity:1;fill-rule:nonzero;stroke:none"
         id="path10034"
         inkscape:connector-curvature="0" /><path
         d="m 1945.6841,2824.4595 c -0.997,0 -1.969,0.1 -2.903,0.29 l 0.438,5.02 c 0.781,-0.2 1.609,-0.31 2.465,-0.31 4.667,0 8.464,3.21 8.464,7.15 0,3.94 -3.797,7.15 -8.464,7.15 -0.426,0 -0.844,-0.02 -1.25,-0.08 l 0.441,5.06 c 0.266,0.01 0.535,0.02 0.809,0.02 7.425,0 13.464,-5.45 13.464,-12.15 0,-6.7 -6.039,-12.15 -13.464,-12.15"
         style="fill:#dfd8e9;fill-opacity:1;fill-rule:nonzero;stroke:none"
         id="path10036"
         inkscape:connector-curvature="0" /><path
         d="m 1972.2891,2792.7895 h -5.137 v 218.98 h 5.196 l -0.059,-218.98"
         style="fill:#2e4fa9;fill-opacity:1;fill-rule:nonzero;stroke:none"
         id="path10038"
         inkscape:connector-curvature="0" /><path
         d="m 1874.7301,2765.5295 h 507.422 v 21.8828 h -507.422 z"
         style="fill:#6795ae;fill-opacity:1;fill-rule:nonzero;stroke:none"
         id="path10040"
         inkscape:connector-curvature="0" /><path
         d="m 1972.3481,2792.7895 h 53.3281 v 218.98 h -53.3281 z"
         style="fill:#4a7fc9;fill-opacity:1;fill-rule:nonzero;stroke:none"
         id="path10042"
         inkscape:connector-curvature="0" /><path
         d="m 1983.0271,2902.2895 h 31.7617 v 99.5508 h -31.7617 z"
         style="fill:#e4edf6;fill-opacity:1;fill-rule:nonzero;stroke:none"
         id="path10044"
         inkscape:connector-curvature="0" /><path
         d="m 2009.9761,2836.6095 c 0,-5.32 -4.91,-9.65 -10.968,-9.65 -6.055,0 -10.965,4.33 -10.965,9.65 0,5.34 4.91,9.65 10.965,9.65 6.058,0 10.968,-4.31 10.968,-9.65"
         style="fill:#3355ae;fill-opacity:1;fill-rule:nonzero;stroke:none"
         id="path10046"
         inkscape:connector-curvature="0" /><path
         d="m 1999.0081,2843.7595 c -4.668,0 -8.465,-3.21 -8.465,-7.15 0,-3.94 3.797,-7.15 8.465,-7.15 4.668,0 8.468,3.21 8.468,7.15 0,3.94 -3.8,7.15 -8.468,7.15 m 0,-19.3 c -7.426,0 -13.465,5.45 -13.465,12.15 0,6.7 6.039,12.15 13.465,12.15 7.429,0 13.468,-5.45 13.468,-12.15 0,-6.7 -6.039,-12.15 -13.468,-12.15"
         style="fill:#fbeaf2;fill-opacity:1;fill-rule:nonzero;stroke:none"
         id="path10048"
         inkscape:connector-curvature="0" /><path
         d="m 2020.4761,2792.7895 h 5.1992 v 218.98 h -5.1992 z"
         style="fill:#3355ae;fill-opacity:1;fill-rule:nonzero;stroke:none"
         id="path10050"
         inkscape:connector-curvature="0" /><path
         d="m 1976.3941,2792.7895 h -4.046 v 218.98 h 4.046 v -218.98"
         style="fill:#3355ae;fill-opacity:1;fill-rule:nonzero;stroke:none"
         id="path10052"
         inkscape:connector-curvature="0" /><path
         d="m 2020.4761,2792.7895 h -27.156 l 2.785,31.96 c 0.938,-0.19 1.907,-0.29 2.903,-0.29 7.429,0 13.468,5.45 13.468,12.15 0,6.7 -6.039,12.15 -13.468,12.15 -0.27,0 -0.539,-0.01 -0.809,-0.02 l 4.672,53.55 h 10.68 l -1.867,-1.98 8.792,-7.73 v -99.79 m -5.687,110.81 v 98.24 h -3.234 l 0.867,9.93 h 8.054 v -102.12 l -5.687,-6.05"
         style="fill:#4475c3;fill-opacity:1;fill-rule:nonzero;stroke:none"
         id="path10054"
         inkscape:connector-curvature="0" /><path
         d="m 2013.5511,2902.2895 h -10.68 l 8.684,99.55 h 3.234 v -98.24 l -1.238,-1.31"
         style="fill:#c9daed;fill-opacity:1;fill-rule:nonzero;stroke:none"
         id="path10056"
         inkscape:connector-curvature="0" /><path
         d="m 1999.0081,2829.4595 c -0.856,0 -1.684,0.11 -2.461,0.31 l 1.211,13.91 c 0.41,0.06 0.828,0.08 1.25,0.08 4.668,0 8.468,-3.21 8.468,-7.15 0,-3.94 -3.8,-7.15 -8.468,-7.15"
         style="fill:#2e4fa9;fill-opacity:1;fill-rule:nonzero;stroke:none"
         id="path10058"
         inkscape:connector-curvature="0" /><path
         d="m 1999.0081,2824.4595 c -0.996,0 -1.965,0.1 -2.903,0.29 l 0.442,5.02 c 0.777,-0.2 1.605,-0.31 2.461,-0.31 4.668,0 8.468,3.21 8.468,7.15 0,3.94 -3.8,7.15 -8.468,7.15 -0.422,0 -0.84,-0.02 -1.25,-0.08 l 0.441,5.06 c 0.27,0.01 0.539,0.02 0.809,0.02 7.429,0 13.468,-5.45 13.468,-12.15 0,-6.7 -6.039,-12.15 -13.468,-12.15"
         style="fill:#dfd8e9;fill-opacity:1;fill-rule:nonzero;stroke:none"
         id="path10060"
         inkscape:connector-curvature="0" /><path
         d="m 2021.1951,2792.7895 h -0.719 v 99.79 l 0.719,-0.63 v -99.16 m -0.719,116.86 v 102.12 h 5.2 -4.481 v -101.36 l -0.719,-0.76"
         style="fill:#2e4fa9;fill-opacity:1;fill-rule:nonzero;stroke:none"
         id="path10062"
         inkscape:connector-curvature="0" /><path
         d="m 2021.1951,2792.7895 h 53.332 v 218.98 h -53.332 z"
         style="fill:#4a7fc9;fill-opacity:1;fill-rule:nonzero;stroke:none"
         id="path10064"
         inkscape:connector-curvature="0" /><path
         d="m 2031.8791,2902.2895 h 31.7617 v 99.5508 h -31.7617 z"
         style="fill:#e4edf6;fill-opacity:1;fill-rule:nonzero;stroke:none"
         id="path10066"
         inkscape:connector-curvature="0" /><path
         d="m 2058.8281,2836.6095 c 0,-5.32 -4.906,-9.65 -10.969,-9.65 -6.058,0 -10.968,4.33 -10.968,9.65 0,5.34 4.91,9.65 10.968,9.65 6.063,0 10.969,-4.31 10.969,-9.65"
         style="fill:#3355ae;fill-opacity:1;fill-rule:nonzero;stroke:none"
         id="path10068"
         inkscape:connector-curvature="0" /><path
         d="m 2047.8591,2843.7595 c -4.672,0 -8.468,-3.21 -8.468,-7.15 0,-3.94 3.796,-7.15 8.468,-7.15 4.668,0 8.469,3.21 8.469,7.15 0,3.94 -3.801,7.15 -8.469,7.15 m 0,-19.3 c -7.425,0 -13.468,5.45 -13.468,12.15 0,6.7 6.043,12.15 13.468,12.15 7.43,0 13.469,-5.45 13.469,-12.15 0,-6.7 -6.039,-12.15 -13.469,-12.15"
         style="fill:#fbeaf2;fill-opacity:1;fill-rule:nonzero;stroke:none"
         id="path10070"
         inkscape:connector-curvature="0" /><path
         d="m 2069.3241,2792.7895 h 5.2031 v 218.98 h -5.2031 z"
         style="fill:#3355ae;fill-opacity:1;fill-rule:nonzero;stroke:none"
         id="path10072"
         inkscape:connector-curvature="0" /><path
         d="m 2025.2421,2792.7895 h -4.047 v 218.98 h 4.047 v -218.98"
         style="fill:#3355ae;fill-opacity:1;fill-rule:nonzero;stroke:none"
         id="path10074"
         inkscape:connector-curvature="0" /><path
         d="m 2069.3241,2792.7895 h -27.152 l 2.789,31.96 c 0.933,-0.19 1.902,-0.29 2.898,-0.29 7.43,0 13.469,5.45 13.469,12.15 0,6.7 -6.039,12.15 -13.469,12.15 -0.269,0 -0.539,-0.01 -0.808,-0.02 l 1.664,19.05 20.609,-18.09 v -56.91 m -5.605,163.06 c -0.028,0.04 -0.051,0.08 -0.078,0.12 v 0.89 c 0.128,-0.32 0.261,-0.63 0.394,-0.95 l -0.023,-0.03 c -0.09,0.19 -0.176,0.37 -0.266,0.56 0,-0.2 -0.016,-0.4 -0.027,-0.59 m 5.605,7.17 c -0.027,0.11 -0.058,0.22 -0.086,0.32 -1.211,4.6 -0.5,10.81 -2.777,15.02 -1.246,-0.33 -2.156,-1.24 -2.82,-2.46 v 25.94 h -3.239 l 0.867,9.93 h 8.055 v -26.46 c -0.039,0.01 -0.082,0.02 -0.121,0.03 -0.422,0.12 -0.797,0.18 -1.125,0.18 -2.394,0 -2.371,-2.92 -1.953,-4.68 0.797,-3.39 1.961,-6.65 3.199,-9.91 v -7.91"
         style="fill:#4475c3;fill-opacity:1;fill-rule:nonzero;stroke:none"
         id="path10076"
         inkscape:connector-curvature="0" /><path
         d="m 2055.6171,2946.9695 0.332,3.78 c 0.317,-0.8 0.637,-1.61 0.953,-2.42 l -1.285,-1.36 m 8.024,9 c -0.899,1.48 -1.852,2.91 -2.875,4.28 -0.797,1.06 -2.137,3.17 -3.598,4.48 l 3.234,37.11 h 3.239 v -25.94 c -1.911,-3.55 -1.747,-9.75 -1.668,-12.33 0.066,-2.14 0.777,-4.46 1.668,-6.71 v -0.89"
         style="fill:#c9daed;fill-opacity:1;fill-rule:nonzero;stroke:none"
         id="path10078"
         inkscape:connector-curvature="0" /><path
         d="m 2047.8591,2829.4595 c -0.855,0 -1.683,0.11 -2.461,0.31 l 1.211,13.91 c 0.41,0.06 0.828,0.08 1.25,0.08 4.668,0 8.469,-3.21 8.469,-7.15 0,-3.94 -3.801,-7.15 -8.469,-7.15"
         style="fill:#2e4fa9;fill-opacity:1;fill-rule:nonzero;stroke:none"
         id="path10080"
         inkscape:connector-curvature="0" /><path
         d="m 2047.8591,2824.4595 c -0.996,0 -1.965,0.1 -2.898,0.29 l 0.437,5.02 c 0.778,-0.2 1.606,-0.31 2.461,-0.31 4.668,0 8.469,3.21 8.469,7.15 0,3.94 -3.801,7.15 -8.469,7.15 -0.422,0 -0.84,-0.02 -1.25,-0.08 l 0.442,5.06 c 0.269,0.01 0.539,0.02 0.808,0.02 7.43,0 13.469,-5.45 13.469,-12.15 0,-6.7 -6.039,-12.15 -13.469,-12.15"
         style="fill:#dfd8e9;fill-opacity:1;fill-rule:nonzero;stroke:none"
         id="path10082"
         inkscape:connector-curvature="0" /><path
         d="m 2074.4731,2792.7895 h -5.149 v 56.91 l 5.16,-4.53 -0.011,-52.38 m -4.793,169.11 c -0.129,0.37 -0.246,0.74 -0.356,1.12 v 7.91 c 0.852,-2.22 1.735,-4.44 2.559,-6.69 l -2.203,-2.34 m 4.839,17.8 c -0.023,0.03 -0.046,0.06 -0.07,0.09 -1.062,1.44 -3.101,4.82 -5.125,5.52 v 26.46 h 5.203 l -0.01,-32.07"
         style="fill:#2e4fa9;fill-opacity:1;fill-rule:nonzero;stroke:none"
         id="path10084"
         inkscape:connector-curvature="0" /><path
         d="m 1910.2811,2504.7295 h 53.332 v 218.98 h -53.332 z"
         style="fill:#e2551d;fill-opacity:1;fill-rule:nonzero;stroke:none"
         id="path10086"
         inkscape:connector-curvature="0" /><path
         d="m 1920.9731,2614.2295 h 31.7578 v 99.5508 h -31.7578 z"
         style="fill:#e4edf6;fill-opacity:1;fill-rule:nonzero;stroke:none"
         id="path10088"
         inkscape:connector-curvature="0" /><path
         d="m 1947.9141,2548.5495 c 0,-5.33 -4.906,-9.64 -10.965,-9.64 -6.058,0 -10.973,4.31 -10.973,9.64 0,5.33 4.915,9.65 10.973,9.65 6.059,0 10.965,-4.32 10.965,-9.65"
         style="fill:#3355ae;fill-opacity:1;fill-rule:nonzero;stroke:none"
         id="path10090"
         inkscape:connector-curvature="0" /><path
         d="m 1936.9491,2555.6995 c -4.672,0 -8.473,-3.2 -8.473,-7.15 0,-3.94 3.801,-7.14 8.473,-7.14 4.668,0 8.465,3.2 8.465,7.14 0,3.95 -3.797,7.15 -8.465,7.15 m 0,-19.29 c -7.43,0 -13.473,5.45 -13.473,12.14 0,6.7 6.043,12.15 13.473,12.15 7.426,0 13.465,-5.45 13.465,-12.15 0,-6.69 -6.039,-12.14 -13.465,-12.14"
         style="fill:#fbeaf2;fill-opacity:1;fill-rule:nonzero;stroke:none"
         id="path10092"
         inkscape:connector-curvature="0" /><path
         d="m 1958.4181,2504.7295 h 5.1953 v 218.98 h -5.1953 z"
         style="fill:#ac401f;fill-opacity:1;fill-rule:nonzero;stroke:none"
         id="path10094"
         inkscape:connector-curvature="0" /><path
         d="m 1914.3321,2504.7295 h -4.051 v 218.98 h 4.051 v -218.98"
         style="fill:#ac401f;fill-opacity:1;fill-rule:nonzero;stroke:none"
         id="path10096"
         inkscape:connector-curvature="0" /><path
         d="m 1958.4181,2506.3895 h -27.043 l 2.004,30.45 c 1.137,-0.28 2.336,-0.43 3.57,-0.43 7.426,0 13.465,5.45 13.465,12.14 0,6.7 -6.039,12.15 -13.465,12.15 -0.683,0 -1.351,-0.04 -2.008,-0.13 l 3.535,53.66 h 14.254 v 99.55 h -7.699 l 0.653,9.93 h 12.734 v -217.32"
         style="fill:#c6511f;fill-opacity:1;fill-rule:nonzero;stroke:none"
         id="path10098"
         inkscape:connector-curvature="0" /><path
         d="m 1952.7301,2614.2295 h -14.254 l 6.555,99.55 h 7.699 v -99.55"
         style="fill:#c9daed;fill-opacity:1;fill-rule:nonzero;stroke:none"
         id="path10100"
         inkscape:connector-curvature="0" /><path
         d="m 1936.9491,2541.4095 c -1.144,0 -2.238,0.19 -3.234,0.54 l 0.886,13.48 c 0.747,0.18 1.536,0.27 2.348,0.27 4.668,0 8.465,-3.2 8.465,-7.15 0,-3.94 -3.797,-7.14 -8.465,-7.14"
         style="fill:#2e4fa9;fill-opacity:1;fill-rule:nonzero;stroke:none"
         id="path10102"
         inkscape:connector-curvature="0" /><path
         d="m 1936.9491,2536.4095 c -1.234,0 -2.433,0.15 -3.57,0.43 l 0.336,5.11 c 0.996,-0.35 2.09,-0.54 3.234,-0.54 4.668,0 8.465,3.2 8.465,7.14 0,3.95 -3.797,7.15 -8.465,7.15 -0.812,0 -1.601,-0.09 -2.348,-0.27 l 0.34,5.14 c 0.657,0.09 1.325,0.13 2.008,0.13 7.426,0 13.465,-5.45 13.465,-12.15 0,-6.69 -6.039,-12.14 -13.465,-12.14"
         style="fill:#dfd8e9;fill-opacity:1;fill-rule:nonzero;stroke:none"
         id="path10104"
         inkscape:connector-curvature="0" /><path
         d="m 1963.5551,2506.3895 h -5.137 v 217.32 h 5.195 l -0.058,-217.32"
         style="fill:#963b1d;fill-opacity:1;fill-rule:nonzero;stroke:none"
         id="path10106"
         inkscape:connector-curvature="0" /><path
         d="m 1963.6131,2504.7295 h 53.3281 v 218.98 h -53.3281 z"
         style="fill:#4a7fc9;fill-opacity:1;fill-rule:nonzero;stroke:none"
         id="path10108"
         inkscape:connector-curvature="0" /><path
         d="m 1974.3011,2614.2295 h 31.7578 v 99.5508 h -31.7578 z"
         style="fill:#e4edf6;fill-opacity:1;fill-rule:nonzero;stroke:none"
         id="path10110"
         inkscape:connector-curvature="0" /><path
         d="m 2001.2461,2548.5495 c 0,-5.33 -4.906,-9.64 -10.969,-9.64 -6.058,0 -10.968,4.31 -10.968,9.64 0,5.33 4.91,9.65 10.968,9.65 6.063,0 10.969,-4.32 10.969,-9.65"
         style="fill:#3355ae;fill-opacity:1;fill-rule:nonzero;stroke:none"
         id="path10112"
         inkscape:connector-curvature="0" /><path
         d="m 1990.2771,2555.6995 c -4.672,0 -8.468,-3.2 -8.468,-7.15 0,-3.94 3.796,-7.14 8.468,-7.14 4.668,0 8.469,3.2 8.469,7.14 0,3.95 -3.801,7.15 -8.469,7.15 m 0,-19.29 c -7.426,0 -13.472,5.45 -13.472,12.14 0,6.7 6.046,12.15 13.472,12.15 7.43,0 13.469,-5.45 13.469,-12.15 0,-6.69 -6.039,-12.14 -13.469,-12.14"
         style="fill:#fbeaf2;fill-opacity:1;fill-rule:nonzero;stroke:none"
         id="path10114"
         inkscape:connector-curvature="0" /><path
         d="m 2011.7421,2504.7295 h 5.1992 v 218.98 h -5.1992 z"
         style="fill:#3355ae;fill-opacity:1;fill-rule:nonzero;stroke:none"
         id="path10116"
         inkscape:connector-curvature="0" /><path
         d="m 1967.6601,2504.7295 h -4.047 v 218.98 h 4.047 v -218.98"
         style="fill:#3355ae;fill-opacity:1;fill-rule:nonzero;stroke:none"
         id="path10118"
         inkscape:connector-curvature="0" /><path
         d="m 2011.7421,2506.3895 h -27.004 l 2.645,30.3 c 0.929,-0.19 1.902,-0.28 2.894,-0.28 7.43,0 13.469,5.45 13.469,12.14 0,6.7 -6.039,12.15 -13.469,12.15 -0.269,0 -0.539,0 -0.804,-0.02 l 4.668,53.55 h 11.918 v 99.55 h -3.239 l 0.867,9.93 h 8.055 v -217.32"
         style="fill:#4475c3;fill-opacity:1;fill-rule:nonzero;stroke:none"
         id="path10120"
         inkscape:connector-curvature="0" /><path
         d="m 2006.0591,2614.2295 h -11.918 l 8.679,99.55 h 3.239 v -99.55"
         style="fill:#c9daed;fill-opacity:1;fill-rule:nonzero;stroke:none"
         id="path10122"
         inkscape:connector-curvature="0" /><path
         d="m 1990.2771,2541.4095 c -0.855,0 -1.679,0.1 -2.457,0.3 l 1.211,13.92 c 0.406,0.05 0.824,0.07 1.246,0.07 4.668,0 8.469,-3.2 8.469,-7.15 0,-3.94 -3.801,-7.14 -8.469,-7.14"
         style="fill:#2e4fa9;fill-opacity:1;fill-rule:nonzero;stroke:none"
         id="path10124"
         inkscape:connector-curvature="0" /><path
         d="m 1990.2771,2536.4095 c -0.992,0 -1.965,0.09 -2.894,0.28 l 0.437,5.02 c 0.778,-0.2 1.602,-0.3 2.457,-0.3 4.668,0 8.469,3.2 8.469,7.14 0,3.95 -3.801,7.15 -8.469,7.15 -0.422,0 -0.84,-0.02 -1.246,-0.07 l 0.442,5.05 c 0.265,0.02 0.535,0.02 0.804,0.02 7.43,0 13.469,-5.45 13.469,-12.15 0,-6.69 -6.039,-12.14 -13.469,-12.14"
         style="fill:#dfd8e9;fill-opacity:1;fill-rule:nonzero;stroke:none"
         id="path10126"
         inkscape:connector-curvature="0" /><path
         d="m 2012.4651,2506.3895 h -0.723 v 217.32 h 5.199 -4.476 v -217.32"
         style="fill:#2e4fa9;fill-opacity:1;fill-rule:nonzero;stroke:none"
         id="path10128"
         inkscape:connector-curvature="0" /><path
         d="m 2012.4651,2504.7295 h 53.3242 v 218.98 h -53.3242 z"
         style="fill:#4a7fc9;fill-opacity:1;fill-rule:nonzero;stroke:none"
         id="path10130"
         inkscape:connector-curvature="0" /><path
         d="m 2023.1441,2614.2295 h 31.7695 v 99.5508 h -31.7695 z"
         style="fill:#e4edf6;fill-opacity:1;fill-rule:nonzero;stroke:none"
         id="path10132"
         inkscape:connector-curvature="0" /><path
         d="m 2050.0981,2548.5495 c 0,-5.33 -4.914,-9.64 -10.965,-9.64 -6.059,0 -10.969,4.31 -10.969,9.64 0,5.33 4.91,9.65 10.969,9.65 6.051,0 10.965,-4.32 10.965,-9.65"
         style="fill:#3355ae;fill-opacity:1;fill-rule:nonzero;stroke:none"
         id="path10134"
         inkscape:connector-curvature="0" /><path
         d="m 2039.1331,2555.6995 c -4.668,0 -8.469,-3.2 -8.469,-7.15 0,-3.94 3.801,-7.14 8.469,-7.14 4.664,0 8.465,3.2 8.465,7.14 0,3.95 -3.801,7.15 -8.465,7.15 m 0,-19.29 c -7.43,0 -13.469,5.45 -13.469,12.14 0,6.7 6.039,12.15 13.469,12.15 7.426,0 13.465,-5.45 13.465,-12.15 0,-6.69 -6.039,-12.14 -13.465,-12.14"
         style="fill:#fbeaf2;fill-opacity:1;fill-rule:nonzero;stroke:none"
         id="path10136"
         inkscape:connector-curvature="0" /><path
         d="m 2060.5981,2504.7295 h 5.1914 v 218.98 h -5.1914 z"
         style="fill:#3355ae;fill-opacity:1;fill-rule:nonzero;stroke:none"
         id="path10138"
         inkscape:connector-curvature="0" /><path
         d="m 2016.5161,2504.7295 h -4.051 v 218.98 h 4.051 v -218.98"
         style="fill:#3355ae;fill-opacity:1;fill-rule:nonzero;stroke:none"
         id="path10140"
         inkscape:connector-curvature="0" /><path
         d="m 2060.5981,2506.3895 h -27.016 l 2.644,30.3 c 0.938,-0.19 1.907,-0.28 2.907,-0.28 7.426,0 13.465,5.45 13.465,12.14 0,6.7 -6.039,12.15 -13.465,12.15 -0.274,0 -0.547,0 -0.817,-0.02 l 4.672,53.55 h 11.926 v 99.55 h -3.242 l 0.867,9.93 h 8.059 v -217.32"
         style="fill:#4475c3;fill-opacity:1;fill-rule:nonzero;stroke:none"
         id="path10142"
         inkscape:connector-curvature="0" /><path
         d="m 2054.9141,2614.2295 h -11.926 l 8.684,99.55 h 3.242 v -99.55"
         style="fill:#c9daed;fill-opacity:1;fill-rule:nonzero;stroke:none"
         id="path10144"
         inkscape:connector-curvature="0" /><path
         d="m 2039.1331,2541.4095 c -0.86,0 -1.688,0.11 -2.469,0.31 l 1.215,13.91 c 0.406,0.05 0.828,0.07 1.254,0.07 4.664,0 8.465,-3.2 8.465,-7.15 0,-3.94 -3.801,-7.14 -8.465,-7.14"
         style="fill:#2e4fa9;fill-opacity:1;fill-rule:nonzero;stroke:none"
         id="path10146"
         inkscape:connector-curvature="0" /><path
         d="m 2039.1331,2536.4095 c -1,0 -1.969,0.09 -2.907,0.28 l 0.438,5.03 c 0.781,-0.2 1.609,-0.31 2.469,-0.31 4.664,0 8.465,3.2 8.465,7.14 0,3.95 -3.801,7.15 -8.465,7.15 -0.426,0 -0.848,-0.02 -1.254,-0.07 l 0.437,5.05 c 0.27,0.02 0.543,0.02 0.817,0.02 7.426,0 13.465,-5.45 13.465,-12.15 0,-6.69 -6.039,-12.14 -13.465,-12.14"
         style="fill:#dfd8e9;fill-opacity:1;fill-rule:nonzero;stroke:none"
         id="path10148"
         inkscape:connector-curvature="0" /><path
         d="m 2065.7381,2506.3895 h -5.14 v 217.32 h 5.191 l -0.051,-217.32"
         style="fill:#2e4fa9;fill-opacity:1;fill-rule:nonzero;stroke:none"
         id="path10150"
         inkscape:connector-curvature="0" /><path
         d="m 2065.7891,2504.7295 h 53.332 v 218.98 h -53.332 z"
         style="fill:#4a7fc9;fill-opacity:1;fill-rule:nonzero;stroke:none"
         id="path10152"
         inkscape:connector-curvature="0" /><path
         d="m 2076.4801,2614.2295 h 31.7578 v 99.5508 h -31.7578 z"
         style="fill:#e4edf6;fill-opacity:1;fill-rule:nonzero;stroke:none"
         id="path10154"
         inkscape:connector-curvature="0" /><path
         d="m 2103.4301,2548.5495 c 0,-5.33 -4.914,-9.64 -10.973,-9.64 -6.055,0 -10.969,4.31 -10.969,9.64 0,5.33 4.914,9.65 10.969,9.65 6.059,0 10.973,-4.32 10.973,-9.65"
         style="fill:#3355ae;fill-opacity:1;fill-rule:nonzero;stroke:none"
         id="path10156"
         inkscape:connector-curvature="0" /><path
         d="m 2092.4571,2555.6995 c -4.668,0 -8.469,-3.2 -8.469,-7.15 0,-3.94 3.801,-7.14 8.469,-7.14 4.672,0 8.473,3.2 8.473,7.14 0,3.95 -3.801,7.15 -8.473,7.15 m 0,-19.29 c -7.43,0 -13.469,5.45 -13.469,12.14 0,6.7 6.039,12.15 13.469,12.15 7.426,0 13.473,-5.45 13.473,-12.15 0,-6.69 -6.047,-12.14 -13.473,-12.14"
         style="fill:#fbeaf2;fill-opacity:1;fill-rule:nonzero;stroke:none"
         id="path10158"
         inkscape:connector-curvature="0" /><path
         d="m 2113.9261,2504.7295 h 5.1953 v 218.98 h -5.1953 z"
         style="fill:#3355ae;fill-opacity:1;fill-rule:nonzero;stroke:none"
         id="path10160"
         inkscape:connector-curvature="0" /><path
         d="m 2069.8441,2504.7295 h -4.051 v 218.98 h 4.051 v -218.98"
         style="fill:#3355ae;fill-opacity:1;fill-rule:nonzero;stroke:none"
         id="path10162"
         inkscape:connector-curvature="0" /><path
         d="m 2113.9261,2506.3895 h -27.008 l 2.641,30.3 c 0.933,-0.19 1.902,-0.28 2.898,-0.28 7.426,0 13.473,5.45 13.473,12.14 0,6.7 -6.047,12.15 -13.473,12.15 -0.27,0 -0.539,0 -0.805,-0.02 l 4.668,53.55 h 11.918 v 99.55 h -3.234 l 0.863,9.93 h 8.059 v -217.32"
         style="fill:#4475c3;fill-opacity:1;fill-rule:nonzero;stroke:none"
         id="path10164"
         inkscape:connector-curvature="0" /><path
         d="m 2108.2381,2614.2295 h -11.918 l 8.684,99.55 h 3.234 v -99.55"
         style="fill:#c9daed;fill-opacity:1;fill-rule:nonzero;stroke:none"
         id="path10166"
         inkscape:connector-curvature="0" /><path
         d="m 2092.4571,2541.4095 c -0.856,0 -1.68,0.1 -2.461,0.31 l 1.215,13.91 c 0.406,0.05 0.82,0.07 1.246,0.07 4.672,0 8.473,-3.2 8.473,-7.15 0,-3.94 -3.801,-7.14 -8.473,-7.14"
         style="fill:#2e4fa9;fill-opacity:1;fill-rule:nonzero;stroke:none"
         id="path10168"
         inkscape:connector-curvature="0" /><path
         d="m 2092.4571,2536.4095 c -0.996,0 -1.965,0.09 -2.898,0.28 l 0.437,5.03 c 0.781,-0.21 1.605,-0.31 2.461,-0.31 4.672,0 8.473,3.2 8.473,7.14 0,3.95 -3.801,7.15 -8.473,7.15 -0.426,0 -0.84,-0.02 -1.246,-0.07 l 0.441,5.05 c 0.266,0.02 0.535,0.02 0.805,0.02 7.426,0 13.473,-5.45 13.473,-12.15 0,-6.69 -6.047,-12.14 -13.473,-12.14"
         style="fill:#dfd8e9;fill-opacity:1;fill-rule:nonzero;stroke:none"
         id="path10170"
         inkscape:connector-curvature="0" /><path
         d="m 2119.0661,2506.3895 h -5.14 v 217.32 h 5.195 l -0.055,-217.32"
         style="fill:#2e4fa9;fill-opacity:1;fill-rule:nonzero;stroke:none"
         id="path10172"
         inkscape:connector-curvature="0" /><path
         d="m 2119.1211,2504.7295 h 53.3281 v 218.98 h -53.3281 z"
         style="fill:#4a7fc9;fill-opacity:1;fill-rule:nonzero;stroke:none"
         id="path10174"
         inkscape:connector-curvature="0" /><path
         d="m 2129.8091,2614.2295 h 31.7578 v 99.5508 h -31.7578 z"
         style="fill:#e4edf6;fill-opacity:1;fill-rule:nonzero;stroke:none"
         id="path10176"
         inkscape:connector-curvature="0" /><path
         d="m 2156.7541,2548.5495 c 0,-5.33 -4.906,-9.64 -10.969,-9.64 -6.059,0 -10.973,4.31 -10.973,9.64 0,5.33 4.914,9.65 10.973,9.65 6.063,0 10.969,-4.32 10.969,-9.65"
         style="fill:#3355ae;fill-opacity:1;fill-rule:nonzero;stroke:none"
         id="path10178"
         inkscape:connector-curvature="0" /><path
         d="m 2145.7851,2555.6995 c -4.672,0 -8.469,-3.2 -8.469,-7.15 0,-3.94 3.797,-7.14 8.469,-7.14 4.668,0 8.469,3.2 8.469,7.14 0,3.95 -3.801,7.15 -8.469,7.15 m 0,-19.29 c -7.426,0 -13.473,5.45 -13.473,12.14 0,6.7 6.047,12.15 13.473,12.15 7.426,0 13.469,-5.45 13.469,-12.15 0,-6.69 -6.043,-12.14 -13.469,-12.14"
         style="fill:#fbeaf2;fill-opacity:1;fill-rule:nonzero;stroke:none"
         id="path10180"
         inkscape:connector-curvature="0" /><path
         d="m 2167.2501,2504.7295 h 5.1992 v 218.98 h -5.1992 z"
         style="fill:#3355ae;fill-opacity:1;fill-rule:nonzero;stroke:none"
         id="path10182"
         inkscape:connector-curvature="0" /><path
         d="m 2123.1761,2504.7295 h -4.055 v 218.98 h 4.055 v -218.98"
         style="fill:#3355ae;fill-opacity:1;fill-rule:nonzero;stroke:none"
         id="path10184"
         inkscape:connector-curvature="0" /><path
         d="m 2167.2501,2506.3895 h -27.004 l 2.645,30.3 c 0.929,-0.19 1.902,-0.28 2.894,-0.28 7.426,0 13.469,5.45 13.469,12.14 0,6.7 -6.043,12.15 -13.469,12.15 -0.269,0 -0.535,0 -0.805,-0.02 l 4.672,53.55 h 11.914 v 99.55 h -3.234 l 0.867,9.93 h 8.051 v -217.32"
         style="fill:#4475c3;fill-opacity:1;fill-rule:nonzero;stroke:none"
         id="path10186"
         inkscape:connector-curvature="0" /><path
         d="m 2161.5661,2614.2295 h -11.914 l 8.68,99.55 h 3.234 v -99.55"
         style="fill:#c9daed;fill-opacity:1;fill-rule:nonzero;stroke:none"
         id="path10188"
         inkscape:connector-curvature="0" /><path
         d="m 2145.7851,2541.4095 c -0.855,0 -1.68,0.1 -2.457,0.3 l 1.211,13.92 c 0.406,0.05 0.824,0.07 1.246,0.07 4.668,0 8.469,-3.2 8.469,-7.15 0,-3.94 -3.801,-7.14 -8.469,-7.14"
         style="fill:#2e4fa9;fill-opacity:1;fill-rule:nonzero;stroke:none"
         id="path10190"
         inkscape:connector-curvature="0" /><path
         d="m 2145.7851,2536.4095 c -0.992,0 -1.965,0.09 -2.894,0.28 l 0.437,5.02 c 0.777,-0.2 1.602,-0.3 2.457,-0.3 4.668,0 8.469,3.2 8.469,7.14 0,3.95 -3.801,7.15 -8.469,7.15 -0.422,0 -0.84,-0.02 -1.246,-0.07 l 0.441,5.05 c 0.27,0.02 0.536,0.02 0.805,0.02 7.426,0 13.469,-5.45 13.469,-12.15 0,-6.69 -6.043,-12.14 -13.469,-12.14"
         style="fill:#dfd8e9;fill-opacity:1;fill-rule:nonzero;stroke:none"
         id="path10192"
         inkscape:connector-curvature="0" /><path
         d="m 2167.9731,2506.3895 h -0.723 v 217.32 h 5.199 -4.476 v -217.32"
         style="fill:#2e4fa9;fill-opacity:1;fill-rule:nonzero;stroke:none"
         id="path10194"
         inkscape:connector-curvature="0" /><path
         d="m 2167.9731,2504.7295 h 53.332 v 218.98 h -53.332 z"
         style="fill:#4a7fc9;fill-opacity:1;fill-rule:nonzero;stroke:none"
         id="path10196"
         inkscape:connector-curvature="0" /><path
         d="m 2178.6561,2614.2295 h 31.7656 v 99.5508 h -31.7656 z"
         style="fill:#e4edf6;fill-opacity:1;fill-rule:nonzero;stroke:none"
         id="path10198"
         inkscape:connector-curvature="0" /><path
         d="m 2205.6091,2548.5495 c 0,-5.33 -4.91,-9.64 -10.972,-9.64 -6.051,0 -10.965,4.31 -10.965,9.64 0,5.33 4.914,9.65 10.965,9.65 6.062,0 10.972,-4.32 10.972,-9.65"
         style="fill:#3355ae;fill-opacity:1;fill-rule:nonzero;stroke:none"
         id="path10200"
         inkscape:connector-curvature="0" /><path
         d="m 2194.6371,2555.6995 c -4.664,0 -8.465,-3.2 -8.465,-7.15 0,-3.94 3.801,-7.14 8.465,-7.14 4.675,0 8.472,3.2 8.472,7.14 0,3.95 -3.797,7.15 -8.472,7.15 m 0,-19.29 c -7.426,0 -13.465,5.45 -13.465,12.14 0,6.7 6.039,12.15 13.465,12.15 7.429,0 13.472,-5.45 13.472,-12.15 0,-6.69 -6.043,-12.14 -13.472,-12.14"
         style="fill:#fbeaf2;fill-opacity:1;fill-rule:nonzero;stroke:none"
         id="path10202"
         inkscape:connector-curvature="0" /><path
         d="m 2216.1091,2504.7295 h 5.1953 v 218.98 h -5.1953 z"
         style="fill:#3355ae;fill-opacity:1;fill-rule:nonzero;stroke:none"
         id="path10204"
         inkscape:connector-curvature="0" /><path
         d="m 2172.0191,2504.7295 h -4.046 v 218.98 h 4.046 v -218.98"
         style="fill:#3355ae;fill-opacity:1;fill-rule:nonzero;stroke:none"
         id="path10206"
         inkscape:connector-curvature="0" /><path
         d="m 2216.1091,2506.3895 h -27.015 l 2.644,30.3 c 0.934,-0.19 1.903,-0.28 2.899,-0.28 7.429,0 13.472,5.45 13.472,12.14 0,6.7 -6.043,12.15 -13.472,12.15 -0.27,0 -0.539,0 -0.805,-0.02 l 4.668,53.55 h 11.922 v 99.55 h -3.242 l 0.867,9.93 h 8.062 v -217.32"
         style="fill:#4475c3;fill-opacity:1;fill-rule:nonzero;stroke:none"
         id="path10208"
         inkscape:connector-curvature="0" /><path
         d="m 2210.4221,2614.2295 h -11.922 l 8.68,99.55 h 3.242 v -99.55"
         style="fill:#c9daed;fill-opacity:1;fill-rule:nonzero;stroke:none"
         id="path10210"
         inkscape:connector-curvature="0" /><path
         d="m 2194.6371,2541.4095 c -0.856,0 -1.68,0.1 -2.461,0.31 l 1.215,13.91 c 0.406,0.05 0.824,0.07 1.246,0.07 4.675,0 8.472,-3.2 8.472,-7.15 0,-3.94 -3.797,-7.14 -8.472,-7.14"
         style="fill:#2e4fa9;fill-opacity:1;fill-rule:nonzero;stroke:none"
         id="path10212"
         inkscape:connector-curvature="0" /><path
         d="m 2194.6371,2536.4095 c -0.996,0 -1.965,0.09 -2.899,0.28 l 0.438,5.03 c 0.781,-0.21 1.605,-0.31 2.461,-0.31 4.675,0 8.472,3.2 8.472,7.14 0,3.95 -3.797,7.15 -8.472,7.15 -0.422,0 -0.84,-0.02 -1.246,-0.07 l 0.441,5.05 c 0.266,0.02 0.535,0.02 0.805,0.02 7.429,0 13.472,-5.45 13.472,-12.15 0,-6.69 -6.043,-12.14 -13.472,-12.14"
         style="fill:#dfd8e9;fill-opacity:1;fill-rule:nonzero;stroke:none"
         id="path10214"
         inkscape:connector-curvature="0" /><path
         d="m 2221.2461,2506.3895 h -5.137 v 217.32 h 5.196 l -0.059,-217.32"
         style="fill:#2e4fa9;fill-opacity:1;fill-rule:nonzero;stroke:none"
         id="path10216"
         inkscape:connector-curvature="0" /><path
         d="m 1874.7301,2497.6995 h 507.422 v 8.6953 h -507.422 z"
         style="fill:#36607d;fill-opacity:1;fill-rule:nonzero;stroke:none"
         id="path10218"
         inkscape:connector-curvature="0" /><path
         d="m 1879.1251,2019.7895 h 503.027 v 223.371 h -503.027 z"
         style="fill:#6795ae;fill-opacity:1;fill-rule:nonzero;stroke:none"
         id="path10220"
         inkscape:connector-curvature="0" /><path
         d="m 2126.2381,2019.7895 h 4.4023 v 223.371 h -4.4023 z"
         style="fill:#436b8c;fill-opacity:1;fill-rule:nonzero;stroke:none"
         id="path10222"
         inkscape:connector-curvature="0" /><path
         d="m 1874.7301,2009.2295 h 503.027 v 10.5586 h -503.027 z"
         style="fill:#4e7a9d;fill-opacity:1;fill-rule:nonzero;stroke:none"
         id="path10224"
         inkscape:connector-curvature="0" /><path
         d="m 2377.7581,2009.2295 h -231.973 231.973 v 10.56 h -230.153 230.2 l -0.047,-10.56"
         style="fill:#436b8c;fill-opacity:1;fill-rule:nonzero;stroke:none"
         id="path10226"
         inkscape:connector-curvature="0" /><path
         d="m 2378.7661,2243.1595 h -1.008 v 102.97 c 0.5,1.43 0.992,2.87 1.465,4.32 l -0.457,-107.29"
         style="fill:#34577b;fill-opacity:1;fill-rule:nonzero;stroke:none"
         id="path10228"
         inkscape:connector-curvature="0" /><path
         d="m 2113.9261,2135.4895 c 0,-4.86 -3.594,-8.8 -8.024,-8.8 -4.437,0 -8.035,3.94 -8.035,8.8 0,4.85 3.598,8.79 8.035,8.79 4.43,0 8.024,-3.94 8.024,-8.79"
         style="fill:#4e7a9d;fill-opacity:1;fill-rule:nonzero;stroke:none"
         id="path10246"
         inkscape:connector-curvature="0" /><path
         d="m 2159.9571,2136.3695 c 0,-4.38 -3.043,-7.92 -6.797,-7.92 -3.75,0 -6.793,3.54 -6.793,7.92 0,4.37 3.043,7.91 6.793,7.91 3.754,0 6.797,-3.54 6.797,-7.91"
         style="fill:#4e7a9d;fill-opacity:1;fill-rule:nonzero;stroke:none"
         id="path10248"
         inkscape:connector-curvature="0" /><path
         d="m 2239.2461,2723.1495 c -11.426,4.99 -22.488,10.75 -33.543,17.24 -9.59,5.63 -22.398,6.92 -30.664,13.74 -2.352,1.94 -3.465,3.77 -6.441,4.78 -3.282,1.12 -6.602,-0.33 -8.895,2.72 -0.887,1.19 -0.598,2.61 -0.594,3.9 h 0.274 c 0,-1.29 -0.293,-2.71 0.597,-3.9 2.289,-3.05 5.61,-1.6 8.887,-2.72 2.977,-1.02 4.094,-2.83 6.453,-4.78 8.258,-6.82 21.078,-8.1 30.656,-13.74 10.985,-6.44 21.977,-12.17 33.321,-17.14 -0.016,-0.03 -0.035,-0.07 -0.051,-0.1"
         style="fill:#305476;fill-opacity:1;fill-rule:nonzero;stroke:none"
         id="path10256"
         inkscape:connector-curvature="0" /><path
         d="m 2159.3831,2765.5295 h -0.274 c 0.01,1 -0.156,1.92 -1.16,2.58 -0.789,0.52 -1.637,0.67 -2.515,0.68 0.066,0 0.128,0 0.195,0 0.906,0 1.777,-0.14 2.59,-0.68 1.004,-0.66 1.168,-1.58 1.164,-2.58"
         style="fill:#5c90aa;fill-opacity:1;fill-rule:nonzero;stroke:none"
         id="path10258"
         inkscape:connector-curvature="0" /><path
         d="m 2124.8791,2811.0295 c -0.149,0.29 -0.297,0.59 -0.442,0.88 l 0.18,0.19 c 0.121,-0.24 0.242,-0.49 0.367,-0.73 l -0.105,-0.34"
         style="fill:#467697;fill-opacity:1;fill-rule:nonzero;stroke:none"
         id="path10260"
         inkscape:connector-curvature="0" /><path
         d="m 2138.4491,2787.4095 h -0.273 c -1.418,2.24 -2.813,4.48 -4.149,6.77 -3.179,5.46 -6.254,11.11 -9.148,16.85 l 0.105,0.34 c 2.946,-5.86 6.078,-11.62 9.328,-17.19 1.332,-2.28 2.723,-4.53 4.137,-6.77"
         style="fill:#305476;fill-opacity:1;fill-rule:nonzero;stroke:none"
         id="path10262"
         inkscape:connector-curvature="0" /><path
         d="m 2151.9451,2768.5695 c -1.34,0 -2.687,0.3 -3.961,1.58 -1.183,1.17 -2.57,5.82 -3.66,7.59 -2.012,3.25 -4.101,6.44 -6.148,9.67 h 0.273 c 2.047,-3.22 4.137,-6.42 6.156,-9.67 1.082,-1.77 2.477,-6.41 3.657,-7.59 1.273,-1.28 2.621,-1.58 3.964,-1.58 -0.093,0 -0.187,0 -0.281,0"
         style="fill:#5c90aa;fill-opacity:1;fill-rule:nonzero;stroke:none"
         id="path10264"
         inkscape:connector-curvature="0" /><path
         d="m 2292.6521,2810.1695 c 0.293,0.22 0.528,0.42 0.758,0.59 -0.047,-0.1 -0.094,-0.2 -0.141,-0.31 l -0.617,-0.28 m 58.934,2.4 c -0.242,0.31 -0.477,0.61 -0.703,0.93 -0.196,0.27 -0.375,0.57 -0.543,0.89 0.168,0.2 0.328,0.4 0.48,0.61 0.356,-0.96 0.614,-1.75 0.766,-2.43 m -0.766,2.43 c -0.011,0.02 -0.019,0.05 -0.027,0.07 l 0.062,-0.03 c -0.011,-0.01 -0.023,-0.03 -0.035,-0.04"
         style="fill:#233e5c;fill-opacity:1;fill-rule:nonzero;stroke:none"
         id="path10286"
         inkscape:connector-curvature="0" /><path
         d="m 2293.7731,2812.3595 0.731,0.17 v 0.02 z"
         style="fill:#e5f6f6;fill-opacity:1;fill-rule:nonzero;stroke:none"
         id="path10294"
         inkscape:connector-curvature="0" /><path
         d="m 2260.7811,2573.5895 c -0.01,0 -0.015,0 -0.023,0 -5.965,2.47 -10.309,6.67 -11.074,13.9 -0.149,1.4 -0.231,2.72 -0.231,3.96 0,-1.24 0.082,-2.55 0.231,-3.96 0.769,-7.24 5.121,-11.43 11.097,-13.9 m 1.891,41.67 c -0.01,2.56 -1.192,5.35 -3.125,8.59 -1.133,1.89 -1.559,3.37 -1.559,4.6 0,-1.23 0.426,-2.71 1.559,-4.6 1.937,-3.24 3.117,-6.03 3.125,-8.59"
         style="fill:#233e5c;fill-opacity:1;fill-rule:nonzero;stroke:none"
         id="path10302"
         inkscape:connector-curvature="0" /><path
         d="m 2255.9411,2647.4895 c -0.91,2.07 -1.574,4.22 -1.57,6.15 0,-1.93 0.66,-4.07 1.57,-6.14 v -0.01"
         style="fill:#305476;fill-opacity:1;fill-rule:nonzero;stroke:none"
         id="path10304"
         inkscape:connector-curvature="0" /><path
         d="m 2261.4221,2636.4295 c 0,0.93 -0.321,2.01 -1.145,3.35 -1.078,1.73 -2.98,4.63 -4.336,7.71 v 0.01 c 1.356,-3.08 3.258,-5.99 4.336,-7.72 0.828,-1.34 1.145,-2.42 1.145,-3.35"
         style="fill:#233e5c;fill-opacity:1;fill-rule:nonzero;stroke:none"
         id="path10306"
         inkscape:connector-curvature="0" /><path
         d="m 2258.8711,2664.4695 c -3.695,6.35 -11.012,12.12 -14.914,17.71 -5.449,7.79 -8.199,16.15 -8.195,25.04 0,-8.89 2.75,-17.25 8.195,-25.04 3.902,-5.58 11.219,-11.35 14.914,-17.71 v 0"
         style="fill:#305476;fill-opacity:1;fill-rule:nonzero;stroke:none"
         id="path10308"
         inkscape:connector-curvature="0" /><path
         d="m 2260.7931,2659.8695 c -0.379,1.57 -1.047,3.1 -1.922,4.6 v 0 c 0.875,-1.5 1.543,-3.03 1.922,-4.6 v 0"
         style="fill:#233e5c;fill-opacity:1;fill-rule:nonzero;stroke:none"
         id="path10310"
         inkscape:connector-curvature="0" /><path
         d="m 2313.5161,2724.4595 c -7.426,0 -14.571,0.84 -20.493,2.34 -4.636,1.18 -9.168,2.47 -13.609,3.86 0,0.02 0,0.06 0,0.08 4.531,-1.42 9.152,-2.74 13.883,-3.94 5.887,-1.49 12.972,-2.33 20.351,-2.34 -0.043,0 -0.086,0 -0.132,0"
         style="fill:#cbedea;fill-opacity:1;fill-rule:nonzero;stroke:none"
         id="path10320"
         inkscape:connector-curvature="0" /><path
         d="m 2253.1371,2740.4795 c -12.121,5.29 -23.809,11.43 -35.477,18.4 -9.539,5.71 -22.34,7.08 -30.555,13.97 -2.339,1.96 -3.433,3.78 -6.402,4.82 -3.277,1.14 -6.605,-0.27 -8.879,2.78 -1.551,2.12 0.59,4.96 -1.703,6.5 -0.785,0.52 -1.629,0.68 -2.504,0.7 0.047,0 0.094,0 0.141,0 0.926,0 1.812,-0.15 2.636,-0.7 2.297,-1.54 0.153,-4.38 1.715,-6.5 2.266,-3.05 5.598,-1.64 8.867,-2.78 2.965,-1.04 4.063,-2.86 6.407,-4.82 8.215,-6.89 21.011,-8.26 30.551,-13.97 11.609,-6.93 23.234,-13.05 35.285,-18.31 -0.028,-0.03 -0.055,-0.06 -0.082,-0.09"
         style="fill:#94d1c6;fill-opacity:1;fill-rule:nonzero;stroke:none"
         id="path10322"
         inkscape:connector-curvature="0" /><path
         d="m 2253.1371,2740.4795 v 0 c 0.027,0.03 0.054,0.06 0.082,0.09 v 0 c -0.028,-0.03 -0.059,-0.06 -0.086,-0.09"
         style="fill:#cbedea;fill-opacity:1;fill-rule:nonzero;stroke:none"
         id="path10324"
         inkscape:connector-curvature="0" /><path
         d="m 2145.7341,2814.8695 c -0.203,0.19 -0.394,0.38 -0.597,0.58 -2.164,3.84 -4.27,7.78 -6.293,11.77 l 0.179,0.19 c 2.157,-4.26 4.399,-8.44 6.711,-12.54"
         style="fill:#a7d7cd;fill-opacity:1;fill-rule:nonzero;stroke:none"
         id="path10326"
         inkscape:connector-curvature="0" /><path
         d="m 2164.1951,2787.4495 c -1.363,0 -2.734,0.29 -4.019,1.6 -1.168,1.2 -2.524,5.85 -3.594,7.62 -3.371,5.52 -6.957,10.91 -10.164,16.52 -0.43,0.75 -0.856,1.5 -1.281,2.26 0.203,-0.2 0.394,-0.39 0.597,-0.58 0.317,-0.56 0.637,-1.12 0.957,-1.68 3.215,-5.61 6.793,-11 10.164,-16.52 1.071,-1.77 2.422,-6.42 3.594,-7.62 1.242,-1.26 2.567,-1.58 3.887,-1.6 -0.047,0 -0.094,0 -0.141,0"
         style="fill:#94d1c6;fill-opacity:1;fill-rule:nonzero;stroke:none"
         id="path10328"
         inkscape:connector-curvature="0" /><path
         d="m 2138.8441,2827.2195 c -4.633,9.12 -8.848,18.52 -12.379,27.81 -3.285,8.64 -8.547,18.49 -11.477,27.92 l 0.192,0.11 c 2.937,-9.47 8.261,-19.36 11.562,-28.03 3.508,-9.22 7.688,-18.56 12.281,-27.62 l -0.179,-0.19"
         style="fill:#467cc8;fill-opacity:1;fill-rule:nonzero;stroke:none"
         id="path10330"
         inkscape:connector-curvature="0" /><path
         d="m 2279.4141,2730.6595 c -9.07,2.84 -17.781,6.12 -26.277,9.82 0.027,0.03 0.058,0.06 0.086,0.09 8.472,-3.71 17.152,-6.98 26.191,-9.83 0,-0.02 0,-0.06 0,-0.08"
         style="fill:#b5e6e1;fill-opacity:1;fill-rule:nonzero;stroke:none"
         id="path10332"
         inkscape:connector-curvature="0" /><path
         d="m 791.902,2596.89 c -1.687,0.81 -3.812,1.21 -5.629,1.77 -2.07,-3.31 -8.378,-0.81 -11.234,-2.24 -2.309,-1.17 -4.574,-2.69 -6.734,-4.06 -2.297,-1.49 -6.285,-2.47 -8.067,-4.51 -1.511,-1.73 -3.234,-6.02 -4.468,-8.32 -1.637,-3.07 -2.543,-6.27 -3.872,-9.44 -2.293,-5.44 -7.55,-8.16 -12.703,-10.47 -4.347,-1.95 -11.636,-1.59 -13.851,-6.25 -4.223,-8.83 -1.797,-17.47 4.301,-24.56 3.363,-3.92 7.363,-2.77 11.695,-0.75 4.496,2.09 9.129,3.46 13.683,5.31 3.649,1.5 6.438,0.84 10.387,0.55 4.746,-0.34 9.418,0.12 14.102,0.95 9.179,1.69 17.652,5.78 26.957,4.64 9.461,-1.15 20.929,-1.01 30.289,1.16 2.262,0.53 4.18,1.63 6.371,2.41 2.641,0.9 5.371,0.95 2.254,3.33 -3.621,2.75 -9.578,2.75 -14.035,2.74 -4.301,-0.03 -8.325,0.76 -12.543,1.37 -3.606,0.5 -7.211,0.61 -10.246,2.76 5.304,1.09 11.3,0.54 16.683,1.85 5.074,1.24 9.938,3.19 14.992,4.72 2.575,0.77 11.891,3.31 12.739,6.31 1.468,5.18 -9.297,2.3 -11.387,1.9 -6.371,-1.16 -11.867,-2.65 -18.356,-2.51 -4.933,0.11 -11.812,-0.86 -16.433,0.68 7.711,3.48 16.523,5.93 24.496,8.65 4.785,1.63 11.59,4.01 14.508,8.36 4.554,6.84 -9.262,1.97 -11.528,1.23 -6.914,-2.28 -14.316,-4.17 -21.476,-5.34 -3.035,-0.51 -11.774,-3.39 -14.313,-1.42 2.043,3.85 5.797,6.02 9.028,8.89 3.98,3.55 2.066,4.45 -0.422,8.1 -1.227,1.81 -0.973,2.74 -3.266,3.22 -1.429,0.28 -4.398,0.24 -5.855,-0.09 -4.375,-0.93 -4.59,-5.09 -0.11,-6.13 -3.703,-0.41 -6.953,-4.1 -10.355,-5.58 -2.43,-1.06 -8.207,-3.64 -10.524,-1.42 0.797,2.37 6.618,3.57 8.668,4.73 2.348,1.31 6.778,3.14 6.508,6.36 l -0.254,1.1"
         style="fill:#daaa50;fill-opacity:1;fill-rule:nonzero;stroke:none"
         id="path10724"
         inkscape:connector-curvature="0" /><path
         d="m 724.109,2561.47 c 3.395,2.99 8.114,2.94 12.274,3.43 2.965,-16.1 7.465,-33.25 14.183,-48.45 -3.609,0.1 -7.113,-1.97 -9.429,-4.47 -8.824,15.89 -15.446,34.16 -17.231,52.08 -1.269,-0.19 -0.23,-0.86 -0.683,-1.7 l 0.886,-0.89"
         style="fill:#ebf3bf;fill-opacity:1;fill-rule:nonzero;stroke:none"
         id="path10726"
         inkscape:connector-curvature="0" /><path
         d="m 744.867,2507.61 c -7.137,12.14 -13.097,24.47 -16.312,37.55 -1.153,2.4 -2.188,4.89 -2.989,7.5 -0.609,1.73 -1.046,3.51 -1.332,5.31 -0.761,3.64 -1.043,7.13 -1.132,10.57 -7.512,-3.49 -15.598,-7.07 -30,-12.37 -16.145,-5.99 -43.528,-24.54 -57.426,-26.26 -12.379,-1.53 -22.895,-9.91 -36.688,-8.06 -2.168,8.42 -11.765,10.27 -17.48,4.89 -29.074,23.53 -75.762,18.82 -107.66,59.99 h -6.653 c -22.195,9.02 -23.804,-26.25 -20.922,-39.58 5.231,-24.1 21.965,-46.51 37.145,-65.41 16.578,-20.63 42.461,-45.92 70.156,-45.16 16.223,0.41 26.285,7.17 41.172,12.96 32.957,12.76 67.387,23.73 101.344,33.2 15.613,4.36 33.226,11.11 49.433,18.92 -0.242,1.96 -0.449,3.96 -0.656,5.95"
         style="fill:#152d40;fill-opacity:1;fill-rule:nonzero;stroke:none"
         id="path10728"
         inkscape:connector-curvature="0" /><path
         d="m 644.215,2694.8 c -0.348,-3.16 -1.129,-5.97 -0.938,-9.24 0.161,-2.74 1.618,-4.93 2.051,-7.64 0.985,-6.26 -2,-13.32 -3.527,-19.28 -3.321,-13.02 0.726,-27.15 -6.231,-39.01 -1.554,-2.67 -3.734,-4.61 -5.312,-7.29 -1.738,-2.94 -3.278,-6.08 -5.199,-9 -1.961,-2.95 -4.09,-5.73 -6.059,-8.67 -0.84,-1.24 -4.613,-5 -4.469,-6.54 0.258,-2.56 8.125,-7.14 10.047,-8.34 6.965,-4.35 13.613,-7.22 21.707,-8.49 2.391,-0.38 2.715,-0.65 4.106,0.98 1.226,1.43 1.972,3.76 2.691,5.5 2.039,4.94 3.582,10.11 5.594,14.99 0.39,0.95 1.195,3.49 1.929,4.17 0.774,0.69 2.032,0.52 3.161,0.78 4.55,1.06 8.793,3.03 12.976,5.05 7.637,3.67 14.946,8.98 21.699,14.28 4.684,3.66 8.5,9.83 14.434,11.15 5.426,1.2 11.273,1.15 16.836,1.57 3.684,0.27 4.336,1.06 6.086,4.09 1.426,2.49 4.262,4.3 5.555,6.59 0.703,1.25 0.054,2.05 0.226,3.21 0.219,1.38 1.238,2.67 1.942,3.93 0.976,1.73 3.382,5.95 0.867,7.36 l -0.887,-1 c -0.723,4.18 4.688,8.46 6.715,11.48 1.523,2.27 7.594,7.11 5.566,10.27 -2.453,3.84 -8.73,-0.87 -10.918,-2.43 -4.57,-3.24 -7.968,-7.71 -11.445,-12.04 -5.703,-7.12 -15.277,-3.66 -23.102,-6.28 1.457,2.74 6.051,5.11 8.383,7.25 2.703,2.47 4.469,5.61 7.055,8.19 5.762,5.74 11.785,11.07 17.703,16.57 2.359,2.22 4.41,4.75 6.824,6.86 1.676,1.47 4.192,3.19 4.559,5.67 0.918,6.18 -7.953,3.64 -10.86,2.21 -11.089,-5.45 -19.91,-15.08 -29.656,-22.62 -6.941,-5.36 -14.32,-10.62 -21.496,-15.52 0.594,2.79 3.774,6.47 5.336,8.9 2.324,3.63 3.754,7.71 6.066,11.31 3.083,4.87 6.493,9.43 9.391,14.46 1.012,1.73 2.195,3.58 3.027,5.37 0.829,1.75 0.954,3.68 1.805,5.39 0.957,1.93 3.594,4.29 3.52,6.61 -0.059,1.97 -1.946,3.1 -3.496,3.18 -5.766,0.25 -10.008,-7.34 -13.332,-11.21 -9.383,-10.86 -16.489,-23.35 -25.274,-34.54 -3.172,-4.06 -5.555,-8.29 -10.672,-9.81 -4.293,-1.27 -8.066,0.15 -10.332,4.42 -3.359,6.32 -3.047,8.13 -3.996,14.69 -0.367,2.54 -2.66,10.78 -4.594,12.72 -2.718,2.7 -4.293,0.82 -6.3,-1.72 l 0.238,1.47"
         style="fill:#e8c880;fill-opacity:1;fill-rule:nonzero;stroke:none"
         id="path10730"
         inkscape:connector-curvature="0" /><path
         d="m 257.676,1870.92 h 15.133 v 50.41 h -15.133 v -50.41"
         style="fill:#20516b;fill-opacity:1;fill-rule:nonzero;stroke:none"
         id="path10732"
         inkscape:connector-curvature="0" /><path
         d="m 390.547,1862.23 h 15.121 v 50.41 h -15.121 v -50.41"
         style="fill:#20516b;fill-opacity:1;fill-rule:nonzero;stroke:none"
         id="path10734"
         inkscape:connector-curvature="0" /><path
         d="m 519.512,1877.2 h 15.136 v 50.39 h -15.136 v -50.39"
         style="fill:#20516b;fill-opacity:1;fill-rule:nonzero;stroke:none"
         id="path10736"
         inkscape:connector-curvature="0" /><path
         d="M 235.355,1924.79 H 545.73 v 264.2 H 235.355 v -264.2"
         style="fill:#4aa1be;fill-opacity:1;fill-rule:nonzero;stroke:none"
         id="path10738"
         inkscape:connector-curvature="0" /><path
         d="m 235.355,2188.99 c 0,-3.82 69.473,-6.93 155.192,-6.93 85.715,0 155.183,3.11 155.183,6.93 0,3.84 -69.468,6.97 -155.183,6.97 -85.719,0 -155.192,-3.13 -155.192,-6.97"
         style="fill:#20516b;fill-opacity:1;fill-rule:nonzero;stroke:none"
         id="path10740"
         inkscape:connector-curvature="0" /><path
         d="m 390.547,1946.09 c -85.719,0 -155.192,-8.28 -155.192,-18.5 0,-10.16 69.473,-18.44 155.192,-18.44 85.715,0 155.183,8.28 155.183,18.44 0,10.22 -69.468,18.5 -155.183,18.5"
         style="fill:#3789a7;fill-opacity:1;fill-rule:nonzero;stroke:none"
         id="path10742"
         inkscape:connector-curvature="0" /><path
         d="m 251.559,2175.98 c -4.789,0 -8.649,-4.66 -8.649,-10.44 v -221.61 c 0,-5.77 3.86,-10.44 8.649,-10.44 4.757,0 8.644,4.67 8.644,10.44 v 221.61 c 0,5.78 -3.887,10.44 -8.644,10.44"
         style="fill:#3584aa;fill-opacity:1;fill-rule:nonzero;stroke:none"
         id="path10744"
         inkscape:connector-curvature="0" /><path
         d="m 235.355,1953.84 v -29.05 h 2.004 c 11.442,-8.84 75.563,-15.64 153.188,-15.64 77.633,0 141.75,6.8 153.187,15.64 h 1.996 v 264.2 c 0,0.65 -2.085,1.26 -5.675,1.84 -44.895,-150.78 -171.996,-227.08 -304.7,-236.99"
         style="fill:#3789a7;fill-opacity:1;fill-rule:nonzero;stroke:none"
         id="path10746"
         inkscape:connector-curvature="0" /><path
         d="M 1221.19,2284.81 H 599.293 v 30.26 h 621.897 v -30.26"
         style="fill:#4aa1be;fill-opacity:1;fill-rule:nonzero;stroke:none"
         id="path10748"
         inkscape:connector-curvature="0" /><path
         d="m 905.961,1891.47 h -39.809 v 393.34 h 39.809 v -393.34"
         style="fill:#4aa1be;fill-opacity:1;fill-rule:nonzero;stroke:none"
         id="path10750"
         inkscape:connector-curvature="0" /><path
         d="M 1324.34,2333.99 H 534.836 c -38.152,-3.72 -60.07,-7.99 -60.07,-12.55 0,-13.98 203.629,-25.29 454.824,-25.29 251.18,0 454.82,11.31 454.82,25.29 0,4.56 -21.92,8.83 -60.07,12.55"
         style="fill:#4aa1be;fill-opacity:1;fill-rule:nonzero;stroke:none"
         id="path10752"
         inkscape:connector-curvature="0" /><path
         d="m 1016.63,1871.27 c -1.39,20.04 -59.267,36.15 -130.575,36.15 -71.309,0 -129.18,-16.11 -130.567,-36.15 h 261.142"
         style="fill:#4aa1be;fill-opacity:1;fill-rule:nonzero;stroke:none"
         id="path10754"
         inkscape:connector-curvature="0" /><path
         d="m 1425.58,1884.84 h 15.13 v 50.41 h -15.13 v -50.41"
         style="fill:#20516b;fill-opacity:1;fill-rule:nonzero;stroke:none"
         id="path10756"
         inkscape:connector-curvature="0" /><path
         d="m 1558.45,1876.13 h 15.11 v 50.41 h -15.11 v -50.41"
         style="fill:#20516b;fill-opacity:1;fill-rule:nonzero;stroke:none"
         id="path10758"
         inkscape:connector-curvature="0" /><path
         d="m 1687.41,1891.1 h 15.14 v 50.41 h -15.14 v -50.41"
         style="fill:#20516b;fill-opacity:1;fill-rule:nonzero;stroke:none"
         id="path10760"
         inkscape:connector-curvature="0" /><path
         d="m 1403.27,1938.69 h 310.37 v 264.21 h -310.37 v -264.21"
         style="fill:#4aa1be;fill-opacity:1;fill-rule:nonzero;stroke:none"
         id="path10762"
         inkscape:connector-curvature="0" /><path
         d="m 1403.27,2202.9 c 0,-3.83 69.46,-6.94 155.18,-6.94 85.72,0 155.19,3.11 155.19,6.94 0,3.84 -69.47,6.96 -155.19,6.96 -85.72,0 -155.18,-3.12 -155.18,-6.96"
         style="fill:#20516b;fill-opacity:1;fill-rule:nonzero;stroke:none"
         id="path10764"
         inkscape:connector-curvature="0" /><path
         d="m 1558.45,1959.98 c -85.72,0 -155.18,-8.26 -155.18,-18.47 0,-10.17 69.46,-18.45 155.18,-18.45 85.72,0 155.19,8.28 155.19,18.45 0,10.21 -69.47,18.47 -155.19,18.47"
         style="fill:#3789a7;fill-opacity:1;fill-rule:nonzero;stroke:none"
         id="path10766"
         inkscape:connector-curvature="0" /><path
         d="m 1419.46,2189.88 c -4.78,0 -8.64,-4.67 -8.64,-10.44 v -221.63 c 0,-5.74 3.86,-10.42 8.64,-10.42 4.77,0 8.64,4.68 8.64,10.42 v 221.63 c 0,5.77 -3.87,10.44 -8.64,10.44"
         style="fill:#3584aa;fill-opacity:1;fill-rule:nonzero;stroke:none"
         id="path10768"
         inkscape:connector-curvature="0" /><path
         d="m 1403.27,1967.74 v -29.05 h 2 c 11.44,-8.86 75.56,-15.63 153.18,-15.63 77.65,0 141.76,6.77 153.21,15.63 h 1.98 v 264.21 c 0,0.64 -2.08,1.24 -5.68,1.84 -44.9,-150.78 -171.98,-227.08 -304.69,-237"
         style="fill:#3789a7;fill-opacity:1;fill-rule:nonzero;stroke:none"
         id="path10770"
         inkscape:connector-curvature="0" /><path
         d="m 659.16,2335.13 210.805,-20.61 189.465,57.58 -173.594,7.42 -226.676,-44.39"
         style="fill:#80471b;fill-opacity:1;fill-rule:nonzero;stroke:none"
         id="path10772"
         inkscape:connector-curvature="0" /><path
         d="m 672.871,2341.71 210.805,-20.6 189.464,57.58 -173.593,7.42 -226.676,-44.4"
         style="fill:#e2551d;fill-opacity:1;fill-rule:nonzero;stroke:none"
         id="path10774"
         inkscape:connector-curvature="0" /><path
         d="m 944.332,2335.34 h 72.298 v 142.24 l -72.298,-24.91 v -117.33"
         style="fill:#236565;fill-opacity:1;fill-rule:nonzero;stroke:none"
         id="path10776"
         inkscape:connector-curvature="0" /><path
         d="m 1369.62,2797.88 c -28.75,-5.47 -47.27,-28.09 -47.32,-57.26 0,-10.89 8.12,-18.25 2.25,-28.63 -4.37,-7.86 -14.84,-11.91 -5.8,-20.4 1.31,-1.24 3.84,-2.08 4.79,-3.39 2.72,-3.84 0.55,-3.87 0.41,-7.19 -0.11,-2.9 -1.41,-2.89 0.23,-5.59 1.15,-1.94 3.76,-1.62 4.94,-3.89 -5.46,-5.32 0.97,-6.16 3.18,-9.19 3.96,-5.53 -1.47,-7.52 -0.81,-13.24 1.12,-9.03 18.72,-6.84 25.86,-6.84 11.57,0 20.56,0.47 30.6,-5.78 7.68,-4.78 18.57,-15.53 20.9,-24.06 0.53,6.33 10.42,11.92 14.83,15.5 7.59,6.16 15.23,11.87 22.79,18.07 6.04,4.97 7.82,4.79 4.73,11.83 -2.06,4.76 -4.23,10.17 -5.23,15.1 -2.34,11.74 -2.37,18.92 1.81,30.35 5.89,15.57 7.32,33.37 4.34,49.62 -3.9,21.32 -19.72,39.04 -41.1,43.15 -8.34,1.59 -38.52,7.66 -43.83,-0.63 l 2.43,2.47"
         style="fill:#e8c880;fill-opacity:1;fill-rule:nonzero;stroke:none"
         id="path10778"
         inkscape:connector-curvature="0" /><path
         d="m 1177.89,1946.42 c 20.92,1.9 38.97,11.56 52.55,26.97 7.08,8.07 13.78,16.45 19.59,25.38 3.74,5.85 8.22,11.66 10.71,17.86 4.76,-1.28 9.79,-5.27 14.25,-7.61 4.75,-2.47 9.95,-5.12 15.16,-6.46 4.33,-1.13 3.68,-1.34 3.25,-5.83 -0.47,-4.76 -0.34,-9.77 -0.12,-14.56 0.27,-6.2 0.55,-12.42 0.98,-18.55 0.25,-3.73 1.13,-6.83 0.22,-10.6 -0.65,-2.77 -1.58,-5.86 -3.57,-7.98 -2.62,-2.76 -6.61,-2.86 -10.18,-3.9 -14.5,-3.93 -29.33,-8.21 -44.13,-10.97 -12.41,-2.33 -23.73,-6.8 -36.7,-6.93 -7.84,-0.04 -16.05,4.21 -20.09,11.23 -1.89,3.22 -1.15,7.77 -3.16,10.57 l 1.24,1.38"
         style="fill:#e8c880;fill-opacity:1;fill-rule:nonzero;stroke:none"
         id="path10780"
         inkscape:connector-curvature="0" /><path
         d="m 1292.74,1926.25 c 3.1,3.36 4.8,8.8 5.35,13.27 0.7,5.24 0.82,10.26 -0.75,15.49 -0.8,2.93 -1.99,9.48 -5.41,10.61 l 1.59,-0.08 c -3.26,1.01 -9.31,-0.91 -12.59,-1.58 -6.55,-1.34 -13.67,-2.83 -19.93,-5.09 -12.9,-4.81 -25.73,-10.74 -38.24,-16.67 -7.48,-3.59 -16.31,-9.62 -25,-10.01 -3.91,-0.21 -11.42,1.97 -14.61,4.63 -2.32,1.87 -2.28,4.45 -3.25,6.92 -1.36,3.23 -2.44,2.68 -5.63,2.72 -4.99,0.08 -9.33,3.67 -14.13,4.72 -5.84,1.36 -12.17,0.82 -17.64,-1.05 -3.68,-1.28 -4.84,-1.73 -3.02,-5.67 1.63,-3.47 4.57,-6.34 7.52,-8.84 7.19,-6.14 14.99,-11.04 23.4,-15.07 7.06,-3.51 13.49,-7.89 20.93,-10.68 19.93,-7.39 36.4,5.44 53.59,11.96 4.62,1.85 10.16,3.1 15.24,2.63 7.15,-4.32 -8.27,-36.87 -10.27,-41.45 2.32,-1.17 4.79,-2.23 7.2,-3.18 4.54,9.47 7.25,21.95 15.69,28.19 7.71,5.75 15.46,10.08 19.96,18.23"
         style="fill:#5a2719;fill-opacity:1;fill-rule:nonzero;stroke:none"
         id="path10782"
         inkscape:connector-curvature="0" /><path
         d="m 1281.78,2080.72 c -4.57,-3.56 -6.54,-12.79 -8.63,-18.06 -2.88,-7.37 -6.18,-14.3 -9.4,-21.37 -4.52,-9.91 -8.52,-20.22 -12.66,-30.16 13.09,-10.43 27.74,-15.02 42.96,-21.29 9.73,20.69 24.65,37.58 36.12,57.28 9.25,15.78 21.7,29.69 29.19,46.47 6.45,14.76 7.91,31.53 7.2,47.63 -0.36,7.4 -6.67,28.91 2.44,32.29 1.86,0.66 4.08,-1.26 6.75,0.02 4.3,2.06 2.39,3.48 7.39,3.83 5.99,0.45 12.33,0.39 18.61,1.23 17.9,2.29 35.3,8.93 52.54,14.04 15.67,4.66 30.92,5.66 46.97,8.36 3.21,0.53 19.34,1.75 20.85,4.8 2.29,4.47 -5.54,7.58 -8.61,8.77 -11.85,4.54 -25.69,3.98 -38.16,4.36 -15.2,0.41 -30.31,0.94 -45.46,1.84 -19.1,1.18 -38.01,2.5 -57.07,3.61 -14.63,0.88 -28.02,1.65 -40.69,-6.66 -24.68,-16.26 -29.62,-44.67 -36.73,-71.68 -3.62,-13.76 -6.22,-28.43 -8.07,-42.3 -0.98,-6.7 0.89,-18.58 -5.54,-23.01"
         style="fill:#5a2719;fill-opacity:1;fill-rule:nonzero;stroke:none"
         id="path10784"
         inkscape:connector-curvature="0" /><path
         d="m 1289.65,1878.56 c 19.4,11.85 32.32,29.46 38.01,50.25 2.98,10.79 5.42,21.78 6.7,32.88 0.77,7.1 2.35,14.58 1.76,21.61 5.26,1.05 12.1,-0.18 17.58,-0.18 5.77,0 12.23,0.11 17.87,1.35 4.8,1.05 4.29,0.6 6.03,-3.81 1.91,-4.65 4.39,-9.15 6.95,-13.43 3.36,-5.65 6.67,-11.27 10.04,-16.66 2.08,-3.32 4.45,-5.78 5.41,-9.65 0.69,-2.92 1.31,-6.13 0.39,-9.1 -1.2,-3.86 -5.04,-5.9 -8.02,-8.54 -12.16,-10.62 -24.57,-21.69 -37.62,-31.39 -11,-8.22 -19.76,-17.76 -32.36,-24.02 -7.72,-3.91 -17.72,-3.91 -25.11,0.64 -3.37,2.02 -4.89,6.55 -8.14,8.13 l 0.51,1.92"
         style="fill:#e8c880;fill-opacity:1;fill-rule:nonzero;stroke:none"
         id="path10786"
         inkscape:connector-curvature="0" /><path
         d="m 1411.35,1915.31 c 1.41,4.62 0.35,10.47 -1.27,14.86 -1.86,5.19 -4.27,9.91 -8.29,13.96 -2.17,2.29 -6.56,7.73 -10.47,7.13 l 1.59,0.7 c -3.63,-0.63 -8.57,-5.33 -11.43,-7.5 -5.77,-4.38 -11.97,-9.23 -16.93,-14.33 -10.27,-10.68 -19.88,-22.34 -29.15,-33.77 -5.56,-6.97 -11.2,-16.81 -19.45,-21.41 -3.76,-1.99 -12.17,-3.58 -16.49,-2.71 -3.18,0.59 -4.4,3 -6.6,4.79 -2.91,2.34 -3.69,1.3 -6.74,-0.14 -4.96,-2.39 -10.93,-1.17 -16.12,-2.5 -6.32,-1.68 -12.26,-5.12 -16.71,-9.49 -2.94,-2.97 -3.91,-3.95 -0.15,-6.65 3.29,-2.48 7.6,-3.73 11.67,-4.64 9.99,-2.08 20.03,-2.86 30.18,-2.51 8.53,0.14 17.02,-0.76 25.48,0.23 23.1,2.75 32.89,22.54 46.43,36.91 3.66,3.86 8.38,7.69 13.62,9.77 9.02,-0.54 9.91,-38.05 10.19,-43.24 2.78,0.05 5.72,0.29 8.52,0.66 -0.25,10.83 -3.64,23.66 1.55,33.52 4.73,8.98 10.19,16.7 10.57,26.36"
         style="fill:#3d1914;fill-opacity:1;fill-rule:nonzero;stroke:none"
         id="path10788"
         inkscape:connector-curvature="0" /><path
         d="m 1507.49,2331 c -20.77,-13.43 -46.95,-7.31 -70.44,-10.64 -14.27,-2.01 -28.14,-2.01 -42.46,-4.97 -13.96,-2.84 -28.1,-5.17 -42.25,-7.87 -24.26,-4.65 -50.12,-11.14 -73.66,-19.07 -16.04,-5.44 -37.32,-11.11 -49.88,-23.04 -30.6,-29.28 1.64,-80.16 16.47,-109.41 28.15,-55.42 46.95,-114.19 70.68,-171.38 1.48,-3.61 5.54,-17.3 8.76,-18.96 3.45,-1.7 15.27,3.63 18.91,4.89 13.22,4.44 25.3,11.62 38.44,16.06 -19.57,33.09 -22.82,78.11 -28.75,115.49 -2.98,18.38 -7.13,36.48 -11.32,54.36 -3.1,13.33 -10.37,25.51 -14.76,38.1 -0.19,-2.34 0.38,-4.08 0.97,-6.3 2.25,3.42 4.86,5.02 8.87,4.8 1.48,-0.08 9.25,-0.82 9.81,-0.84 7.38,-0.83 68.82,2.65 92.62,6.15 26.56,3.86 55.98,5.38 82.57,1.26 25.54,-3.99 51.65,-3.64 76.39,4.55 48.47,15.99 52.11,64.31 41.79,108.33 -1.67,7.07 -4.61,13.78 -7.2,20.33 -3.18,8.11 -3.49,10.61 -12.64,11.4 -29.14,2.57 -60.75,-4.69 -89.2,-10.16 -7.46,-1.42 -19.54,-0.95 -25.34,-4.76 l 1.62,1.68"
         style="fill:#321415;fill-opacity:1;fill-rule:nonzero;stroke:none"
         id="path10790"
         inkscape:connector-curvature="0" /><path
         d="m 1411.63,2618.19 c 11.64,11.57 22,25.39 33.59,37.39 8.07,8.28 7.05,6.55 16.44,2.61 5.89,-2.48 12.51,-2.17 18.78,-4.52 16.83,-6.32 33.73,-22.57 45.69,-35.45 18.98,-20.32 34.19,-46.09 45.46,-71.42 18.69,-42.04 34.26,-83.99 46.77,-128.44 4.96,-17.58 10.77,-35.86 12.09,-54.02 0.78,-11.42 5.36,-28.6 8.69,-39.25 -11.59,-0.79 -26.4,6.68 -37.6,8.57 -13.56,2.31 -28.82,2.29 -42.61,2.29 -19.73,0 -45.35,-5.95 -64.33,-10.86 10.79,12.23 10.96,39.67 10.45,55.07 -0.58,17.41 -18.66,28.82 -28.74,42.12 -7.37,9.79 -12.72,21.26 -19.42,31.61 -6.35,9.77 -14.1,22.92 -15.84,34.56 -1.22,8.52 1.3,17.07 2.75,25.32 1.92,10.94 1.53,22.03 1.42,33.1 -0.07,10.74 -3.36,19.21 -9.15,28.11 -8.83,13.6 -13.32,33.62 -20.37,45.7 l -4.07,-2.49"
         style="fill:#e5f6f6;fill-opacity:1;fill-rule:nonzero;stroke:none"
         id="path10792"
         inkscape:connector-curvature="0" /><path
         d="m 1494.6,2325.1 c 4.3,9.03 7.82,18.83 9.73,28.64 -1.21,-11.12 -3.93,-22.07 -9.72,-28.64 0,0 0,0 -0.01,0"
         style="fill:#e3f6f5;fill-opacity:1;fill-rule:nonzero;stroke:none"
         id="path10794"
         inkscape:connector-curvature="0" /><path
         d="m 1494.6,2325.09 c 0,0.01 0,0.01 0,0.01 0.01,0 0.01,0 0.01,0 0,0 -0.01,0 -0.01,-0.01"
         style="fill:#2d1414;fill-opacity:1;fill-rule:nonzero;stroke:none"
         id="path10796"
         inkscape:connector-curvature="0" /><path
         d="m 1505.08,2379.22 c -0.23,1.35 -0.51,2.69 -0.84,4.01 -3.29,13 -19.99,27.94 -27.93,39.05 v 0 0 c 10.08,-13.3 28.16,-24.71 28.74,-42.12 0.01,-0.31 0.02,-0.62 0.03,-0.94 m -30.2,45.01 c -7.98,10.64 -19.52,22.18 -21.73,35.6 1.26,-2.08 2.53,-4.07 3.74,-5.94 6.26,-9.67 11.34,-20.33 17.99,-29.66"
         style="fill:#e3f6f5;fill-opacity:1;fill-rule:nonzero;stroke:none"
         id="path10798"
         inkscape:connector-curvature="0" /><path
         d="m 1494.6,2325.09 v 0 c 0,0.01 0.01,0.01 0.01,0.01 5.79,6.57 8.51,17.52 9.72,28.64 1.69,8.66 2.14,17.33 0.75,25.48 -0.01,0.32 -0.02,0.63 -0.03,0.94 -0.58,17.41 -18.66,28.82 -28.74,42.12 v 0 c -0.46,0.65 -0.94,1.29 -1.43,1.95 -6.65,9.33 -11.73,19.99 -17.99,29.66 -1.21,1.87 -2.48,3.86 -3.74,5.94 -0.63,3.79 -0.51,7.74 0.65,11.85 4.79,17.14 15.92,33.7 21.89,51.04 3.87,11.34 5.61,37.55 13.79,44.83 l -1.23,2.48 c 14.1,-12.78 23.82,-18.65 24.59,-39.57 0.51,-14.65 -2.18,-27.79 6.4,-40.46 8.67,-12.7 17.94,-15.25 18.17,-31.97 0.2,-13.26 -11.67,-29.79 -9.85,-41.18 2.06,-12.91 19.54,-11.36 24.69,-22.65 6.4,-14.04 -7.95,-19.41 -12.48,-29.9 -3.99,-9.31 9.54,-20.65 14.06,-28.47 -17.98,-0.48 -47.31,-6.64 -59.23,-10.74"
         style="fill:#cbedea;fill-opacity:1;fill-rule:nonzero;stroke:none"
         id="path10800"
         inkscape:connector-curvature="0" /><path
         d="m 1264.12,2373.6 c -12.34,0.4 -24.02,1.89 -36.33,-0.62 -6.64,-1.35 -9.66,-1.96 -13.49,-7.98 -1.77,-2.82 -3.47,-5.63 -5.27,-8.36 -15.53,-11.1 -36.89,-19.97 -40.71,-39.56 l 0.55,-1.79 c 9.02,5.35 13.5,15.38 21.28,20.8 2.35,1.64 4.9,2.75 7.59,3.94 l -0.08,-0.93 c -2.02,-4.29 -4.14,-10.77 -4.92,-13.46 -2.13,-6.95 -7.24,-18.51 -3.6,-25.58 6.83,7.21 10.01,18.64 15.97,26.32 -2.75,-8.62 -8.18,-19.54 -8.44,-28.44 5.02,5.97 9,13.48 13.98,19.05 2.63,2.94 7.48,5.65 10.97,8.37 5.43,4.29 12.51,8.6 11.67,16.74 8.19,-2.57 28.48,-0.38 35.6,-5.26 -3.04,11.25 0.11,26.39 -4.77,36.76"
         style="fill:#e8c880;fill-opacity:1;fill-rule:nonzero;stroke:none"
         id="path10802"
         inkscape:connector-curvature="0" /><path
         d="m 1256.53,2374.12 c 29.17,0 55.27,6.99 83.42,13.28 14.13,3.17 54.72,19.79 63.11,4.09 2.14,6.65 -5.17,16.24 -6.93,23.67 4.91,0.23 9.8,-1.37 14.4,-2.41 -5.62,16.23 3.21,27.39 7.79,45.09 3.93,15.16 8.25,29.71 9.62,45.18 2.16,24 -1.37,53.85 10.31,75.74 9.58,18.02 27.12,28.33 47.85,27.88 29.11,-0.63 36.65,-26.99 38.56,-51.85 3.75,-48.89 -10.23,-98.25 -23.33,-144.8 -6.4,-22.76 -8.52,-52.11 -30.85,-64.78 -21.38,-12.12 -51.87,-11.25 -75.75,-12.37 -43.17,-2 -95.15,-7.11 -136.64,1.65 -5.03,12.46 3.24,28.3 -1.56,39.63"
         style="fill:#e5f6f6;fill-opacity:1;fill-rule:nonzero;stroke:none"
         id="path10804"
         inkscape:connector-curvature="0" /><path
         d="m 1374.5,2468.73 c 1.64,4.1 1.13,6.81 -0.46,8.85 0.7,-2.57 0.53,-5.3 0.46,-8.85"
         style="fill:#7a2219;fill-opacity:1;fill-rule:nonzero;stroke:none"
         id="path10806"
         inkscape:connector-curvature="0" /><path
         d="m 1433.76,2500.57 c -2.07,-0.61 -4.39,-0.94 -6.77,-0.86 3.32,-1.68 5.53,-0.99 6.77,0.86"
         style="fill:#7a2219;fill-opacity:1;fill-rule:nonzero;stroke:none"
         id="path10808"
         inkscape:connector-curvature="0" /><path
         d="m 1392.21,2632.76 c -2.4,-6.09 -6.82,-11.5 -9.3,-19.01 -0.92,4.01 -1.43,8.13 -1.01,12.45 l 0.4,2.46 c 2.44,4.17 5.16,8.28 6.86,12.98 0.33,0.9 0.63,1.85 0.92,2.75 0.46,-0.94 1.06,-1.81 1.59,-2.71 0.78,-2.93 0.83,-5.91 0.54,-8.92 z m -12.89,-76.59 c 4.22,-3.74 9.01,-13.34 4.18,-18.23 l -0.24,1.14 c -1.31,7.72 -4.68,14.31 -8.25,20.77 1.36,-1.17 2.83,-2.31 4.31,-3.68 z m -7.07,37.51 c -1.64,-6.81 -4.71,-12.87 -4.53,-19.89 -1.28,2.78 -2.4,5.64 -3.14,8.69 -3.48,13.57 1.6,22.13 7.1,32.48 0.86,-7.28 2.44,-13.64 0.57,-21.28 z m 44.14,30.08 c 3.11,-1.28 6,-2.77 8.72,-4.38 2.74,8.03 5.54,15.96 8.13,23.78 -1.29,11.25 0.64,23.14 5.95,34.17 9.8,20.38 16.65,51.1 23.88,76.34 0.42,1.49 1.14,2.82 1.69,4.25 -6.03,23.78 -22.2,45.22 -46.38,51.67 -5.08,1.36 -9.58,1.01 -14.93,1.38 -5.15,0.36 -9.76,2.08 -14.81,3.08 -10.06,2.03 -20.87,1.99 -30.1,-3.08 -1.19,-0.64 -1.93,-0.81 -2.55,-1.23 -12.29,0.26 -29.49,-19.69 -35.07,-29.14 -6.25,-10.6 -6.09,-27.73 2.52,-37.29 1.11,2.77 2.86,5.55 5.06,7.69 -0.03,-3.22 -0.96,-12.13 2.99,-13.53 3.61,-1.31 6.23,7.44 9.77,9.33 -0.17,-5.82 0.07,-14.51 6.82,-14.92 8.26,-0.47 7.91,7.21 14.18,-1.26 4.1,-5.57 9.6,-9.89 12.16,-16.61 2.38,-6.31 2.92,-13.69 4.55,-20.21 4.68,-18.71 1.08,-34.18 -4.34,-51.67 -4.85,-6.36 -10.46,-12.26 -14.84,-19.01 -6.91,-10.73 -10.25,-26.3 -7.83,-39.25 2.3,-12.34 15.58,-16.64 18.75,-28.15 2.31,-8.26 6.13,-22.27 3.06,-30.68 -2.95,-8.16 -11.78,-9.37 -16.54,-15.29 -4.12,-4.95 -4.94,-17.39 -0.66,-22.53 3.6,-4.31 13.71,-4.87 17.47,-9.64 -0.46,1.8 -1.44,3.57 -3.18,5.41 -3.43,3.75 -10.35,5.81 -7.55,12.32 1.24,2.96 6.81,5.65 9.23,7.54 4.64,3.55 7.27,6.78 9.36,12.25 2.94,7.51 2.88,14.66 1.64,22.3 10.41,3.14 5.16,16.11 0.23,21.43 -9.39,10.13 -2.75,13.02 1.86,23.67 0.73,1.78 1.2,3.55 1.51,5.33 0.51,-1 0.92,-2.02 1.4,-3.02 4.01,-9.12 -4.12,-15.79 2.74,-25.19 0.89,-1.21 1.51,-2.35 2.02,-3.51 l 0.14,-0.39 c 0.76,-3.77 0.45,-7.88 0.87,-11.7 -0.89,-4.57 -2.4,-9.31 -1.94,-14.91 1.02,-12.27 9.11,-17.67 19.37,-19.49 -8.02,2.23 -12.15,11.26 -10.15,20.58 0.96,4.45 4.58,6.18 6.12,10.59 1.52,4.17 0.51,8.44 -0.58,12.43 -1.36,5.12 -4.3,9.41 -0.76,14.35 1.72,2.45 4.17,4.37 6.66,6.35 0.81,5.53 1.97,11.11 3.38,16.68 -1.29,-1.34 -2.69,-2.63 -4.39,-3.77 -6.93,-4.79 -9.5,-1.53 -10.08,3.66 l 0.28,0.57 c 2.67,5.49 11.31,7.1 11.69,13.23 0.32,5.77 -4.06,7.7 -0.81,14.78 0.85,1.8 2.02,3.31 3.29,4.69"
         style="fill:#7a2219;fill-opacity:1;fill-rule:nonzero;stroke:none"
         id="path10810"
         inkscape:connector-curvature="0" /><path
         d="m 1411.74,2509.62 c 1.36,-0.43 2.82,-0.63 4.38,-0.59 -1.42,0.13 -2.95,0.31 -4.38,0.59"
         style="fill:#7a2219;fill-opacity:1;fill-rule:nonzero;stroke:none"
         id="path10812"
         inkscape:connector-curvature="0" /><path
         d="m 1439.02,2797.13 c 2.05,3.32 10.01,3.78 13.72,3.99 9.11,0.54 17.95,-1.73 25.38,-7.07 15.44,-11.09 20.45,-33.56 18.85,-51.52 -2.02,-22.75 -17.62,-43.05 -42.47,-37.98 -10.33,2.09 -5.89,6.29 -5.38,14.68 0.76,13.31 0.02,26.76 -2.66,39.79 -1.64,7.99 -5.06,15.35 -5.66,23.39 -0.38,5.14 -0.51,10.04 -2.76,14.67 -0.7,-1.41 -1.54,-3.1 -2.56,-4.39 l 3.54,4.44"
         style="fill:#7a2219;fill-opacity:1;fill-rule:nonzero;stroke:none"
         id="path10814"
         inkscape:connector-curvature="0" /><path
         d="m 1453.19,2713.41 c -1.97,-3.3 2.27,-8.92 3.99,-11.95 3.54,-6.24 7.11,-13.74 8.79,-20.72 2.37,-9.96 -0.73,-21.4 -8.25,-28.37 -5.1,-4.7 -11.96,-6.6 -18.72,-4.44 -3.58,1.17 -12.37,10.6 -14.5,8.67 -1.49,-1.35 -0.41,-5.74 -0.54,-7.52 -0.3,-4.76 -1.21,-10.05 -3.1,-14.43 -2.7,-6.25 -4.7,-6.62 -0.1,-12.04 10.09,-11.92 26.24,-13.28 39.99,-5.35 18.1,10.47 23.17,36.85 18.16,55.84 -2.83,10.67 -6.49,19.21 -13.77,27.81 -2.4,2.85 -4.75,6.3 -7.41,8.88 -1.92,1.88 -4.41,2.63 -4.98,5.39 l 0.44,-1.77"
         style="fill:#7a2219;fill-opacity:1;fill-rule:nonzero;stroke:none"
         id="path10816"
         inkscape:connector-curvature="0" /><path
         d="m 1470.91,2704.99 c 10.13,-10.14 13.04,-26.15 14.08,-39.99 0.83,-10.92 0.83,-23.54 -5.09,-33.12 -4.04,-6.5 -8.64,-15.53 -14.83,-20.25 -5.07,-3.87 -12.46,-4.68 -18.52,-5.53 -5.99,-0.84 -10.76,-1.15 -15.6,-5.18 -3.69,-3.09 -6.23,-6.47 -10.53,-8.88 -3.57,-2 -7.08,-3.61 -11.06,-3.98 -1.6,-0.16 -3.98,-0.35 -5.33,0.55 -2.54,1.71 -0.72,2.8 -1.78,5.2 -3.17,7.38 -6.6,-6.3 -4.77,-10.64 2.59,-6.13 15.04,-8.01 11.48,-15.45 3.66,0.59 3.72,6.12 8.78,7.05 7.21,1.33 14.85,-0.29 22.16,1.28 20.12,4.36 35.02,24.19 43.52,41.66 5.12,10.49 7.61,21.02 9.09,32.47 1.25,9.73 1,22.95 -2.54,32.22 -2.35,6.25 -6.95,12.73 -10.73,18.17 -1.43,2.04 -3.3,4.12 -5.23,5.75 -1.25,1.06 -6.04,2.87 -6.24,4.43 l 0.49,1.33 2.65,-7.09"
         style="fill:#7a2219;fill-opacity:1;fill-rule:nonzero;stroke:none"
         id="path10818"
         inkscape:connector-curvature="0" /><path
         d="m 962.781,2346.83 c 0,-2.55 -2.062,-4.6 -4.613,-4.6 -2.547,0 -4.617,2.05 -4.617,4.6 v 101.22 c 0,2.55 2.07,4.62 4.617,4.62 2.551,0 4.613,-2.07 4.613,-4.62 v -101.22"
         style="fill:#2b7f79;fill-opacity:1;fill-rule:nonzero;stroke:none"
         id="path10820"
         inkscape:connector-curvature="0" /><path
         d="m 1016.63,2333.95 h 58.2695 v 239.352 H 1016.63 Z"
         style="fill:#60b2b0;fill-opacity:1;fill-rule:nonzero;stroke:none"
         id="path10822"
         inkscape:connector-curvature="0" /><path
         d="m 1028.3,2453.63 h 34.7109 v 108.801 H 1028.3 Z"
         style="fill:#e4edf6;fill-opacity:1;fill-rule:nonzero;stroke:none"
         id="path10824"
         inkscape:connector-curvature="0" /><path
         d="m 1057.75,2381.85 c 0,-5.82 -5.36,-10.55 -11.99,-10.55 -6.61,0 -11.98,4.73 -11.98,10.55 0,5.83 5.37,10.55 11.98,10.55 6.63,0 11.99,-4.72 11.99,-10.55"
         style="fill:#2b4973;fill-opacity:1;fill-rule:nonzero;stroke:none"
         id="path10826"
         inkscape:connector-curvature="0" /><path
         d="m 1045.76,2391.56 c -6.15,0 -11.15,-4.34 -11.15,-9.71 0,-5.35 5,-9.7 11.15,-9.7 6.15,0 11.15,4.35 11.15,9.7 0,5.37 -5,9.71 -11.15,9.71 m 0,-21.08 c -7.07,0 -12.82,5.1 -12.82,11.37 0,6.27 5.75,11.38 12.82,11.38 7.08,0 12.83,-5.11 12.83,-11.38 0,-6.27 -5.75,-11.37 -12.83,-11.37"
         style="fill:#fbeaf2;fill-opacity:1;fill-rule:nonzero;stroke:none"
         id="path10828"
         inkscape:connector-curvature="0" /><path
         d="m 1069.23,2333.95 h 5.668 v 239.352 h -5.668 z"
         style="fill:#3d8e8c;fill-opacity:1;fill-rule:nonzero;stroke:none"
         id="path10830"
         inkscape:connector-curvature="0" /><path
         d="m 1021.04,2333.96 h -4.41 v 239.34 h 4.41 v -239.34"
         style="fill:#3d8e8c;fill-opacity:1;fill-rule:nonzero;stroke:none"
         id="path10832"
         inkscape:connector-curvature="0" /><path
         d="m 1069.23,2333.95 h -23.47 l 0.8,36.55 c 6.71,0.37 12.03,5.31 12.03,11.35 0,5.89 -5.06,10.75 -11.54,11.33 l 1.32,60.45 h 14.64 v 108.8 h -12.26 l 0.24,10.87 h 18.24 v -239.35"
         style="fill:#56a2a9;fill-opacity:1;fill-rule:nonzero;stroke:none"
         id="path10834"
         inkscape:connector-curvature="0" /><path
         d="m 1063.01,2453.63 h -14.64 l 2.38,108.8 h 12.26 v -108.8"
         style="fill:#c9daed;fill-opacity:1;fill-rule:nonzero;stroke:none"
         id="path10836"
         inkscape:connector-curvature="0" /><path
         d="m 1046.6,2372.18 0.42,19.32 c 5.56,-0.54 9.89,-4.65 9.89,-9.65 0,-5.1 -4.55,-9.3 -10.31,-9.67"
         style="fill:#27446d;fill-opacity:1;fill-rule:nonzero;stroke:none"
         id="path10838"
         inkscape:connector-curvature="0" /><path
         d="m 1046.56,2370.5 0.04,1.68 c 5.76,0.37 10.31,4.57 10.31,9.67 0,5 -4.33,9.11 -9.89,9.65 l 0.03,1.68 c 6.48,-0.58 11.54,-5.44 11.54,-11.33 0,-6.04 -5.32,-10.98 -12.03,-11.35"
         style="fill:#dfd8e9;fill-opacity:1;fill-rule:nonzero;stroke:none"
         id="path10840"
         inkscape:connector-curvature="0" /><path
         d="m 1070.52,2333.95 h -1.29 v 239.35 h 1.36 l -0.07,-239.35"
         style="fill:#388087;fill-opacity:1;fill-rule:nonzero;stroke:none"
         id="path10842"
         inkscape:connector-curvature="0" /><path
         d="m 1074.9,2333.95 h 58.293 v 239.352 H 1074.9 Z"
         style="fill:#60b2b0;fill-opacity:1;fill-rule:nonzero;stroke:none"
         id="path10844"
         inkscape:connector-curvature="0" /><path
         d="m 1086.59,2453.63 h 34.6992 v 108.801 H 1086.59 Z"
         style="fill:#e4edf6;fill-opacity:1;fill-rule:nonzero;stroke:none"
         id="path10846"
         inkscape:connector-curvature="0" /><path
         d="m 1116.04,2381.85 c 0,-5.82 -5.37,-10.55 -12,-10.55 -6.61,0 -11.98,4.73 -11.98,10.55 0,5.83 5.37,10.55 11.98,10.55 6.63,0 12,-4.72 12,-10.55"
         style="fill:#2b4973;fill-opacity:1;fill-rule:nonzero;stroke:none"
         id="path10848"
         inkscape:connector-curvature="0" /><path
         d="m 1104.04,2391.56 c -6.14,0 -11.15,-4.34 -11.15,-9.71 0,-5.35 5.01,-9.7 11.15,-9.7 6.16,0 11.16,4.35 11.16,9.7 0,5.37 -5,9.71 -11.16,9.71 m 0,-21.08 c -7.07,0 -12.82,5.1 -12.82,11.37 0,6.27 5.75,11.38 12.82,11.38 7.08,0 12.83,-5.11 12.83,-11.38 0,-6.27 -5.75,-11.37 -12.83,-11.37"
         style="fill:#fbeaf2;fill-opacity:1;fill-rule:nonzero;stroke:none"
         id="path10850"
         inkscape:connector-curvature="0" /><path
         d="m 1127.51,2333.95 h 5.6797 v 239.352 h -5.6797 z"
         style="fill:#3355ae;fill-opacity:1;fill-rule:nonzero;stroke:none"
         id="path10852"
         inkscape:connector-curvature="0" /><path
         d="m 1079.33,2333.96 h -4.43 v 239.34 h 4.43 v -239.34"
         style="fill:#3d8e8c;fill-opacity:1;fill-rule:nonzero;stroke:none"
         id="path10854"
         inkscape:connector-curvature="0" /><path
         d="m 1126.65,2333.95 h -26.58 l 1.86,36.68 c 0.69,-0.1 1.39,-0.15 2.11,-0.15 7.08,0 12.83,5.1 12.83,11.37 0,6.27 -5.75,11.38 -12.83,11.38 -0.32,0 -0.64,-0.01 -0.96,-0.03 l 3.07,60.43 h 15.14 v 108.8 h -9.62 l 0.55,10.87 h 14.48 l -0.05,-239.35"
         style="fill:#56a2a9;fill-opacity:1;fill-rule:nonzero;stroke:none"
         id="path10856"
         inkscape:connector-curvature="0" /><path
         d="m 1121.29,2453.63 h -15.14 l 5.52,108.8 h 9.62 v -108.8"
         style="fill:#c9daed;fill-opacity:1;fill-rule:nonzero;stroke:none"
         id="path10858"
         inkscape:connector-curvature="0" /><path
         d="m 1104.04,2372.15 c -0.69,0 -1.37,0.05 -2.02,0.16 l 0.97,19.21 c 0.35,0.03 0.7,0.04 1.05,0.04 6.16,0 11.16,-4.34 11.16,-9.71 0,-5.35 -5,-9.7 -11.16,-9.7"
         style="fill:#27446d;fill-opacity:1;fill-rule:nonzero;stroke:none"
         id="path10860"
         inkscape:connector-curvature="0" /><path
         d="m 1104.04,2370.48 c -0.72,0 -1.42,0.05 -2.11,0.15 l 0.09,1.68 c 0.65,-0.11 1.33,-0.16 2.02,-0.16 6.16,0 11.16,4.35 11.16,9.7 0,5.37 -5,9.71 -11.16,9.71 -0.35,0 -0.7,-0.01 -1.05,-0.04 l 0.09,1.68 c 0.32,0.02 0.64,0.03 0.96,0.03 7.08,0 12.83,-5.11 12.83,-11.38 0,-6.27 -5.75,-11.37 -12.83,-11.37"
         style="fill:#dfd8e9;fill-opacity:1;fill-rule:nonzero;stroke:none"
         id="path10862"
         inkscape:connector-curvature="0" /><path
         d="m 757.898,2121.39 c -13.457,-6.6 -12.898,-37.71 -2.808,-46.87 14.051,-12.84 43.527,-6.92 52.066,9.27 11.184,21.22 -18.136,48.72 -40.14,39.6 l -9.118,-2"
         style="fill:#3789a7;fill-opacity:1;fill-rule:nonzero;stroke:none"
         id="path10864"
         inkscape:connector-curvature="0" /><path
         d="m 598.867,1951.41 c -17.406,-7.87 -6.449,-45.86 5.203,-54.72 16.649,-12.69 46.657,-7.69 56.672,11.51 13.883,26.59 -31.988,71.43 -51.66,47.9 l -10.215,-4.69"
         style="fill:#3789a7;fill-opacity:1;fill-rule:nonzero;stroke:none"
         id="path10866"
         inkscape:connector-curvature="0" /><path
         d="m 412.555,2347.48 c 18.605,2.14 41.09,-5.55 59.625,-8.07 17.144,-2.3 35.129,-3.09 52.328,-5.49 14.226,-1.97 32.949,-5.44 46.004,-11.93 16.121,-7.97 40.601,-38.6 45.187,-55.66 12.297,-45.61 73.27,-309.17 71.797,-321.68 -1.898,-16.27 -108.859,-43 -108.859,-43 -57.211,155.5 -57.211,155.5 -58.438,203.07 -0.574,22.09 2.903,61.95 -13.285,75.77 -2.406,2.04 -16.988,6.9 -19.801,7.85 -8.636,2.95 -8.761,2.68 -19.175,2.12 -15.258,-0.84 -30.309,-0.93 -45.129,1.98 -46.586,9.08 -80.082,39.76 -66.575,92.73 8.301,32.47 32.657,52.9 59.739,62.57 l -3.418,-0.26"
         style="fill:#131e2f;fill-opacity:1;fill-rule:nonzero;stroke:none"
         id="path10868"
         inkscape:connector-curvature="0" /><path
         d="m 453.184,2848.53 c 29.515,-1.02 51.113,-19.88 55.093,-47.68 1.481,-10.36 -5.617,-18.56 1.664,-27.6 5.446,-6.86 16.446,-9.19 8.551,-18.57 -1.148,-1.38 -3.547,-2.57 -4.336,-3.94 -2.183,-4.06 0,-3.79 0.567,-6.92 0.515,-2.76 1.8,-2.53 0.543,-5.33 -0.868,-2.03 -3.551,-2.09 -4.422,-4.45 6.199,-4.26 -0.141,-6 -1.942,-9.18 -3.214,-5.85 2.5,-6.94 2.625,-12.5 0.106,-8.76 -17.816,-9.24 -24.961,-10.27 -11.531,-1.67 -20.609,-2.54 -29.828,-9.94 -7.011,-5.65 -16.449,-17.47 -17.613,-25.94 -1.391,5.96 -12.031,9.84 -16.957,12.64 -8.406,4.75 -16.84,9.08 -25.234,13.91 -6.723,3.85 -8.461,3.41 -6.321,10.57 1.434,4.82 2.848,10.29 3.188,15.14 0.734,11.51 -0.207,18.38 -5.934,28.64 -8.004,14 -11.859,30.75 -11.09,46.65 1.043,20.87 14.45,40.04 35.297,47.05 8.102,2.72 37.457,12.85 43.879,5.72 l -2.769,2"
         style="fill:#e8c880;fill-opacity:1;fill-rule:nonzero;stroke:none"
         id="path10870"
         inkscape:connector-curvature="0" /><path
         d="m 402.012,2400.53 c -17.852,15.08 -23.66,41.27 -13.059,62.18 13.035,25.71 29.059,49.47 46.535,72.21 6.7,14.46 17.153,27.35 30.375,37.36 4.641,5.43 9.352,10.81 14.039,16.24 0.102,18.87 -1.234,35.96 -15.547,50.85 -3.199,3.34 -7.019,6.76 -11.14,9.8 -0.613,1.81 -1.324,3.58 -2.098,5.33 4.387,-0.33 7.242,2.82 8.555,7.58 -27.168,16.73 -49.629,37.98 -69.801,62.58 -1.281,1.02 -2.598,1.98 -3.894,3 -6.192,-4.04 -8.079,-17.23 -14.235,-22.42 -6.82,-5.76 -17.117,-7.02 -24.379,-12.72 -8.183,-6.37 -14.457,-14.41 -21.371,-22.45 -19.238,-22.28 -37.57,-51.07 -47.344,-79.48 -12.453,-36.05 -24.14,-69.91 -27.226,-108.7 -2.926,-36.46 -20.246,-84.22 -8.145,-120.28 8.09,-24.03 53.836,4.01 71.024,5.48 18.465,1.62 37.082,2.83 55.351,5.22 12.715,1.65 30.426,-1.04 42.45,3.52 6.82,2.6 10.218,7.56 11.851,13.86 -7.601,1.57 -15,4.96 -21.941,10.84"
         style="fill:#ebf3bf;fill-opacity:1;fill-rule:nonzero;stroke:none"
         id="path10872"
         inkscape:connector-curvature="0" /><path
         d="m 501.531,2820.68 c 5.789,-3.18 6.489,4.57 6.266,8.93 -0.379,6.87 -3.988,11.16 -8.156,16.25 -10.348,12.67 -22.317,8.23 -34.661,14.42 -8.437,4.26 -16.957,7.19 -26.574,7.65 -3.926,0.19 -9.738,0.73 -13.218,-1.16 -2.528,-1.39 -3.778,-4.27 -6.497,-5.8 -7.015,-3.9 -15.207,-2.06 -22.57,-6.71 -10.711,-6.8 -18.926,-16.82 -23.785,-28.99 -7.285,-18.4 -7.688,-42.77 1.094,-60.95 3.84,-7.96 16.945,-30.44 26.156,-31.76 1.687,7.55 5.672,17.9 10.391,23.82 4.093,5.14 3.32,2.83 8.109,-0.1 2.621,-1.61 10.719,-5.09 12.262,-0.89 1.351,3.69 -4.149,7.56 -5.453,10.46 -1.497,3.24 -3.125,9.68 -1.61,13.19 3.43,8.02 13.461,1.14 17.949,-2.2 0.524,2.62 -0.257,8.31 2.821,8.53 3.039,0.18 4.386,-7.09 9.679,-5.14 -0.082,2.52 -0.367,5.14 -0.398,7.65 8.336,0.02 5.527,5.13 7.66,11.55 2.402,7.26 3.969,8.8 10.328,8.51 7.313,-0.36 25.918,4.44 29.739,11.49 l 0.468,1.25"
         style="fill:#4d1a13;fill-opacity:1;fill-rule:nonzero;stroke:none"
         id="path10874"
         inkscape:connector-curvature="0" /><path
         d="m 773.113,1891.85 c 1.407,4.06 3.684,-3.28 3.082,-5.36 -1.082,-3.37 -6.629,-5.23 -9.808,-6.79 -9.539,-5.12 -20.176,-10.23 -30.391,-12.57 -21.406,-5.22 -43.558,-9.3 -65.25,-9.15 -8.965,0.07 -17.633,2.67 -26.355,3.5 -2.512,0.19 -8.508,1.22 -10.985,-0.31 -3.347,-2.04 -2.215,-6.57 -1.289,-9.27 -8.012,-2.94 -15.562,-3.71 -22.562,-4.34 -6.356,-0.6 -13.957,-2.68 -19.742,-0.44 -4.2,1.57 -5.555,10.69 -5.969,15.56 -0.426,5.08 0.027,5.27 4.586,4.97 7.175,-0.4 14.925,1.13 22.152,1.84 15.258,1.55 29.766,4.31 44.707,2.17 8.606,-1.26 16.953,-3.67 25.688,-4.51 7.75,-0.89 15.628,-0.21 23.515,0.74 21.172,2.31 39.809,13.39 59.617,20.8 2.993,1.18 5.996,2.65 8.649,4.47 -0.242,-1.06 1.992,0.75 1.847,-0.26 l -1.492,-1.05"
         style="fill:#713418;fill-opacity:1;fill-rule:nonzero;stroke:none"
         id="path10876"
         inkscape:connector-curvature="0" /><path
         d="m 664.172,1935.57 c 3.793,-0.56 6.859,-4.05 9.738,-6.33 4.149,-3.27 8.391,-6.28 12.598,-9.38 7.254,-5.39 15.125,-11.7 23.953,-13.9 12.406,-3.2 24.613,-3.09 37.113,0.83 5.153,1.62 13.016,2.65 17.793,0.26 3.278,-1.73 9.074,-11.51 7.004,-15.3 -1.414,-2.66 -9.594,-5.01 -12.101,-6.06 -4.375,-1.81 -61.973,-29.31 -106.391,-19.21 -18.57,4.29 -36.801,-1.6 -55.727,-4.29 -4.168,-0.59 -12.57,-1.12 -15.375,2.77 -2.293,3.06 -2.113,13.13 -2.363,17.23 -0.785,11.08 1.258,24.1 5.387,34.44 2.855,-0.26 6.617,-3.99 9.433,-5.19 4.258,-1.85 8.672,-2.92 13.289,-3.67 6.735,-1.17 13.903,-1.83 20.739,-1.3 13.293,1.24 16.758,13.15 24.527,22.71 2.945,3.62 7.844,7.56 12.207,5.76 l -1.824,0.63"
         style="fill:#14181c;fill-opacity:1;fill-rule:nonzero;stroke:none"
         id="path10878"
         inkscape:connector-curvature="0" /><path
         d="m 927.184,2104.88 c 0.554,4.23 4.285,-2.49 4.101,-4.67 -0.394,-3.44 -5.519,-6.34 -8.293,-8.43 -8.383,-6.8 -17.84,-13.8 -27.433,-18 -20.036,-9.15 -41.051,-17.32 -62.473,-21.26 -8.789,-1.65 -17.859,-0.66 -26.641,-1.52 -2.5,-0.3 -8.609,-0.44 -10.765,-2.4 -2.871,-2.61 -0.856,-6.81 0.613,-9.29 -7.332,-4.41 -14.617,-6.58 -21.371,-8.55 -6.145,-1.75 -13.234,-5.19 -19.356,-4.08 -4.468,0.72 -7.628,9.39 -9.007,14.05 -1.43,4.92 -0.989,5.17 3.515,5.73 7.188,0.97 14.492,3.93 21.457,5.99 14.746,4.35 28.489,9.77 43.637,10.49 8.738,0.41 17.395,-0.39 26.176,0.46 7.851,0.59 15.433,2.73 23.011,5.18 20.442,6.22 36.579,20.59 54.586,31.53 2.696,1.71 5.391,3.73 7.625,5.99 -0.007,-1.09 1.825,1.14 1.868,0.1 l -1.25,-1.32"
         style="fill:#a9601d;fill-opacity:1;fill-rule:nonzero;stroke:none"
         id="path10880"
         inkscape:connector-curvature="0" /><path
         d="m 811.137,2127.07 c 3.836,0.21 7.562,-2.68 10.859,-4.36 4.742,-2.38 9.547,-4.56 14.281,-6.74 8.231,-3.96 17.254,-8.62 26.418,-9.15 12.813,-0.75 24.793,1.67 36.36,7.81 4.75,2.6 12.277,5.09 17.484,3.62 3.566,-1.06 11.215,-9.47 9.945,-13.59 -0.875,-2.86 -8.453,-6.7 -10.691,-8.22 -3.98,-2.62 -55.227,-40.3 -100.973,-38.77 -19.172,0.63 -35.972,-8.51 -54.035,-14.71 -4.023,-1.36 -12.164,-3.44 -15.707,-0.19 -2.883,2.6 -4.695,12.44 -5.769,16.4 -2.996,10.63 -3.579,23.75 -1.582,34.65 2.871,0.27 7.285,-2.64 10.324,-3.31 4.57,-1 9.172,-1.2 13.859,-1.04 6.836,0.09 14.02,0.8 20.668,2.64 12.82,3.67 13.883,15.95 19.602,26.79 2.179,4.05 6.238,8.85 10.902,7.91 l -1.945,0.26"
         style="fill:#14181c;fill-opacity:1;fill-rule:nonzero;stroke:none"
         id="path10882"
         inkscape:connector-curvature="0" /><path
         d="m 290.738,2258.47 c 0.325,8.8 12.547,23.01 17.426,30.09 8.559,12.4 18.34,23.37 28.684,34.56 13.39,14.49 25.863,30.41 43.234,39.31 1.305,-0.78 2.481,-1.79 3.578,-2.94 l -5.027,-0.08 c 9.758,-0.22 20.887,-9 31.441,-6.75 9.676,2.11 20.117,12.7 27.406,18.53 18.532,14.75 34.961,26.61 55.786,39.01 24.523,14.61 53.472,42.05 85.101,41.34 3.317,0.95 6.676,1.59 9.953,1.76 35.606,1.65 68.395,-52.77 85.504,-74.78 53.348,-68.63 111.606,-207.43 151.055,-242.78 0,0 2.34,-0.35 0,0 -30.957,-43.46 -80.52,-55.33 -113.563,-57.06 0,0 -78.25,165.06 -105.015,206.71 -10.281,15.97 -31.16,27.91 -40.25,44.1 -22.559,-21.07 -36.742,-47.56 -56.211,-70.82 -22.16,-26.45 -40.309,-64.98 -77.242,-74.66 -28.907,-7.55 -70.782,11.31 -94.903,27.84 -12.304,8.38 -47.578,30.22 -46.957,46.62"
         style="fill:#152d40;fill-opacity:1;fill-rule:nonzero;stroke:none"
         id="path10884"
         inkscape:connector-curvature="0" /><path
         d="m 436.27,2401.84 c -2.368,8.67 3.199,7.15 3.668,15.83 0.636,11.76 -2.2,12.1 -5.762,22.2 -4.297,12.19 -2.063,30.83 -1.5,48.79 16.265,40.05 35.25,79.1 47.773,120.36 -3.418,11.83 -7.929,24.82 -14.668,34.21 -8.5,11.83 -22.187,18.05 -34.515,25.61 -10.266,6.3 -20.243,13.05 -30.133,19.92 -5.711,3.95 -19.61,18.97 -24.801,18.95 l 1.152,-0.98 c -4.968,2.63 -15.836,0.09 -19.855,-2 -7.512,-3.9 -13.309,-12.63 -20.031,-18.18 -10.078,-8.27 -22.864,-14.76 -31.922,-23.93 -7.848,-7.95 -13.188,-20.63 -18.098,-30.4 -15.152,-30.23 -25.57,-62.95 -37.844,-94.49 -12.031,-30.98 -20.343,-59.85 -20.472,-92.94 -10.453,-6.08 -7.407,-60.42 -6.324,-75.04 2.222,-30.14 9.398,-59.01 20.378,-87.1 8.907,-22.74 51.602,-113.41 83.7,-100.96 11.976,4.63 23.281,32.55 30.996,43.32 12.218,17.08 26.136,34.28 38.078,51.94 11.437,16.93 52.91,62.46 47.871,83.8 -0.598,2.54 -10.367,8.73 -12.676,10.67 5.461,2.9 13.789,8.95 14.555,15.55 1.074,9.3 -7.27,6.45 -9.57,14.87"
         style="fill:#18171a;fill-opacity:1;fill-rule:nonzero;stroke:none"
         id="path10886"
         inkscape:connector-curvature="0" /><path
         d="m 279.84,2217.3 c 3.324,-7.2 8.265,-14.07 10.82,-21.34 -8.719,-3.03 -19.504,-0.08 -26.961,-7.81 8.414,-18.21 34.504,-20.1 51.75,-22.33 19.711,-2.55 29.391,-3.31 44.082,10.3 27.071,25.05 51.207,55.85 65.141,90.35 9.308,23.06 27.492,60.71 13.289,84.75 -8.801,14.9 -25.613,22.18 -42.457,23.92 -32.168,3.29 -54.512,-8.3 -73.469,-33.96 -23.629,-32 -36.625,-79.89 -39.336,-118.36 1.992,-0.28 4.406,-0.49 6.434,-0.18 l -9.293,-5.34"
         style="fill:#18171a;fill-opacity:1;fill-rule:nonzero;stroke:none"
         id="path10888"
         inkscape:connector-curvature="0" /><path
         d="m 641.105,2593.21 c -3.328,2.37 -6.57,4.44 -9.726,6.35 -7.645,3.16 -13.836,4.4 -18.258,4.42 -1.766,-1.39 -3.625,-2.69 -5.598,-3.88 4.368,-5.89 12.645,-13.68 23.34,-21.28 17.434,-12.4 33.864,-19.24 36.68,-15.27 2.832,4 -9.012,17.26 -26.438,29.66"
         style="fill:#3789a7;fill-opacity:1;fill-rule:nonzero;stroke:none"
         id="path10890"
         inkscape:connector-curvature="0" /><path
         d="m 617.797,2598.22 c 0.625,3.15 3.695,5.33 5.348,8.09 1.46,2.47 2.031,5.53 3.964,7.48 10.317,-11.99 27.102,-29.6 44.254,-30.25 -3.293,-4.14 -6.883,-8.34 -10.578,-12.22 -1.543,-1.63 -3.676,-4.88 -5.75,-5.94 -2.855,-1.47 -5.992,-0.12 -9.222,1.4 -8.301,3.94 -18.297,9.89 -22.153,18.61 -1.156,2.63 -2.387,4.98 -3.64,7.53 -0.961,1.97 -2.176,6.5 -2.223,6.2 v -0.9"
         style="fill:#ebf3bf;fill-opacity:1;fill-rule:nonzero;stroke:none"
         id="path10892"
         inkscape:connector-curvature="0" /><path
         d="m 332.992,2634.58 2.723,-2.36 c -1.113,1.4 -2.055,2.25 -2.723,2.36"
         style="fill:#18171a;fill-opacity:1;fill-rule:nonzero;stroke:none"
         id="path10894"
         inkscape:connector-curvature="0" /><path
         d="m 494.906,2426.41 c 0.051,0.97 -0.07,2.34 0.192,3.13 -0.149,-1.12 -0.18,-2.13 -0.192,-3.13 z m 139.703,156.99 c -8.656,6.05 -15.644,13.99 -23.89,20.69 -2.887,-2.43 -5.289,-5.51 -7.395,-8.9 -19.429,-15.92 -40.719,-29.94 -61.679,-44.34 -15.176,-10.44 -22.735,-19.41 -35.899,-5.29 -9.762,10.45 -16.281,22.53 -22.266,35.78 -20.691,45.89 -51.41,119.8 -115.976,96.75 -9.711,-3.48 -21.637,-10.52 -26.242,-19.91 -3.024,-6.13 -6.91,-21.68 -2.496,-28.58 l -3.051,2.62 c 7.945,-9.96 25.406,-48.91 30.535,-57.43 14.898,-24.74 29.219,-51.73 48.84,-73.16 15.265,-16.71 32.367,-32.76 48.449,-48.79 7.672,-7.64 20.211,-26.75 31.348,-26.72 0.019,-17.87 21.758,-16.11 32.48,-7.13 1.852,1.56 3.696,3.29 5.547,4.93 7.191,4.36 14.488,13.38 19.332,17.91 11.094,10.42 21.07,22.02 31.875,32.63 14.965,14.68 30.52,29.01 45,44.29 14.414,15.24 28.863,29.29 38.844,47.22 -10.469,-0.45 -25.016,11.6 -33.356,17.43"
         style="fill:#18171a;fill-opacity:1;fill-rule:nonzero;stroke:none"
         id="path10896"
         inkscape:connector-curvature="0" /></g></g></svg>