<?xml version="1.0" encoding="UTF-8" standalone="no"?>
<svg
   xmlns:dc="http://purl.org/dc/elements/1.1/"
   xmlns:cc="http://creativecommons.org/ns#"
   xmlns:rdf="http://www.w3.org/1999/02/22-rdf-syntax-ns#"
   xmlns:svg="http://www.w3.org/2000/svg"
   xmlns="http://www.w3.org/2000/svg"
   xmlns:sodipodi="http://sodipodi.sourceforge.net/DTD/sodipodi-0.dtd"
   xmlns:inkscape="http://www.inkscape.org/namespaces/inkscape"
   version="1.1"
   id="svg9846"
   xml:space="preserve"
   width="162.69449"
   height="162.69449"
   viewBox="0 0 162.69449 162.69449"
   sodipodi:docname="human_resource_round.svg"
   inkscape:version="0.92.4 (5da689c313, 2019-01-14)"><metadata
     id="metadata9852"><rdf:RDF><cc:Work
         rdf:about=""><dc:format>image/svg+xml</dc:format><dc:type
           rdf:resource="http://purl.org/dc/dcmitype/StillImage" /><dc:title /></cc:Work></rdf:RDF></metadata><defs
     id="defs9850"><clipPath
       clipPathUnits="userSpaceOnUse"
       id="clipPath10950"><path
         d="m 1290.72,3718.21 c -0.21,0 -0.42,0 -0.64,0.01 -0.09,2.55 -0.4,5.9 -0.53,9.24 0.04,0.03 0.09,0.05 0.13,0.07 0.19,-3.05 0.49,-6.03 0.96,-8.88 0.95,-0.12 1.92,-0.17 2.9,-0.17 0.25,0 0.51,0 0.77,0.01 -1.21,-0.19 -2.4,-0.28 -3.59,-0.28 m 181.64,35.9 c -7.95,2.35 -15.84,4.9 -23.69,7.57 -13.42,4.57 -20.9,14.27 -29.45,24.37 -6.83,8.08 -16.1,17.21 -17.81,28.2 0.37,1.67 0.71,3.35 1.03,5.05 1.17,-3.23 2.32,-6.46 3.69,-9.5 7.23,-16.1 19.36,-31.21 35.06,-40.62 9.81,-5.86 20.67,-10.31 31.17,-15.07"
         id="path10948"
         inkscape:connector-curvature="0" /></clipPath><clipPath
       clipPathUnits="userSpaceOnUse"
       id="clipPath11056"><path
         d="m 4284.95,1080.37 v 0 0 m 0,0 c -0.07,0.01 -0.75,0.15 -1.93,0.37 0.06,0.26 0.13,0.51 0.2,0.77 0.63,-0.12 1.18,-0.23 1.62,-0.31 -0.09,-0.74 0.08,-0.82 0.11,-0.83 m -63.84,11.92 c -3.56,0.63 -6.74,1.18 -9.36,1.61 l -0.03,0.17 0.73,0.21 c 0.19,0.06 0.39,0.12 0.58,0.19 2.34,-0.39 5.13,-0.87 8.23,-1.41 -0.05,-0.26 -0.1,-0.51 -0.15,-0.77"
         id="path11054"
         inkscape:connector-curvature="0" /></clipPath><clipPath
       clipPathUnits="userSpaceOnUse"
       id="clipPath11192"><path
         d="m 2163.02,1015.84 4.8,4.85 h 105.07 c -5.51,-1.06 -11.31,-2.53 -17.03,-4.17 l -92.84,-0.68 m 144.41,1.06 c -2.91,1.34 -6.43,2.72 -10.18,3.79 h 484.61 c -0.41,-0.1 -0.81,-0.2 -1.22,-0.31 l -473.21,-3.48 m 515.67,3.79 h -0.01 0.36 v 550.43 -550.43 h -0.35"
         id="path11190"
         inkscape:connector-curvature="0" /></clipPath></defs><sodipodi:namedview
     pagecolor="#ffffff"
     bordercolor="#666666"
     borderopacity="1"
     objecttolerance="10"
     gridtolerance="10"
     guidetolerance="10"
     inkscape:pageopacity="0"
     inkscape:pageshadow="2"
     inkscape:window-width="1920"
     inkscape:window-height="1001"
     id="namedview9848"
     showgrid="false"
     fit-margin-top="0"
     fit-margin-left="0"
     fit-margin-right="0"
     fit-margin-bottom="0"
     inkscape:zoom="3.1466666"
     inkscape:cx="-22.303912"
     inkscape:cy="108.93141"
     inkscape:window-x="-9"
     inkscape:window-y="-9"
     inkscape:window-maximized="1"
     inkscape:current-layer="layer1"
     inkscape:document-rotation="0" /><g
     inkscape:groupmode="layer"
     id="layer1"
     inkscape:label="fond"
     transform="matrix(1.3333333,0,0,-1.3333333,-89.331863,408.39239)"
     style="display:inline"><g
       id="g9856"
       transform="matrix(0.1,0,0,0.1,-122.69501,-58.987989)"
       style="opacity:0.3;fill:#e7eefc;fill-opacity:0"><circle
         style="opacity:1;fill:#e7eefc;fill-opacity:0;stroke:none;stroke-width:0.72015923;stroke-miterlimit:4;stroke-dasharray:none;stroke-opacity:1"
         id="path1032"
         cx="2507.0435"
         cy="-3042.7185"
         r="610.10437"
         transform="scale(1,-1)" /></g><g
       id="g6253"
       transform="matrix(0.11990103,0,0,0.11990103,-654.72079,65.512077)"
       style="display:inline;fill:#e7eefc;fill-opacity:1"><circle
         style="opacity:1;fill:#e7eefc;fill-opacity:1;stroke:none;stroke-width:0.79674804;stroke-miterlimit:4;stroke-dasharray:none;stroke-opacity:1"
         id="path1049"
         cx="6528.1353"
         cy="-1496.5236"
         r="508.12585"
         transform="scale(1,-1)" /></g></g><g
     id="g9854"
     inkscape:groupmode="layer"
     inkscape:label="discussion"
     transform="matrix(1.3333333,0,0,-1.3333333,-89.331863,408.39239)"
     style="display:inline"><path
       d="m 116.10251,260.67401 c -0.11436,0.0549 -0.25841,0.082 -0.38158,0.11998 -0.14031,-0.22437 -0.56793,-0.0549 -0.76152,-0.15184 -0.15652,-0.0794 -0.31007,-0.18235 -0.4565,-0.27522 -0.15571,-0.101 -0.42604,-0.16744 -0.54683,-0.30572 -0.10246,-0.11727 -0.21923,-0.40809 -0.30288,-0.564 -0.11098,-0.20811 -0.17238,-0.42503 -0.26248,-0.63992 -0.15544,-0.36878 -0.5118,-0.55316 -0.86112,-0.70974 -0.29468,-0.13219 -0.78878,-0.1078 -0.93893,-0.42369 -0.28627,-0.59857 -0.12181,-1.18425 0.29156,-1.66488 0.22797,-0.26573 0.49912,-0.18776 0.79278,-0.0509 0.30478,0.14169 0.61883,0.23455 0.92755,0.35997 0.24735,0.10172 0.43641,0.0569 0.70411,0.0373 0.32172,-0.0231 0.63843,0.008 0.95595,0.0645 0.62223,0.11456 1.19659,0.39181 1.82737,0.31454 0.64135,-0.078 1.41874,-0.0685 2.05324,0.0786 0.15334,0.036 0.28336,0.11049 0.43188,0.16337 0.17902,0.061 0.36408,0.0644 0.15278,0.22574 -0.24545,0.18641 -0.64927,0.18641 -0.95139,0.18573 -0.29156,-0.002 -0.56435,0.0515 -0.85028,0.0929 -0.24444,0.0338 -0.48881,0.0414 -0.69456,0.18709 0.35955,0.0739 0.76601,0.0366 1.13092,0.12542 0.34395,0.084 0.67367,0.21624 1.01628,0.31995 0.17456,0.0522 0.80607,0.22438 0.86355,0.42775 0.0995,0.35115 -0.63023,0.15591 -0.77191,0.12879 -0.43186,-0.0786 -0.80444,-0.17963 -1.24431,-0.17014 -0.33441,0.007 -0.80072,-0.0583 -1.11396,0.0461 0.52271,0.23591 1.12006,0.40198 1.66054,0.58637 0.32436,0.1105 0.78566,0.27183 0.98346,0.56671 0.30871,0.46366 -0.62785,0.13354 -0.78146,0.0834 -0.46868,-0.15456 -0.97045,-0.28268 -1.45582,-0.362 -0.20573,-0.0346 -0.79814,-0.22979 -0.97025,-0.0963 0.13849,0.26098 0.39297,0.40808 0.61199,0.60264 0.2698,0.24064 0.14006,0.30166 -0.0286,0.54908 -0.0832,0.12269 -0.066,0.18574 -0.2214,0.21827 -0.0968,0.0189 -0.29813,0.0163 -0.3969,-0.006 -0.29658,-0.0631 -0.31114,-0.34505 -0.007,-0.41555 -0.25103,-0.0279 -0.47134,-0.27793 -0.70195,-0.37825 -0.16474,-0.0718 -0.55635,-0.24675 -0.71341,-0.0963 0.054,0.16066 0.44862,0.24201 0.58759,0.32064 0.15917,0.0888 0.45946,0.21286 0.44116,0.43113 l -0.0172,0.0746"
       style="display:inline;fill:#daaa50;fill-opacity:1;fill-rule:nonzero;stroke:none;stroke-width:0.06778824"
       id="path10724"
       inkscape:connector-curvature="0" /><path
       d="m 111.50695,258.27295 c 0.23014,0.20269 0.55003,0.1993 0.83204,0.23251 0.20098,-1.09138 0.50603,-2.25395 0.96143,-3.28433 -0.24464,0.007 -0.48217,-0.13354 -0.63918,-0.30302 -0.59816,1.07716 -1.04706,2.31565 -1.16804,3.53041 -0.086,-0.0129 -0.0156,-0.0583 -0.0463,-0.11524 l 0.06,-0.0603"
       style="display:inline;fill:#ebf3bf;fill-opacity:1;fill-rule:nonzero;stroke:none;stroke-width:0.06778824"
       id="path10726"
       inkscape:connector-curvature="0" /><path
       d="m 112.9141,254.62188 c -0.48381,0.82294 -0.88782,1.65878 -1.10577,2.54544 -0.0782,0.1627 -0.14832,0.33149 -0.20261,0.50842 -0.0413,0.11728 -0.0709,0.23794 -0.0903,0.35995 -0.0516,0.24675 -0.0706,0.48333 -0.0767,0.71652 -0.50922,-0.23658 -1.05736,-0.47926 -2.03365,-0.83853 -1.09444,-0.40606 -2.95069,-1.66353 -3.8928,-1.78012 -0.83916,-0.1037 -1.55202,-0.67179 -2.48701,-0.54638 -0.14697,0.57078 -0.79754,0.69619 -1.18495,0.33149 -1.970877,1.59505 -5.135769,1.27577 -7.298078,4.06661 h -0.450995 c -1.50456,0.61145 -1.613633,-1.77945 -1.418266,-2.68305 0.3546,-1.6337 1.488968,-3.15284 2.517994,-4.43403 1.123792,-1.39848 2.878355,-3.11284 4.755754,-3.06133 1.099731,0.0279 1.781811,0.48605 2.790971,0.87855 2.2341,0.86497 4.56805,1.60861 6.86993,2.25057 1.05837,0.29555 2.25234,0.75312 3.35098,1.28255 -0.0164,0.13286 -0.0304,0.26844 -0.0445,0.40334"
       style="display:inline;fill:#434343;fill-opacity:1;fill-rule:nonzero;stroke:none;stroke-width:0.06778824"
       id="path10728"
       inkscape:connector-curvature="0" /><path
       d="m 106.09108,267.31116 c -0.0236,-0.21422 -0.0765,-0.4047 -0.0636,-0.62637 0.011,-0.18574 0.10969,-0.33419 0.13904,-0.5179 0.0668,-0.42435 -0.13557,-0.90293 -0.23909,-1.30695 -0.22512,-0.88262 0.0492,-1.84046 -0.42239,-2.64442 -0.10534,-0.181 -0.25311,-0.31251 -0.36008,-0.49418 -0.11782,-0.19929 -0.22222,-0.41215 -0.35243,-0.6101 -0.13294,-0.19997 -0.27727,-0.38842 -0.41073,-0.58771 -0.0569,-0.084 -0.31271,-0.33896 -0.30296,-0.44334 0.0175,-0.17354 0.55079,-0.48401 0.68108,-0.56536 0.47215,-0.29488 0.9228,-0.48943 1.47148,-0.57551 0.16208,-0.0258 0.18404,-0.044 0.27833,0.0664 0.0831,0.0969 0.13368,0.25488 0.18243,0.37283 0.13822,0.33487 0.2428,0.68533 0.37921,1.01615 0.0265,0.0644 0.0809,0.23657 0.13075,0.28266 0.0524,0.0468 0.13774,0.0352 0.21428,0.0529 0.30844,0.0718 0.59606,0.20541 0.87962,0.34233 0.5177,0.24879 1.01317,0.60874 1.47094,0.96801 0.31752,0.24812 0.57621,0.66637 0.97846,0.75585 0.36781,0.0814 0.76417,0.078 1.14128,0.10642 0.24974,0.0183 0.29393,0.0718 0.41255,0.27726 0.0966,0.16879 0.28893,0.29149 0.37657,0.44672 0.0477,0.0847 0.004,0.13897 0.0153,0.2176 0.0148,0.0936 0.0839,0.181 0.13164,0.26641 0.0662,0.11728 0.22926,0.40335 0.0588,0.49892 l -0.0601,-0.0678 c -0.049,0.28335 0.31779,0.57348 0.4552,0.7782 0.10328,0.15388 0.51478,0.48198 0.37731,0.69619 -0.16629,0.26031 -0.5918,-0.059 -0.74012,-0.16472 -0.30978,-0.21964 -0.54013,-0.52265 -0.77583,-0.81618 -0.38659,-0.48265 -1.0356,-0.2481 -1.56605,-0.42571 0.0988,0.18575 0.41019,0.3464 0.56828,0.49147 0.18322,0.16743 0.30295,0.38029 0.47824,0.55518 0.3906,0.38912 0.79889,0.75042 1.20005,1.12326 0.15992,0.15049 0.29896,0.32198 0.4626,0.46503 0.1136,0.0996 0.28416,0.21624 0.30905,0.38435 0.0622,0.41894 -0.53913,0.24676 -0.7362,0.14981 -0.75169,-0.36944 -1.34966,-1.02223 -2.01031,-1.53337 -0.47053,-0.36334 -0.97074,-0.71991 -1.45718,-1.05206 0.0402,0.18912 0.25583,0.43858 0.36172,0.60331 0.15753,0.24607 0.25447,0.52265 0.41119,0.76669 0.209,0.33012 0.44016,0.63923 0.6366,0.98021 0.0686,0.11728 0.14881,0.24268 0.2052,0.36403 0.0562,0.11862 0.0646,0.24945 0.12236,0.36538 0.0648,0.13083 0.24364,0.2908 0.23862,0.44808 -0.004,0.13354 -0.13193,0.21013 -0.23699,0.21556 -0.39087,0.017 -0.67843,-0.49757 -0.90375,-0.75991 -0.63607,-0.73617 -1.11776,-1.58285 -1.71328,-2.34141 -0.21503,-0.27521 -0.37657,-0.56196 -0.72344,-0.665 -0.29102,-0.0861 -0.54678,0.0104 -0.70039,0.29963 -0.2277,0.42842 -0.20655,0.55111 -0.27088,0.99581 -0.0249,0.17218 -0.18031,0.73076 -0.31142,0.86227 -0.18425,0.18302 -0.29102,0.0555 -0.42707,-0.11661 l 0.0162,0.0996"
       style="display:inline;fill:#e8c880;fill-opacity:1;fill-rule:nonzero;stroke:none;stroke-width:0.06778824"
       id="path10730"
       inkscape:connector-curvature="0" /><path
       d="m 79.888282,211.46179 h 1.025839 v 3.4172 h -1.025839 v -3.4172"
       style="display:inline;fill:#20516b;fill-opacity:1;fill-rule:nonzero;stroke:none;stroke-width:0.06778824"
       id="path10732"
       inkscape:connector-curvature="0" /><path
       d="m 88.895372,210.87271 h 1.025026 v 3.4172 h -1.025026 v -3.4172"
       style="display:inline;fill:#20516b;fill-opacity:1;fill-rule:nonzero;stroke:none;stroke-width:0.06778824"
       id="path10734"
       inkscape:connector-curvature="0" /><path
       d="m 97.637681,211.88751 h 1.026043 v 3.41584 h -1.026043 v -3.41584"
       style="display:inline;fill:#20516b;fill-opacity:1;fill-rule:nonzero;stroke:none;stroke-width:0.06778824"
       id="path10736"
       inkscape:connector-curvature="0" /><path
       d="m 78.37518,215.11354 h 21.039773 v 17.90965 H 78.37518 v -17.90965"
       style="display:inline;fill:#dddedf;fill-opacity:1;fill-rule:nonzero;stroke:none;stroke-width:0.06778824"
       id="path10738"
       inkscape:connector-curvature="0" /><path
       d="m 78.37518,233.02319 c 0,-0.25894 4.709452,-0.46977 10.520192,-0.46977 5.810468,0 10.519581,0.21083 10.519581,0.46977 0,0.26031 -4.709113,0.47249 -10.519581,0.47249 -5.81074,0 -10.520192,-0.21218 -10.520192,-0.47249"
       style="display:inline;fill:#b3b3b3;fill-opacity:1;fill-rule:nonzero;stroke:none;stroke-width:0.06778824"
       id="path10740"
       inkscape:connector-curvature="0" /><path
       d="m 88.895372,216.55742 c -5.81074,0 -10.520192,-0.56127 -10.520192,-1.25407 0,-0.68873 4.709452,-1.25001 10.520192,-1.25001 5.810468,0 10.519581,0.56128 10.519581,1.25001 0,0.6928 -4.709113,1.25407 -10.519581,1.25407"
       style="display:inline;fill:#3789a7;fill-opacity:1;fill-rule:nonzero;stroke:none;stroke-width:0.06778824"
       id="path10742"
       inkscape:connector-curvature="0" /><path
       d="m 79.473621,232.14126 c -0.324638,0 -0.586301,-0.31589 -0.586301,-0.7077 v -15.02255 c 0,-0.39114 0.261663,-0.70771 0.586301,-0.70771 0.322469,0 0.585961,0.31657 0.585961,0.70771 v 15.02255 c 0,0.39181 -0.263492,0.7077 -0.585961,0.7077"
       style="display:inline;fill:#b3b3b3;fill-opacity:1;fill-rule:nonzero;stroke:none;stroke-width:0.06778824"
       id="path10744"
       inkscape:connector-curvature="0" /><path
       d="m 78.37518,217.08279 v -1.96925 h 0.135848 c 0.775633,-0.59924 5.122282,-1.0602 10.384344,-1.0602 5.262604,0 9.608982,0.46096 10.384275,1.0602 h 0.135306 v 17.90965 c 0,0.0441 -0.14134,0.0854 -0.384699,0.12473 C 95.986901,222.92681 87.37095,217.75457 78.37518,217.08279"
       style="display:inline;fill:#b3b3b3;fill-opacity:1;fill-rule:nonzero;stroke:none;stroke-width:0.06778824"
       id="path10746"
       inkscape:connector-curvature="0" /><path
       d="m 145.2032,239.51866 h -42.15731 v 2.05127 h 42.15731 v -2.05127"
       style="display:inline;fill:#b3b3b3;fill-opacity:1;fill-rule:nonzero;stroke:none;stroke-width:0.06778824"
       id="path10748"
       inkscape:connector-curvature="0" /><path
       d="m 123.83438,212.85484 h -2.69859 v 26.66382 h 2.69859 v -26.66382"
       style="display:inline;fill:#b3b3b3;fill-opacity:1;fill-rule:nonzero;stroke:none;stroke-width:0.06778824"
       id="path10750"
       inkscape:connector-curvature="0" /><path
       d="M 152.19554,242.85248 H 98.676467 c -2.586256,-0.25217 -4.072039,-0.54162 -4.072039,-0.85074 0,-0.94768 13.803652,-1.71436 30.831712,-1.71436 17.02705,0 30.83145,0.76668 30.83145,1.71436 0,0.30912 -1.48591,0.59857 -4.07205,0.85074"
       style="display:inline;fill:#dddedf;fill-opacity:1;fill-rule:nonzero;stroke:none;stroke-width:0.06778824"
       id="path10752"
       inkscape:connector-curvature="0" /><path
       d="m 131.33643,211.48551 c -0.0943,1.35848 -4.0176,2.45055 -8.85144,2.45055 -4.83392,0 -8.75689,-1.09207 -8.85092,-2.45055 h 17.70236"
       style="display:inline;fill:#b3b3b3;fill-opacity:1;fill-rule:nonzero;stroke:none;stroke-width:0.06778824"
       id="path10754"
       inkscape:connector-curvature="0" /><path
       d="m 159.05844,212.40541 h 1.02562 v 3.41719 h -1.02562 v -3.41719"
       style="display:inline;fill:#20516b;fill-opacity:1;fill-rule:nonzero;stroke:none;stroke-width:0.06778824"
       id="path10756"
       inkscape:connector-curvature="0" /><path
       d="m 168.06545,211.81497 h 1.02428 v 3.4172 h -1.02428 v -3.4172"
       style="display:inline;fill:#20516b;fill-opacity:1;fill-rule:nonzero;stroke:none;stroke-width:0.06778824"
       id="path10758"
       inkscape:connector-curvature="0" /><path
       d="m 176.80743,212.82976 h 1.02631 v 3.41721 h -1.02631 v -3.41721"
       style="display:inline;fill:#20516b;fill-opacity:1;fill-rule:nonzero;stroke:none;stroke-width:0.06778824"
       id="path10760"
       inkscape:connector-curvature="0" /><path
       d="m 157.54608,216.0558 h 21.03943 v 17.91033 H 157.54608 V 216.0558"
       style="display:inline;fill:#dddedf;fill-opacity:1;fill-rule:nonzero;stroke:none;stroke-width:0.06778824"
       id="path10762"
       inkscape:connector-curvature="0" /><path
       d="m 157.54608,233.96613 c 0,-0.25964 4.70857,-0.47045 10.51937,-0.47045 5.81081,0 10.52006,0.21081 10.52006,0.47045 0,0.26031 -4.70925,0.4718 -10.52006,0.4718 -5.8108,0 -10.51937,-0.21149 -10.51937,-0.4718"
       style="display:inline;fill:#b3b3b3;fill-opacity:1;fill-rule:nonzero;stroke:none;stroke-width:0.06778824"
       id="path10764"
       inkscape:connector-curvature="0" /><path
       d="m 168.06545,217.49901 c -5.8108,0 -10.51937,-0.55993 -10.51937,-1.25204 0,-0.68942 4.70857,-1.25069 10.51937,-1.25069 5.81081,0 10.52006,0.56127 10.52006,1.25069 0,0.69211 -4.70925,1.25204 -10.52006,1.25204"
       style="display:inline;fill:#3789a7;fill-opacity:1;fill-rule:nonzero;stroke:none;stroke-width:0.06778824"
       id="path10766"
       inkscape:connector-curvature="0" /><path
       d="m 158.64357,233.08352 c -0.32403,0 -0.58569,-0.31657 -0.58569,-0.70771 V 217.3519 c 0,-0.38909 0.26166,-0.70634 0.58569,-0.70634 0.32335,0 0.58568,0.31725 0.58568,0.70634 v 15.02391 c 0,0.39114 -0.26233,0.70771 -0.58568,0.70771"
       style="display:inline;fill:#b3b3b3;fill-opacity:1;fill-rule:nonzero;stroke:none;stroke-width:0.06778824"
       id="path10768"
       inkscape:connector-curvature="0" /><path
       d="m 157.54608,218.02505 v -1.96925 h 0.13557 c 0.7755,-0.60061 5.12208,-1.05952 10.3838,-1.05952 5.26376,0 9.60966,0.45891 10.38584,1.05952 h 0.13422 v 17.91033 c 0,0.0434 -0.141,0.084 -0.38503,0.12473 -3.0437,-10.22111 -11.65822,-15.39335 -20.6544,-16.06581"
       style="display:inline;fill:#b3b3b3;fill-opacity:1;fill-rule:nonzero;stroke:none;stroke-width:0.06778824"
       id="path10770"
       inkscape:connector-curvature="0" /><path
       d="m 107.10417,242.92977 14.29009,-1.39712 12.84351,3.90325 -11.76763,0.50299 -15.36597,-3.00912"
       style="display:inline;fill:#80471b;fill-opacity:1;fill-rule:nonzero;stroke:none;stroke-width:0.06778824"
       id="path10772"
       inkscape:connector-curvature="0" /><path
       d="m 108.03361,243.37582 14.29011,-1.39645 12.84342,3.90325 -11.76756,0.50299 -15.36597,-3.00979"
       style="display:inline;fill:#ffa07a;fill-opacity:1;fill-rule:nonzero;stroke:none;stroke-width:0.06778824"
       id="path10774"
       inkscape:connector-curvature="0" /><path
       d="m 126.43548,242.944 h 4.90095 v 9.6422 l -4.90095,-1.6886 v -7.9536"
       style="display:inline;fill:#236565;fill-opacity:1;fill-rule:nonzero;stroke:none;stroke-width:0.06778824"
       id="path10776"
       inkscape:connector-curvature="0" /><path
       d="m 155.265,274.29877 c -1.94891,-0.3708 -3.20435,-1.90417 -3.20773,-3.88155 0,-0.73822 0.55043,-1.23715 0.15252,-1.94078 -0.29624,-0.53281 -1.00598,-0.80737 -0.39318,-1.38288 0.0888,-0.084 0.26031,-0.14101 0.32471,-0.22981 0.18438,-0.2603 0.0373,-0.26234 0.0279,-0.48739 -0.007,-0.19659 -0.0955,-0.19591 0.0155,-0.37894 0.078,-0.13151 0.25489,-0.10982 0.33488,-0.2637 -0.37013,-0.36063 0.0657,-0.41757 0.21556,-0.62296 0.26845,-0.37488 -0.0996,-0.50977 -0.0549,-0.89752 0.076,-0.61213 1.26901,-0.46367 1.75301,-0.46367 0.78431,0 1.39372,0.0319 2.07431,-0.39183 0.52063,-0.32402 1.25883,-1.05274 1.41679,-1.63098 0.036,0.4291 0.70634,0.80804 1.00529,1.05071 0.51451,0.41758 1.03241,0.80466 1.5449,1.22495 0.40944,0.3369 0.5301,0.3247 0.32063,0.80193 -0.13963,0.32267 -0.28674,0.68941 -0.35453,1.0236 -0.15862,0.79584 -0.16065,1.28256 0.12269,2.05737 0.39928,1.05547 0.49622,2.26209 0.29421,3.36366 -0.26438,1.44525 -1.33678,2.64645 -2.7861,2.92506 -0.56535,0.10778 -2.61121,0.51926 -2.97115,-0.0428 l 0.16472,0.16744"
       style="display:inline;fill:#e8c880;fill-opacity:1;fill-rule:nonzero;stroke:none;stroke-width:0.06778824"
       id="path10778"
       inkscape:connector-curvature="0" /><path
       d="m 142.26796,216.5798 c 1.41813,0.12879 2.64171,0.78364 3.56227,1.82825 0.47994,0.54705 0.93413,1.11512 1.32798,1.72047 0.25352,0.39656 0.55722,0.79041 0.72601,1.2107 0.32267,-0.0867 0.66365,-0.35725 0.96598,-0.51587 0.32199,-0.16745 0.6745,-0.34708 1.02767,-0.43791 0.29352,-0.0766 0.24946,-0.0908 0.22031,-0.39521 -0.0319,-0.32268 -0.0231,-0.66229 -0.008,-0.987 0.0183,-0.42028 0.0373,-0.84193 0.0664,-1.25747 0.017,-0.25285 0.0766,-0.46299 0.0149,-0.71856 -0.0441,-0.18777 -0.1071,-0.39724 -0.242,-0.54095 -0.17761,-0.18709 -0.44808,-0.19388 -0.69009,-0.26438 -0.98293,-0.2664 -1.98823,-0.55652 -2.99148,-0.74363 -0.84126,-0.15794 -1.60862,-0.46095 -2.48784,-0.46977 -0.53145,-0.003 -1.08799,0.28538 -1.36186,0.76126 -0.12813,0.21828 -0.078,0.52672 -0.21422,0.71652 l 0.0842,0.0936"
       style="display:inline;fill:#e8c880;fill-opacity:1;fill-rule:nonzero;stroke:none;stroke-width:0.06778824"
       id="path10780"
       inkscape:connector-curvature="0" /><path
       d="m 150.05344,215.21252 c 0.21014,0.22776 0.32539,0.59653 0.36266,0.89954 0.0474,0.35521 0.0555,0.69551 -0.0509,1.05005 -0.0542,0.19861 -0.1349,0.64262 -0.36674,0.71922 l 0.10779,-0.005 c -0.22099,0.0685 -0.6311,-0.0617 -0.85346,-0.10711 -0.44402,-0.0909 -0.92666,-0.19184 -1.35101,-0.34505 -0.87448,-0.32605 -1.7442,-0.72804 -2.59223,-1.13001 -0.50705,-0.24337 -1.10562,-0.65214 -1.69471,-0.67857 -0.26505,-0.0143 -0.77413,0.13354 -0.99037,0.31386 -0.15728,0.12676 -0.15458,0.30165 -0.22033,0.46909 -0.0922,0.21895 -0.1654,0.18168 -0.38165,0.18439 -0.33826,0.005 -0.63246,0.24877 -0.95784,0.31995 -0.39588,0.0922 -0.82498,0.0555 -1.19578,-0.0712 -0.24946,-0.0867 -0.3281,-0.11727 -0.20472,-0.38435 0.11049,-0.23524 0.30979,-0.42979 0.50977,-0.59925 0.4874,-0.41622 1.01614,-0.74839 1.58625,-1.02158 0.47857,-0.23793 0.91446,-0.53485 1.4188,-0.72397 1.35101,-0.50095 2.46749,0.36876 3.63277,0.81074 0.31317,0.12541 0.68873,0.21014 1.03309,0.17828 0.48469,-0.29284 -0.56061,-2.49935 -0.69618,-2.80982 0.15726,-0.0794 0.3247,-0.15117 0.48807,-0.21556 0.30776,0.64195 0.49147,1.48795 1.0636,1.91095 0.52264,0.38978 1.04801,0.6833 1.35305,1.23578"
       style="display:inline;fill:#5a2719;fill-opacity:1;fill-rule:nonzero;stroke:none;stroke-width:0.06778824"
       id="path10782"
       inkscape:connector-curvature="0" /><path
       d="m 149.31049,225.68376 c -0.3098,-0.24133 -0.44334,-0.86701 -0.58502,-1.22426 -0.19523,-0.4996 -0.41893,-0.96937 -0.63721,-1.44863 -0.3064,-0.67178 -0.57756,-1.37068 -0.85819,-2.0445 0.88734,-0.70703 1.88044,-1.01817 2.91217,-1.4432 0.65958,1.40253 1.67099,2.54748 2.44851,3.8829 0.62705,1.0697 1.47101,2.01264 1.97875,3.15013 0.43723,1.00055 0.5362,2.13736 0.48807,3.22876 -0.0244,0.50162 -0.45215,1.95974 0.1654,2.18887 0.12609,0.0447 0.27658,-0.0854 0.45757,9.8e-4 0.29149,0.13965 0.16201,0.23591 0.50096,0.25964 0.40604,0.0305 0.83583,0.0265 1.26154,0.0834 1.21341,0.15523 2.39292,0.60534 3.56159,0.95175 1.06225,0.31589 2.09601,0.38368 3.18401,0.5667 0.2176,0.036 1.31103,0.11864 1.41338,0.32539 0.15525,0.30301 -0.37554,0.51384 -0.58365,0.59451 -0.80329,0.30775 -1.74148,0.26979 -2.5868,0.29555 -1.03037,0.0279 -2.05466,0.0637 -3.08165,0.12473 -1.29476,0.08 -2.57663,0.16947 -3.86867,0.24472 -0.99175,0.0596 -1.89943,0.11184 -2.75831,-0.45147 -1.67301,-1.10224 -2.00788,-3.0281 -2.48986,-4.85906 -0.2454,-0.93277 -0.42164,-1.92723 -0.54705,-2.86744 -0.0664,-0.45418 0.0603,-1.25951 -0.37554,-1.55981"
       style="display:inline;fill:#5a2719;fill-opacity:1;fill-rule:nonzero;stroke:none;stroke-width:0.06778824"
       id="path10784"
       inkscape:connector-curvature="0" /><path
       d="m 149.84398,211.97969 c 1.31509,0.80329 2.19091,1.99704 2.57663,3.40636 0.202,0.73144 0.36741,1.47643 0.45418,2.22887 0.0522,0.48131 0.15931,0.98835 0.1193,1.46491 0.35658,0.0712 0.82024,-0.0122 1.19172,-0.0122 0.39114,0 0.82906,0.007 1.21138,0.0915 0.32538,0.0712 0.29081,0.0406 0.40876,-0.25827 0.12947,-0.31522 0.29759,-0.62026 0.47113,-0.91039 0.22776,-0.383 0.45215,-0.76398 0.68059,-1.12936 0.14101,-0.22506 0.30167,-0.39181 0.36673,-0.65416 0.0468,-0.19794 0.0888,-0.41554 0.0265,-0.61687 -0.0814,-0.26167 -0.34165,-0.39995 -0.54367,-0.57891 -0.8243,-0.71991 -1.66556,-1.47033 -2.55019,-2.12787 -0.74567,-0.55722 -1.33949,-1.20393 -2.19362,-1.62827 -0.52333,-0.26505 -1.20122,-0.26505 -1.70217,0.0434 -0.22844,0.13692 -0.33148,0.44401 -0.55179,0.55111 l 0.0346,0.13016"
       style="display:inline;fill:#e8c880;fill-opacity:1;fill-rule:nonzero;stroke:none;stroke-width:0.06778824"
       id="path10786"
       inkscape:connector-curvature="0" /><path
       d="m 158.09381,214.47091 c 0.0955,0.31318 0.0237,0.70975 -0.0861,1.00733 -0.12609,0.35183 -0.28946,0.67178 -0.56197,0.94632 -0.1471,0.15524 -0.44469,0.52401 -0.70975,0.48333 l 0.1078,0.0474 c -0.24608,-0.0428 -0.58095,-0.3613 -0.77483,-0.5084 -0.39114,-0.29692 -0.81142,-0.62569 -1.14765,-0.97141 -0.69619,-0.72398 -1.34763,-1.51439 -1.97603,-2.28921 -0.3769,-0.47248 -0.75922,-1.13952 -1.31849,-1.45135 -0.25488,-0.1349 -0.82498,-0.24267 -1.11781,-0.1837 -0.21558,0.04 -0.29828,0.20337 -0.44742,0.32471 -0.19726,0.15861 -0.25013,0.0882 -0.45688,-0.01 -0.33624,-0.16201 -0.74093,-0.0793 -1.09275,-0.16946 -0.42842,-0.11389 -0.83108,-0.34709 -1.13273,-0.64332 -0.19931,-0.20133 -0.26506,-0.26776 -0.0104,-0.45079 0.22302,-0.16812 0.51519,-0.25285 0.79108,-0.31454 0.67721,-0.14099 1.3578,-0.19386 2.04585,-0.17015 0.57824,0.01 1.15377,-0.0515 1.72725,0.0156 1.5659,0.18641 2.22955,1.52795 3.14741,2.50207 0.2481,0.26166 0.56807,0.52128 0.92328,0.66228 0.61145,-0.0366 0.67177,-2.57933 0.69076,-2.93116 0.18845,0.003 0.38775,0.0197 0.57754,0.0447 -0.017,0.73414 -0.24673,1.60387 0.10509,2.27226 0.32063,0.60875 0.69076,1.13207 0.71651,1.78691"
       style="display:inline;fill:#3d1914;fill-opacity:1;fill-rule:nonzero;stroke:none;stroke-width:0.06778824"
       id="path10788"
       inkscape:connector-curvature="0" /><path
       d="m 164.61097,242.6498 c -1.40797,-0.9104 -3.18266,-0.49554 -4.77501,-0.72127 -0.96734,-0.13625 -1.90756,-0.13625 -2.87829,-0.3369 -0.94631,-0.19252 -1.90484,-0.35047 -2.86405,-0.5335 -1.64455,-0.31521 -3.39754,-0.75516 -4.99328,-1.29272 -1.08732,-0.36877 -2.52986,-0.75314 -3.38128,-1.56184 -2.07432,-1.98485 0.11117,-5.43391 1.11648,-7.41671 1.90824,-3.75682 3.18265,-7.74074 4.79126,-11.61755 0.10038,-0.24471 0.37555,-1.17273 0.59384,-1.28526 0.23387,-0.11525 1.03512,0.24607 1.28187,0.33148 0.89616,0.30098 1.71504,0.7877 2.60577,1.08869 -1.3266,2.2431 -1.54693,5.29493 -1.9489,7.82885 -0.20201,1.24595 -0.48334,2.47292 -0.76737,3.68497 -0.21015,0.90362 -0.70296,1.72928 -1.00055,2.58273 -0.0129,-0.15861 0.0257,-0.27658 0.0657,-0.42707 0.15253,0.23184 0.32946,0.34031 0.60128,0.32539 0.10037,-0.005 0.62705,-0.0555 0.66501,-0.0569 0.50027,-0.0563 4.66518,0.17962 6.27853,0.41689 1.80048,0.26166 3.7948,0.3647 5.59729,0.0854 1.7313,-0.27049 3.50127,-0.24676 5.17834,0.30843 3.2857,1.08393 3.53245,4.35946 2.83287,7.3435 -0.1132,0.47927 -0.31251,0.93412 -0.48808,1.37814 -0.21556,0.54976 -0.23658,0.71923 -0.85683,0.77278 -1.97535,0.17422 -4.11814,-0.31793 -6.04672,-0.68873 -0.5057,-0.0963 -1.32457,-0.0644 -1.71775,-0.32268 l 0.10982,0.11389"
       style="display:inline;fill:#321415;fill-opacity:1;fill-rule:nonzero;stroke:none;stroke-width:0.06778824"
       id="path10790"
       inkscape:connector-curvature="0" /><path
       d="m 158.11279,262.1179 c 0.78905,0.78432 1.49134,1.72115 2.27701,2.5346 0.54704,0.56129 0.47791,0.44401 1.11443,0.17693 0.39927,-0.16811 0.84804,-0.1471 1.27306,-0.30641 1.14088,-0.42842 2.2865,-1.52998 3.09725,-2.40308 1.28662,-1.37746 2.31768,-3.12437 3.08165,-4.84144 1.26696,-2.84982 2.32242,-5.69354 3.17045,-8.70672 0.33624,-1.19171 0.73008,-2.43088 0.81957,-3.66193 0.0529,-0.77414 0.36335,-1.93874 0.58908,-2.66068 -0.78567,-0.0536 -1.78961,0.45282 -2.54884,0.58095 -0.9192,0.15658 -1.95366,0.15523 -2.88846,0.15523 -1.33746,0 -3.0742,-0.40335 -4.36081,-0.73618 0.73143,0.82905 0.74296,2.68916 0.70839,3.7331 -0.0393,1.18019 -1.26493,1.95365 -1.94824,2.85524 -0.4996,0.66364 -0.86227,1.44118 -1.31646,2.14279 -0.43045,0.66229 -0.95581,1.5537 -1.07375,2.34276 -0.0828,0.57756 0.0881,1.15714 0.18641,1.71639 0.13016,0.74161 0.1037,1.49338 0.0963,2.2438 -0.005,0.72804 -0.22778,1.3022 -0.62027,1.90552 -0.59856,0.92192 -0.90294,2.27904 -1.38085,3.09793 l -0.27589,-0.1688"
       style="display:inline;fill:#e5f6f6;fill-opacity:1;fill-rule:nonzero;stroke:none;stroke-width:0.06778824"
       id="path10792"
       inkscape:connector-curvature="0" /><path
       d="m 163.73718,242.24985 c 0.29149,0.61213 0.5301,1.27645 0.65958,1.94146 -0.082,-0.7538 -0.26641,-1.49609 -0.65891,-1.94146 0,0 0,0 -6.7e-4,0"
       style="display:inline;fill:#e3f6f5;fill-opacity:1;fill-rule:nonzero;stroke:none;stroke-width:0.06778824"
       id="path10794"
       inkscape:connector-curvature="0" /><path
       d="m 163.73718,242.24917 c 0,6.8e-4 0,6.8e-4 0,6.8e-4 6.7e-4,0 6.7e-4,0 6.7e-4,0 0,0 -6.7e-4,0 -6.7e-4,-6.8e-4"
       style="display:inline;fill:#2d1414;fill-opacity:1;fill-rule:nonzero;stroke:none;stroke-width:0.06778824"
       id="path10796"
       inkscape:connector-curvature="0" /><path
       d="m 164.4476,245.91855 c -0.0156,0.0915 -0.0346,0.18235 -0.0569,0.27182 -0.22302,0.88125 -1.35508,1.89401 -1.89332,2.64714 v 0 0 c 0.6833,-0.90159 1.90891,-1.67505 1.94824,-2.85524 6.8e-4,-0.0211 9.8e-4,-0.042 0.002,-0.0637 m -2.0472,3.05114 c -0.54095,0.72127 -1.32323,1.50355 -1.47304,2.41327 0.0854,-0.141 0.1715,-0.2759 0.25352,-0.40266 0.42436,-0.65552 0.76873,-1.37814 1.21952,-2.01061"
       style="display:inline;fill:#e3f6f5;fill-opacity:1;fill-rule:nonzero;stroke:none;stroke-width:0.06778824"
       id="path10798"
       inkscape:connector-curvature="0" /><path
       d="m 163.73718,242.24917 v 0 c 0,6.8e-4 6.7e-4,6.8e-4 6.7e-4,6.8e-4 0.3925,0.44537 0.57689,1.18766 0.65891,1.94146 0.11456,0.58704 0.14506,1.17475 0.0509,1.72724 -6.8e-4,0.0217 -9.8e-4,0.0428 -0.002,0.0637 -0.0392,1.18019 -1.26493,1.95365 -1.94823,2.85524 v 0 c -0.0312,0.044 -0.0637,0.0874 -0.0969,0.13219 -0.45079,0.63246 -0.79516,1.35509 -1.21952,2.01059 -0.082,0.12677 -0.16811,0.26167 -0.25353,0.40266 -0.0428,0.25692 -0.0346,0.52469 0.0441,0.8033 0.32471,1.16188 1.07919,2.28446 1.48389,3.45991 0.26234,0.76872 0.38029,2.54545 0.93479,3.03894 l -0.0834,0.16811 c 0.95583,-0.86633 1.61471,-1.26424 1.66691,-2.68237 0.0346,-0.99311 -0.14777,-1.88383 0.43385,-2.74272 0.58773,-0.8609 1.21613,-1.03376 1.23171,-2.16718 0.0135,-0.89887 -0.79108,-2.01942 -0.66771,-2.79153 0.13964,-0.87515 1.32458,-0.77006 1.67369,-1.5354 0.43384,-0.95174 -0.53891,-1.31576 -0.846,-2.02686 -0.27047,-0.63111 0.64671,-1.39983 0.9531,-1.92994 -1.21883,-0.0326 -3.20705,-0.45011 -4.01509,-0.72805"
       style="display:inline;fill:#cbedea;fill-opacity:1;fill-rule:nonzero;stroke:none;stroke-width:0.06778824"
       id="path10800"
       inkscape:connector-curvature="0" /><path
       d="m 148.11335,245.53758 c -0.83652,0.0271 -1.62827,0.12811 -2.46275,-0.042 -0.45012,-0.0915 -0.65484,-0.13286 -0.91446,-0.54094 -0.11999,-0.19117 -0.23524,-0.38164 -0.35726,-0.56671 -1.05274,-0.75246 -2.5007,-1.35374 -2.75965,-2.68171 l 0.0373,-0.12133 c 0.61145,0.36266 0.91514,1.04258 1.44254,1.40999 0.1593,0.11118 0.33216,0.18642 0.51451,0.26709 l -0.005,-0.0631 c -0.13692,-0.2908 -0.28065,-0.73008 -0.33352,-0.91242 -0.14439,-0.47114 -0.49079,-1.25477 -0.24404,-1.73403 0.463,0.48875 0.67857,1.26357 1.08258,1.78418 -0.18642,-0.58433 -0.5545,-1.32457 -0.57213,-1.92789 0.3403,0.4047 0.61009,0.91379 0.94769,1.29137 0.17827,0.19929 0.50705,0.383 0.74362,0.56739 0.3681,0.29081 0.84803,0.58297 0.7911,1.13476 0.55518,-0.17421 1.93061,-0.0257 2.41326,-0.35656 -0.20607,0.76262 0.007,1.78894 -0.32335,2.4919"
       style="display:inline;fill:#e8c880;fill-opacity:1;fill-rule:nonzero;stroke:none;stroke-width:0.06778824"
       id="path10802"
       inkscape:connector-curvature="0" /><path
       d="m 147.59883,245.57283 c 1.97739,0 3.74666,0.47383 5.6549,0.90022 0.95784,0.21489 3.70936,1.34153 4.27811,0.27727 0.14507,0.45078 -0.35046,1.10087 -0.46977,1.60453 0.33284,0.0156 0.66433,-0.0929 0.97614,-0.16337 -0.38096,1.10021 0.21761,1.85673 0.52808,3.05658 0.2664,1.02767 0.55925,2.01398 0.65211,3.06266 0.14643,1.62692 -0.0929,3.6504 0.6989,5.13429 0.64942,1.22154 1.83843,1.92043 3.24367,1.88994 1.97332,-0.0428 2.48445,-1.82961 2.61392,-3.51482 0.2542,-3.31417 -0.69347,-6.6602 -1.5815,-9.81574 -0.43385,-1.54286 -0.57755,-3.53244 -2.09127,-4.39132 -1.44931,-0.82159 -3.51618,-0.76262 -5.13495,-0.83854 -2.92642,-0.13558 -6.45006,-0.48197 -9.26259,0.11184 -0.34097,0.84465 0.21963,1.91842 -0.10575,2.68646"
       style="display:inline;fill:#e5f6f6;fill-opacity:1;fill-rule:nonzero;stroke:none;stroke-width:0.06778824"
       id="path10804"
       inkscape:connector-curvature="0" /><path
       d="m 155.59581,251.98627 c 0.11117,0.27793 0.0766,0.46164 -0.0312,0.59993 0.0474,-0.17421 0.036,-0.35928 0.0312,-0.59993"
       style="display:inline;fill:#7a2219;fill-opacity:1;fill-rule:nonzero;stroke:none;stroke-width:0.06778824"
       id="path10806"
       inkscape:connector-curvature="0" /><path
       d="m 159.61294,254.14465 c -0.14032,-0.0414 -0.29759,-0.0637 -0.45893,-0.0583 0.22506,-0.11388 0.37487,-0.0671 0.45893,0.0583"
       style="display:inline;fill:#7a2219;fill-opacity:1;fill-rule:nonzero;stroke:none;stroke-width:0.06778824"
       id="path10808"
       inkscape:connector-curvature="0" /><path
       d="m 156.79634,263.10558 c -0.16269,-0.41284 -0.46231,-0.77957 -0.63043,-1.28865 -0.0623,0.27183 -0.0969,0.55111 -0.0685,0.84395 l 0.0271,0.16676 c 0.16541,0.28268 0.34979,0.56129 0.46503,0.87989 0.0224,0.061 0.0428,0.12541 0.0623,0.18642 0.0312,-0.0637 0.0718,-0.1227 0.10779,-0.18371 0.0529,-0.19862 0.0563,-0.40062 0.0366,-0.60466 z m -0.8738,-5.1919 c 0.28607,-0.25353 0.61078,-0.90429 0.28336,-1.23578 l -0.0163,0.0772 c -0.0888,0.52333 -0.31725,0.97006 -0.55925,1.40796 0.0922,-0.0793 0.19184,-0.15659 0.29216,-0.24945 z m -0.47926,2.54273 c -0.11117,-0.46163 -0.31929,-0.87244 -0.30707,-1.34831 -0.0868,0.18846 -0.1627,0.38233 -0.21286,0.58908 -0.2359,0.91989 0.10846,1.50016 0.48129,2.20176 0.0583,-0.49349 0.1654,-0.92462 0.0386,-1.44253 z m 2.99217,2.03907 c 0.21083,-0.0867 0.40674,-0.18777 0.59112,-0.29692 0.18574,0.54435 0.37554,1.08192 0.55112,1.61201 -0.0874,0.76262 0.0434,1.56862 0.40333,2.31633 0.66433,1.38153 1.12868,3.46398 1.6188,5.17495 0.0284,0.101 0.0772,0.19116 0.11455,0.2881 -0.40875,1.61201 -1.50489,3.06538 -3.14401,3.50262 -0.34436,0.0921 -0.64942,0.0685 -1.01208,0.0935 -0.3491,0.0244 -0.66161,0.14101 -1.00395,0.20879 -0.68195,0.13761 -1.41474,0.1349 -2.04041,-0.20879 -0.0806,-0.0434 -0.13084,-0.0549 -0.17288,-0.0834 -0.83311,0.0177 -1.99906,-1.33475 -2.37732,-1.97534 -0.42368,-0.71857 -0.41284,-1.87977 0.17081,-2.52782 0.0752,0.18777 0.19388,0.37621 0.34302,0.52129 -0.002,-0.21829 -0.065,-0.82227 0.20268,-0.91717 0.24472,-0.0888 0.42233,0.50433 0.66229,0.63246 -0.0116,-0.39454 0.005,-0.98361 0.46233,-1.01141 0.55993,-0.0319 0.53619,0.48875 0.96123,-0.0854 0.27793,-0.37759 0.65077,-0.67042 0.8243,-1.12597 0.16134,-0.42774 0.19795,-0.92803 0.30845,-1.36999 0.31724,-1.26832 0.0732,-2.317 -0.29421,-3.50263 -0.32878,-0.43113 -0.70907,-0.83108 -1.00597,-1.28864 -0.46843,-0.72738 -0.69484,-1.78284 -0.53078,-2.66069 0.1559,-0.83651 1.05612,-1.128 1.27102,-1.90825 0.1566,-0.55993 0.41555,-1.50964 0.20744,-2.07973 -0.19998,-0.55316 -0.79854,-0.63518 -1.12122,-1.03648 -0.2793,-0.33555 -0.33488,-1.17884 -0.0447,-1.52728 0.24405,-0.29216 0.92938,-0.33013 1.18427,-0.65347 -0.0312,0.12201 -0.0977,0.242 -0.21557,0.36673 -0.23251,0.2542 -0.7016,0.39385 -0.51181,0.83515 0.084,0.20065 0.46165,0.383 0.6257,0.51113 0.31453,0.24064 0.49282,0.4596 0.63449,0.83039 0.1993,0.50909 0.19523,0.99378 0.11117,1.51168 0.70568,0.21286 0.34979,1.09207 0.0156,1.45271 -0.63652,0.68669 -0.18641,0.8826 0.1261,1.60454 0.0495,0.12067 0.0814,0.24065 0.10235,0.36131 0.0346,-0.0678 0.0623,-0.13692 0.0949,-0.20471 0.27183,-0.61824 -0.27928,-1.07038 0.18574,-1.70759 0.0603,-0.082 0.10234,-0.15931 0.13693,-0.23793 l 0.01,-0.0265 c 0.0515,-0.25555 0.0305,-0.53417 0.059,-0.79312 -0.0603,-0.30979 -0.16268,-0.63111 -0.13151,-1.01071 0.0691,-0.83177 0.61756,-1.19782 1.31306,-1.3212 -0.54365,0.15116 -0.82362,0.7633 -0.68804,1.39508 0.065,0.30165 0.31047,0.41893 0.41485,0.71787 0.10309,0.28268 0.0346,0.57215 -0.0392,0.84261 -0.0922,0.34708 -0.2915,0.63789 -0.0515,0.97276 0.11659,0.16608 0.28268,0.29624 0.45147,0.43045 0.0549,0.37488 0.13355,0.75313 0.22913,1.13072 -0.0874,-0.0909 -0.18236,-0.17829 -0.29759,-0.25557 -0.46978,-0.32471 -0.64399,-0.1037 -0.68332,0.24811 l 0.0189,0.0386 c 0.18098,0.37215 0.76669,0.4813 0.79243,0.89684 0.0217,0.39115 -0.27521,0.52196 -0.0549,1.00191 0.0577,0.12203 0.13693,0.22438 0.22301,0.31792"
       style="display:inline;fill:#7a2219;fill-opacity:1;fill-rule:nonzero;stroke:none;stroke-width:0.06778824"
       id="path10810"
       inkscape:connector-curvature="0" /><path
       d="m 158.12024,254.75813 c 0.0922,-0.0291 0.19117,-0.0428 0.29691,-0.04 -0.0963,0.008 -0.19997,0.0211 -0.29691,0.04"
       style="display:inline;fill:#7a2219;fill-opacity:1;fill-rule:nonzero;stroke:none;stroke-width:0.06778824"
       id="path10812"
       inkscape:connector-curvature="0" /><path
       d="m 159.96951,274.24793 c 0.13896,0.22505 0.67855,0.25623 0.93005,0.27047 0.61755,0.0366 1.2168,-0.11727 1.72047,-0.47927 1.04665,-0.75177 1.38626,-2.27496 1.27781,-3.49244 -0.13695,-1.54218 -1.19444,-2.91829 -2.87897,-2.5746 -0.70025,0.14168 -0.39927,0.42639 -0.3647,0.99513 0.0515,0.90227 9.8e-4,1.81402 -0.18032,2.69731 -0.11117,0.54161 -0.34301,1.04054 -0.38368,1.58556 -0.0257,0.34843 -0.0346,0.68059 -0.18709,0.99445 -0.0474,-0.0955 -0.10441,-0.21014 -0.17354,-0.29759 l 0.23997,0.30098"
       style="display:inline;fill:#7a2219;fill-opacity:1;fill-rule:nonzero;stroke:none;stroke-width:0.06778824"
       id="path10814"
       inkscape:connector-curvature="0" /><path
       d="m 160.93006,268.57269 c -0.13354,-0.2237 0.15389,-0.60467 0.27048,-0.81006 0.23997,-0.423 0.48198,-0.93141 0.59585,-1.40457 0.16067,-0.67518 -0.0495,-1.45068 -0.55924,-1.92316 -0.34572,-0.3186 -0.81075,-0.4474 -1.26901,-0.30097 -0.24267,0.0793 -0.83853,0.71854 -0.98293,0.58772 -0.10099,-0.0915 -0.0279,-0.38911 -0.0366,-0.50977 -0.0203,-0.32267 -0.082,-0.68127 -0.21014,-0.97818 -0.18302,-0.42369 -0.31861,-0.44876 -0.007,-0.81617 0.68399,-0.80805 1.77876,-0.90023 2.71085,-0.36267 1.22697,0.70974 1.57067,2.49799 1.23104,3.78529 -0.19184,0.72331 -0.43994,1.30222 -0.93345,1.88519 -0.16269,0.1932 -0.32198,0.42706 -0.5023,0.60196 -0.13016,0.12745 -0.29895,0.17829 -0.33759,0.36538 l 0.0298,-0.11999"
       style="display:inline;fill:#7a2219;fill-opacity:1;fill-rule:nonzero;stroke:none;stroke-width:0.06778824"
       id="path10816"
       inkscape:connector-curvature="0" /><path
       d="m 162.13127,268.00191 c 0.68669,-0.68736 0.88396,-1.77265 0.95446,-2.71084 0.0563,-0.74025 0.0563,-1.59574 -0.34504,-2.24515 -0.27386,-0.44062 -0.58569,-1.05275 -1.0053,-1.37271 -0.34369,-0.26234 -0.84464,-0.31725 -1.25545,-0.37487 -0.40604,-0.0569 -0.72939,-0.078 -1.05749,-0.35115 -0.25013,-0.20945 -0.42232,-0.43858 -0.71381,-0.60195 -0.24201,-0.13557 -0.47994,-0.24472 -0.74973,-0.2698 -0.10846,-0.0109 -0.2698,-0.0237 -0.36131,0.0373 -0.17218,0.11593 -0.0488,0.18982 -0.12067,0.3525 -0.21488,0.50028 -0.4474,-0.42706 -0.32335,-0.72126 0.17557,-0.41554 1.01954,-0.54298 0.77821,-1.04733 0.2481,0.04 0.25218,0.41487 0.59518,0.47791 0.48875,0.0901 1.00665,-0.0197 1.50219,0.0868 1.36389,0.29556 2.37395,1.63979 2.95013,2.82406 0.34708,0.71109 0.51588,1.4249 0.61621,2.20108 0.0848,0.65958 0.0678,1.55574 -0.17219,2.18413 -0.1593,0.42369 -0.47112,0.86295 -0.72737,1.23171 -0.0969,0.1383 -0.2237,0.2793 -0.35452,0.3898 -0.0847,0.0718 -0.40944,0.19455 -0.423,0.30029 l 0.0333,0.0901 0.17964,-0.48062"
       style="display:inline;fill:#7a2219;fill-opacity:1;fill-rule:nonzero;stroke:none;stroke-width:0.06778824"
       id="path10818"
       inkscape:connector-curvature="0" /><path
       d="m 127.68611,243.72289 c 0,-0.17286 -0.13979,-0.31183 -0.31272,-0.31183 -0.17265,0 -0.31297,0.13897 -0.31297,0.31183 v 6.86152 c 0,0.17287 0.14032,0.31319 0.31297,0.31319 0.17293,0 0.31272,-0.14032 0.31272,-0.31319 v -6.86152"
       style="display:inline;fill:#2b7f79;fill-opacity:1;fill-rule:nonzero;stroke:none;stroke-width:0.06778824"
       id="path10820"
       inkscape:connector-curvature="0" /><path
       d="m 131.33643,242.84977 h 3.94999 v 16.22526 h -3.94999 z"
       style="display:inline;fill:#90ee90;fill-opacity:1;fill-rule:nonzero;stroke:none;stroke-width:0.06778824"
       id="path10822"
       inkscape:connector-curvature="0" /><path
       d="m 132.12753,250.96267 h 2.35298 v 7.37543 h -2.35298 z"
       style="display:inline;fill:#e4edf6;fill-opacity:1;fill-rule:nonzero;stroke:none;stroke-width:0.06778824"
       id="path10824"
       inkscape:connector-curvature="0" /><path
       d="m 134.12389,246.09682 c 0,-0.39452 -0.36334,-0.71516 -0.81278,-0.71516 -0.44808,0 -0.8121,0.32064 -0.8121,0.71516 0,0.39521 0.36402,0.71518 0.8121,0.71518 0.44944,0 0.81278,-0.31997 0.81278,-0.71518"
       style="display:inline;fill:#2b4973;fill-opacity:1;fill-rule:nonzero;stroke:none;stroke-width:0.06778824"
       id="path10826"
       inkscape:connector-curvature="0" /><path
       d="m 133.31111,246.75505 c -0.4169,0 -0.75585,-0.2942 -0.75585,-0.65823 0,-0.36265 0.33895,-0.65753 0.75585,-0.65753 0.4169,0 0.75583,0.29488 0.75583,0.65753 0,0.36403 -0.33893,0.65823 -0.75583,0.65823 m 0,-1.42898 c -0.47927,0 -0.86906,0.34572 -0.86906,0.77075 0,0.42504 0.38979,0.77144 0.86906,0.77144 0.47994,0 0.86972,-0.3464 0.86972,-0.77144 0,-0.42503 -0.38978,-0.77075 -0.86972,-0.77075"
       style="display:inline;fill:#fbeaf2;fill-opacity:1;fill-rule:nonzero;stroke:none;stroke-width:0.06778824"
       id="path10828"
       inkscape:connector-curvature="0" /><path
       d="m 134.90209,242.84977 h 0.38422 v 16.22526 h -0.38422 z"
       style="display:inline;fill:#3d8e8c;fill-opacity:1;fill-rule:nonzero;stroke:none;stroke-width:0.06778824"
       id="path10830"
       inkscape:connector-curvature="0" /><path
       d="m 131.63538,242.85045 h -0.29895 v 16.22444 h 0.29895 v -16.22444"
       style="display:inline;fill:#3d8e8c;fill-opacity:1;fill-rule:nonzero;stroke:none;stroke-width:0.06778824"
       id="path10832"
       inkscape:connector-curvature="0" /><path
       d="m 134.90209,242.84977 h -1.59098 l 0.0542,2.47767 c 0.45484,0.0251 0.81549,0.35995 0.81549,0.76938 0,0.39928 -0.34302,0.72873 -0.78228,0.76806 l 0.0896,4.09779 h 0.99242 v 7.37536 h -0.83108 l 0.0163,0.73686 h 1.23645 v -16.22512"
       style="display:inline;fill:#90ee90;fill-opacity:1;fill-rule:nonzero;stroke:none;stroke-width:0.06778824"
       id="path10834"
       inkscape:connector-curvature="0" /><path
       d="m 134.48046,250.96267 h -0.99243 l 0.16134,7.37536 h 0.83109 v -7.37536"
       style="display:inline;fill:#e4edf6;fill-opacity:1;fill-rule:nonzero;stroke:none;stroke-width:0.06778824"
       id="path10836"
       inkscape:connector-curvature="0" /><path
       d="m 133.36804,245.44132 0.0284,1.30967 c 0.37691,-0.0366 0.67042,-0.31521 0.67042,-0.65417 0,-0.34571 -0.30842,-0.63043 -0.6989,-0.6555"
       style="display:inline;fill:#27446d;fill-opacity:1;fill-rule:nonzero;stroke:none;stroke-width:0.06778824"
       id="path10838"
       inkscape:connector-curvature="0" /><path
       d="m 133.36534,245.32744 0.003,0.11388 c 0.39046,0.0251 0.69889,0.30979 0.69889,0.6555 0,0.33896 -0.29351,0.61757 -0.67042,0.65417 l 0.002,0.11389 c 0.43926,-0.0393 0.78227,-0.36878 0.78227,-0.76806 0,-0.40943 -0.36064,-0.7443 -0.81549,-0.76938"
       style="display:inline;fill:#dfd8e9;fill-opacity:1;fill-rule:nonzero;stroke:none;stroke-width:0.06778824"
       id="path10840"
       inkscape:connector-curvature="0" /><path
       d="m 134.98955,242.84977 h -0.0875 v 16.22512 h 0.0922 l -0.005,-16.22512"
       style="display:inline;fill:#388087;fill-opacity:1;fill-rule:nonzero;stroke:none;stroke-width:0.06778824"
       id="path10842"
       inkscape:connector-curvature="0" /><path
       d="m 135.28645,242.84977 h 3.95159 v 16.22526 h -3.95159 z"
       style="display:inline;fill:#90ee90;fill-opacity:1;fill-rule:nonzero;stroke:none;stroke-width:0.06778824"
       id="path10844"
       inkscape:connector-curvature="0" /><path
       d="m 136.0789,250.96267 h 2.35219 v 7.37543 h -2.35219 z"
       style="display:inline;fill:#e4edf6;fill-opacity:1;fill-rule:nonzero;stroke:none;stroke-width:0.06778824"
       id="path10846"
       inkscape:connector-curvature="0" /><path
       d="m 138.07526,246.09682 c 0,-0.39452 -0.36403,-0.71516 -0.81346,-0.71516 -0.44808,0 -0.81211,0.32064 -0.81211,0.71516 0,0.39521 0.36403,0.71518 0.81211,0.71518 0.44943,0 0.81346,-0.31997 0.81346,-0.71518"
       style="display:inline;fill:#2b4973;fill-opacity:1;fill-rule:nonzero;stroke:none;stroke-width:0.06778824"
       id="path10848"
       inkscape:connector-curvature="0" /><path
       d="m 137.2618,246.75505 c -0.41622,0 -0.75583,-0.2942 -0.75583,-0.65823 0,-0.36265 0.33961,-0.65753 0.75583,-0.65753 0.41757,0 0.75653,0.29488 0.75653,0.65753 0,0.36403 -0.33896,0.65823 -0.75653,0.65823 m 0,-1.42898 c -0.47927,0 -0.86904,0.34572 -0.86904,0.77075 0,0.42504 0.38977,0.77144 0.86904,0.77144 0.47994,0 0.86973,-0.3464 0.86973,-0.77144 0,-0.42503 -0.38979,-0.77075 -0.86973,-0.77075"
       style="display:inline;fill:#fbeaf2;fill-opacity:1;fill-rule:nonzero;stroke:none;stroke-width:0.06778824"
       id="path10850"
       inkscape:connector-curvature="0" /><path
       d="m 138.8528,242.84977 h 0.38501 v 16.22526 h -0.38501 z"
       style="display:inline;fill:#3355ae;fill-opacity:1;fill-rule:nonzero;stroke:none;stroke-width:0.06778824"
       id="path10852"
       inkscape:connector-curvature="0" /><path
       d="m 135.58677,242.85045 h -0.30032 v 16.22444 h 0.30032 v -16.22444"
       style="display:inline;fill:#3d8e8c;fill-opacity:1;fill-rule:nonzero;stroke:none;stroke-width:0.06778824"
       id="path10854"
       inkscape:connector-curvature="0" /><path
       d="m 138.79449,242.84977 h -1.8018 l 0.12608,2.48648 c 0.0468,-0.007 0.0942,-0.0104 0.14303,-0.0104 0.47994,0 0.86973,0.34572 0.86973,0.77075 0,0.42504 -0.38979,0.77144 -0.86973,0.77144 -0.0217,0 -0.0434,-6.8e-4 -0.065,-0.002 l 0.20812,4.09644 h 1.02632 v 7.37536 h -0.65214 l 0.0373,0.73686 h 0.98157 l -0.003,-16.22511"
       style="display:inline;fill:#90ee90;fill-opacity:1;fill-rule:nonzero;stroke:none;stroke-width:0.06778824"
       id="path10856"
       inkscape:connector-curvature="0" /><path
       d="m 138.43115,250.96267 h -1.02632 l 0.37419,7.37536 h 0.65213 v -7.37536"
       style="display:inline;fill:#e4edf6;fill-opacity:1;fill-rule:nonzero;stroke:none;stroke-width:0.06778824"
       id="path10858"
       inkscape:connector-curvature="0" /><path
       d="m 137.2618,245.43929 c -0.0468,0 -0.0929,0.003 -0.13693,0.0108 l 0.0657,1.30221 c 0.0237,0.002 0.0474,0.003 0.0712,0.003 0.41757,0 0.75653,-0.29419 0.75653,-0.65822 0,-0.36266 -0.33896,-0.65754 -0.75653,-0.65754"
       style="display:inline;fill:#27446d;fill-opacity:1;fill-rule:nonzero;stroke:none;stroke-width:0.06778824"
       id="path10860"
       inkscape:connector-curvature="0" /><path
       d="m 137.2618,245.32607 c -0.0487,0 -0.0963,0.003 -0.14303,0.0104 l 0.006,0.11388 c 0.044,-0.007 0.0901,-0.0108 0.13692,-0.0108 0.41758,0 0.75653,0.29489 0.75653,0.65755 0,0.36402 -0.33895,0.65823 -0.75653,0.65823 -0.0237,0 -0.0474,-6.8e-4 -0.0712,-0.003 l 0.006,0.11388 c 0.0217,9.8e-4 0.0434,0.002 0.065,0.002 0.47994,0 0.86972,-0.34641 0.86972,-0.77144 0,-0.42502 -0.38978,-0.77075 -0.86972,-0.77075"
       style="display:inline;fill:#dfd8e9;fill-opacity:1;fill-rule:nonzero;stroke:none;stroke-width:0.06778824"
       id="path10862"
       inkscape:connector-curvature="0" /><path
       d="m 113.79744,228.44071 c -0.91221,-0.44741 -0.87432,-2.5563 -0.19034,-3.17723 0.95249,-0.87041 2.95062,-0.46909 3.52946,0.6284 0.75815,1.43845 -1.22941,3.30263 -2.72102,2.68441 l -0.6181,-0.13558"
       style="display:inline;fill:#3789a7;fill-opacity:1;fill-rule:nonzero;stroke:none;stroke-width:0.06778824"
       id="path10864"
       inkscape:connector-curvature="0" /><path
       d="m 103.01702,216.91807 c -1.17992,-0.5335 -0.43716,-3.10877 0.3527,-3.70938 1.12861,-0.86024 3.1628,-0.52128 3.84169,0.78025 0.94111,1.80248 -2.16841,4.84211 -3.50194,3.24705 l -0.69245,-0.31792"
       style="display:inline;fill:#3789a7;fill-opacity:1;fill-rule:nonzero;stroke:none;stroke-width:0.06778824"
       id="path10866"
       inkscape:connector-curvature="0" /><path
       d="m 90.387255,243.76694 c 1.2612,0.14507 2.785419,-0.37621 4.041874,-0.54705 1.16216,-0.1559 2.381331,-0.20945 3.547221,-0.37215 0.964356,-0.13355 2.23356,-0.36877 3.11853,-0.80872 1.09282,-0.54026 2.75226,-2.61662 3.06314,-3.77308 0.8336,-3.09182 4.96686,-20.9581 4.867,-21.80612 -0.12866,-1.10292 -7.37936,-2.9149 -7.37936,-2.9149 -3.878232,10.54107 -3.878232,10.54107 -3.961408,13.76576 -0.0389,1.49744 0.196789,4.19947 -0.900568,5.13631 -0.163098,0.13829 -1.151586,0.46774 -1.342275,0.53214 -0.585418,0.19997 -0.593892,0.18168 -1.299838,0.14371 -1.034313,-0.0569 -2.054593,-0.0631 -3.059215,0.13422 -3.157983,0.61552 -5.428617,2.69525 -4.513002,6.28601 0.56271,2.20108 2.21376,3.58599 4.049601,4.2415 l -0.2317,-0.0177"
       style="display:inline;fill:#2a2a2a;fill-opacity:1;fill-rule:nonzero;stroke:none;stroke-width:0.06778824"
       id="path10868"
       inkscape:connector-curvature="0" /><path
       d="m 93.141424,277.73223 c 2.000768,-0.0691 3.464859,-1.34762 3.734656,-3.23213 0.100399,-0.70229 -0.380767,-1.25815 0.1128,-1.87096 0.369175,-0.46502 1.114845,-0.62297 0.579656,-1.25882 -0.07782,-0.0936 -0.240443,-0.17423 -0.293928,-0.26709 -0.147983,-0.27523 0,-0.25692 0.03844,-0.46909 0.03491,-0.1871 0.122019,-0.17151 0.03681,-0.36131 -0.05885,-0.13761 -0.240716,-0.14168 -0.299759,-0.30166 0.420219,-0.28878 -0.0096,-0.40674 -0.131646,-0.6223 -0.217871,-0.39655 0.169471,-0.47045 0.177945,-0.84736 0.0072,-0.59381 -1.207715,-0.62635 -1.692063,-0.69617 -0.781666,-0.11321 -1.397047,-0.17219 -2.021987,-0.67382 -0.475262,-0.38301 -1.115048,-1.18426 -1.193953,-1.75843 -0.0943,0.40402 -0.815561,0.66703 -1.149486,0.85685 -0.569827,0.32199 -1.141553,0.61551 -1.710568,0.94294 -0.45574,0.26097 -0.573556,0.23114 -0.42849,0.71651 0.09721,0.32673 0.193061,0.69755 0.216109,1.02631 0.04975,0.78025 -0.01403,1.24595 -0.402255,1.94146 -0.542577,0.94903 -0.803901,2.08448 -0.751771,3.16232 0.0707,1.41473 0.979539,2.71423 2.392721,3.18944 0.54922,0.18438 2.539145,0.87107 2.97448,0.38774 l -0.187706,0.13557"
       style="display:inline;fill:#e8c880;fill-opacity:1;fill-rule:nonzero;stroke:none;stroke-width:0.06778824"
       id="path10870"
       inkscape:connector-curvature="0" /><path
       d="m 89.672564,247.36312 c -1.210156,1.02224 -1.60387,2.79762 -0.885247,4.21507 0.88362,1.74283 1.969858,3.35348 3.154526,4.89498 0.45418,0.98022 1.162771,1.85401 2.059066,2.53258 0.314606,0.36808 0.633956,0.73278 0.95168,1.10088 0.0069,1.27916 -0.08365,2.43765 -1.053903,3.44703 -0.216856,0.22641 -0.475806,0.45825 -0.755161,0.66432 -0.04155,0.12269 -0.08974,0.24269 -0.14222,0.36132 0.297387,-0.0225 0.490922,0.19115 0.579928,0.51383 -1.84167,1.1341 -3.364262,2.57459 -4.731686,4.24218 -0.08684,0.0691 -0.176115,0.13423 -0.263968,0.20337 -0.419744,-0.27387 -0.547661,-1.16798 -0.964965,-1.51982 -0.462316,-0.39046 -1.160331,-0.47587 -1.652609,-0.86226 -0.554712,-0.4318 -0.980015,-0.97683 -1.448702,-1.52185 -1.304111,-1.51032 -2.546805,-3.46194 -3.209367,-5.38781 -0.844167,-2.44376 -1.636408,-4.73907 -1.845602,-7.36858 -0.198349,-2.47155 -1.372441,-5.70912 -0.552136,-8.15357 0.548408,-1.62894 3.649449,0.27183 4.814592,0.37149 1.25171,0.10982 2.513723,0.19184 3.752146,0.35386 0.861928,0.11184 2.062525,-0.0705 2.877611,0.23861 0.462316,0.17624 0.692661,0.51248 0.803358,0.93954 -0.515258,0.10643 -1.016823,0.33624 -1.487341,0.73483"
       style="display:inline;fill:#ebf3bf;fill-opacity:1;fill-rule:nonzero;stroke:none;stroke-width:0.06778824"
       id="path10872"
       inkscape:connector-curvature="0" /><path
       d="m 96.418781,275.84434 c 0.392426,-0.21556 0.439877,0.30979 0.42476,0.60534 -0.02569,0.46571 -0.270339,0.75653 -0.55288,1.10157 -0.701473,0.85887 -1.51283,0.5579 -2.349609,0.9775 -0.571929,0.28878 -1.149484,0.48741 -1.801404,0.51859 -0.266137,0.0129 -0.660121,0.0495 -0.896025,-0.0786 -0.171369,-0.0942 -0.256104,-0.28946 -0.440419,-0.39317 -0.475534,-0.26438 -1.030856,-0.13964 -1.529981,-0.45486 -0.72608,-0.46096 -1.28296,-1.1402 -1.612343,-1.96517 -0.493838,-1.24731 -0.521156,-2.89932 0.07416,-4.13171 0.260307,-0.53959 1.148672,-2.06347 1.773069,-2.15295 0.11436,0.51181 0.384494,1.21342 0.704388,1.61472 0.277457,0.34844 0.225057,0.19183 0.549695,-0.007 0.177673,-0.10914 0.726622,-0.34504 0.831219,-0.0603 0.09158,0.25015 -0.281253,0.51249 -0.369649,0.70907 -0.101483,0.21964 -0.211838,0.6562 -0.109139,0.89412 0.232513,0.54367 0.912497,0.0773 1.21673,-0.14912 0.03552,0.1776 -0.01743,0.56331 0.191231,0.57822 0.206008,0.0122 0.297319,-0.48061 0.656122,-0.34843 -0.0055,0.17083 -0.02488,0.34843 -0.02698,0.51858 0.565082,9.8e-4 0.374666,0.34776 0.519258,0.78296 0.162827,0.49215 0.269052,0.59654 0.700117,0.57688 0.495736,-0.0244 1.756935,0.30098 2.015954,0.77889 l 0.03172,0.0848"
       style="display:inline;fill:#4d1a13;fill-opacity:1;fill-rule:nonzero;stroke:none;stroke-width:0.06778824"
       id="path10874"
       inkscape:connector-curvature="0" /><path
       d="m 114.82885,212.8806 c 0.0953,0.27522 0.24973,-0.22234 0.20892,-0.36335 -0.0734,-0.22844 -0.44937,-0.35453 -0.66488,-0.46027 -0.64662,-0.34709 -1.36769,-0.69349 -2.06014,-0.8521 -1.45107,-0.35386 -2.95272,-0.63043 -4.42318,-0.62027 -0.60773,0.005 -1.19531,0.18099 -1.78657,0.23726 -0.17027,0.0129 -0.57674,0.0827 -0.74464,-0.0211 -0.22689,-0.13829 -0.15016,-0.44537 -0.0873,-0.6284 -0.54312,-0.1993 -1.05493,-0.25149 -1.52943,-0.29419 -0.43087,-0.0406 -0.94612,-0.18168 -1.33829,-0.0298 -0.28471,0.10643 -0.37656,0.72466 -0.40461,1.05478 -0.0288,0.34437 0.002,0.35725 0.31087,0.33691 0.48638,-0.0271 1.01175,0.0766 1.50165,0.12473 1.0343,0.10507 2.01778,0.29217 3.0306,0.1471 0.58338,-0.0854 1.14922,-0.24878 1.74135,-0.30572 0.52536,-0.0603 1.05939,-0.0143 1.59404,0.0501 1.43522,0.15658 2.69858,0.90767 4.04133,1.40998 0.20289,0.08 0.40646,0.17964 0.5863,0.30302 -0.0164,-0.0719 0.13504,0.0509 0.12521,-0.0177 l -0.1011,-0.0712"
       style="display:inline;fill:#713418;fill-opacity:1;fill-rule:nonzero;stroke:none;stroke-width:0.06778824"
       id="path10876"
       inkscape:connector-curvature="0" /><path
       d="m 107.44393,215.84429 c 0.25711,-0.038 0.46496,-0.27453 0.66012,-0.42909 0.28125,-0.22167 0.56881,-0.42571 0.85399,-0.63586 0.49174,-0.36538 1.0253,-0.79312 1.62373,-0.94225 0.84099,-0.21692 1.66847,-0.20947 2.51583,0.0563 0.34932,0.10982 0.88233,0.17964 1.20615,0.0177 0.22223,-0.11728 0.61512,-0.78025 0.4748,-1.03716 -0.0959,-0.18032 -0.65036,-0.33963 -0.82031,-0.4108 -0.29656,-0.1227 -4.20104,-1.98687 -7.21205,-1.30221 -1.25884,0.29081 -2.49468,-0.10846 -3.77765,-0.29081 -0.28254,-0.04 -0.85208,-0.0759 -1.04223,0.18777 -0.15545,0.20743 -0.14324,0.89006 -0.16019,1.16799 -0.0533,0.75109 0.0852,1.6337 0.36518,2.33463 0.19353,-0.0177 0.44856,-0.27048 0.63944,-0.35183 0.28865,-0.1254 0.58786,-0.19793 0.90084,-0.24877 0.45656,-0.0794 0.94246,-0.12405 1.40586,-0.0882 0.90112,0.0841 1.13599,0.8914 1.66264,1.53946 0.19964,0.2454 0.53173,0.51249 0.82749,0.39047 l -0.12364,0.0428"
       style="display:inline;fill:#14181c;fill-opacity:1;fill-rule:nonzero;stroke:none;stroke-width:0.06778824"
       id="path10878"
       inkscape:connector-curvature="0" /><path
       d="m 125.27304,227.32153 c 0.0376,0.28674 0.29048,-0.1688 0.278,-0.31657 -0.0267,-0.2332 -0.37412,-0.42978 -0.56216,-0.57146 -0.56827,-0.46097 -1.20935,-0.93548 -1.85963,-1.22019 -1.35822,-0.62026 -2.78279,-1.1741 -4.23494,-1.44118 -0.5958,-0.11185 -1.21064,-0.0447 -1.80594,-0.10307 -0.16948,-0.0203 -0.58359,-0.0298 -0.72975,-0.1627 -0.19462,-0.17692 -0.0581,-0.46164 0.0416,-0.62975 -0.49702,-0.29895 -0.99086,-0.44605 -1.4487,-0.57959 -0.41656,-0.11863 -0.8971,-0.35183 -1.3121,-0.27658 -0.30288,0.0487 -0.51709,0.63653 -0.61057,0.95242 -0.0969,0.33352 -0.067,0.35047 0.23826,0.38843 0.48728,0.0657 0.9824,0.26641 1.45454,0.40605 0.9996,0.29488 1.93122,0.66229 2.95808,0.7111 0.59233,0.0279 1.17917,-0.0265 1.77442,0.0312 0.53221,0.04 1.04618,0.18507 1.55988,0.35115 1.38573,0.42164 2.47963,1.39576 3.70028,2.13736 0.18277,0.11591 0.36546,0.25285 0.51689,0.40606 -4.8e-4,-0.0739 0.12372,0.0772 0.12663,0.007 l -0.0847,-0.0896"
       style="display:inline;fill:#a9601d;fill-opacity:1;fill-rule:nonzero;stroke:none;stroke-width:0.06778824"
       id="path10880"
       inkscape:connector-curvature="0" /><path
       d="m 117.40643,228.82574 c 0.26003,0.0143 0.51261,-0.18167 0.7361,-0.29556 0.32146,-0.16133 0.64718,-0.3091 0.96808,-0.45688 0.55798,-0.26844 1.16962,-0.58433 1.79084,-0.62027 0.86857,-0.0509 1.68067,0.1132 2.46478,0.52942 0.32199,0.17626 0.83224,0.34505 1.1852,0.2454 0.24175,-0.0718 0.76026,-0.64196 0.67416,-0.92123 -0.0593,-0.19388 -0.57302,-0.45419 -0.72472,-0.55723 -0.26979,-0.17761 -3.74374,-2.73187 -6.84479,-2.62815 -1.29963,0.0428 -2.43846,-0.57688 -3.66293,-0.99717 -0.27271,-0.0922 -0.82458,-0.23319 -1.06474,-0.0129 -0.19544,0.17625 -0.31828,0.84329 -0.39107,1.11173 -0.2031,0.7206 -0.24262,1.60997 -0.10725,2.34886 0.19463,0.0183 0.49384,-0.17895 0.69985,-0.22438 0.30979,-0.0678 0.62175,-0.0813 0.93948,-0.0704 0.46339,0.006 0.95039,0.0542 1.40105,0.17896 0.86903,0.24877 0.94109,1.08122 1.32878,1.81605 0.1477,0.27454 0.42286,0.59993 0.73902,0.5362 l -0.13184,0.0177"
       style="display:inline;fill:#14181c;fill-opacity:1;fill-rule:nonzero;stroke:none;stroke-width:0.06778824"
       id="path10882"
       inkscape:connector-curvature="0" /><path
       d="m 82.129497,237.73312 c 0.02203,0.59653 0.850538,1.5598 1.181277,2.03974 0.580199,0.84058 1.243236,1.58421 1.944438,2.34277 0.907685,0.98225 1.753206,2.06143 2.930756,2.66475 0.08847,-0.0529 0.168182,-0.12134 0.242546,-0.1993 l -0.340772,-0.005 c 0.661479,-0.0149 1.415893,-0.6101 2.13133,-0.45758 0.655919,0.14304 1.363695,0.86092 1.857805,1.25612 1.256251,0.99988 2.369944,1.80384 3.781634,2.64442 1.662371,0.99038 3.624772,2.85049 5.768839,2.80236 0.22486,0.0644 0.45256,0.10779 0.6747,0.11932 2.41367,0.11184 4.63638,-3.57719 5.79618,-5.06921 3.61636,-4.65231 7.56555,-14.06132 10.23974,-16.45763 0,0 0.15862,-0.0237 0,0 -2.09852,-2.94608 -5.45831,-3.75072 -7.69823,-3.86799 0,0 -5.30444,11.18913 -7.11879,14.0125 -0.69693,1.08258 -2.11227,1.89197 -2.72847,2.98946 -1.529238,-1.4283 -2.490679,-3.22401 -3.810447,-4.80077 -1.502188,-1.79298 -2.732476,-4.40486 -5.236099,-5.06106 -1.959554,-0.5118 -4.798185,0.76669 -6.433306,1.88723 -0.834067,0.56806 -3.225229,2.04855 -3.183131,3.16029"
       style="display:inline;fill:#434343;fill-opacity:1;fill-rule:nonzero;stroke:none;stroke-width:0.06778824"
       id="path10884"
       inkscape:connector-curvature="0" /><path
       d="m 91.994853,247.45192 c -0.160522,0.58771 0.216855,0.48468 0.248647,1.07308 0.04312,0.7972 -0.149134,0.82025 -0.390596,1.5049 -0.291285,0.82635 -0.139846,2.08992 -0.101681,3.3074 1.102576,2.71491 2.389535,5.36204 3.238447,8.15898 -0.231701,0.80193 -0.537493,1.6825 -0.994317,2.31904 -0.576201,0.80193 -1.504018,1.22358 -2.339712,1.73605 -0.695913,0.42707 -1.372237,0.88464 -2.042662,1.35034 -0.387139,0.26776 -1.329327,1.28596 -1.681216,1.28459 l 0.07809,-0.0664 c -0.336772,0.17828 -1.073494,0.006 -1.345935,-0.13558 -0.509225,-0.26438 -0.902193,-0.85616 -1.357866,-1.23239 -0.68317,-0.56061 -1.54991,-1.00056 -2.163936,-1.62217 -0.532001,-0.53893 -0.893992,-1.39848 -1.226831,-2.06077 -1.027128,-2.04923 -1.733345,-4.26727 -2.565379,-6.40531 -0.81556,-2.10009 -1.379015,-4.05712 -1.38776,-6.30024 -0.70859,-0.41215 -0.502108,-4.09576 -0.428693,-5.08682 0.150625,-2.04314 0.637074,-4.00019 1.381389,-5.90436 0.603789,-1.54151 3.498009,-7.68786 5.673874,-6.84389 0.811832,0.31385 1.578179,2.2065 2.101165,2.93658 0.828237,1.15782 1.771713,2.32378 2.581241,3.52092 0.775293,1.14765 3.586674,4.23404 3.24509,5.68065 -0.04053,0.17219 -0.702761,0.59179 -0.859284,0.7233 0.370192,0.19659 0.934732,0.60671 0.986657,1.05411 0.0728,0.63043 -0.49282,0.43724 -0.648733,1.00801"
       style="display:inline;fill:#18171a;fill-opacity:1;fill-rule:nonzero;stroke:none;stroke-width:0.06778824"
       id="path10886"
       inkscape:connector-curvature="0" /><path
       d="m 81.390741,234.94228 c 0.225327,-0.48808 0.560268,-0.95379 0.733468,-1.4466 -0.591046,-0.20541 -1.322141,-0.005 -1.827639,-0.52942 0.57037,-1.23443 2.338965,-1.36256 3.508041,-1.51372 1.336174,-0.17285 1.992365,-0.22439 2.98824,0.69822 1.835097,1.69809 3.471233,3.78598 4.415793,6.12466 0.630974,1.5632 1.863635,4.11543 0.900839,5.74506 -0.596604,1.01003 -1.73626,1.50354 -2.878085,1.6215 -2.180612,0.22301 -3.695272,-0.56266 -4.980334,-2.30209 -1.601768,-2.16923 -2.482743,-5.41561 -2.666518,-8.02342 0.135034,-0.0189 0.298676,-0.0333 0.436149,-0.0122 l -0.629954,-0.36199"
       style="display:inline;fill:#18171a;fill-opacity:1;fill-rule:nonzero;stroke:none;stroke-width:0.06778824"
       id="path10888"
       inkscape:connector-curvature="0" /><path
       d="m 105.88026,260.42455 c -0.2256,0.16066 -0.44537,0.30098 -0.65931,0.43046 -0.51825,0.21421 -0.93792,0.29827 -1.23767,0.29963 -0.11972,-0.0943 -0.24574,-0.18236 -0.37949,-0.26303 0.29611,-0.39927 0.85719,-0.92734 1.58218,-1.44253 1.18182,-0.84057 2.29558,-1.30424 2.48646,-1.03513 0.19199,0.27116 -0.61089,1.17002 -1.79217,2.0106"
       style="display:inline;fill:#3789a7;fill-opacity:1;fill-rule:nonzero;stroke:none;stroke-width:0.06778824"
       id="path10890"
       inkscape:connector-curvature="0" /><path
       d="m 104.30025,260.76417 c 0.0423,0.21353 0.25047,0.36131 0.36253,0.5484 0.099,0.16744 0.13767,0.37488 0.26871,0.50706 0.69937,-0.81278 1.8372,-2.00653 2.9999,-2.0506 -0.22322,-0.28063 -0.46659,-0.56535 -0.71706,-0.82836 -0.1046,-0.1105 -0.24919,-0.33081 -0.38979,-0.40267 -0.19353,-0.0996 -0.40618,-0.008 -0.62513,0.0949 -0.56271,0.26708 -1.24032,0.67042 -1.50172,1.26154 -0.0784,0.17828 -0.16181,0.33758 -0.24676,0.51045 -0.0651,0.13354 -0.14751,0.44061 -0.15068,0.42028 v -0.0609"
       style="display:inline;fill:#ebf3bf;fill-opacity:1;fill-rule:nonzero;stroke:none;stroke-width:0.06778824"
       id="path10892"
       inkscape:connector-curvature="0" /><path
       d="m 84.99382,263.22895 0.184588,-0.15998 c -0.07545,0.095 -0.139305,0.15252 -0.184588,0.15998"
       style="display:inline;fill:#18171a;fill-opacity:1;fill-rule:nonzero;stroke:none;stroke-width:0.06778824"
       id="path10894"
       inkscape:connector-curvature="0" /><path
       d="m 95.969683,249.11747 c 0.0034,0.0657 -0.0048,0.15863 0.01302,0.21218 -0.01011,-0.0758 -0.0122,-0.14439 -0.01302,-0.21218 z m 9.470217,10.64208 c -0.58677,0.41012 -1.06048,0.94836 -1.61946,1.40253 -0.1957,-0.16472 -0.35853,-0.3735 -0.50129,-0.60331 -1.31705,-1.07919 -2.76027,-2.02958 -4.181112,-3.00573 -1.028755,-0.7077 -1.541166,-1.31577 -2.43353,-0.3586 -0.661749,0.70839 -1.103661,1.52726 -1.509373,2.42546 -1.402606,3.1108 -3.484992,8.12104 -7.861808,6.55852 -0.658291,-0.2359 -1.466733,-0.71313 -1.778898,-1.34967 -0.204992,-0.41554 -0.468417,-1.46965 -0.1692,-1.93739 l -0.206821,0.17761 c 0.538577,-0.67517 1.722227,-3.31553 2.069912,-3.89308 1.009911,-1.67708 1.980705,-3.50668 3.310778,-4.95938 1.034787,-1.13275 2.194102,-2.22074 3.284272,-3.30739 0.520071,-0.5179 1.370068,-1.81334 2.125025,-1.8113 0.0013,-1.21138 1.474937,-1.09208 2.201762,-0.48333 0.125543,0.10574 0.250546,0.22302 0.376022,0.33419 0.487464,0.29556 0.982116,0.907 1.310484,1.21409 0.752047,0.70635 1.428297,1.4927 2.160737,2.21193 1.01446,0.99513 2.06891,1.96653 3.05048,3.00233 0.9771,1.0331 1.95657,1.98553 2.63316,3.20097 -0.70966,-0.0305 -1.69578,0.78634 -2.26114,1.18155"
       style="display:inline;fill:#18171a;fill-opacity:1;fill-rule:nonzero;stroke:none;stroke-width:0.06778824"
       id="path10896"
       inkscape:connector-curvature="0" /></g></svg>