<?xml version="1.0" encoding="UTF-8" standalone="no"?>
<svg
   xmlns:dc="http://purl.org/dc/elements/1.1/"
   xmlns:cc="http://creativecommons.org/ns#"
   xmlns:rdf="http://www.w3.org/1999/02/22-rdf-syntax-ns#"
   xmlns:svg="http://www.w3.org/2000/svg"
   xmlns="http://www.w3.org/2000/svg"
   xmlns:sodipodi="http://sodipodi.sourceforge.net/DTD/sodipodi-0.dtd"
   xmlns:inkscape="http://www.inkscape.org/namespaces/inkscape"
   version="1.1"
   id="svg4695"
   xml:space="preserve"
   width="2280.6279"
   height="2328.0061"
   viewBox="0 0 2280.6279 2328.0061"
   sodipodi:docname="interview.svg"
   inkscape:version="1.0.1 (3bc2e813f5, 2020-09-07)"><metadata
     id="metadata4701"><rdf:RDF><cc:Work
         rdf:about=""><dc:format>image/svg+xml</dc:format><dc:type
           rdf:resource="http://purl.org/dc/dcmitype/StillImage" /><dc:title /></cc:Work></rdf:RDF></metadata><defs
     id="defs4699" /><sodipodi:namedview
     pagecolor="#ffffff"
     bordercolor="#666666"
     borderopacity="1"
     objecttolerance="10"
     gridtolerance="10"
     guidetolerance="10"
     inkscape:pageopacity="0"
     inkscape:pageshadow="2"
     inkscape:window-width="1920"
     inkscape:window-height="1106"
     id="namedview4697"
     showgrid="false"
     inkscape:zoom="0.1251579"
     inkscape:cx="-186.74844"
     inkscape:cy="988.40795"
     inkscape:window-x="-11"
     inkscape:window-y="-11"
     inkscape:window-maximized="1"
     inkscape:current-layer="g4705"
     inkscape:document-rotation="0"
     fit-margin-top="0"
     fit-margin-left="0"
     fit-margin-right="0"
     fit-margin-bottom="0" /><g
     id="g4703"
     inkscape:groupmode="layer"
     inkscape:label="ink_ext_XXXXXX"
     transform="matrix(1.3333333,0,0,-1.3333333,-1011.3829,2402.7466)"
     style="display:inline"><g
       id="g4705"
       transform="scale(0.1)"><path
         d="M 20905.7,3055.4 12298.9,4671.2 14310.3,15385.5 22917,13769.7 20905.7,3055.4"
         style="fill:#bee5ed;fill-opacity:1;fill-rule:nonzero;stroke:none"
         id="path4709"
         inkscape:connector-curvature="0" /><path
         d="m 22500,14867.3 -1300.2,-9309 -9001,1257.2 1564.9,11205.1 7308,-1020.6 1428.3,-2132.7"
         style="fill:#f7fbfc;fill-opacity:1;fill-rule:nonzero;stroke:none"
         id="path4711"
         inkscape:connector-curvature="0" /><path
         d="m 15186.4,13349.6 c -45.9,-66.7 3.7,-154.7 76.8,-173 82,-20.6 144.4,56.6 138.4,133.3 -6.4,82.1 -76.9,138.3 -158.3,128.5 -80.9,-9.7 -135.7,-84.1 -115.1,-164.3 56.1,-218.1 412.9,-13.2 271,139.2 -54.1,58.1 -155.8,52.6 -193.8,-19.8 -36.8,-70 4.7,-165.7 85.6,-176 80,-10.1 157.8,67.1 134.2,148.2 -19.6,67.2 -100,94.8 -162.5,75.4 -78,-24.3 -101.4,-116.7 -52.6,-179.6 45.7,-58.8 137.8,-77.3 194.3,-22.7 53,51.4 46.8,143.2 -1.4,195.5 -58.4,63.4 -155.2,50.1 -208.1,-12.9 -56.7,-67.5 -45.8,-165.8 26.3,-217.8 67.7,-48.8 161.8,-38.5 212.5,29.1 50.3,66.9 43.3,170.5 -30.8,217.2 -61.8,38.8 -149.9,28.1 -203.4,-20.3 -62.8,-56.7 -57,-152.8 2.6,-209.4 61.9,-59 155.7,-67.6 222.7,-13.4 56.7,45.8 -21.2,127.9 -77.6,82.3 -22.7,-18.3 -69.6,2.4 -78.3,28 -10.5,30.6 27.9,44.9 52.3,43.1 34.8,-2.5 43.4,-39.6 18.8,-63.9 -29.7,-29.5 -85.6,8.3 -63.2,46.3 18.1,30.7 65.3,20.5 51.6,-17 -4,-10.9 -10.4,-8.3 -21.7,-1.8 -2.1,1.2 -13.2,13.7 -10.4,8.8 0.7,-1.1 -7,2.3 0.5,0.8 6.7,-1.3 13.8,2 20.7,-1.7 -5.4,2.9 4.4,6.1 -4.9,0.4 -8.2,-5 -4.4,-4.9 -5.9,-3 -4.2,5.4 -4.4,17.2 3.8,10.5 14.7,-12 -11.7,-29.7 -24.5,-36.9 -13.5,-7.7 -54.1,-24.1 -49.3,8 2.2,15.2 25.5,21.1 38.9,13.9 13.4,-7.2 15.6,-22.2 12.2,-36 -1.4,-5.5 7.2,-2.4 -0.4,-1.1 -0.6,0.2 -4.3,2.8 -4.3,3.4 -1,8.1 -6,-8.9 -0.7,-1.3 41.4,60.1 -54.8,119.8 -96,60 v 0"
         style="fill:#bee5ed;fill-opacity:1;fill-rule:nonzero;stroke:none"
         id="path4713"
         inkscape:connector-curvature="0" /><path
         d="m 16030.8,13132.4 c 1263.4,-213.7 2532.7,-393.1 3805.9,-538 367.1,-41.8 734.6,-80.6 1102.4,-116.8 61.9,-6.1 64.5,90.6 2.8,96.6 -1274.8,125.4 -2546.3,284.3 -3812.6,478.2 -357.1,54.6 -713.8,112.1 -1070.1,172.4 -60.5,10.2 -89.6,-82.1 -28.4,-92.4 v 0"
         style="fill:#bee5ed;fill-opacity:1;fill-rule:nonzero;stroke:none"
         id="path4715"
         inkscape:connector-curvature="0" /><path
         d="m 16126.6,13444 c 931.7,-157.8 1861.8,-322.6 2800.7,-431.7 317.6,-36.9 635.6,-69.7 953.8,-101 123.9,-12.2 129.1,181.1 5.7,193.2 -934.6,91.9 -1862.6,212.6 -2788.5,368.9 -305,51.5 -609.8,103.8 -914.8,155.4 -51.9,8.8 -103.5,-9.6 -120.9,-63.9 -14.2,-44.7 12.6,-112.2 64,-120.9 v 0"
         style="fill:#6699b2;fill-opacity:1;fill-rule:nonzero;stroke:none"
         id="path4717"
         inkscape:connector-curvature="0" /><path
         d="m 15991,12805.8 c 412.8,-77.3 828.5,-137.8 1246.1,-181.8 61.9,-6.5 64.5,90.2 2.9,96.7 -409.1,43.1 -816.3,101.8 -1220.6,177.5 -60.5,11.3 -89.5,-81 -28.4,-92.4 v 0"
         style="fill:#bee5ed;fill-opacity:1;fill-rule:nonzero;stroke:none"
         id="path4719"
         inkscape:connector-curvature="0" /><path
         d="m 17628.4,12547.8 c 412.8,-77.3 828.5,-137.7 1246.2,-181.7 61.8,-6.5 64.4,90.1 2.8,96.6 -409,43.1 -816.2,101.8 -1220.5,177.5 -60.6,11.4 -89.5,-81 -28.5,-92.4 v 0"
         style="fill:#bee5ed;fill-opacity:1;fill-rule:nonzero;stroke:none"
         id="path4721"
         inkscape:connector-curvature="0" /><path
         d="m 14776.6,11562.6 c -45.9,-66.7 3.7,-154.6 76.8,-173 82,-20.6 144.4,56.7 138.4,133.4 -6.4,82 -76.9,138.2 -158.3,128.4 -80.9,-9.7 -135.7,-84.1 -115.1,-164.2 56.1,-218.1 412.9,-13.3 271,139.2 -54.1,58 -155.8,52.6 -193.9,-19.9 -36.7,-69.9 4.8,-165.6 85.7,-175.9 79.9,-10.2 157.7,67.1 134.2,148.1 -19.6,67.2 -100,94.9 -162.5,75.4 -78,-24.3 -101.5,-116.7 -52.6,-179.5 45.7,-58.8 137.8,-77.4 194.3,-22.7 53,51.3 46.8,143.2 -1.4,195.5 -58.4,63.4 -155.2,50 -208.1,-12.9 -56.7,-67.5 -45.9,-165.9 26.2,-217.9 67.7,-48.8 161.9,-38.5 212.6,29.1 50.3,66.9 43.3,170.6 -30.9,217.2 -61.7,38.9 -149.8,28.2 -203.3,-20.2 -62.8,-56.8 -57,-152.8 2.6,-209.5 61.9,-58.9 155.7,-67.6 222.7,-13.4 56.7,45.9 -21.2,128 -77.6,82.4 -22.7,-18.4 -69.6,2.3 -78.3,28 -10.5,30.5 27.9,44.8 52.3,43.1 34.8,-2.5 43.4,-39.6 18.8,-64 -29.7,-29.5 -85.6,8.3 -63.2,46.3 18.1,30.7 65.3,20.5 51.6,-16.9 -4,-10.9 -10.4,-8.3 -21.7,-1.9 -2.2,1.3 -13.2,13.7 -10.4,8.9 0.7,-1.1 -7,2.2 0.5,0.7 6.7,-1.3 13.8,2 20.7,-1.6 -5.4,2.9 4.4,6 -4.9,0.4 -8.2,-5 -4.4,-5 -5.9,-3.1 -4.2,5.4 -4.4,17.2 3.8,10.5 14.7,-12 -11.7,-29.6 -24.5,-36.8 -13.5,-7.7 -54.1,-24.1 -49.4,8 2.3,15.1 25.6,21.1 39,13.9 13.4,-7.3 15.6,-22.3 12.2,-36.1 -1.4,-5.4 7.1,-2.3 -0.4,-1 -0.6,0.1 -4.3,2.7 -4.4,3.4 -0.9,8.1 -5.9,-8.9 -0.7,-1.4 41.5,60.2 -54.7,119.8 -95.9,60 v 0"
         style="fill:#bee5ed;fill-opacity:1;fill-rule:nonzero;stroke:none"
         id="path4723"
         inkscape:connector-curvature="0" /><path
         d="m 15621,11345.4 c 1263.4,-213.7 2532.6,-393 3805.9,-537.9 367.1,-41.8 734.6,-80.7 1102.4,-116.9 61.9,-6 64.5,90.6 2.8,96.7 -1274.8,125.3 -2546.3,284.3 -3812.6,478.1 -357.1,54.7 -713.8,112.2 -1070.1,172.4 -60.6,10.3 -89.6,-82 -28.4,-92.4 v 0"
         style="fill:#bee5ed;fill-opacity:1;fill-rule:nonzero;stroke:none"
         id="path4725"
         inkscape:connector-curvature="0" /><path
         d="m 15716.8,11657 c 931.7,-157.8 1861.8,-322.6 2800.7,-431.7 317.6,-36.9 635.6,-69.7 953.8,-101 123.9,-12.1 129.1,181.2 5.7,193.3 -934.6,91.8 -1862.6,212.6 -2788.5,368.8 -305,51.5 -609.9,103.8 -914.8,155.5 -51.9,8.8 -103.5,-9.7 -120.9,-64 -14.2,-44.7 12.6,-112.2 64,-120.9 v 0"
         style="fill:#6699b2;fill-opacity:1;fill-rule:nonzero;stroke:none"
         id="path4727"
         inkscape:connector-curvature="0" /><path
         d="m 15581.2,11018.8 c 412.8,-77.3 828.5,-137.7 1246.1,-181.7 61.9,-6.5 64.4,90.1 2.9,96.6 -409.1,43.1 -816.3,101.8 -1220.6,177.5 -60.5,11.4 -89.5,-81 -28.4,-92.4 v 0"
         style="fill:#bee5ed;fill-opacity:1;fill-rule:nonzero;stroke:none"
         id="path4729"
         inkscape:connector-curvature="0" /><path
         d="m 17218.6,10760.9 c 412.8,-77.3 828.5,-137.8 1246.2,-181.8 61.8,-6.5 64.4,90.2 2.8,96.7 -409,43.1 -816.2,101.8 -1220.5,177.5 -60.6,11.3 -89.5,-81 -28.5,-92.4 v 0"
         style="fill:#bee5ed;fill-opacity:1;fill-rule:nonzero;stroke:none"
         id="path4731"
         inkscape:connector-curvature="0" /><path
         d="m 14505.2,9808.6 c -45.9,-66.7 3.8,-154.6 76.9,-173 82,-20.6 144.4,56.7 138.4,133.3 -6.4,82.1 -76.9,138.3 -158.3,128.5 -81,-9.7 -135.7,-84.1 -115.1,-164.3 56.1,-218 412.9,-13.2 270.9,139.3 -54,58 -155.7,52.6 -193.8,-19.9 -36.7,-69.9 4.7,-165.7 85.7,-175.9 79.9,-10.2 157.7,67.1 134.1,148.1 -19.5,67.2 -99.9,94.9 -162.4,75.4 -78,-24.3 -101.5,-116.7 -52.7,-179.5 45.7,-58.9 137.8,-77.4 194.3,-22.7 53.1,51.3 46.8,143.1 -1.3,195.4 -58.4,63.4 -155.2,50.1 -208.1,-12.9 -56.7,-67.5 -45.9,-165.8 26.2,-217.8 67.7,-48.8 161.8,-38.5 212.6,29.1 50.2,66.9 43.3,170.5 -30.9,217.2 -61.7,38.8 -149.8,28.2 -203.3,-20.2 -62.8,-56.8 -57,-152.9 2.5,-209.5 62,-58.9 155.8,-67.6 222.8,-13.4 56.7,45.9 -21.2,127.9 -77.6,82.3 -22.7,-18.3 -69.6,2.4 -78.4,28.1 -10.4,30.5 28,44.8 52.4,43.1 34.7,-2.5 43.3,-39.7 18.8,-64 -29.7,-29.5 -85.6,8.3 -63.2,46.3 18.1,30.7 65.3,20.5 51.5,-16.9 -4,-11 -10.4,-8.3 -21.6,-1.9 -2.2,1.3 -13.3,13.7 -10.4,8.9 0.7,-1.2 -7,2.2 0.5,0.7 6.6,-1.3 13.8,2 20.6,-1.6 -5.3,2.9 4.5,6 -4.8,0.3 -8.2,-4.9 -4.5,-4.9 -6,-3 -4.2,5.4 -4.3,17.2 3.9,10.5 14.7,-12 -11.7,-29.6 -24.5,-36.9 -13.6,-7.6 -54.1,-24.1 -49.4,8.1 2.2,15.1 25.6,21.1 38.9,13.8 13.4,-7.2 15.7,-22.2 12.3,-36 -1.4,-5.4 7.1,-2.3 -0.4,-1 -0.7,0.1 -4.3,2.7 -4.4,3.4 -1,8.1 -5.9,-9 -0.7,-1.4 41.4,60.2 -54.8,119.8 -96,60 v 0"
         style="fill:#bee5ed;fill-opacity:1;fill-rule:nonzero;stroke:none"
         id="path4733"
         inkscape:connector-curvature="0" /><path
         d="m 15349.6,9591.4 c 806.5,-136.5 1611.1,-269.2 2425,-353.9 300.1,-31.2 600.4,-60.4 900.7,-89.9 61.9,-6.1 64.5,90.6 2.8,96.6 -813.5,79.9 -1624.5,162.4 -2431.6,294.1 -289.7,47.3 -579,96.5 -868.4,145.5 -60.6,10.3 -89.6,-82.1 -28.5,-92.4 v 0"
         style="fill:#bee5ed;fill-opacity:1;fill-rule:nonzero;stroke:none"
         id="path4735"
         inkscape:connector-curvature="0" /><path
         d="m 15445.5,9903 c 621.7,-105.3 1239.4,-233.3 1866.9,-299.4 272.3,-28.6 544.9,-54.9 817.4,-81.6 123.9,-12.2 129.1,181.1 5.7,193.2 -388,38.1 -777.1,71.4 -1163.8,121.4 -51.7,6.7 -103.4,13.9 -154.9,21.7 -24.7,3.7 -49.4,7.6 -74.1,11.6 -26.5,4.3 -0.2,0 -16.1,2.6 -15.8,2.7 -31.5,5.3 -47.2,8 -131.1,22.5 -261.9,46.8 -392.8,70.4 -261.1,47.1 -522.6,92.6 -784.2,137 -51.9,8.7 -103.5,-9.7 -120.9,-64 -14.3,-44.7 12.6,-112.2 64,-120.9 v 0"
         style="fill:#6699b2;fill-opacity:1;fill-rule:nonzero;stroke:none"
         id="path4737"
         inkscape:connector-curvature="0" /><path
         d="m 15309.9,9264.8 c 412.7,-77.3 828.4,-137.7 1246.1,-181.7 61.9,-6.6 64.4,90.1 2.8,96.6 -409,43.1 -816.2,101.8 -1220.5,177.5 -60.5,11.3 -89.5,-81 -28.4,-92.4 v 0"
         style="fill:#bee5ed;fill-opacity:1;fill-rule:nonzero;stroke:none"
         id="path4739"
         inkscape:connector-curvature="0" /><path
         d="m 16947.3,9006.8 c 412.8,-77.2 828.5,-137.7 1246.1,-181.7 61.9,-6.5 64.5,90.2 2.9,96.6 -409.1,43.1 -816.2,101.9 -1220.5,177.6 -60.6,11.3 -89.5,-81 -28.5,-92.5 v 0"
         style="fill:#bee5ed;fill-opacity:1;fill-rule:nonzero;stroke:none"
         id="path4741"
         inkscape:connector-curvature="0" /><path
         d="m 20970.4,16990.2 c -128.4,-632.2 -230,-1269.5 -304.3,-1910.3 -1.4,-12.1 9.6,-28.9 22.2,-31.1 584.1,-98.6 1172.4,-169.6 1763.2,-212 40.5,-2.9 42.3,60.2 1.9,63.1 -585.1,42 -1168,111.6 -1746.5,209.3 7.4,-10.4 14.9,-20.8 22.3,-31.1 73.7,635.1 174.2,1266.8 301.5,1893.5 8,39.5 -52.2,58.3 -60.3,18.6 v 0"
         style="fill:#bee5ed;fill-opacity:1;fill-rule:nonzero;stroke:none"
         id="path4743"
         inkscape:connector-curvature="0" /><path
         d="m 14790,9259.1 c 154.6,-37.9 325.6,-101.5 386.1,-248.7 60.8,-148.2 -23.9,-324.2 -153.8,-417.9 -129.8,-93.8 -293.7,-124 -451.9,-149 -647.6,-102.3 -1302.6,-158.5 -1958.2,-168 l 416.6,1003.1 c 578.2,128.2 1185.9,121.5 1761.2,-19.5"
         style="fill:#fdbaa0;fill-opacity:1;fill-rule:nonzero;stroke:none"
         id="path4747"
         inkscape:connector-curvature="0" /><path
         d="m 14207.6,7766.1 c 142.2,-71.5 294.7,-171.8 320.7,-328.8 26.2,-158 -95.7,-310.7 -243.2,-373 -147.6,-62.3 -314,-55.1 -473.8,-44.1 -654.1,45 -1305.1,136.6 -1946.2,273.8 l 630.2,884.7 c 592.2,-4.3 1183.1,-146.7 1712.3,-412.6"
         style="fill:#fdbaa0;fill-opacity:1;fill-rule:nonzero;stroke:none"
         id="path4749"
         inkscape:connector-curvature="0" /><path
         d="m 13060,6872.1 c 113.8,-111.3 228.7,-253.1 205.9,-410.6 -23,-158.5 -185.4,-267 -344.9,-281.6 -159.5,-14.7 -315.9,42.7 -464.9,101.6 -609.6,241.3 -1202.1,526 -1771.4,851.2 l 868.8,651.9 c 563,-183.8 1082.9,-498.6 1506.5,-912.5"
         style="fill:#fdbaa0;fill-opacity:1;fill-rule:nonzero;stroke:none"
         id="path4751"
         inkscape:connector-curvature="0" /><path
         d="m 18693.6,7033.8 430,-173.7 c 461,-186.1 762.9,-633.6 762.9,-1130.8 V 2723.4 c 0,-108.9 -88.2,-197.1 -197,-197.1 H 17854.1 9374.31 c -108.82,0 -197.02,88.2 -197.02,197.1 V 15579 c 0,108.8 88.2,197 197.02,197 h 8282.79 c 108.8,0 197,-88.2 197,-197 V 8278.2 c 0,-547.1 332.1,-1039.5 839.5,-1244.4"
         style="fill:#90ee90;fill-opacity:1;fill-rule:nonzero;stroke:none"
         id="path4757"
         inkscape:connector-curvature="0" /><path
         d="m 16409.2,11597.7 h -5563.4 c -89,0 -161.1,72.2 -161.1,161.2 V 13944 c 0,89 72.1,161.2 161.1,161.2 h 5563.4 c 89,0 161.2,-72.2 161.2,-161.2 v -2185.1 c 0,-89.1 -72.2,-161.2 -161.2,-161.2"
         style="fill:#e7eefd;fill-opacity:1;fill-rule:nonzero;stroke:none"
         id="path4759"
         inkscape:connector-curvature="0" /><path
         d="m 11448.9,12680.6 c 1171.8,-38.1 2344.2,-43.3 3515.8,-15.6 337.8,8 675.6,18.8 1013.3,32.1 56.8,2.3 46.5,93.3 -10.1,91.1 -1170.5,-46.3 -2342.4,-60.5 -3514.1,-41.4 -330.5,5.4 -660.9,13.5 -991.3,24.3 -56.2,1.8 -70.4,-88.6 -13.6,-90.5 v 0"
         style="fill:#75a1c9;fill-opacity:1;fill-rule:nonzero;stroke:none"
         id="path4761"
         inkscape:connector-curvature="0" /><path
         d="m 11524.8,13144.4 c 1045.6,-29.1 2090.6,-66 3136.8,-40.6 353.8,8.6 707.4,21.8 1061,36.6 137.7,5.8 113.5,218.5 -23.6,212.8 -1038.6,-43.7 -2074.5,-54.7 -3113.7,-26.5 -342.2,9.3 -684.4,19.6 -1026.7,29.1 -58.2,1.6 -112,-26.6 -122.6,-88.8 -8.8,-51.2 31.1,-121 88.8,-122.6 v 0"
         style="fill:#6699b2;fill-opacity:1;fill-rule:nonzero;stroke:none"
         id="path4763"
         inkscape:connector-curvature="0" /><path
         d="m 11455.9,12293.3 c 397.6,-17.9 795.8,-19.7 1193.6,-5.8 59,2.1 48.6,93.2 -10.1,91.1 -389.6,-13.7 -779.5,-12.4 -1169,5.2 -58.4,2.6 -73.3,-87.9 -14.5,-90.5 v 0"
         style="fill:#75a1c9;fill-opacity:1;fill-rule:nonzero;stroke:none"
         id="path4765"
         inkscape:connector-curvature="0" /><path
         d="m 13026.9,12267.8 c 397.7,-18 795.8,-19.7 1193.6,-5.8 59,2.1 48.6,93.2 -10.1,91.1 -389.6,-13.7 -779.5,-12.4 -1169,5.2 -58.3,2.6 -73.3,-87.9 -14.5,-90.5 v 0"
         style="fill:#75a1c9;fill-opacity:1;fill-rule:nonzero;stroke:none"
         id="path4767"
         inkscape:connector-curvature="0" /></g></g><g
     inkscape:groupmode="layer"
     id="layer2"
     inkscape:label="Layer 2"
     transform="translate(212.25568)"><path
       d="m 1394.6748,1719.1873 c -25.7711,18.4091 -40.4948,47.861 -69.9469,69.9465 -29.4475,22.0904 -121.4845,33.1332 -121.4845,33.1332 0,0 -69.9468,-47.8569 -125.1654,-73.6278 -55.2231,-25.771 -95.71795,-44.1757 -114.1272,-51.5376 -10.95157,-4.3836 -8.86709,-12.6711 -5.38682,-18.6694 -4.6297,5.1862 -11.88664,11.3028 -20.37971,11.3028 -8.00957,0 -10.55475,-2.171 -11.2298,-4.16 -3.40726,6.3678 -24.03324,13.1183 -36.63145,22.5694 -8.69832,6.5223 -13.5241,2.7641 -16.03282,-1.4005 1.76066,5.3004 3.50763,13.2004 1.30909,19.8096 -3.68093,11.0429 -33.13295,84.6707 -62.58501,136.2083 -18.63271,32.604 -56.40449,34.2549 -84.45163,22.6876 -119.66913,280.467 235.38815,378.5845 235.38815,378.5845 0,0 165.6649,-139.8892 261.3828,-191.4316 95.7134,-51.5375 154.6175,-121.4844 213.5169,-165.6649 58.9041,-44.1756 99.399,-51.5376 187.7506,-69.9466 88.356,-18.4047 265.0635,-14.7238 441.7712,-51.5379 l -2.568,-268.0147 c -44.0388,12.525 -646.3026,184.0149 -671.1295,201.7491"
       style="fill:#f57d5e;fill-opacity:1;fill-rule:nonzero;stroke:none;stroke-width:0.456124"
       id="path26" /><path
       d="m 1387.3129,1726.5535 -1.2269,-0.497 c -20.804,18.3177 -35.3361,43.5642 -61.3581,63.0773 -29.4475,22.0904 -121.4845,33.1332 -121.4845,33.1332 0,0 -69.9468,-47.8569 -125.1654,-73.6278 -55.2231,-25.771 -95.71795,-44.1757 -114.1272,-51.5376 -10.95157,-4.3836 -8.86709,-12.6711 -5.38682,-18.6694 -4.6297,5.1862 -11.88664,11.3028 -20.37971,11.3028 -8.00957,0 -10.55475,-2.171 -11.2298,-4.16 -3.40726,6.3678 -24.03324,13.1183 -36.63145,22.5694 -8.69832,6.5223 -13.5241,2.7641 -16.03282,-1.4005 1.76066,5.3004 3.50763,13.2004 1.30909,19.8096 -3.68093,11.0429 -33.13295,84.6707 -62.58501,136.2083 -18.63271,32.604 -56.40449,34.2549 -84.45163,22.6876 -119.66913,280.467 235.38815,378.5845 235.38815,378.5845 0,0 165.6649,-139.8892 261.3828,-191.4316 95.7134,-51.5375 154.6175,-121.4844 213.5169,-165.6649 4.1052,-3.0741 8.1145,-5.9569 12.0555,-8.6936 31.3039,-79.5027 -2.1621,-145.3671 -63.5931,-171.6903"
       style="fill:#f6886b;fill-opacity:1;fill-rule:nonzero;stroke:none;stroke-width:0.456124"
       id="path28" /><path
       d="m -212.25568,1594.017 c 161.983422,18.4095 272.424669,18.4095 412.31607,11.0476 139.89238,-7.3618 195.1155,-14.7285 242.97221,-3.6809 47.86124,11.0428 117.80812,-18.4095 191.43588,-47.857 73.62325,-29.4563 136.21281,-47.861 169.34121,-62.5847 33.13296,-14.7286 84.67516,-29.4523 139.89827,18.4046 55.21854,47.861 114.11804,110.4417 114.11804,110.4417 l -106.76073,62.5849 c 0,0 121.48903,58.9041 180.39313,95.7135 58.8994,36.8185 95.7134,58.9041 132.5273,77.3131 36.8139,18.4092 80.9896,36.8139 103.0798,62.5804 22.0901,25.7758 51.5422,62.5852 29.4521,92.0371 -22.0903,29.4522 -73.6279,36.8141 -103.0845,11.0475 -29.4474,-25.7712 -69.9468,-36.8141 -92.0279,-51.5423 -22.0901,-14.7237 -110.4462,-51.5423 -121.4891,-58.9042 -11.0427,-7.3618 -25.7664,0 -7.3618,14.7286 18.4047,14.7237 58.9041,36.8137 103.0754,73.6276 44.1802,36.8141 66.2704,44.1759 80.9942,47.8569 14.7283,3.6809 36.8092,69.9465 3.6809,99.3989 -33.133,29.4474 -92.0371,11.0428 -92.0371,11.0428 0,0 11.0474,40.4947 -18.4046,62.5847 -29.4521,22.0904 -69.947,11.0428 -69.947,11.0428 0,0 7.362,51.5423 -44.1802,55.2232 -51.53313,3.6809 -80.98515,-14.7237 -106.75622,-33.1328 -25.7711,-18.4095 -368.13896,-180.3887 -423.3621,-217.2024 -55.22311,-36.8141 -84.67057,-62.5852 -150.93652,-62.5852 -66.26594,0 -566.93674,44.1757 -566.93674,44.1757 V 1594.017"
       style="fill:#fabd93;fill-opacity:1;fill-rule:nonzero;stroke:none;stroke-width:0.456124"
       id="path30" /><path
       d="m 1170.0967,2169.351 c -0.5107,-7.2387 -1.829,-12.0779 -1.829,-12.0779 -44.1712,-36.8141 -176.703,-128.8512 -191.43134,-136.2083 -14.72374,-7.3619 -33.1284,-7.3619 11.0428,22.0856 44.18024,29.4519 136.21734,88.3561 158.29844,106.7608 9.5512,7.9591 17.7159,14.5366 23.9191,19.4398"
       style="fill:#e9a177;fill-opacity:1;fill-rule:nonzero;stroke:none;stroke-width:0.456124"
       id="path32" /><path
       d="m 871.91836,2074.4404 c -18.40922,-11.0428 -22.09015,-7.3619 22.08561,25.7758 31.74634,23.8004 131.91143,102.7285 185.78453,145.2714 0.8667,-7.0835 0.3558,-12.6483 0.1824,-14.1535 l -1.8929,-2.2716 C 1037.5831,2199.6106 890.32293,2085.488 871.91825,2074.4404"
       style="fill:#e9a177;fill-opacity:1;fill-rule:nonzero;stroke:none;stroke-width:0.456124"
       id="path34" /><path
       d="m 1258.8861,2047.8851 c 11.052,44.919 -29.0094,94.9516 -72.6972,113.2968 20.0467,3.1062 52.5411,4.2238 74.1159,-14.9516 31.4726,-27.9744 13.1227,-89.1272 -1.4187,-98.3452"
       style="fill:#fbc8ac;fill-opacity:1;fill-rule:nonzero;stroke:none;stroke-width:0.456124"
       id="path36" /><path
       d="m 1168.2677,2157.2731 0.4607,0.1403 -4.1416,-3.1703 -2.0571,1.3957 c -1.3365,42.5839 -46.9263,67.1645 -92.7258,62.7904 l -4.6617,3.161 14.7739,9.3093 c 0,0 40.4949,11.0473 69.947,-11.0427 29.452,-22.0901 18.4046,-62.5851 18.4046,-62.5851"
       style="fill:#fbc8ac;fill-opacity:1;fill-rule:nonzero;stroke:none;stroke-width:0.456124"
       id="path38" /><path
       d="m 1316.8415,1881.6683 c 37.9953,29.9489 -5.031,120.9782 -84.9534,103.5725 19.9829,9.1588 42.9626,19.5585 61.545,35.824 29.4566,25.7666 80.9942,18.4047 103.0845,-11.0475 22.0901,-29.4519 -7.362,-66.2613 -29.4521,-92.0371 -11.8729,-13.8524 -30.1545,-25.5701 -50.224,-36.3119"
       style="fill:#fbc8ac;fill-opacity:1;fill-rule:nonzero;stroke:none;stroke-width:0.456124"
       id="path40" /><path
       d="m 1079.9161,1910.6183 0.812,0.4975 c -23.4631,-26.7611 -39.7742,-68.907 -44.9922,-74.1206 -7.3619,-7.3662 2.9785,62.1473 30.9436,82.6134 l 0.06,0.042 c -8.4977,-10.7828 3.6763,-15.3668 13.1775,-9.0312"
       style="fill:#e9a177;fill-opacity:1;fill-rule:nonzero;stroke:none;stroke-width:0.456124"
       id="path42" /><path
       d="m 1035.7359,2286.1238 c 38.3693,-2.7411 44.089,-31.9833 44.5133,-46.7667 l -31.8923,-18.6646 c 8.9401,41.325 -34.7021,61.7504 -91.85462,49.7772 20.21548,10.6826 44.77782,18.1128 79.23362,15.6541"
       style="fill:#fbc8ac;fill-opacity:1;fill-rule:nonzero;stroke:none;stroke-width:0.456124"
       id="path44" /><path
       d="m 2066.5342,1308.7105 c 0,0 -561.4132,145.4129 -635.0455,174.8696 -73.6278,29.4519 -106.7608,33.1329 -136.2083,36.8094 -29.452,3.6809 -44.1803,0 -73.6322,-7.3575 -29.4521,-7.3663 -110.4417,-14.7282 -150.9366,-14.7282 -40.4949,0 -80.98964,-29.4522 -132.52733,-22.0904 -51.54217,7.3667 -84.67513,47.857 -110.44625,69.9471 -25.76654,22.0899 -99.39431,58.9041 -114.12262,84.6751 -14.72374,25.7665 -3.68094,77.3088 -7.36187,114.1226 -3.68094,36.8138 -22.09015,77.3088 -11.04281,110.4416 11.04281,33.1285 88.35155,58.9043 117.80356,7.362 29.45206,-51.5376 58.90408,-125.1654 62.58501,-136.2083 3.68094,-11.0473 -3.68093,-25.771 -3.68093,-25.771 0,0 3.68093,18.4048 18.40466,7.3619 14.72829,-11.0428 40.49482,-18.4094 36.81389,-25.7712 0,0 -3.68094,7.3618 11.04736,7.3618 14.72372,0 25.76653,-18.4047 25.76653,-18.4047 0,0 -18.40466,18.4047 0,25.7713 18.40925,7.3619 58.9041,25.7666 114.1272,51.5376 55.2186,25.7709 125.1654,73.6278 125.1654,73.6278 0,0 92.037,-11.0428 121.4845,-33.1332 29.4521,-22.0855 44.1758,-51.5374 69.9469,-69.9465 25.7711,-18.4048 673.6975,-202.4743 673.6975,-202.4743 l -1.8381,-208.0025"
       style="fill:#f78f69;fill-opacity:1;fill-rule:nonzero;stroke:none;stroke-width:0.456124"
       id="path46" /><path
       d="m 963.9508,2264.0383 c -36.81389,47.8565 -55.21855,69.9421 -114.12259,62.5803 -58.89952,-7.362 -69.94688,-62.5803 -55.21859,-92.0371 14.72373,-29.4519 69.94687,-139.8891 69.94687,-139.8891 0,0 51.53763,-36.8183 66.26135,22.0855 14.7283,58.8998 -3.68093,128.8465 -3.68093,128.8465 l 36.81389,18.4139"
       style="fill:#f78f69;fill-opacity:1;fill-rule:nonzero;stroke:none;stroke-width:0.456124"
       id="path48" /><path
       d="m 864.55649,2094.6924 c 0,0 -55.22314,110.4372 -69.94687,139.8891 -9.52846,19.0571 -8.24219,48.8877 9.78848,69.5732 61.32606,32.7633 111.69602,-14.35 122.73881,-58.5303 0,0 18.40923,-69.9467 3.68093,-128.8465 -14.72372,-58.9038 -66.26135,-22.0855 -66.26135,-22.0855"
       style="fill:#f79275;fill-opacity:1;fill-rule:nonzero;stroke:none;stroke-width:0.456124"
       id="path50" /><path
       d="m 789.14979,2268.5447 c -46.08234,21.26 -86.5772,10.2173 -108.66735,-15.5537 -22.08559,-25.7713 -14.72372,-44.176 -11.0428,-58.8998 3.68093,-14.7281 92.03703,-139.8936 110.44169,-158.3026 18.40923,-18.4095 47.85669,-29.4523 80.99422,-7.3667 33.12842,22.0904 11.04281,69.9514 3.68094,84.6751 -7.36641,14.7238 -75.4067,155.4477 -75.4067,155.4477"
       style="fill:#f68b72;fill-opacity:1;fill-rule:nonzero;stroke:none;stroke-width:0.456124"
       id="path52" /><path
       d="m 669.43964,2197.7678 c -33.13294,33.1328 -103.07982,25.7709 -132.52729,-25.7665 -29.45202,-51.5423 25.76653,-103.0799 40.49483,-128.8509 14.72372,-25.7713 88.35154,-114.1226 158.2984,-92.0325 69.94685,22.0855 27.96962,104.2019 27.96962,104.2019 l -94.23556,142.448"
       style="fill:#f79275;fill-opacity:1;fill-rule:nonzero;stroke:none;stroke-width:0.456124"
       id="path54" /><path
       d="m 422.78517,1987.9272 c 25.77109,-44.1712 121.4845,33.1376 128.85091,58.9042 7.36187,25.7709 -36.81388,77.3133 -88.35151,73.6276 -51.5422,-3.6811 -47.86126,-55.2185 -47.86126,-80.9895 0,-25.7666 7.36186,-51.5423 7.36186,-51.5423"
       style="fill:#f78f69;fill-opacity:1;fill-rule:nonzero;stroke:none;stroke-width:0.456124"
       id="path56" /><path
       d="m 551.63608,2046.8314 c -7.36641,-25.7666 -103.07982,-103.0754 -128.85091,-58.9042 0,0 -2.00696,7.0745 -3.92724,17.4697 2.36275,32.1476 23.2624,67.2054 55.46486,67.2054 26.23633,0 34.00872,6.9011 48.67772,27.7644 20.61233,-16.3931 32.77721,-39.0398 28.63557,-53.5353"
       style="fill:#f57d5e;fill-opacity:1;fill-rule:nonzero;stroke:none;stroke-width:0.456124"
       id="path58" /><path
       d="m 962.11262,1673.1732 c 14.72374,-22.0901 3.67638,-33.1377 -3.68548,-55.2233 -7.36187,-22.09 25.77563,-58.9039 40.49936,-117.8079 2.1848,-9.8295 -3.98652,-19.6955 -13.84338,-21.7572 -14.72831,-3.079 -30.23658,-4.5523 -46.89885,-2.1714 -51.54217,7.3667 -84.67513,47.857 -110.44625,69.9471 -25.76654,22.0899 -99.39431,58.9041 -114.12262,84.6751 -2.88728,5.0493 -4.75737,11.1156 -5.97068,17.8435 36.36232,-72.232 132.98799,-1.268 166.11182,57.6225 0.32396,0.5702 0.60667,1.0765 0.91681,1.6327 -0.12766,-0.4148 -0.25555,-0.8025 -0.38315,-1.1904 2.50872,4.1646 7.3345,7.9228 16.03282,1.4005 12.59821,-9.4511 33.22419,-16.2016 36.63145,-22.5694 0.67505,1.989 3.22023,4.16 11.2298,4.16 8.49307,0 15.75001,-6.1166 20.37971,-11.3028 l -0.36037,0.6432 c 1.27718,-1.9384 2.57255,-3.8999 3.90901,-5.9022"
       style="fill:#f6886b;fill-opacity:1;fill-rule:nonzero;stroke:none;stroke-width:0.456124"
       id="path60" /><path
       d="m 1361.5419,1638.1975 c 17.4149,42.5609 16.539,65.8008 25.1325,87.3615 2.5634,-2.2304 5.2088,-4.3787 8.0004,-6.3717 25.7711,-18.4048 673.6975,-202.4743 673.6975,-202.4743 l -1.8381,-208.0025 c 0,0 -561.4132,145.4174 -635.0455,174.8696 -73.6278,29.4519 -106.7608,33.1329 -136.2083,36.8094 -22.7378,2.8413 -36.718,1.2862 -55.4512,-2.9558 v 0 c 125.4027,28.7223 88.5843,39.7695 121.7173,120.7592"
       style="fill:#f6816b;fill-opacity:1;fill-rule:nonzero;stroke:none;stroke-width:0.456124"
       id="path62" /><path
       d="m 838.7854,2179.3631 c 0,22.0901 36.81389,18.4047 36.81389,18.4047 l 36.81389,-55.2184 c 0,0 -14.72829,-18.4047 -29.45202,-22.0904 -14.72374,-3.6811 -22.08561,0 -22.08561,0 l -22.09015,58.9041"
       style="fill:#f8a28e;fill-opacity:1;fill-rule:nonzero;stroke:none;stroke-width:0.456124"
       id="path64" /><path
       d="m 838.7854,2050.5123 c -20.82669,-15.618 -33.13297,-18.4046 -33.13297,-18.4046 0,0 -47.86125,47.8565 -29.45202,73.6231 18.40921,25.7757 58.90406,-3.6766 66.26593,-14.7193 7.36187,-11.0473 14.72374,-22.0901 14.72374,-22.0901 0,0 -3.68094,-7.3618 -18.40468,-18.4091"
       style="fill:#f8a28e;fill-opacity:1;fill-rule:nonzero;stroke:none;stroke-width:0.456124"
       id="path66" /><path
       d="m 728.34371,1984.2507 c -23.43118,-7.8086 -51.53765,-11.0473 -51.53765,-11.0473 0,0 -40.49936,44.1757 -36.81844,69.947 3.68094,25.771 52.03937,54.4204 77.55961,27.2122 25.52022,-27.2122 47.61037,-60.3453 47.61037,-60.3453 0,0 -14.72829,-18.4048 -36.81389,-25.7666"
       style="fill:#f8a28e;fill-opacity:1;fill-rule:nonzero;stroke:none;stroke-width:0.456124"
       id="path68" /><path
       d="m 474.32279,2072.6023 c -24.43462,0 -42.33758,-20.1928 -50.59799,-43.9704 -3.72656,11.6813 -4.62969,24.0742 2.74131,32.9277 15.24372,18.2858 43.08105,28.9684 54.30629,11.2299 -2.0343,-0.1136 -4.14618,-0.1882 -6.44961,-0.1882"
       style="fill:#f8a28e;fill-opacity:1;fill-rule:nonzero;stroke:none;stroke-width:0.456124"
       id="path70" /><path
       d="m 693.368,1853.5571 c 36.81389,18.4046 80.99423,-29.4519 80.99423,-29.4519 0,0 29.44746,-77.3089 -25.77112,-80.9899 -55.22311,-3.6809 -55.22311,110.4418 -55.22311,110.4418"
       style="fill:#f8a28e;fill-opacity:1;fill-rule:nonzero;stroke:none;stroke-width:0.456124"
       id="path72" /><path
       d="m 963.9508,1690.9665 c -0.89399,0 -1.74239,-0.5288 -2.1073,-1.4094 -0.48348,-1.1631 0.0685,-2.495 1.23612,-2.9783 50.42468,-20.8359 93.70188,-75.676 111.93328,-116.9052 6.0939,-13.7112 9.3825,-25.9308 9.3642,-34.5467 0,-4.0049 -0.707,-7.1795 -1.9659,-9.369 -0.6249,-1.0947 -0.2419,-2.486 0.8483,-3.1106 0.3604,-0.2053 0.7481,-0.301 1.1313,-0.301 0.7937,0 1.5599,0.4104 1.9796,1.1494 1.8063,3.1746 2.5634,7.1155 2.568,11.6312 -0.014,9.7106 -3.5213,22.309 -9.7566,36.394 -6.2398,14.0761 -15.2482,29.5936 -26.4051,44.8465 -22.3183,30.5012 -53.20251,59.9985 -87.95015,74.4259 -0.28735,0.1192 -0.58381,0.1745 -0.87575,0.1745"
       style="fill:#f3855e;fill-opacity:1;fill-rule:nonzero;stroke:none;stroke-width:0.456124"
       id="path74" /><path
       d="m 956.01421,1684.7862 c -0.22339,-0.1094 -0.43329,-0.2087 -0.64313,-0.3147 0.0776,-0.1505 0.16865,-0.2976 0.2829,-0.4379 0.28292,-0.3469 0.56104,-0.6978 0.83017,-1.0492 -0.19158,0.5928 -0.35122,1.1949 -0.46984,1.8018"
       style="fill:#ef7f60;fill-opacity:1;fill-rule:nonzero;stroke:none;stroke-width:0.456124"
       id="path76" /><path
       d="m 955.77249,1687.053 c -0.66595,-0.6979 -0.81648,-1.7287 -0.40141,-2.5815 0.2097,0.1053 0.41965,0.2053 0.64313,0.3147 -0.15052,0.7571 -0.23707,1.5097 -0.24186,2.2668"
       style="fill:#eda87f;fill-opacity:1;fill-rule:nonzero;stroke:none;stroke-width:0.456124"
       id="path78" /><path
       d="m 957.41908,1687.7556 c -0.50629,0 -1.01714,-0.1676 -1.43679,-0.5111 -0.0776,-0.058 -0.14607,-0.1261 -0.20969,-0.1915 0.003,-0.7571 0.0913,-1.5097 0.24185,-2.2668 0.11864,-0.6069 0.27812,-1.209 0.46984,-1.8018 2.33533,-3.0559 4.17809,-6.2489 5.55102,-9.6973 0.024,-0.037 0.0503,-0.079 0.0776,-0.1136 14.72372,-22.09 3.67638,-33.1373 -3.68549,-55.2229 -2.91923,-8.7531 0.52453,-19.8233 6.664,-33.662 2.11185,-2.5774 4.38336,-5.2321 6.64572,-8.1741 7.22503,-9.4143 14.59148,-21.7161 16.86752,-43.8654 1.2362,-3.1702 2.44497,-6.4269 3.61256,-9.7658 0.91229,0.3285 1.55084,1.218 1.50524,2.2442 -0.89399,20.9635 -6.03005,34.8526 -12.12388,45.0652 -6.09382,10.1991 -13.03607,16.7444 -17.30995,23.0434 -2.85991,4.2194 -4.57494,8.1603 -4.58862,13.2825 0.003,2.7915 0.52908,5.9754 1.78799,9.7521 5.32298,15.9734 8.11906,29.0369 8.12361,40.2484 0.024,12.1966 -3.4118,22.2316 -10.42248,30.7976 -0.45157,0.5519 -1.10839,0.8393 -1.76976,0.8393"
       style="fill:#f3855e;fill-opacity:1;fill-rule:nonzero;stroke:none;stroke-width:0.456124"
       id="path80" /><path
       d="m 962.03507,1673.2871 c 2.01609,-5.0767 3.00588,-10.6914 3.01501,-17.1684 0.003,-10.4362 -2.64554,-23.0893 -7.89099,-38.8071 -1.3775,-4.1418 -2.02063,-7.8182 -2.02063,-11.1934 -0.0139,-6.226 2.23502,-11.2617 5.3823,-15.8506 1.37747,-2.0159 2.92832,-3.9772 4.57037,-5.9797 -6.13946,13.839 -9.58322,24.9091 -6.66399,33.662 7.36186,22.0856 18.40922,33.1332 3.68548,55.2233 -0.0274,0.037 -0.0548,0.079 -0.0776,0.1123 m 26.56926,-141.0386 c 0.25073,-2.4494 0.44242,-5.0175 0.56107,-7.7176 0.0541,-1.2271 1.06281,-2.185 2.27601,-2.185 0.0305,0 0.0679,0 0.0998,0 0.23715,0 0.46529,0.056 0.67513,0.1331 -1.16773,3.3388 -2.3765,6.5956 -3.61256,9.7657"
       style="fill:#ef7f60;fill-opacity:1;fill-rule:nonzero;stroke:none;stroke-width:0.456124"
       id="path82" /><path
       d="m 1189.8698,1806.7634 c -0.8803,0 -1.7149,-0.5112 -2.089,-1.364 -0.5064,-1.1539 0.014,-2.4996 1.1677,-3.0059 0,0 1.081,-0.4742 3.0788,-1.4095 2.0024,-0.9349 4.908,-2.3262 8.5158,-4.1462 7.2206,-3.6306 17.2554,-8.9628 28.4852,-15.7408 22.4596,-13.5469 49.6948,-32.9187 68.7244,-55.9118 12.6939,-15.3258 21.6979,-32.2072 23.4676,-49.9687 0.1192,-1.1768 1.1084,-2.0526 2.267,-2.0526 0.073,0 0.1505,0 0.2281,0 1.2544,0.1234 2.1667,1.2408 2.0434,2.4953 -1.9112,19.0204 -11.4486,36.6587 -24.4939,52.4224 -13.0588,15.7683 -29.6754,29.7028 -46.0231,41.3159 -32.7041,23.2076 -64.3729,37.1196 -64.455,37.1557 -0.301,0.1331 -0.6112,0.1951 -0.9169,0.1951"
       style="fill:#f3855e;fill-opacity:1;fill-rule:nonzero;stroke:none;stroke-width:0.456124"
       id="path84" /><path
       d="m 891.27634,1708.9928 c -0.5428,0 -1.03541,-0.1882 -1.4277,-0.5018 0.15977,-0.1123 0.31473,-0.2293 0.47438,-0.3466 v 0 c 0.024,0 0.041,-0.035 0.064,-0.051 0.003,0 0.0139,0 0.017,0 0.0171,-0.035 0.0366,-0.035 0.0548,-0.044 0.01,0 0.017,0 0.0273,-0.035 0.0139,0 0.0308,-0.035 0.0455,-0.038 0.0139,0 0.024,0 0.0308,-0.035 0.0139,0 0.024,0 0.0308,-0.035 0.93964,-0.6934 1.92029,-1.3731 2.93289,-2.0388 0.024,0.497 0.024,0.7799 0.0273,0.8072 0,1.2634 -1.02169,2.2853 -2.2806,2.2853"
       style="fill:#eda87f;fill-opacity:1;fill-rule:nonzero;stroke:none;stroke-width:0.456124"
       id="path86" /><path
       d="m 889.84864,1708.491 v 0 c 0.15977,-0.1123 0.31473,-0.2293 0.47438,-0.3466 -0.15975,0.1192 -0.31472,0.2326 -0.47438,0.3466 m 0.53825,-0.3969 c 0.003,0 0.0139,0 0.017,0 -0.003,0 -0.0139,0 -0.017,0 m 0.0729,-0.055 c 0.01,0 0.0171,0 0.0274,0 -0.01,0 -0.017,0 -0.0274,0 m 0.0729,-0.055 c 0.0139,0 0.024,0 0.0308,-0.035 -0.01,0 -0.017,0 -0.0308,0.035 m 0.064,-0.044 c 0.93962,-0.6934 1.92027,-1.3727 2.93287,-2.0389 v 0 c -1.0126,0.6662 -1.99325,1.3455 -2.93287,2.0389"
       style="fill:#f3855e;fill-opacity:1;fill-rule:nonzero;stroke:none;stroke-width:0.456124"
       id="path88" /><path
       d="m 889.84864,1708.491 c -0.51997,-0.4197 -0.85294,-1.0581 -0.85294,-1.7833 l -0.01,-0.3388 c -0.01,-0.2463 -0.0275,-0.6249 -0.0592,-1.1131 -0.0685,-0.976 -0.20525,-2.4035 -0.47893,-4.1736 -0.5519,-3.5348 -1.66488,-8.4199 -3.87706,-13.7293 -4.4518,-10.6278 -13.17292,-22.9066 -30.9299,-30.0221 -1.16767,-0.4697 -1.73784,-1.797 -1.268,-2.965 0.35577,-0.8939 1.21327,-1.4368 2.11639,-1.4368 0.28292,0 0.57018,0.054 0.8484,0.1643 19.02957,7.5945 28.69944,21.0686 33.44313,32.5081 3.98197,9.5695 4.6388,17.7571 4.74827,20.2975 -1.0126,0.666 -1.99325,1.3459 -2.93288,2.0389 -0.01,0 -0.0171,0 -0.0308,0.035 -0.01,0 -0.017,0 -0.0308,0.035 -0.0139,0 -0.0308,0.035 -0.0455,0.037 -0.01,0 -0.017,0 -0.0274,0.035 -0.0171,0 -0.0366,0.035 -0.0548,0.044 -0.003,0 -0.0139,0 -0.0171,0 -0.024,0 -0.041,0.035 -0.064,0.051 v 0 c -0.15976,0.1192 -0.31473,0.2326 -0.47439,0.3469"
       style="fill:#ef7f60;fill-opacity:1;fill-rule:nonzero;stroke:none;stroke-width:0.456124"
       id="path90" /><path
       d="m 900.46725,1681.4015 c -1.17223,0 -2.17114,-0.8982 -2.27151,-2.0887 l -0.041,-0.4198 c -0.0366,-0.2976 -0.0958,-0.7434 -0.18713,-1.3229 -0.18712,-1.1583 -0.50175,-2.8462 -1.02628,-4.8939 -1.05365,-4.0963 -2.94659,-9.652 -6.26261,-15.4036 -6.67768,-11.5036 -18.84711,-23.7916 -42.05478,-27.3949 -1.24521,-0.1916 -2.09819,-1.3547 -1.90662,-2.5999 0.17344,-1.1265 1.14488,-1.9338 2.24872,-1.9338 0.11865,0 0.23262,0 0.3512,0.035 24.61254,3.7538 38.19597,17.2142 45.31153,29.6206 7.14748,12.4111 8.09166,23.7413 8.11447,23.9421 0.10506,1.2544 -0.83015,2.3535 -2.08451,2.4586 -0.064,0 -0.12766,0 -0.19157,0"
       style="fill:#ef7f60;fill-opacity:1;fill-rule:nonzero;stroke:none;stroke-width:0.456124"
       id="path92" /><path
       d="m 1069.6807,1696.1164 c -0.7845,0 -1.5463,-0.4061 -1.9704,-1.1313 -0.634,-1.0902 -0.2692,-2.486 0.8211,-3.1199 56.6644,-33.0098 85.6511,-89.1816 85.6055,-131.1907 0,-11.3302 -2.0936,-21.5978 -6.2261,-30.1043 -4.1416,-8.507 -10.2765,-15.2622 -18.5232,-19.7368 -1.1085,-0.5974 -1.519,-1.9842 -0.9213,-3.0878 0.4149,-0.7662 1.1996,-1.1953 2.0068,-1.1953 0.3695,0 0.739,0.086 1.0857,0.2737 9.127,4.9354 15.9644,12.4934 20.4526,21.7528 4.4975,9.2594 6.6868,20.2109 6.6868,32.0977 -0.046,43.9977 -29.8717,101.2506 -87.8681,135.1316 -0.3602,0.2087 -0.757,0.3113 -1.1494,0.3113"
       style="fill:#f3855e;fill-opacity:1;fill-rule:nonzero;stroke:none;stroke-width:0.456124"
       id="path94" /><path
       d="m 955.55355,1980.8664 c -47.50092,0 -61.47662,-54.3749 -29.33345,-58.9678 13.45114,-1.9205 24.90446,-2.9059 34.84342,-2.9059 28.09737,0 44.08008,7.8501 58.99988,24.5032 22.5965,25.233 -10.2309,34.2871 -60.73771,37.2566 -1.27715,0.072 -2.54061,0.1123 -3.77214,0.1123"
       style="fill:#fbc29e;fill-opacity:1;fill-rule:nonzero;stroke:none;stroke-width:0.456124"
       id="path96" /><path
       d="m 1073.4256,1812.8615 c -6.281,0 -15.6087,-0.912 -25.8167,-4.9946 -18.3911,-7.3571 -66.21585,0 -67.09161,-31.2444 -0.27368,-9.8387 19.87801,-23.1984 42.17791,-23.1984 12.0189,0 24.6628,3.8813 35.0715,14.2857 27.5546,27.5544 39.7787,44.8873 27.1806,44.8873 -0.9853,0 -2.121,-0.1068 -3.4164,-0.3181 0,0 -3.0697,0.5839 -8.1053,0.5839"
       style="fill:#fbc29e;fill-opacity:1;fill-rule:nonzero;stroke:none;stroke-width:0.456124"
       id="path98" /><path
       d="m 1714.9206,1892.045 -122.7616,35.222 -145.9329,-508.5801 122.7617,-35.2264 145.9328,508.5845"
       style="fill:#ffffff;fill-opacity:1;fill-rule:nonzero;stroke:none;stroke-width:0.456124"
       id="path100" /><path
       d="m 2068.3723,1784.8235 -357.2285,94.067 -138.3793,-482.2756 495.6078,-140.8969 v 529.1055"
       style="fill:#3b83c6;fill-opacity:1;fill-rule:nonzero;stroke:none;stroke-width:0.456124"
       id="path102" /><path
       d="m 196.03556,1532.9052 127.71106,-0.456 1.89293,529.1011 -127.71519,0.4609 -1.8888,-529.106"
       style="fill:#b86276;fill-opacity:1;fill-rule:nonzero;stroke:none;stroke-width:0.456124"
       id="path104" /><path
       d="m -212.25568,1547.6383 408.33913,-1.0493 1.79076,501.7384 -410.12989,2.1986 v -502.8877"
       style="fill:#f36276;fill-opacity:1;fill-rule:nonzero;stroke:none;stroke-width:0.456124"
       id="path106" /></g></svg>
