<?xml version="1.0" encoding="UTF-8" standalone="no"?>
<svg
   xmlns:dc="http://purl.org/dc/elements/1.1/"
   xmlns:cc="http://creativecommons.org/ns#"
   xmlns:rdf="http://www.w3.org/1999/02/22-rdf-syntax-ns#"
   xmlns:svg="http://www.w3.org/2000/svg"
   xmlns="http://www.w3.org/2000/svg"
   xmlns:sodipodi="http://sodipodi.sourceforge.net/DTD/sodipodi-0.dtd"
   xmlns:inkscape="http://www.inkscape.org/namespaces/inkscape"
   version="1.1"
   id="svg4695"
   xml:space="preserve"
   width="2280.0198"
   height="2280.0198"
   viewBox="0 0 2280.0197 2280.0198"
   sodipodi:docname="interview_round.svg"
   inkscape:version="0.92.4 (5da689c313, 2019-01-14)"><metadata
     id="metadata4701"><rdf:RDF><cc:Work
         rdf:about=""><dc:format>image/svg+xml</dc:format><dc:type
           rdf:resource="http://purl.org/dc/dcmitype/StillImage" /><dc:title></dc:title></cc:Work></rdf:RDF></metadata><defs
     id="defs4699"><clipPath
       clipPathUnits="userSpaceOnUse"
       id="clipPath4931"><path
         style="display:inline;opacity:1;fill:#8890a7;fill-opacity:0.12297734;stroke:none;stroke-width:1.34565282;stroke-miterlimit:4;stroke-dasharray:none;stroke-opacity:1"
         d="M 2066.9813,1177.4225 A 1140.0099,1140.0099 0 0 1 926.97132,2317.4324 1140.0099,1140.0099 0 0 1 -213.03851,1177.4225 1140.0099,1140.0099 0 0 1 926.97132,37.412659 1140.0099,1140.0099 0 0 1 2066.9813,1177.4225 Z"
         id="path4933"
         inkscape:connector-curvature="0" /></clipPath><clipPath
       clipPathUnits="userSpaceOnUse"
       id="clipPath4944"><path
         inkscape:connector-curvature="0"
         id="path4946"
         d="M 2066.9813,1177.4225 A 1140.0099,1140.0099 0 0 1 926.97132,2317.4324 1140.0099,1140.0099 0 0 1 -213.03851,1177.4225 1140.0099,1140.0099 0 0 1 926.97132,37.412659 1140.0099,1140.0099 0 0 1 2066.9813,1177.4225 Z"
         style="display:inline;opacity:1;fill:#8890a7;fill-opacity:0.12297734;stroke:none;stroke-width:1.34565282;stroke-miterlimit:4;stroke-dasharray:none;stroke-opacity:1" /></clipPath><clipPath
       clipPathUnits="userSpaceOnUse"
       id="clipPath4952"><path
         style="display:inline;opacity:1;fill:#8890a7;fill-opacity:0.12297734;stroke:none;stroke-width:1.34565282;stroke-miterlimit:4;stroke-dasharray:none;stroke-opacity:1"
         d="M 2066.9813,1177.4225 A 1140.0099,1140.0099 0 0 1 926.97132,2317.4324 1140.0099,1140.0099 0 0 1 -213.03851,1177.4225 1140.0099,1140.0099 0 0 1 926.97132,37.412659 1140.0099,1140.0099 0 0 1 2066.9813,1177.4225 Z"
         id="path4954"
         inkscape:connector-curvature="0" /></clipPath><clipPath
       clipPathUnits="userSpaceOnUse"
       id="clipPath4960"><path
         inkscape:connector-curvature="0"
         id="path4962"
         d="M 2066.9813,1177.4225 A 1140.0099,1140.0099 0 0 1 926.97132,2317.4324 1140.0099,1140.0099 0 0 1 -213.03851,1177.4225 1140.0099,1140.0099 0 0 1 926.97132,37.412659 1140.0099,1140.0099 0 0 1 2066.9813,1177.4225 Z"
         style="display:inline;opacity:1;fill:#8890a7;fill-opacity:0.12297734;stroke:none;stroke-width:1.34565282;stroke-miterlimit:4;stroke-dasharray:none;stroke-opacity:1" /></clipPath><clipPath
       clipPathUnits="userSpaceOnUse"
       id="clipPath4968"><path
         style="display:inline;opacity:1;fill:#8890a7;fill-opacity:0.12297734;stroke:none;stroke-width:1.34565282;stroke-miterlimit:4;stroke-dasharray:none;stroke-opacity:1"
         d="M 2066.9813,1177.4225 A 1140.0099,1140.0099 0 0 1 926.97132,2317.4324 1140.0099,1140.0099 0 0 1 -213.03851,1177.4225 1140.0099,1140.0099 0 0 1 926.97132,37.412659 1140.0099,1140.0099 0 0 1 2066.9813,1177.4225 Z"
         id="path4970"
         inkscape:connector-curvature="0" /></clipPath><clipPath
       clipPathUnits="userSpaceOnUse"
       id="clipPath4976"><path
         inkscape:connector-curvature="0"
         id="path4978"
         d="M 2066.9813,1177.4225 A 1140.0099,1140.0099 0 0 1 926.97132,2317.4324 1140.0099,1140.0099 0 0 1 -213.03851,1177.4225 1140.0099,1140.0099 0 0 1 926.97132,37.412659 1140.0099,1140.0099 0 0 1 2066.9813,1177.4225 Z"
         style="display:inline;opacity:1;fill:#8890a7;fill-opacity:0.12297734;stroke:none;stroke-width:1.34565282;stroke-miterlimit:4;stroke-dasharray:none;stroke-opacity:1" /></clipPath></defs><sodipodi:namedview
     pagecolor="#ffffff"
     bordercolor="#666666"
     borderopacity="1"
     objecttolerance="10"
     gridtolerance="10"
     guidetolerance="10"
     inkscape:pageopacity="0"
     inkscape:pageshadow="2"
     inkscape:window-width="1920"
     inkscape:window-height="1001"
     id="namedview4697"
     showgrid="false"
     inkscape:zoom="0.2503158"
     inkscape:cx="2325.1458"
     inkscape:cy="973.02353"
     inkscape:window-x="-9"
     inkscape:window-y="-9"
     inkscape:window-maximized="1"
     inkscape:current-layer="g4974"
     inkscape:document-rotation="0"
     fit-margin-top="0"
     fit-margin-left="0"
     fit-margin-right="0"
     fit-margin-bottom="0"
     showguides="false" /><g
     inkscape:groupmode="layer"
     id="g4974"
     inkscape:label="Copie de Copie de Copie de Copie de Copie de Copie de Layer 1"
     transform="matrix(1.3333333,0,0,-1.3333333,-1010.6001,2365.3339)"
     style="display:inline"><path
       transform="scale(1,-1)"
       style="display:inline;opacity:1;fill:#8890a7;fill-opacity:0.12297734;stroke:none;stroke-width:1.00923967;stroke-miterlimit:4;stroke-dasharray:none;stroke-opacity:1"
       d="M 2467.965,-918.9931 A 855.00745,855.00745 0 0 1 1612.9575,-63.985657 855.00745,855.00745 0 0 1 757.95007,-918.9931 a 855.00745,855.00745 0 0 1 855.00743,-855.0074 855.00745,855.00745 0 0 1 855.0075,855.0074 z"
       id="path4972"
       inkscape:connector-curvature="0" /></g><g
     id="g4703"
     inkscape:groupmode="layer"
     inkscape:label="ink_ext_XXXXXX"
     transform="matrix(1.3333333,0,0,-1.3333333,-1010.6001,2365.3339)"
     style="display:inline"
     sodipodi:insensitive="true"><g
       id="g4705"
       transform="matrix(0.07442532,0,0,0.07442532,421.70579,251.13594)"><path
         d="M 20905.7,3055.4 12298.9,4671.2 14310.3,15385.5 22917,13769.7 20905.7,3055.4"
         style="fill:#bee5ed;fill-opacity:1;fill-rule:nonzero;stroke:none"
         id="path4709"
         inkscape:connector-curvature="0" /><path
         d="m 22500,14867.3 -1300.2,-9309 -9001,1257.2 1564.9,11205.1 7308,-1020.6 1428.3,-2132.7"
         style="fill:#f7fbfc;fill-opacity:1;fill-rule:nonzero;stroke:none"
         id="path4711"
         inkscape:connector-curvature="0" /><path
         d="m 15186.4,13349.6 c -45.9,-66.7 3.7,-154.7 76.8,-173 82,-20.6 144.4,56.6 138.4,133.3 -6.4,82.1 -76.9,138.3 -158.3,128.5 -80.9,-9.7 -135.7,-84.1 -115.1,-164.3 56.1,-218.1 412.9,-13.2 271,139.2 -54.1,58.1 -155.8,52.6 -193.8,-19.8 -36.8,-70 4.7,-165.7 85.6,-176 80,-10.1 157.8,67.1 134.2,148.2 -19.6,67.2 -100,94.8 -162.5,75.4 -78,-24.3 -101.4,-116.7 -52.6,-179.6 45.7,-58.8 137.8,-77.3 194.3,-22.7 53,51.4 46.8,143.2 -1.4,195.5 -58.4,63.4 -155.2,50.1 -208.1,-12.9 -56.7,-67.5 -45.8,-165.8 26.3,-217.8 67.7,-48.8 161.8,-38.5 212.5,29.1 50.3,66.9 43.3,170.5 -30.8,217.2 -61.8,38.8 -149.9,28.1 -203.4,-20.3 -62.8,-56.7 -57,-152.8 2.6,-209.4 61.9,-59 155.7,-67.6 222.7,-13.4 56.7,45.8 -21.2,127.9 -77.6,82.3 -22.7,-18.3 -69.6,2.4 -78.3,28 -10.5,30.6 27.9,44.9 52.3,43.1 34.8,-2.5 43.4,-39.6 18.8,-63.9 -29.7,-29.5 -85.6,8.3 -63.2,46.3 18.1,30.7 65.3,20.5 51.6,-17 -4,-10.9 -10.4,-8.3 -21.7,-1.8 -2.1,1.2 -13.2,13.7 -10.4,8.8 0.7,-1.1 -7,2.3 0.5,0.8 6.7,-1.3 13.8,2 20.7,-1.7 -5.4,2.9 4.4,6.1 -4.9,0.4 -8.2,-5 -4.4,-4.9 -5.9,-3 -4.2,5.4 -4.4,17.2 3.8,10.5 14.7,-12 -11.7,-29.7 -24.5,-36.9 -13.5,-7.7 -54.1,-24.1 -49.3,8 2.2,15.2 25.5,21.1 38.9,13.9 13.4,-7.2 15.6,-22.2 12.2,-36 -1.4,-5.5 7.2,-2.4 -0.4,-1.1 -0.6,0.2 -4.3,2.8 -4.3,3.4 -1,8.1 -6,-8.9 -0.7,-1.3 41.4,60.1 -54.8,119.8 -96,60 v 0"
         style="fill:#bee5ed;fill-opacity:1;fill-rule:nonzero;stroke:none"
         id="path4713"
         inkscape:connector-curvature="0" /><path
         d="m 16030.8,13132.4 c 1263.4,-213.7 2532.7,-393.1 3805.9,-538 367.1,-41.8 734.6,-80.6 1102.4,-116.8 61.9,-6.1 64.5,90.6 2.8,96.6 -1274.8,125.4 -2546.3,284.3 -3812.6,478.2 -357.1,54.6 -713.8,112.1 -1070.1,172.4 -60.5,10.2 -89.6,-82.1 -28.4,-92.4 v 0"
         style="fill:#bee5ed;fill-opacity:1;fill-rule:nonzero;stroke:none"
         id="path4715"
         inkscape:connector-curvature="0" /><path
         d="m 16126.6,13444 c 931.7,-157.8 1861.8,-322.6 2800.7,-431.7 317.6,-36.9 635.6,-69.7 953.8,-101 123.9,-12.2 129.1,181.1 5.7,193.2 -934.6,91.9 -1862.6,212.6 -2788.5,368.9 -305,51.5 -609.8,103.8 -914.8,155.4 -51.9,8.8 -103.5,-9.6 -120.9,-63.9 -14.2,-44.7 12.6,-112.2 64,-120.9 v 0"
         style="fill:#6699b2;fill-opacity:1;fill-rule:nonzero;stroke:none"
         id="path4717"
         inkscape:connector-curvature="0" /><path
         d="m 15991,12805.8 c 412.8,-77.3 828.5,-137.8 1246.1,-181.8 61.9,-6.5 64.5,90.2 2.9,96.7 -409.1,43.1 -816.3,101.8 -1220.6,177.5 -60.5,11.3 -89.5,-81 -28.4,-92.4 v 0"
         style="fill:#bee5ed;fill-opacity:1;fill-rule:nonzero;stroke:none"
         id="path4719"
         inkscape:connector-curvature="0" /><path
         d="m 17628.4,12547.8 c 412.8,-77.3 828.5,-137.7 1246.2,-181.7 61.8,-6.5 64.4,90.1 2.8,96.6 -409,43.1 -816.2,101.8 -1220.5,177.5 -60.6,11.4 -89.5,-81 -28.5,-92.4 v 0"
         style="fill:#bee5ed;fill-opacity:1;fill-rule:nonzero;stroke:none"
         id="path4721"
         inkscape:connector-curvature="0" /><path
         d="m 14776.6,11562.6 c -45.9,-66.7 3.7,-154.6 76.8,-173 82,-20.6 144.4,56.7 138.4,133.4 -6.4,82 -76.9,138.2 -158.3,128.4 -80.9,-9.7 -135.7,-84.1 -115.1,-164.2 56.1,-218.1 412.9,-13.3 271,139.2 -54.1,58 -155.8,52.6 -193.9,-19.9 -36.7,-69.9 4.8,-165.6 85.7,-175.9 79.9,-10.2 157.7,67.1 134.2,148.1 -19.6,67.2 -100,94.9 -162.5,75.4 -78,-24.3 -101.5,-116.7 -52.6,-179.5 45.7,-58.8 137.8,-77.4 194.3,-22.7 53,51.3 46.8,143.2 -1.4,195.5 -58.4,63.4 -155.2,50 -208.1,-12.9 -56.7,-67.5 -45.9,-165.9 26.2,-217.9 67.7,-48.8 161.9,-38.5 212.6,29.1 50.3,66.9 43.3,170.6 -30.9,217.2 -61.7,38.9 -149.8,28.2 -203.3,-20.2 -62.8,-56.8 -57,-152.8 2.6,-209.5 61.9,-58.9 155.7,-67.6 222.7,-13.4 56.7,45.9 -21.2,128 -77.6,82.4 -22.7,-18.4 -69.6,2.3 -78.3,28 -10.5,30.5 27.9,44.8 52.3,43.1 34.8,-2.5 43.4,-39.6 18.8,-64 -29.7,-29.5 -85.6,8.3 -63.2,46.3 18.1,30.7 65.3,20.5 51.6,-16.9 -4,-10.9 -10.4,-8.3 -21.7,-1.9 -2.2,1.3 -13.2,13.7 -10.4,8.9 0.7,-1.1 -7,2.2 0.5,0.7 6.7,-1.3 13.8,2 20.7,-1.6 -5.4,2.9 4.4,6 -4.9,0.4 -8.2,-5 -4.4,-5 -5.9,-3.1 -4.2,5.4 -4.4,17.2 3.8,10.5 14.7,-12 -11.7,-29.6 -24.5,-36.8 -13.5,-7.7 -54.1,-24.1 -49.4,8 2.3,15.1 25.6,21.1 39,13.9 13.4,-7.3 15.6,-22.3 12.2,-36.1 -1.4,-5.4 7.1,-2.3 -0.4,-1 -0.6,0.1 -4.3,2.7 -4.4,3.4 -0.9,8.1 -5.9,-8.9 -0.7,-1.4 41.5,60.2 -54.7,119.8 -95.9,60 v 0"
         style="fill:#bee5ed;fill-opacity:1;fill-rule:nonzero;stroke:none"
         id="path4723"
         inkscape:connector-curvature="0" /><path
         d="m 15621,11345.4 c 1263.4,-213.7 2532.6,-393 3805.9,-537.9 367.1,-41.8 734.6,-80.7 1102.4,-116.9 61.9,-6 64.5,90.6 2.8,96.7 -1274.8,125.3 -2546.3,284.3 -3812.6,478.1 -357.1,54.7 -713.8,112.2 -1070.1,172.4 -60.6,10.3 -89.6,-82 -28.4,-92.4 v 0"
         style="fill:#bee5ed;fill-opacity:1;fill-rule:nonzero;stroke:none"
         id="path4725"
         inkscape:connector-curvature="0" /><path
         d="m 15716.8,11657 c 931.7,-157.8 1861.8,-322.6 2800.7,-431.7 317.6,-36.9 635.6,-69.7 953.8,-101 123.9,-12.1 129.1,181.2 5.7,193.3 -934.6,91.8 -1862.6,212.6 -2788.5,368.8 -305,51.5 -609.9,103.8 -914.8,155.5 -51.9,8.8 -103.5,-9.7 -120.9,-64 -14.2,-44.7 12.6,-112.2 64,-120.9 v 0"
         style="fill:#6699b2;fill-opacity:1;fill-rule:nonzero;stroke:none"
         id="path4727"
         inkscape:connector-curvature="0" /><path
         d="m 15581.2,11018.8 c 412.8,-77.3 828.5,-137.7 1246.1,-181.7 61.9,-6.5 64.4,90.1 2.9,96.6 -409.1,43.1 -816.3,101.8 -1220.6,177.5 -60.5,11.4 -89.5,-81 -28.4,-92.4 v 0"
         style="fill:#bee5ed;fill-opacity:1;fill-rule:nonzero;stroke:none"
         id="path4729"
         inkscape:connector-curvature="0" /><path
         d="m 17218.6,10760.9 c 412.8,-77.3 828.5,-137.8 1246.2,-181.8 61.8,-6.5 64.4,90.2 2.8,96.7 -409,43.1 -816.2,101.8 -1220.5,177.5 -60.6,11.3 -89.5,-81 -28.5,-92.4 v 0"
         style="fill:#bee5ed;fill-opacity:1;fill-rule:nonzero;stroke:none"
         id="path4731"
         inkscape:connector-curvature="0" /><path
         d="m 14505.2,9808.6 c -45.9,-66.7 3.8,-154.6 76.9,-173 82,-20.6 144.4,56.7 138.4,133.3 -6.4,82.1 -76.9,138.3 -158.3,128.5 -81,-9.7 -135.7,-84.1 -115.1,-164.3 56.1,-218 412.9,-13.2 270.9,139.3 -54,58 -155.7,52.6 -193.8,-19.9 -36.7,-69.9 4.7,-165.7 85.7,-175.9 79.9,-10.2 157.7,67.1 134.1,148.1 -19.5,67.2 -99.9,94.9 -162.4,75.4 -78,-24.3 -101.5,-116.7 -52.7,-179.5 45.7,-58.9 137.8,-77.4 194.3,-22.7 53.1,51.3 46.8,143.1 -1.3,195.4 -58.4,63.4 -155.2,50.1 -208.1,-12.9 -56.7,-67.5 -45.9,-165.8 26.2,-217.8 67.7,-48.8 161.8,-38.5 212.6,29.1 50.2,66.9 43.3,170.5 -30.9,217.2 -61.7,38.8 -149.8,28.2 -203.3,-20.2 -62.8,-56.8 -57,-152.9 2.5,-209.5 62,-58.9 155.8,-67.6 222.8,-13.4 56.7,45.9 -21.2,127.9 -77.6,82.3 -22.7,-18.3 -69.6,2.4 -78.4,28.1 -10.4,30.5 28,44.8 52.4,43.1 34.7,-2.5 43.3,-39.7 18.8,-64 -29.7,-29.5 -85.6,8.3 -63.2,46.3 18.1,30.7 65.3,20.5 51.5,-16.9 -4,-11 -10.4,-8.3 -21.6,-1.9 -2.2,1.3 -13.3,13.7 -10.4,8.9 0.7,-1.2 -7,2.2 0.5,0.7 6.6,-1.3 13.8,2 20.6,-1.6 -5.3,2.9 4.5,6 -4.8,0.3 -8.2,-4.9 -4.5,-4.9 -6,-3 -4.2,5.4 -4.3,17.2 3.9,10.5 14.7,-12 -11.7,-29.6 -24.5,-36.9 -13.6,-7.6 -54.1,-24.1 -49.4,8.1 2.2,15.1 25.6,21.1 38.9,13.8 13.4,-7.2 15.7,-22.2 12.3,-36 -1.4,-5.4 7.1,-2.3 -0.4,-1 -0.7,0.1 -4.3,2.7 -4.4,3.4 -1,8.1 -5.9,-9 -0.7,-1.4 41.4,60.2 -54.8,119.8 -96,60 v 0"
         style="fill:#bee5ed;fill-opacity:1;fill-rule:nonzero;stroke:none"
         id="path4733"
         inkscape:connector-curvature="0" /><path
         d="m 15349.6,9591.4 c 806.5,-136.5 1611.1,-269.2 2425,-353.9 300.1,-31.2 600.4,-60.4 900.7,-89.9 61.9,-6.1 64.5,90.6 2.8,96.6 -813.5,79.9 -1624.5,162.4 -2431.6,294.1 -289.7,47.3 -579,96.5 -868.4,145.5 -60.6,10.3 -89.6,-82.1 -28.5,-92.4 v 0"
         style="fill:#bee5ed;fill-opacity:1;fill-rule:nonzero;stroke:none"
         id="path4735"
         inkscape:connector-curvature="0" /><path
         d="m 15445.5,9903 c 621.7,-105.3 1239.4,-233.3 1866.9,-299.4 272.3,-28.6 544.9,-54.9 817.4,-81.6 123.9,-12.2 129.1,181.1 5.7,193.2 -388,38.1 -777.1,71.4 -1163.8,121.4 -51.7,6.7 -103.4,13.9 -154.9,21.7 -24.7,3.7 -49.4,7.6 -74.1,11.6 -26.5,4.3 -0.2,0 -16.1,2.6 -15.8,2.7 -31.5,5.3 -47.2,8 -131.1,22.5 -261.9,46.8 -392.8,70.4 -261.1,47.1 -522.6,92.6 -784.2,137 -51.9,8.7 -103.5,-9.7 -120.9,-64 -14.3,-44.7 12.6,-112.2 64,-120.9 v 0"
         style="fill:#6699b2;fill-opacity:1;fill-rule:nonzero;stroke:none"
         id="path4737"
         inkscape:connector-curvature="0" /><path
         d="m 15309.9,9264.8 c 412.7,-77.3 828.4,-137.7 1246.1,-181.7 61.9,-6.6 64.4,90.1 2.8,96.6 -409,43.1 -816.2,101.8 -1220.5,177.5 -60.5,11.3 -89.5,-81 -28.4,-92.4 v 0"
         style="fill:#bee5ed;fill-opacity:1;fill-rule:nonzero;stroke:none"
         id="path4739"
         inkscape:connector-curvature="0" /><path
         d="m 16947.3,9006.8 c 412.8,-77.2 828.5,-137.7 1246.1,-181.7 61.9,-6.5 64.5,90.2 2.9,96.6 -409.1,43.1 -816.2,101.9 -1220.5,177.6 -60.6,11.3 -89.5,-81 -28.5,-92.5 v 0"
         style="fill:#bee5ed;fill-opacity:1;fill-rule:nonzero;stroke:none"
         id="path4741"
         inkscape:connector-curvature="0" /><path
         d="m 20970.4,16990.2 c -128.4,-632.2 -230,-1269.5 -304.3,-1910.3 -1.4,-12.1 9.6,-28.9 22.2,-31.1 584.1,-98.6 1172.4,-169.6 1763.2,-212 40.5,-2.9 42.3,60.2 1.9,63.1 -585.1,42 -1168,111.6 -1746.5,209.3 7.4,-10.4 14.9,-20.8 22.3,-31.1 73.7,635.1 174.2,1266.8 301.5,1893.5 8,39.5 -52.2,58.3 -60.3,18.6 v 0"
         style="fill:#bee5ed;fill-opacity:1;fill-rule:nonzero;stroke:none"
         id="path4743"
         inkscape:connector-curvature="0" /><path
         d="m 14790,9259.1 c 154.6,-37.9 325.6,-101.5 386.1,-248.7 60.8,-148.2 -23.9,-324.2 -153.8,-417.9 -129.8,-93.8 -293.7,-124 -451.9,-149 -647.6,-102.3 -1302.6,-158.5 -1958.2,-168 l 416.6,1003.1 c 578.2,128.2 1185.9,121.5 1761.2,-19.5"
         style="fill:#fdbaa0;fill-opacity:1;fill-rule:nonzero;stroke:none"
         id="path4747"
         inkscape:connector-curvature="0" /><path
         d="m 14207.6,7766.1 c 142.2,-71.5 294.7,-171.8 320.7,-328.8 26.2,-158 -95.7,-310.7 -243.2,-373 -147.6,-62.3 -314,-55.1 -473.8,-44.1 -654.1,45 -1305.1,136.6 -1946.2,273.8 l 630.2,884.7 c 592.2,-4.3 1183.1,-146.7 1712.3,-412.6"
         style="fill:#fdbaa0;fill-opacity:1;fill-rule:nonzero;stroke:none"
         id="path4749"
         inkscape:connector-curvature="0" /><path
         d="m 13060,6872.1 c 113.8,-111.3 228.7,-253.1 205.9,-410.6 -23,-158.5 -185.4,-267 -344.9,-281.6 -159.5,-14.7 -315.9,42.7 -464.9,101.6 -609.6,241.3 -1202.1,526 -1771.4,851.2 l 868.8,651.9 c 563,-183.8 1082.9,-498.6 1506.5,-912.5"
         style="fill:#fdbaa0;fill-opacity:1;fill-rule:nonzero;stroke:none"
         id="path4751"
         inkscape:connector-curvature="0" /><path
         d="m 18693.6,7033.8 430,-173.7 c 461,-186.1 762.9,-633.6 762.9,-1130.8 V 2723.4 c 0,-108.9 -88.2,-197.1 -197,-197.1 H 17854.1 9374.31 c -108.82,0 -197.02,88.2 -197.02,197.1 V 15579 c 0,108.8 88.2,197 197.02,197 h 8282.79 c 108.8,0 197,-88.2 197,-197 V 8278.2 c 0,-547.1 332.1,-1039.5 839.5,-1244.4"
         style="fill:#90ee90;fill-opacity:1;fill-rule:nonzero;stroke:none"
         id="path4757"
         inkscape:connector-curvature="0" /><path
         d="m 16409.2,11597.7 h -5563.4 c -89,0 -161.1,72.2 -161.1,161.2 V 13944 c 0,89 72.1,161.2 161.1,161.2 h 5563.4 c 89,0 161.2,-72.2 161.2,-161.2 v -2185.1 c 0,-89.1 -72.2,-161.2 -161.2,-161.2"
         style="fill:#e7eefd;fill-opacity:1;fill-rule:nonzero;stroke:none"
         id="path4759"
         inkscape:connector-curvature="0" /><path
         d="m 11448.9,12680.6 c 1171.8,-38.1 2344.2,-43.3 3515.8,-15.6 337.8,8 675.6,18.8 1013.3,32.1 56.8,2.3 46.5,93.3 -10.1,91.1 -1170.5,-46.3 -2342.4,-60.5 -3514.1,-41.4 -330.5,5.4 -660.9,13.5 -991.3,24.3 -56.2,1.8 -70.4,-88.6 -13.6,-90.5 v 0"
         style="fill:#75a1c9;fill-opacity:1;fill-rule:nonzero;stroke:none"
         id="path4761"
         inkscape:connector-curvature="0" /><path
         d="m 11524.8,13144.4 c 1045.6,-29.1 2090.6,-66 3136.8,-40.6 353.8,8.6 707.4,21.8 1061,36.6 137.7,5.8 113.5,218.5 -23.6,212.8 -1038.6,-43.7 -2074.5,-54.7 -3113.7,-26.5 -342.2,9.3 -684.4,19.6 -1026.7,29.1 -58.2,1.6 -112,-26.6 -122.6,-88.8 -8.8,-51.2 31.1,-121 88.8,-122.6 v 0"
         style="fill:#6699b2;fill-opacity:1;fill-rule:nonzero;stroke:none"
         id="path4763"
         inkscape:connector-curvature="0" /><path
         d="m 11455.9,12293.3 c 397.6,-17.9 795.8,-19.7 1193.6,-5.8 59,2.1 48.6,93.2 -10.1,91.1 -389.6,-13.7 -779.5,-12.4 -1169,5.2 -58.4,2.6 -73.3,-87.9 -14.5,-90.5 v 0"
         style="fill:#75a1c9;fill-opacity:1;fill-rule:nonzero;stroke:none"
         id="path4765"
         inkscape:connector-curvature="0" /><path
         d="m 13026.9,12267.8 c 397.7,-18 795.8,-19.7 1193.6,-5.8 59,2.1 48.6,93.2 -10.1,91.1 -389.6,-13.7 -779.5,-12.4 -1169,5.2 -58.3,2.6 -73.3,-87.9 -14.5,-90.5 v 0"
         style="fill:#75a1c9;fill-opacity:1;fill-rule:nonzero;stroke:none"
         id="path4767"
         inkscape:connector-curvature="0" /></g></g><g
     inkscape:groupmode="layer"
     id="layer2"
     inkscape:label="Layer 2"
     transform="translate(213.03851,-37.412659)"
     style="display:inline"><path
       d="m 1414.6474,1706.646 c -25.197,17.7938 -39.5926,46.2613 -68.3886,67.6086 -28.7914,21.352 -118.7779,32.0257 -118.7779,32.0257 0,0 -68.3887,-46.2573 -122.3771,-71.1668 -53.9929,-24.9097 -93.5857,-42.6991 -111.58474,-49.8148 -10.7076,-4.237 -8.66958,-12.2476 -5.26686,-18.0455 -4.52662,5.0128 -11.62179,10.9249 -19.92566,10.9249 -7.83117,0 -10.31966,-2.0983 -10.97966,-4.0209 -3.3314,6.155 -23.49791,12.68 -35.81541,21.8149 -8.5046,6.3044 -13.22282,2.6718 -15.67565,-1.3535 1.72148,5.1231 3.42951,12.7592 1.27993,19.1474 -3.59896,10.6738 -32.39482,81.8406 -61.19076,131.6554 -18.21761,31.5143 -55.14792,33.11 -82.57022,21.9293 -117.00319,271.0923 230.14429,365.9304 230.14429,365.9304 0,0 161.97414,-135.2135 255.55984,-185.0331 93.5812,-49.8148 151.1728,-117.4238 208.7602,-160.1275 57.5918,-42.6991 97.1846,-49.8149 183.5679,-67.6087 86.3876,-17.7895 259.1586,-14.2315 431.9297,-49.8151 l -2.5109,-259.0563 c -43.0577,12.1065 -631.9045,177.8643 -656.1784,195.0056"
       style="fill:#f57d5e;fill-opacity:1;fill-rule:nonzero;stroke:none;stroke-width:0.44341293"
       id="path26"
       inkscape:connector-curvature="0"
       clip-path="url(#clipPath4960)" /><path
       d="m 1407.4498,1713.766 -1.1997,-0.4805 c -20.3406,17.7054 -34.549,42.1081 -59.9913,60.9691 -28.7914,21.352 -118.7779,32.0257 -118.7779,32.0257 0,0 -68.3887,-46.2573 -122.3771,-71.1668 -53.9929,-24.9097 -93.5857,-42.6991 -111.58474,-49.8148 -10.7076,-4.237 -8.66958,-12.2476 -5.26686,-18.0455 -4.52662,5.0128 -11.62179,10.9249 -19.92566,10.9249 -7.83117,0 -10.31966,-2.0983 -10.97966,-4.0209 -3.3314,6.155 -23.49791,12.68 -35.81541,21.8149 -8.5046,6.3044 -13.22282,2.6718 -15.67565,-1.3535 1.72148,5.1231 3.42951,12.7592 1.27993,19.1474 -3.59896,10.6738 -32.39482,81.8406 -61.19076,131.6554 -18.21761,31.5143 -55.14792,33.11 -82.57022,21.9293 -117.00319,271.0923 230.14429,365.9304 230.14429,365.9304 0,0 161.97414,-135.2135 255.55984,-185.0331 93.5812,-49.8148 151.1728,-117.4238 208.7602,-160.1275 4.0137,-2.9714 7.9338,-5.7577 11.787,-8.4029 30.6064,-76.8454 -2.1141,-140.5082 -62.1763,-165.9516"
       style="fill:#f6886b;fill-opacity:1;fill-rule:nonzero;stroke:none;stroke-width:0.44341293"
       id="path28"
       inkscape:connector-curvature="0" /><path
       d="m -156.48434,1585.6595 c 158.374817,17.7941 266.35567,17.7941 403.13064,10.6785 136.7759,-7.1159 190.76877,-14.2362 237.55935,-3.5579 46.795,10.6735 115.18362,-17.7942 187.17113,-46.2574 71.9831,-28.4718 133.17829,-46.2612 165.56868,-60.4927 32.39483,-14.2363 82.78878,-28.4679 136.78166,17.7893 53.98858,46.2612 111.57578,106.7502 111.57578,106.7502 l -104.38238,60.493 c 0,0 118.78258,56.9352 176.37428,92.5142 57.5873,35.5879 93.5814,56.9351 129.575,74.7289 35.9938,17.7938 79.1853,35.5834 100.7834,60.4887 21.598,24.9142 50.3939,60.4932 28.7961,88.9606 -21.5983,28.4678 -71.9877,35.5836 -100.7881,10.6783 -28.7914,-24.9099 -68.3885,-35.5836 -89.9776,-49.8195 -21.5979,-14.2316 -107.9859,-49.8194 -118.7827,-56.9353 -10.7965,-7.1158 -25.1923,0 -7.1978,14.2363 17.9946,14.2315 57.5917,35.5832 100.7792,71.1664 43.1957,35.5837 64.7939,42.6996 79.1897,46.2574 14.4004,3.5579 35.9892,67.6085 3.5989,96.0764 -32.3947,28.4632 -89.9866,10.6738 -89.9866,10.6738 0,0 10.8014,39.1412 -17.9947,60.4927 -28.7959,21.3521 -68.3887,10.6737 -68.3887,10.6737 0,0 7.198,49.8194 -43.196,53.3772 -50.3851,3.5581 -79.18101,-14.2313 -104.37791,-32.0251 -25.19701,-17.7943 -359.93772,-174.3592 -413.93061,-209.9424 -53.99287,-35.5837 -82.78431,-60.4933 -147.574,-60.4933 -64.78971,0 -554.30672,42.6991 -554.30672,42.6991 v -409.2111"
       style="fill:#fabd93;fill-opacity:1;fill-rule:nonzero;stroke:none;stroke-width:0.44341293"
       id="path30"
       inkscape:connector-curvature="0"
       clip-path="url(#clipPath4944)" /><path
       d="m 1195.0724,2141.7628 c -0.4993,-6.9965 -1.7881,-11.6741 -1.7881,-11.6741 -43.1872,-35.5836 -172.7666,-124.5442 -187.1668,-131.6555 -14.39571,-7.1159 -32.39038,-7.1159 10.7969,21.3475 43.196,28.4673 133.1827,85.4026 154.7718,103.1921 9.3385,7.6932 17.3214,14.0509 23.3862,18.79"
       style="fill:#e9a177;fill-opacity:1;fill-rule:nonzero;stroke:none;stroke-width:0.44341293"
       id="path32"
       inkscape:connector-curvature="0" /><path
       d="m 903.53679,2050.0247 c -17.99907,-10.6737 -21.598,-7.1158 21.59364,24.9142 31.03915,23.0048 128.97257,99.2948 181.64577,140.4156 0.8471,-6.8467 0.3478,-12.2254 0.1783,-13.6805 l -1.8507,-2.1955 C 1065.511,2171.011 921.53135,2060.7031 903.53667,2050.0247"
       style="fill:#e9a177;fill-opacity:1;fill-rule:nonzero;stroke:none;stroke-width:0.44341293"
       id="path34"
       inkscape:connector-curvature="0" /><path
       d="m 1281.8838,2024.357 c 10.8058,43.4176 -28.3632,91.7779 -71.0776,109.5098 19.6001,3.0023 51.3705,4.0827 72.4647,-14.4519 30.7716,-27.0393 12.8304,-86.148 -1.3871,-95.0579"
       style="fill:#fbc8ac;fill-opacity:1;fill-rule:nonzero;stroke:none;stroke-width:0.44341293"
       id="path36"
       inkscape:connector-curvature="0" /><path
       d="m 1193.2843,2130.0887 0.4504,0.1356 -4.0494,-3.0642 -2.0112,1.3489 c -1.3068,41.1605 -45.8809,64.9195 -90.66,60.6916 l -4.5579,3.0553 14.4447,8.9982 c 0,0 39.5928,10.678 68.3887,-10.6736 28.7961,-21.3518 17.9947,-60.4933 17.9947,-60.4933"
       style="fill:#fbc8ac;fill-opacity:1;fill-rule:nonzero;stroke:none;stroke-width:0.44341293"
       id="path38"
       inkscape:connector-curvature="0" /><path
       d="m 1338.548,1863.6961 c 37.1489,28.9477 -4.9189,116.9343 -83.0607,100.1105 19.5378,8.8527 42.0056,18.9048 60.1739,34.6266 28.8004,24.9053 79.1898,17.7895 100.7881,-10.6783 21.5978,-28.4674 -7.1981,-64.0464 -28.7961,-88.9606 -11.6083,-13.3893 -29.4826,-24.7156 -49.1052,-35.0982"
       style="fill:#fbc8ac;fill-opacity:1;fill-rule:nonzero;stroke:none;stroke-width:0.44341293"
       id="path40"
       inkscape:connector-curvature="0" /><path
       d="m 1106.9009,1891.6784 0.794,0.4808 c -22.9405,-25.8666 -38.8883,-66.6036 -43.99,-71.6431 -7.1978,-7.1199 2.912,60.0702 30.2543,79.8521 l 0.058,0.041 c -8.308,-10.4225 3.5946,-14.8533 12.8841,-8.7294"
       style="fill:#e9a177;fill-opacity:1;fill-rule:nonzero;stroke:none;stroke-width:0.44341293"
       id="path42"
       inkscape:connector-curvature="0" /><path
       d="m 1063.7049,2254.6323 c 37.5146,-2.6492 43.1069,-30.9141 43.5215,-45.2033 l -31.1818,-18.0407 c 8.7412,39.9436 -33.9288,59.6862 -89.80816,48.1132 19.76506,10.3256 43.78026,17.5074 77.46846,15.1308"
       style="fill:#fbc8ac;fill-opacity:1;fill-rule:nonzero;stroke:none;stroke-width:0.44341293"
       id="path44"
       inkscape:connector-curvature="0" /><path
       d="m 2071.5395,1309.8895 c 0,0 -548.9063,140.5525 -620.8981,169.0245 -71.9877,28.4676 -104.3826,32.0256 -133.174,35.5792 -28.796,3.5577 -43.196,0 -71.9918,-7.1116 -28.796,-7.1201 -107.9814,-14.2359 -147.5742,-14.2359 -39.5927,0 -79.1855,-28.4679 -129.57486,-21.352 -50.39403,7.1203 -82.78882,46.2572 -107.98581,67.609 -25.19252,21.3515 -97.18005,56.9353 -111.58025,81.8449 -14.39572,24.9052 -3.59891,74.7245 -7.19785,110.308 -3.59894,35.5833 -21.59804,74.7247 -10.7968,106.75 10.7968,32.0212 86.38327,56.9354 115.17916,7.1158 28.79594,-49.8148 57.5918,-120.9816 61.19076,-131.6554 3.59896,-10.678 -3.59896,-24.9095 -3.59896,-24.9095 0,0 3.59896,17.7895 17.99468,7.1156 14.40014,-10.6734 39.59274,-17.794 35.99378,-24.9096 0,0 -3.59896,7.1156 10.80129,7.1156 14.39561,0 25.19252,-17.7893 25.19252,-17.7893 0,0 -17.99472,17.7893 0,24.9099 17.99904,7.1157 57.59184,24.9051 111.58474,49.8148 53.9884,24.9095 122.3771,71.1668 122.3771,71.1668 0,0 89.9865,-10.6737 118.7779,-32.0257 28.796,-21.3473 43.1916,-49.8148 68.3886,-67.6086 25.1972,-17.7895 658.6893,-195.7064 658.6893,-195.7064 l -1.7972,-201.0501"
       style="fill:#f78f69;fill-opacity:1;fill-rule:nonzero;stroke:none;stroke-width:0.44341293"
       id="path46"
       inkscape:connector-curvature="0"
       clip-path="url(#clipPath4976)" /><path
       d="m 993.51906,2233.2851 c -35.99381,46.257 -53.98849,67.6045 -111.58027,60.4885 -57.58736,-7.1158 -68.38862,-60.4885 -53.98845,-88.9607 14.39572,-28.4674 68.38864,-135.2131 68.38864,-135.2131 0,0 50.3895,-35.5877 64.78523,21.3472 14.40013,56.9311 -3.59896,124.5397 -3.59896,124.5397 l 35.99381,17.7984"
       style="fill:#f78f69;fill-opacity:1;fill-rule:nonzero;stroke:none;stroke-width:0.44341293"
       id="path48"
       inkscape:connector-curvature="0" /><path
       d="m 896.33898,2069.5998 c 0,0 -53.99292,106.7457 -68.38864,135.2131 -9.31619,18.4202 -8.05857,47.2537 9.57042,67.2478 59.95985,31.6682 109.20772,-13.8703 120.00449,-56.574 0,0 17.99909,-67.6086 3.59896,-124.5397 -14.39573,-56.9349 -64.78523,-21.3472 -64.78523,-21.3472"
       style="fill:#f79275;fill-opacity:1;fill-rule:nonzero;stroke:none;stroke-width:0.44341293"
       id="path50"
       inkscape:connector-curvature="0" /><path
       d="m 822.61215,2237.6409 c -45.05574,20.5495 -84.64846,9.8759 -106.24649,-15.0337 -21.59358,-24.9099 -14.39572,-42.6994 -10.79679,-56.9311 3.59892,-14.2358 89.98665,-135.2175 107.9813,-153.0113 17.99912,-17.7942 46.79056,-28.4678 79.18986,-7.1203 32.3904,21.3519 10.79676,67.6132 3.59895,81.8448 -7.20231,14.2314 -73.72683,150.2516 -73.72683,150.2516"
       style="fill:#f68b72;fill-opacity:1;fill-rule:nonzero;stroke:none;stroke-width:0.44341293"
       id="path52"
       inkscape:connector-curvature="0" /><path
       d="m 705.56887,2169.2299 c -32.39483,32.0252 -100.78344,24.9096 -129.57491,-24.9055 -28.79589,-49.8193 25.19253,-99.6342 39.59271,-124.5437 14.39571,-24.9101 86.38327,-110.3082 154.77189,-88.9565 68.38859,21.3473 27.34651,100.7189 27.34651,100.7189 l -92.1362,137.6868"
       style="fill:#f79275;fill-opacity:1;fill-rule:nonzero;stroke:none;stroke-width:0.44341293"
       id="path54"
       inkscape:connector-curvature="0" /><path
       d="m 464.40928,1966.4032 c 25.19698,-42.6947 118.77811,32.03 125.98041,56.9353 7.19787,24.9095 -35.99375,74.7291 -86.38324,71.1666 -50.39396,-3.5581 -46.79502,-53.3728 -46.79502,-78.2824 0,-24.9054 7.19785,-49.8195 7.19785,-49.8195"
       style="fill:#f78f69;fill-opacity:1;fill-rule:nonzero;stroke:none;stroke-width:0.44341293"
       id="path56"
       inkscape:connector-curvature="0" /><path
       d="m 590.38969,2023.3385 c -7.2023,-24.9053 -100.78343,-99.63 -125.98041,-56.9353 0,0 -1.96225,6.8381 -3.83974,16.8858 2.3101,31.073 22.74416,64.959 54.22922,64.959 25.65185,0 33.25108,6.6704 47.5933,26.8364 20.15312,-15.8451 32.04701,-37.735 27.99763,-51.7459"
       style="fill:#f57d5e;fill-opacity:1;fill-rule:nonzero;stroke:none;stroke-width:0.44341293"
       id="path58"
       inkscape:connector-curvature="0" /><path
       d="m 991.72179,1662.17 c 14.39571,-21.3517 3.59444,-32.0301 -3.60338,-53.3776 -7.19789,-21.3515 25.20139,-56.9349 39.59729,-113.8701 2.1359,-9.5009 -3.898,-19.0371 -13.5351,-21.0299 -14.40032,-2.9761 -29.56301,-4.4002 -45.85406,-2.0987 -50.39403,7.1203 -82.78882,46.2572 -107.98581,67.609 -25.19252,21.3515 -97.18005,56.9353 -111.58025,81.8449 -2.82295,4.8804 -4.65136,10.744 -5.83766,17.2471 35.55227,-69.8177 130.02534,-1.2258 162.41119,55.6963 0.3168,0.5513 0.59316,1.0406 0.89641,1.578 -0.12476,-0.4008 -0.24985,-0.7755 -0.3746,-1.1504 2.45283,4.0253 7.17105,7.6579 15.67565,1.3535 12.3175,-9.1349 32.48401,-15.6599 35.81541,-21.8149 0.66,1.9226 3.14849,4.0209 10.97966,4.0209 8.30387,0 15.39904,-5.9121 19.92566,-10.9249 l -0.3523,0.6217 c 1.24866,-1.8738 2.51523,-3.7696 3.82189,-5.7049"
       style="fill:#f6886b;fill-opacity:1;fill-rule:nonzero;stroke:none;stroke-width:0.44341293"
       id="path60"
       inkscape:connector-curvature="0" /><path
       d="m 1382.2527,1628.3633 c 17.0269,41.1383 16.1704,63.6016 24.5727,84.4415 2.5062,-2.1559 5.0927,-4.2324 7.822,-6.1588 25.1972,-17.7895 658.6893,-195.7064 658.6893,-195.7064 l -1.7972,-201.0501 c 0,0 -548.9063,140.5568 -620.8981,169.0245 -71.9877,28.4676 -104.3826,32.0256 -133.174,35.5792 -22.2312,2.7463 -35.9001,1.2431 -54.2159,-2.8571 v 0 c 122.609,27.7623 86.6108,38.4401 119.0058,116.7227"
       style="fill:#f6816b;fill-opacity:1;fill-rule:nonzero;stroke:none;stroke-width:0.44341293"
       id="path62"
       inkscape:connector-curvature="0"
       clip-path="url(#clipPath4968)" /><path
       d="m 871.142,2151.4403 c 0,21.3518 35.99375,17.7896 35.99375,17.7896 l 35.99378,-53.3729 c 0,0 -14.40025,-17.7894 -28.79586,-21.3519 -14.39573,-3.5581 -21.59364,0 -21.59364,0 l -21.59803,56.9352"
       style="fill:#f8a28e;fill-opacity:1;fill-rule:nonzero;stroke:none;stroke-width:0.44341293"
       id="path64"
       inkscape:connector-curvature="0" /><path
       d="m 871.142,2026.8964 c -20.36272,-15.096 -32.39485,-17.7895 -32.39485,-17.7895 0,0 -46.795,46.257 -28.79589,71.1624 17.99908,24.914 57.59179,-3.5539 64.78967,-14.2274 7.19786,-10.678 14.39574,-21.3517 14.39574,-21.3517 0,0 -3.59895,-7.1159 -17.99467,-17.7938"
       style="fill:#f8a28e;fill-opacity:1;fill-rule:nonzero;stroke:none;stroke-width:0.44341293"
       id="path66"
       inkscape:connector-curvature="0" /><path
       d="m 763.16068,1962.8496 c -22.90918,-7.5476 -50.3895,-10.6781 -50.3895,-10.6781 0,0 -39.59714,42.6991 -35.99822,67.6092 3.59895,24.9095 50.88005,52.6012 75.83177,26.3026 24.95168,-26.3026 46.54971,-58.3284 46.54971,-58.3284 0,0 -14.40017,-17.7896 -35.99376,-24.9053"
       style="fill:#f8a28e;fill-opacity:1;fill-rule:nonzero;stroke:none;stroke-width:0.44341293"
       id="path68"
       inkscape:connector-curvature="0" /><path
       d="m 514.79876,2048.248 c -23.89026,0 -41.3944,-19.5178 -49.47079,-42.5006 -3.64354,11.2908 -4.52654,23.2695 2.68025,31.8269 14.90413,17.6747 42.1213,28.0001 53.09645,10.8547 -1.98896,-0.1099 -4.05379,-0.182 -6.30591,-0.182"
       style="fill:#f8a28e;fill-opacity:1;fill-rule:nonzero;stroke:none;stroke-width:0.44341293"
       id="path70"
       inkscape:connector-curvature="0" /><path
       d="m 728.96417,1836.5245 c 35.99374,17.7895 79.18985,-28.4674 79.18985,-28.4674 0,0 28.79144,-74.7249 -25.197,-78.2829 -53.99285,-3.5578 -53.99285,106.7503 -53.99285,106.7503"
       style="fill:#f8a28e;fill-opacity:1;fill-rule:nonzero;stroke:none;stroke-width:0.44341293"
       id="path72"
       inkscape:connector-curvature="0" /><path
       d="m 993.51906,1679.3685 c -0.87405,0 -1.70369,-0.5111 -2.06041,-1.3623 -0.4727,-1.1242 0.0669,-2.4116 1.20858,-2.8787 49.30127,-20.1395 91.61437,-73.1466 109.43967,-112.9977 5.958,-13.2528 9.1735,-25.064 9.1555,-33.3918 0,-3.871 -0.6911,-6.9397 -1.922,-9.0559 -0.6112,-1.0582 -0.2364,-2.4029 0.8294,-3.0067 0.3525,-0.1984 0.7314,-0.2908 1.106,-0.2908 0.776,0 1.5253,0.3965 1.9357,1.1109 1.7659,3.0685 2.5062,6.8776 2.5107,11.2425 -0.012,9.3859 -3.4429,21.5632 -9.5392,35.1775 -6.1009,13.6056 -14.9085,28.6043 -25.817,43.3475 -21.8209,29.4816 -52.0171,57.9929 -85.99076,71.9381 -0.28104,0.1156 -0.57082,0.1688 -0.85618,0.1688"
       style="fill:#f3855e;fill-opacity:1;fill-rule:nonzero;stroke:none;stroke-width:0.44341293"
       id="path74"
       inkscape:connector-curvature="0" /><path
       d="m 985.75921,1673.3948 c -0.21845,-0.1054 -0.42359,-0.2016 -0.62884,-0.3042 0.0764,-0.1453 0.16495,-0.2876 0.2766,-0.4232 0.2766,-0.3353 0.54857,-0.6746 0.81174,-1.0141 -0.18729,0.5729 -0.34343,1.1549 -0.45939,1.7415"
       style="fill:#ef7f60;fill-opacity:1;fill-rule:nonzero;stroke:none;stroke-width:0.44341293"
       id="path76"
       inkscape:connector-curvature="0" /><path
       d="m 985.52291,1675.5858 c -0.65119,-0.6747 -0.79829,-1.6709 -0.39254,-2.4952 0.20514,0.1007 0.41039,0.1985 0.62884,0.3042 -0.14722,0.7319 -0.23177,1.4592 -0.23653,2.191"
       style="fill:#eda87f;fill-opacity:1;fill-rule:nonzero;stroke:none;stroke-width:0.44341293"
       id="path78"
       inkscape:connector-curvature="0" /><path
       d="m 987.13288,1676.265 c -0.49509,0 -0.99456,-0.1621 -1.40483,-0.494 -0.0753,-0.056 -0.14281,-0.1221 -0.20502,-0.1852 0,-0.7318 0.0891,-1.4591 0.23641,-2.191 0.11606,-0.5866 0.27198,-1.1686 0.45939,-1.7415 2.28325,-2.9539 4.08493,-6.0401 5.42739,-9.3733 0.0227,-0.037 0.0484,-0.077 0.0761,-0.111 14.39568,-21.3516 3.59445,-32.0295 -3.60349,-53.377 -2.85417,-8.4606 0.51292,-19.1607 6.51555,-32.5369 2.0648,-2.4912 4.28574,-5.0573 6.49772,-7.9009 7.064,-9.0996 14.2664,-20.9902 16.4916,-42.3991 1.2087,-3.0643 2.3906,-6.2121 3.5323,-9.4394 0.8919,0.3176 1.5163,1.1773 1.4716,2.1692 -0.8741,20.2628 -5.8956,33.6876 -11.8536,43.5589 -5.9582,9.8582 -12.74587,16.1848 -16.92443,22.2731 -2.79627,4.0784 -4.47302,7.8876 -4.48649,12.8387 0,2.6981 0.51734,5.7756 1.74822,9.426 5.20432,15.4396 7.93821,28.0663 7.94263,38.903 0.0241,11.789 -3.33582,21.4885 -10.19029,29.7683 -0.44156,0.5335 -1.08374,0.8113 -1.73045,0.8113"
       style="fill:#f3855e;fill-opacity:1;fill-rule:nonzero;stroke:none;stroke-width:0.44341293"
       id="path80"
       inkscape:connector-curvature="0" /><path
       d="m 991.64591,1662.28 c 1.97126,-4.9069 2.939,-10.3339 2.94794,-16.5944 0,-10.0875 -2.5866,-22.3176 -7.71524,-37.51 -1.34677,-4.0034 -1.97562,-7.5568 -1.97562,-10.8192 -0.0139,-6.0182 2.18526,-10.8855 5.26237,-15.3209 1.34677,-1.9484 2.8631,-3.8442 4.4685,-5.7799 -6.00263,13.3765 -9.36969,24.0766 -6.51545,32.5368 7.19782,21.3475 17.99909,32.0259 3.60338,53.3776 -0.0267,0.036 -0.0535,0.077 -0.0761,0.1077 m 25.97731,-136.3243 c 0.2453,-2.3675 0.4326,-4.8498 0.5487,-7.4595 0.053,-1.1862 1.0389,-2.1121 2.2252,-2.1121 0.03,0 0.065,0 0.097,0 0.2317,0 0.4548,0.055 0.6601,0.1286 -1.1417,3.2272 -2.3236,6.3751 -3.5321,9.4394"
       style="fill:#ef7f60;fill-opacity:1;fill-rule:nonzero;stroke:none;stroke-width:0.44341293"
       id="path82"
       inkscape:connector-curvature="0" /><path
       d="m 1214.4051,1791.2949 c -0.8606,0 -1.6767,-0.4943 -2.0424,-1.3184 -0.4952,-1.1153 0.012,-2.4161 1.1416,-2.9054 0,0 1.0569,-0.4584 3.0101,-1.3625 1.9577,-0.9036 4.7987,-2.2484 8.3262,-4.0077 7.0597,-3.5091 16.871,-8.6631 27.8507,-15.2145 21.959,-13.094 48.5876,-31.8183 67.1933,-54.0429 12.411,-14.8135 21.2146,-31.1308 22.945,-48.2985 0.1168,-1.1375 1.0835,-1.9841 2.2162,-1.9841 0.071,0 0.1471,0 0.223,0 1.2264,0.1195 2.1185,1.1993 1.998,2.412 -1.8687,18.3846 -11.1937,35.4333 -23.9482,50.6701 -12.768,15.2413 -29.0145,28.71 -44.998,39.9349 -31.9753,22.4318 -62.9387,35.879 -63.0189,35.9139 -0.2943,0.1286 -0.5977,0.1886 -0.8965,0.1886"
       style="fill:#f3855e;fill-opacity:1;fill-rule:nonzero;stroke:none;stroke-width:0.44341293"
       id="path84"
       inkscape:connector-curvature="0" /><path
       d="m 922.46355,1696.7922 c -0.53072,0 -1.01233,-0.1817 -1.39585,-0.485 0.15613,-0.1087 0.30765,-0.2216 0.46377,-0.3351 v 0 c 0.0232,0 0.0407,-0.034 0.0625,-0.049 0,0 0.0138,0 0.0163,0 0.0162,-0.035 0.0359,-0.035 0.0533,-0.043 0.0116,0 0.0163,0 0.0266,-0.035 0.0139,0 0.03,-0.034 0.044,-0.037 0.0138,0 0.0232,0 0.0301,-0.034 0.0138,0 0.0232,0 0.03,-0.034 0.91865,-0.6702 1.87749,-1.3272 2.86749,-1.9707 0.0232,0.4804 0.0232,0.7538 0.0266,0.7802 0,1.2213 -0.99893,2.209 -2.22986,2.209"
       style="fill:#eda87f;fill-opacity:1;fill-rule:nonzero;stroke:none;stroke-width:0.44341293"
       id="path86"
       inkscape:connector-curvature="0" /><path
       d="m 921.0677,1696.3072 v 0 c 0.15613,-0.1087 0.30765,-0.2216 0.46377,-0.3351 -0.15612,0.1157 -0.30775,0.225 -0.46377,0.3351 m 0.52622,-0.3835 c 0,0 0.0138,0 0.0162,0 0,0 -0.0139,0 -0.0162,0 m 0.0719,-0.054 c 0.0117,0 0.0163,0 0.0266,0 -0.0116,0 -0.0163,0 -0.0266,0 m 0.0718,-0.053 c 0.0139,0 0.0232,0 0.0301,-0.034 -0.0117,0 -0.0163,0 -0.0301,0.034 m 0.0626,-0.043 c 0.91865,-0.6701 1.87738,-1.3267 2.86749,-1.9706 v 0 c -0.99011,0.6439 -1.94884,1.3005 -2.86749,1.9706"
       style="fill:#f3855e;fill-opacity:1;fill-rule:nonzero;stroke:none;stroke-width:0.44341293"
       id="path88"
       inkscape:connector-curvature="0" /><path
       d="m 921.0677,1696.3072 c -0.50838,-0.4056 -0.83398,-1.0226 -0.83398,-1.7237 l -0.0115,-0.3273 c -0.0115,-0.2381 -0.0266,-0.604 -0.0578,-1.0761 -0.0672,-0.9432 -0.20074,-2.3231 -0.4683,-4.034 -0.53965,-3.4166 -1.62777,-8.1384 -3.79066,-13.2703 -4.35266,-10.2727 -12.87952,-22.1411 -30.24088,-29.0187 -1.14166,-0.454 -1.69913,-1.7369 -1.23977,-2.8659 0.34786,-0.864 1.18626,-1.3886 2.06925,-1.3886 0.27662,0 0.55748,0.052 0.82951,0.1586 18.60565,7.3408 28.06008,20.3644 32.69804,31.4216 3.89327,9.2495 4.53555,17.1635 4.64258,19.6189 -0.99012,0.6438 -1.94885,1.3011 -2.8676,1.9708 -0.0116,0 -0.0163,0 -0.0301,0.035 -0.0116,0 -0.0163,0 -0.03,0.034 -0.0139,0 -0.0301,0.035 -0.0441,0.037 -0.0116,0 -0.0163,0 -0.0266,0.035 -0.0163,0 -0.0359,0.034 -0.0534,0.043 0,0 -0.0139,0 -0.0163,0 -0.0232,0 -0.0406,0.034 -0.0625,0.049 v 0 c -0.15614,0.1156 -0.30766,0.2249 -0.46378,0.3354"
       style="fill:#ef7f60;fill-opacity:1;fill-rule:nonzero;stroke:none;stroke-width:0.44341293"
       id="path90"
       inkscape:connector-curvature="0" /><path
       d="m 931.44967,1670.1231 c -1.14603,0 -2.1227,-0.868 -2.22081,-2.0187 l -0.0407,-0.4058 c -0.0359,-0.2876 -0.0938,-0.7185 -0.183,-1.2787 -0.1829,-1.1196 -0.49054,-2.7511 -1.00344,-4.7302 -1.03019,-3.9594 -2.88093,-9.3296 -6.12302,-14.8888 -6.52899,-11.1191 -18.4273,-22.9963 -41.11794,-26.4792 -1.21747,-0.1852 -2.05144,-1.3095 -1.86416,-2.513 0.16959,-1.0889 1.11938,-1.8693 2.19863,-1.8693 0.11601,0 0.22746,0 0.34339,0.034 24.06424,3.6284 37.34511,16.6388 44.3021,28.6305 6.98827,11.9963 7.91144,22.9478 7.93368,23.1419 0.10304,1.2125 -0.81162,2.2749 -2.03804,2.3764 -0.0625,0 -0.12486,0 -0.1873,0"
       style="fill:#ef7f60;fill-opacity:1;fill-rule:nonzero;stroke:none;stroke-width:0.44341293"
       id="path92"
       inkscape:connector-curvature="0" /><path
       d="m 1096.8936,1684.3463 c -0.7671,0 -1.5119,-0.3925 -1.9267,-1.0936 -0.6197,-1.0536 -0.2632,-2.4028 0.8028,-3.0155 55.4022,-31.9064 83.743,-86.2006 83.6985,-126.8056 0,-10.9516 -2.047,-20.8759 -6.0874,-29.098 -4.0494,-8.2227 -10.0475,-14.7521 -18.1106,-19.0773 -1.0838,-0.5774 -1.4851,-1.9178 -0.9006,-2.9846 0.4056,-0.7405 1.1729,-1.1552 1.9619,-1.1552 0.3612,0 0.7226,0.083 1.0616,0.2645 8.9237,4.7705 15.6086,12.0757 19.997,21.0258 4.3973,8.9499 6.5377,19.5354 6.5377,31.0248 -0.045,42.527 -29.2063,97.8662 -85.9107,130.6148 -0.3517,0.2017 -0.7401,0.3009 -1.1235,0.3009"
       style="fill:#f3855e;fill-opacity:1;fill-rule:nonzero;stroke:none;stroke-width:0.44341293"
       id="path94"
       inkscape:connector-curvature="0" /><path
       d="m 985.30887,1959.5784 c -46.4427,0 -60.10708,-52.5575 -28.68003,-56.9968 13.15148,-1.8563 24.34971,-2.8088 34.06712,-2.8088 27.47154,0 43.09834,7.5878 57.68574,23.6842 22.093,24.3896 -10.0031,33.1412 -59.38481,36.0114 -1.24867,0.068 -2.48397,0.1088 -3.68802,0.1088"
       style="fill:#fbc29e;fill-opacity:1;fill-rule:nonzero;stroke:none;stroke-width:0.44341293"
       id="path96"
       inkscape:connector-curvature="0" /><path
       d="m 1100.5551,1797.189 c -6.1413,0 -15.2611,-0.8813 -25.2417,-4.8275 -17.9813,-7.1112 -64.7408,0 -65.5972,-30.2001 -0.2674,-9.5098 19.4355,-22.423 41.2386,-22.423 11.7512,0 24.1133,3.7516 34.2901,13.8082 26.9408,26.6334 38.8925,43.3872 26.5751,43.3872 -0.9633,0 -2.0736,-0.1043 -3.3403,-0.3076 0,0 -3.0015,0.5643 -7.9246,0.5643"
       style="fill:#fbc29e;fill-opacity:1;fill-rule:nonzero;stroke:none;stroke-width:0.44341293"
       id="path98"
       inkscape:connector-curvature="0" /><path
       d="m 1727.7591,1873.7259 -120.0269,34.0448 -142.6818,-491.5807 120.0266,-34.049 142.6821,491.5849"
       style="fill:#ffffff;fill-opacity:1;fill-rule:nonzero;stroke:none;stroke-width:0.44341293"
       id="path100"
       inkscape:connector-curvature="0" /><path
       d="m 2073.3367,1770.0883 -349.2704,90.9228 -135.2965,-466.1553 484.5669,-136.1876 v 511.4201"
       style="fill:#3b83c6;fill-opacity:1;fill-rule:nonzero;stroke:none;stroke-width:0.44341293"
       id="path102"
       inkscape:connector-curvature="0"
       clip-path="url(#clipPath4952)" /><path
       d="m 242.71113,1526.5906 124.86596,-0.4408 1.85077,511.4156 -124.87003,0.4454 -1.8467,-511.4202"
       style="fill:#b86276;fill-opacity:1;fill-rule:nonzero;stroke:none;stroke-width:0.44341293"
       id="path104"
       inkscape:connector-curvature="0" /><path
       d="m -156.48434,1540.831 399.24229,-1.0141 1.75087,484.9677 -400.99316,2.1251 V 1540.831"
       style="fill:#f36276;fill-opacity:1;fill-rule:nonzero;stroke:none;stroke-width:0.44341293"
       id="path106"
       inkscape:connector-curvature="0"
       clip-path="url(#clipPath4931)" /></g></svg>