<?xml version="1.0" encoding="UTF-8" standalone="no"?>
<svg
   xmlns:dc="http://purl.org/dc/elements/1.1/"
   xmlns:cc="http://creativecommons.org/ns#"
   xmlns:rdf="http://www.w3.org/1999/02/22-rdf-syntax-ns#"
   xmlns:svg="http://www.w3.org/2000/svg"
   xmlns="http://www.w3.org/2000/svg"
   xmlns:sodipodi="http://sodipodi.sourceforge.net/DTD/sodipodi-0.dtd"
   xmlns:inkscape="http://www.inkscape.org/namespaces/inkscape"
   width="299.62018"
   height="4.0002332"
   viewBox="0 0 299.62018 4.0002332"
   version="1.1"
   id="svg4"
   sodipodi:docname="line-shape2.svg"
   inkscape:version="0.92.4 (5da689c313, 2019-01-14)"
   style="fill:none">
  <metadata
     id="metadata10">
    <rdf:RDF>
      <cc:Work
         rdf:about="">
        <dc:format>image/svg+xml</dc:format>
        <dc:type
           rdf:resource="http://purl.org/dc/dcmitype/StillImage" />
        <dc:title></dc:title>
      </cc:Work>
    </rdf:RDF>
  </metadata>
  <defs
     id="defs8" />
  <sodipodi:namedview
     pagecolor="#ffffff"
     bordercolor="#666666"
     borderopacity="1"
     objecttolerance="10"
     gridtolerance="10"
     guidetolerance="10"
     inkscape:pageopacity="0"
     inkscape:pageshadow="2"
     inkscape:window-width="1920"
     inkscape:window-height="1001"
     id="namedview6"
     showgrid="false"
     inkscape:zoom="9.2984292"
     inkscape:cx="32.020123"
     inkscape:cy="6.112585"
     inkscape:window-x="-9"
     inkscape:window-y="-9"
     inkscape:window-maximized="1"
     inkscape:current-layer="svg4"
     fit-margin-top="0"
     fit-margin-left="0"
     fit-margin-right="0"
     fit-margin-bottom="0" />
  <path
     d="m 131.96788,3.6670068 c 5.16258,0.04 10.32672,0.098 15.64616,0.137 13.92531,0.118 134.71637,0.391 147.86046,-0.41 7.72124,-0.5102651 2.32052,-1.3013302 -2.66051,-1.273 l -0.76882,-0.038023 c 0.78278,-0.352 -1.89012,-0.5489771 -5.01966,-0.6659771 2.50363,0 5.16257,0 7.66621,0.02 2.76259,0.049715 4.16183,-1.33056908 0,-1.37 -61.17752,-0.157 -208.29733,-0.44329392 -269.317985,-0.03229392 -4.325276,-0.07081411 -3.837908,0.65326121 -2.36315,0.90637668 5.374216,0.12364204 -3.436593,-0.16455162 -1.477615,0.33605024 0.3369,0.086092 0.872629,0.1505285 0.05533,0.2200399 -2.245131,0.1909489 -7.14112,-0.050061 -7.747213,0.3375561 0.162823,0.4529492 5.068092,0.3437666 8.085606,0.4493023 0.366755,0.015535 -3.440169,-0.060325 -3.977201,0.1630546 -0.370264,0.1540125 0.212779,0.1857463 0.712146,0.2571395 0.866464,0.1238762 1.253961,0.2073677 2.350128,0.2176103 0.277367,0.00259 -0.379454,0.1860218 -0.09422,0.2177495 2.291848,0.1395185 4.628755,0.031313 6.877465,0.2347617 -1.744802,0.1390914 -6.685152,-0.1137909 -7.4426,0.086293 -1.570698,0.4149089 3.183225,0.552853 7.722401,0.5393599 34.578737,-0.118 69.314342,-0.235 103.893071,-0.333 z"
     id="path2"
     style="fill:#c85de9;fill-opacity:1;stroke-width:1.25247538"
     inkscape:connector-curvature="0"
     sodipodi:nodetypes="ccccccccccssccsssccscc" />
</svg>
