<?xml version="1.0" encoding="UTF-8" standalone="no"?>
<!-- Created with Inkscape (http://www.inkscape.org/) -->

<svg
   xmlns:dc="http://purl.org/dc/elements/1.1/"
   xmlns:cc="http://creativecommons.org/ns#"
   xmlns:rdf="http://www.w3.org/1999/02/22-rdf-syntax-ns#"
   xmlns:svg="http://www.w3.org/2000/svg"
   xmlns="http://www.w3.org/2000/svg"
   xmlns:sodipodi="http://sodipodi.sourceforge.net/DTD/sodipodi-0.dtd"
   xmlns:inkscape="http://www.inkscape.org/namespaces/inkscape"
   version="1.1"
   id="svg6243"
   xml:space="preserve"
   width="135.50023"
   height="135.50023"
   viewBox="0 0 135.50023 135.50024"
   sodipodi:docname="office_round.svg"
   inkscape:version="0.92.4 (5da689c313, 2019-01-14)"><metadata
     id="metadata6249"><rdf:RDF><cc:Work
         rdf:about=""><dc:format>image/svg+xml</dc:format><dc:type
           rdf:resource="http://purl.org/dc/dcmitype/StillImage" /><dc:title /></cc:Work></rdf:RDF></metadata><defs
     id="defs6247"><clipPath
       clipPathUnits="userSpaceOnUse"
       id="clipPath8303"><path
         d="m 606.5,3199.27 -23.832,0.04 c 36.375,0.87 65.789,29.95 67.152,66.23 l -0.066,-23.75 c 0.316,-15.66 -14.543,-42.52 -43.254,-42.52 m -185.078,0.31 -23.637,0.04 c -0.195,0 -0.398,0 -0.597,0 -26.614,0 -44.333,23.33 -44.125,45.85 l 0.191,17.11 c 0.004,0.52 0.062,1.02 0.172,1.52 2.234,-35.75 31.75,-64.13 67.996,-64.52 m 228.516,105.72 0.085,45.59 c 0.028,-0.24 0.043,-0.48 0.047,-0.72 l -0.132,-44.87"
         id="path8301"
         inkscape:connector-curvature="0" /></clipPath></defs><sodipodi:namedview
     pagecolor="#ffffff"
     bordercolor="#666666"
     borderopacity="1"
     objecttolerance="10"
     gridtolerance="10"
     guidetolerance="10"
     inkscape:pageopacity="0"
     inkscape:pageshadow="2"
     inkscape:window-width="1920"
     inkscape:window-height="1001"
     id="namedview6245"
     showgrid="false"
     fit-margin-top="0"
     fit-margin-left="0"
     fit-margin-right="0"
     fit-margin-bottom="0"
     inkscape:zoom="2.8929841"
     inkscape:cx="-81.172515"
     inkscape:cy="57.214096"
     inkscape:window-x="-9"
     inkscape:window-y="-9"
     inkscape:window-maximized="1"
     inkscape:current-layer="layer1"
     showguides="false" /><g
     inkscape:groupmode="layer"
     id="layer1"
     inkscape:label="fond"
     style="display:inline"><g
       id="g6253"
       transform="matrix(0.13333333,0,0,-0.13333333,-802.66788,267.63224)"
       style="fill:#e7eefc;fill-opacity:1"><circle
         style="opacity:1;fill:#e7eefc;fill-opacity:1;stroke:none;stroke-width:0.79674804;stroke-miterlimit:4;stroke-dasharray:none;stroke-opacity:1"
         id="path1049"
         cx="6528.1353"
         cy="-1496.5236"
         r="508.12585"
         transform="scale(1,-1)" /></g></g><g
     id="g6251"
     inkscape:groupmode="layer"
     inkscape:label="bureau"
     transform="matrix(1.3333333,0,0,-1.3333333,-822.71044,267.28658)"
     style="display:inline"><path
       d="m 699.84087,138.70376 h -69.75125 v 2.26061 h 69.75125 v -2.26061"
       style="display:inline;fill:#dddedf;fill-opacity:1;fill-rule:nonzero;stroke:none;stroke-width:0.06896096"
       id="path6695"
       inkscape:connector-curvature="0" /><path
       d="m 637.69395,113.84629 h -4.35834 v 24.85747 h 4.35834 v -24.85747"
       style="display:inline;fill:#b3b3b3;fill-opacity:1;fill-rule:nonzero;stroke:none;stroke-width:0.06896096"
       id="path6697"
       inkscape:connector-curvature="0" /><path
       d="m 698.22581,113.84629 h -4.35833 v 24.85747 h 4.35833 v -24.85747"
       style="display:inline;fill:#b3b3b3;fill-opacity:1;fill-rule:nonzero;stroke:none;stroke-width:0.06896096"
       id="path6699"
       inkscape:connector-curvature="0" /><path
       d="m 699.84087,138.70376 h -69.75125 v 1.1311 h 69.75125 v -1.1311"
       style="display:inline;fill:#c9c9c9;fill-opacity:1;fill-rule:nonzero;stroke:none;stroke-width:0.06896096"
       id="path6701"
       inkscape:connector-curvature="0" /><path
       d="m 637.69395,138.70376 -4.35834,-2.2038 v 2.2038 z"
       style="display:inline;fill:#9e9e9e;fill-opacity:1;fill-rule:nonzero;stroke:none;stroke-width:0.06896096"
       id="path6703"
       inkscape:connector-curvature="0" /><path
       d="m 698.22581,138.70376 -4.35833,-2.60949 v 2.60949 z"
       style="display:inline;fill:#9e9e9e;fill-opacity:1;fill-rule:nonzero;stroke:none;stroke-width:0.06896096"
       id="path6705"
       inkscape:connector-curvature="0" /><path
       d="m 645.88927,114.40957 c 0,-0.79712 -0.72271,-1.44335 -1.613,-1.44335 -0.89166,0 -1.613,0.64623 -1.613,1.44335 0,0.79711 0.72134,1.44411 1.613,1.44411 0.89029,0 1.613,-0.647 1.613,-1.44411"
       style="display:inline;fill:#423b40;fill-opacity:1;fill-rule:nonzero;stroke:none;stroke-width:0.06896096"
       id="path6707"
       inkscape:connector-curvature="0" /><path
       d="m 659.19184,114.40957 c 0,-0.79712 -0.72203,-1.44335 -1.61231,-1.44335 -0.89029,0 -1.61162,0.64623 -1.61162,1.44335 0,0.79711 0.72133,1.44411 1.61162,1.44411 0.89028,0 1.61231,-0.647 1.61231,-1.44411"
       style="display:inline;fill:#423b40;fill-opacity:1;fill-rule:nonzero;stroke:none;stroke-width:0.06896096"
       id="path6709"
       inkscape:connector-curvature="0" /><path
       d="M 660.4021,114.57038 H 641.45369 V 135.5081 H 660.4021 V 114.57038"
       style="display:inline;fill:#cccccc;fill-opacity:1;fill-rule:nonzero;stroke:none;stroke-width:0.06896096"
       id="path6711"
       inkscape:connector-curvature="0" /><path
       d="m 660.4021,129.96778 h -18.94841 v 0.19185 h 18.94841 v -0.19185"
       style="display:inline;fill:#808080;fill-opacity:1;fill-rule:nonzero;stroke:none;stroke-width:0.06896096"
       id="path6713"
       inkscape:connector-curvature="0" /><path
       d="m 660.4021,124.46628 h -18.94841 v 0.19102 h 18.94841 v -0.19102"
       style="display:inline;fill:#808080;fill-opacity:1;fill-rule:nonzero;stroke:none;stroke-width:0.06896096"
       id="path6715"
       inkscape:connector-curvature="0" /><path
       d="m 660.4021,119.26993 h -18.94841 v 0.19186 h 18.94841 v -0.19186"
       style="display:inline;fill:#808080;fill-opacity:1;fill-rule:nonzero;stroke:none;stroke-width:0.06896096"
       id="path6717"
       inkscape:connector-curvature="0" /><path
       d="m 655.79344,132.4512 h -10.07175 v 0.61176 h 10.07175 v -0.61176"
       style="display:inline;fill:#a8a8a8;fill-opacity:1;fill-rule:nonzero;stroke:none;stroke-width:0.06896096"
       id="path6719"
       inkscape:connector-curvature="0" /><path
       d="m 655.79344,126.64393 h -10.07175 v 0.611 h 10.07175 v -0.611"
       style="display:inline;fill:#a8a8a8;fill-opacity:1;fill-rule:nonzero;stroke:none;stroke-width:0.06896096"
       id="path6721"
       inkscape:connector-curvature="0" /><path
       d="m 655.79344,121.14216 h -10.07175 v 0.6112 h 10.07175 v -0.6112"
       style="display:inline;fill:#a8a8a8;fill-opacity:1;fill-rule:nonzero;stroke:none;stroke-width:0.06896096"
       id="path6723"
       inkscape:connector-curvature="0" /><path
       d="m 655.79344,116.55756 h -10.07175 v 0.61182 h 10.07175 v -0.61182"
       style="display:inline;fill:#a8a8a8;fill-opacity:1;fill-rule:nonzero;stroke:none;stroke-width:0.06896096"
       id="path6725"
       inkscape:connector-curvature="0" /><path
       d="m 641.45369,132.75725 18.94841,2.75085 h -18.94841 z"
       style="display:inline;fill:#bcbcbc;fill-opacity:1;fill-rule:nonzero;stroke:none;stroke-width:0.06896096"
       id="path6727"
       inkscape:connector-curvature="0" /><path
       d="m 671.78113,144.59074 c -0.26141,-1.0672 -0.19931,-2.13478 -0.45886,-3.20236 2.43672,0 4.87344,0 7.30979,0 -0.26215,1.06758 -0.26773,2.13516 -0.52951,3.20236 -1.91464,0 -4.40752,0 -6.32142,0"
       style="display:inline;fill:#bbbbc1;fill-opacity:1;fill-rule:nonzero;stroke:none;stroke-width:0.03718483"
       id="path7051"
       inkscape:connector-curvature="0" /><path
       d="m 662.62474,145.83755 v -1.7648 c 0,-0.33949 0.27479,-0.61466 0.61466,-0.61466 h 23.47442 c 0.33949,0 0.61429,0.27517 0.61429,0.61466 v 1.7648 h -24.70337"
       style="display:inline;fill:#e9ecf3;fill-opacity:1;fill-rule:nonzero;stroke:none;stroke-width:0.03718483"
       id="path7053"
       inkscape:connector-curvature="0" /><path
       d="m 687.32811,145.83755 v 14.94458 c 0,0.33875 -0.2748,0.61578 -0.61429,0.61578 H 663.2394 c -0.33987,0 -0.61466,-0.27703 -0.61466,-0.61578 v -14.94458 h 24.70337"
       style="display:inline;fill:#485060;fill-opacity:1;fill-rule:nonzero;stroke:none;stroke-width:0.03718483"
       id="path7055"
       inkscape:connector-curvature="0" /><path
       d="m 663.54581,146.74114 v 13.57804 h 22.68088 v -13.57804 h -22.68088"
       style="display:inline;fill:#b8bece;fill-opacity:1;fill-rule:nonzero;stroke:none;stroke-width:0.03718483"
       id="path7057"
       inkscape:connector-curvature="0" /><path
       d="m 683.79555,146.74114 h -17.70668 v 11.57937 h 17.70668 v -11.57937"
       style="display:inline;fill:#f4f4f4;fill-opacity:1;fill-rule:nonzero;stroke:none;stroke-width:0.03718483"
       id="path7059"
       inkscape:connector-curvature="0" /><path
       d="m 683.79555,156.30731 h -17.70668 v 2.3854 h 17.70668 v -2.3854"
       style="display:inline;fill:#474f5e;fill-opacity:1;fill-rule:nonzero;stroke:none;stroke-width:0.03718483"
       id="path7061"
       inkscape:connector-curvature="0" /><path
       d="m 679.46278,157.05658 h -5.67367 v 0.60648 h 5.67367 v -0.60648"
       style="display:inline;fill:#eaeae5;fill-opacity:1;fill-rule:nonzero;stroke:none;stroke-width:0.03718483"
       id="path7063"
       inkscape:connector-curvature="0" /><path
       d="m 682.85961,157.05658 h -2.33707 v 0.60648 h 2.33707 v -0.60648"
       style="display:inline;fill:#eaeae5;fill-opacity:1;fill-rule:nonzero;stroke:none;stroke-width:0.03718483"
       id="path7065"
       inkscape:connector-curvature="0" /><path
       d="m 667.5707,157.05658 h -0.8891 v 0.88798 h 0.8891 v -0.88798"
       style="display:inline;fill:#eaeae5;fill-opacity:1;fill-rule:nonzero;stroke:none;stroke-width:0.03718483"
       id="path7067"
       inkscape:connector-curvature="0" /><path
       d="m 669.06626,157.05658 h -0.88797 v 0.88798 h 0.88797 v -0.88798"
       style="display:inline;fill:#eaeae5;fill-opacity:1;fill-rule:nonzero;stroke:none;stroke-width:0.03718483"
       id="path7069"
       inkscape:connector-curvature="0" /><path
       d="m 670.56259,157.05658 h -0.88836 v 0.88798 h 0.88836 v -0.88798"
       style="display:inline;fill:#eaeae5;fill-opacity:1;fill-rule:nonzero;stroke:none;stroke-width:0.03718483"
       id="path7071"
       inkscape:connector-curvature="0" /><path
       d="m 678.41788,154.76526 h -11.29192 v 0.42093 h 11.29192 v -0.42093"
       style="display:inline;fill:#e0e3ea;fill-opacity:1;fill-rule:nonzero;stroke:none;stroke-width:0.03718483"
       id="path7073"
       inkscape:connector-curvature="0" /><path
       d="m 676.22026,153.6419 h -9.0943 v 0.42168 h 9.0943 v -0.42168"
       style="display:inline;fill:#e0e3ea;fill-opacity:1;fill-rule:nonzero;stroke:none;stroke-width:0.03718483"
       id="path7075"
       inkscape:connector-curvature="0" /><path
       d="m 673.22799,152.52078 h -6.10203 v 0.42018 h 6.10203 v -0.42018"
       style="display:inline;fill:#e0e3ea;fill-opacity:1;fill-rule:nonzero;stroke:none;stroke-width:0.03718483"
       id="path7077"
       inkscape:connector-curvature="0" /><path
       d="m 676.82861,151.39742 h -9.70265 v 0.42243 h 9.70265 v -0.42243"
       style="display:inline;fill:#e0e3ea;fill-opacity:1;fill-rule:nonzero;stroke:none;stroke-width:0.03718483"
       id="path7079"
       inkscape:connector-curvature="0" /><path
       d="m 682.85961,147.7046 h -3.78765 v 7.48159 h 3.78765 v -7.48159"
       style="display:inline;fill:#e0e3ea;fill-opacity:1;fill-rule:nonzero;stroke:none;stroke-width:0.03718483"
       id="path7081"
       inkscape:connector-curvature="0" /><path
       d="m 679.08349,141.44527 h -8.2145 c -0.20861,0 -0.37706,-0.19856 -0.37706,-0.44398 v -0.16621 h 8.97085 v 0.16621 c 0,0.24542 -0.17069,0.44398 -0.37929,0.44398"
       style="display:inline;fill:#a1a4ad;fill-opacity:1;fill-rule:nonzero;stroke:none;stroke-width:0.03718483"
       id="path7083"
       inkscape:connector-curvature="0" /><path
       d="m 671.32227,141.44527 6.98443,2.01282 h -6.71001 z"
       style="display:inline;fill:#d4d4d6;fill-opacity:1;fill-rule:nonzero;stroke:none;stroke-width:0.03718483"
       id="path7085"
       inkscape:connector-curvature="0" /><path
       d="m 695.06343,141.09078 -1.80035,0.0344 -0.39952,4.13879 2.5724,-0.0493 -0.37253,-4.12394"
       style="display:inline;fill:#d8d0c7;fill-opacity:1;fill-rule:nonzero;stroke:none;stroke-width:0.01266255"
       id="path7167"
       inkscape:connector-curvature="0" /><path
       d="m 695.76937,144.84597 -3.18792,0.0607 0.009,0.47825 3.18804,-0.0606 -0.009,-0.4784"
       style="display:inline;fill:#e3e4e5;fill-opacity:1;fill-rule:nonzero;stroke:none;stroke-width:0.01266255"
       id="path7169"
       inkscape:connector-curvature="0" /><path
       d="m 695.31111,145.33288 -2.31826,0.0444 0.007,0.34811 2.31852,-0.0445 -0.007,-0.34806"
       style="display:inline;fill:#e3e4e5;fill-opacity:1;fill-rule:nonzero;stroke:none;stroke-width:0.01266255"
       id="path7171"
       inkscape:connector-curvature="0" /><path
       d="m 695.25552,142.4206 -2.17327,0.0411 -0.176,1.61259 2.50706,-0.0477 -0.15779,-1.60602"
       style="display:inline;fill:#803828;fill-opacity:1;fill-rule:nonzero;stroke:none;stroke-width:0.01266255"
       id="path7173"
       inkscape:connector-curvature="0" /><path
       d="m 695.41331,144.02662 -2.33106,-1.56487 2.17327,-0.0411 z"
       style="display:inline;fill:#682b21;fill-opacity:1;fill-rule:nonzero;stroke:none;stroke-width:0.01266255"
       id="path7175"
       inkscape:connector-curvature="0" /><path
       d="m 656.50299,149.44508 c 0.0587,0.17078 -0.037,0.35461 -0.21466,0.40928 l -0.13962,0.0436 c -0.17731,0.0561 -0.3697,-0.0374 -0.42934,-0.20612 l -1.80847,-5.21541 0.78231,-0.24607 1.80978,5.21467"
       style="display:inline;fill:#d8253b;fill-opacity:1;fill-rule:nonzero;stroke:none;stroke-width:0.03277393"
       id="path7179"
       inkscape:connector-curvature="0" /><path
       d="m 656.50299,149.44508 c 0.0587,0.17078 -0.037,0.35461 -0.21466,0.40928 l -0.13962,0.0436 c -0.17731,0.0561 -0.3697,-0.0374 -0.42934,-0.20612 l -0.0659,-0.19306 0.78297,-0.24516 0.0665,0.19141"
       style="display:inline;fill:#ffc23a;fill-opacity:1;fill-rule:nonzero;stroke:none;stroke-width:0.03277393"
       id="path7181"
       inkscape:connector-curvature="0" /><path
       d="m 653.91385,144.4752 -0.0665,-1.4551 0.84918,1.21264 z"
       style="display:inline;fill:#dddedf;fill-opacity:1;fill-rule:nonzero;stroke:none;stroke-width:0.03277393"
       id="path7183"
       inkscape:connector-curvature="0" /><path
       d="m 654.09476,143.3737 -0.22713,0.0924 -0.0203,-0.44603 z"
       style="display:inline;fill:#211007;fill-opacity:1;fill-rule:nonzero;stroke:none;stroke-width:0.03277393"
       id="path7185"
       inkscape:connector-curvature="0" /><path
       d="m 652.90802,142.96505 c -0.0269,-0.19933 0.12027,-0.37896 0.32774,-0.39996 l 0.16223,-0.0164 c 0.20779,-0.0213 0.39689,0.12431 0.42343,0.32415 l 0.80428,6.12682 -0.91342,0.0927 -0.80426,-6.12731"
       style="display:inline;fill:#ea5645;fill-opacity:1;fill-rule:nonzero;stroke:none;stroke-width:0.03277393"
       id="path7187"
       inkscape:connector-curvature="0" /><path
       d="m 652.90802,142.96505 c -0.0269,-0.19933 0.12027,-0.37896 0.32774,-0.39996 l 0.16223,-0.0164 c 0.20779,-0.0213 0.39689,0.12431 0.42343,0.32415 l 0.0295,0.22521 -0.91407,0.0924 -0.0288,-0.22544"
       style="display:inline;fill:#ffc23a;fill-opacity:1;fill-rule:nonzero;stroke:none;stroke-width:0.03277393"
       id="path7189"
       inkscape:connector-curvature="0" /><path
       d="m 654.6234,149.00095 -0.25727,1.61091 -0.65679,-1.52143 z"
       style="display:inline;fill:#dddedf;fill-opacity:1;fill-rule:nonzero;stroke:none;stroke-width:0.03277393"
       id="path7191"
       inkscape:connector-curvature="0" /><path
       d="m 654.17441,150.168 0.2707,-0.05 -0.079,0.49391 z"
       style="display:inline;fill:#211007;fill-opacity:1;fill-rule:nonzero;stroke:none;stroke-width:0.03277393"
       id="path7193"
       inkscape:connector-curvature="0" /><path
       d="m 651.54625,150.89299 c -0.0223,0.0935 -0.002,0.17757 0.0452,0.18884 0.0462,0.0114 0.10225,-0.0544 0.12486,-0.14823 0.022,-0.0937 0.002,-0.17757 -0.0449,-0.1891 -0.0475,-0.0114 -0.10388,0.0551 -0.1252,0.14849"
       style="display:inline;fill:#161819;fill-opacity:1;fill-rule:evenodd;stroke:none;stroke-width:0.03277393"
       id="path7195"
       inkscape:connector-curvature="0" /><path
       d="m 653.84437,142.33146 -0.32839,-0.0777 c -0.0302,-0.007 -0.061,0.0138 -0.0685,0.0462 l -0.2812,1.18422 c -0.008,0.0334 0.0101,0.0649 0.0397,0.0727 l 0.32905,0.077 c 0.0292,0.007 0.06,-0.0132 0.0685,-0.0455 l 0.28054,-1.1845 c 0.008,-0.0325 -0.01,-0.0653 -0.0396,-0.0725"
       style="display:inline;fill:#d8253b;fill-opacity:1;fill-rule:evenodd;stroke:none;stroke-width:0.03277393"
       id="path7197"
       inkscape:connector-curvature="0" /><path
       d="m 653.81979,143.00166 -0.58403,-0.13929 c -0.0528,-0.0124 -0.10291,0.005 -0.1111,0.039 l -1.4496,6.10147 c -0.0311,0.13251 -0.29366,1.80294 -0.17337,1.83148 l 0.28186,0.0665 c 0.10356,0.0253 0.62597,-1.53284 0.65744,-1.66482 l 1.46074,-6.15036 c 0.008,-0.0334 -0.0289,-0.0714 -0.0819,-0.084"
       style="display:inline;fill:#5ba53c;fill-opacity:1;fill-rule:evenodd;stroke:none;stroke-width:0.03277393"
       id="path7199"
       inkscape:connector-curvature="0" /><path
       d="m 652.92441,143.74637 -0.0298,0.12586 0.77609,0.18484 0.0305,-0.1266 -0.77674,-0.1841"
       style="display:inline;fill:#d8253b;fill-opacity:1;fill-rule:evenodd;stroke:none;stroke-width:0.03277393"
       id="path7201"
       inkscape:connector-curvature="0" /><path
       d="m 652.97652,143.52642 -0.0305,0.12547 0.7774,0.18488 0.0295,-0.12612 -0.77641,-0.18423"
       style="display:inline;fill:#d8253b;fill-opacity:1;fill-rule:evenodd;stroke:none;stroke-width:0.03277393"
       id="path7203"
       inkscape:connector-curvature="0" /><path
       d="m 655.6961,152.55962 c -0.33004,-1.29753 0.75412,-1.26806 -0.28677,-2.41092 -0.47031,0.64535 -0.1937,1.82099 0.28677,2.41092"
       style="display:inline;fill:#e2e2e2;fill-opacity:1;fill-rule:evenodd;stroke:none;stroke-width:0.03277393"
       id="path7205"
       inkscape:connector-curvature="0" /><path
       d="m 655.08224,145.82254 c -0.0924,-0.77904 -0.24777,-1.40134 -0.3474,-1.38932 -0.098,0.0122 -0.10357,0.65291 -0.0105,1.43192 l 0.41393,3.48095 0.3579,-0.043 -0.41394,-3.48056"
       style="display:inline;fill:#5ba53c;fill-opacity:1;fill-rule:evenodd;stroke:none;stroke-width:0.03277393"
       id="path7207"
       inkscape:connector-curvature="0" /><path
       d="m 655.13828,149.34609 0.3579,-0.043 0.13011,1.09304 -0.35789,0.0426 -0.13012,-1.09269"
       style="display:inline;fill:#d8253b;fill-opacity:1;fill-rule:evenodd;stroke:none;stroke-width:0.03277393"
       id="path7209"
       inkscape:connector-curvature="0" /><path
       d="m 655.21203,140.93856 h -2.74843 l -0.49718,5.25728 h 3.7182 l -0.47259,-5.25728"
       style="display:inline;fill:#3ac2db;fill-opacity:1;fill-rule:nonzero;stroke:none;stroke-width:0.03277393"
       id="path7211"
       inkscape:connector-curvature="0" /><path
       d="m 655.48504,140.93856 h -3.21546 v 0.71258 h 3.21546 v -0.71258"
       style="display:inline;fill:#0088a0;fill-opacity:1;fill-rule:nonzero;stroke:none;stroke-width:0.03277393"
       id="path7213"
       inkscape:connector-curvature="0" /><path
       d="m 655.68462,146.19584 -3.28853,-4.5447 h 2.88017 z"
       style="display:inline;fill:#2fa0af;fill-opacity:1;fill-rule:nonzero;stroke:none;stroke-width:0.03277393"
       id="path7215"
       inkscape:connector-curvature="0" /><path
       d="m 638.78481,141.10719 h -4.20905 l -0.90427,5.139 h 6.1378 l -1.02448,-5.139"
       style="display:inline;fill:#803828;fill-opacity:1;fill-rule:nonzero;stroke:none;stroke-width:0.03020273"
       id="path7265"
       inkscape:connector-curvature="0" /><path
       d="m 639.37588,140.87433 h -5.38938 v 0.78617 h 5.38938 v -0.78617"
       style="display:inline;fill:#c1c1c1;fill-opacity:1;fill-rule:nonzero;stroke:none;stroke-width:0.03020273"
       id="path7267"
       inkscape:connector-curvature="0" /><path
       d="m 634.92883,146.24619 c 0,0 -0.47267,5.74304 -2.65573,7.04056 0,0 3.0689,-1.15797 3.36398,-7.04056 h -0.70825"
       style="display:inline;fill:#859e19;fill-opacity:1;fill-rule:nonzero;stroke:none;stroke-width:0.03020273"
       id="path7269"
       inkscape:connector-curvature="0" /><path
       d="m 637.73314,146.24619 c 0,0 0.47208,5.74304 2.65483,7.04056 0,0 -3.068,-1.15797 -3.36368,-7.04056 h 0.70885"
       style="display:inline;fill:#859e19;fill-opacity:1;fill-rule:nonzero;stroke:none;stroke-width:0.03020273"
       id="path7271"
       inkscape:connector-curvature="0" /><path
       d="m 635.84397,146.24619 c 0,0 0.47297,5.74304 2.65663,7.04056 0,0 -3.06919,-1.15797 -3.36458,-7.04056 h 0.70795"
       style="display:inline;fill:#bcd335;fill-opacity:1;fill-rule:nonzero;stroke:none;stroke-width:0.03020273"
       id="path7273"
       inkscape:connector-curvature="0" /><path
       d="m 637.76124,146.24619 c 0,0 -0.47146,5.74304 -2.65452,7.04056 0,0 3.06799,-1.15797 3.36277,-7.04056 h -0.70825"
       style="display:inline;fill:#bcd335;fill-opacity:1;fill-rule:nonzero;stroke:none;stroke-width:0.03020273"
       id="path7275"
       inkscape:connector-curvature="0" /><path
       d="m 636.70142,146.24619 c 0,0 0.3413,4.15378 1.9206,5.09338 0,0 -2.2193,-0.83782 -2.43313,-5.09338 h 0.51253"
       style="display:inline;fill:#bcd335;fill-opacity:1;fill-rule:nonzero;stroke:none;stroke-width:0.03020273"
       id="path7277"
       inkscape:connector-curvature="0" /><path
       d="m 639.10405,146.24619 c 0,0 0.3413,4.15378 1.9209,5.09338 0,0 -2.21961,-0.83782 -2.43343,-5.09338 h 0.51253"
       style="display:inline;fill:#bcd335;fill-opacity:1;fill-rule:nonzero;stroke:none;stroke-width:0.03020273"
       id="path7279"
       inkscape:connector-curvature="0" /><path
       d="m 634.37612,146.24619 c 0,0 -0.34129,4.15378 -1.9224,5.09338 0,0 2.2202,-0.83782 2.43343,-5.09338 h -0.51103"
       style="display:inline;fill:#bcd335;fill-opacity:1;fill-rule:nonzero;stroke:none;stroke-width:0.03020273"
       id="path7281"
       inkscape:connector-curvature="0" /><path
       d="m 634.48002,141.65054 5.32927,4.59565 -0.91363,-4.58569 z"
       style="display:inline;fill:#752d29;fill-opacity:1;fill-rule:nonzero;stroke:none;stroke-width:0.03020273"
       id="path7283"
       inkscape:connector-curvature="0" /><path
       d="m 633.36274,163.96772 h 14.65578 v 18.99411 h -14.65578 z"
       style="display:inline;fill:#fafaf9;fill-opacity:1;fill-rule:nonzero;stroke:none;stroke-width:0.0155338"
       id="path8259"
       inkscape:connector-curvature="0" /><path
       d="m 648.01852,163.96772 c 0,0 -10e-4,0.0315 -0.002,0.0916 -10e-4,0.0614 -10e-4,0.15006 -0.002,0.26641 -10e-4,0.23564 -0.003,0.58205 -0.004,1.03237 -0.002,0.90283 -0.006,2.22119 -0.01,3.89168 -0.005,3.33822 -0.0107,8.08193 -0.0182,13.71184 l 0.0363,-0.0363 c -4.38137,-0.001 -9.37591,-0.002 -14.65413,-0.004 h -0.002 l 0.0405,0.0404 c -0.003,-7.05343 -0.005,-13.59907 -0.007,-18.99395 l -0.0334,0.0334 c 4.42277,-0.007 8.08243,-0.0132 10.63847,-0.0174 1.27901,-0.004 2.28141,-0.006 2.96598,-0.008 0.34128,-0.002 0.60287,-0.003 0.7812,-0.004 0.17708,-0.001 0.27013,-0.004 0.27013,-0.004 0,0 -0.0882,-0.002 -0.26299,-0.004 -0.17677,-0.001 -0.43634,-0.002 -0.77482,-0.004 -0.68302,-0.002 -1.68278,-0.005 -2.95858,-0.008 -2.56101,-0.004 -6.22789,-0.0101 -10.65939,-0.0174 h -0.0334 v 0.0334 c -0.002,5.3949 -0.004,11.94053 -0.007,18.99395 v 0.0405 h 0.0405 0.002 c 5.27821,-0.001 10.27276,-0.003 14.65413,-0.004 h 0.0363 v -0.0365 c -0.007,-5.63954 -0.0137,-10.39149 -0.0182,-13.73545 -0.004,-1.66694 -0.007,-2.98249 -0.01,-3.88345 -0.002,-0.44722 -0.003,-0.79113 -0.004,-1.02523 -10e-4,-0.11463 -10e-4,-0.20178 -0.002,-0.26236 -0.001,-0.0587 -0.002,-0.0875 -0.002,-0.0875"
       style="display:inline;fill:#17282f;fill-opacity:1;fill-rule:nonzero;stroke:none;stroke-width:0.0155338"
       id="path8261"
       inkscape:connector-curvature="0" /><path
       d="m 634.99118,179.25345 4.99389,-0.009 c 0.1626,-0.001 0.29463,0.1311 0.29494,0.29374 0.001,0.16263 -0.13124,0.29483 -0.29385,0.29499 l -4.99389,0.009 c -0.16255,10e-4 -0.29465,-0.13142 -0.29496,-0.29392 v 0 c -10e-4,-0.16263 0.13131,-0.29467 0.29387,-0.29498"
       style="display:inline;fill:#dadbd8;fill-opacity:1;fill-rule:nonzero;stroke:none;stroke-width:0.0155338"
       id="path8263"
       inkscape:connector-curvature="0" /><path
       d="m 634.9984,178.1145 4.99387,-0.009 c 0.16256,-0.001 0.29466,0.13127 0.29497,0.2939 v 0 c 10e-4,0.16265 -0.1313,0.29468 -0.29386,0.295 l -4.99389,0.009 c -0.16261,0 -0.29464,-0.1314 -0.29496,-0.2939 v 0 c -10e-4,-0.16263 0.13124,-0.29467 0.29387,-0.29499"
       style="display:inline;fill:#dadbd8;fill-opacity:1;fill-rule:nonzero;stroke:none;stroke-width:0.0155338"
       id="path8265"
       inkscape:connector-curvature="0" /><path
       d="m 635.00563,176.97542 4.99381,-0.009 c 0.16261,-0.001 0.29471,0.13125 0.29502,0.2939 v 0 c 0.001,0.16263 -0.13132,0.29467 -0.29392,0.29498 l -4.99389,0.009 c -0.16255,0.001 -0.29464,-0.13126 -0.2949,-0.29391 v 0 c -0.001,-0.16247 0.13125,-0.29466 0.29388,-0.29498"
       style="display:inline;fill:#dadbd8;fill-opacity:1;fill-rule:nonzero;stroke:none;stroke-width:0.0155338"
       id="path8267"
       inkscape:connector-curvature="0" /><path
       d="m 635.01278,175.83648 4.99388,-0.009 c 0.16261,-0.001 0.29466,0.13127 0.29495,0.29375 10e-4,0.16264 -0.13125,0.29483 -0.29387,0.29514 l -4.99387,0.009 c -0.16262,0.001 -0.29466,-0.13126 -0.29495,-0.2939 v 0 c -10e-4,-0.16265 0.1313,-0.29468 0.29386,-0.29499"
       style="display:inline;fill:#dadbd8;fill-opacity:1;fill-rule:nonzero;stroke:none;stroke-width:0.0155338"
       id="path8269"
       inkscape:connector-curvature="0" /><path
       d="m 635.02001,174.69755 4.99387,-0.009 c 0.16261,-0.001 0.29466,0.13126 0.29496,0.29374 v 0 c 10e-4,0.16264 -0.13131,0.29468 -0.29394,0.29499 l -4.99381,0.009 c -0.16261,0.001 -0.29466,-0.13125 -0.29495,-0.2939 v 0 c -10e-4,-0.16263 0.13125,-0.29467 0.29387,-0.29498"
       style="display:inline;fill:#dadbd8;fill-opacity:1;fill-rule:nonzero;stroke:none;stroke-width:0.0155338"
       id="path8271"
       inkscape:connector-curvature="0" /><path
       d="m 635.02722,173.5586 4.99382,-0.009 c 0.16262,-0.001 0.29466,0.13126 0.29495,0.2939 10e-4,0.16264 -0.13124,0.29467 -0.29386,0.29498 l -4.99387,0.009 c -0.16263,0.001 -0.29466,-0.13125 -0.29496,-0.29374 v 0 c -10e-4,-0.16248 0.13131,-0.29451 0.29392,-0.29482"
       style="display:inline;fill:#dadbd8;fill-opacity:1;fill-rule:nonzero;stroke:none;stroke-width:0.0155338"
       id="path8273"
       inkscape:connector-curvature="0" /><path
       d="m 635.03438,172.41951 4.99388,-0.009 c 0.16262,-10e-4 0.29466,0.13125 0.29496,0.29389 10e-4,0.16265 -0.13131,0.29468 -0.29393,0.29499 l -4.99381,0.009 c -0.16262,0.001 -0.29466,-0.13127 -0.29497,-0.29391 -10e-4,-0.16264 0.13125,-0.29467 0.29387,-0.29498"
       style="display:inline;fill:#dadbd8;fill-opacity:1;fill-rule:nonzero;stroke:none;stroke-width:0.0155338"
       id="path8275"
       inkscape:connector-curvature="0" /><path
       d="m 641.35258,173.55845 4.99388,-0.009 c 0.16264,-0.001 0.29467,0.13126 0.29499,0.2939 0.001,0.16263 -0.13126,0.29467 -0.29391,0.29498 l -4.99387,0.009 c -0.16263,10e-4 -0.29466,-0.13125 -0.29496,-0.29388 v 0 c -10e-4,-0.1625 0.13124,-0.29467 0.29387,-0.29499"
       style="display:inline;fill:#dadbd8;fill-opacity:1;fill-rule:nonzero;stroke:none;stroke-width:0.0155338"
       id="path8277"
       inkscape:connector-curvature="0" /><path
       d="m 641.3598,172.41951 4.99381,-0.009 c 0.16263,-10e-4 0.29468,0.13125 0.29499,0.29389 10e-4,0.16265 -0.13127,0.29468 -0.2939,0.29499 l -4.99388,0.009 c -0.16261,0.001 -0.29465,-0.13127 -0.29495,-0.29391 v 0 c -10e-4,-0.16264 0.1313,-0.29467 0.29393,-0.29498"
       style="display:inline;fill:#dadbd8;fill-opacity:1;fill-rule:nonzero;stroke:none;stroke-width:0.0155338"
       id="path8279"
       inkscape:connector-curvature="0" /><path
       d="m 641.36738,171.21828 4.99384,-0.009 c 0.16264,-0.001 0.29467,0.13125 0.29498,0.29389 10e-4,0.16264 -0.13125,0.29468 -0.2939,0.29498 l -4.99389,0.009 c -0.16256,0.001 -0.29466,-0.13126 -0.29496,-0.2939 v 0 c -10e-4,-0.16264 0.13132,-0.29468 0.29393,-0.29499"
       style="display:inline;fill:#dadbd8;fill-opacity:1;fill-rule:nonzero;stroke:none;stroke-width:0.0155338"
       id="path8281"
       inkscape:connector-curvature="0" /><path
       d="m 641.37496,170.01705 4.99387,-0.009 c 0.16265,-0.001 0.29467,0.13126 0.29498,0.2939 v 0 c 10e-4,0.16263 -0.13125,0.29468 -0.29389,0.29499 l -4.99392,0.009 c -0.16256,0.001 -0.29466,-0.13127 -0.29497,-0.2939 v 0 c -0.001,-0.16265 0.13131,-0.29467 0.29393,-0.29499"
       style="display:inline;fill:#dadbd8;fill-opacity:1;fill-rule:nonzero;stroke:none;stroke-width:0.0155338"
       id="path8283"
       inkscape:connector-curvature="0" /><path
       d="m 641.38255,168.81582 4.99389,-0.009 c 0.16249,-10e-4 0.29468,0.13126 0.29499,0.2939 10e-4,0.16265 -0.13141,0.29468 -0.2939,0.29499 l -4.99388,0.009 c -0.16262,0.001 -0.29466,-0.13126 -0.29497,-0.2939 v 0 c -10e-4,-0.16264 0.13125,-0.29468 0.29387,-0.29499"
       style="display:inline;fill:#dadbd8;fill-opacity:1;fill-rule:nonzero;stroke:none;stroke-width:0.0155338"
       id="path8285"
       inkscape:connector-curvature="0" /><path
       d="m 641.39014,167.61475 4.99391,-0.009 c 0.16248,-0.001 0.29468,0.13125 0.29483,0.29389 10e-4,0.16264 -0.13125,0.29468 -0.29389,0.29499 l -4.99377,0.009 c -0.16262,0.001 -0.29466,-0.13127 -0.29494,-0.2939 v 0 c -10e-4,-0.16248 0.13124,-0.29469 0.29386,-0.29484"
       style="display:inline;fill:#dadbd8;fill-opacity:1;fill-rule:nonzero;stroke:none;stroke-width:0.0155338"
       id="path8287"
       inkscape:connector-curvature="0" /><path
       d="m 641.39772,166.41352 4.99378,-0.009 c 0.16265,-0.001 0.29469,0.13127 0.295,0.2939 10e-4,0.16264 -0.13127,0.29468 -0.2939,0.29499 l -4.99379,0.009 c -0.16261,0.001 -0.29464,-0.13126 -0.29496,-0.29374 v 0 c -10e-4,-0.1625 0.13125,-0.29469 0.29387,-0.29484"
       style="display:inline;fill:#dadbd8;fill-opacity:1;fill-rule:nonzero;stroke:none;stroke-width:0.0155338"
       id="path8289"
       inkscape:connector-curvature="0" /><path
       d="m 634.96485,165.18014 11.35349,-0.0207 c 0.16249,-10e-4 0.29469,0.13126 0.29484,0.2939 10e-4,0.16265 -0.13126,0.29468 -0.2939,0.295 l -11.35335,0.0207 c -0.10892,0 -0.19739,-0.0879 -0.19757,-0.19681 l -10e-4,-0.19448 c 0,-0.1089 0.0879,-0.19745 0.19684,-0.19759"
       style="display:inline;fill:#dadbd8;fill-opacity:1;fill-rule:nonzero;stroke:none;stroke-width:0.0155338"
       id="path8291"
       inkscape:connector-curvature="0" /><path
       d="m 634.98214,180.73692 3.30439,-0.006 c 0.16262,-0.001 0.29467,0.13127 0.29497,0.2939 v 0 c 10e-4,0.16249 -0.13131,0.29468 -0.29394,0.29484 l -3.30439,0.006 c -0.16255,0 -0.29466,-0.13142 -0.29496,-0.29406 v 0 c -10e-4,-0.16263 0.1313,-0.29467 0.29393,-0.29498"
       style="display:inline;fill:#dadbd8;fill-opacity:1;fill-rule:nonzero;stroke:none;stroke-width:0.0155338"
       id="path8293"
       inkscape:connector-curvature="0" /><path
       d="m 638.70102,167.04513 -2.46689,0.005 c -0.59095,0.001 -1.06915,0.48109 -1.06814,1.07199 l 0.004,2.05249 c 10e-4,0.59106 0.48101,1.06918 1.07203,1.06825 l 2.4669,-0.004 c 0.59095,-10e-4 1.06916,-0.48107 1.06812,-1.07213 l -0.004,-2.05248 c -0.001,-0.59091 -0.48101,-1.06919 -1.07203,-1.06811"
       style="display:inline;fill:#f2575d;fill-opacity:1;fill-rule:nonzero;stroke:none;stroke-width:0.0155338"
       id="path8295"
       inkscape:connector-curvature="0" /><g
       style="display:inline"
       transform="matrix(0.0155338,0,0,0.0155338,629.67807,117.34801)"
       id="g8297"><g
         id="g8299"
         clip-path="url(#clipPath8303)"><path
           d="M 352.855,3199.27 H 650.07 v 151.621 H 352.855 Z"
           style="fill:#a4a6a5;fill-opacity:1;fill-rule:nonzero;stroke:none"
           id="path8305"
           inkscape:connector-curvature="0" /></g></g><path
       d="m 638.72912,167.04543 -2.50476,0.004 c -0.56304,0.006 -1.02154,0.4469 -1.05624,1.00224 0.006,0.0269 0.0217,0.0508 0.0446,0.0671 l 1.30029,1.07633 c 0.0626,0.053 0.13755,0.0986 0.2421,0.0986 0.0876,0 0.196,-0.032 0.33545,-0.11853 v 0 c 10e-4,-0.001 10e-4,-0.001 10e-4,-0.001 0,0 -10e-4,0 -10e-4,0.001 l 0.71248,-0.34485 c 0.0155,-0.007 0.0322,-0.011 0.0486,-0.011 0.0298,0 0.0592,0.0118 0.0809,0.0342 l 1.00702,1.04045 c 0.0623,0.0586 0.14146,0.0875 0.22033,0.0875 0.0913,0 0.18209,-0.0385 0.24589,-0.11433 l 0.34342,-0.40776 c 0.0143,-0.0168 0.0231,-0.0374 0.0257,-0.0592 l -10e-4,-0.70819 -0.002,-0.61762 c -0.0212,-0.56357 -0.47808,-1.01529 -1.04313,-1.0288 m -1.63808,2.12969 -10e-4,0.001 v 0 0 c -0.006,0.004 -0.008,0.005 -0.008,0.005 0,0 0.002,-0.001 0.005,-0.003 10e-4,-0.001 0.003,-0.002 0.004,-0.002"
       style="display:inline;fill:#cc4341;fill-opacity:1;fill-rule:nonzero;stroke:none;stroke-width:0.0155338"
       id="path8307"
       inkscape:connector-curvature="0" /><path
       d="m 636.87446,169.66195 c -0.239,0 -0.44095,0.18454 -0.45873,0.42671 -0.0186,0.25367 0.17192,0.47441 0.42555,0.49305 0.0115,0.001 0.0229,0.001 0.0342,0.001 0.23897,0 0.44096,-0.18469 0.45874,-0.42686 0.0186,-0.25368 -0.17196,-0.47425 -0.42561,-0.49289 -0.0115,-0.001 -0.0229,-0.001 -0.0342,-0.001"
       style="display:inline;fill:#cc4341;fill-opacity:1;fill-rule:nonzero;stroke:none;stroke-width:0.0155338"
       id="path8309"
       inkscape:connector-curvature="0" /><path
       d="m 642.75139,177.55623 c 0.0103,-0.63969 0.53654,-1.15168 1.17324,-1.14143 0.6367,0.0102 1.14636,0.53903 1.13615,1.17855 -0.0103,0.63969 -0.53659,1.15168 -1.17329,1.14142 -0.63663,-0.0103 -1.14635,-0.53901 -1.1361,-1.17854 z m 3.5696,0.0576 c 0.0214,-1.33777 -1.04449,-2.44362 -2.37615,-2.4652 -1.3316,-0.0214 -2.43237,1.04946 -2.45374,2.38723 -0.0214,1.33777 1.04459,2.44362 2.37618,2.46505 1.33161,0.0214 2.43242,-1.04946 2.45371,-2.38708"
       style="display:inline;fill:#dadbd8;fill-opacity:1;fill-rule:nonzero;stroke:none;stroke-width:0.0155338"
       id="path8311"
       inkscape:connector-curvature="0" /><path
       d="m 646.32099,177.61385 c 0.0214,-1.33777 -1.04449,-2.44362 -2.37615,-2.4652 l -0.0202,1.26615 c 0.6367,0.0102 1.14636,0.53903 1.13615,1.17871 -0.0103,0.63953 -0.53659,1.15152 -1.17329,1.14126 l -0.0202,1.26616 c 1.33161,0.0214 2.43242,-1.04946 2.45371,-2.38708"
       style="display:inline;fill:#33535f;fill-opacity:1;fill-rule:nonzero;stroke:none;stroke-width:0.0155338"
       id="path8313"
       inkscape:connector-curvature="0" /><path
       d="m 644.16171,174.95401 c -1.55788,-0.0252 -2.80063,1.18382 -2.8257,2.74885 l 1.47443,0.0239 c 0.012,-0.74843 0.58137,-1.21956 1.3262,-1.20745 l 0.0251,-1.56533"
       style="display:inline;fill:#f2575d;fill-opacity:1;fill-rule:nonzero;stroke:none;stroke-width:0.0155338"
       id="path8315"
       inkscape:connector-curvature="0" /><path
       d="m 679.70867,167.6193 h 22.90295 v 16.38115 h -22.90295 z"
       style="display:inline;fill:#ffffff;fill-opacity:1;fill-rule:nonzero;stroke:none;stroke-width:0.02278312"
       id="path8209"
       inkscape:connector-curvature="0" /><path
       d="m 702.61188,184.00017 c 0,0 -0.0387,-0.002 -0.11163,-0.003 -0.0756,-0.001 -0.18295,-0.002 -0.3233,-0.003 -0.28683,-0.001 -0.70627,-0.004 -1.25125,-0.006 -1.09381,-0.003 -2.68818,-0.008 -4.7054,-0.0144 -4.03192,-0.007 -9.75002,-0.016 -16.51138,-0.0269 l 0.054,0.054 c 10e-4,-4.94758 0.003,-10.5135 0.005,-16.37924 v -0.002 l -0.0592,0.0595 c 8.5742,-0.004 16.50546,-0.008 22.90273,-0.0112 l -0.0481,-0.0483 c 0.0105,4.96604 0.0191,9.05492 0.0253,11.90623 0.005,1.42599 0.009,2.54192 0.0123,3.30468 0.002,0.37912 0.004,0.66983 0.005,0.86941 10e-4,0.19707 0.005,0.30097 0.005,0.30097 0,0 0.003,-0.0971 0.005,-0.29072 10e-4,-0.19752 0.003,-0.48527 0.005,-0.86028 0.003,-0.76051 0.007,-1.87254 0.0123,-3.29399 0.006,-2.85837 0.0148,-6.95773 0.0253,-11.9363 v -0.0481 h -0.0483 c -6.39727,-0.003 -14.32853,-0.007 -22.90273,-0.0112 h -0.0592 v 0.0592 0.002 c 0.002,5.86574 0.004,11.43165 0.005,16.37923 v 0.054 h 0.0538 c 6.77569,-0.0109 12.5061,-0.02 16.54646,-0.0267 2.01197,-0.006 3.60246,-0.0109 4.69332,-0.0144 0.54019,-0.003 0.95599,-0.005 1.24055,-0.007 0.1376,-0.001 0.24308,-0.002 0.31714,-0.003 0.0709,-0.001 0.10548,-0.003 0.10548,-0.003"
       style="display:inline;fill:#17282f;fill-opacity:1;fill-rule:nonzero;stroke:#000000;stroke-width:0.02275712;stroke-miterlimit:4;stroke-dasharray:none;stroke-opacity:1"
       id="path8211"
       inkscape:connector-curvature="0" /><path
       d="m 686.44836,181.47349 h -4.09891 c -0.20163,0 -0.36521,-0.16358 -0.36521,-0.36522 v 0 c 0,-0.20163 0.16358,-0.36521 0.36521,-0.36521 h 4.09891 c 0.20164,0 0.36522,0.16358 0.36522,0.36521 v 0 c 0,0.20164 -0.16358,0.36522 -0.36522,0.36522"
       style="display:inline;fill:#dadbd8;fill-opacity:1;fill-rule:nonzero;stroke:none;stroke-width:0.02278312"
       id="path8213"
       inkscape:connector-curvature="0" /><path
       d="m 684.19443,170.03386 h -1.84498 c -0.20163,0 -0.36521,-0.16359 -0.36521,-0.36522 0,-0.20163 0.16358,-0.36521 0.36521,-0.36521 h 1.84498 c 0.20164,0 0.36522,0.16358 0.36522,0.36521 v 0 c 0,0.20163 -0.16358,0.36522 -0.36522,0.36522"
       style="display:inline;fill:#dadbd8;fill-opacity:1;fill-rule:nonzero;stroke:none;stroke-width:0.02278312"
       id="path8215"
       inkscape:connector-curvature="0" /><path
       d="m 688.13842,170.03386 h -1.84475 c -0.20186,0 -0.36522,-0.16359 -0.36522,-0.36522 0,-0.20163 0.16336,-0.36521 0.36522,-0.36521 h 1.84475 c 0.20163,0 0.36521,0.16358 0.36521,0.36521 v 0 c 0,0.20163 -0.16358,0.36522 -0.36521,0.36522"
       style="display:inline;fill:#dadbd8;fill-opacity:1;fill-rule:nonzero;stroke:none;stroke-width:0.02278312"
       id="path8217"
       inkscape:connector-curvature="0" /><path
       d="m 692.08241,170.03386 h -1.84476 c -0.20163,0 -0.36521,-0.16359 -0.36521,-0.36522 v 0 c 0,-0.20163 0.16358,-0.36521 0.36521,-0.36521 h 1.84476 c 0.20185,0 0.36521,0.16358 0.36521,0.36521 v 0 c 0,0.20163 -0.16336,0.36522 -0.36521,0.36522"
       style="display:inline;fill:#dadbd8;fill-opacity:1;fill-rule:nonzero;stroke:none;stroke-width:0.02278312"
       id="path8219"
       inkscape:connector-curvature="0" /><path
       d="m 696.02661,170.03386 h -1.84497 c -0.20163,0 -0.36521,-0.16359 -0.36521,-0.36522 0,-0.20163 0.16358,-0.36521 0.36521,-0.36521 h 1.84497 c 0.20164,0 0.36522,0.16358 0.36522,0.36521 v 0 c 0,0.20163 -0.16358,0.36522 -0.36522,0.36522"
       style="display:inline;fill:#dadbd8;fill-opacity:1;fill-rule:nonzero;stroke:none;stroke-width:0.02278312"
       id="path8221"
       inkscape:connector-curvature="0" /><path
       d="m 699.9706,170.03386 h -1.84475 c -0.20185,0 -0.36522,-0.16359 -0.36522,-0.36522 0,-0.20163 0.16337,-0.36521 0.36522,-0.36521 h 1.84475 c 0.20163,0 0.36521,0.16358 0.36521,0.36521 v 0 c 0,0.20163 -0.16358,0.36522 -0.36521,0.36522"
       style="display:inline;fill:#dadbd8;fill-opacity:1;fill-rule:nonzero;stroke:none;stroke-width:0.02278312"
       id="path8223"
       inkscape:connector-curvature="0" /><path
       d="m 696.02661,170.03386 h -1.84497 c -0.20163,0 -0.36521,-0.16359 -0.36521,-0.36522 0,-0.20163 0.16358,-0.36521 0.36521,-0.36521 h 1.84497 c 0.20164,0 0.36522,0.16358 0.36522,0.36521 v 0 c 0,0.20163 -0.16358,0.36522 -0.36522,0.36522"
       style="display:inline;fill:#dadbd8;fill-opacity:1;fill-rule:nonzero;stroke:none;stroke-width:0.02278312"
       id="path8225"
       inkscape:connector-curvature="0" /><path
       d="m 683.50456,171.01878 h -0.96122 v 8.19211 h 0.96122 v -8.19211"
       style="display:inline;fill:#f2575d;fill-opacity:1;fill-rule:nonzero;stroke:none;stroke-width:0.02278312"
       id="path8227"
       inkscape:connector-curvature="0" /><path
       d="m 684.39902,171.01878 h 0.96126 v 5.40972 h -0.96126 z"
       style="display:inline;fill:#f2575d;fill-opacity:1;fill-rule:nonzero;stroke:none;stroke-width:0.02278312"
       id="path8229"
       inkscape:connector-curvature="0" /><path
       d="m 687.21593,170.97731 h -0.96122 v 7.2154 h 0.96122 v -7.2154"
       style="display:inline;fill:#f2575d;fill-opacity:1;fill-rule:nonzero;stroke:none;stroke-width:0.02278312"
       id="path8231"
       inkscape:connector-curvature="0" /><path
       d="m 688.11062,171.01878 h 0.96125 v 7.87574 h -0.96125 z"
       style="display:inline;fill:#f2575d;fill-opacity:1;fill-rule:nonzero;stroke:none;stroke-width:0.02278312"
       id="path8233"
       inkscape:connector-curvature="0" /><path
       d="m 690.92752,171.01878 h -0.96122 v 5.24329 h 0.96122 v -5.24329"
       style="display:inline;fill:#f2575d;fill-opacity:1;fill-rule:nonzero;stroke:none;stroke-width:0.02278312"
       id="path8235"
       inkscape:connector-curvature="0" /><path
       d="m 691.82199,171.01878 h 0.96116 v 4.21495 h -0.96116 z"
       style="display:inline;fill:#f2575d;fill-opacity:1;fill-rule:nonzero;stroke:none;stroke-width:0.02278312"
       id="path8237"
       inkscape:connector-curvature="0" /><path
       d="m 694.63913,171.01878 h -0.96122 v 7.35142 h 0.96122 v -7.35142"
       style="display:inline;fill:#f2575d;fill-opacity:1;fill-rule:nonzero;stroke:none;stroke-width:0.02278312"
       id="path8239"
       inkscape:connector-curvature="0" /><path
       d="m 695.53359,171.01878 h 0.96117 v 6.02595 h -0.96117 z"
       style="display:inline;fill:#f2575d;fill-opacity:1;fill-rule:nonzero;stroke:none;stroke-width:0.02278312"
       id="path8241"
       inkscape:connector-curvature="0" /><path
       d="m 698.35073,171.01878 h -0.96122 v 7.08509 h 0.96122 v -7.08509"
       style="display:inline;fill:#f2575d;fill-opacity:1;fill-rule:nonzero;stroke:none;stroke-width:0.02278312"
       id="path8243"
       inkscape:connector-curvature="0" /><path
       d="m 699.24519,171.01878 h 0.96116 v 4.82688 h -0.96116 z"
       style="display:inline;fill:#f2575d;fill-opacity:1;fill-rule:nonzero;stroke:none;stroke-width:0.02278312"
       id="path8245"
       inkscape:connector-curvature="0" /><path
       d="m 684.39902,171.01878 h 0.96126 v 5.40972 h -0.96126 z"
       style="display:inline;fill:#f57e87;fill-opacity:1;fill-rule:nonzero;stroke:none;stroke-width:0.02278312"
       id="path8247"
       inkscape:connector-curvature="0" /><path
       d="m 688.11062,171.01878 h 0.96125 v 7.87574 h -0.96125 z"
       style="display:inline;fill:#f57e87;fill-opacity:1;fill-rule:nonzero;stroke:none;stroke-width:0.02278312"
       id="path8249"
       inkscape:connector-curvature="0" /><path
       d="m 691.82199,171.01878 h 0.96116 v 4.21495 h -0.96116 z"
       style="display:inline;fill:#f57e87;fill-opacity:1;fill-rule:nonzero;stroke:none;stroke-width:0.02278312"
       id="path8251"
       inkscape:connector-curvature="0" /><path
       d="m 695.53359,171.01878 h 0.96117 v 6.02595 h -0.96117 z"
       style="display:inline;fill:#f57e87;fill-opacity:1;fill-rule:nonzero;stroke:none;stroke-width:0.02278312"
       id="path8253"
       inkscape:connector-curvature="0" /><path
       d="m 699.24519,171.01878 h 0.96116 v 4.82688 h -0.96116 z"
       style="display:inline;fill:#f57e87;fill-opacity:1;fill-rule:nonzero;stroke:none;stroke-width:0.02278312"
       id="path8255"
       inkscape:connector-curvature="0" /><path
       d="m 681.55114,178.89467 c 0,0 10e-4,-0.0125 0.002,-0.0369 10e-4,-0.0264 10e-4,-0.0622 0.002,-0.1089 10e-4,-0.0984 0.002,-0.24036 0.004,-0.42513 0.001,-0.3741 0.004,-0.91907 0.006,-1.611 0.002,-1.38908 0.006,-3.36779 0.01,-5.73541 l -0.0232,0.0271 c 1.86503,10e-4 4.05039,0.002 6.37677,0.004 3.63778,-0.003 6.93039,-0.007 9.31578,-0.009 1.19065,-0.004 2.15483,-0.007 2.82307,-0.01 0.33218,-0.002 0.5903,-0.004 0.76756,-0.006 0.0866,-0.001 0.15287,-0.002 0.19958,-0.003 0.0451,-0.001 0.0681,-0.003 0.0681,-0.003 0,0 -0.023,-0.002 -0.0681,-0.003 -0.0467,-0.001 -0.113,-0.002 -0.19958,-0.003 -0.17726,-0.001 -0.43538,-0.003 -0.76756,-0.006 -0.66824,-0.002 -1.63242,-0.006 -2.82307,-0.01 -2.38539,-0.002 -5.678,-0.005 -9.31578,-0.009 -2.32638,0.001 -4.51174,0.003 -6.37677,0.004 h -0.0235 v 0.0273 c 0.004,2.36762 0.007,4.34633 0.01,5.73541 0.003,0.69192 0.005,1.2369 0.006,1.611 0.002,0.18476 0.003,0.32671 0.004,0.42513 10e-4,0.0467 10e-4,0.0825 0.002,0.1089 10e-4,0.0244 0.002,0.0369 0.002,0.0369"
       style="display:inline;fill:#17282f;fill-opacity:1;fill-rule:nonzero;stroke:none;stroke-width:0.02278312"
       id="path8257"
       inkscape:connector-curvature="0" /></g></svg>