<?xml version="1.0" encoding="UTF-8" standalone="no"?>
<!-- Created with Inkscape (http://www.inkscape.org/) -->

<svg
   xmlns:dc="http://purl.org/dc/elements/1.1/"
   xmlns:cc="http://creativecommons.org/ns#"
   xmlns:rdf="http://www.w3.org/1999/02/22-rdf-syntax-ns#"
   xmlns:svg="http://www.w3.org/2000/svg"
   xmlns="http://www.w3.org/2000/svg"
   xmlns:sodipodi="http://sodipodi.sourceforge.net/DTD/sodipodi-0.dtd"
   xmlns:inkscape="http://www.inkscape.org/namespaces/inkscape"
   version="1.1"
   id="svg6243"
   xml:space="preserve"
   width="135.50023"
   height="135.50023"
   viewBox="0 0 135.50023 135.50024"
   sodipodi:docname="office_round.svg"
   inkscape:version="0.92.4 (5da689c313, 2019-01-14)"><metadata
     id="metadata6249"><rdf:RDF><cc:Work
         rdf:about=""><dc:format>image/svg+xml</dc:format><dc:type
           rdf:resource="http://purl.org/dc/dcmitype/StillImage" /><dc:title></dc:title></cc:Work></rdf:RDF></metadata><defs
     id="defs6247"><clipPath
       clipPathUnits="userSpaceOnUse"
       id="clipPath8303"><path
         d="m 606.5,3199.27 -23.832,0.04 c 36.375,0.87 65.789,29.95 67.152,66.23 l -0.066,-23.75 c 0.316,-15.66 -14.543,-42.52 -43.254,-42.52 m -185.078,0.31 -23.637,0.04 c -0.195,0 -0.398,0 -0.597,0 -26.614,0 -44.333,23.33 -44.125,45.85 l 0.191,17.11 c 0.004,0.52 0.062,1.02 0.172,1.52 2.234,-35.75 31.75,-64.13 67.996,-64.52 m 228.516,105.72 0.085,45.59 c 0.028,-0.24 0.043,-0.48 0.047,-0.72 l -0.132,-44.87"
         id="path8301"
         inkscape:connector-curvature="0" /></clipPath></defs><sodipodi:namedview
     pagecolor="#ffffff"
     bordercolor="#666666"
     borderopacity="1"
     objecttolerance="10"
     gridtolerance="10"
     guidetolerance="10"
     inkscape:pageopacity="0"
     inkscape:pageshadow="2"
     inkscape:window-width="1920"
     inkscape:window-height="1001"
     id="namedview6245"
     showgrid="false"
     fit-margin-top="0"
     fit-margin-left="0"
     fit-margin-right="0"
     fit-margin-bottom="0"
     inkscape:zoom="5.7859682"
     inkscape:cx="49.511254"
     inkscape:cy="62.067726"
     inkscape:window-x="-9"
     inkscape:window-y="-9"
     inkscape:window-maximized="1"
     inkscape:current-layer="g6253"
     showguides="false" /><g
     id="g6251"
     inkscape:groupmode="layer"
     inkscape:label="ink_ext_XXXXXX"
     transform="matrix(1.3333333,0,0,-1.3333333,-822.71044,267.28658)"><g
       id="g6253"
       transform="matrix(0.1,0,0,0.1,15.031907,0)"><path
         d="M 6848.0895,1389.6301 H 6150.577 v 22.6061 h 697.5125 v -22.6061"
         style="fill:#dddedf;fill-opacity:1;fill-rule:nonzero;stroke:none;stroke-width:0.68960965"
         id="path6695"
         inkscape:connector-curvature="0" /><path
         d="m 6226.6203,1141.0554 h -43.5834 v 248.5747 h 43.5834 v -248.5747"
         style="fill:#b3b3b3;fill-opacity:1;fill-rule:nonzero;stroke:none;stroke-width:0.68960965"
         id="path6697"
         inkscape:connector-curvature="0" /><path
         d="m 6831.9389,1141.0554 h -43.5833 v 248.5747 h 43.5833 v -248.5747"
         style="fill:#b3b3b3;fill-opacity:1;fill-rule:nonzero;stroke:none;stroke-width:0.68960965"
         id="path6699"
         inkscape:connector-curvature="0" /><path
         d="M 6848.0895,1389.6301 H 6150.577 v 11.311 h 697.5125 v -11.311"
         style="fill:#c9c9c9;fill-opacity:1;fill-rule:nonzero;stroke:none;stroke-width:0.68960965"
         id="path6701"
         inkscape:connector-curvature="0" /><path
         d="m 6226.6203,1389.6301 -43.5834,-22.038 v 22.038 z"
         style="fill:#9e9e9e;fill-opacity:1;fill-rule:nonzero;stroke:none;stroke-width:0.68960965"
         id="path6703"
         inkscape:connector-curvature="0" /><path
         d="m 6831.9389,1389.6301 -43.5833,-26.0949 v 26.0949 z"
         style="fill:#9e9e9e;fill-opacity:1;fill-rule:nonzero;stroke:none;stroke-width:0.68960965"
         id="path6705"
         inkscape:connector-curvature="0" /><path
         d="m 6308.5735,1146.6882 c 0,-7.9712 -7.2271,-14.4335 -16.13,-14.4335 -8.9166,0 -16.13,6.4623 -16.13,14.4335 0,7.9711 7.2134,14.4411 16.13,14.4411 8.9029,0 16.13,-6.47 16.13,-14.4411"
         style="fill:#423b40;fill-opacity:1;fill-rule:nonzero;stroke:none;stroke-width:0.68960965"
         id="path6707"
         inkscape:connector-curvature="0" /><path
         d="m 6441.5992,1146.6882 c 0,-7.9712 -7.2203,-14.4335 -16.1231,-14.4335 -8.9029,0 -16.1162,6.4623 -16.1162,14.4335 0,7.9711 7.2133,14.4411 16.1162,14.4411 8.9028,0 16.1231,-6.47 16.1231,-14.4411"
         style="fill:#423b40;fill-opacity:1;fill-rule:nonzero;stroke:none;stroke-width:0.68960965"
         id="path6709"
         inkscape:connector-curvature="0" /><path
         d="m 6453.7018,1148.2963 h -189.4841 v 209.3772 h 189.4841 v -209.3772"
         style="fill:#cccccc;fill-opacity:1;fill-rule:nonzero;stroke:none;stroke-width:0.68960965"
         id="path6711"
         inkscape:connector-curvature="0" /><path
         d="m 6453.7018,1302.2703 h -189.4841 v 1.9185 h 189.4841 v -1.9185"
         style="fill:#808080;fill-opacity:1;fill-rule:nonzero;stroke:none;stroke-width:0.68960965"
         id="path6713"
         inkscape:connector-curvature="0" /><path
         d="m 6453.7018,1247.2553 h -189.4841 v 1.9102 h 189.4841 v -1.9102"
         style="fill:#808080;fill-opacity:1;fill-rule:nonzero;stroke:none;stroke-width:0.68960965"
         id="path6715"
         inkscape:connector-curvature="0" /><path
         d="m 6453.7018,1195.2918 h -189.4841 v 1.9186 h 189.4841 v -1.9186"
         style="fill:#808080;fill-opacity:1;fill-rule:nonzero;stroke:none;stroke-width:0.68960965"
         id="path6717"
         inkscape:connector-curvature="0" /><path
         d="m 6407.6152,1327.1045 h -100.7175 v 6.1176 h 100.7175 v -6.1176"
         style="fill:#a8a8a8;fill-opacity:1;fill-rule:nonzero;stroke:none;stroke-width:0.68960965"
         id="path6719"
         inkscape:connector-curvature="0" /><path
         d="m 6407.6152,1269.0318 h -100.7175 v 6.11 h 100.7175 v -6.11"
         style="fill:#a8a8a8;fill-opacity:1;fill-rule:nonzero;stroke:none;stroke-width:0.68960965"
         id="path6721"
         inkscape:connector-curvature="0" /><path
         d="m 6407.6152,1214.0141 h -100.7175 v 6.112 h 100.7175 v -6.112"
         style="fill:#a8a8a8;fill-opacity:1;fill-rule:nonzero;stroke:none;stroke-width:0.68960965"
         id="path6723"
         inkscape:connector-curvature="0" /><path
         d="m 6407.6152,1168.1681 h -100.7175 v 6.1182 h 100.7175 v -6.1182"
         style="fill:#a8a8a8;fill-opacity:1;fill-rule:nonzero;stroke:none;stroke-width:0.68960965"
         id="path6725"
         inkscape:connector-curvature="0" /><path
         d="m 6264.2177,1330.165 189.4841,27.5085 h -189.4841 z"
         style="fill:#bcbcbc;fill-opacity:1;fill-rule:nonzero;stroke:none;stroke-width:0.68960965"
         id="path6727"
         inkscape:connector-curvature="0" /><path
         d="m 6567.4921,1448.4999 c -2.6141,-10.672 -1.9931,-21.3478 -4.5886,-32.0236 24.3672,0 48.7344,0 73.0979,0 -2.6215,10.6758 -2.6773,21.3516 -5.2951,32.0236 -19.1464,0 -44.0752,0 -63.2142,0"
         style="fill:#bbbbc1;fill-opacity:1;fill-rule:nonzero;stroke:none;stroke-width:0.37184829"
         id="path7051"
         inkscape:connector-curvature="0" /><path
         d="m 6475.9282,1460.968 v -17.648 c 0,-3.3949 2.7479,-6.1466 6.1466,-6.1466 h 234.7442 c 3.3949,0 6.1429,2.7517 6.1429,6.1466 v 17.648 h -247.0337"
         style="fill:#e9ecf3;fill-opacity:1;fill-rule:nonzero;stroke:none;stroke-width:0.37184829"
         id="path7053"
         inkscape:connector-curvature="0" /><path
         d="m 6722.9619,1460.968 v 149.4458 c 0,3.3875 -2.748,6.1578 -6.1429,6.1578 h -234.7442 c -3.3987,0 -6.1466,-2.7703 -6.1466,-6.1578 V 1460.968 h 247.0337"
         style="fill:#485060;fill-opacity:1;fill-rule:nonzero;stroke:none;stroke-width:0.37184829"
         id="path7055"
         inkscape:connector-curvature="0" /><path
         d="m 6485.1389,1470.0039 v 135.7804 h 226.8088 v -135.7804 h -226.8088"
         style="fill:#b8bece;fill-opacity:1;fill-rule:nonzero;stroke:none;stroke-width:0.37184829"
         id="path7057"
         inkscape:connector-curvature="0" /><path
         d="m 6687.6363,1470.0039 h -177.0668 v 115.7937 h 177.0668 v -115.7937"
         style="fill:#f4f4f4;fill-opacity:1;fill-rule:nonzero;stroke:none;stroke-width:0.37184829"
         id="path7059"
         inkscape:connector-curvature="0" /><path
         d="m 6687.6363,1565.6656 h -177.0668 v 23.854 h 177.0668 v -23.854"
         style="fill:#474f5e;fill-opacity:1;fill-rule:nonzero;stroke:none;stroke-width:0.37184829"
         id="path7061"
         inkscape:connector-curvature="0" /><path
         d="m 6644.3086,1573.1583 h -56.7367 v 6.0648 h 56.7367 v -6.0648"
         style="fill:#eaeae5;fill-opacity:1;fill-rule:nonzero;stroke:none;stroke-width:0.37184829"
         id="path7063"
         inkscape:connector-curvature="0" /><path
         d="m 6678.2769,1573.1583 h -23.3707 v 6.0648 h 23.3707 v -6.0648"
         style="fill:#eaeae5;fill-opacity:1;fill-rule:nonzero;stroke:none;stroke-width:0.37184829"
         id="path7065"
         inkscape:connector-curvature="0" /><path
         d="m 6525.3878,1573.1583 h -8.891 v 8.8798 h 8.891 v -8.8798"
         style="fill:#eaeae5;fill-opacity:1;fill-rule:nonzero;stroke:none;stroke-width:0.37184829"
         id="path7067"
         inkscape:connector-curvature="0" /><path
         d="m 6540.3434,1573.1583 h -8.8797 v 8.8798 h 8.8797 v -8.8798"
         style="fill:#eaeae5;fill-opacity:1;fill-rule:nonzero;stroke:none;stroke-width:0.37184829"
         id="path7069"
         inkscape:connector-curvature="0" /><path
         d="m 6555.3067,1573.1583 h -8.8836 v 8.8798 h 8.8836 v -8.8798"
         style="fill:#eaeae5;fill-opacity:1;fill-rule:nonzero;stroke:none;stroke-width:0.37184829"
         id="path7071"
         inkscape:connector-curvature="0" /><path
         d="m 6633.8596,1550.2451 h -112.9192 v 4.2093 h 112.9192 v -4.2093"
         style="fill:#e0e3ea;fill-opacity:1;fill-rule:nonzero;stroke:none;stroke-width:0.37184829"
         id="path7073"
         inkscape:connector-curvature="0" /><path
         d="m 6611.8834,1539.0115 h -90.943 v 4.2168 h 90.943 v -4.2168"
         style="fill:#e0e3ea;fill-opacity:1;fill-rule:nonzero;stroke:none;stroke-width:0.37184829"
         id="path7075"
         inkscape:connector-curvature="0" /><path
         d="m 6581.9607,1527.8003 h -61.0203 v 4.2018 h 61.0203 v -4.2018"
         style="fill:#e0e3ea;fill-opacity:1;fill-rule:nonzero;stroke:none;stroke-width:0.37184829"
         id="path7077"
         inkscape:connector-curvature="0" /><path
         d="m 6617.9669,1516.5667 h -97.0265 v 4.2243 h 97.0265 v -4.2243"
         style="fill:#e0e3ea;fill-opacity:1;fill-rule:nonzero;stroke:none;stroke-width:0.37184829"
         id="path7079"
         inkscape:connector-curvature="0" /><path
         d="m 6678.2769,1479.6385 h -37.8765 v 74.8159 h 37.8765 v -74.8159"
         style="fill:#e0e3ea;fill-opacity:1;fill-rule:nonzero;stroke:none;stroke-width:0.37184829"
         id="path7081"
         inkscape:connector-curvature="0" /><path
         d="m 6640.5157,1417.0452 h -82.145 c -2.0861,0 -3.7706,-1.9856 -3.7706,-4.4398 v -1.6621 h 89.7085 v 1.6621 c 0,2.4542 -1.7069,4.4398 -3.7929,4.4398"
         style="fill:#a1a4ad;fill-opacity:1;fill-rule:nonzero;stroke:none;stroke-width:0.37184829"
         id="path7083"
         inkscape:connector-curvature="0" /><path
         d="m 6562.9035,1417.0452 69.8443,20.1282 h -67.1001 z"
         style="fill:#d4d4d6;fill-opacity:1;fill-rule:nonzero;stroke:none;stroke-width:0.37184829"
         id="path7085"
         inkscape:connector-curvature="0" /><path
         d="m 6800.3151,1413.5003 -18.0035,0.3442 -3.9952,41.3879 25.724,-0.4927 -3.7253,-41.2394"
         style="fill:#d8d0c7;fill-opacity:1;fill-rule:nonzero;stroke:none;stroke-width:0.12662546"
         id="path7167"
         inkscape:connector-curvature="0" /><path
         d="m 6807.3745,1451.0522 -31.8792,0.607 0.09,4.7825 31.8804,-0.6055 -0.091,-4.784"
         style="fill:#e3e4e5;fill-opacity:1;fill-rule:nonzero;stroke:none;stroke-width:0.12662546"
         id="path7169"
         inkscape:connector-curvature="0" /><path
         d="m 6802.7919,1455.9213 -23.1826,0.4443 0.065,3.4811 23.1852,-0.4448 -0.067,-3.4806"
         style="fill:#e3e4e5;fill-opacity:1;fill-rule:nonzero;stroke:none;stroke-width:0.12662546"
         id="path7171"
         inkscape:connector-curvature="0" /><path
         d="m 6802.236,1426.7985 -21.7327,0.4115 -1.76,16.1259 25.0706,-0.4772 -1.5779,-16.0602"
         style="fill:#803828;fill-opacity:1;fill-rule:nonzero;stroke:none;stroke-width:0.12662546"
         id="path7173"
         inkscape:connector-curvature="0" /><path
         d="m 6803.8139,1442.8587 -23.3106,-15.6487 21.7327,-0.4115 z"
         style="fill:#682b21;fill-opacity:1;fill-rule:nonzero;stroke:none;stroke-width:0.12662546"
         id="path7175"
         inkscape:connector-curvature="0" /><path
         d="m 6414.7107,1497.0433 c 0.5867,1.7078 -0.3704,3.5461 -2.1466,4.0928 l -1.3962,0.4365 c -1.7731,0.5607 -3.697,-0.374 -4.2934,-2.0612 l -18.0847,-52.1541 7.8231,-2.4607 18.0978,52.1467"
         style="fill:#d8253b;fill-opacity:1;fill-rule:nonzero;stroke:none;stroke-width:0.32773933"
         id="path7179"
         inkscape:connector-curvature="0" /><path
         d="m 6414.7107,1497.0433 c 0.5867,1.7078 -0.3704,3.5461 -2.1466,4.0928 l -1.3962,0.4365 c -1.7731,0.5607 -3.697,-0.374 -4.2934,-2.0612 l -0.6588,-1.9306 7.8297,-2.4516 0.6653,1.9141"
         style="fill:#ffc23a;fill-opacity:1;fill-rule:nonzero;stroke:none;stroke-width:0.32773933"
         id="path7181"
         inkscape:connector-curvature="0" /><path
         d="m 6388.8193,1447.3445 -0.6653,-14.551 8.4918,12.1264 z"
         style="fill:#dddedf;fill-opacity:1;fill-rule:nonzero;stroke:none;stroke-width:0.32773933"
         id="path7183"
         inkscape:connector-curvature="0" /><path
         d="m 6390.6284,1436.3295 -2.2713,0.9243 -0.2031,-4.4603 z"
         style="fill:#211007;fill-opacity:1;fill-rule:nonzero;stroke:none;stroke-width:0.32773933"
         id="path7185"
         inkscape:connector-curvature="0" /><path
         d="m 6378.761,1432.243 c -0.2687,-1.9933 1.2027,-3.7896 3.2774,-3.9996 l 1.6223,-0.1638 c 2.0779,-0.2125 3.9689,1.2431 4.2343,3.2415 l 8.0428,61.2682 -9.1342,0.9268 -8.0426,-61.2731"
         style="fill:#ea5645;fill-opacity:1;fill-rule:nonzero;stroke:none;stroke-width:0.32773933"
         id="path7187"
         inkscape:connector-curvature="0" /><path
         d="m 6378.761,1432.243 c -0.2687,-1.9933 1.2027,-3.7896 3.2774,-3.9996 l 1.6223,-0.1638 c 2.0779,-0.2125 3.9689,1.2431 4.2343,3.2415 l 0.2951,2.2521 -9.1407,0.9242 -0.2884,-2.2544"
         style="fill:#ffc23a;fill-opacity:1;fill-rule:nonzero;stroke:none;stroke-width:0.32773933"
         id="path7189"
         inkscape:connector-curvature="0" /><path
         d="m 6395.9148,1492.602 -2.5727,16.1091 -6.5679,-15.2143 z"
         style="fill:#dddedf;fill-opacity:1;fill-rule:nonzero;stroke:none;stroke-width:0.32773933"
         id="path7191"
         inkscape:connector-curvature="0" /><path
         d="m 6391.4249,1504.2725 2.707,-0.5005 -0.7898,4.9391 z"
         style="fill:#211007;fill-opacity:1;fill-rule:nonzero;stroke:none;stroke-width:0.32773933"
         id="path7193"
         inkscape:connector-curvature="0" /><path
         d="m 6365.1433,1511.5224 c -0.2227,0.9348 -0.023,1.7757 0.4524,1.8884 0.4621,0.1141 1.0225,-0.544 1.2486,-1.4823 0.2196,-0.9374 0.02,-1.7757 -0.449,-1.891 -0.4752,-0.1138 -1.0388,0.5506 -1.252,1.4849"
         style="fill:#161819;fill-opacity:1;fill-rule:evenodd;stroke:none;stroke-width:0.32773933"
         id="path7195"
         inkscape:connector-curvature="0" /><path
         d="m 6388.1245,1425.9071 -3.2839,-0.7772 c -0.3016,-0.072 -0.6097,0.1384 -0.6851,0.4622 l -2.812,11.8422 c -0.078,0.334 0.1014,0.649 0.3966,0.7273 l 3.2905,0.7704 c 0.2917,0.075 0.5998,-0.1317 0.685,-0.4554 l 2.8054,-11.845 c 0.082,-0.325 -0.098,-0.6528 -0.3965,-0.7245"
         style="fill:#d8253b;fill-opacity:1;fill-rule:evenodd;stroke:none;stroke-width:0.32773933"
         id="path7197"
         inkscape:connector-curvature="0" /><path
         d="m 6387.8787,1432.6091 -5.8403,-1.3929 c -0.5277,-0.1242 -1.0291,0.046 -1.111,0.3904 l -14.496,61.0147 c -0.3113,1.3251 -2.9366,18.0294 -1.7337,18.3148 l 2.8186,0.6647 c 1.0356,0.2533 6.2597,-15.3284 6.5744,-16.6482 l 14.6074,-61.5036 c 0.082,-0.3342 -0.2885,-0.7144 -0.8194,-0.8399"
         style="fill:#5ba53c;fill-opacity:1;fill-rule:evenodd;stroke:none;stroke-width:0.32773933"
         id="path7199"
         inkscape:connector-curvature="0" /><path
         d="m 6378.9249,1440.0562 -0.2983,1.2586 7.7609,1.8484 0.3048,-1.266 -7.7674,-1.841"
         style="fill:#d8253b;fill-opacity:1;fill-rule:evenodd;stroke:none;stroke-width:0.32773933"
         id="path7201"
         inkscape:connector-curvature="0" /><path
         d="m 6379.446,1437.8567 -0.3049,1.2547 7.774,1.8488 0.295,-1.2612 -7.7641,-1.8423"
         style="fill:#d8253b;fill-opacity:1;fill-rule:evenodd;stroke:none;stroke-width:0.32773933"
         id="path7203"
         inkscape:connector-curvature="0" /><path
         d="m 6406.6418,1528.1887 c -3.3004,-12.9753 7.5412,-12.6806 -2.8677,-24.1092 -4.7031,6.4535 -1.937,18.2099 2.8677,24.1092"
         style="fill:#e2e2e2;fill-opacity:1;fill-rule:evenodd;stroke:none;stroke-width:0.32773933"
         id="path7205"
         inkscape:connector-curvature="0" /><path
         d="m 6400.5032,1460.8179 c -0.9242,-7.7904 -2.4777,-14.0134 -3.474,-13.8932 -0.98,0.1216 -1.0357,6.5291 -0.1047,14.3192 l 4.1393,34.8095 3.579,-0.4299 -4.1394,-34.8056"
         style="fill:#5ba53c;fill-opacity:1;fill-rule:evenodd;stroke:none;stroke-width:0.32773933"
         id="path7207"
         inkscape:connector-curvature="0" /><path
         d="m 6401.0636,1496.0534 3.579,-0.4299 1.3011,10.9304 -3.5789,0.4264 -1.3012,-10.9269"
         style="fill:#d8253b;fill-opacity:1;fill-rule:evenodd;stroke:none;stroke-width:0.32773933"
         id="path7209"
         inkscape:connector-curvature="0" /><path
         d="m 6401.8011,1411.9781 h -27.4843 l -4.9718,52.5728 h 37.182 l -4.7259,-52.5728"
         style="fill:#3ac2db;fill-opacity:1;fill-rule:nonzero;stroke:none;stroke-width:0.32773933"
         id="path7211"
         inkscape:connector-curvature="0" /><path
         d="m 6404.5312,1411.9781 h -32.1546 v 7.1258 h 32.1546 v -7.1258"
         style="fill:#0088a0;fill-opacity:1;fill-rule:nonzero;stroke:none;stroke-width:0.32773933"
         id="path7213"
         inkscape:connector-curvature="0" /><path
         d="m 6406.527,1464.5509 -32.8853,-45.447 h 28.8017 z"
         style="fill:#2fa0af;fill-opacity:1;fill-rule:nonzero;stroke:none;stroke-width:0.32773933"
         id="path7215"
         inkscape:connector-curvature="0" /><path
         d="m 6237.5289,1413.6644 h -42.0905 l -9.0427,51.39 h 61.378 l -10.2448,-51.39"
         style="fill:#803828;fill-opacity:1;fill-rule:nonzero;stroke:none;stroke-width:0.30202726"
         id="path7265"
         inkscape:connector-curvature="0" /><path
         d="m 6243.4396,1411.3358 h -53.8938 v 7.8617 h 53.8938 v -7.8617"
         style="fill:#c1c1c1;fill-opacity:1;fill-rule:nonzero;stroke:none;stroke-width:0.30202726"
         id="path7267"
         inkscape:connector-curvature="0" /><path
         d="m 6198.9691,1465.0544 c 0,0 -4.7267,57.4304 -26.5573,70.4056 0,0 30.689,-11.5797 33.6398,-70.4056 h -7.0825"
         style="fill:#859e19;fill-opacity:1;fill-rule:nonzero;stroke:none;stroke-width:0.30202726"
         id="path7269"
         inkscape:connector-curvature="0" /><path
         d="m 6227.0122,1465.0544 c 0,0 4.7208,57.4304 26.5483,70.4056 0,0 -30.68,-11.5797 -33.6368,-70.4056 h 7.0885"
         style="fill:#859e19;fill-opacity:1;fill-rule:nonzero;stroke:none;stroke-width:0.30202726"
         id="path7271"
         inkscape:connector-curvature="0" /><path
         d="m 6208.1205,1465.0544 c 0,0 4.7297,57.4304 26.5663,70.4056 0,0 -30.6919,-11.5797 -33.6458,-70.4056 h 7.0795"
         style="fill:#bcd335;fill-opacity:1;fill-rule:nonzero;stroke:none;stroke-width:0.30202726"
         id="path7273"
         inkscape:connector-curvature="0" /><path
         d="m 6227.2932,1465.0544 c 0,0 -4.7146,57.4304 -26.5452,70.4056 0,0 30.6799,-11.5797 33.6277,-70.4056 h -7.0825"
         style="fill:#bcd335;fill-opacity:1;fill-rule:nonzero;stroke:none;stroke-width:0.30202726"
         id="path7275"
         inkscape:connector-curvature="0" /><path
         d="m 6216.695,1465.0544 c 0,0 3.413,41.5378 19.206,50.9338 0,0 -22.193,-8.3782 -24.3313,-50.9338 h 5.1253"
         style="fill:#bcd335;fill-opacity:1;fill-rule:nonzero;stroke:none;stroke-width:0.30202726"
         id="path7277"
         inkscape:connector-curvature="0" /><path
         d="m 6240.7213,1465.0544 c 0,0 3.413,41.5378 19.209,50.9338 0,0 -22.1961,-8.3782 -24.3343,-50.9338 h 5.1253"
         style="fill:#bcd335;fill-opacity:1;fill-rule:nonzero;stroke:none;stroke-width:0.30202726"
         id="path7279"
         inkscape:connector-curvature="0" /><path
         d="m 6193.442,1465.0544 c 0,0 -3.4129,41.5378 -19.224,50.9338 0,0 22.202,-8.3782 24.3343,-50.9338 h -5.1103"
         style="fill:#bcd335;fill-opacity:1;fill-rule:nonzero;stroke:none;stroke-width:0.30202726"
         id="path7281"
         inkscape:connector-curvature="0" /><path
         d="m 6194.481,1419.0979 53.2927,45.9565 -9.1363,-45.8569 z"
         style="fill:#752d29;fill-opacity:1;fill-rule:nonzero;stroke:none;stroke-width:0.30202726"
         id="path7283"
         inkscape:connector-curvature="0" /><path
         d="m 6183.3082,1642.2697 h 146.5578 v 189.9411 h -146.5578 z"
         style="fill:#fafaf9;fill-opacity:1;fill-rule:nonzero;stroke:none;stroke-width:0.15533799"
         id="path8259"
         inkscape:connector-curvature="0" /><path
         d="m 6329.866,1642.2697 c 0,0 -0.014,0.3153 -0.022,0.9165 -0.011,0.6136 -0.011,1.5006 -0.02,2.6641 -0.011,2.3564 -0.025,5.8205 -0.043,10.3237 -0.023,9.0283 -0.056,22.2119 -0.096,38.9168 -0.045,33.3822 -0.1069,80.8193 -0.1817,137.1184 l 0.3634,-0.3634 c -43.8137,-0.011 -93.7591,-0.025 -146.5413,-0.041 h -0.016 l 0.4047,0.4039 c -0.026,-70.5343 -0.051,-135.9907 -0.071,-189.9395 l -0.3338,0.3339 c 44.2277,-0.072 80.8243,-0.1321 106.3847,-0.1739 12.7901,-0.036 22.8141,-0.065 29.6598,-0.085 3.4128,-0.018 6.0287,-0.03 7.812,-0.037 1.7708,-0.012 2.7013,-0.037 2.7013,-0.037 0,0 -0.8824,-0.023 -2.6299,-0.036 -1.7677,-0.011 -4.3634,-0.022 -7.7482,-0.038 -6.8302,-0.02 -16.8278,-0.049 -29.5858,-0.085 -25.6101,-0.042 -62.2789,-0.1014 -106.5939,-0.1741 h -0.3337 v 0.334 c -0.02,53.949 -0.044,119.4053 -0.07,189.9395 v 0.4055 h 0.4047 0.017 c 52.7821,-0.014 102.7276,-0.029 146.5413,-0.041 h 0.3635 v -0.3651 c -0.075,-56.3954 -0.1366,-103.9149 -0.1817,-137.3545 -0.041,-16.6694 -0.073,-29.8249 -0.096,-38.8345 -0.019,-4.4722 -0.032,-7.9113 -0.043,-10.2523 -0.011,-1.1463 -0.015,-2.0178 -0.02,-2.6236 -0.011,-0.5872 -0.021,-0.8746 -0.021,-0.8746"
         style="fill:#17282f;fill-opacity:1;fill-rule:nonzero;stroke:none;stroke-width:0.15533799"
         id="path8261"
         inkscape:connector-curvature="0" /><path
         d="m 6199.5926,1795.127 49.9389,-0.09 c 1.626,-0.011 2.9463,1.311 2.9494,2.9374 0.011,1.6263 -1.3124,2.9483 -2.9385,2.9499 l -49.9389,0.091 c -1.6255,0.011 -2.9465,-1.3142 -2.9496,-2.9392 v 0 c -0.011,-1.6263 1.3131,-2.9467 2.9387,-2.9498"
         style="fill:#dadbd8;fill-opacity:1;fill-rule:nonzero;stroke:none;stroke-width:0.15533799"
         id="path8263"
         inkscape:connector-curvature="0" /><path
         d="m 6199.6648,1783.7375 49.9387,-0.091 c 1.6256,-0.011 2.9466,1.3127 2.9497,2.939 v 0 c 0.011,1.6265 -1.313,2.9468 -2.9386,2.95 l -49.9389,0.091 c -1.6261,0 -2.9464,-1.314 -2.9496,-2.939 v 0 c -0.011,-1.6263 1.3124,-2.9467 2.9387,-2.9499"
         style="fill:#dadbd8;fill-opacity:1;fill-rule:nonzero;stroke:none;stroke-width:0.15533799"
         id="path8265"
         inkscape:connector-curvature="0" /><path
         d="m 6199.7371,1772.3467 49.9381,-0.09 c 1.6261,-0.011 2.9471,1.3125 2.9502,2.939 v 0 c 0.011,1.6263 -1.3132,2.9467 -2.9392,2.9498 l -49.9389,0.09 c -1.6255,0.011 -2.9464,-1.3126 -2.949,-2.9391 v 0 c -0.011,-1.6247 1.3125,-2.9466 2.9388,-2.9498"
         style="fill:#dadbd8;fill-opacity:1;fill-rule:nonzero;stroke:none;stroke-width:0.15533799"
         id="path8267"
         inkscape:connector-curvature="0" /><path
         d="m 6199.8086,1760.9573 49.9388,-0.09 c 1.6261,-0.011 2.9466,1.3127 2.9495,2.9375 0.011,1.6264 -1.3125,2.9483 -2.9387,2.9514 l -49.9387,0.09 c -1.6262,0.011 -2.9466,-1.3126 -2.9495,-2.939 v 0 c -0.011,-1.6265 1.313,-2.9468 2.9386,-2.9499"
         style="fill:#dadbd8;fill-opacity:1;fill-rule:nonzero;stroke:none;stroke-width:0.15533799"
         id="path8269"
         inkscape:connector-curvature="0" /><path
         d="m 6199.8809,1749.568 49.9387,-0.09 c 1.6261,-0.011 2.9466,1.3126 2.9496,2.9374 v 0 c 0.011,1.6264 -1.3131,2.9468 -2.9394,2.9499 l -49.9381,0.091 c -1.6261,0.011 -2.9466,-1.3125 -2.9495,-2.939 v 0 c -0.011,-1.6263 1.3125,-2.9467 2.9387,-2.9498"
         style="fill:#dadbd8;fill-opacity:1;fill-rule:nonzero;stroke:none;stroke-width:0.15533799"
         id="path8271"
         inkscape:connector-curvature="0" /><path
         d="m 6199.953,1738.1785 49.9382,-0.091 c 1.6262,-0.011 2.9466,1.3126 2.9495,2.939 0.011,1.6264 -1.3124,2.9467 -2.9386,2.9498 l -49.9387,0.09 c -1.6263,0.011 -2.9466,-1.3125 -2.9496,-2.9374 v 0 c -0.011,-1.6248 1.3131,-2.9451 2.9392,-2.9482"
         style="fill:#dadbd8;fill-opacity:1;fill-rule:nonzero;stroke:none;stroke-width:0.15533799"
         id="path8273"
         inkscape:connector-curvature="0" /><path
         d="m 6200.0246,1726.7876 49.9388,-0.09 c 1.6262,-0.011 2.9466,1.3125 2.9496,2.9389 0.011,1.6265 -1.3131,2.9468 -2.9393,2.9499 l -49.9381,0.09 c -1.6262,0.011 -2.9466,-1.3127 -2.9497,-2.9391 -0.011,-1.6264 1.3125,-2.9467 2.9387,-2.9498"
         style="fill:#dadbd8;fill-opacity:1;fill-rule:nonzero;stroke:none;stroke-width:0.15533799"
         id="path8275"
         inkscape:connector-curvature="0" /><path
         d="m 6263.2066,1738.177 49.9388,-0.09 c 1.6264,-0.011 2.9467,1.3126 2.9499,2.939 0.011,1.6263 -1.3126,2.9467 -2.9391,2.9498 l -49.9387,0.09 c -1.6263,0.011 -2.9466,-1.3125 -2.9496,-2.9388 v 0 c -0.011,-1.625 1.3124,-2.9467 2.9387,-2.9499"
         style="fill:#dadbd8;fill-opacity:1;fill-rule:nonzero;stroke:none;stroke-width:0.15533799"
         id="path8277"
         inkscape:connector-curvature="0" /><path
         d="m 6263.2788,1726.7876 49.9381,-0.09 c 1.6263,-0.011 2.9468,1.3125 2.9499,2.9389 0.011,1.6265 -1.3127,2.9468 -2.939,2.9499 l -49.9388,0.09 c -1.6261,0.011 -2.9465,-1.3127 -2.9495,-2.9391 v 0 c -0.011,-1.6264 1.313,-2.9467 2.9393,-2.9498"
         style="fill:#dadbd8;fill-opacity:1;fill-rule:nonzero;stroke:none;stroke-width:0.15533799"
         id="path8279"
         inkscape:connector-curvature="0" /><path
         d="m 6263.3546,1714.7753 49.9384,-0.09 c 1.6264,-0.011 2.9467,1.3125 2.9498,2.9389 0.011,1.6264 -1.3125,2.9468 -2.939,2.9498 l -49.9389,0.09 c -1.6256,0.011 -2.9466,-1.3126 -2.9496,-2.939 v 0 c -0.011,-1.6264 1.3132,-2.9468 2.9393,-2.9499"
         style="fill:#dadbd8;fill-opacity:1;fill-rule:nonzero;stroke:none;stroke-width:0.15533799"
         id="path8281"
         inkscape:connector-curvature="0" /><path
         d="m 6263.4304,1702.763 49.9387,-0.09 c 1.6265,-0.011 2.9467,1.3126 2.9498,2.939 v 0 c 0.011,1.6263 -1.3125,2.9468 -2.9389,2.9499 l -49.9392,0.09 c -1.6256,0.011 -2.9466,-1.3127 -2.9497,-2.939 v 0 c -0.011,-1.6265 1.3131,-2.9467 2.9393,-2.9499"
         style="fill:#dadbd8;fill-opacity:1;fill-rule:nonzero;stroke:none;stroke-width:0.15533799"
         id="path8283"
         inkscape:connector-curvature="0" /><path
         d="m 6263.5063,1690.7507 49.9389,-0.09 c 1.6249,-0.011 2.9468,1.3126 2.9499,2.939 0.011,1.6265 -1.3141,2.9468 -2.939,2.9499 l -49.9388,0.09 c -1.6262,0.011 -2.9466,-1.3126 -2.9497,-2.939 v 0 c -0.011,-1.6264 1.3125,-2.9468 2.9387,-2.9499"
         style="fill:#dadbd8;fill-opacity:1;fill-rule:nonzero;stroke:none;stroke-width:0.15533799"
         id="path8285"
         inkscape:connector-curvature="0" /><path
         d="m 6263.5822,1678.74 49.9391,-0.091 c 1.6248,-0.011 2.9468,1.3125 2.9483,2.9389 0.011,1.6264 -1.3125,2.9468 -2.9389,2.9499 l -49.9377,0.09 c -1.6262,0.011 -2.9466,-1.3127 -2.9494,-2.939 v 0 c -0.011,-1.6248 1.3124,-2.9469 2.9386,-2.9484"
         style="fill:#dadbd8;fill-opacity:1;fill-rule:nonzero;stroke:none;stroke-width:0.15533799"
         id="path8287"
         inkscape:connector-curvature="0" /><path
         d="m 6263.658,1666.7277 49.9378,-0.091 c 1.6265,-0.011 2.9469,1.3127 2.95,2.939 0.011,1.6264 -1.3127,2.9468 -2.939,2.9499 l -49.9379,0.09 c -1.6261,0.011 -2.9464,-1.3126 -2.9496,-2.9374 v 0 c -0.011,-1.625 1.3125,-2.9469 2.9387,-2.9484"
         style="fill:#dadbd8;fill-opacity:1;fill-rule:nonzero;stroke:none;stroke-width:0.15533799"
         id="path8289"
         inkscape:connector-curvature="0" /><path
         d="m 6199.3293,1654.3939 113.5349,-0.2067 c 1.6249,-0.011 2.9469,1.3126 2.9484,2.939 0.011,1.6265 -1.3126,2.9468 -2.939,2.95 l -113.5335,0.2065 c -1.0892,0 -1.9739,-0.8792 -1.9757,-1.9681 l -0.011,-1.9448 c 0,-1.089 0.8792,-1.9745 1.9684,-1.9759"
         style="fill:#dadbd8;fill-opacity:1;fill-rule:nonzero;stroke:none;stroke-width:0.15533799"
         id="path8291"
         inkscape:connector-curvature="0" /><path
         d="m 6199.5022,1809.9617 33.0439,-0.06 c 1.6262,-0.011 2.9467,1.3127 2.9497,2.939 v 0 c 0.011,1.6249 -1.3131,2.9468 -2.9394,2.9484 l -33.0439,0.062 c -1.6255,0 -2.9466,-1.3142 -2.9496,-2.9406 v 0 c -0.011,-1.6263 1.313,-2.9467 2.9393,-2.9498"
         style="fill:#dadbd8;fill-opacity:1;fill-rule:nonzero;stroke:none;stroke-width:0.15533799"
         id="path8293"
         inkscape:connector-curvature="0" /><path
         d="m 6236.691,1673.0438 -24.6689,0.045 c -5.9095,0.011 -10.6915,4.8109 -10.6814,10.7199 l 0.038,20.5249 c 0.011,5.9106 4.8101,10.6918 10.7203,10.6825 l 24.669,-0.045 c 5.9095,-0.011 10.6916,-4.8107 10.6812,-10.7213 l -0.037,-20.5248 c -0.011,-5.9091 -4.8101,-10.6919 -10.7203,-10.6811"
         style="fill:#f2575d;fill-opacity:1;fill-rule:nonzero;stroke:none;stroke-width:0.15533799"
         id="path8295"
         inkscape:connector-curvature="0" /><g
         transform="matrix(0.15533798,0,0,0.15533798,6146.4615,1176.0725)"
         id="g8297"><g
           id="g8299"
           clip-path="url(#clipPath8303)"><path
             d="M 352.855,3199.27 H 650.07 v 151.621 H 352.855 Z"
             style="fill:#a4a6a5;fill-opacity:1;fill-rule:nonzero;stroke:none"
             id="path8305"
             inkscape:connector-curvature="0" /></g></g><path
         d="m 6236.972,1673.0468 -25.0476,0.042 c -5.6304,0.061 -10.2154,4.469 -10.5624,10.0224 0.061,0.2687 0.2172,0.5079 0.446,0.6711 l 13.0029,10.7633 c 0.6261,0.5297 1.3755,0.9865 2.421,0.9865 0.8762,0 1.96,-0.32 3.3545,-1.1853 v 0 c 0.011,-0.011 0.011,-0.011 0.012,-0.011 0,0 -0.011,0 -0.011,0.011 l 7.1248,-3.4485 c 0.1553,-0.075 0.3216,-0.1104 0.4861,-0.1104 0.2979,0 0.5917,0.1181 0.8088,0.3418 l 10.0702,10.4045 c 0.6226,0.5857 1.4146,0.8746 2.2033,0.8746 0.9127,0 1.8209,-0.3853 2.4589,-1.1433 l 3.4342,-4.0776 c 0.1427,-0.1678 0.2312,-0.3744 0.2573,-0.5919 l -0.013,-7.0819 -0.018,-6.1762 c -0.2117,-5.6357 -4.7808,-10.1529 -10.4313,-10.288 m -16.3808,21.2969 -0.011,0.011 v 0 0 c -0.058,0.037 -0.077,0.05 -0.077,0.05 0,0 0.023,-0.013 0.045,-0.029 0.014,-0.011 0.029,-0.02 0.036,-0.025"
         style="fill:#cc4341;fill-opacity:1;fill-rule:nonzero;stroke:none;stroke-width:0.15533799"
         id="path8307"
         inkscape:connector-curvature="0" /><path
         d="m 6218.4254,1699.212 c -2.39,0 -4.4095,1.8454 -4.5873,4.2671 -0.1861,2.5367 1.7192,4.7441 4.2555,4.9305 0.1148,0.011 0.2288,0.012 0.3422,0.012 2.3897,0 4.4096,-1.8469 4.5874,-4.2686 0.1855,-2.5368 -1.7196,-4.7425 -4.2561,-4.9289 -0.1147,-0.011 -0.2287,-0.012 -0.3417,-0.012"
         style="fill:#cc4341;fill-opacity:1;fill-rule:nonzero;stroke:none;stroke-width:0.15533799"
         id="path8309"
         inkscape:connector-curvature="0" /><path
         d="m 6277.1947,1778.1548 c 0.1025,-6.3969 5.3654,-11.5168 11.7324,-11.4143 6.367,0.1025 11.4636,5.3903 11.3615,11.7855 -0.1025,6.3969 -5.3659,11.5168 -11.7329,11.4142 -6.3663,-0.1026 -11.4635,-5.3901 -11.361,-11.7854 z m 35.696,0.5762 c 0.2143,-13.3777 -10.4449,-24.4362 -23.7615,-24.652 -13.316,-0.2144 -24.3237,10.4946 -24.5374,23.8723 -0.2141,13.3777 10.4459,24.4362 23.7618,24.6505 13.3161,0.2144 24.3242,-10.4946 24.5371,-23.8708"
         style="fill:#dadbd8;fill-opacity:1;fill-rule:nonzero;stroke:none;stroke-width:0.15533799"
         id="path8311"
         inkscape:connector-curvature="0" /><path
         d="m 6312.8907,1778.731 c 0.2143,-13.3777 -10.4449,-24.4362 -23.7615,-24.652 l -0.2021,12.6615 c 6.367,0.1025 11.4636,5.3903 11.3615,11.7871 -0.1025,6.3953 -5.3659,11.5152 -11.7329,11.4126 l -0.2021,12.6616 c 13.3161,0.2144 24.3242,-10.4946 24.5371,-23.8708"
         style="fill:#33535f;fill-opacity:1;fill-rule:nonzero;stroke:none;stroke-width:0.15533799"
         id="path8313"
         inkscape:connector-curvature="0" /><path
         d="m 6291.2979,1752.1326 c -15.5788,-0.2518 -28.0063,11.8382 -28.257,27.4885 l 14.7443,0.2393 c 0.1196,-7.4843 5.8137,-12.1956 13.262,-12.0745 l 0.2507,-15.6533"
         style="fill:#f2575d;fill-opacity:1;fill-rule:nonzero;stroke:none;stroke-width:0.15533799"
         id="path8315"
         inkscape:connector-curvature="0" /><path
         d="M 6646.7675,1678.7855 H 6875.797 V 1842.597 H 6646.7675 Z"
         style="fill:#ffffff;fill-opacity:1;fill-rule:nonzero;stroke:none;stroke-width:0.22783118"
         id="path8209"
         inkscape:connector-curvature="0" /><path
         d="m 6875.7996,1842.5942 c 0,0 -0.3872,-0.021 -1.1163,-0.032 -0.7564,-0.011 -1.8295,-0.018 -3.233,-0.032 -2.8683,-0.014 -7.0627,-0.036 -12.5125,-0.063 -10.9381,-0.034 -26.8818,-0.082 -47.054,-0.1435 -40.3192,-0.066 -97.5002,-0.1595 -165.1138,-0.269 l 0.5401,0.54 c 0.015,-49.4758 0.034,-105.135 0.053,-163.7924 v -0.021 l -0.5924,0.5946 c 85.742,-0.042 165.0546,-0.082 229.0273,-0.1116 l -0.4808,-0.483 c 0.1048,49.6604 0.1914,90.5492 0.2529,119.0623 0.053,14.2599 0.094,25.4192 0.123,33.0468 0.023,3.7912 0.041,6.6983 0.054,8.6941 0.015,1.9707 0.053,3.0097 0.053,3.0097 0,0 0.034,-0.9706 0.053,-2.9072 0.012,-1.9752 0.03,-4.8527 0.052,-8.6028 0.03,-7.6051 0.07,-18.7254 0.1231,-32.9399 0.062,-28.5837 0.1482,-69.5773 0.2529,-119.363 v -0.4808 h -0.4833 c -63.9727,-0.032 -143.2853,-0.068 -229.0273,-0.1116 h -0.5923 v 0.5924 0.021 c 0.018,58.6574 0.036,114.3165 0.053,163.7923 v 0.54 h 0.5377 c 67.7569,-0.1091 125.061,-0.2005 165.4646,-0.2665 20.1197,-0.062 36.0246,-0.1091 46.9332,-0.1436 5.4019,-0.028 9.5599,-0.051 12.4055,-0.066 1.376,-0.011 2.4308,-0.023 3.1714,-0.03 0.7085,-0.012 1.0548,-0.032 1.0548,-0.032"
         style="fill:#17282f;fill-opacity:1;fill-rule:nonzero;stroke:#000000;stroke-width:0.22757119;stroke-miterlimit:4;stroke-dasharray:none;stroke-opacity:1"
         id="path8211"
         inkscape:connector-curvature="0" /><path
         d="m 6714.1644,1817.3274 h -40.9891 c -2.0163,0 -3.6521,-1.6358 -3.6521,-3.6522 v 0 c 0,-2.0163 1.6358,-3.6521 3.6521,-3.6521 h 40.9891 c 2.0164,0 3.6522,1.6358 3.6522,3.6521 v 0 c 0,2.0164 -1.6358,3.6522 -3.6522,3.6522"
         style="fill:#dadbd8;fill-opacity:1;fill-rule:nonzero;stroke:none;stroke-width:0.22783118"
         id="path8213"
         inkscape:connector-curvature="0" /><path
         d="m 6691.6251,1702.9311 h -18.4498 c -2.0163,0 -3.6521,-1.6359 -3.6521,-3.6522 0,-2.0163 1.6358,-3.6521 3.6521,-3.6521 h 18.4498 c 2.0164,0 3.6522,1.6358 3.6522,3.6521 v 0 c 0,2.0163 -1.6358,3.6522 -3.6522,3.6522"
         style="fill:#dadbd8;fill-opacity:1;fill-rule:nonzero;stroke:none;stroke-width:0.22783118"
         id="path8215"
         inkscape:connector-curvature="0" /><path
         d="m 6731.065,1702.9311 h -18.4475 c -2.0186,0 -3.6522,-1.6359 -3.6522,-3.6522 0,-2.0163 1.6336,-3.6521 3.6522,-3.6521 h 18.4475 c 2.0163,0 3.6521,1.6358 3.6521,3.6521 v 0 c 0,2.0163 -1.6358,3.6522 -3.6521,3.6522"
         style="fill:#dadbd8;fill-opacity:1;fill-rule:nonzero;stroke:none;stroke-width:0.22783118"
         id="path8217"
         inkscape:connector-curvature="0" /><path
         d="m 6770.5049,1702.9311 h -18.4476 c -2.0163,0 -3.6521,-1.6359 -3.6521,-3.6522 v 0 c 0,-2.0163 1.6358,-3.6521 3.6521,-3.6521 h 18.4476 c 2.0185,0 3.6521,1.6358 3.6521,3.6521 v 0 c 0,2.0163 -1.6336,3.6522 -3.6521,3.6522"
         style="fill:#dadbd8;fill-opacity:1;fill-rule:nonzero;stroke:none;stroke-width:0.22783118"
         id="path8219"
         inkscape:connector-curvature="0" /><path
         d="m 6809.9469,1702.9311 h -18.4497 c -2.0163,0 -3.6521,-1.6359 -3.6521,-3.6522 0,-2.0163 1.6358,-3.6521 3.6521,-3.6521 h 18.4497 c 2.0164,0 3.6522,1.6358 3.6522,3.6521 v 0 c 0,2.0163 -1.6358,3.6522 -3.6522,3.6522"
         style="fill:#dadbd8;fill-opacity:1;fill-rule:nonzero;stroke:none;stroke-width:0.22783118"
         id="path8221"
         inkscape:connector-curvature="0" /><path
         d="m 6849.3868,1702.9311 h -18.4475 c -2.0185,0 -3.6522,-1.6359 -3.6522,-3.6522 0,-2.0163 1.6337,-3.6521 3.6522,-3.6521 h 18.4475 c 2.0163,0 3.6521,1.6358 3.6521,3.6521 v 0 c 0,2.0163 -1.6358,3.6522 -3.6521,3.6522"
         style="fill:#dadbd8;fill-opacity:1;fill-rule:nonzero;stroke:none;stroke-width:0.22783118"
         id="path8223"
         inkscape:connector-curvature="0" /><path
         d="m 6809.9469,1702.9311 h -18.4497 c -2.0163,0 -3.6521,-1.6359 -3.6521,-3.6522 0,-2.0163 1.6358,-3.6521 3.6521,-3.6521 h 18.4497 c 2.0164,0 3.6522,1.6358 3.6522,3.6521 v 0 c 0,2.0163 -1.6358,3.6522 -3.6522,3.6522"
         style="fill:#dadbd8;fill-opacity:1;fill-rule:nonzero;stroke:none;stroke-width:0.22783118"
         id="path8225"
         inkscape:connector-curvature="0" /><path
         d="m 6684.7264,1712.7803 h -9.6122 v 81.9211 h 9.6122 v -81.9211"
         style="fill:#f2575d;fill-opacity:1;fill-rule:nonzero;stroke:none;stroke-width:0.22783118"
         id="path8227"
         inkscape:connector-curvature="0" /><path
         d="m 6693.671,1712.7803 h 9.6126 v 54.0972 h -9.6126 z"
         style="fill:#f2575d;fill-opacity:1;fill-rule:nonzero;stroke:none;stroke-width:0.22783118"
         id="path8229"
         inkscape:connector-curvature="0" /><path
         d="m 6721.8401,1712.3656 h -9.6122 v 72.154 h 9.6122 v -72.154"
         style="fill:#f2575d;fill-opacity:1;fill-rule:nonzero;stroke:none;stroke-width:0.22783118"
         id="path8231"
         inkscape:connector-curvature="0" /><path
         d="m 6730.787,1712.7803 h 9.6125 v 78.7574 h -9.6125 z"
         style="fill:#f2575d;fill-opacity:1;fill-rule:nonzero;stroke:none;stroke-width:0.22783118"
         id="path8233"
         inkscape:connector-curvature="0" /><path
         d="m 6758.956,1712.7803 h -9.6122 v 52.4329 h 9.6122 v -52.4329"
         style="fill:#f2575d;fill-opacity:1;fill-rule:nonzero;stroke:none;stroke-width:0.22783118"
         id="path8235"
         inkscape:connector-curvature="0" /><path
         d="m 6767.9007,1712.7803 h 9.6116 v 42.1495 h -9.6116 z"
         style="fill:#f2575d;fill-opacity:1;fill-rule:nonzero;stroke:none;stroke-width:0.22783118"
         id="path8237"
         inkscape:connector-curvature="0" /><path
         d="m 6796.0721,1712.7803 h -9.6122 v 73.5142 h 9.6122 v -73.5142"
         style="fill:#f2575d;fill-opacity:1;fill-rule:nonzero;stroke:none;stroke-width:0.22783118"
         id="path8239"
         inkscape:connector-curvature="0" /><path
         d="m 6805.0167,1712.7803 h 9.6117 v 60.2595 h -9.6117 z"
         style="fill:#f2575d;fill-opacity:1;fill-rule:nonzero;stroke:none;stroke-width:0.22783118"
         id="path8241"
         inkscape:connector-curvature="0" /><path
         d="m 6833.1881,1712.7803 h -9.6122 v 70.8509 h 9.6122 v -70.8509"
         style="fill:#f2575d;fill-opacity:1;fill-rule:nonzero;stroke:none;stroke-width:0.22783118"
         id="path8243"
         inkscape:connector-curvature="0" /><path
         d="m 6842.1327,1712.7803 h 9.6116 v 48.2688 h -9.6116 z"
         style="fill:#f2575d;fill-opacity:1;fill-rule:nonzero;stroke:none;stroke-width:0.22783118"
         id="path8245"
         inkscape:connector-curvature="0" /><path
         d="m 6693.671,1712.7803 h 9.6126 v 54.0972 h -9.6126 z"
         style="fill:#f57e87;fill-opacity:1;fill-rule:nonzero;stroke:none;stroke-width:0.22783118"
         id="path8247"
         inkscape:connector-curvature="0" /><path
         d="m 6730.787,1712.7803 h 9.6125 v 78.7574 h -9.6125 z"
         style="fill:#f57e87;fill-opacity:1;fill-rule:nonzero;stroke:none;stroke-width:0.22783118"
         id="path8249"
         inkscape:connector-curvature="0" /><path
         d="m 6767.9007,1712.7803 h 9.6116 v 42.1495 h -9.6116 z"
         style="fill:#f57e87;fill-opacity:1;fill-rule:nonzero;stroke:none;stroke-width:0.22783118"
         id="path8251"
         inkscape:connector-curvature="0" /><path
         d="m 6805.0167,1712.7803 h 9.6117 v 60.2595 h -9.6117 z"
         style="fill:#f57e87;fill-opacity:1;fill-rule:nonzero;stroke:none;stroke-width:0.22783118"
         id="path8253"
         inkscape:connector-curvature="0" /><path
         d="m 6842.1327,1712.7803 h 9.6116 v 48.2688 h -9.6116 z"
         style="fill:#f57e87;fill-opacity:1;fill-rule:nonzero;stroke:none;stroke-width:0.22783118"
         id="path8255"
         inkscape:connector-curvature="0" /><path
         d="m 6665.1922,1791.5392 c 0,0 0.012,-0.1254 0.018,-0.3692 0.011,-0.2642 0.011,-0.6219 0.018,-1.089 0.011,-0.9842 0.021,-2.4036 0.036,-4.2513 0.013,-3.741 0.036,-9.1907 0.064,-16.11 0.023,-13.8908 0.057,-33.6779 0.096,-57.3541 l -0.2324,0.271 c 18.6503,0.012 40.5039,0.025 63.7677,0.039 36.3778,-0.034 69.3039,-0.066 93.1578,-0.091 11.9065,-0.041 21.5483,-0.075 28.2307,-0.098 3.3218,-0.025 5.903,-0.045 7.6756,-0.06 0.8658,-0.014 1.5287,-0.023 1.9958,-0.03 0.451,-0.012 0.6812,-0.032 0.6812,-0.032 0,0 -0.2302,-0.023 -0.6812,-0.032 -0.4671,-0.011 -1.13,-0.018 -1.9958,-0.032 -1.7726,-0.014 -4.3538,-0.034 -7.6756,-0.057 -6.6824,-0.025 -16.3242,-0.059 -28.2307,-0.1003 -23.8539,-0.023 -56.78,-0.054 -93.1578,-0.091 -23.2638,0.013 -45.1174,0.028 -63.7677,0.039 h -0.2346 v 0.2734 c 0.041,23.6762 0.073,43.4633 0.098,57.3541 0.028,6.9192 0.047,12.369 0.064,16.11 0.016,1.8476 0.028,3.2671 0.036,4.2513 0.011,0.4671 0.014,0.8248 0.018,1.089 0.011,0.2438 0.018,0.3691 0.018,0.3691"
         style="fill:#17282f;fill-opacity:1;fill-rule:nonzero;stroke:none;stroke-width:0.22783118"
         id="path8257"
         inkscape:connector-curvature="0" /><circle
         style="opacity:1;fill:#8890a7;fill-opacity:0.11650486;stroke:none;stroke-width:0.79674804;stroke-miterlimit:4;stroke-dasharray:none;stroke-opacity:1"
         id="path1049"
         cx="6528.1353"
         cy="-1496.5236"
         r="508.12585"
         transform="scale(1,-1)" /></g></g></svg>