<?xml version="1.0" encoding="UTF-8" standalone="no"?>
<!-- Created with Inkscape (http://www.inkscape.org/) -->

<svg
   xmlns:dc="http://purl.org/dc/elements/1.1/"
   xmlns:cc="http://creativecommons.org/ns#"
   xmlns:rdf="http://www.w3.org/1999/02/22-rdf-syntax-ns#"
   xmlns:svg="http://www.w3.org/2000/svg"
   xmlns="http://www.w3.org/2000/svg"
   xmlns:sodipodi="http://sodipodi.sourceforge.net/DTD/sodipodi-0.dtd"
   xmlns:inkscape="http://www.inkscape.org/namespaces/inkscape"
   version="1.1"
   id="svg6243"
   xml:space="preserve"
   width="236.85172"
   height="137.46788"
   viewBox="0 0 236.85171 137.46789"
   sodipodi:docname="office.svg"
   inkscape:version="0.92.4 (5da689c313, 2019-01-14)"><metadata
     id="metadata6249"><rdf:RDF><cc:Work
         rdf:about=""><dc:format>image/svg+xml</dc:format><dc:type
           rdf:resource="http://purl.org/dc/dcmitype/StillImage" /><dc:title></dc:title></cc:Work></rdf:RDF></metadata><defs
     id="defs6247"><clipPath
       clipPathUnits="userSpaceOnUse"
       id="clipPath8303"><path
         d="m 606.5,3199.27 -23.832,0.04 c 36.375,0.87 65.789,29.95 67.152,66.23 l -0.066,-23.75 c 0.316,-15.66 -14.543,-42.52 -43.254,-42.52 m -185.078,0.31 -23.637,0.04 c -0.195,0 -0.398,0 -0.597,0 -26.614,0 -44.333,23.33 -44.125,45.85 l 0.191,17.11 c 0.004,0.52 0.062,1.02 0.172,1.52 2.234,-35.75 31.75,-64.13 67.996,-64.52 m 228.516,105.72 0.085,45.59 c 0.028,-0.24 0.043,-0.48 0.047,-0.72 l -0.132,-44.87"
         id="path8301"
         inkscape:connector-curvature="0" /></clipPath></defs><sodipodi:namedview
     pagecolor="#ffffff"
     bordercolor="#666666"
     borderopacity="1"
     objecttolerance="10"
     gridtolerance="10"
     guidetolerance="10"
     inkscape:pageopacity="0"
     inkscape:pageshadow="2"
     inkscape:window-width="1920"
     inkscape:window-height="1001"
     id="namedview6245"
     showgrid="false"
     fit-margin-top="0"
     fit-margin-left="0"
     fit-margin-right="0"
     fit-margin-bottom="0"
     inkscape:zoom="2.8929841"
     inkscape:cx="61.964398"
     inkscape:cy="92.075247"
     inkscape:window-x="-9"
     inkscape:window-y="-9"
     inkscape:window-maximized="1"
     inkscape:current-layer="g6253" /><g
     id="g6251"
     inkscape:groupmode="layer"
     inkscape:label="ink_ext_XXXXXX"
     transform="matrix(1.3333333,0,0,-1.3333333,-775.13466,266.16063)"><g
       id="g6253"
       transform="matrix(0.1,0,0,0.1,15.031907,0)"><path
         d="m 6674.651,1338.4146 h -1011.46 v 32.781 h 1011.46 v -32.781"
         style="fill:#dddedf;fill-opacity:1;fill-rule:nonzero;stroke:none"
         id="path6695"
         inkscape:connector-curvature="0" /><path
         d="m 5773.461,977.95762 h -63.2 v 360.45698 h 63.2 V 977.95762"
         style="fill:#b3b3b3;fill-opacity:1;fill-rule:nonzero;stroke:none"
         id="path6697"
         inkscape:connector-curvature="0" /><path
         d="m 6651.231,977.95762 h -63.2 v 360.45698 h 63.2 V 977.95762"
         style="fill:#b3b3b3;fill-opacity:1;fill-rule:nonzero;stroke:none"
         id="path6699"
         inkscape:connector-curvature="0" /><path
         d="m 6674.651,1338.4146 h -1011.46 v 16.402 h 1011.46 v -16.402"
         style="fill:#c9c9c9;fill-opacity:1;fill-rule:nonzero;stroke:none"
         id="path6701"
         inkscape:connector-curvature="0" /><path
         d="m 5773.461,1338.4146 -63.2,-31.957 v 31.957 z"
         style="fill:#9e9e9e;fill-opacity:1;fill-rule:nonzero;stroke:none"
         id="path6703"
         inkscape:connector-curvature="0" /><path
         d="m 6651.231,1338.4146 -63.2,-37.84 v 37.84 z"
         style="fill:#9e9e9e;fill-opacity:1;fill-rule:nonzero;stroke:none"
         id="path6705"
         inkscape:connector-curvature="0" /><path
         d="m 5892.301,986.12562 c 0,-11.559 -10.48,-20.93 -23.39,-20.93 -12.93,0 -23.39,9.371 -23.39,20.93 0,11.559 10.46,20.94098 23.39,20.94098 12.91,0 23.39,-9.38198 23.39,-20.94098"
         style="fill:#423b40;fill-opacity:1;fill-rule:nonzero;stroke:none"
         id="path6707"
         inkscape:connector-curvature="0" /><path
         d="m 6085.201,986.12562 c 0,-11.559 -10.47,-20.93 -23.38,-20.93 -12.91,0 -23.37,9.371 -23.37,20.93 0,11.559 10.46,20.94098 23.37,20.94098 12.91,0 23.38,-9.38198 23.38,-20.94098"
         style="fill:#423b40;fill-opacity:1;fill-rule:nonzero;stroke:none"
         id="path6709"
         inkscape:connector-curvature="0" /><path
         d="m 6102.751,988.45762 h -274.77 v 303.61698 h 274.77 V 988.45762"
         style="fill:#cccccc;fill-opacity:1;fill-rule:nonzero;stroke:none"
         id="path6711"
         inkscape:connector-curvature="0" /><path
         d="m 6102.751,1211.7346 h -274.77 v 2.782 h 274.77 v -2.782"
         style="fill:#808080;fill-opacity:1;fill-rule:nonzero;stroke:none"
         id="path6713"
         inkscape:connector-curvature="0" /><path
         d="m 6102.751,1131.9576 h -274.77 v 2.77 h 274.77 v -2.77"
         style="fill:#808080;fill-opacity:1;fill-rule:nonzero;stroke:none"
         id="path6715"
         inkscape:connector-curvature="0" /><path
         d="m 6102.751,1056.6056 h -274.77 v 2.782 h 274.77 v -2.782"
         style="fill:#808080;fill-opacity:1;fill-rule:nonzero;stroke:none"
         id="path6717"
         inkscape:connector-curvature="0" /><path
         d="m 6035.921,1247.7466 h -146.05 v 8.871 h 146.05 v -8.871"
         style="fill:#a8a8a8;fill-opacity:1;fill-rule:nonzero;stroke:none"
         id="path6719"
         inkscape:connector-curvature="0" /><path
         d="m 6035.921,1163.5356 h -146.05 v 8.86 h 146.05 v -8.86"
         style="fill:#a8a8a8;fill-opacity:1;fill-rule:nonzero;stroke:none"
         id="path6721"
         inkscape:connector-curvature="0" /><path
         d="m 6035.921,1083.7546 h -146.05 v 8.863 h 146.05 v -8.863"
         style="fill:#a8a8a8;fill-opacity:1;fill-rule:nonzero;stroke:none"
         id="path6723"
         inkscape:connector-curvature="0" /><path
         d="m 6035.921,1017.2736 h -146.05 v 8.872 h 146.05 v -8.872"
         style="fill:#a8a8a8;fill-opacity:1;fill-rule:nonzero;stroke:none"
         id="path6725"
         inkscape:connector-curvature="0" /><path
         d="m 5827.981,1252.1846 274.77,39.89 h -274.77 z"
         style="fill:#bcbcbc;fill-opacity:1;fill-rule:nonzero;stroke:none"
         id="path6727"
         inkscape:connector-curvature="0" /><path
         d="m 6267.7579,1423.7816 c -3.7907,-15.4755 -2.8902,-30.9564 -6.654,-46.4373 35.3348,0 70.6696,0 105.999,0 -3.8014,15.4809 -3.8823,30.9618 -7.6784,46.4373 -27.7642,0 -63.9132,0 -91.6666,0"
         style="fill:#bbbbc1;fill-opacity:1;fill-rule:nonzero;stroke:none;stroke-width:0.53921562"
         id="path7051"
         inkscape:connector-curvature="0" /><path
         d="m 6134.9814,1441.8615 v -25.5912 c 0,-4.923 3.9848,-8.9132 8.9132,-8.9132 h 340.4015 c 4.923,0 8.9078,3.9902 8.9078,8.9132 v 25.5912 h -358.2225"
         style="fill:#e9ecf3;fill-opacity:1;fill-rule:nonzero;stroke:none;stroke-width:0.53921562"
         id="path7053"
         inkscape:connector-curvature="0" /><path
         d="m 6493.2039,1441.8615 v 216.7107 c 0,4.9123 -3.9848,8.9294 -8.9078,8.9294 h -340.4015 c -4.9284,0 -8.9132,-4.0171 -8.9132,-8.9294 v -216.7107 h 358.2225"
         style="fill:#485060;fill-opacity:1;fill-rule:nonzero;stroke:none;stroke-width:0.53921562"
         id="path7055"
         inkscape:connector-curvature="0" /><path
         d="m 6148.3378,1454.9644 v 196.8946 h 328.8945 v -196.8946 h -328.8945"
         style="fill:#b8bece;fill-opacity:1;fill-rule:nonzero;stroke:none;stroke-width:0.53921562"
         id="path7057"
         inkscape:connector-curvature="0" /><path
         d="m 6441.9784,1454.9644 h -256.7637 v 167.9118 h 256.7637 v -167.9118"
         style="fill:#f4f4f4;fill-opacity:1;fill-rule:nonzero;stroke:none;stroke-width:0.53921562"
         id="path7059"
         inkscape:connector-curvature="0" /><path
         d="m 6441.9784,1593.683 h -256.7637 v 34.5907 h 256.7637 v -34.5907"
         style="fill:#474f5e;fill-opacity:1;fill-rule:nonzero;stroke:none;stroke-width:0.53921562"
         id="path7061"
         inkscape:connector-curvature="0" /><path
         d="m 6379.149,1604.5482 h -82.2735 v 8.7946 h 82.2735 v -8.7946"
         style="fill:#eaeae5;fill-opacity:1;fill-rule:nonzero;stroke:none;stroke-width:0.53921562"
         id="path7063"
         inkscape:connector-curvature="0" /><path
         d="m 6428.4064,1604.5482 h -33.8897 v 8.7946 h 33.8897 v -8.7946"
         style="fill:#eaeae5;fill-opacity:1;fill-rule:nonzero;stroke:none;stroke-width:0.53921562"
         id="path7065"
         inkscape:connector-curvature="0" /><path
         d="m 6206.7025,1604.5482 h -12.8927 v 12.8765 h 12.8927 v -12.8765"
         style="fill:#eaeae5;fill-opacity:1;fill-rule:nonzero;stroke:none;stroke-width:0.53921562"
         id="path7067"
         inkscape:connector-curvature="0" /><path
         d="m 6228.3897,1604.5482 h -12.8764 v 12.8765 h 12.8764 v -12.8765"
         style="fill:#eaeae5;fill-opacity:1;fill-rule:nonzero;stroke:none;stroke-width:0.53921562"
         id="path7069"
         inkscape:connector-curvature="0" /><path
         d="m 6250.0878,1604.5482 h -12.8819 v 12.8765 h 12.8819 v -12.8765"
         style="fill:#eaeae5;fill-opacity:1;fill-rule:nonzero;stroke:none;stroke-width:0.53921562"
         id="path7071"
         inkscape:connector-curvature="0" /><path
         d="m 6363.9971,1571.3218 h -163.7437 v 6.1039 h 163.7437 v -6.1039"
         style="fill:#e0e3ea;fill-opacity:1;fill-rule:nonzero;stroke:none;stroke-width:0.53921562"
         id="path7073"
         inkscape:connector-curvature="0" /><path
         d="m 6332.1294,1555.032 h -131.876 v 6.1148 h 131.876 v -6.1148"
         style="fill:#e0e3ea;fill-opacity:1;fill-rule:nonzero;stroke:none;stroke-width:0.53921562"
         id="path7075"
         inkscape:connector-curvature="0" /><path
         d="m 6288.7387,1538.7747 h -88.4853 v 6.0931 h 88.4853 v -6.0931"
         style="fill:#e0e3ea;fill-opacity:1;fill-rule:nonzero;stroke:none;stroke-width:0.53921562"
         id="path7077"
         inkscape:connector-curvature="0" /><path
         d="m 6340.951,1522.485 h -140.6976 v 6.1255 h 140.6976 v -6.1255"
         style="fill:#e0e3ea;fill-opacity:1;fill-rule:nonzero;stroke:none;stroke-width:0.53921562"
         id="path7079"
         inkscape:connector-curvature="0" /><path
         d="m 6428.4064,1468.9355 h -54.9245 v 108.4902 h 54.9245 v -108.4902"
         style="fill:#e0e3ea;fill-opacity:1;fill-rule:nonzero;stroke:none;stroke-width:0.53921562"
         id="path7081"
         inkscape:connector-curvature="0" /><path
         d="m 6373.649,1378.1693 h -119.1181 c -3.025,0 -5.4677,-2.8794 -5.4677,-6.4382 v -2.4103 h 130.0858 v 2.4103 c 0,3.5588 -2.475,6.4382 -5.5,6.4382"
         style="fill:#a1a4ad;fill-opacity:1;fill-rule:nonzero;stroke:none;stroke-width:0.53921562"
         id="path7083"
         inkscape:connector-curvature="0" /><path
         d="m 6261.1039,1378.1693 101.2809,29.1878 h -97.3015 z"
         style="fill:#d4d4d6;fill-opacity:1;fill-rule:nonzero;stroke:none;stroke-width:0.53921562"
         id="path7085"
         inkscape:connector-curvature="0" /><path
         d="m 6605.3736,1373.0288 -26.107,0.4992 -5.7932,60.0163 37.3022,-0.7145 -5.402,-59.801"
         style="fill:#d8d0c7;fill-opacity:1;fill-rule:nonzero;stroke:none;stroke-width:0.18361904"
         id="path7167"
         inkscape:connector-curvature="0" /><path
         d="m 6615.6103,1427.4826 -46.2279,0.8801 0.1304,6.9351 46.2297,-0.8779 -0.1322,-6.9373"
         style="fill:#e3e4e5;fill-opacity:1;fill-rule:nonzero;stroke:none;stroke-width:0.18361904"
         id="path7169"
         inkscape:connector-curvature="0" /><path
         d="m 6608.9652,1434.5433 -33.617,0.6442 0.094,5.048 33.6207,-0.6449 -0.097,-5.0473"
         style="fill:#e3e4e5;fill-opacity:1;fill-rule:nonzero;stroke:none;stroke-width:0.18361904"
         id="path7171"
         inkscape:connector-curvature="0" /><path
         d="m 6608.1591,1392.3124 -31.5146,0.5968 -2.5523,23.384 36.3548,-0.692 -2.2879,-23.2888"
         style="fill:#803828;fill-opacity:1;fill-rule:nonzero;stroke:none;stroke-width:0.18361904"
         id="path7173"
         inkscape:connector-curvature="0" /><path
         d="m 6610.447,1415.6012 -33.8025,-22.692 31.5146,-0.5968 z"
         style="fill:#682b21;fill-opacity:1;fill-rule:nonzero;stroke:none;stroke-width:0.18361904"
         id="path7175"
         inkscape:connector-curvature="0" /><path
         d="m 6046.2102,1494.174 c 0.8507,2.4766 -0.5371,5.1423 -3.1129,5.935 l -2.0246,0.633 c -2.5711,0.8132 -5.3609,-0.5423 -6.2258,-2.9889 l -26.2245,-75.6285 11.3443,-3.5682 26.2435,75.6176"
         style="fill:#d8253b;fill-opacity:1;fill-rule:nonzero;stroke:none;stroke-width:0.47525346"
         id="path7179"
         inkscape:connector-curvature="0" /><path
         d="m 6046.2102,1494.174 c 0.8507,2.4766 -0.5371,5.1423 -3.1129,5.935 l -2.0246,0.633 c -2.5711,0.8132 -5.3609,-0.5423 -6.2258,-2.9889 l -0.9553,-2.7997 11.3538,-3.5549 0.9648,2.7755"
         style="fill:#ffc23a;fill-opacity:1;fill-rule:nonzero;stroke:none;stroke-width:0.47525346"
         id="path7181"
         inkscape:connector-curvature="0" /><path
         d="m 6008.6652,1422.1061 -0.9648,-21.1004 12.3138,17.5845 z"
         style="fill:#dddedf;fill-opacity:1;fill-rule:nonzero;stroke:none;stroke-width:0.47525346"
         id="path7183"
         inkscape:connector-curvature="0" /><path
         d="m 6011.2886,1406.1333 -3.2936,1.3402 -0.2946,-6.4678 z"
         style="fill:#211007;fill-opacity:1;fill-rule:nonzero;stroke:none;stroke-width:0.47525346"
         id="path7185"
         inkscape:connector-curvature="0" /><path
         d="m 5994.0796,1400.2074 c -0.3897,-2.8905 1.7442,-5.4951 4.7526,-5.7996 l 2.3525,-0.2376 c 3.0131,-0.3082 5.7553,1.8026 6.1402,4.7005 l 11.6628,88.8446 -13.2454,1.344 -11.6627,-88.8519"
         style="fill:#ea5645;fill-opacity:1;fill-rule:nonzero;stroke:none;stroke-width:0.47525346"
         id="path7187"
         inkscape:connector-curvature="0" /><path
         d="m 5994.0796,1400.2074 c -0.3897,-2.8905 1.7442,-5.4951 4.7526,-5.7996 l 2.3525,-0.2376 c 3.0131,-0.3082 5.7553,1.8026 6.1402,4.7005 l 0.4278,3.2657 -13.2549,1.3402 -0.4182,-3.2692"
         style="fill:#ffc23a;fill-opacity:1;fill-rule:nonzero;stroke:none;stroke-width:0.47525346"
         id="path7189"
         inkscape:connector-curvature="0" /><path
         d="m 6018.9544,1487.7338 -3.7307,23.3597 -9.5241,-22.0622 z"
         style="fill:#dddedf;fill-opacity:1;fill-rule:nonzero;stroke:none;stroke-width:0.47525346"
         id="path7191"
         inkscape:connector-curvature="0" /><path
         d="m 6012.4434,1504.6571 3.9256,-0.7257 -1.1453,7.1621 z"
         style="fill:#211007;fill-opacity:1;fill-rule:nonzero;stroke:none;stroke-width:0.47525346"
         id="path7193"
         inkscape:connector-curvature="0" /><path
         d="m 5974.3328,1515.1702 c -0.3231,1.3555 -0.033,2.575 0.6559,2.7384 0.6701,0.1654 1.4828,-0.7889 1.8107,-2.1495 0.3184,-1.3593 0.029,-2.575 -0.6511,-2.7422 -0.6891,-0.165 -1.5065,0.7984 -1.8155,2.1533"
         style="fill:#161819;fill-opacity:1;fill-rule:evenodd;stroke:none;stroke-width:0.47525346"
         id="path7195"
         inkscape:connector-curvature="0" /><path
         d="m 6007.6576,1391.0198 -4.762,-1.1269 c -0.4373,-0.1039 -0.884,0.2005 -0.9933,0.6702 l -4.0777,17.1723 c -0.114,0.4843 0.1474,0.941 0.5751,1.0546 l 4.7715,1.1173 c 0.423,0.1079 0.8697,-0.1911 0.9933,-0.6606 l 4.0682,-17.1762 c 0.1188,-0.4715 -0.1426,-0.9467 -0.5751,-1.0507"
         style="fill:#d8253b;fill-opacity:1;fill-rule:evenodd;stroke:none;stroke-width:0.47525346"
         id="path7197"
         inkscape:connector-curvature="0" /><path
         d="m 6007.3012,1400.7383 -8.469,-2.0198 c -0.7652,-0.1801 -1.4923,0.067 -1.6111,0.5662 l -21.0205,88.4772 c -0.4515,1.9214 -4.2583,26.1442 -2.5141,26.5581 l 4.0872,0.9638 c 1.5018,0.3674 9.0773,-22.2276 9.5336,-24.1414 l 21.182,-89.1861 c 0.1188,-0.4847 -0.4182,-1.036 -1.1881,-1.218"
         style="fill:#5ba53c;fill-opacity:1;fill-rule:evenodd;stroke:none;stroke-width:0.47525346"
         id="path7199"
         inkscape:connector-curvature="0" /><path
         d="m 5994.3173,1411.5374 -0.4325,1.825 11.254,2.6804 0.442,-1.8359 -11.2635,-2.6695"
         style="fill:#d8253b;fill-opacity:1;fill-rule:evenodd;stroke:none;stroke-width:0.47525346"
         id="path7201"
         inkscape:connector-curvature="0" /><path
         d="m 5995.0729,1408.348 -0.442,1.8193 11.273,2.6809 0.4278,-1.8288 -11.2588,-2.6714"
         style="fill:#d8253b;fill-opacity:1;fill-rule:evenodd;stroke:none;stroke-width:0.47525346"
         id="path7203"
         inkscape:connector-curvature="0" /><path
         d="m 6034.5094,1539.3378 c -4.7858,-18.8153 10.9356,-18.388 -4.1584,-34.9606 -6.8199,9.3582 -2.8088,26.4061 4.1584,34.9606"
         style="fill:#e2e2e2;fill-opacity:1;fill-rule:evenodd;stroke:none;stroke-width:0.47525346"
         id="path7205"
         inkscape:connector-curvature="0" /><path
         d="m 6025.6079,1441.6438 c -1.3402,-11.2968 -3.5929,-20.3209 -5.0376,-20.1465 -1.4211,0.1763 -1.5018,9.468 -0.1521,20.7643 l 6.0024,50.4771 5.1898,-0.6235 -6.0025,-50.4714"
         style="fill:#5ba53c;fill-opacity:1;fill-rule:evenodd;stroke:none;stroke-width:0.47525346"
         id="path7207"
         inkscape:connector-curvature="0" /><path
         d="m 6026.4206,1492.7387 5.1898,-0.6235 1.8867,15.8502 -5.1897,0.6183 -1.8868,-15.845"
         style="fill:#d8253b;fill-opacity:1;fill-rule:evenodd;stroke:none;stroke-width:0.47525346"
         id="path7209"
         inkscape:connector-curvature="0" /><path
         d="m 6027.4899,1370.8215 h -39.8547 l -7.2096,76.2354 h 53.9175 l -6.8532,-76.2354"
         style="fill:#3ac2db;fill-opacity:1;fill-rule:nonzero;stroke:none;stroke-width:0.47525346"
         id="path7211"
         inkscape:connector-curvature="0" /><path
         d="m 6031.4488,1370.8215 h -46.6271 v 10.3331 h 46.6271 v -10.3331"
         style="fill:#0088a0;fill-opacity:1;fill-rule:nonzero;stroke:none;stroke-width:0.47525346"
         id="path7213"
         inkscape:connector-curvature="0" /><path
         d="m 6034.3431,1447.0569 -47.6869,-65.9023 h 41.7652 z"
         style="fill:#2fa0af;fill-opacity:1;fill-rule:nonzero;stroke:none;stroke-width:0.47525346"
         id="path7215"
         inkscape:connector-curvature="0" /><path
         d="m 5789.2796,1373.2667 h -61.0353 l -13.1128,74.5204 h 89.004 l -14.8559,-74.5204"
         style="fill:#803828;fill-opacity:1;fill-rule:nonzero;stroke:none;stroke-width:0.43796849"
         id="path7265"
         inkscape:connector-curvature="0" /><path
         d="m 5797.8507,1369.89 h -78.1511 v 11.4003 h 78.1511 V 1369.89"
         style="fill:#c1c1c1;fill-opacity:1;fill-rule:nonzero;stroke:none;stroke-width:0.43796849"
         id="path7267"
         inkscape:connector-curvature="0" /><path
         d="m 5733.3642,1447.7871 c 0,0 -6.8542,83.2797 -38.5106,102.0948 0,0 44.502,-16.7917 48.7809,-102.0948 h -10.2703"
         style="fill:#859e19;fill-opacity:1;fill-rule:nonzero;stroke:none;stroke-width:0.43796849"
         id="path7269"
         inkscape:connector-curvature="0" /><path
         d="m 5774.0295,1447.7871 c 0,0 6.8455,83.2797 38.4975,102.0948 0,0 -44.4889,-16.7917 -48.7766,-102.0948 h 10.2791"
         style="fill:#859e19;fill-opacity:1;fill-rule:nonzero;stroke:none;stroke-width:0.43796849"
         id="path7271"
         inkscape:connector-curvature="0" /><path
         d="m 5746.6346,1447.7871 c 0,0 6.8586,83.2797 38.5237,102.0948 0,0 -44.5063,-16.7917 -48.7897,-102.0948 h 10.266"
         style="fill:#bcd335;fill-opacity:1;fill-rule:nonzero;stroke:none;stroke-width:0.43796849"
         id="path7273"
         inkscape:connector-curvature="0" /><path
         d="m 5774.4369,1447.7871 c 0,0 -6.8367,83.2797 -38.4931,102.0948 0,0 44.4888,-16.7917 48.7634,-102.0948 h -10.2703"
         style="fill:#bcd335;fill-opacity:1;fill-rule:nonzero;stroke:none;stroke-width:0.43796849"
         id="path7275"
         inkscape:connector-curvature="0" /><path
         d="m 5759.0685,1447.7871 c 0,0 4.9491,60.2338 27.8505,73.859 0,0 -32.182,-12.1493 -35.2828,-73.859 h 7.4323"
         style="fill:#bcd335;fill-opacity:1;fill-rule:nonzero;stroke:none;stroke-width:0.43796849"
         id="path7277"
         inkscape:connector-curvature="0" /><path
         d="m 5793.9089,1447.7871 c 0,0 4.9491,60.2338 27.8548,73.859 0,0 -32.1863,-12.1493 -35.2871,-73.859 h 7.4323"
         style="fill:#bcd335;fill-opacity:1;fill-rule:nonzero;stroke:none;stroke-width:0.43796849"
         id="path7279"
         inkscape:connector-curvature="0" /><path
         d="m 5725.3493,1447.7871 c 0,0 -4.949,60.2338 -27.8766,73.859 0,0 32.195,-12.1493 35.2871,-73.859 h -7.4105"
         style="fill:#bcd335;fill-opacity:1;fill-rule:nonzero;stroke:none;stroke-width:0.43796849"
         id="path7281"
         inkscape:connector-curvature="0" /><path
         d="m 5726.856,1381.1458 77.2795,66.6413 -13.2485,-66.4968 z"
         style="fill:#752d29;fill-opacity:1;fill-rule:nonzero;stroke:none;stroke-width:0.43796849"
         id="path7283"
         inkscape:connector-curvature="0" /><path
         d="m 5710.6544,1704.7664 h 212.5228 v 275.4327 h -212.5228 z"
         style="fill:#fafaf9;fill-opacity:1;fill-rule:nonzero;stroke:none;stroke-width:0.22525495"
         id="path8259"
         inkscape:connector-curvature="0" /><path
         d="m 5923.1772,1704.7664 c 0,0 -0.02,0.4572 -0.032,1.3289 -0.01,0.8898 -0.015,2.176 -0.029,3.8632 -0.015,3.4171 -0.036,8.4403 -0.063,14.9704 -0.034,13.0919 -0.081,32.2093 -0.1397,56.4331 -0.065,48.4074 -0.1554,117.1957 -0.2635,198.8349 l 0.527,-0.5271 c -63.5342,-0.016 -135.9598,-0.036 -212.499,-0.059 h -0.024 l 0.587,0.5857 c -0.038,-102.2815 -0.074,-197.1995 -0.103,-275.4305 l -0.484,0.4843 c 64.1344,-0.1037 117.2031,-0.1915 154.2681,-0.2523 18.5468,-0.052 33.0825,-0.095 43.0095,-0.1238 4.9489,-0.025 8.7421,-0.043 11.3281,-0.054 2.5679,-0.018 3.9172,-0.054 3.9172,-0.054 0,0 -1.2795,-0.034 -3.8136,-0.052 -2.5634,-0.014 -6.3274,-0.032 -11.2357,-0.056 -9.9045,-0.029 -24.4019,-0.07 -42.9021,-0.1238 -37.1371,-0.061 -90.3105,-0.1465 -154.5715,-0.2523 h -0.4839 v 0.4843 c -0.029,78.2311 -0.064,173.149 -0.102,275.4305 v 0.5878 h 0.5868 0.024 c 76.5392,-0.02 148.9648,-0.041 212.499,-0.059 h 0.5271 v -0.5293 c -0.1081,-81.7788 -0.1982,-150.6866 -0.2635,-199.1772 -0.059,-24.1721 -0.106,-43.249 -0.1397,-56.3138 -0.027,-6.4851 -0.047,-11.4722 -0.063,-14.8668 -0.014,-1.6623 -0.023,-2.926 -0.029,-3.8045 -0.012,-0.8515 -0.031,-1.2682 -0.031,-1.2682"
         style="fill:#17282f;fill-opacity:1;fill-rule:nonzero;stroke:none;stroke-width:0.22525495"
         id="path8261"
         inkscape:connector-curvature="0" /><path
         d="m 5734.2683,1926.424 72.4161,-0.1306 c 2.3579,-0.01 4.2726,1.9011 4.2771,4.2595 0.01,2.3584 -1.9032,4.2754 -4.2613,4.2776 l -72.4161,0.133 c -2.3571,0.01 -4.2727,-1.9057 -4.2772,-4.2619 v 0 c -0.01,-2.3584 1.9041,-4.2731 4.2614,-4.2776"
         style="fill:#dadbd8;fill-opacity:1;fill-rule:nonzero;stroke:none;stroke-width:0.22525495"
         id="path8263"
         inkscape:connector-curvature="0" /><path
         d="m 5734.373,1909.9083 72.4159,-0.1329 c 2.3573,-0.01 4.2729,1.9034 4.2774,4.2618 v 0 c 0.01,2.3585 -1.9041,4.2731 -4.2614,4.2776 l -72.4161,0.1329 c -2.358,0 -4.2726,-1.9056 -4.2772,-4.2618 v 0 c -0.01,-2.3584 1.9032,-4.2731 4.2614,-4.2776"
         style="fill:#dadbd8;fill-opacity:1;fill-rule:nonzero;stroke:none;stroke-width:0.22525495"
         id="path8265"
         inkscape:connector-curvature="0" /><path
         d="m 5734.4778,1893.3904 72.415,-0.1307 c 2.3581,-0.01 4.2737,1.9034 4.2782,4.2618 v 0 c 0.01,2.3585 -1.9043,4.2731 -4.2622,4.2776 l -72.4161,0.1307 c -2.3573,0.01 -4.2727,-1.9034 -4.2763,-4.2619 v 0 c -0.01,-2.3561 1.9032,-4.273 4.2614,-4.2775"
         style="fill:#dadbd8;fill-opacity:1;fill-rule:nonzero;stroke:none;stroke-width:0.22525495"
         id="path8267"
         inkscape:connector-curvature="0" /><path
         d="m 5734.5816,1876.8747 72.4159,-0.1307 c 2.3582,-0.01 4.2729,1.9034 4.2771,4.2596 0.01,2.3584 -1.9032,4.2753 -4.2613,4.2798 l -72.4159,0.1307 c -2.3582,0.01 -4.2729,-1.9034 -4.2772,-4.2618 v 0 c -0.01,-2.3585 1.9041,-4.2731 4.2614,-4.2776"
         style="fill:#dadbd8;fill-opacity:1;fill-rule:nonzero;stroke:none;stroke-width:0.22525495"
         id="path8269"
         inkscape:connector-curvature="0" /><path
         d="m 5734.6864,1860.359 72.4158,-0.1307 c 2.3582,-0.01 4.2729,1.9035 4.2772,4.2596 v 0 c 0.01,2.3584 -1.9041,4.2731 -4.2623,4.2776 l -72.415,0.1329 c -2.3581,0.01 -4.2728,-1.9034 -4.2771,-4.2618 v 0 c -0.01,-2.3584 1.9032,-4.2731 4.2614,-4.2776"
         style="fill:#dadbd8;fill-opacity:1;fill-rule:nonzero;stroke:none;stroke-width:0.22525495"
         id="path8271"
         inkscape:connector-curvature="0" /><path
         d="m 5734.7909,1843.8433 72.4152,-0.1329 c 2.3582,-0.01 4.2729,1.9034 4.2771,4.2618 0.01,2.3584 -1.9032,4.2731 -4.2614,4.2776 l -72.4158,0.1306 c -2.3582,0.01 -4.2729,-1.9033 -4.2772,-4.2595 v 0 c -0.01,-2.3562 1.9041,-4.2708 4.2621,-4.2753"
         style="fill:#dadbd8;fill-opacity:1;fill-rule:nonzero;stroke:none;stroke-width:0.22525495"
         id="path8273"
         inkscape:connector-curvature="0" /><path
         d="m 5734.8947,1827.3253 72.4161,-0.1306 c 2.3582,-0.01 4.2729,1.9034 4.2772,4.2618 0.01,2.3584 -1.9041,4.2731 -4.2623,4.2776 l -72.415,0.1307 c -2.3582,0.01 -4.2728,-1.9035 -4.2773,-4.2619 -0.01,-2.3584 1.9033,-4.2731 4.2613,-4.2776"
         style="fill:#dadbd8;fill-opacity:1;fill-rule:nonzero;stroke:none;stroke-width:0.22525495"
         id="path8275"
         inkscape:connector-curvature="0" /><path
         d="m 5826.5147,1843.841 72.4161,-0.1306 c 2.3584,-0.01 4.2731,1.9034 4.2776,4.2618 0.01,2.3584 -1.9034,4.2731 -4.2619,4.2776 l -72.416,0.1306 c -2.3582,0.01 -4.2729,-1.9033 -4.2772,-4.2618 v 0 c -0.01,-2.3562 1.9032,-4.273 4.2614,-4.2776"
         style="fill:#dadbd8;fill-opacity:1;fill-rule:nonzero;stroke:none;stroke-width:0.22525495"
         id="path8277"
         inkscape:connector-curvature="0" /><path
         d="m 5826.6194,1827.3253 72.415,-0.1306 c 2.3584,-0.01 4.2731,1.9034 4.2776,4.2618 0.01,2.3584 -1.9034,4.2731 -4.2618,4.2776 l -72.4159,0.1307 c -2.3582,0.01 -4.2728,-1.9035 -4.2771,-4.2619 v 0 c -0.01,-2.3584 1.904,-4.2731 4.2622,-4.2776"
         style="fill:#dadbd8;fill-opacity:1;fill-rule:nonzero;stroke:none;stroke-width:0.22525495"
         id="path8279"
         inkscape:connector-curvature="0" /><path
         d="m 5826.7294,1809.9064 72.4154,-0.1306 c 2.3584,-0.01 4.2731,1.9034 4.2776,4.2618 0.01,2.3584 -1.9034,4.2731 -4.2619,4.2776 l -72.4163,0.1307 c -2.3573,0.01 -4.2728,-1.9035 -4.2771,-4.2618 v 0 c -0.01,-2.3585 1.9041,-4.2732 4.2623,-4.2777"
         style="fill:#dadbd8;fill-opacity:1;fill-rule:nonzero;stroke:none;stroke-width:0.22525495"
         id="path8281"
         inkscape:connector-curvature="0" /><path
         d="m 5826.8393,1792.4874 72.4159,-0.1306 c 2.3584,-0.01 4.273,1.9034 4.2775,4.2618 v 0 c 0.01,2.3584 -1.9033,4.2731 -4.2618,4.2776 l -72.4165,0.1306 c -2.3573,0.01 -4.2729,-1.9034 -4.2774,-4.2618 v 0 c -0.01,-2.3585 1.9041,-4.2731 4.2623,-4.2776"
         style="fill:#dadbd8;fill-opacity:1;fill-rule:nonzero;stroke:none;stroke-width:0.22525495"
         id="path8283"
         inkscape:connector-curvature="0" /><path
         d="m 5826.9492,1775.0684 72.4163,-0.1306 c 2.3562,-0.01 4.2731,1.9035 4.2776,4.2619 0.01,2.3584 -1.9056,4.2731 -4.2618,4.2776 l -72.4161,0.1305 c -2.3582,0.01 -4.2728,-1.9034 -4.2773,-4.2618 v 0 c -0.01,-2.3584 1.9033,-4.2731 4.2613,-4.2776"
         style="fill:#dadbd8;fill-opacity:1;fill-rule:nonzero;stroke:none;stroke-width:0.22525495"
         id="path8285"
         inkscape:connector-curvature="0" /><path
         d="m 5827.0594,1757.6517 72.4165,-0.1329 c 2.3562,-0.01 4.2731,1.9034 4.2753,4.2618 0.01,2.3584 -1.9033,4.2731 -4.2618,4.2776 l -72.4143,0.1307 c -2.3582,0.01 -4.2728,-1.9034 -4.2771,-4.2618 v 0 c -0.01,-2.3562 1.9032,-4.2731 4.2614,-4.2754"
         style="fill:#dadbd8;fill-opacity:1;fill-rule:nonzero;stroke:none;stroke-width:0.22525495"
         id="path8287"
         inkscape:connector-curvature="0" /><path
         d="m 5827.1693,1740.2328 72.4147,-0.133 c 2.3585,-0.01 4.2731,1.9034 4.2776,4.2618 0.01,2.3584 -1.9034,4.2731 -4.2618,4.2776 l -72.4147,0.1306 c -2.358,0.01 -4.2726,-1.9034 -4.2772,-4.2596 v 0 c -0.01,-2.3562 1.9032,-4.2731 4.2614,-4.2754"
         style="fill:#dadbd8;fill-opacity:1;fill-rule:nonzero;stroke:none;stroke-width:0.22525495"
         id="path8289"
         inkscape:connector-curvature="0" /><path
         d="m 5733.8865,1722.3475 164.6366,-0.2996 c 2.3561,-0.01 4.2731,1.9034 4.2753,4.2618 0.01,2.3585 -1.9034,4.2731 -4.2618,4.2777 l -164.6344,0.2995 c -1.5794,0 -2.8623,-1.2749 -2.865,-2.854 l -0.01,-2.8201 c 0,-1.5791 1.2749,-2.8631 2.8544,-2.8653"
         style="fill:#dadbd8;fill-opacity:1;fill-rule:nonzero;stroke:none;stroke-width:0.22525495"
         id="path8291"
         inkscape:connector-curvature="0" /><path
         d="m 5734.1372,1947.9359 47.9169,-0.086 c 2.3582,-0.01 4.2729,1.9034 4.2772,4.2618 v 0 c 0.01,2.3562 -1.9041,4.2731 -4.2623,4.2753 l -47.9167,0.09 c -2.3573,0 -4.2729,-1.9056 -4.2774,-4.2641 v 0 c -0.01,-2.3583 1.9041,-4.273 4.2623,-4.2775"
         style="fill:#dadbd8;fill-opacity:1;fill-rule:nonzero;stroke:none;stroke-width:0.22525495"
         id="path8293"
         inkscape:connector-curvature="0" /><path
         d="m 5788.0646,1749.3916 -35.7723,0.065 c -8.5694,0.015 -15.5038,6.9762 -15.489,15.5449 l 0.055,29.763 c 0.016,8.5709 6.975,15.5042 15.5453,15.4907 l 35.7726,-0.065 c 8.5693,-0.015 15.5038,-6.9761 15.4887,-15.5471 l -0.055,-29.7629 c -0.015,-8.5687 -6.975,-15.5043 -15.5453,-15.4885"
         style="fill:#f2575d;fill-opacity:1;fill-rule:nonzero;stroke:none;stroke-width:0.22525495"
         id="path8295"
         inkscape:connector-curvature="0" /><g
         transform="matrix(0.22525496,0,0,0.22525496,5657.2232,1028.7357)"
         id="g8297"><g
           id="g8299"
           clip-path="url(#clipPath8303)"><path
             d="M 352.855,3199.27 H 650.07 v 151.621 H 352.855 Z"
             style="fill:#a4a6a5;fill-opacity:1;fill-rule:nonzero;stroke:none"
             id="path8305"
             inkscape:connector-curvature="0" /></g></g><path
         d="m 5788.472,1749.3961 -36.3214,0.061 c -8.1646,0.088 -14.8132,6.4806 -15.3164,14.5335 0.087,0.3897 0.3149,0.7366 0.6467,0.9731 l 18.8554,15.6079 c 0.908,0.7681 1.9946,1.4304 3.5108,1.4304 1.2704,0 2.8421,-0.464 4.8642,-1.7187 v 0 c 0.011,-0.01 0.016,-0.012 0.017,-0.012 0,0 -0.01,0 -0.01,0.01 l 10.3318,-5.0007 c 0.2252,-0.1081 0.4662,-0.1599 0.7048,-0.1599 0.432,0 0.858,0.1711 1.1729,0.4955 l 14.6028,15.0876 c 0.9028,0.8492 2.0512,1.2682 3.195,1.2682 1.3234,0 2.6405,-0.5587 3.5654,-1.6579 l 4.9801,-5.9129 c 0.2068,-0.2433 0.3352,-0.5429 0.373,-0.8583 l -0.019,-10.2694 -0.026,-8.9561 c -0.3071,-8.1722 -6.9327,-14.7227 -15.1264,-14.9186 m -23.7538,30.8825 -0.01,0.01 v 0 0 c -0.084,0.054 -0.1117,0.072 -0.1117,0.072 0,0 0.033,-0.02 0.065,-0.041 0.021,-0.015 0.042,-0.029 0.053,-0.036"
         style="fill:#cc4341;fill-opacity:1;fill-rule:nonzero;stroke:none;stroke-width:0.22525495"
         id="path8307"
         inkscape:connector-curvature="0" /><path
         d="m 5761.5777,1787.3381 c -3.4657,0 -6.3941,2.676 -6.652,6.1877 -0.27,3.6784 2.4929,6.8793 6.1709,7.1496 0.1663,0.012 0.3316,0.018 0.4962,0.018 3.4652,0 6.3943,-2.6782 6.6521,-6.19 0.2691,-3.6784 -2.4936,-6.877 -6.1716,-7.1473 -0.1664,-0.012 -0.3318,-0.018 -0.4956,-0.018"
         style="fill:#cc4341;fill-opacity:1;fill-rule:nonzero;stroke:none;stroke-width:0.22525495"
         id="path8309"
         inkscape:connector-curvature="0" /><path
         d="m 5846.7989,1901.8127 c 0.148,-9.2761 7.7803,-16.7004 17.0131,-16.5518 9.2327,0.1487 16.6231,7.8164 16.4751,17.0901 -0.1486,9.276 -7.781,16.7004 -17.0137,16.5517 -9.2318,-0.1486 -16.6232,-7.8163 -16.4745,-17.09 z m 51.7625,0.8357 c 0.3108,-19.399 -15.1461,-35.4349 -34.4564,-35.748 -19.3095,-0.3108 -35.2718,15.2182 -35.5815,34.6172 -0.3106,19.3989 15.1475,35.4348 34.4568,35.7456 19.3096,0.3109 35.2725,-15.2182 35.5811,-34.6148"
         style="fill:#dadbd8;fill-opacity:1;fill-rule:nonzero;stroke:none;stroke-width:0.22525495"
         id="path8311"
         inkscape:connector-curvature="0" /><path
         d="m 5898.5614,1902.6484 c 0.3108,-19.399 -15.1461,-35.4349 -34.4564,-35.748 l -0.293,18.3605 c 9.2327,0.1487 16.6231,7.8164 16.4751,17.0923 -0.1486,9.2738 -7.781,16.6982 -17.0137,16.5495 l -0.2931,18.3605 c 19.3096,0.3109 35.2725,-15.2182 35.5811,-34.6148"
         style="fill:#33535f;fill-opacity:1;fill-rule:nonzero;stroke:none;stroke-width:0.22525495"
         id="path8313"
         inkscape:connector-curvature="0" /><path
         d="m 5867.2498,1864.078 c -22.5908,-0.365 -40.6119,17.1666 -40.9754,39.861 l 21.3807,0.3469 c 0.1734,-10.8528 8.4304,-17.6847 19.2311,-17.509 l 0.3636,-22.6989"
         style="fill:#f2575d;fill-opacity:1;fill-rule:nonzero;stroke:none;stroke-width:0.22525495"
         id="path8315"
         inkscape:connector-curvature="0" /><path
         d="m 6382.7147,1757.7177 h 332.1148 v 237.5424 h -332.1148 z"
         style="fill:#ffffff;fill-opacity:1;fill-rule:nonzero;stroke:none;stroke-width:0.33037704"
         id="path8209"
         inkscape:connector-curvature="0" /><path
         d="m 6714.8333,1995.2559 c 0,0 -0.5616,-0.03 -1.6188,-0.046 -1.0969,-0.01 -2.653,-0.026 -4.6881,-0.046 -4.1594,-0.02 -10.2417,-0.053 -18.1443,-0.092 -15.8614,-0.05 -38.9812,-0.1189 -68.2328,-0.2081 -58.4668,-0.096 -141.3848,-0.2313 -239.4308,-0.3899 l 0.783,0.783 c 0.023,-71.7447 0.05,-152.4558 0.076,-237.5147 v -0.03 l -0.859,0.8623 c 124.3341,-0.06 239.3449,-0.1189 332.1115,-0.1619 l -0.6971,-0.7004 c 0.1519,72.0123 0.2775,131.3051 0.3667,172.6517 0.076,20.6783 0.1356,36.8602 0.1784,47.9212 0.033,5.4975 0.059,9.7131 0.079,12.6072 0.023,2.8578 0.076,4.3643 0.076,4.3643 0,0 0.05,-1.4074 0.076,-4.2156 0.017,-2.8644 0.043,-7.037 0.076,-12.475 0.043,-11.028 0.1024,-27.1537 0.1785,-47.766 0.089,-41.4491 0.2148,-100.8938 0.3667,-173.0878 v -0.6971 h -0.7007 c -92.7666,-0.046 -207.7774,-0.099 -332.1115,-0.1618 h -0.859 v 0.8589 0.03 c 0.026,85.0588 0.053,165.7699 0.076,237.5146 v 0.783 h 0.7797 c 98.2541,-0.1586 181.3505,-0.2907 239.9396,-0.3865 29.1756,-0.089 52.2392,-0.1586 68.0577,-0.2082 7.8332,-0.04 13.8626,-0.073 17.9891,-0.096 1.9954,-0.016 3.525,-0.033 4.5988,-0.043 1.0274,-0.017 1.5296,-0.046 1.5296,-0.046"
         style="fill:#17282f;fill-opacity:1;fill-rule:nonzero;stroke:#000000;stroke-width:0.33000001;stroke-miterlimit:4;stroke-dasharray:none;stroke-opacity:1"
         id="path8211"
         inkscape:connector-curvature="0" /><path
         d="m 6480.4468,1958.6167 h -59.4381 c -2.9239,0 -5.296,-2.3721 -5.296,-5.296 v 0 c 0,-2.9238 2.3721,-5.2959 5.296,-5.2959 h 59.4381 c 2.9239,0 5.296,2.3721 5.296,5.2959 v 0 c 0,2.9239 -2.3721,5.296 -5.296,5.296"
         style="fill:#dadbd8;fill-opacity:1;fill-rule:nonzero;stroke:none;stroke-width:0.33037704"
         id="path8213"
         inkscape:connector-curvature="0" /><path
         d="m 6447.7626,1792.7311 h -26.7539 c -2.9239,0 -5.296,-2.3721 -5.296,-5.296 0,-2.9238 2.3721,-5.2959 5.296,-5.2959 h 26.7539 c 2.9239,0 5.296,2.3721 5.296,5.2959 v 0 c 0,2.9239 -2.3721,5.296 -5.296,5.296"
         style="fill:#dadbd8;fill-opacity:1;fill-rule:nonzero;stroke:none;stroke-width:0.33037704"
         id="path8215"
         inkscape:connector-curvature="0" /><path
         d="m 6504.9542,1792.7311 h -26.7506 c -2.9272,0 -5.296,-2.3721 -5.296,-5.296 0,-2.9238 2.3688,-5.2959 5.296,-5.2959 h 26.7506 c 2.9238,0 5.2959,2.3721 5.2959,5.2959 v 0 c 0,2.9239 -2.3721,5.296 -5.2959,5.296"
         style="fill:#dadbd8;fill-opacity:1;fill-rule:nonzero;stroke:none;stroke-width:0.33037704"
         id="path8217"
         inkscape:connector-curvature="0" /><path
         d="m 6562.1458,1792.7311 h -26.7507 c -2.9238,0 -5.2959,-2.3721 -5.2959,-5.296 v 0 c 0,-2.9238 2.3721,-5.2959 5.2959,-5.2959 h 26.7507 c 2.9271,0 5.2959,2.3721 5.2959,5.2959 v 0 c 0,2.9239 -2.3688,5.296 -5.2959,5.296"
         style="fill:#dadbd8;fill-opacity:1;fill-rule:nonzero;stroke:none;stroke-width:0.33037704"
         id="path8219"
         inkscape:connector-curvature="0" /><path
         d="m 6619.3406,1792.7311 h -26.7539 c -2.9238,0 -5.2959,-2.3721 -5.2959,-5.296 0,-2.9238 2.3721,-5.2959 5.2959,-5.2959 h 26.7539 c 2.9239,0 5.296,2.3721 5.296,5.2959 v 0 c 0,2.9239 -2.3721,5.296 -5.296,5.296"
         style="fill:#dadbd8;fill-opacity:1;fill-rule:nonzero;stroke:none;stroke-width:0.33037704"
         id="path8221"
         inkscape:connector-curvature="0" /><path
         d="m 6676.5322,1792.7311 h -26.7506 c -2.9272,0 -5.296,-2.3721 -5.296,-5.296 0,-2.9238 2.3688,-5.2959 5.296,-5.2959 h 26.7506 c 2.9238,0 5.2959,2.3721 5.2959,5.2959 v 0 c 0,2.9239 -2.3721,5.296 -5.2959,5.296"
         style="fill:#dadbd8;fill-opacity:1;fill-rule:nonzero;stroke:none;stroke-width:0.33037704"
         id="path8223"
         inkscape:connector-curvature="0" /><path
         d="m 6619.3406,1792.7311 h -26.7539 c -2.9238,0 -5.2959,-2.3721 -5.2959,-5.296 0,-2.9238 2.3721,-5.2959 5.2959,-5.2959 h 26.7539 c 2.9239,0 5.296,2.3721 5.296,5.2959 v 0 c 0,2.9239 -2.3721,5.296 -5.296,5.296"
         style="fill:#dadbd8;fill-opacity:1;fill-rule:nonzero;stroke:none;stroke-width:0.33037704"
         id="path8225"
         inkscape:connector-curvature="0" /><path
         d="m 6437.7588,1807.0133 h -13.9386 v 118.7936 h 13.9386 v -118.7936"
         style="fill:#f2575d;fill-opacity:1;fill-rule:nonzero;stroke:none;stroke-width:0.33037704"
         id="path8227"
         inkscape:connector-curvature="0" /><path
         d="m 6450.7294,1807.0133 h 13.9391 v 78.4463 h -13.9391 z"
         style="fill:#f2575d;fill-opacity:1;fill-rule:nonzero;stroke:none;stroke-width:0.33037704"
         id="path8229"
         inkscape:connector-curvature="0" /><path
         d="m 6491.5772,1806.412 h -13.9386 v 104.6304 h 13.9386 V 1806.412"
         style="fill:#f2575d;fill-opacity:1;fill-rule:nonzero;stroke:none;stroke-width:0.33037704"
         id="path8231"
         inkscape:connector-curvature="0" /><path
         d="m 6504.5511,1807.0133 h 13.9391 v 114.206 h -13.9391 z"
         style="fill:#f2575d;fill-opacity:1;fill-rule:nonzero;stroke:none;stroke-width:0.33037704"
         id="path8233"
         inkscape:connector-curvature="0" /><path
         d="m 6545.3989,1807.0133 h -13.9386 v 76.0329 h 13.9386 v -76.0329"
         style="fill:#f2575d;fill-opacity:1;fill-rule:nonzero;stroke:none;stroke-width:0.33037704"
         id="path8235"
         inkscape:connector-curvature="0" /><path
         d="m 6558.3695,1807.0133 h 13.9378 v 61.121 h -13.9378 z"
         style="fill:#f2575d;fill-opacity:1;fill-rule:nonzero;stroke:none;stroke-width:0.33037704"
         id="path8237"
         inkscape:connector-curvature="0" /><path
         d="m 6599.2207,1807.0133 h -13.9386 v 106.6027 h 13.9386 v -106.6027"
         style="fill:#f2575d;fill-opacity:1;fill-rule:nonzero;stroke:none;stroke-width:0.33037704"
         id="path8239"
         inkscape:connector-curvature="0" /><path
         d="m 6612.1913,1807.0133 h 13.9378 v 87.3821 h -13.9378 z"
         style="fill:#f2575d;fill-opacity:1;fill-rule:nonzero;stroke:none;stroke-width:0.33037704"
         id="path8241"
         inkscape:connector-curvature="0" /><path
         d="m 6653.0424,1807.0133 h -13.9386 v 102.7406 h 13.9386 v -102.7406"
         style="fill:#f2575d;fill-opacity:1;fill-rule:nonzero;stroke:none;stroke-width:0.33037704"
         id="path8243"
         inkscape:connector-curvature="0" /><path
         d="m 6666.013,1807.0133 h 13.9378 v 69.9946 h -13.9378 z"
         style="fill:#f2575d;fill-opacity:1;fill-rule:nonzero;stroke:none;stroke-width:0.33037704"
         id="path8245"
         inkscape:connector-curvature="0" /><path
         d="m 6450.7294,1807.0133 h 13.9391 v 78.4463 h -13.9391 z"
         style="fill:#f57e87;fill-opacity:1;fill-rule:nonzero;stroke:none;stroke-width:0.33037704"
         id="path8247"
         inkscape:connector-curvature="0" /><path
         d="m 6504.5511,1807.0133 h 13.9391 v 114.206 h -13.9391 z"
         style="fill:#f57e87;fill-opacity:1;fill-rule:nonzero;stroke:none;stroke-width:0.33037704"
         id="path8249"
         inkscape:connector-curvature="0" /><path
         d="m 6558.3695,1807.0133 h 13.9378 v 61.121 h -13.9378 z"
         style="fill:#f57e87;fill-opacity:1;fill-rule:nonzero;stroke:none;stroke-width:0.33037704"
         id="path8251"
         inkscape:connector-curvature="0" /><path
         d="m 6612.1913,1807.0133 h 13.9378 v 87.3821 h -13.9378 z"
         style="fill:#f57e87;fill-opacity:1;fill-rule:nonzero;stroke:none;stroke-width:0.33037704"
         id="path8253"
         inkscape:connector-curvature="0" /><path
         d="m 6666.013,1807.0133 h 13.9378 v 69.9946 h -13.9378 z"
         style="fill:#f57e87;fill-opacity:1;fill-rule:nonzero;stroke:none;stroke-width:0.33037704"
         id="path8255"
         inkscape:connector-curvature="0" /><path
         d="m 6409.4323,1921.2213 c 0,0 0.017,-0.1817 0.026,-0.5352 0.01,-0.3832 0.016,-0.9019 0.026,-1.5792 0.013,-1.4272 0.03,-3.4855 0.053,-6.1648 0.02,-5.4248 0.053,-13.3275 0.093,-23.361 0.033,-20.1431 0.083,-48.8363 0.1387,-83.1691 l -0.337,0.3931 c 27.0447,0.017 58.7345,0.036 92.4693,0.056 52.7513,-0.05 100.4974,-0.096 135.0878,-0.1321 17.2655,-0.06 31.2471,-0.1091 40.9371,-0.1421 4.8169,-0.036 8.56,-0.066 11.1304,-0.086 1.2554,-0.02 2.2168,-0.033 2.8941,-0.043 0.6541,-0.017 0.9878,-0.046 0.9878,-0.046 0,0 -0.3337,-0.033 -0.9878,-0.046 -0.6773,-0.013 -1.6387,-0.026 -2.8941,-0.046 -2.5704,-0.02 -6.3135,-0.05 -11.1304,-0.083 -9.69,-0.036 -23.6716,-0.086 -40.9371,-0.1454 -34.5904,-0.033 -82.3365,-0.079 -135.0878,-0.1321 -33.7348,0.02 -65.4246,0.04 -92.4693,0.056 h -0.3402 v 0.3964 c 0.059,34.3328 0.1057,63.026 0.142,83.1691 0.04,10.0336 0.069,17.9362 0.092,23.361 0.023,2.6793 0.04,4.7376 0.053,6.1648 0.01,0.6773 0.02,1.196 0.026,1.5792 0.01,0.3535 0.026,0.5352 0.026,0.5352"
         style="fill:#17282f;fill-opacity:1;fill-rule:nonzero;stroke:none;stroke-width:0.33037704"
         id="path8257"
         inkscape:connector-curvature="0" /><path
         d="m 7000.9247,1176.2412 v 9.3026 l -207.134,-0.4046 h -11.9686 v -9.0346 h 11.9686 v -55.7017 h 223.7057 v 55.8383 h -16.5717"
         style="fill:#f3f2f1;fill-opacity:1;fill-rule:nonzero;stroke:none;stroke-width:0.25292635"
         id="path8105"
         inkscape:connector-curvature="0" /><path
         d="m 6950.1371,1119.3378 v 66.206 h 50.7876 v -7.0161 h 16.5717 v -58.1248 l -67.3593,-1.0651"
         style="fill:#e7e8e5;fill-opacity:1;fill-rule:nonzero;stroke:none;stroke-width:0.25292635"
         id="path8107"
         inkscape:connector-curvature="0" /><path
         d="m 7000.9247,1185.5438 c 0,-0.3642 -48.6301,-0.6601 -108.6066,-0.6601 -59.9992,0 -108.6192,0.2959 -108.6192,0.6601 0,0.3617 48.62,0.6576 108.6192,0.6576 59.9765,0 108.6066,-0.2959 108.6066,-0.6576"
         style="fill:#dadbd8;fill-opacity:1;fill-rule:nonzero;stroke:none;stroke-width:0.25292635"
         id="path8109"
         inkscape:connector-curvature="0" /><path
         d="m 7015.8347,1156.285 c 0,-0.3637 -49.523,-0.6601 -110.5996,-0.6601 -61.0995,0 -110.6124,0.2964 -110.6124,0.6601 0,0.3615 49.5129,0.6579 110.6124,0.6579 61.0766,0 110.5996,-0.2964 110.5996,-0.6579"
         style="fill:#dadbd8;fill-opacity:1;fill-rule:nonzero;stroke:none;stroke-width:0.25292635"
         id="path8111"
         inkscape:connector-curvature="0" /><path
         d="m 7017.4964,1136.3264 c 0,-0.3635 -49.8948,-0.6568 -111.4318,-0.6568 -61.5572,0 -111.4419,0.2933 -111.4419,0.6568 0,0.3647 49.8847,0.6611 111.4419,0.6611 61.537,0 111.4318,-0.2964 111.4318,-0.6611"
         style="fill:#dadbd8;fill-opacity:1;fill-rule:nonzero;stroke:none;stroke-width:0.25292635"
         id="path8113"
         inkscape:connector-curvature="0" /><path
         d="m 6783.6989,1176.2412 c 0,0.3642 48.6327,0.6576 108.609,0.6576 59.9967,0 108.6168,-0.2934 108.6168,-0.6576 0,-0.3642 -48.6201,-0.6576 -108.6168,-0.6576 -59.9763,0 -108.609,0.2934 -108.609,0.6576"
         style="fill:#dadbd8;fill-opacity:1;fill-rule:nonzero;stroke:none;stroke-width:0.25292635"
         id="path8115"
         inkscape:connector-curvature="0" /><path
         d="m 6783.709,1119.6947 c 0,-1.5049 0,-83.2257 0,-83.2257 h -11.9685 v -9.0343 h 11.9685 v -55.70187 h 223.7058 v 50.68387 h -16.5718 v 11.04 h 16.5718 v 16.5616 h 7.3651 v 7.5275 h -8.7461 v 62.1489 H 6783.709"
         style="fill:#f3f2f1;fill-opacity:1;fill-rule:nonzero;stroke:none;stroke-width:0.25292635"
         id="path8117"
         inkscape:connector-curvature="0" /><path
         d="M 6948.0074,1119.4516 V 971.73283 l 59.4074,-0.2175 v 51.82907 h -16.5718 v 10.1123 l 16.5718,-0.341 v 16.5589 l 7.5068,-0.01 -0.1417,8.559 -8.7462,0.2469 v 61.2241 l -58.0264,-0.2431"
         style="fill:#e7e8e5;fill-opacity:1;fill-rule:nonzero;stroke:none;stroke-width:0.25292635"
         id="path8119"
         inkscape:connector-curvature="0" /><path
         d="m 7005.753,1036.8739 c 0,-0.3644 -51.9688,-0.6599 -116.0629,-0.6599 -64.1143,0 -116.0729,0.2955 -116.0729,0.6599 0,0.3638 51.9586,0.6572 116.0729,0.6572 64.0941,0 116.0629,-0.2934 116.0629,-0.6572"
         style="fill:#dadbd8;fill-opacity:1;fill-rule:nonzero;stroke:none;stroke-width:0.25292635"
         id="path8121"
         inkscape:connector-curvature="0" /><path
         d="m 6990.843,1027.5711 c 0,-0.3645 -48.6327,-0.6579 -108.6091,-0.6579 -59.9966,0 -108.6167,0.2934 -108.6167,0.6579 0,0.3647 48.6201,0.6581 108.6167,0.6581 59.9764,0 108.6091,-0.2934 108.6091,-0.6581"
         style="fill:#dadbd8;fill-opacity:1;fill-rule:nonzero;stroke:none;stroke-width:0.25292635"
         id="path8123"
         inkscape:connector-curvature="0" /><path
         d="m 7005.753,1007.6156 c 0,-0.3646 -49.523,-0.661 -110.6021,-0.661 -61.0969,0 -110.6098,0.2964 -110.6098,0.661 0,0.3615 49.5129,0.6569 110.6098,0.6569 61.0791,0 110.6021,-0.2954 110.6021,-0.6569"
         style="fill:#dadbd8;fill-opacity:1;fill-rule:nonzero;stroke:none;stroke-width:0.25292635"
         id="path8125"
         inkscape:connector-curvature="0" /><path
         d="m 7014.7799,1058.5824 c 0,-0.3648 -51.5463,-0.6572 -115.1143,-0.6572 -63.5907,0 -115.1245,0.2924 -115.1245,0.6572 0,0.3645 51.5338,0.6599 115.1245,0.6599 63.568,0 115.1143,-0.2954 115.1143,-0.6599"
         style="fill:#dadbd8;fill-opacity:1;fill-rule:nonzero;stroke:none;stroke-width:0.25292635"
         id="path8127"
         inkscape:connector-curvature="0" /><path
         d="m 7005.753,1109.5519 c 0,-0.3635 -49.523,-0.6599 -110.6021,-0.6599 -61.0969,0 -110.6098,0.2964 -110.6098,0.6599 0,0.3617 49.5129,0.6581 110.6098,0.6581 61.0791,0 110.6021,-0.2964 110.6021,-0.6581"
         style="fill:#dadbd8;fill-opacity:1;fill-rule:nonzero;stroke:none;stroke-width:0.25292635"
         id="path8129"
         inkscape:connector-curvature="0" /><path
         d="m 7006.0338,1083.6021 c 0,-0.3644 -49.399,-0.6579 -110.3215,-0.6579 -60.9426,0 -110.3314,0.2935 -110.3314,0.6579 0,0.3637 49.3888,0.6601 110.3314,0.6601 60.9225,0 110.3215,-0.2964 110.3215,-0.6601"
         style="fill:#dadbd8;fill-opacity:1;fill-rule:nonzero;stroke:none;stroke-width:0.25292635"
         id="path8131"
         inkscape:connector-curvature="0" /><path
         d="m 7007.4148,987.65733 c 0,-0.3647 -49.8973,-0.6581 -111.4318,-0.6581 -61.5573,0 -111.4419,0.2934 -111.4419,0.6581 0,0.3634 49.8846,0.6599 111.4419,0.6599 61.5345,0 111.4318,-0.2965 111.4318,-0.6599"
         style="fill:#dadbd8;fill-opacity:1;fill-rule:nonzero;stroke:none;stroke-width:0.25292635"
         id="path8133"
         inkscape:connector-curvature="0" /><path
         d="m 6811.4221,1083.6021 v -12.1177 h 9.5935 v 12.1177 h -9.5935"
         style="fill:#f2575d;fill-opacity:1;fill-rule:nonzero;stroke:none;stroke-width:0.25292635"
         id="path8135"
         inkscape:connector-curvature="0" /><path
         d="m 6884.5583,1058.4203 v -12.1198 h 18.284 v 12.1198 h -18.284"
         style="fill:#f2575d;fill-opacity:1;fill-rule:nonzero;stroke:none;stroke-width:0.25292635"
         id="path8137"
         inkscape:connector-curvature="0" /><path
         d="m 7006.0338,1119.9494 c 0,-0.3635 -49.7734,-0.6599 -111.1586,-0.6599 -61.4055,0 -111.1662,0.2964 -111.1662,0.6599 0,0.3647 49.7607,0.6581 111.1662,0.6581 61.3852,0 111.1586,-0.2934 111.1586,-0.6581"
         style="fill:#17282f;fill-opacity:1;fill-rule:nonzero;stroke:none;stroke-width:0.25292635"
         id="path8139"
         inkscape:connector-curvature="0" /><path
         d="m 6792.4577,1375.4106 c 0,-1.3861 0,-76.6695 0,-76.6695 h -11.0251 v -8.3214 h 11.0251 v -51.3137 h 206.0819 v 46.6903 h -15.2642 v 10.1727 h 15.2642 v 15.254 h 6.7835 v 6.9352 h -8.0558 v 57.2524 h -204.8096"
         style="fill:#f3f2f1;fill-opacity:1;fill-rule:nonzero;stroke:none;stroke-width:0.25292635"
         id="path8141"
         inkscape:connector-curvature="0" /><path
         d="m 6897.5612,1375.188 v -136.082 l 100.9784,-0.1998 v 47.7449 h -15.2642 v 9.3179 l 15.2642,-0.3162 v 15.254 l 6.9175,-0.01 -0.1341,7.8837 -8.0558,0.2301 v 56.4001 l -99.706,-0.2227"
         style="fill:#e7e8e5;fill-opacity:1;fill-rule:nonzero;stroke:none;stroke-width:0.25292635"
         id="path8143"
         inkscape:connector-curvature="0" /><path
         d="m 6997.0094,1299.1153 c 0,-0.3642 -47.8765,-0.6601 -106.9196,-0.6601 -59.0634,0 -106.9297,0.2959 -106.9297,0.6601 0,0.3617 47.8663,0.6577 106.9297,0.6577 59.0431,0 106.9196,-0.296 106.9196,-0.6577"
         style="fill:#dadbd8;fill-opacity:1;fill-rule:nonzero;stroke:none;stroke-width:0.25292635"
         id="path8145"
         inkscape:connector-curvature="0" /><path
         d="m 6983.2754,1290.5462 c 0,-0.3642 -44.8007,-0.6602 -100.0526,-0.6602 -55.2719,0 -100.0627,0.296 -100.0627,0.6602 0,0.3617 44.7908,0.6576 100.0627,0.6576 55.2519,0 100.0526,-0.2959 100.0526,-0.6576"
         style="fill:#dadbd8;fill-opacity:1;fill-rule:nonzero;stroke:none;stroke-width:0.25292635"
         id="path8147"
         inkscape:connector-curvature="0" /><path
         d="m 6997.0094,1272.161 c 0,-0.3642 -45.6229,-0.6601 -101.8863,-0.6601 -56.2863,0 -101.899,0.2959 -101.899,0.6601 0,0.3642 45.6127,0.6576 101.899,0.6576 56.2634,0 101.8863,-0.2934 101.8863,-0.6576"
         style="fill:#dadbd8;fill-opacity:1;fill-rule:nonzero;stroke:none;stroke-width:0.25292635"
         id="path8149"
         inkscape:connector-curvature="0" /><path
         d="m 7005.3231,1319.1142 c 0,-0.3642 -47.4819,-0.6601 -106.0445,-0.6601 -58.5803,0 -106.0545,0.2959 -106.0545,0.6601 0,0.3617 47.4742,0.6577 106.0545,0.6577 58.5626,0 106.0445,-0.296 106.0445,-0.6577"
         style="fill:#dadbd8;fill-opacity:1;fill-rule:nonzero;stroke:none;stroke-width:0.25292635"
         id="path8151"
         inkscape:connector-curvature="0" /><path
         d="m 6997.0094,1366.0675 c 0,-0.3642 -45.6229,-0.6602 -101.8863,-0.6602 -56.2863,0 -101.899,0.296 -101.899,0.6602 0,0.3617 45.6127,0.6576 101.899,0.6576 56.2634,0 101.8863,-0.2959 101.8863,-0.6576"
         style="fill:#dadbd8;fill-opacity:1;fill-rule:nonzero;stroke:none;stroke-width:0.25292635"
         id="path8153"
         inkscape:connector-curvature="0" /><path
         d="m 6997.5658,1351.0083 c 0,-0.3617 -45.6229,-0.6576 -101.8888,-0.6576 -56.2838,0 -101.8965,0.2959 -101.8965,0.6576 0,0.3642 45.6127,0.6601 101.8965,0.6601 56.2659,0 101.8888,-0.2959 101.8888,-0.6601"
         style="fill:#dadbd8;fill-opacity:1;fill-rule:nonzero;stroke:none;stroke-width:0.25292635"
         id="path8155"
         inkscape:connector-curvature="0" /><path
         d="m 6997.2673,1342.1634 c 0,-0.3642 -45.5064,-0.6601 -101.6283,-0.6601 -56.142,0 -101.6384,0.2959 -101.6384,0.6601 0,0.3617 45.4964,0.6577 101.6384,0.6577 56.1219,0 101.6283,-0.296 101.6283,-0.6577"
         style="fill:#dadbd8;fill-opacity:1;fill-rule:nonzero;stroke:none;stroke-width:0.25292635"
         id="path8157"
         inkscape:connector-curvature="0" /><path
         d="m 6998.5396,1253.7757 c 0,-0.3642 -45.9644,-0.6575 -102.6527,-0.6575 -56.7061,0 -102.6628,0.2933 -102.6628,0.6575 0,0.3642 45.9567,0.6577 102.6628,0.6577 56.6883,0 102.6527,-0.2935 102.6527,-0.6577"
         style="fill:#dadbd8;fill-opacity:1;fill-rule:nonzero;stroke:none;stroke-width:0.25292635"
         id="path8159"
         inkscape:connector-curvature="0" /><path
         d="m 6834.4309,1351.3522 v -12.8739 h 13.4228 v 12.8739 h -13.4228"
         style="fill:#f2575d;fill-opacity:1;fill-rule:nonzero;stroke:none;stroke-width:0.25292635"
         id="path8161"
         inkscape:connector-curvature="0" /><path
         d="m 6885.3626,1318.965 v -11.1667 h 16.8424 v 11.1667 h -16.8424"
         style="fill:#f2575d;fill-opacity:1;fill-rule:nonzero;stroke:none;stroke-width:0.25292635"
         id="path8163"
         inkscape:connector-curvature="0" /><path
         d="m 6927.7404,1310.7449 c 0,4.2998 2.81,7.7851 6.2751,7.7851 h 30.0022 c 3.465,0 6.275,-3.4853 6.275,-7.7851 0,-4.2997 -2.81,-7.7851 -6.275,-7.7851 h -30.0022 c -3.4651,0 -6.2751,3.4854 -6.2751,7.7851 z m -40.0129,18.967 v -105.4324 h 122.5782 v 105.4324 h -122.5782"
         style="fill:#33535f;fill-opacity:1;fill-rule:nonzero;stroke:none;stroke-width:0.25292635"
         id="path8165"
         inkscape:connector-curvature="0" /><path
         d="m 6776.2122,1329.7119 v -105.4324 h 113.8725 v 105.4324 h -113.8725"
         style="fill:#17282f;fill-opacity:1;fill-rule:nonzero;stroke:none;stroke-width:0.25292635"
         id="path8167"
         inkscape:connector-curvature="0" /><path
         d="m 6896.9846,1328.1791 c -0.3642,0 -0.6602,10.375 -0.6602,23.1706 0,12.8006 0.296,23.1731 0.6602,23.1731 0.3617,0 0.6575,-10.3725 0.6575,-23.1731 0,-12.7956 -0.2958,-23.1706 -0.6575,-23.1706"
         style="fill:#17282f;fill-opacity:1;fill-rule:nonzero;stroke:none;stroke-width:0.25292635"
         id="path8169"
         inkscape:connector-curvature="0" /><path
         d="m 6997.0094,1329.7119 c -0.022,0 -0.046,0.2731 -0.068,0.8068 -0.018,0.607 -0.04,1.3861 -0.068,2.3649 -0.031,2.17 -0.071,5.2153 -0.1264,9.0901 -0.05,7.9899 -0.1215,19.3894 -0.2126,33.4369 l 0.4755,-0.4755 c -26.4863,-0.048 -62.5486,-0.1113 -102.2682,-0.1821 -39.7321,0.071 -75.7944,0.134 -102.2834,0.1821 l 0.4755,0.4755 c -0.088,-14.0475 -0.1618,-25.447 -0.2124,-33.4369 -0.053,-3.8748 -0.096,-6.9201 -0.1265,-9.0926 -0.028,-0.9763 -0.05,-1.7554 -0.068,-2.3624 -0.023,-0.5337 -0.046,-0.8068 -0.068,-0.8068 -0.022,0 -0.046,0.2731 -0.068,0.8068 -0.018,0.607 -0.04,1.3861 -0.068,2.3624 -0.031,2.1725 -0.071,5.2178 -0.1264,9.0926 -0.05,7.9899 -0.1215,19.3894 -0.2125,33.4369 v 0.4755 h 0.478 c 26.4889,0.048 62.5512,0.1113 102.2834,0.1821 39.7195,-0.071 75.7818,-0.134 102.2683,-0.1821 h 0.478 v -0.4755 c -0.088,-14.0475 -0.1618,-25.447 -0.2125,-33.4369 -0.053,-3.8748 -0.096,-6.9201 -0.1265,-9.0901 -0.028,-0.9788 -0.05,-1.7579 -0.068,-2.3649 -0.02,-0.5337 -0.046,-0.8068 -0.068,-0.8068"
         style="fill:#17282f;fill-opacity:1;fill-rule:nonzero;stroke:none;stroke-width:0.25292635"
         id="path8171"
         inkscape:connector-curvature="0" /><path
         d="m 6855.1986,1191.0425 h -72.0006 v 28.3682 h 72.0006 v -28.3682"
         style="fill:#e7e8e5;fill-opacity:1;fill-rule:nonzero;stroke:none;stroke-width:0.25292635"
         id="path8173"
         inkscape:connector-curvature="0" /><path
         d="m 7006.3196,1218.3383 h -226.1213 v 5.9412 h 226.1213 v -5.9412"
         style="fill:#f2575d;fill-opacity:1;fill-rule:nonzero;stroke:none;stroke-width:0.25292635"
         id="path8175"
         inkscape:connector-curvature="0" /><path
         d="M 7006.3196,1186.3658 H 6781.248 v 5.9413 h 225.0716 v -5.9413"
         style="fill:#f2575d;fill-opacity:1;fill-rule:nonzero;stroke:none;stroke-width:0.25292635"
         id="path8177"
         inkscape:connector-curvature="0" /><path
         d="m 6855.1986,1222.8656 0.339,-35.3667 h 150.782 v 35.3667 h -151.121"
         style="fill:#f2575d;fill-opacity:1;fill-rule:nonzero;stroke:none;stroke-width:0.25292635"
         id="path8179"
         inkscape:connector-curvature="0" /><path
         d="m 6891.8451,1205.219 c 0,-4.8613 -3.6497,-8.8018 -8.1518,-8.8018 -4.5021,0 -8.1493,3.9405 -8.1493,8.8018 0,4.8586 3.6472,8.7993 8.1493,8.7993 4.5021,0 8.1518,-3.9407 8.1518,-8.7993"
         style="fill:#17282f;fill-opacity:1;fill-rule:nonzero;stroke:none;stroke-width:0.25292635"
         id="path8181"
         inkscape:connector-curvature="0" /><path
         d="m 6883.6958,1212.7561 c -3.7964,0 -6.8871,-3.3815 -6.8871,-7.5397 0,-4.153 3.0907,-7.5346 6.8871,-7.5346 3.7964,0 6.8822,3.3816 6.8822,7.5346 0,4.1582 -3.0858,7.5397 -6.8822,7.5397 z m 0,-17.6036 c -5.1926,0 -9.4164,4.5148 -9.4164,10.0639 0,5.5517 4.2238,10.0691 9.4164,10.0691 5.1875,0 9.4114,-4.5174 9.4114,-10.0691 0,-5.5491 -4.2239,-10.0639 -9.4114,-10.0639"
         style="fill:#dadbd8;fill-opacity:1;fill-rule:nonzero;stroke:none;stroke-width:0.25292635"
         id="path8183"
         inkscape:connector-curvature="0" /><path
         d="m 6849.7885,1197.9979 c 0,-0.3642 -14.7937,-0.6601 -33.0397,-0.6601 -18.2512,0 -33.0424,0.2959 -33.0424,0.6601 0,0.3617 14.7912,0.6576 33.0424,0.6576 18.246,0 33.0397,-0.2959 33.0397,-0.6576"
         style="fill:#17282f;fill-opacity:1;fill-rule:nonzero;stroke:none;stroke-width:0.25292635"
         id="path8185"
         inkscape:connector-curvature="0" /><path
         d="m 6849.7885,1202.9376 c 0,-0.3642 -14.7937,-0.6577 -33.0397,-0.6577 -18.2512,0 -33.0424,0.2935 -33.0424,0.6577 0,0.3642 14.7912,0.6601 33.0424,0.6601 18.246,0 33.0397,-0.2959 33.0397,-0.6601"
         style="fill:#17282f;fill-opacity:1;fill-rule:nonzero;stroke:none;stroke-width:0.25292635"
         id="path8187"
         inkscape:connector-curvature="0" /><path
         d="m 6849.7885,1207.8797 c 0,-0.3642 -14.7937,-0.6576 -33.0397,-0.6576 -18.2512,0 -33.0424,0.2934 -33.0424,0.6576 0,0.3642 14.7912,0.6577 33.0424,0.6577 18.246,0 33.0397,-0.2935 33.0397,-0.6577"
         style="fill:#17282f;fill-opacity:1;fill-rule:nonzero;stroke:none;stroke-width:0.25292635"
         id="path8189"
         inkscape:connector-curvature="0" /><path
         d="m 6849.7885,1212.8219 c 0,-0.3642 -14.7937,-0.6601 -33.0397,-0.6601 -18.2512,0 -33.0424,0.2959 -33.0424,0.6601 0,0.3617 14.7912,0.6576 33.0424,0.6576 18.246,0 33.0397,-0.2959 33.0397,-0.6576"
         style="fill:#17282f;fill-opacity:1;fill-rule:nonzero;stroke:none;stroke-width:0.25292635"
         id="path8191"
         inkscape:connector-curvature="0" /><path
         d="m 6989.5986,1196.4172 h -67.9487 v 18.9264 h 67.9487 v -18.9264"
         style="fill:#ffffff;fill-opacity:1;fill-rule:nonzero;stroke:none;stroke-width:0.25292635"
         id="path8193"
         inkscape:connector-curvature="0" /><path
         d="m 6932.2349,1198.3393 c -0.3642,0 -0.6576,3.3766 -0.6576,7.5398 0,4.1657 0.2934,7.5422 0.6576,7.5422 0.3642,0 0.6577,-3.3765 0.6577,-7.5422 0,-4.1632 -0.2935,-7.5398 -0.6577,-7.5398"
         style="fill:#dadbd8;fill-opacity:1;fill-rule:nonzero;stroke:none;stroke-width:0.25292635"
         id="path8195"
         inkscape:connector-curvature="0" /><path
         d="m 6941.2189,1198.3393 c -0.3642,0 -0.6576,3.3766 -0.6576,7.5398 0,4.1657 0.2934,7.5422 0.6576,7.5422 0.3642,0 0.6601,-3.3765 0.6601,-7.5422 0,-4.1632 -0.2959,-7.5398 -0.6601,-7.5398"
         style="fill:#dadbd8;fill-opacity:1;fill-rule:nonzero;stroke:none;stroke-width:0.25292635"
         id="path8197"
         inkscape:connector-curvature="0" /><path
         d="m 6950.2028,1198.3393 c -0.3617,0 -0.6576,3.3766 -0.6576,7.5398 0,4.1657 0.2959,7.5422 0.6576,7.5422 0.3642,0 0.6602,-3.3765 0.6602,-7.5422 0,-4.1632 -0.296,-7.5398 -0.6602,-7.5398"
         style="fill:#dadbd8;fill-opacity:1;fill-rule:nonzero;stroke:none;stroke-width:0.25292635"
         id="path8199"
         inkscape:connector-curvature="0" /><path
         d="m 6959.1893,1198.3393 c -0.3642,0 -0.6601,3.3766 -0.6601,7.5398 0,4.1657 0.2959,7.5422 0.6601,7.5422 0.3617,0 0.6576,-3.3765 0.6576,-7.5422 0,-4.1632 -0.2959,-7.5398 -0.6576,-7.5398"
         style="fill:#dadbd8;fill-opacity:1;fill-rule:nonzero;stroke:none;stroke-width:0.25292635"
         id="path8201"
         inkscape:connector-curvature="0" /><path
         d="m 6968.1732,1198.3393 c -0.3642,0 -0.6601,3.3766 -0.6601,7.5398 0,4.1657 0.2959,7.5422 0.6601,7.5422 0.3642,0 0.6577,-3.3765 0.6577,-7.5422 0,-4.1632 -0.2935,-7.5398 -0.6577,-7.5398"
         style="fill:#dadbd8;fill-opacity:1;fill-rule:nonzero;stroke:none;stroke-width:0.25292635"
         id="path8203"
         inkscape:connector-curvature="0" /><path
         d="m 6977.1572,1198.3393 c -0.3642,0 -0.6576,3.3766 -0.6576,7.5398 0,4.1657 0.2934,7.5422 0.6576,7.5422 0.3642,0 0.6576,-3.3765 0.6576,-7.5422 0,-4.1632 -0.2934,-7.5398 -0.6576,-7.5398"
         style="fill:#dadbd8;fill-opacity:1;fill-rule:nonzero;stroke:none;stroke-width:0.25292635"
         id="path8205"
         inkscape:connector-curvature="0" /><path
         d="m 6856.2179,1186.4442 c -0.3617,0 -0.6576,8.4099 -0.6576,18.7798 0,10.375 0.2959,18.7823 0.6576,18.7823 0.3642,0 0.6602,-8.4073 0.6602,-18.7823 0,-10.3699 -0.296,-18.7798 -0.6602,-18.7798"
         style="fill:#17282f;fill-opacity:1;fill-rule:nonzero;stroke:none;stroke-width:0.25292635"
         id="path8207"
         inkscape:connector-curvature="0" /><path
         d="m 7140.6548,1329.7928 h -70.3604 v 27.7226 h 70.3604 v -27.7226"
         style="fill:#e7e8e5;fill-opacity:1;fill-rule:nonzero;stroke:none;stroke-width:0.24717028"
         id="path8621"
         inkscape:connector-curvature="0" /><path
         d="m 7288.3383,1356.4674 h -220.9752 v 5.806 h 220.9752 v -5.806"
         style="fill:#33535f;fill-opacity:1;fill-rule:nonzero;stroke:none;stroke-width:0.24717028"
         id="path8623"
         inkscape:connector-curvature="0" /><path
         d="m 7288.3383,1325.2226 h -219.9507 v 5.806 h 219.9507 v -5.806"
         style="fill:#33535f;fill-opacity:1;fill-rule:nonzero;stroke:none;stroke-width:0.24717028"
         id="path8625"
         inkscape:connector-curvature="0" /><path
         d="m 7140.6548,1360.8917 0.3332,-34.5618 h 147.3503 v 34.5618 h -147.6835"
         style="fill:#33535f;fill-opacity:1;fill-rule:nonzero;stroke:none;stroke-width:0.24717028"
         id="path8627"
         inkscape:connector-curvature="0" /><path
         d="m 7176.4676,1343.6442 c 0,-4.7482 -3.5657,-8.5991 -7.9653,-8.5991 -4.3989,0 -7.9646,3.8509 -7.9646,8.5991 0,4.7506 3.5657,8.6015 7.9646,8.6015 4.3996,0 7.9653,-3.8509 7.9653,-8.6015"
         style="fill:#17282f;fill-opacity:1;fill-rule:nonzero;stroke:none;stroke-width:0.24717028"
         id="path8629"
         inkscape:connector-curvature="0" /><path
         d="m 7168.5023,1351.0098 c -3.7096,0 -6.7288,-3.3046 -6.7288,-7.3656 0,-4.0586 3.0192,-7.3632 6.7288,-7.3632 3.7112,0 6.7294,3.3046 6.7294,7.3632 0,4.061 -3.0182,7.3656 -6.7294,7.3656 z m 0,-17.2005 c -5.073,0 -9.2005,4.412 -9.2005,9.8349 0,5.4254 4.1275,9.8374 9.2005,9.8374 5.0736,0 9.2011,-4.412 9.2011,-9.8374 0,-5.4229 -4.1275,-9.8349 -9.2011,-9.8349"
         style="fill:#dadbd8;fill-opacity:1;fill-rule:nonzero;stroke:none;stroke-width:0.24717028"
         id="path8631"
         inkscape:connector-curvature="0" /><path
         d="m 7135.3678,1336.5875 c 0,-0.3535 -14.4564,-0.6427 -32.2866,-0.6427 -17.8358,0 -32.2895,0.2892 -32.2895,0.6427 0,0.3559 14.4537,0.6451 32.2895,0.6451 17.8302,0 32.2866,-0.2892 32.2866,-0.6451"
         style="fill:#17282f;fill-opacity:1;fill-rule:nonzero;stroke:none;stroke-width:0.24717028"
         id="path8633"
         inkscape:connector-curvature="0" /><path
         d="m 7135.3678,1341.4172 c 0,-0.356 -14.4564,-0.6427 -32.2866,-0.6427 -17.8358,0 -32.2895,0.2867 -32.2895,0.6427 0,0.3559 14.4537,0.6451 32.2895,0.6451 17.8302,0 32.2866,-0.2892 32.2866,-0.6451"
         style="fill:#17282f;fill-opacity:1;fill-rule:nonzero;stroke:none;stroke-width:0.24717028"
         id="path8635"
         inkscape:connector-curvature="0" /><path
         d="m 7135.3678,1346.2469 c 0,-0.3559 -14.4564,-0.6451 -32.2866,-0.6451 -17.8358,0 -32.2895,0.2892 -32.2895,0.6451 0,0.3559 14.4537,0.6426 32.2895,0.6426 17.8302,0 32.2866,-0.2867 32.2866,-0.6426"
         style="fill:#17282f;fill-opacity:1;fill-rule:nonzero;stroke:none;stroke-width:0.24717028"
         id="path8637"
         inkscape:connector-curvature="0" /><path
         d="m 7135.3678,1351.0766 c 0,-0.3559 -14.4564,-0.6451 -32.2866,-0.6451 -17.8358,0 -32.2895,0.2892 -32.2895,0.6451 0,0.3534 14.4537,0.6426 32.2895,0.6426 17.8302,0 32.2866,-0.2892 32.2866,-0.6426"
         style="fill:#17282f;fill-opacity:1;fill-rule:nonzero;stroke:none;stroke-width:0.24717028"
         id="path8639"
         inkscape:connector-curvature="0" /><path
         d="m 7271.9969,1335.0451 h -66.4008 v 18.4958 h 66.4008 v -18.4958"
         style="fill:#ffffff;fill-opacity:1;fill-rule:nonzero;stroke:none;stroke-width:0.24717028"
         id="path8641"
         inkscape:connector-curvature="0" /><path
         d="m 7215.9387,1336.9236 c -0.3554,0 -0.6431,3.2997 -0.6431,7.3682 0,4.0709 0.2877,7.3706 0.6431,7.3706 0.3562,0 0.6439,-3.2997 0.6439,-7.3706 0,-4.0685 -0.2877,-7.3682 -0.6439,-7.3682"
         style="fill:#dadbd8;fill-opacity:1;fill-rule:nonzero;stroke:none;stroke-width:0.24717028"
         id="path8643"
         inkscape:connector-curvature="0" /><path
         d="m 7224.7189,1336.9236 c -0.3554,0 -0.6441,3.2997 -0.6441,7.3682 0,4.0709 0.2887,7.3706 0.6441,7.3706 0.3552,0 0.6439,-3.2997 0.6439,-7.3706 0,-4.0685 -0.2887,-7.3682 -0.6439,-7.3682"
         style="fill:#dadbd8;fill-opacity:1;fill-rule:nonzero;stroke:none;stroke-width:0.24717028"
         id="path8645"
         inkscape:connector-curvature="0" /><path
         d="m 7233.4992,1336.9236 c -0.3552,0 -0.6439,3.2997 -0.6439,7.3682 0,4.0709 0.2887,7.3706 0.6439,7.3706 0.3554,0 0.6431,-3.2997 0.6431,-7.3706 0,-4.0685 -0.2877,-7.3682 -0.6431,-7.3682"
         style="fill:#dadbd8;fill-opacity:1;fill-rule:nonzero;stroke:none;stroke-width:0.24717028"
         id="path8647"
         inkscape:connector-curvature="0" /><path
         d="m 7242.2796,1336.9236 c -0.3564,0 -0.6441,3.2997 -0.6441,7.3682 0,4.0709 0.2877,7.3706 0.6441,7.3706 0.3542,0 0.6429,-3.2997 0.6429,-7.3706 0,-4.0685 -0.2887,-7.3682 -0.6429,-7.3682"
         style="fill:#dadbd8;fill-opacity:1;fill-rule:nonzero;stroke:none;stroke-width:0.24717028"
         id="path8649"
         inkscape:connector-curvature="0" /><path
         d="m 7251.0589,1336.9236 c -0.3552,0 -0.6439,3.2997 -0.6439,7.3682 0,4.0709 0.2887,7.3706 0.6439,7.3706 0.3554,0 0.6441,-3.2997 0.6441,-7.3706 0,-4.0685 -0.2887,-7.3682 -0.6441,-7.3682"
         style="fill:#dadbd8;fill-opacity:1;fill-rule:nonzero;stroke:none;stroke-width:0.24717028"
         id="path8651"
         inkscape:connector-curvature="0" /><path
         d="m 7259.8393,1336.9236 c -0.3564,0 -0.6441,3.2997 -0.6441,7.3682 0,4.0709 0.2877,7.3706 0.6441,7.3706 0.3552,0 0.6429,-3.2997 0.6429,-7.3706 0,-4.0685 -0.2877,-7.3682 -0.6429,-7.3682"
         style="fill:#dadbd8;fill-opacity:1;fill-rule:nonzero;stroke:none;stroke-width:0.24717028"
         id="path8653"
         inkscape:connector-curvature="0" /><path
         d="m 7141.6534,1325.2992 c -0.3554,0 -0.6441,8.2184 -0.6441,18.3524 0,10.1389 0.2887,18.3549 0.6441,18.3549 0.3552,0 0.6429,-8.216 0.6429,-18.3549 0,-10.134 -0.2877,-18.3524 -0.6429,-18.3524"
         style="fill:#17282f;fill-opacity:1;fill-rule:nonzero;stroke:none;stroke-width:0.24717028"
         id="path8655"
         inkscape:connector-curvature="0" /><path
         d="m 7282.9671,1315.4099 v 9.0909 l -210.6287,-0.3954 h -12.1702 v -8.829 h 12.1702 v -54.4343 h 227.4805 v 54.5678 h -16.8518"
         style="fill:#f3f2f1;fill-opacity:1;fill-rule:nonzero;stroke:none;stroke-width:0.24717028"
         id="path8657"
         inkscape:connector-curvature="0" /><path
         d="m 7231.3221,1260.8421 v 63.6587 h 51.645 v -6.8565 h 16.8518 v -56.8022 h -68.4968"
         style="fill:#e7e8e5;fill-opacity:1;fill-rule:nonzero;stroke:none;stroke-width:0.24717028"
         id="path8659"
         inkscape:connector-curvature="0" /><path
         d="m 7282.9671,1324.5008 c 0,-0.3559 -49.4524,-0.6451 -110.4397,-0.6451 -61.0095,0 -110.4514,0.2892 -110.4514,0.6451 0,0.3535 49.4419,0.6427 110.4514,0.6427 60.9873,0 110.4397,-0.2892 110.4397,-0.6427"
         style="fill:#dadbd8;fill-opacity:1;fill-rule:nonzero;stroke:none;stroke-width:0.24717028"
         id="path8661"
         inkscape:connector-curvature="0" /><path
         d="m 7298.1285,1295.9082 c 0,-0.3559 -50.359,-0.6451 -112.4664,-0.6451 -62.1285,0 -112.4769,0.2892 -112.4769,0.6451 0,0.3534 50.3484,0.6426 112.4769,0.6426 62.1074,0 112.4664,-0.2892 112.4664,-0.6426"
         style="fill:#dadbd8;fill-opacity:1;fill-rule:nonzero;stroke:none;stroke-width:0.24717028"
         id="path8663"
         inkscape:connector-curvature="0" /><path
         d="m 7299.8164,1276.404 c 0,-0.356 -50.7366,-0.6427 -113.3095,-0.6427 -62.5959,0 -113.3217,0.2867 -113.3217,0.6427 0,0.3559 50.7258,0.6451 113.3217,0.6451 62.5729,0 113.3095,-0.2892 113.3095,-0.6451"
         style="fill:#dadbd8;fill-opacity:1;fill-rule:nonzero;stroke:none;stroke-width:0.24717028"
         id="path8665"
         inkscape:connector-curvature="0" /><path
         d="m 7062.076,1315.4099 c 0,0.3559 49.4525,0.6427 110.4408,0.6427 61.0086,0 110.4503,-0.2868 110.4503,-0.6427 0,-0.3559 -49.4417,-0.6426 -110.4503,-0.6426 -60.9883,0 -110.4408,0.2867 -110.4408,0.6426"
         style="fill:#dadbd8;fill-opacity:1;fill-rule:nonzero;stroke:none;stroke-width:0.24717028"
         id="path8667"
         inkscape:connector-curvature="0" /><path
         d="m 7078.2038,1115.5727 c 0,-1.4704 0,-81.3314 0,-81.3314 h -12.1702 v -8.8286 h 12.1702 v -54.4346 h 227.478 v 49.5307 h -16.8501 v 10.7885 h 16.8501 v 16.1849 h 7.4892 v 7.3563 h -8.8932 v 60.7342 h -226.074"
         style="fill:#f3f2f1;fill-opacity:1;fill-rule:nonzero;stroke:none;stroke-width:0.24717028"
         id="path8669"
         inkscape:connector-curvature="0" /><path
         d="M 7245.2746,1115.3352 V 970.9781 l 60.4072,-0.2123 v 50.6496 h -16.8501 v 9.8819 l 16.8501,-0.3329 v 16.1817 l 7.6351,-0.01 -0.1459,8.3642 -8.8932,0.2425 v 59.8292 l -59.0033,-0.2376"
         style="fill:#e7e8e5;fill-opacity:1;fill-rule:nonzero;stroke:none;stroke-width:0.24717028"
         id="path8671"
         inkscape:connector-curvature="0" /><path
         d="m 7303.9936,1034.6371 c 0,-0.3562 -52.8457,-0.6449 -118.0206,-0.6449 -65.1969,0 -118.0315,0.2887 -118.0315,0.6449 0,0.3554 52.8346,0.6421 118.0315,0.6421 65.1749,0 118.0206,-0.2867 118.0206,-0.6421"
         style="fill:#dadbd8;fill-opacity:1;fill-rule:nonzero;stroke:none;stroke-width:0.24717028"
         id="path8673"
         inkscape:connector-curvature="0" /><path
         d="m 7288.8317,1025.5459 c 0,-0.3564 -49.4516,-0.6432 -110.4399,-0.6432 -61.0095,0 -110.4503,0.2868 -110.4503,0.6432 0,0.3562 49.4408,0.6429 110.4503,0.6429 60.9883,0 110.4399,-0.2867 110.4399,-0.6429"
         style="fill:#dadbd8;fill-opacity:1;fill-rule:nonzero;stroke:none;stroke-width:0.24717028"
         id="path8675"
         inkscape:connector-curvature="0" /><path
         d="m 7303.9936,1006.0444 c 0,-0.3562 -50.3597,-0.6459 -112.4659,-0.6459 -62.1295,0 -112.4781,0.2897 -112.4781,0.6459 0,0.3534 50.3486,0.6421 112.4781,0.6421 62.1062,0 112.4659,-0.2887 112.4659,-0.6421"
         style="fill:#dadbd8;fill-opacity:1;fill-rule:nonzero;stroke:none;stroke-width:0.24717028"
         id="path8677"
         inkscape:connector-curvature="0" /><path
         d="m 7313.171,1055.8512 c 0,-0.3552 -52.4134,-0.6419 -117.0554,-0.6419 -64.6629,0 -117.066,0.2867 -117.066,0.6419 0,0.3564 52.4031,0.6451 117.066,0.6451 64.642,0 117.0554,-0.2887 117.0554,-0.6451"
         style="fill:#dadbd8;fill-opacity:1;fill-rule:nonzero;stroke:none;stroke-width:0.24717028"
         id="path8679"
         inkscape:connector-curvature="0" /><path
         d="m 7303.9936,1105.661 c 0,-0.3555 -50.3597,-0.6452 -112.4659,-0.6452 -62.1295,0 -112.4781,0.2897 -112.4781,0.6452 0,0.3532 50.3486,0.6428 112.4781,0.6428 62.1062,0 112.4659,-0.2896 112.4659,-0.6428"
         style="fill:#dadbd8;fill-opacity:1;fill-rule:nonzero;stroke:none;stroke-width:0.24717028"
         id="path8681"
         inkscape:connector-curvature="0" /><path
         d="m 7304.2778,1080.3018 c 0,-0.3535 -50.2306,-0.6429 -112.1807,-0.6429 -61.971,0 -112.192,0.2894 -112.192,0.6429 0,0.3554 50.221,0.6448 112.192,0.6448 61.9501,0 112.1807,-0.2894 112.1807,-0.6448"
         style="fill:#dadbd8;fill-opacity:1;fill-rule:nonzero;stroke:none;stroke-width:0.24717028"
         id="path8683"
         inkscape:connector-curvature="0" /><path
         d="m 7305.6818,986.5402 c 0,-0.3562 -50.7367,-0.6429 -113.3103,-0.6429 -62.5949,0 -113.3219,0.2867 -113.3219,0.6429 0,0.3554 50.727,0.6451 113.3219,0.6451 62.5736,0 113.3103,-0.2897 113.3103,-0.6451"
         style="fill:#dadbd8;fill-opacity:1;fill-rule:nonzero;stroke:none;stroke-width:0.24717028"
         id="path8685"
         inkscape:connector-curvature="0" /><path
         d="m 7106.3852,1080.3018 v -11.842 h 9.7555 v 11.842 h -9.7555"
         style="fill:#f2575d;fill-opacity:1;fill-rule:nonzero;stroke:none;stroke-width:0.24717028"
         id="path8687"
         inkscape:connector-curvature="0" /><path
         d="m 7180.7535,1055.693 v -11.8439 h 18.5929 v 11.8439 h -18.5929"
         style="fill:#f2575d;fill-opacity:1;fill-rule:nonzero;stroke:none;stroke-width:0.24717028"
         id="path8689"
         inkscape:connector-curvature="0" /><path
         d="m 7069.5751,1260.8767 c 0,-1.4706 0,-81.3314 0,-81.3314 h -12.1702 v -8.8264 h 12.1702 v -54.4346 h 227.4787 v 49.5307 h -16.8508 v 10.789 h 16.8508 v 16.1823 h 7.4885 v 7.3557 h -8.8922 v 60.7347 h -226.075"
         style="fill:#f3f2f1;fill-opacity:1;fill-rule:nonzero;stroke:none;stroke-width:0.24717028"
         id="path8691"
         inkscape:connector-curvature="0" /><path
         d="m 7236.6459,1260.6419 v -144.3576 l 60.4079,-0.2123 v 50.6477 h -16.8508 v 9.8843 l 16.8508,-0.3361 v 16.1847 l 7.6344,-0.012 -0.1459,8.3643 -8.8923,0.2447 v 59.8276 l -59.0042,-0.2348"
         style="fill:#e7e8e5;fill-opacity:1;fill-rule:nonzero;stroke:none;stroke-width:0.24717028"
         id="path8693"
         inkscape:connector-curvature="0" /><path
         d="m 7295.3651,1179.9408 c 0,-0.3559 -52.846,-0.6426 -118.0208,-0.6426 -65.1969,0 -118.0316,0.2867 -118.0316,0.6426 0,0.3559 52.8347,0.6427 118.0316,0.6427 65.1748,0 118.0208,-0.2868 118.0208,-0.6427"
         style="fill:#dadbd8;fill-opacity:1;fill-rule:nonzero;stroke:none;stroke-width:0.24717028"
         id="path8695"
         inkscape:connector-curvature="0" /><path
         d="m 7280.203,1170.8499 c 0,-0.3535 -49.4516,-0.6426 -110.4399,-0.6426 -61.0096,0 -110.4504,0.2891 -110.4504,0.6426 0,0.3559 49.4408,0.6451 110.4504,0.6451 60.9883,0 110.4399,-0.2892 110.4399,-0.6451"
         style="fill:#dadbd8;fill-opacity:1;fill-rule:nonzero;stroke:none;stroke-width:0.24717028"
         id="path8697"
         inkscape:connector-curvature="0" /><path
         d="m 7295.3651,1151.3479 c 0,-0.3554 -50.3599,-0.6421 -112.4662,-0.6421 -62.1297,0 -112.478,0.2867 -112.478,0.6421 0,0.3562 50.3483,0.6429 112.478,0.6429 62.1063,0 112.4662,-0.2867 112.4662,-0.6429"
         style="fill:#dadbd8;fill-opacity:1;fill-rule:nonzero;stroke:none;stroke-width:0.24717028"
         id="path8699"
         inkscape:connector-curvature="0" /><path
         d="m 7304.5423,1201.1579 c 0,-0.3559 -52.4137,-0.6451 -117.0544,-0.6451 -64.6639,0 -117.067,0.2892 -117.067,0.6451 0,0.3535 52.4031,0.6427 117.067,0.6427 64.6407,0 117.0544,-0.2892 117.0544,-0.6427"
         style="fill:#dadbd8;fill-opacity:1;fill-rule:nonzero;stroke:none;stroke-width:0.24717028"
         id="path8701"
         inkscape:connector-curvature="0" /><path
         d="m 7295.3651,1250.9652 c 0,-0.3559 -50.3599,-0.6426 -112.4662,-0.6426 -62.1297,0 -112.478,0.2867 -112.478,0.6426 0,0.3559 50.3483,0.6426 112.478,0.6426 62.1063,0 112.4662,-0.2867 112.4662,-0.6426"
         style="fill:#dadbd8;fill-opacity:1;fill-rule:nonzero;stroke:none;stroke-width:0.24717028"
         id="path8703"
         inkscape:connector-curvature="0" /><path
         d="m 7249.5961,1225.608 4.8085,-11.8444 h 19.1952 l -5.8028,11.8444 h -18.2009"
         style="fill:#f2575d;fill-opacity:1;fill-rule:nonzero;stroke:none;stroke-width:0.24717028"
         id="path8705"
         inkscape:connector-curvature="0" /><path
         d="m 7295.6501,1225.608 c 0,-0.3559 -50.2317,-0.6451 -112.1817,-0.6451 -61.971,0 -112.192,0.2892 -112.192,0.6451 0,0.3535 50.221,0.6426 112.192,0.6426 61.95,0 112.1817,-0.2891 112.1817,-0.6426"
         style="fill:#dadbd8;fill-opacity:1;fill-rule:nonzero;stroke:none;stroke-width:0.24717028"
         id="path8707"
         inkscape:connector-curvature="0" /><path
         d="m 7297.0538,1131.8464 c 0,-0.3561 -50.7374,-0.6448 -113.311,-0.6448 -62.5949,0 -113.3219,0.2887 -113.3219,0.6448 0,0.3535 50.727,0.6432 113.3219,0.6432 62.5736,0 113.311,-0.2897 113.311,-0.6432"
         style="fill:#dadbd8;fill-opacity:1;fill-rule:nonzero;stroke:none;stroke-width:0.24717028"
         id="path8709"
         inkscape:connector-curvature="0" /><path
         d="m 7139.7272,1225.608 v -11.8444 h 9.7553 v 11.8444 h -9.7553"
         style="fill:#f2575d;fill-opacity:1;fill-rule:nonzero;stroke:none;stroke-width:0.24717028"
         id="path8711"
         inkscape:connector-curvature="0" /><path
         d="m 7304.2778,1115.8219 c 0,-0.3552 -52.9592,-0.6449 -118.2729,-0.6449 -65.336,0 -118.2845,0.2897 -118.2845,0.6449 0,0.3564 52.9485,0.6431 118.2845,0.6431 65.3137,0 118.2729,-0.2867 118.2729,-0.6431"
         style="fill:#17282f;fill-opacity:1;fill-rule:nonzero;stroke:none;stroke-width:0.24717028"
         id="path8713"
         inkscape:connector-curvature="0" /><path
         d="m 7296.0711,1260.8767 c 0,-0.3534 -51.1218,-0.6426 -114.1697,-0.6426 -63.0697,0 -114.181,0.2892 -114.181,0.6426 0,0.356 51.1113,0.6451 114.181,0.6451 63.0479,0 114.1697,-0.2891 114.1697,-0.6451"
         style="fill:#17282f;fill-opacity:1;fill-rule:nonzero;stroke:none;stroke-width:0.24717028"
         id="path8715"
         inkscape:connector-curvature="0" /><path
         d="m 7350.0587,1094.4194 -3.3368,-61.3919 c -0.1186,-2.1848 -1.918,-3.9026 -4.1079,-3.9169 l -110.4703,-0.8112 c -2.2893,-0.017 -4.1584,1.8268 -4.175,4.1151 l -0.3505,47.7859 c -0.017,2.299 1.8414,4.172 4.1411,4.175 l 67.941,0.062 c 1.0974,0 2.1504,0.4343 2.9264,1.2107 l 11.7233,11.7183 c 0.7687,0.7687 1.8118,1.206 2.8993,1.2136 l 28.6397,0.2106 c 2.3901,0.017 4.2983,-1.985 4.1697,-4.3709"
         style="fill:#f2575d;fill-opacity:1;fill-rule:nonzero;stroke:none;stroke-width:0.24717028"
         id="path8717"
         inkscape:connector-curvature="0" /><path
         d="m 7228.0634,1019.4709 120.7002,0.8844 -0.529,72.1263 -120.6994,-0.8844 0.5282,-72.1263"
         style="fill:#f3f2f1;fill-opacity:1;fill-rule:nonzero;stroke:none;stroke-width:0.24717028"
         id="path8719"
         inkscape:connector-curvature="0" /><path
         d="m 7357.8841,1086.0804 -8.6633,-75.2807 c -0.1557,-1.3392 -1.2828,-2.3501 -2.6299,-2.3607 l -117.6295,-0.8622 c -1.3914,-0.01 -2.5558,1.0505 -2.6754,2.4369 l -6.4729,75.1697 c -0.1332,1.5497 1.0814,2.882 2.6358,2.8946 l 132.7683,0.9714 c 1.6017,0.011 2.8498,-1.3797 2.6669,-2.969"
         style="fill:#f2575d;fill-opacity:1;fill-rule:nonzero;stroke:none;stroke-width:0.24717028"
         id="path8721"
         inkscape:connector-curvature="0" /><path
         d="m 7382.5592,1105.9998 -3.3368,-61.3899 c -0.1187,-2.187 -1.9181,-3.9026 -4.108,-3.9201 l -110.4698,-0.808 c -2.2893,-0.017 -4.1594,1.8238 -4.1757,4.1129 l -0.3495,47.7879 c -0.017,2.2989 1.8412,4.172 4.1411,4.1749 l 67.9402,0.059 c 1.0974,0 2.1504,0.4375 2.9265,1.2136 l 11.7233,11.7186 c 0.7687,0.7684 1.8117,1.204 2.8993,1.2116 l 28.6396,0.2096 c 2.3901,0.017 4.2983,-1.9823 4.1698,-4.3699"
         style="fill:#f2575d;fill-opacity:1;fill-rule:nonzero;stroke:none;stroke-width:0.24717028"
         id="path8723"
         inkscape:connector-curvature="0" /><path
         d="m 7380.7622,1100.5794 -0.025,3.4826 -39.0603,-0.2867 5.1733,5.1733 c 0.7687,0.7684 1.8118,1.2039 2.8993,1.2116 l 28.6396,0.2096 c 0.01,0 0.022,0 0.032,0 2.3012,0 4.1475,-1.8713 4.145,-4.148 0,-0.073 0,-0.1476 -0.01,-0.222 l -0.2941,-5.4078 -1.5028,-0.013"
         style="fill:#cc4341;fill-opacity:1;fill-rule:nonzero;stroke:none;stroke-width:0.24717028"
         id="path8725"
         inkscape:connector-curvature="0" /><path
         d="m 7260.5633,1031.0531 120.7007,0.8844 -0.5265,72.1245 -120.7021,-0.8854 0.5279,-72.1235"
         style="fill:#f3f2f1;fill-opacity:1;fill-rule:nonzero;stroke:none;stroke-width:0.24717028"
         id="path8727"
         inkscape:connector-curvature="0" /><path
         d="m 7390.3846,1097.6608 -8.6634,-75.2809 c -0.1533,-1.3372 -1.2828,-2.3509 -2.6298,-2.3607 l -117.6301,-0.8632 c -1.3904,-0.01 -2.5548,1.0535 -2.6744,2.4381 l -6.4729,75.1714 c -0.134,1.5468 1.0814,2.8823 2.6361,2.8919 l 132.7675,0.9741 c 1.6017,0.013 2.8499,-1.3797 2.667,-2.9707"
         style="fill:#f2575d;fill-opacity:1;fill-rule:nonzero;stroke:none;stroke-width:0.24717028"
         id="path8729"
         inkscape:connector-curvature="0" /><path
         d="m 7261.443,1019.156 c -1.3827,0 -2.5375,1.0584 -2.6561,2.4381 l -6.4729,75.1714 c -0.01,0.079 -0.011,0.1556 -0.011,0.2319 0,1.4491 1.1701,2.6504 2.6464,2.66 l 132.7676,0.9741 c 0.01,0 0.015,0 0.02,0 1.4855,0 2.6645,-1.2089 2.6645,-2.657 0,-0.1044 -0.01,-0.2077 -0.017,-0.3137 l -8.6634,-75.2809 c -0.1533,-1.3372 -1.2828,-2.3509 -2.6298,-2.3607 l -117.6301,-0.8632 c -0.01,0 -0.013,0 -0.019,0"
         style="fill:#cc4341;fill-opacity:1;fill-rule:nonzero;stroke:none;stroke-width:0.24717028"
         id="path8731"
         inkscape:connector-curvature="0" /><path
         d="m 7419.1873,1091.6271 -3.3368,-61.3926 c -0.1186,-2.187 -1.9205,-3.9026 -4.1104,-3.9202 l -110.4678,-0.808 c -2.2893,-0.017 -4.1587,1.8239 -4.176,4.1149 l -0.3495,47.786 c -0.017,2.2989 1.8412,4.1719 4.1399,4.1749 l 67.9421,0.059 c 1.0975,0 2.1504,0.4375 2.9265,1.2136 l 11.7209,11.7183 c 0.7711,0.7687 1.8117,1.204 2.9017,1.2139 l 28.6397,0.2074 c 2.3901,0.02 4.2982,-1.9821 4.1697,-4.367"
         style="fill:#f2575d;fill-opacity:1;fill-rule:nonzero;stroke:none;stroke-width:0.24717028"
         id="path8733"
         inkscape:connector-curvature="0" /><path
         d="m 7297.192,1016.6777 120.7001,0.8843 -0.5289,72.1246 -120.7004,-0.8824 0.5292,-72.1265"
         style="fill:#f3f2f1;fill-opacity:1;fill-rule:nonzero;stroke:none;stroke-width:0.24717028"
         id="path8735"
         inkscape:connector-curvature="0" /><path
         d="m 7427.0127,1083.2871 -8.6633,-75.2826 c -0.1557,-1.3372 -1.2828,-2.3511 -2.6299,-2.3608 l -117.6296,-0.8601 c -1.3913,-0.013 -2.5557,1.0505 -2.6756,2.4349 l -6.4726,75.1716 c -0.1333,1.5468 1.0813,2.882 2.6358,2.8946 l 132.7683,0.9714 c 1.5992,0.013 2.8499,-1.3797 2.6669,-2.969"
         style="fill:#f2575d;fill-opacity:1;fill-rule:nonzero;stroke:none;stroke-width:0.24717028"
         id="path8737"
         inkscape:connector-curvature="0" /><path
         d="m 7338.108,1054.2602 c 0,4.2577 3.4506,7.7114 7.7093,7.7114 h 36.8753 c 4.2588,0 7.7093,-3.4537 7.7093,-7.7114 0,-4.2571 -3.4505,-7.7098 -7.7093,-7.7098 h -36.8753 c -4.2587,0 -7.7093,3.4527 -7.7093,7.7098 z m -49.177,18.7869 V 968.6203 h 150.6479 v 104.4268 H 7288.931"
         style="fill:#33535f;fill-opacity:1;fill-rule:nonzero;stroke:none;stroke-width:0.24717028"
         id="path8739"
         inkscape:connector-curvature="0" /><path
         d="M 7207.7183,1073.0471 V 968.6203 h 81.2127 v 104.4268 h -81.2127"
         style="fill:#17282f;fill-opacity:1;fill-rule:nonzero;stroke:none;stroke-width:0.24717028"
         id="path8741"
         inkscape:connector-curvature="0" /></g></g></svg>