<?xml version="1.0" encoding="UTF-8" standalone="no"?>
<svg
   xmlns:dc="http://purl.org/dc/elements/1.1/"
   xmlns:cc="http://creativecommons.org/ns#"
   xmlns:rdf="http://www.w3.org/1999/02/22-rdf-syntax-ns#"
   xmlns:svg="http://www.w3.org/2000/svg"
   xmlns="http://www.w3.org/2000/svg"
   xmlns:sodipodi="http://sodipodi.sourceforge.net/DTD/sodipodi-0.dtd"
   xmlns:inkscape="http://www.inkscape.org/namespaces/inkscape"
   version="1.1"
   id="svg2"
   xml:space="preserve"
   width="1122.52"
   height="1122.52"
   viewBox="0 0 1122.52 1122.52"
   sodipodi:docname="question.svg"
   inkscape:version="1.0.1 (3bc2e813f5, 2020-09-07)"><metadata
     id="metadata8"><rdf:RDF><cc:Work
         rdf:about=""><dc:format>image/svg+xml</dc:format><dc:type
           rdf:resource="http://purl.org/dc/dcmitype/StillImage" /><dc:title></dc:title></cc:Work></rdf:RDF></metadata><defs
     id="defs6"><clipPath
       clipPathUnits="userSpaceOnUse"
       id="clipPath108"><path
         d="m 2876.6,4441.44 c -13.2,0 -24.8,9.77 -26.7,23.28 -2.08,14.75 8.23,28.52 22.93,30.6 l 38.13,5.36 6.25,-44.38 c -2.61,-3.13 -4.29,-6.52 -5.27,-10.17 l -31.57,-4.43 c -1.27,-0.18 -2.53,-0.26 -3.77,-0.26"
         id="path106" /></clipPath></defs><sodipodi:namedview
     pagecolor="#ffffff"
     bordercolor="#666666"
     borderopacity="1"
     objecttolerance="10"
     gridtolerance="10"
     guidetolerance="10"
     inkscape:pageopacity="0"
     inkscape:pageshadow="2"
     inkscape:window-width="1920"
     inkscape:window-height="1106"
     id="namedview4"
     showgrid="false"
     inkscape:zoom="0.65477674"
     inkscape:cx="561.26001"
     inkscape:cy="561.26001"
     inkscape:window-x="-11"
     inkscape:window-y="-11"
     inkscape:window-maximized="1"
     inkscape:current-layer="g12" /><g
     id="g10"
     inkscape:groupmode="layer"
     inkscape:label="ink_ext_XXXXXX"
     transform="matrix(1.3333333,0,0,-1.3333333,0,1122.52)"><g
       id="g12"
       transform="scale(0.1)"><path
         d="m 3999.65,932.621 c -1350.02,0 -2444.38,84.259 -2444.38,188.239 0,86.82 762.61,159.91 1799.94,181.69 v -162.18 h 1319.16 v 161.53 c 1021.77,-22.56 1769.62,-95.07 1769.62,-181.04 0,-103.98 -1094.38,-188.239 -2444.34,-188.239"
         style="fill:#d1d5d7;fill-opacity:1;fill-rule:nonzero;stroke:none"
         id="path14" /><path
         d="M 4674.37,1140.37 H 3355.21 V 2262.1 H 4674.37 V 1140.37 M 3359.72,2997.92 c 2.96,418.72 65.07,725.3 186.19,919.75 121.13,194.39 362.63,430.73 724.62,708.96 212.32,173.4 382.13,360.42 509.23,560.86 127.11,200.31 190.7,424.68 190.7,672.98 0,275.2 -72.53,490.57 -217.57,646.11 -145.15,155.46 -352.24,233.31 -621.43,233.31 -221.44,0 -409.12,-65.8 -563.1,-197.42 -154.06,-131.7 -232.64,-324.61 -235.53,-578.81 H 2058.58 l -9.01,26.95 c -8.94,574.31 180.14,1013.98 567.59,1319.08 387.3,305.1 892.11,457.7 1514.3,457.7 670.01,0 1195.72,-169.8 1577.11,-509.25 381.33,-339.51 572.04,-800.9 572.04,-1384.22 0,-379.85 -111.45,-731.33 -334.27,-1054.38 -222.84,-323.05 -501.8,-593.81 -836.73,-812.14 -182.5,-140.62 -302.23,-281.9 -358.96,-424.01 -56.85,-142.09 -85.29,-337.22 -85.29,-585.47 H 3359.72"
         style="fill:#155de9;fill-opacity:1;fill-rule:nonzero;stroke:none"
         id="path16" /><path
         d="m 3354.6,2007.24 v 90.24 c 0.19,0.06 0.42,0.13 0.61,0.19 v -90.26 c -0.2,-0.06 -0.41,-0.11 -0.61,-0.17"
         style="fill:#cfbcbb;fill-opacity:1;fill-rule:nonzero;stroke:none"
         id="path18" /><path
         d="m 3355.21,2007.41 v 90.26 c 231.47,70.03 432.62,108.76 508.71,162.57 h 52.88 c -29.02,-52.65 -94.14,-97.61 -240.41,-151.34 -86.6,-31.81 -260.22,-84.64 -321.18,-101.49"
         style="fill:#cf3100;fill-opacity:1;fill-rule:nonzero;stroke:none"
         id="path20" /><path
         d="m 1905.52,1297.25 -13.55,-11.19 105.68,-127.82 c 0,0 29.64,24.5 50.05,41.36 28.48,23.57 -266.13,335.62 -342.04,365.65 l -26.4,-21.83 c 0,0 78.76,-95.29 108.32,-131.04 36.72,-44.43 85.12,-91.7 117.94,-115.13"
         style="fill:#1d282e;fill-opacity:1;fill-rule:nonzero;stroke:none"
         id="path22" /><path
         d="m 1931.92,1319.08 c 43.86,-31.42 92.53,-91.37 115.78,-119.48 40.63,32.64 88.96,79.3 128.96,115.97 38.33,36.61 -41.4,118.88 -117.52,110.28 -105.77,10.03 -241.48,152.19 -300.84,156.41 -32.17,2.26 -52.64,-17.01 -52.64,-17.01 0,0 78.77,-95.29 108.33,-131.05 36.71,-44.4 87.31,-93.22 117.93,-115.12"
         style="fill:#2b434a;fill-opacity:1;fill-rule:nonzero;stroke:none"
         id="path24" /><path
         d="m 2955.78,1161.88 0.21,-17.56 165.84,1.96 c 0,0 -0.46,38.45 -0.78,64.93 -0.44,36.98 -428.3,3.64 -499.33,-36.59 l 0.4,-34.26 c 0,0 123.62,1.47 170.01,2.02 57.62,0.68 124.81,8.66 163.65,19.5"
         style="fill:#1d282e;fill-opacity:1;fill-rule:nonzero;stroke:none"
         id="path26" /><path
         d="m 2955.38,1196.13 c 51.98,14.42 129.21,14.64 165.67,15.08 1.66,49.61 0.61,62.4 0.61,161.03 -4.43,52.82 -138.2,81.37 -179.31,16.72 -20.77,-119.41 -260.27,-119.14 -300.83,-162.69 -21.96,-23.61 -19.8,-51.65 -19.8,-51.65 0,0 123.61,1.48 170.01,2.03 57.61,0.68 127.37,9.4 163.65,19.48"
         style="fill:#2b434a;fill-opacity:1;fill-rule:nonzero;stroke:none"
         id="path28" /><path
         d="m 3395,2687.23 c 0,0 -560,-76.66 -775,-113.33 -105.37,-17.97 -379.08,-61.6 -258.34,-343.33 140.16,-327.04 553.34,-875 553.34,-875 h 221.66 l -436.66,880 955.12,127.78 c 0,0 315.97,383.66 -260.12,323.88"
         style="fill:#152429;fill-opacity:1;fill-rule:nonzero;stroke:none"
         id="path30" /><path
         d="m 3993.33,2647.23 c 0,0 -555.22,-65.91 -674.62,-68.51 -5.5,-0.11 -47.34,-127.22 -53.71,-129.82 -298.33,-121.67 -515.74,-222.01 -791.67,-471.66 -280,-253.33 -455,-538.34 -455,-538.34 l 145,-170 c 0,0 396.99,440.33 690.02,617.52 389.98,235.81 887.91,282.72 1013.32,375.81 161.67,120 126.66,385 126.66,385"
         style="fill:#1b2f35;fill-opacity:1;fill-rule:nonzero;stroke:none"
         id="path32" /><path
         d="m 3100.91,3934.8 c 22.85,11.66 24.01,-19.57 67.63,-49.27 113.94,-77.59 -6.42,-495.23 -82.55,-779.02 -39.47,-147.06 -111,-232.66 -186.89,-242.25 -65.14,-8.23 -166.25,53.98 -144.92,181.97 34.62,207.65 94.34,375.58 152.3,582.72 35.87,128.19 97.45,256.36 194.43,305.85"
         style="fill:#152429;fill-opacity:1;fill-rule:nonzero;stroke:none"
         id="path34" /><path
         d="m 3268.68,3952.56 c 7.55,-53.67 54.18,-115.61 145.41,-102.99 91.42,12.65 107.94,85.17 100.57,137.6 -10.8,76.81 -49.81,354.02 -49.81,354.02 l -231.53,-137.3 c 0,0 24.14,-171.5 35.36,-251.33"
         style="fill:#e0a47c;fill-opacity:1;fill-rule:nonzero;stroke:none"
         id="path36" /><path
         d="m 3043.73,3846.18 c 0,0 158.24,161.09 202.81,181 l 4.83,-34.32 c 10.04,-71.36 39.93,-143.65 96.96,-135.63 58.64,8.25 179.41,101.74 169.36,173.11 l -4.82,34.32 c 48.36,-6.84 65.07,-22.38 65.07,-22.38 L 3773.33,2538.9 c 0,0 -116.22,-12.8 -337.81,8.68 -185.52,17.99 -243.85,97.99 -243.85,97.99 l -147.94,1200.61"
         style="fill:#d8eaef;fill-opacity:1;fill-rule:nonzero;stroke:none"
         id="path38" /><path
         d="m 3329.26,3672.16 -55.12,132.11 68.47,54.85 75.62,-62.78 -46.51,-122.12 c 0,0 8.64,-226.64 27.46,-433.61 18.16,-199.86 35.82,-478.38 35.82,-478.38 l -91.67,-151.66 -66.64,180.42 c 0,0 12.66,254.66 16.64,364.58 11.67,321.66 35.93,516.59 35.93,516.59"
         style="fill:#aa0e0e;fill-opacity:1;fill-rule:nonzero;stroke:none"
         id="path40" /><path
         d="m 3245.27,3653.39 -27.56,154.54 c 0.08,11.88 0.21,23.75 0.38,35.53 l 28.82,-166.44 45.01,84.64 5.59,-13.39 -52.24,-94.88"
         style="fill:#a8bbc1;fill-opacity:1;fill-rule:nonzero;stroke:none"
         id="path42" /><path
         d="m 3455.8,3675.67 -53.59,78.62 5.63,14.77 46.8,-64.72 28.37,77.8 c -2.23,-16.8 -4.3,-34.12 -6.15,-51.85 l -21.06,-54.62"
         style="fill:#a8bbc1;fill-opacity:1;fill-rule:nonzero;stroke:none"
         id="path44" /><path
         d="m 3297.51,3748.27 -5.59,13.39 50.78,95.49 0.77,0.93 64.37,-89.02 -5.63,-14.77 -56.09,82.29 -48.61,-88.31"
         style="fill:#86181a;fill-opacity:1;fill-rule:nonzero;stroke:none"
         id="path46" /><path
         d="m 3193.12,3987.58 61.37,61.27 88.82,-190.56 -96.4,-181.27 -53.79,310.56"
         style="fill:#ffffff;fill-opacity:1;fill-rule:nonzero;stroke:none"
         id="path48" /><path
         d="m 3577.66,4041.68 -75.9,41.95 -158.45,-225.34 111.33,-153.95 123.02,337.34"
         style="fill:#ffffff;fill-opacity:1;fill-rule:nonzero;stroke:none"
         id="path50" /><path
         d="m 4027.32,3353.96 c 43.27,-423.95 17.76,-852.1 7.25,-938.34 -67.9,-66.72 -419.57,-158.38 -557.9,-165.05 0,0 3.33,410 0,805 -0.79,93.53 -9.46,193.6 -7.85,253.57 8.17,304.95 82.1,740.11 82.1,740.11 27.07,-2.51 55.14,-6.07 81.3,-13.49 97.47,-27.71 331.24,-56.06 395.1,-681.8"
         style="fill:#1f363d;fill-opacity:1;fill-rule:nonzero;stroke:none"
         id="path52" /><path
         d="m 3188.34,2417.29 c -8,4 -15.65,8.99 -22.95,14.81 6.4,24.89 24.18,99.09 37.27,201.65 8.48,-8.03 22.25,-19.3 42.6,-31.15 -12.99,-113.75 -33.5,-162.02 -43.58,-179.75 -4.47,-1.86 -8.9,-3.7 -13.34,-5.56"
         style="fill:#101c20;fill-opacity:1;fill-rule:nonzero;stroke:none"
         id="path54" /><path
         d="m 3195.68,2413.95 c -2.48,1.02 -4.92,2.14 -7.34,3.34 4.44,1.86 8.87,3.7 13.34,5.56 -3.7,-6.51 -6,-8.9 -6,-8.9"
         style="fill:#14252a;fill-opacity:1;fill-rule:nonzero;stroke:none"
         id="path56" /><path
         d="m 3245.26,2602.6 c -20.35,11.85 -34.12,23.12 -42.6,31.15 6.55,51.3 11.92,109.7 14.11,172.56 13.7,1.75 27.09,3.52 39.98,5.26 -0.89,-86.76 -5.35,-155.18 -11.49,-208.97 m 6.23,442.01 -43.68,3.11 c -4.72,62.34 -26.39,363.06 -20.65,546.8 0.44,11.36 0.92,22.56 1.44,33.69 0.63,11.22 1.4,21.82 2.32,31.68 6.95,74.43 13.24,140.24 18.5,194.53 l 8.29,-46.49 c -1.23,-179.84 7.2,-367.41 8.11,-425.97 0.65,-42.77 19.81,-239.84 25.67,-337.35"
         style="fill:#a5b8bc;fill-opacity:1;fill-rule:nonzero;stroke:none"
         id="path58" /><path
         d="m 3217.71,3807.93 -8.29,46.49 c 0.84,8.64 1.65,17 2.43,25.05 l 6.24,-36.01 c -0.17,-11.78 -0.3,-23.65 -0.38,-35.53"
         style="fill:#809398;fill-opacity:1;fill-rule:nonzero;stroke:none"
         id="path60" /><path
         d="m 3218.09,3843.46 -6.24,36.01 c 4.32,44.36 7.79,79.5 10.18,103.48 0.32,-0.08 0.62,-0.15 0.93,-0.23 -2.66,-43.32 -4.17,-90.68 -4.87,-139.26"
         style="fill:#c2c8c9;fill-opacity:1;fill-rule:nonzero;stroke:none"
         id="path62" /><path
         d="m 3004.16,3185.1 c 104.32,-396.12 67.97,-455.83 13.47,-510.33 -21.14,-21.13 46.72,-205.06 145.35,-251.78 0,0 81.64,290.99 45.71,613.2 -9.61,86.14 -10.58,156.07 -14.89,202 -32.02,342.3 28.41,764.81 28.41,764.81 -25.34,-9.88 -50.65,-22.18 -74.43,-35.42 -82.99,-46.16 -284.68,-246.8 -143.62,-782.48"
         style="fill:#1f363d;fill-opacity:1;fill-rule:nonzero;stroke:none"
         id="path64" /><path
         d="m 3101.98,3943.95 123.72,75.55 c 0,0 -14.58,-143.38 -34.78,-359.61 -17.1,-183.91 17.77,-623.7 17.77,-623.7 l -145.99,522.3 75.25,84.6 -81.68,49.76 45.71,251.1"
         style="fill:#334f57;fill-opacity:1;fill-rule:nonzero;stroke:none"
         id="path66" /><path
         d="m 3146.68,2946.57 c 1.8,-12.81 13.61,-21.7 26.4,-19.9 12.82,1.8 21.74,13.61 19.93,26.41 -1.8,12.82 -13.63,21.72 -26.43,19.91 -12.82,-1.8 -21.71,-13.62 -19.9,-26.42"
         style="fill:#334f57;fill-opacity:1;fill-rule:nonzero;stroke:none"
         id="path68" /><path
         d="m 3156.66,2692.89 c -0.78,-12.86 7.34,-23.85 18.22,-24.52 10.85,-0.67 20.34,9.25 21.14,22.12 0.79,12.9 -7.43,23.92 -18.27,24.57 -10.86,0.67 -20.28,-9.27 -21.09,-22.17"
         style="fill:#334f57;fill-opacity:1;fill-rule:nonzero;stroke:none"
         id="path70" /><path
         d="m 2940.18,4407.91 c 37.57,5.29 63.84,40.16 58.55,77.75 -5.29,37.59 -40.17,63.89 -77.74,58.59 l -53.98,-7.59 c -37.56,-5.29 -63.8,-40.18 -58.49,-77.78 5.28,-37.58 40.11,-63.84 77.68,-58.55 l 53.98,7.58"
         style="fill:#eaae86;fill-opacity:1;fill-rule:nonzero;stroke:none"
         id="path72" /><path
         d="m 3662.54,4509.56 c 37.61,5.29 63.89,40.15 58.59,77.73 -5.29,37.61 -40.17,63.9 -77.78,58.6 l -53.94,-7.59 c -37.57,-5.3 -63.87,-40.18 -58.57,-77.79 5.27,-37.58 40.18,-63.84 77.76,-58.54 l 53.94,7.59"
         style="fill:#eaae86;fill-opacity:1;fill-rule:nonzero;stroke:none"
         id="path74" /><path
         d="m 3180.57,5121.79 c -193.33,-27.21 -332.6,-173.42 -305.39,-366.78 l 63.04,-448.08 c 27.21,-193.31 210.22,-358.1 403.56,-330.89 193.3,27.2 323.82,236.09 296.61,429.4 l -63.06,448.09 c -27.2,193.36 -201.46,295.47 -394.76,268.26"
         style="fill:#fcc49a;fill-opacity:1;fill-rule:nonzero;stroke:none"
         id="path76" /><path
         d="m 3227.97,4416.87 c 0,0 17.09,-7.01 50.96,-2.18 30.28,4.33 49.31,15.58 49.31,15.58 0,0 6.06,-42.4 -41.39,-50.29 -41.94,-6.97 -57.8,22.8 -58.88,36.89"
         style="fill:#e2a479;fill-opacity:1;fill-rule:nonzero;stroke:none"
         id="path78" /><path
         d="m 3331.6,4741.45 107.65,-39.74 c 7.58,-2.78 15.98,1.11 18.79,8.65 2.78,7.59 -1.09,15.99 -8.66,18.78 l -107.67,39.75 c -7.56,2.78 -15.97,-1.08 -18.78,-8.65 -2.79,-7.57 1.09,-15.98 8.67,-18.79"
         style="fill:#3f2615;fill-opacity:1;fill-rule:nonzero;stroke:none"
         id="path80" /><path
         d="m 3107.66,4644.16 c 4.69,3.74 6.78,10.15 4.74,16.16 -2.61,7.65 -10.91,11.73 -18.55,9.15 l -111.37,-37.86 c -7.64,-2.59 -11.74,-10.9 -9.13,-18.56 2.59,-7.64 10.9,-11.73 18.53,-9.13 l 111.39,37.84 c 1.62,0.58 3.1,1.38 4.39,2.4"
         style="fill:#3f2615;fill-opacity:1;fill-rule:nonzero;stroke:none"
         id="path82" /><path
         d="m 2826.31,4923.61 c -21.88,165.43 105.23,273.25 105.23,273.25 52.28,49.68 123.73,80.2 192.66,98.64 -12.64,-25.64 -34.11,-70.54 -21.04,-54.28 35.76,44.55 128.28,69.85 167.08,78.81 46.87,3.64 78.21,1.99 78.25,0.2 0.54,-43.06 -63.14,-89.44 -31.43,-85.29 46.07,5.95 86.14,67.54 94.68,61.84 138.48,-92.41 157.21,-220.55 164.37,-293.31 8.44,-85.02 29.76,-359.89 29.76,-359.89 0,0 -29.46,158.59 -37.78,218.19 -15.44,110.9 -109.16,200.12 -193.78,142.6 -59.5,-40.47 -103.88,-55.75 -196.83,-58.33 -142.82,-3.91 -177.57,-2.06 -212.12,-3.41 -76,-3.03 -97.88,-76.24 -88.73,-141.37 6.11,-43.4 26.57,-241.88 26.57,-241.88 0,0 -61.76,249.92 -76.89,364.23"
         style="fill:#774a07;fill-opacity:1;fill-rule:nonzero;stroke:none"
         id="path84" /><path
         d="m 2940.18,4407.91 c 37.57,5.29 63.84,40.16 58.55,77.75 -5.29,37.59 -40.17,63.89 -77.74,58.59 l -53.98,-7.59 c -37.56,-5.29 -63.8,-40.18 -58.49,-77.78 5.28,-37.58 40.11,-63.84 77.68,-58.55 l 53.98,7.58"
         style="fill:#eaae86;fill-opacity:1;fill-rule:nonzero;stroke:none"
         id="path86" /><path
         d="m 3662.54,4509.56 c 37.61,5.29 63.89,40.15 58.59,77.73 -5.29,37.61 -40.17,63.9 -77.78,58.6 l -53.94,-7.59 c -37.57,-5.3 -63.87,-40.18 -58.57,-77.79 5.27,-37.58 40.18,-63.84 77.76,-58.54 l 53.94,7.59"
         style="fill:#eaae86;fill-opacity:1;fill-rule:nonzero;stroke:none"
         id="path88" /><path
         d="m 3180.57,5121.79 c -193.33,-27.21 -332.6,-173.42 -305.39,-366.78 l 63.04,-448.08 c 27.21,-193.31 210.22,-358.1 403.56,-330.89 193.3,27.2 323.82,236.09 296.61,429.4 l -63.06,448.09 c -27.2,193.36 -201.46,295.47 -394.76,268.26"
         style="fill:#fcc49a;fill-opacity:1;fill-rule:nonzero;stroke:none"
         id="path90" /><path
         d="m 3227.97,4416.87 c 0,0 17.09,-7.01 50.96,-2.18 30.28,4.33 49.31,15.58 49.31,15.58 0,0 6.06,-42.4 -41.39,-50.29 -41.94,-6.97 -57.8,22.8 -58.88,36.89"
         style="fill:#e2a479;fill-opacity:1;fill-rule:nonzero;stroke:none"
         id="path92" /><path
         d="m 3331.6,4741.45 107.65,-39.74 c 7.58,-2.78 15.98,1.11 18.79,8.65 2.78,7.59 -1.09,15.99 -8.66,18.78 l -107.67,39.75 c -7.56,2.78 -15.97,-1.08 -18.78,-8.65 -2.79,-7.57 1.09,-15.98 8.67,-18.79"
         style="fill:#3f2615;fill-opacity:1;fill-rule:nonzero;stroke:none"
         id="path94" /><path
         d="m 3107.66,4644.16 c 4.69,3.74 6.78,10.15 4.74,16.16 -2.61,7.65 -10.91,11.73 -18.55,9.15 l -111.37,-37.86 c -7.64,-2.59 -11.74,-10.9 -9.13,-18.56 2.59,-7.64 10.9,-11.73 18.53,-9.13 l 111.39,37.84 c 1.62,0.58 3.1,1.38 4.39,2.4"
         style="fill:#3f2615;fill-opacity:1;fill-rule:nonzero;stroke:none"
         id="path96" /><path
         d="m 2826.31,4923.61 c -21.88,165.43 105.23,273.25 105.23,273.25 52.28,49.68 123.73,80.2 192.66,98.64 -12.64,-25.64 -34.11,-70.54 -21.04,-54.28 35.76,44.55 128.28,69.85 167.08,78.81 46.87,3.64 78.21,1.99 78.25,0.2 0.54,-43.06 -63.14,-89.44 -31.43,-85.29 46.07,5.95 86.14,67.54 94.68,61.84 138.48,-92.41 157.21,-220.55 164.37,-293.31 8.44,-85.02 29.76,-359.89 29.76,-359.89 0,0 -29.46,158.59 -37.78,218.19 -15.44,110.9 -109.16,200.12 -193.78,142.6 -59.5,-40.47 -103.88,-55.75 -196.83,-58.33 -142.82,-3.91 -177.57,-2.06 -212.12,-3.41 -76,-3.03 -97.88,-76.24 -88.73,-141.37 6.11,-43.4 26.57,-241.88 26.57,-241.88 0,0 -61.76,249.92 -76.89,364.23"
         style="fill:#774a07;fill-opacity:1;fill-rule:nonzero;stroke:none"
         id="path98" /><path
         d="m 2940.18,4407.91 c 37.57,5.29 63.84,40.16 58.55,77.75 -5.29,37.59 -40.17,63.89 -77.74,58.59 l -53.98,-7.59 c -37.56,-5.29 -63.8,-40.18 -58.49,-77.78 5.28,-37.58 40.11,-63.84 77.68,-58.55 l 53.98,7.58"
         style="fill:#eaae86;fill-opacity:1;fill-rule:nonzero;stroke:none"
         id="path100" /><g
         id="g102"><g
           id="g104"
           clip-path="url(#clipPath108)"><path
             d="m 2847.82,4441.44 h 69.3906 v 59.2383 H 2847.82 Z"
             style="fill:#de9d74;fill-opacity:1;fill-rule:nonzero;stroke:none"
             id="path110" /></g></g><path
         d="m 3662.54,4509.56 c 37.61,5.29 63.89,40.15 58.59,77.73 -5.29,37.61 -40.17,63.9 -77.78,58.6 l -53.94,-7.59 c -37.57,-5.3 -63.87,-40.18 -58.57,-77.79 5.27,-37.58 40.18,-63.84 77.76,-58.54 l 53.94,7.59"
         style="fill:#eaae86;fill-opacity:1;fill-rule:nonzero;stroke:none"
         id="path112" /><path
         d="m 3629.59,4547.12 c -2.81,4.38 -6.81,7.9 -12.61,10.42 l -5.86,41.65 38.05,5.35 c 1.27,0.18 2.53,0.27 3.77,0.27 13.27,0 24.89,-9.83 26.79,-23.34 2.08,-14.79 -8.25,-28.47 -23.01,-30.53 l -27.13,-3.82"
         style="fill:#de9d74;fill-opacity:1;fill-rule:nonzero;stroke:none"
         id="path114" /><path
         d="m 3180.57,5121.79 c -193.33,-27.21 -332.6,-173.42 -305.39,-366.78 l 63.04,-448.08 c 27.21,-193.31 210.22,-358.1 403.56,-330.89 193.3,27.2 323.82,236.09 296.61,429.4 l -63.06,448.09 c -27.2,193.36 -201.46,295.47 -394.76,268.26"
         style="fill:#fcc49a;fill-opacity:1;fill-rule:nonzero;stroke:none"
         id="path116" /><path
         d="m 3227.97,4416.87 c 0,0 17.09,-7.01 50.96,-2.18 30.28,4.33 49.31,15.58 49.31,15.58 0,0 6.06,-42.4 -41.39,-50.29 -41.94,-6.97 -57.8,22.8 -58.88,36.89"
         style="fill:#e2a479;fill-opacity:1;fill-rule:nonzero;stroke:none"
         id="path118" /><path
         d="m 3331.6,4741.45 107.65,-39.74 c 7.58,-2.78 15.98,1.11 18.79,8.65 2.78,7.59 -1.09,15.99 -8.66,18.78 l -107.67,39.75 c -7.56,2.78 -15.97,-1.08 -18.78,-8.65 -2.79,-7.57 1.09,-15.98 8.67,-18.79"
         style="fill:#3f2615;fill-opacity:1;fill-rule:nonzero;stroke:none"
         id="path120" /><path
         d="m 3107.66,4644.16 c 4.69,3.74 6.78,10.15 4.74,16.16 -2.61,7.65 -10.91,11.73 -18.55,9.15 l -111.37,-37.86 c -7.64,-2.59 -11.74,-10.9 -9.13,-18.56 2.59,-7.64 10.9,-11.73 18.53,-9.13 l 111.39,37.84 c 1.62,0.58 3.1,1.38 4.39,2.4"
         style="fill:#3f2615;fill-opacity:1;fill-rule:nonzero;stroke:none"
         id="path122" /><path
         d="m 2826.31,4923.61 c -21.88,165.43 105.23,273.25 105.23,273.25 52.28,49.68 123.73,80.2 192.66,98.64 -12.64,-25.64 -34.11,-70.54 -21.04,-54.28 35.76,44.55 128.28,69.85 167.08,78.81 46.87,3.64 78.21,1.99 78.25,0.2 0.54,-43.06 -63.14,-89.44 -31.43,-85.29 46.07,5.95 86.14,67.54 94.68,61.84 138.48,-92.41 157.21,-220.55 164.37,-293.31 8.44,-85.02 29.76,-359.89 29.76,-359.89 0,0 -29.46,158.59 -37.78,218.19 -15.44,110.9 -109.16,200.12 -193.78,142.6 -59.5,-40.47 -103.88,-55.75 -196.83,-58.33 -142.82,-3.91 -177.57,-2.06 -212.12,-3.41 -76,-3.03 -97.88,-76.24 -88.73,-141.37 6.11,-43.4 26.57,-241.88 26.57,-241.88 0,0 -61.76,249.92 -76.89,364.23"
         style="fill:#774a07;fill-opacity:1;fill-rule:nonzero;stroke:none"
         id="path124" /><path
         d="m 3599.61,3635.99 -61.6,58.33 91.68,27.42 c -2.07,-6.38 -4.15,-12.66 -6.23,-18.84 l -69.34,-20.74 46.35,-43.88 c -0.28,-0.76 -0.57,-1.53 -0.86,-2.29 m 54.67,157.52 14.22,205.92 -1.67,-180.12 c -4.51,-8.37 -8.71,-16.99 -12.55,-25.8"
         style="fill:#11292d;fill-opacity:1;fill-rule:nonzero;stroke:none"
         id="path126" /><path
         d="m 3670.61,4029.84 -127.62,34.3 c 0,0 -69.67,-213.99 -74.9,-472.8 -4.97,-244.69 21.55,-519.18 21.55,-519.18 l 146.37,529.36 -98,92.8 111.73,33.41 20.87,302.11"
         style="fill:#334f57;fill-opacity:1;fill-rule:nonzero;stroke:none"
         id="path128" /><path
         d="m 3212.29,4238.19 c -2.36,0 -4.73,0.8 -6.67,2.43 -4.39,3.69 -4.97,10.23 -1.27,14.63 0.36,0.42 18.02,20.88 49.4,34.21 0.97,-2.04 2.23,-4.21 3.83,-6.53 2.48,-3.61 4.89,-7.18 7.24,-10.71 -27.73,-10.79 -43.31,-28.83 -44.58,-30.33 -2.05,-2.44 -4.99,-3.7 -7.95,-3.7 m 179.1,17.3 c -1.77,0 -3.55,0.45 -5.19,1.4 -24.45,14.13 -46.57,20.8 -66.1,22.74 -7.27,8.92 -13.02,15.73 -17.98,20.92 2.17,0.1 4.38,0.16 6.62,0.16 25.47,0 54.98,-6.85 87.85,-25.85 4.96,-2.86 6.66,-9.22 3.79,-14.18 -1.92,-3.33 -5.41,-5.19 -8.99,-5.19"
         style="fill:#dd9c71;fill-opacity:1;fill-rule:nonzero;stroke:none"
         id="path130" /><path
         d="m 3111.93,4533.23 c 0,-20.56 -16.64,-37.21 -37.19,-37.21 -20.55,0 -37.21,16.65 -37.21,37.21 0,20.53 16.66,37.19 37.21,37.19 20.55,0 37.19,-16.66 37.19,-37.19"
         style="fill:#3f2919;fill-opacity:1;fill-rule:nonzero;stroke:none"
         id="path132" /><path
         d="m 3467.55,4583.4 c 0,-20.54 -16.65,-37.21 -37.2,-37.21 -20.56,0 -37.22,16.67 -37.22,37.21 0,20.55 16.66,37.2 37.22,37.2 20.55,0 37.2,-16.65 37.2,-37.2"
         style="fill:#3f2919;fill-opacity:1;fill-rule:nonzero;stroke:none"
         id="path134" /><path
         d="m 2929.96,4365.68 c -8.27,10.68 -11.4,24.25 -14.01,37.81 -0.07,0.33 -0.13,0.66 -0.19,0.99 l 8.57,1.21 5.63,-40.01"
         style="fill:#ffffff;fill-opacity:1;fill-rule:nonzero;stroke:none"
         id="path136" /><path
         d="m 2915.76,4404.48 c -3.2,16.48 -6.87,30.31 -3.82,41.65 l 6.57,0.93 5.82,-41.37 -8.57,-1.21"
         style="fill:#f3d2bb;fill-opacity:1;fill-rule:nonzero;stroke:none"
         id="path138" /><path
         d="m 2911.94,4446.13 c 0.98,3.65 2.66,7.04 5.27,10.17 l 1.3,-9.24 -6.57,-0.93"
         style="fill:#ecc8b1;fill-opacity:1;fill-rule:nonzero;stroke:none"
         id="path140" /><path
         d="m 2986.96,4344.73 c -30.81,0 -47.38,8.51 -57,20.95 l -5.63,40.01 -5.82,41.37 -1.3,9.24 c 5.51,6.62 15.19,12.12 31.31,16.53 48.04,13.34 142.4,21.03 187.42,24.15 3.99,0.28 8.43,0.44 13.08,0.44 23.06,0 51.61,-4.04 59.63,-18.05 8.01,-13.87 12.87,-37.77 8.75,-58.79 -4.35,-22.06 -16.68,-41.08 -61.3,-52.62 -44.76,-11.48 -109.05,-22.19 -166.37,-23.21 -0.94,-0.02 -1.86,-0.02 -2.77,-0.02"
         style="fill:#fddec6;fill-opacity:1;fill-rule:nonzero;stroke:none"
         id="path142" /><path
         d="m 3631.15,4456.92 -6.66,47.28 13.12,1.85 c 0.05,-0.62 0.1,-1.24 0.15,-1.87 1.49,-16.39 2.25,-33.01 -6.61,-47.26"
         style="fill:#ffffff;fill-opacity:1;fill-rule:nonzero;stroke:none"
         id="path144" /><path
         d="m 3624.49,4504.2 -5.82,41.38 10.92,1.54 c 6.39,-9.94 6.65,-24.26 8.02,-41.07 l -13.12,-1.85"
         style="fill:#f3d2bb;fill-opacity:1;fill-rule:nonzero;stroke:none"
         id="path146" /><path
         d="m 3618.67,4545.58 -1.69,11.96 c 5.8,-2.52 9.8,-6.04 12.61,-10.42 l -10.92,-1.54"
         style="fill:#ecc8b1;fill-opacity:1;fill-rule:nonzero;stroke:none"
         id="path148" /><path
         d="m 3411.72,4404.24 c -42.52,0 -58.61,14.6 -68.45,33.9 -9.94,19.05 -11.72,43.39 -7.77,58.92 4.66,18.85 41.8,31.95 65.05,36.82 44.23,9.34 137.04,27.76 186.95,28.1 0.53,0 1.06,0 1.58,0 12.28,0 21.27,-1.56 27.9,-4.44 l 1.69,-11.96 5.82,-41.38 6.66,-47.28 c -7.48,-12.02 -21.79,-22.35 -48.28,-29.43 -55.51,-14.68 -120.12,-21.99 -166.29,-23.19 -1.65,-0.04 -3.28,-0.06 -4.86,-0.06"
         style="fill:#fddec6;fill-opacity:1;fill-rule:nonzero;stroke:none"
         id="path150" /><path
         d="m 3203.67,4477.3 c 6.99,-11.98 12.57,-34.73 8.33,-56.27 -3.75,-18.95 -13.46,-38.14 -58.66,-49.79 -25.21,-6.48 -55.09,-12.28 -84.12,-16.33 -29.02,-4.04 -56.45,-6.32 -81.41,-6.77 -54.84,-0.86 -63.96,23.63 -70.13,55.75 l -1.55,7.83 c -6.01,29.76 -9.34,46.15 31.58,57.35 14.85,4.13 35.61,8.06 61.69,11.7 42.73,5.98 91.55,9.99 124.97,12.31 27.9,1.98 61.48,-2.13 69.3,-15.78 z m 428.03,34.37 0.64,-8.05 c 2.96,-32.58 0.99,-58.63 -52.16,-72.85 -24.2,-6.4 -51.22,-11.71 -80.22,-15.76 -29.01,-4.06 -59.3,-6.64 -85.24,-7.32 -46.73,-1.15 -61.3,14.63 -70.09,31.85 -10,19.45 -10.91,42.87 -7.5,56.39 3.83,15.26 35,28.39 62.39,34.13 32.76,6.94 80.79,16.42 123.55,22.38 26.06,3.64 47.13,5.53 62.61,5.65 42.48,0.44 43.73,-16.22 46.02,-46.42 z m 44.3,62.44 c -2.82,2.23 -6.59,2.96 -11.43,2.29 -9.2,-1.26 -22.01,-1.55 -39.79,-1.95 -6.94,-0.17 -14.58,-0.34 -23.09,-0.59 -26.89,-0.88 -66.9,-4.75 -107.07,-10.34 -37.33,-5.21 -71.35,-11.43 -98.42,-17.94 -30.56,-7.42 -49.64,-15.72 -66.45,-23.07 -18.66,-8.11 -34.78,-15.14 -61.64,-18.87 -26.89,-3.75 -44.34,-1.43 -64.52,1.28 -18.18,2.44 -38.82,5.2 -70.26,3.99 -27.73,-1.13 -62.13,-4.47 -99.45,-9.68 -40.13,-5.59 -79.7,-12.85 -105.9,-19.34 -8.29,-2.11 -15.76,-4.09 -22.49,-5.81 -17.14,-4.46 -29.47,-7.7 -38.58,-8.96 -4.94,-0.69 -8.37,-2.44 -10.54,-5.4 -3.41,-4.67 -2.39,-10.76 -1.5,-16.11 l 2.95,-20.88 c 1.54,-10.97 8.73,-13.04 17.57,-15.63 7.41,-2.14 15.18,-11.14 21.96,-25.3 0.64,-1.44 1.32,-3.08 2.06,-4.88 7.14,-17.94 20.47,-51.37 106.07,-45.91 25.85,1.7 50.72,4.2 73.93,7.45 40.11,5.58 76.05,13.51 106.8,23.53 33,10.81 43.22,37.81 52.29,61.62 7.87,20.74 14.66,38.68 34.98,41.52 20.29,2.83 31.74,-12.57 44.98,-30.34 15.18,-20.46 32.38,-43.61 67.13,-44.98 32.32,-1.23 69.07,0.99 109.19,6.6 23.21,3.21 47.83,7.66 73.2,13.08 83.91,18.2 87.43,54.06 89.33,73.33 0.15,1.88 0.36,3.59 0.59,5.08 2.61,15.43 7.68,26.23 14.44,30.5 7.41,4.62 13.85,8.62 12.29,19.7 l -2.5,18.01 c -0.14,0.98 -0.25,2.01 -0.37,3.03 -0.58,5.38 -1.22,11.46 -5.76,14.97"
         style="fill:#052c35;fill-opacity:1;fill-rule:nonzero;stroke:none"
         id="path152" /><path
         d="m 3265.98,4225.36 c -2.55,0 -5.1,0.91 -7.08,2.79 -4.1,3.87 -4.45,10.19 -0.68,14.38 0.45,0.5 6.47,6.96 18.78,10.68 3.97,-6.41 7.69,-12.63 11.16,-18.62 -9.91,-1.48 -14.37,-5.82 -14.67,-6.12 -2.06,-2.07 -4.79,-3.11 -7.51,-3.11"
         style="fill:#dd9c71;fill-opacity:1;fill-rule:nonzero;stroke:none"
         id="path154" /><path
         d="m 3300.13,3973.13 c -18.68,0 -37.16,1.73 -55.31,4.99 -16.27,30.86 -28.58,59.96 -30.03,70.21 -3.19,22.19 23.76,31.68 23.76,31.68 0,0 -4.76,17.44 12.68,30.13 5.31,3.86 11.14,4.95 16.02,4.95 6.25,0 10.93,-1.79 10.93,-1.79 0,0 -4.49,25.02 12.68,38.07 8.62,6.55 15.95,8.57 21.73,8.57 9.44,0 14.74,-5.41 14.74,-5.41 0,0 -11.9,32.94 -39.17,80.06 2.06,0.31 4.37,0.5 6.92,0.5 5.63,0 12.46,-0.91 20.62,-3.38 1.01,-0.31 2.03,-0.45 3.04,-0.45 4.46,0 8.56,2.9 9.91,7.39 1.66,5.48 -1.44,11.28 -6.93,12.95 -10.05,3.02 -18.82,4.19 -26.38,4.19 -7.2,0 -13.3,-1.06 -18.34,-2.58 -3.82,6.17 -7.88,12.52 -12.18,19.01 12.05,4.7 26.41,8.03 42.89,8.03 4,0 8.13,-0.2 12.39,-0.62 0.8,-0.99 1.62,-2 2.47,-3.04 68.15,-84.02 122.04,-190.22 122.04,-190.22 0,0 60.24,64.97 96.71,72.9 4.45,0.97 8.27,1.4 11.53,1.4 23.47,0 18.58,-21.99 18.58,-21.99 0,0 -63.12,-49.49 -94.94,-109.12 -39.71,-27.55 -85.12,-46.54 -134.71,-53.52 v 0 0 c -13.96,-1.96 -27.86,-2.91 -41.65,-2.91 m -46.38,316.33 c -9.56,20.14 9.8,26.85 19.37,26.85 0.69,0 1.33,-0.04 1.9,-0.11 9.99,-1.16 16.87,-4.96 27.1,-15.65 -18.52,-0.87 -34.74,-5.31 -48.37,-11.09"
         style="fill:#f1aa7c;fill-opacity:1;fill-rule:nonzero;stroke:none"
         id="path156" /><path
         d="m 3264.82,4272.22 c -2.35,3.53 -4.76,7.1 -7.24,10.71 -1.6,2.32 -2.86,4.49 -3.83,6.53 13.63,5.78 29.85,10.22 48.37,11.09 4.96,-5.19 10.71,-12 17.98,-20.92 -4.26,0.42 -8.39,0.62 -12.39,0.62 -16.48,0 -30.84,-3.33 -42.89,-8.03"
         style="fill:#d4875b;fill-opacity:1;fill-rule:nonzero;stroke:none"
         id="path158" /><path
         d="m 3318.74,4231.26 c -1.01,0 -2.03,0.14 -3.04,0.45 -8.16,2.47 -14.99,3.38 -20.62,3.38 -2.55,0 -4.86,-0.19 -6.92,-0.5 -3.47,5.99 -7.19,12.21 -11.16,18.62 5.04,1.52 11.14,2.58 18.34,2.58 7.56,0 16.33,-1.17 26.38,-4.19 5.49,-1.67 8.59,-7.47 6.93,-12.95 -1.35,-4.49 -5.45,-7.39 -9.91,-7.39"
         style="fill:#d4875b;fill-opacity:1;fill-rule:nonzero;stroke:none"
         id="path160" /><path
         d="m 3541.07,3018.94 c -8.39,0 -15.14,0.21 -20.44,0.41 -5.29,0.2 -9.12,0.4 -11.66,0.4 -1.81,0 -2.95,-0.1 -3.49,-0.38 -0.02,-0.01 -0.04,-0.02 -0.05,-0.02 -0.43,0 2.71,5.56 7.61,13.66 1.27,-0.05 2.56,-0.07 3.84,-0.07 45.13,0 96.51,29.71 138.39,99.53 128.31,213.86 211.78,436.1 227.79,613.99 4.56,-35.47 5.19,-72.49 4.28,-96.27 -6.92,-183.42 -73.6,-391.19 -174.56,-536.32 -30.84,-44.33 -64.71,-73.74 -98.24,-90.64 -32.26,-3.44 -56.28,-4.28 -73.47,-4.29"
         style="fill:#172a30;fill-opacity:1;fill-rule:nonzero;stroke:none"
         id="path162" /><path
         d="m 3438.94,3060.14 c -8.47,12.41 -15.09,26.63 -19.48,42.38 6.25,-14.79 14.6,-27.55 24.59,-37.97 -1.71,-1.46 -3.41,-2.93 -5.11,-4.41"
         style="fill:#a2b7bd;fill-opacity:1;fill-rule:nonzero;stroke:none"
         id="path164" /><path
         d="m 3835.24,3902.49 c 32.89,-31.15 52.04,-69.96 50.18,-119.4 -6.92,-183.41 -92.87,-421.82 -230.15,-650.62 -114.21,-190.36 -298.88,-82.53 -235.33,112.46 38.5,118.11 133.38,226.65 221.49,513.94 18.06,58.83 54.3,114.51 93.44,145.35 22.81,17.97 78.69,18.8 100.37,-1.73"
         style="fill:#243f47;fill-opacity:1;fill-rule:nonzero;stroke:none"
         id="path166" /><path
         d="m 3469.77,3356.95 c 0.29,0.57 0.59,1.14 0.88,1.71 v 0 c -0.29,-0.57 -0.59,-1.15 -0.88,-1.71"
         style="fill:#adbec3;fill-opacity:1;fill-rule:nonzero;stroke:none"
         id="path168" /><path
         d="m 3470.65,3358.66 v 0 c 0.12,0.23 0.24,0.46 0.36,0.69 v 0 c -0.12,-0.23 -0.24,-0.46 -0.36,-0.69 m 129.86,279.59 -0.04,0.03 c 1.24,3.3 2.47,6.62 3.71,9.97 0,-0.02 0.01,-0.05 0.01,-0.08 -1.23,-3.33 -2.46,-6.64 -3.68,-9.92"
         style="fill:#192c32;fill-opacity:1;fill-rule:nonzero;stroke:none"
         id="path170" /><path
         d="m 3599.64,3635.96 -0.03,0.03 c 0.29,0.76 0.58,1.53 0.86,2.29 l 0.04,-0.03 c -0.29,-0.76 -0.58,-1.53 -0.87,-2.29"
         style="fill:#0d2125;fill-opacity:1;fill-rule:nonzero;stroke:none"
         id="path172" /><path
         d="m 3471.01,3359.35 v 0 c 35.77,69.09 81.75,152.07 128.6,276.64 l 0.03,-0.03 c -46.87,-124.61 -92.85,-207.53 -128.63,-276.61"
         style="fill:#294047;fill-opacity:1;fill-rule:nonzero;stroke:none"
         id="path174" /><path
         d="m 3520.69,3045.44 c 10.91,17.48 24.73,38.64 31.05,46.31 11.5,14.12 13.53,28.3 0.47,38.79 -3.1,2.48 -6.57,3.46 -10.1,3.46 -13,0 -26.95,-13.16 -26.95,-13.16 0,0 -25.51,-18.62 -54.13,-42.08 -5.43,10.11 -10.51,22.69 -15.14,38.13 -8.66,28.86 -17.24,74.9 -25.4,129.65 11.84,35.83 28.86,70.89 49.28,110.41 0.29,0.56 0.59,1.14 0.88,1.71 0.12,0.23 0.24,0.46 0.36,0.69 35.78,69.08 81.76,152 128.63,276.61 0.29,0.76 0.58,1.53 0.87,2.29 1.22,3.28 2.45,6.59 3.68,9.92 12.54,-79.82 26.79,-174.79 38.97,-266.53 12.03,-90.51 2.86,-219.03 -25.95,-250.9 -20.12,-22.27 -58.66,-74.47 -96.52,-85.3"
         style="fill:#1d333a;fill-opacity:1;fill-rule:nonzero;stroke:none"
         id="path176" /><path
         d="m 3070.05,2794.07 -2.94,73.73 c 0,0 -0.1,5.35 -0.3,14.93 3.89,-35.81 4.75,-64.77 3.24,-88.66"
         style="fill:#b6bdbe;fill-opacity:1;fill-rule:nonzero;stroke:none"
         id="path178" /><path
         d="m 3256.75,2811.57 c 0.62,61.14 -0.54,131.37 -4.13,212 -0.28,6.31 -0.66,13.37 -1.13,21.04 l 37.1,-2.64 c -3.87,-86.53 -8.6,-183.78 -10.74,-227.49 -6.86,-0.96 -13.89,-1.93 -21.1,-2.91 m 221.14,28.47 c -16.77,3.56 -33.88,7.7 -48.83,11.92 -3.41,50.22 -8.07,116.76 -13.36,186.98 7.21,6.96 15.12,14.13 23.24,21.2 10.23,-14.98 23.13,-27.3 37.98,-36.45 0.47,-61.68 0.78,-123.42 0.97,-183.65"
         style="fill:#9aaeb2;fill-opacity:1;fill-rule:nonzero;stroke:none"
         id="path180" /><path
         d="m 3277.85,2814.48 c 2.14,43.71 6.87,140.96 10.74,227.49 l 82.04,-5.83 c -0.12,-1.39 -0.05,-4.51 0.18,-8.94 l 32.27,5.04 0.52,-5.56 c 3.71,3.97 7.78,8.08 12.1,12.26 5.29,-70.22 9.95,-136.76 13.36,-186.98 -3.13,0.88 -6.16,1.77 -9.08,2.65 l 1.26,-13.14 -33.22,-2.72 c 0.5,-4.86 0.78,-7.67 0.78,-7.67 0,0 -46.91,-7.67 -110.95,-16.6"
         style="fill:#790a0a;fill-opacity:1;fill-rule:nonzero;stroke:none"
         id="path182" /><path
         d="m 3580.54,2828.44 c -13.11,0 -26.05,0.5 -38.61,1.34 -15.18,1.01 -39.23,4.99 -64.04,10.26 -0.19,60.23 -0.5,121.97 -0.97,183.65 19.34,-11.91 41.99,-18.44 66.33,-18.44 22.71,0 46.91,5.69 71.29,17.98 25.88,2.76 57.06,7.18 94.27,14.17 2.54,0.47 5.48,0.8 8.56,0.8 10.59,0 22.87,-3.88 26.6,-18.94 5.23,-21.25 -18.51,-33.77 -18.51,-33.77 0,0 6.32,1.86 13.89,1.86 8.87,0 19.46,-2.55 23.64,-13.61 9.14,-24.16 -21.87,-39.82 -21.87,-39.82 0,0 12.08,-0.65 16,-15.01 4.98,-18.27 -20.23,-30.04 -20.23,-30.04 0,0 11.17,-19.28 -24.08,-35.72 -40.21,-18.77 -87.23,-24.71 -132.27,-24.71"
         style="fill:#16282e;fill-opacity:1;fill-rule:nonzero;stroke:none"
         id="path184" /><path
         d="m 3216.77,2806.31 c 2.51,72.07 0.83,150.02 -8.08,229.88 v 0 0 0 0 c 0,0.05 -0.32,4.08 -0.88,11.53 l 43.68,-3.11 c 0.47,-7.67 0.85,-14.73 1.13,-21.04 3.59,-80.63 4.75,-150.86 4.13,-212 -12.89,-1.74 -26.28,-3.51 -39.98,-5.26"
         style="fill:#76898c;fill-opacity:1;fill-rule:nonzero;stroke:none"
         id="path186" /><path
         d="m 3070.18,2790.7 -0.13,3.37 c 1.51,23.89 0.65,52.85 -3.24,88.66 -0.61,29.51 -2.22,99.11 -5.06,175.38 l 143.67,-10.22 3.27,-11.7 v 0 0 0 0 0 c 8.91,-79.86 10.59,-157.81 8.08,-229.88 -48.13,-6.13 -100.01,-11.99 -146.59,-15.61 m 99.71,182.52 c -1.09,0 -2.2,-0.07 -3.31,-0.23 -12.82,-1.8 -21.71,-13.62 -19.9,-26.42 1.64,-11.7 11.64,-20.13 23.09,-20.13 1.09,0 2.2,0.08 3.31,0.23 12.82,1.8 21.74,13.61 19.93,26.41 -1.64,11.71 -11.65,20.14 -23.12,20.14"
         style="fill:#16282e;fill-opacity:1;fill-rule:nonzero;stroke:none"
         id="path188" /><path
         d="m 3208.69,3036.19 -3.27,11.7 2.39,-0.17 c 0.56,-7.45 0.88,-11.48 0.88,-11.53 v 0"
         style="fill:#253a41;fill-opacity:1;fill-rule:nonzero;stroke:none"
         id="path190" /><path
         d="m 3169.77,2926.44 c -11.45,0 -21.45,8.43 -23.09,20.13 -1.81,12.8 7.08,24.62 19.9,26.42 1.11,0.16 2.22,0.23 3.31,0.23 11.47,0 21.48,-8.43 23.12,-20.14 1.81,-12.8 -7.11,-24.61 -19.93,-26.41 -1.11,-0.15 -2.22,-0.23 -3.31,-0.23"
         style="fill:#253a41;fill-opacity:1;fill-rule:nonzero;stroke:none"
         id="path192" /><path
         d="m 3476.92,3023.69 c -14.85,9.15 -27.75,21.47 -37.98,36.45 1.7,1.48 3.4,2.95 5.11,4.41 9.58,-9.99 20.64,-17.82 32.74,-23.18 0.04,-5.89 0.09,-11.79 0.13,-17.68"
         style="fill:#73888d;fill-opacity:1;fill-rule:nonzero;stroke:none"
         id="path194" /><path
         d="m 3543.25,3005.25 c -24.34,0 -46.99,6.53 -66.33,18.44 -0.04,5.89 -0.09,11.79 -0.13,17.68 11.3,-5.01 23.5,-7.88 36.25,-8.36 -4.9,-8.1 -8.04,-13.66 -7.61,-13.66 0.01,0 0.03,0.01 0.05,0.02 0.54,0.28 1.68,0.38 3.49,0.38 2.54,0 6.37,-0.2 11.66,-0.4 5.3,-0.2 12.05,-0.41 20.44,-0.41 17.19,0.01 41.21,0.85 73.47,4.29 -24.38,-12.29 -48.58,-17.98 -71.29,-17.98"
         style="fill:#101f24;fill-opacity:1;fill-rule:nonzero;stroke:none"
         id="path196" /><path
         d="m 3513.04,3033.01 c -12.75,0.48 -24.95,3.35 -36.25,8.36 -12.1,5.36 -23.16,13.19 -32.74,23.18 5.67,4.85 11.38,9.62 16.98,14.21 13.73,-25.58 29.7,-35.3 46.22,-35.3 4.45,-0.01 8.94,0.7 13.44,1.98 -2.8,-4.48 -5.41,-8.72 -7.65,-12.43"
         style="fill:#1a2f35;fill-opacity:1;fill-rule:nonzero;stroke:none"
         id="path198" /><path
         d="m 3507.25,3043.46 c -16.52,0 -32.49,9.72 -46.22,35.3 28.62,23.46 54.13,42.08 54.13,42.08 0,0 13.95,13.16 26.95,13.16 3.53,0 7,-0.98 10.1,-3.46 13.06,-10.49 11.03,-24.67 -0.47,-38.79 -6.32,-7.67 -20.14,-28.83 -31.05,-46.31 -4.5,-1.28 -8.99,-1.99 -13.44,-1.98"
         style="fill:#15262b;fill-opacity:1;fill-rule:nonzero;stroke:none"
         id="path200" /><path
         d="m 3366.74,2975.85 c -1.83,25.15 1.72,43.3 26.81,75.12 31.66,40.01 121.61,105.64 121.61,105.64 0,0 22.58,21.28 37.05,9.69 13.06,-10.49 11.03,-24.67 -0.47,-38.79 -11.59,-14.06 -48.38,-73.47 -46.26,-72.38 4.84,2.51 58.37,-9.2 203.33,18.03 11.27,2.11 30.35,1.31 35.15,-18.14 5.24,-21.25 -18.5,-33.77 -18.5,-33.77 0,0 29.77,8.76 37.53,-11.75 9.14,-24.15 -21.87,-39.82 -21.87,-39.82 0,0 12.08,-0.65 16,-15.01 4.98,-18.27 -20.24,-30.04 -20.24,-30.04 0,0 11.18,-19.27 -24.07,-35.73 -51.91,-24.22 -115.17,-27.07 -170.88,-23.36 -38.92,2.6 -136.27,24.67 -154.92,37.98 -26.28,18.75 -18.64,49.18 -20.27,72.33"
         style="fill:#e8ad85;fill-opacity:1;fill-rule:nonzero;stroke:none"
         id="path202" /><path
         d="m 3361.54,3061.52 41.54,6.48 18.16,-190.78 -63.58,-5.19 3.88,189.49"
         style="fill:#ffffff;fill-opacity:1;fill-rule:nonzero;stroke:none"
         id="path204" /><path
         d="m 3370.63,3071.9 -602.18,42.82 c 0,0 -35.04,-99.93 -10.38,-175.2 28.22,-86.15 125.39,-117.14 233.6,-116.8 129.78,0.42 397.13,44.12 397.13,44.12 0,0 -19.46,190.78 -18.17,205.06"
         style="fill:#243f47;fill-opacity:1;fill-rule:nonzero;stroke:none"
         id="path206" /><path
         d="m 3508.4,3764.43 c 0,0 -37.36,164.65 -29.43,205.86 14.77,76.78 110.95,152.16 110.95,152.16 0,0 6.35,28.54 -30.11,20.6 -36.47,-7.93 -96.7,-72.9 -96.7,-72.9 0,0 -53.89,106.2 -122.05,190.21 -24.15,29.8 -32.17,37.82 -47.54,39.62 -9.35,1.1 -35.98,-6.37 -17.45,-33.27 49.14,-71.35 69.76,-128.41 69.76,-128.41 0,0 -13.77,14.08 -36.48,-3.16 -17.16,-13.04 -12.67,-38.06 -12.67,-38.06 0,0 -14.84,5.65 -26.95,-3.16 -17.44,-12.69 -12.68,-30.13 -12.68,-30.13 0,0 -26.95,-9.5 -23.78,-31.68 2.25,-15.77 30.12,-76.09 58.66,-118.89 28.53,-42.8 74.5,-53.89 74.5,-53.89 l 27.34,-114.3 114.63,19.4"
         style="fill:#ffd2b3;fill-opacity:1;fill-rule:nonzero;stroke:none"
         id="path208" /><path
         d="m 3515.11,3800.4 c 1.74,6.93 -13.84,72.68 -13.84,72.68 l -171.31,-41.53 12.12,-81.32 173.03,50.17"
         style="fill:#d8eaef;fill-opacity:1;fill-rule:nonzero;stroke:none"
         id="path210" /><path
         d="m 3650.1,3198.22 -128.07,645.45 -200.72,-55.39 c 0,0 39.8,-508.73 81.33,-647.16 46.05,-153.5 147.09,-112.47 202.46,-65.76 44.2,37.29 45,122.86 45,122.86"
         style="fill:#243f47;fill-opacity:1;fill-rule:nonzero;stroke:none"
         id="path212" /><path
         d="m 4500.49,1893.81 h 34.41 v 25.8 c 0,28.41 23.1,51.53 51.55,51.53 h 228.57 c 28.41,0 51.52,-23.12 51.52,-51.53 v -23.88 h 34.4 v 23.88 c 0,47.35 -38.53,85.91 -85.92,85.91 h -228.57 c -47.41,0 -85.96,-38.56 -85.96,-85.91 v -25.8"
         style="fill:#0e3c54;fill-opacity:1;fill-rule:nonzero;stroke:none"
         id="path214" /><path
         d="m 4841.84,1857.52 c 0,-6.35 5.13,-11.46 11.45,-11.46 h 59.18 c 6.32,0 11.48,5.11 11.48,11.46 v 38.21 c 0,6.33 -5.16,11.42 -11.48,11.42 h -59.18 c -6.32,0 -11.45,-5.09 -11.45,-11.42 v -38.21"
         style="fill:#f99920;fill-opacity:1;fill-rule:nonzero;stroke:none"
         id="path216" /><path
         d="m 4475.14,1857.52 c 0,-6.35 5.11,-11.46 11.42,-11.46 h 59.22 c 6.33,0 11.47,5.11 11.47,11.46 v 38.21 c 0,6.33 -5.14,11.42 -11.47,11.42 h -59.22 c -6.31,0 -11.42,-5.09 -11.42,-11.42 v -38.21"
         style="fill:#f99920;fill-opacity:1;fill-rule:nonzero;stroke:none"
         id="path218" /><path
         d="m 4190.8,1209.12 c 0,-38.01 30.8,-68.76 68.81,-68.76 h 876.5 c 38.01,0 68.78,30.75 68.78,68.76 v 618.72 c 0,18.98 -15.41,34.38 -34.42,34.38 h -945.29 c -18.97,0 -34.38,-15.4 -34.38,-34.38 v -618.72"
         style="fill:#234354;fill-opacity:1;fill-rule:nonzero;stroke:none"
         id="path220" /><path
         d="m 4226.88,1827.84 h 945.33 c 18.94,0 34.33,-15.42 34.33,-34.36 v -206.25 c 0,-75.91 -61.59,-137.5 -137.48,-137.5 h -319.65 v -35.26 c 0,-28.53 -23.1,-51.59 -51.58,-51.59 -28.47,0 -51.56,23.06 -51.56,51.59 v 35.26 H 4330 c -75.95,0 -137.55,61.59 -137.55,137.5 v 206.25 c 0,18.94 15.42,34.36 34.43,34.36"
         style="fill:#082633;fill-opacity:1;fill-rule:nonzero;stroke:none"
         id="path222" /><path
         d="m 4192.45,1621.61 c 0,-75.91 61.6,-137.5 137.55,-137.5 h 739.06 c 75.89,0 137.48,61.59 137.48,137.5 v 206.23 c 0,18.98 -15.39,34.38 -34.33,34.38 h -945.33 c -19.01,0 -34.43,-15.4 -34.43,-34.38 v -206.23"
         style="fill:#366377;fill-opacity:1;fill-rule:nonzero;stroke:none"
         id="path224" /><path
         d="m 4646.27,1448.83 c 0,-28.49 23.09,-51.56 51.56,-51.56 28.48,0 51.58,23.07 51.58,51.56 v 82.14 h -103.14 v -82.14"
         style="fill:#f99920;fill-opacity:1;fill-rule:nonzero;stroke:none"
         id="path226" /><path
         d="m 4657.73,1452.21 c 0,-22.18 17.96,-40.12 40.1,-40.12 22.15,0 40.11,17.94 40.11,40.12 v 63.9 h -80.21 v -63.9"
         style="fill:#ffaf57;fill-opacity:1;fill-rule:nonzero;stroke:none"
         id="path228" /><path
         d="m 4656.08,1470.08 h 88.34 v 13.81 h -88.34 v -13.81"
         style="fill:#f99920;fill-opacity:1;fill-rule:nonzero;stroke:none"
         id="path230" /></g></g></svg>
