<?xml version="1.0" encoding="UTF-8" standalone="no"?>
<svg
   xmlns:dc="http://purl.org/dc/elements/1.1/"
   xmlns:cc="http://creativecommons.org/ns#"
   xmlns:rdf="http://www.w3.org/1999/02/22-rdf-syntax-ns#"
   xmlns:svg="http://www.w3.org/2000/svg"
   xmlns="http://www.w3.org/2000/svg"
   xmlns:sodipodi="http://sodipodi.sourceforge.net/DTD/sodipodi-0.dtd"
   xmlns:inkscape="http://www.inkscape.org/namespaces/inkscape"
   version="1.1"
   id="svg2"
   xml:space="preserve"
   width="1466.6667"
   height="1066.6667"
   viewBox="0 0 1466.6667 1066.6667"
   sodipodi:docname="soulmates.svg"
   inkscape:version="1.0.1 (3bc2e813f5, 2020-09-07)"><metadata
     id="metadata8"><rdf:RDF><cc:Work
         rdf:about=""><dc:format>image/svg+xml</dc:format><dc:type
           rdf:resource="http://purl.org/dc/dcmitype/StillImage" /><dc:title></dc:title></cc:Work></rdf:RDF></metadata><defs
     id="defs6" /><sodipodi:namedview
     pagecolor="#ffffff"
     bordercolor="#666666"
     borderopacity="1"
     objecttolerance="10"
     gridtolerance="10"
     guidetolerance="10"
     inkscape:pageopacity="0"
     inkscape:pageshadow="2"
     inkscape:window-width="1920"
     inkscape:window-height="1106"
     id="namedview4"
     showgrid="false"
     inkscape:zoom="0.68906245"
     inkscape:cx="733.33337"
     inkscape:cy="533.33337"
     inkscape:window-x="-11"
     inkscape:window-y="-11"
     inkscape:window-maximized="1"
     inkscape:current-layer="g12" /><g
     id="g10"
     inkscape:groupmode="layer"
     inkscape:label="ink_ext_XXXXXX"
     transform="matrix(1.3333333,0,0,-1.3333333,0,1066.6667)"><g
       id="g12"
       transform="scale(0.1)"><path
         d="m 7735.4,5216.58 -110.53,121.48 46.6,52.65 92.95,-65.29 11.21,35.81 82.71,-116.23 -41.52,-61.72 -81.42,33.3"
         style="fill:#ebceb1;fill-opacity:1;fill-rule:nonzero;stroke:none"
         id="path16" /><path
         d="m 8691.43,5539 -280.98,-528.55 -585.75,313.06 -65.91,-133.56 671.22,-576.19 638.53,672.8 -377.11,252.44"
         style="fill:#ebb044;fill-opacity:1;fill-rule:nonzero;stroke:none"
         id="path18" /><path
         d="m 4539.98,5002.93 96.43,114.82 -47.28,43.35 -83.45,-64.01 -12.84,30.88 -70.55,-108.31 43.07,-51.7 74.62,34.97"
         style="fill:#ebceb1;fill-opacity:1;fill-rule:nonzero;stroke:none"
         id="path20" /><path
         d="m 3239.93,4731.66 c 10.7,29.77 27.47,57.72 47.67,82.12 62.96,76.01 169.06,122.29 263.2,92.65 65.85,-20.74 222.97,-156.56 280.25,-195.08 0,0 161.84,86.45 305.47,173.27 19.79,11.96 294.13,184.03 297.36,179.73 l 80.21,-106.96 c 6.51,-8.63 -645.57,-549.98 -710.52,-609.13 -28.01,-25.51 -304.2,104.07 -345.62,118.74 -97.63,34.59 -221.8,55.25 -230.37,182.27 -1.9,28.07 2.83,55.94 12.35,82.39"
         style="fill:#145566;fill-opacity:1;fill-rule:nonzero;stroke:none"
         id="path22" /><path
         d="m 3023.34,5252.32 c -2.59,-0.63 -5.17,-1.29 -7.74,-1.97 -122.76,-32.43 -238.32,-227.22 -304.89,-341.83 -171.83,-295.88 -268.23,-613.55 -318.03,-956.37 -26.81,-184.6 -45.63,-370.42 -60.74,-556.47 -4.18,-51.39 -11.69,-514.95 -35.63,-523.33 245.62,85.96 494.44,165.25 749.62,201.29 255.19,36.06 518.39,27.6 762.21,-59.17 -10.27,590.68 -53.6,1195.37 -149.13,1775.79 -11.42,69.43 -16.03,142.57 -37.04,209.52 -24.19,77.09 -70.51,104.29 -127.24,154.67 -19.43,17.27 -39.01,34.63 -61.05,47.63 -116.17,68.51 -281.28,82.12 -410.34,50.24"
         style="fill:#145566;fill-opacity:1;fill-rule:nonzero;stroke:none"
         id="path24" /><path
         d="m 2513.57,3343.84 188.26,-1106.99 -52.71,-801.94 128.02,-37.64 105.43,741.68 227.67,1355.74 -596.67,-150.85"
         style="fill:#ebceb1;fill-opacity:1;fill-rule:nonzero;stroke:none"
         id="path26" /><path
         d="m 2777.14,1374.68 15.06,-82.84 -30.12,-158.15 -105.43,7.54 -22.59,233.45 15.06,37.64 128.02,-37.64"
         style="fill:#3b455a;fill-opacity:1;fill-rule:nonzero;stroke:none"
         id="path28" /><path
         d="m 3545.25,3389.01 -45.18,-941.3 -222.62,-1317.85 h -129.1 l 42.97,1219.94 -180.74,1122.06 534.67,-82.85"
         style="fill:#ebceb1;fill-opacity:1;fill-rule:nonzero;stroke:none"
         id="path30" /><path
         d="m 3275.06,1152.32 166.25,-104.51 -19.65,-79.779 -302.82,59.799 23.21,115.2 133.01,9.29"
         style="fill:#3b455a;fill-opacity:1;fill-rule:nonzero;stroke:none"
         id="path32" /><path
         d="m 3575.37,3283.59 7.53,-1091.93 -143.08,-737.99 -346.4,45.19 v 850.94 l -82.84,933.79 33.89,141.96 500.78,-44.07 30.12,-97.89"
         style="fill:#5775ba;fill-opacity:1;fill-rule:nonzero;stroke:none"
         id="path34" /><path
         d="m 2972.93,2297.09 -97.9,-775.64 -301.22,37.65 60.25,737.99 -122.73,941.32 62.48,256.03 506.2,-68.89 -107.08,-1128.46"
         style="fill:#5775ba;fill-opacity:1;fill-rule:nonzero;stroke:none"
         id="path36" /><path
         d="m 3547.35,3388.14 c -315.42,-12.23 -676.21,-28.47 -982.28,85.42 46.77,562.52 132.56,1011.51 329.25,1538.73 35.67,95.62 83.94,197.74 175.59,238.12 98.21,43.28 292.76,13.87 337.17,-96.82 64.96,-161.93 53.69,-406.72 71.16,-580.71 39.51,-393.7 61.83,-789.02 69.11,-1184.74"
         style="fill:#ffffff;fill-opacity:1;fill-rule:nonzero;stroke:none"
         id="path38" /><path
         d="m 3013.5,5217.47 c 0,0 -256.24,-1380.89 -71.18,-1679.85 185.07,-298.96 265.81,-412.84 265.81,-412.84 L 2409.56,2919.7 c 0,0 119.92,1963.22 603.94,2297.77"
         style="fill:#145566;fill-opacity:1;fill-rule:nonzero;stroke:none"
         id="path40" /><path
         d="m 7587.44,6228.77 c -47.68,21.23 -71.33,81.03 -42.79,131.04 51.66,90.54 96.71,179.69 41.7,280.88 -66.9,123.08 -232.5,168.66 -353.14,97.66 -148.79,-87.56 -130.45,-246.73 -50.17,-375.46 31.29,-50.17 7.97,-112.34 -40.82,-134.12 h -590.83 v -8 -210.07 -365.82 c -18.68,-53.5 -84.18,-80.71 -136.71,-48 -128.77,80.21 -287.96,98.45 -375.43,-50.38 -70.92,-120.68 -25.26,-286.26 97.86,-353.09 101.23,-54.95 190.35,-9.85 280.86,41.87 52.11,29.77 114.75,2.81 133.42,-48.94 v -577.07 h 552.8 c 72.94,0 117.46,-80.22 78.85,-142.12 -80.28,-128.73 -98.62,-287.9 50.17,-375.46 120.64,-70.99 286.24,-25.42 353.14,97.66 55.01,101.19 9.96,190.34 -41.7,280.88 -35.36,61.97 9.34,139.04 80.68,139.04 h 545.56 v 567.56 c -15.03,56.61 -81.31,87.6 -135.89,56.42 -90.51,-51.72 -179.64,-96.82 -280.86,-41.87 -123.12,66.83 -168.79,232.41 -97.86,353.09 87.47,148.83 246.65,130.59 375.43,50.38 55.15,-34.35 124.63,-2.68 139.18,56.17 v 342.24 227.51 8 h -583.45"
         style="fill:#8aaef4;fill-opacity:1;fill-rule:nonzero;stroke:none"
         id="path42" /><path
         d="m 4923.09,6233.26 c -49.14,17.57 -77.24,75.42 -52.56,127.44 44.69,94.18 82.88,186.48 20.4,283.23 -76.01,117.68 -244.58,150.62 -359.52,70.72 -141.75,-98.53 -111.45,-255.87 -21.68,-378.17 34.98,-47.67 16.42,-111.42 -30.59,-136.82 l -589.14,-44.59 0.61,-7.98 15.85,-209.46 27.61,-364.78 c -14.6,-54.76 -77.85,-86.84 -132.7,-58.18 -134.47,70.26 -294.57,76.43 -370.56,-78.58 -61.61,-125.68 -3.58,-287.34 124.23,-344.69 105.08,-47.15 190.55,4.55 276.9,62.95 49.71,33.62 114.21,11.45 136.73,-38.74 l 43.56,-575.41 551.21,41.71 c 1.07,0.08 2.08,-0.03 3.14,0.02 l 34.8,2.64 c 47.01,25.39 65.57,89.15 30.59,136.82 -89.77,122.3 -120.07,279.64 21.68,378.17 114.94,79.9 283.51,46.95 359.51,-70.72 62.49,-96.75 24.3,-189.05 -20.39,-283.23 -24.68,-52.03 3.41,-109.87 52.56,-127.45 l 34.61,2.63 c 1.07,0.12 2.08,0.37 3.16,0.45 l 544,41.17 -42.83,565.94 c -18.09,63.02 -81.92,83.32 -139.77,46.01 -87.59,-56.51 -165.21,-106.79 -270.28,-59.64 -127.82,57.35 -192.45,215.7 -130.84,341.39 75.98,155 236.09,148.83 370.55,78.57 57.59,-30.09 124.49,6.73 134.55,66.5 l -25.83,341.28 -17.17,226.86 -0.6,7.97 -581.79,-44.03"
         style="fill:#3ababa;fill-opacity:1;fill-rule:nonzero;stroke:none"
         id="path44" /><path
         d="M 8782.74,3744.65 V 3508.3 l -315.13,-1024.16 78.78,-1063.55 -196.95,-39.4 -315.13,1299.9 12.06,382.45 145.51,780 590.86,-98.89"
         style="fill:#1d2a30;fill-opacity:1;fill-rule:nonzero;stroke:none"
         id="path46" /><path
         d="M 8532.76,3464.8 8849.4,1298.31 h 143.93 l 90.9,1181.72 196.96,1181.73 -748.43,-196.96"
         style="fill:#1d2a30;fill-opacity:1;fill-rule:nonzero;stroke:none"
         id="path48" /><path
         d="m 8374.93,1389.77 -150.35,-159.13 43.43,-80.65 310.23,148.91 -57.14,117.89 -146.17,-27.02"
         style="fill:#363636;fill-opacity:1;fill-rule:nonzero;stroke:none"
         id="path50" /><path
         d="m 8852.07,1297.63 -185.33,-116.52 21.9,-88.95 337.59,66.68 -25.87,128.42 -148.29,10.37"
         style="fill:#363636;fill-opacity:1;fill-rule:nonzero;stroke:none"
         id="path52" /><path
         d="m 8398.54,6016.34 c 123.03,-9.05 238.07,91.98 359.16,66.89 78.74,-16.3 140.89,-86.13 164.92,-164.83 11.2,-36.69 15.17,-76.67 4.21,-113.15 -7.12,-23.67 -20.23,-45.01 -35.68,-63.97 -20.65,-25.34 -45.9,-46.41 -73.93,-62.58 15.39,-24.81 33.04,-48.24 52.66,-69.87 -56.74,-21.73 -113.48,-43.46 -170.22,-65.2 -12.54,32.61 -25.08,65.22 -37.62,97.82 -17.06,0.94 -34.06,3.37 -50.72,7.7 -100.74,26.13 -184.26,114.37 -206.73,218.38 -10.52,48.73 -8.5,99.12 -6.05,148.81"
         style="fill:#ebceb1;fill-opacity:1;fill-rule:nonzero;stroke:none"
         id="path54" /><path
         d="m 8429.61,5979.22 380.42,45.2 73.83,-290.59 107.43,85.25 -55.35,475.49 -536.88,11.56 -232.47,-136.37 9.84,-136.66 207.86,-139.93 45.32,86.05"
         style="fill:#3b455a;fill-opacity:1;fill-rule:nonzero;stroke:none"
         id="path56" /><path
         d="m 8587.31,5507.45 468.82,185.98 c 0,0 166.62,-413.85 356.03,-1076.77 189.4,-662.93 -204.23,-1381.98 -204.23,-1381.98 0,0 -959.99,392.11 -1174.47,434.2 l 271.25,950.1 282.6,888.47"
         style="fill:#ebb044;fill-opacity:1;fill-rule:nonzero;stroke:none"
         id="path58" /><path
         d="m 7640.44,4457.77 -169.12,7.63 0.11,72.42 116.97,20.42 -15.84,34.28 143.92,-24.16 10.05,-75.3 -86.09,-35.29"
         style="fill:#ebceb1;fill-opacity:1;fill-rule:nonzero;stroke:none"
         id="path60" /><path
         d="m 8699.93,5347.6 -285.91,-597.01 -743.53,-157.71 27.58,-148.4 919.11,-8.38 514.02,651.82 -431.27,259.68"
         style="fill:#ebb044;fill-opacity:1;fill-rule:nonzero;stroke:none"
         id="path62" /><path
         d="m 3383.08,5562.27 c 25.39,-74.29 -11.32,-153.51 -43.59,-221.23 -13.18,-27.66 -33.97,-66.38 -11.46,-94.43 25.21,-31.39 80.05,-19.45 102.27,7.89 15.68,19.3 22.08,44.07 27.4,68.15 23.86,107.86 57.13,258.93 38.63,368.22 -14.83,87.62 -132.06,234.66 -234.03,168.5 -18.51,-12.03 -29.28,-32.33 -38.3,-52.14 -5.37,-11.84 -10.49,-24.18 -10.65,-37.12 -0.62,-51.6 47.73,-60.32 81.12,-84.88 41.18,-30.28 72.4,-75.52 88.61,-122.96"
         style="fill:#3b455a;fill-opacity:1;fill-rule:nonzero;stroke:none"
         id="path64" /><path
         d="m 3228.45,5272.23 c 70.52,16.19 125.65,73.88 152.15,139.59 26.49,65.7 27.88,138.55 20.55,208.79 -24.38,233.71 -322.74,218.7 -423.77,39.58 -88.05,-156.11 46.04,-435.02 251.07,-387.96"
         style="fill:#ebceb1;fill-opacity:1;fill-rule:nonzero;stroke:none"
         id="path66" /><path
         d="m 2999.84,5550.93 c -14.7,-54.38 -17.13,-120.39 -14.4,-160.25 3.1,-45.43 25.36,-168.89 -59.62,-149.34 -70.86,16.32 -130.5,178.25 -153.05,236.16 -54.79,140.72 -68.77,288.63 15.54,418.63 32.86,50.67 78.68,95.37 136.17,116.66 86.45,32.01 236.77,44.89 324.8,7.73 95.94,-40.5 146.83,-161.59 86.47,-250 -64.92,-95.09 -215.62,-70.72 -296.84,-144.39 -18.02,-16.34 -30.59,-43.84 -39.07,-75.2"
         style="fill:#3b455a;fill-opacity:1;fill-rule:nonzero;stroke:none"
         id="path68" /><path
         d="m 3232.34,5296.94 c -2.11,-17.77 -4.22,-35.53 -6.33,-53.31 -0.97,-8.14 1.63,-30.95 -4.48,-37.05 -3.19,-3.18 -8.33,-3.24 -12.88,-3.08 -13.03,0.44 -129.71,4.91 -129.12,12.68 1.6,20.86 3.63,41.34 8.07,61.53 3.59,16.32 2.91,46.32 11.02,59.21 20.8,-12.14 41.8,-18.89 65.47,-23.55 22.84,-4.49 45.76,-8.59 68.74,-12.3 -0.16,-1.37 -0.32,-2.75 -0.49,-4.13"
         style="fill:#ebceb1;fill-opacity:1;fill-rule:nonzero;stroke:none"
         id="path70" /><path
         d="m 3953.72,5416.28 83.07,142.94 -59.55,38.17 -78.56,-85.29 -19.79,31.12 -56.18,-130.98 56.54,-48.03 74.47,52.07"
         style="fill:#ebceb1;fill-opacity:1;fill-rule:nonzero;stroke:none"
         id="path72" /><path
         d="m 3608.9,5274.95 c 16.9,15.05 208.49,196.09 217.97,188.02 l 107.33,-101.06 c 16.31,-17.2 -324.77,-503.33 -357.3,-542.07 -71.64,-85.3 -190.7,-262.71 -190.7,-262.71 -96.41,-4.97 -369.42,-31.09 -465.89,-34.83 -38.86,-1.51 -123.7,-21.43 -156.81,-2.37 -41.99,24.18 -40.68,102.73 -33.42,142.24 14.88,81.05 61.38,155.87 127.45,205.11 23.74,17.67 50.45,32.36 79.61,37.47 30.04,5.27 60.83,0.13 90.9,-4.99 51.01,-8.7 143.97,-43.96 193.65,-27.78 43.93,14.31 88.4,87.64 118.49,121.16 44.39,49.45 88.2,99.42 133.54,148 31,33.23 91.3,121.11 135.18,133.81"
         style="fill:#145566;fill-opacity:1;fill-rule:nonzero;stroke:none"
         id="path74" /></g></g></svg>
