<?xml version="1.0" encoding="UTF-8" standalone="no"?>
<svg
   xmlns:dc="http://purl.org/dc/elements/1.1/"
   xmlns:cc="http://creativecommons.org/ns#"
   xmlns:rdf="http://www.w3.org/1999/02/22-rdf-syntax-ns#"
   xmlns:svg="http://www.w3.org/2000/svg"
   xmlns="http://www.w3.org/2000/svg"
   xmlns:sodipodi="http://sodipodi.sourceforge.net/DTD/sodipodi-0.dtd"
   xmlns:inkscape="http://www.inkscape.org/namespaces/inkscape"
   version="1.1"
   id="svg2"
   xml:space="preserve"
   width="600"
   height="600"
   viewBox="0 0 600 600"
   sodipodi:docname="translation.svg"
   inkscape:version="1.0.1 (3bc2e813f5, 2020-09-07)"><metadata
     id="metadata8"><rdf:RDF><cc:Work
         rdf:about=""><dc:format>image/svg+xml</dc:format><dc:type
           rdf:resource="http://purl.org/dc/dcmitype/StillImage" /><dc:title></dc:title></cc:Work></rdf:RDF></metadata><defs
     id="defs6" /><sodipodi:namedview
     pagecolor="#ffffff"
     bordercolor="#666666"
     borderopacity="1"
     objecttolerance="10"
     gridtolerance="10"
     guidetolerance="10"
     inkscape:pageopacity="0"
     inkscape:pageshadow="2"
     inkscape:window-width="1920"
     inkscape:window-height="1106"
     id="namedview4"
     showgrid="false"
     inkscape:zoom="1.225"
     inkscape:cx="300"
     inkscape:cy="300"
     inkscape:window-x="-11"
     inkscape:window-y="-11"
     inkscape:window-maximized="1"
     inkscape:current-layer="g12" /><g
     id="g10"
     inkscape:groupmode="layer"
     inkscape:label="ink_ext_XXXXXX"
     transform="matrix(1.3333333,0,0,-1.3333333,0,600)"><g
       id="g12"
       transform="scale(0.1)"><path
         d="M 1241.2568,384.31415 H 310.10137 V 4006.9073 H 1241.2568 V 384.31415"
         style="fill:#f17527;fill-opacity:1;fill-rule:nonzero;stroke:none;stroke-width:7.28775"
         id="path252" /><path
         d="M 1153.6581,3675.0233 H 397.62721 v 239.9855 h 756.03089 v -239.9855"
         style="fill:#b3591e;fill-opacity:1;fill-rule:nonzero;stroke:none;stroke-width:7.28775"
         id="path254" /><path
         d="M 1153.6581,476.21264 H 397.62721 v 239.9855 h 756.03089 v -239.9855"
         style="fill:#b3591e;fill-opacity:1;fill-rule:nonzero;stroke:none;stroke-width:7.28775"
         id="path256" /><path
         d="m 610.42941,1338.2802 v 187.4409 c 9.25544,1.8948 18.58375,2.7693 28.05782,2.7693 10.27573,0 19.89555,-0.8745 29.00523,-2.7693 v -120.3207 h 71.71143 v 95.5423 c 9.83846,1.822 19.23965,2.7694 28.56799,2.7694 9.5469,0 19.3125,-0.9474 28.7866,-2.7694 v -95.5423 h 87.3072 v 123.5273 c 9.2554,1.8948 18.5837,2.8422 27.9849,2.8422 10.2758,0 19.7498,-0.9474 29.0781,-2.8422 V 1338.2802 H 610.42941"
         style="fill:#fbe5d4;fill-opacity:1;fill-rule:nonzero;stroke:none;stroke-width:7.28775"
         id="path258" /><path
         d="m 610.42941,1582.1282 c -1.74906,9.547 -2.55071,18.5838 -2.55071,27.1105 0,9.2554 0.80165,18.7295 2.55071,28.5679 l 210.47017,127.6813 H 610.42941 c -1.74906,11.0045 -2.55071,21.5718 -2.55071,31.7746 0,9.4012 0.80165,18.6567 2.55071,27.5477 h 330.49927 c 1.7491,-9.9113 2.6965,-18.7295 2.6965,-26.6731 0,-8.5996 -0.9474,-17.9279 -2.6965,-28.0579 L 730.89586,1641.4505 h 210.03282 c 1.7491,-9.7656 2.6965,-19.7498 2.6965,-29.8798 0,-10.1299 -0.9474,-19.8955 -2.6965,-29.4425 H 610.42941"
         style="fill:#fbe5d4;fill-opacity:1;fill-rule:nonzero;stroke:none;stroke-width:7.28775"
         id="path260" /><path
         d="m 769.52088,2070.6988 c -1.749,11.296 -2.7693,22.3005 -2.7693,33.0135 0,10.713 1.0203,21.8632 2.7693,33.5236 h 162.0795 c 5.9031,-15.8873 9.9114,-32.5762 11.8791,-49.7753 1.8948,-17.3448 2.8422,-32.4305 2.8422,-45.3298 0,-26.8918 -4.154,-50.5041 -12.6807,-70.6911 -8.308,-20.1871 -20.1142,-37.0947 -35.1998,-50.5041 -15.1585,-13.6281 -33.305,-23.6123 -54.148,-30.3899 -20.8429,-6.7047 -43.3621,-10.13 -67.9218,-10.13 -24.48681,0 -47.29746,3.4981 -68.21329,10.5672 -20.98871,6.9963 -39.1352,17.272 -54.29371,30.5357 -15.37715,13.3366 -27.40193,29.734 -36.07435,49.1923 -8.45378,19.4583 -12.82643,41.613 -12.82643,66.3914 0,14.7212 1.02028,28.4222 2.9151,41.1029 1.74906,12.7535 5.39293,26.0172 11.36888,39.7182 9.25544,-0.583 18.29225,-2.405 26.96466,-5.4658 8.59955,-2.988 17.41772,-6.4861 26.38165,-10.13 -3.71675,-10.6401 -6.26746,-20.1871 -7.79789,-28.4222 -1.53043,-8.3809 -2.33208,-18.1465 -2.33208,-29.4425 0,-29.4425 9.61983,-51.9616 28.71372,-67.7761 19.0939,-15.7415 47.37035,-23.6851 85.19374,-23.6851 37.6048,0 65.8084,7.8707 84.2464,23.4665 18.5837,15.5958 27.912,38.5522 27.912,68.8692 0,5.2472 -0.3643,9.9114 -1.0202,13.9925 -0.4373,4.154 -1.0203,7.9436 -1.6762,11.3689 h -116.3125"
         style="fill:#fbe5d4;fill-opacity:1;fill-rule:nonzero;stroke:none;stroke-width:7.28775"
         id="path262" /><path
         d="m 610.42941,2196.048 c -1.74906,11.3689 -2.55071,22.2276 -2.55071,32.6491 0,10.6401 0.80165,21.8633 2.55071,33.5965 h 272.48887 v 114.3448 c 5.2472,0.9474 10.2028,1.5304 15.0856,1.8219 4.737,0.2186 9.2554,0.4373 13.4095,0.4373 4.9556,0 9.7655,-0.2187 14.5755,-0.4373 4.6641,-0.2915 9.7655,-0.8745 14.9398,-1.8219 V 2196.048 H 610.42941"
         style="fill:#fbe5d4;fill-opacity:1;fill-rule:nonzero;stroke:none;stroke-width:7.28775"
         id="path264" /><path
         d="m 610.42941,2422.4783 c -1.74906,11.4418 -2.55071,22.5191 -2.55071,33.5965 0,11.0774 0.80165,22.3005 2.55071,33.9609 h 330.49927 c 1.7491,-11.6604 2.6965,-22.7378 2.6965,-33.5236 0,-11.296 -0.9474,-22.592 -2.6965,-34.0338 H 610.42941"
         style="fill:#fbe5d4;fill-opacity:1;fill-rule:nonzero;stroke:none;stroke-width:7.28775"
         id="path266" /><path
         d="m 787.74028,2614.5104 c -3.8625,-10.4214 -8.1623,-19.7498 -12.9722,-27.9849 -4.5913,-8.2352 -10.3486,-15.3043 -16.98043,-21.2074 -6.55898,-5.7573 -14.35687,-10.2757 -23.68518,-13.4823 -9.10968,-3.2795 -20.18706,-4.8828 -32.94062,-4.8828 -15.74153,0 -29.58825,2.6965 -41.54015,8.0894 -11.87903,5.3929 -22.009,12.8993 -30.09839,22.8107 -8.01653,9.7655 -14.13823,21.4988 -18.29225,35.3455 -4.15401,13.701 -6.26746,29.2239 -6.26746,46.3501 0,15.6687 1.45755,30.2442 4.22689,43.9451 2.69647,13.6281 6.70473,27.9121 12.02478,42.9248 17.70923,-1.8948 34.98119,-6.7776 52.32602,-14.7212 -1.96769,-4.5184 -3.8625,-9.3283 -5.61156,-13.9925 -1.74906,-4.6641 -3.35236,-9.8384 -4.66416,-15.1585 -1.09316,-5.3929 -2.18632,-11.4418 -2.84222,-18.2194 -0.80165,-6.7047 -1.16604,-14.3568 -1.16604,-22.9564 0,-5.1743 0.36439,-10.4943 1.3118,-15.7415 1.02028,-5.3929 2.69646,-10.2757 4.95566,-14.5755 2.55071,-4.2269 6.26747,-7.7979 10.93162,-10.4943 4.73704,-2.8423 11.0045,-4.1541 18.58376,-4.1541 6.1217,0 11.36888,1.0932 15.45002,3.1338 4.08114,2.1863 7.57926,5.1743 10.64011,8.8181 2.84222,3.6439 5.24718,7.7979 7.36062,12.3892 1.89482,4.5913 3.78963,9.1097 5.61157,13.8467 l 10.71299,27.5477 c 4.5184,11.5147 9.32831,22.0819 14.13823,31.6288 4.80989,9.547 10.85869,17.5635 18.07359,24.1954 7.2149,6.4861 15.9602,11.6604 26.2359,15.3042 10.2757,3.7168 22.8835,5.5387 37.8234,5.5387 15.6687,0 29.9526,-2.8422 42.7791,-8.5267 12.9722,-5.6115 23.9038,-13.7738 33.0864,-24.5597 9.1825,-10.7129 16.3974,-23.9766 21.6446,-39.7911 5.1743,-15.7415 7.725,-33.888 7.725,-54.3665 0,-10.13 -0.1458,-19.1668 -0.9474,-27.1833 -0.5102,-7.8708 -1.3847,-15.5229 -2.9151,-22.6649 -1.3847,-7.2149 -3.2066,-14.3569 -5.2472,-21.3531 -2.2592,-7.0691 -4.6642,-14.4298 -7.8708,-22.0819 -8.9639,0.8745 -18.1465,2.6236 -27.6934,5.1014 -9.7656,2.405 -19.3854,5.3201 -29.3696,8.7453 5.32,12.7536 9.1825,24.9241 11.879,36.2201 2.5507,11.3689 3.8625,23.3937 3.8625,36.3659 0,19.2396 -3.7168,34.3981 -10.8587,45.4755 -7.0692,11.0045 -18.0737,16.4703 -32.8678,16.4703 -7.3606,0 -13.4094,-1.3118 -18.2922,-3.9354 -4.9557,-2.6236 -8.964,-5.903 -12.3163,-10.0571 -3.2795,-4.154 -6.1946,-8.7452 -8.6724,-13.9924 -2.1864,-5.1743 -4.4456,-10.6401 -6.559,-16.1059 l -10.713,-28.0579"
         style="fill:#fbe5d4;fill-opacity:1;fill-rule:nonzero;stroke:none;stroke-width:7.28775"
         id="path268" /><path
         d="m 610.42941,2807.0527 c -1.74906,11.3689 -2.55071,22.4463 -2.55071,33.5236 0,11.0045 0.80165,22.3734 2.55071,33.9609 H 740.00554 V 2985.311 H 610.42941 c -1.74906,11.296 -2.55071,22.5191 -2.55071,33.5965 0,11.0045 0.80165,22.3005 2.55071,33.9609 h 330.49927 c 1.7491,-11.6604 2.6965,-22.8107 2.6965,-33.5236 0,-11.2961 -0.9474,-22.7378 -2.6965,-34.0338 h -142.9127 v -110.7738 h 142.9127 c 1.7491,-11.5875 2.6965,-22.7377 2.6965,-33.5236 0,-11.296 -0.9474,-22.592 -2.6965,-33.9609 H 610.42941"
         style="fill:#fbe5d4;fill-opacity:1;fill-rule:nonzero;stroke:none;stroke-width:7.28775"
         id="path270" /><path
         d="M 2272.2543,384.31415 H 1341.3175 V 4006.9073 h 930.9368 V 384.31415"
         style="fill:#1b405e;fill-opacity:1;fill-rule:nonzero;stroke:none;stroke-width:7.28775"
         id="path272" /><path
         d="m 2184.8013,3675.0233 h -756.0308 v 239.9855 h 756.0308 v -239.9855"
         style="fill:#14212a;fill-opacity:1;fill-rule:nonzero;stroke:none;stroke-width:7.28775"
         id="path274" /><path
         d="m 2184.8013,476.21264 h -756.0308 v 239.9855 h 756.0308 v -239.9855"
         style="fill:#14212a;fill-opacity:1;fill-rule:nonzero;stroke:none;stroke-width:7.28775"
         id="path276" /><path
         d="m 1918.7986,1308.4005 c 0.2186,2.7693 0.4372,6.2674 0.7288,10.5672 0.5101,4.2998 0.5101,9.547 0.5101,15.5958 0,14.1382 -1.6033,27.2562 -4.8099,39.3538 -3.2066,12.0977 -9.1097,22.592 -17.5635,31.4831 -8.7453,8.891 -20.2599,15.8144 -34.471,21.0616 -14.4298,5.1743 -33.0135,7.7979 -55.7513,7.7979 -22.009,0 -40.3012,-2.6236 -55.0954,-7.7979 -14.7941,-5.2472 -26.3087,-12.1706 -34.9083,-21.0616 -8.4537,-8.8911 -14.5755,-19.1668 -18.0736,-30.6086 -3.571,-11.4417 -5.32,-23.6122 -5.32,-36.5116 0,-4.2997 0.2186,-9.2554 0.2186,-14.867 0.073,-5.6844 0.583,-10.713 1.2389,-15.0127 z m -277.153,-67.5574 c -1.6033,12.8993 -2.8422,26.3816 -4.0083,40.447 -0.9474,14.0653 -1.3847,29.6611 -1.3847,46.933 0,57.8648 14.3569,101.8099 42.9978,132.054 28.8594,30.1713 72.0029,45.2569 129.649,45.2569 57.7918,0 100.5709,-15.3771 127.827,-45.9857 27.2562,-30.6085 40.8114,-76.084 40.8114,-136.4266 0,-15.6686 -0.6559,-30.0255 -1.6033,-43.2163 -1.0931,-13.1908 -2.3321,-26.163 -3.8625,-39.0623 h -330.4264"
         style="fill:#9fd5e8;fill-opacity:1;fill-rule:nonzero;stroke:none;stroke-width:7.28775"
         id="path278" /><path
         d="m 1641.6456,1561.0667 v 187.4408 c 9.1825,1.8948 18.5837,2.7693 28.0578,2.7693 10.0571,0 19.6769,-0.8745 29.0052,-2.7693 v -120.3207 h 71.5657 v 95.5424 c 9.7656,1.8219 19.3854,2.7693 28.4951,2.7693 9.8385,0 19.4583,-0.9474 29.0781,-2.7693 v -95.5424 h 87.0886 v 123.6002 c 9.2554,1.8219 18.5837,2.7693 28.2036,2.7693 10.057,0 19.6769,-0.9474 28.9323,-2.7693 v -190.7203 h -330.4264"
         style="fill:#9fd5e8;fill-opacity:1;fill-rule:nonzero;stroke:none;stroke-width:7.28775"
         id="path280" /><path
         d="m 1641.6456,1803.2385 c -0.9474,5.8302 -1.6033,11.5146 -1.7491,16.9804 -0.4372,5.5387 -0.583,11.2232 -0.583,17.0534 0,5.1743 0.1458,10.5672 0.583,16.033 0.1458,5.4658 0.8017,11.2231 1.7491,16.9804 h 171.3349 c 18.6566,0 34.6897,0.7288 48.172,2.0406 13.1908,1.4576 24.1953,4.2998 32.9406,8.3809 8.8182,4.154 15.0857,9.9114 19.1668,17.3449 4.3726,7.5792 6.2675,17.2719 6.2675,29.2238 0,11.9519 -1.8949,21.6446 -6.2675,28.9324 -4.0811,7.3606 -10.3486,13.1179 -19.1668,17.2719 -8.7453,4.1541 -19.7498,6.9234 -32.9406,8.2352 -13.4823,1.3118 -29.5154,2.0406 -48.172,2.0406 h -171.3349 c -0.9474,6.1945 -1.6033,11.9519 -1.7491,17.4906 -0.4372,5.5386 -0.583,10.8587 -0.583,16.1059 0,5.4658 0.1458,11.0773 0.583,16.7618 0.1458,5.6844 0.8017,11.4417 1.7491,17.2719 h 185.546 c 22.3734,0 42.9248,-1.8948 61.4357,-5.5386 18.5838,-3.7168 34.4711,-10.2758 47.589,-19.7498 13.1179,-9.547 23.2479,-22.2277 30.4628,-38.1878 7.142,-15.8144 10.8587,-36.1472 10.8587,-60.6341 0,-24.4868 -3.7167,-44.6739 -10.8587,-60.634 -7.2149,-15.8873 -17.3449,-28.6409 -30.4628,-38.0421 -13.1179,-9.5469 -29.0052,-16.1788 -47.589,-19.8955 -18.5109,-3.6439 -39.0623,-5.4658 -61.4357,-5.4658 h -185.546"
         style="fill:#9fd5e8;fill-opacity:1;fill-rule:nonzero;stroke:none;stroke-width:7.28775"
         id="path282" /><path
         d="m 1698.7086,2177.61 v -82.2058 c -9.3283,-1.8219 -18.9481,-2.7693 -29.0052,-2.7693 -9.4741,0 -18.8753,0.9474 -28.0578,2.7693 v 232.0419 c 9.1825,1.8219 18.5837,2.6965 28.0578,2.6965 10.0571,0 19.6769,-0.8746 29.0052,-2.6965 v -82.2058 h 273.3634 c 0.5102,-5.6116 1.0203,-11.0774 1.6033,-16.5432 0.2915,-5.6115 0.6559,-10.9316 0.6559,-16.1788 0,-5.1743 -0.1457,-10.7858 -0.5101,-16.7618 -0.2187,-5.9759 -0.8746,-12.0248 -1.7491,-18.1465 h -273.3634"
         style="fill:#9fd5e8;fill-opacity:1;fill-rule:nonzero;stroke:none;stroke-width:7.28775"
         id="path284" /><path
         d="m 1818.9565,2429.4017 c -3.9354,-10.4215 -8.3081,-19.7498 -13.118,-27.985 -4.6641,-8.2351 -10.4215,-15.3771 -16.9804,-21.2073 -6.559,-5.7573 -14.4298,-10.2757 -23.5395,-13.4824 -9.3283,-3.2794 -20.3328,-4.8827 -33.1592,-4.8827 -15.5229,0 -29.4425,2.6964 -41.3215,8.0894 -12.0248,5.3929 -21.9361,12.8993 -30.0984,22.8106 -8.2352,9.7656 -14.284,21.4989 -18.438,35.3456 -4.0083,13.7009 -6.0489,29.2238 -6.0489,46.35 0,15.5958 1.239,30.3171 4.0812,43.8723 2.7693,13.7009 6.7776,27.912 11.879,43.0706 17.7821,-1.8949 35.2727,-6.9234 52.3989,-14.7942 -1.8948,-4.5184 -3.7167,-9.3283 -5.6116,-13.9924 -1.749,-4.7371 -3.3523,-9.8385 -4.5184,-15.1586 -1.0931,-5.3929 -2.1863,-11.4417 -3.0608,-18.2193 -0.583,-6.7047 -1.0203,-14.3569 -1.0203,-22.9564 0,-5.2472 0.4373,-10.4944 1.3847,-15.8144 0.8016,-5.393 2.5507,-10.2029 5.0285,-14.5027 2.5507,-4.2997 6.0488,-7.7978 10.8588,-10.4943 4.6641,-2.8422 10.8587,-4.154 18.5837,-4.154 6.0488,0 11.1503,1.0203 15.3772,3.1337 4.154,2.1863 7.6521,5.1743 10.4943,8.8182 2.9151,3.6439 5.5387,7.7979 7.4335,12.3892 1.8948,4.5184 3.8625,9.1096 5.7573,13.7738 l 10.5673,27.6206 c 4.4455,11.5146 9.3283,22.0818 14.284,31.6288 4.737,9.474 10.8587,17.4906 18.0736,24.1224 7.0691,6.559 15.8873,11.6604 26.0901,15.3772 10.2757,3.7167 23.1022,5.5386 37.9692,5.5386 15.5957,0 29.9526,-2.8422 42.6333,-8.5266 12.9722,-5.6116 24.0495,-13.7739 33.305,-24.5597 9.1097,-10.713 16.3245,-23.9767 21.4988,-39.7911 5.2472,-15.7416 7.7979,-33.888 7.7979,-54.3666 0,-10.13 -0.3644,-19.1668 -0.9474,-27.1833 -0.6559,-7.8708 -1.6033,-15.5229 -2.9151,-22.7378 -1.3847,-7.142 -3.1337,-14.3568 -5.4658,-21.3531 -2.0406,-7.0691 -4.5913,-14.4297 -7.6521,-22.009 -8.964,0.8746 -18.0736,2.5507 -27.8392,5.0286 -9.6198,2.4778 -19.4583,5.3929 -29.151,8.8182 5.1014,12.7535 9.1097,24.924 11.6604,36.2201 2.5507,11.3688 3.7896,23.3936 3.7896,36.3658 0,19.2397 -3.4252,34.3982 -10.6401,45.4755 -7.2877,11.0045 -18.1465,16.4704 -32.8677,16.4704 -7.3607,0 -13.4824,-1.3118 -18.2194,-3.9354 -5.0285,-2.6236 -9.1826,-5.9031 -12.5349,-10.0571 -3.3524,-4.154 -6.2675,-8.7453 -8.5996,-13.9925 -2.2592,-5.1743 -4.5184,-10.5672 -6.6318,-16.1059 l -10.5672,-28.0578"
         style="fill:#9fd5e8;fill-opacity:1;fill-rule:nonzero;stroke:none;stroke-width:7.28775"
         id="path286" /><path
         d="m 1909.4703,2840.1391 c 8.6724,4.0082 17.4906,7.2148 26.4545,9.8384 8.9639,2.6236 18.2194,4.5913 27.4019,5.7573 5.7573,-15.8872 9.6198,-30.1712 11.296,-42.8519 1.9677,-12.8264 2.9151,-26.5274 2.9151,-41.1758 0,-26.0901 -4.2998,-48.9008 -12.6807,-68.4319 -8.4537,-19.6041 -20.1141,-36.0744 -35.3455,-49.4109 -15.2314,-13.3366 -33.1593,-23.3937 -54.0022,-30.0984 -20.7701,-6.7048 -43.435,-10.13 -68.0676,-10.13 -24.3411,0 -47.0788,3.4981 -68.2133,10.5672 -20.9887,6.9963 -39.0623,17.272 -54.2937,30.5357 -15.3772,13.3366 -27.2562,29.734 -35.9286,49.1923 -8.6724,19.4583 -12.7536,41.613 -12.7536,66.3914 0,14.7212 0.7288,28.2035 2.6965,40.6656 1.7491,12.462 5.6116,25.7986 11.5147,40.2283 9.1096,-0.6559 18.0736,-2.4778 26.746,-5.5386 8.8182,-3.0609 17.6363,-6.4861 26.6003,-10.13 -3.7897,-10.6401 -6.4133,-20.1871 -8.0166,-28.4222 -1.4575,-8.3081 -2.1863,-18.1465 -2.1863,-29.4425 0,-29.4425 9.6198,-51.9617 28.7866,-67.7761 19.021,-15.8144 47.4432,-23.6851 85.048,-23.6851 74.8452,0 112.0856,31.7017 112.0856,95.1051 0,11.3688 -0.5831,21.2802 -2.1864,29.8797 -1.6033,8.5267 -4.2269,18.2194 -7.8707,28.9324"
         style="fill:#9fd5e8;fill-opacity:1;fill-rule:nonzero;stroke:none;stroke-width:7.28775"
         id="path288" /><path
         d="m 1641.6456,2905.8017 c -1.7491,11.4417 -2.6965,22.5191 -2.6965,33.5965 0,11.0045 0.9474,22.3005 2.6965,33.9609 h 129.5761 v 110.7737 h -129.5761 c -1.7491,11.296 -2.6965,22.4463 -2.6965,33.5237 0,11.0773 0.9474,22.3733 2.6965,34.0337 h 330.4264 c 1.7491,-11.6604 2.5507,-22.8835 2.5507,-33.5965 0,-11.296 -0.8016,-22.6649 -2.5507,-33.9609 h -142.9856 v -110.7737 h 142.9856 c 1.7491,-11.6604 2.5507,-22.8107 2.5507,-33.5965 0,-11.2232 -0.8016,-22.5192 -2.5507,-33.9609 h -330.4264"
         style="fill:#9fd5e8;fill-opacity:1;fill-rule:nonzero;stroke:none;stroke-width:7.28775"
         id="path290" /><path
         d="M 4191.7011,625.31994 3292.2473,384.31415 2354.6058,3883.5258 3253.8409,4124.3129 4191.7011,625.31994"
         style="fill:#9fd5e8;fill-opacity:1;fill-rule:nonzero;stroke:none;stroke-width:7.28775"
         id="path292" /><path
         d="m 3255.2256,3781.2058 -730.1594,-195.676 -62.2373,231.8232 730.3051,195.676 62.0916,-231.8232"
         style="fill:#72bcdd;fill-opacity:1;fill-rule:nonzero;stroke:none;stroke-width:7.28775"
         id="path294" /><path
         d="m 4083.2594,691.4198 -730.3052,-195.74888 -61.9458,231.82322 730.0865,195.74888 62.1645,-231.82322"
         style="fill:#72bcdd;fill-opacity:1;fill-rule:nonzero;stroke:none;stroke-width:7.28775"
         id="path296" /><path
         d="m 3356.671,1304.0278 c -4.5913,10.4944 -8.4538,20.9887 -11.2231,31.7017 -2.8423,10.6401 -4.9557,21.7175 -6.1946,33.5237 l 319.0576,85.4852 c 4.737,-10.7858 8.4538,-21.3531 11.3689,-31.6288 2.8422,-11.0045 4.8828,-22.0819 6.0488,-33.5965 l -319.0576,-85.4853"
         style="fill:#d0ecf4;fill-opacity:1;fill-rule:nonzero;stroke:none;stroke-width:7.28775"
         id="path298" /><path
         d="m 3361.0436,1508.3034 21.2803,-79.3636 c -8.5267,-4.2269 -17.4906,-7.5792 -27.402,-10.2028 -8.9639,-2.4779 -18.438,-4.0083 -27.6934,-4.5913 l -60.051,224.0982 c 8.308,4.154 17.2719,7.5064 26.2359,9.9113 9.9113,2.5507 19.3125,4.2269 28.7866,4.8099 l 21.2802,-79.3635 263.9622,70.6911 c 1.9677,-5.1743 4.0812,-10.4215 5.976,-15.45 1.749,-5.3201 3.3523,-10.3486 4.8099,-15.45 1.2389,-4.9557 2.5507,-10.4944 3.8625,-16.3246 1.0932,-5.8302 2.2592,-11.879 2.9151,-18.0007 l -263.9623,-70.764"
         style="fill:#d0ecf4;fill-opacity:1;fill-rule:nonzero;stroke:none;stroke-width:7.28775"
         id="path300" /><path
         d="m 3425.9775,1851.0461 -124.1104,-72.7317 144.3703,-2.7694 z m -182.4123,-124.9849 c -2.5507,6.0489 -4.8099,11.6604 -6.7048,17.1991 -1.9677,5.4658 -3.8625,11.6604 -5.6115,18.5109 -1.6033,5.9031 -2.9151,11.7333 -4.0083,17.4906 -1.0931,5.7573 -2.1134,12.0976 -2.988,19.1668 l 292.2387,185.3274 c 5.0285,-11.6604 9.1097,-23.248 12.1705,-34.8355 3.0609,-11.2231 5.1743,-22.3734 6.1217,-33.4507 l -59.1036,-34.9083 28.3493,-105.6724 68.8692,-1.0931 c 4.4456,-10.2029 8.0166,-20.0413 10.713,-29.8798 2.9151,-10.8587 5.0286,-22.009 6.1217,-33.0864 l -346.1679,15.2314"
         style="fill:#d0ecf4;fill-opacity:1;fill-rule:nonzero;stroke:none;stroke-width:7.28775"
         id="path302" /><path
         d="m 3187.8868,1934.1993 c -4.8828,10.4943 -8.3809,20.8429 -11.1503,30.9 -2.6964,10.2757 -4.737,21.3531 -6.0488,33.0864 l 263.2334,70.5454 -29.734,110.4822 c 4.8828,2.2592 9.4741,4.0812 14.1382,5.6116 4.4456,1.4575 8.8182,2.7693 12.8265,3.9354 4.6641,1.2389 9.4012,2.3321 14.1382,3.2795 4.5913,1.0202 9.7656,1.6761 14.867,2.1863 l 46.7873,-174.4687 -319.0575,-85.5581"
         style="fill:#d0ecf4;fill-opacity:1;fill-rule:nonzero;stroke:none;stroke-width:7.28775"
         id="path304" /><path
         d="m 3129.2204,2152.9774 c -4.737,10.5673 -8.308,21.1345 -11.2231,31.7017 -2.8422,10.6401 -4.9557,21.7904 -6.4132,33.5965 l 319.2762,85.4853 c 4.8099,-10.7859 8.4537,-21.2802 11.3688,-31.7017 2.8423,-10.9316 4.7371,-22.009 6.0489,-33.5236 l -319.0576,-85.5582"
         style="fill:#d0ecf4;fill-opacity:1;fill-rule:nonzero;stroke:none;stroke-width:7.28775"
         id="path306" /><path
         d="m 3257.7034,2479.4685 -124.2561,-72.7317 144.4432,-2.7694 z m -182.4123,-125.0577 c -2.5507,6.0488 -4.8828,11.7332 -6.7776,17.199 -1.8948,5.5387 -3.8625,11.7333 -5.6116,18.5109 -1.6033,5.976 -2.9879,11.8062 -4.0082,17.5635 -1.1661,5.6844 -2.0406,12.0248 -3.0609,19.1668 l 292.3844,185.3274 c 4.8828,-11.6604 8.9639,-23.248 12.1705,-34.8355 2.988,-11.2231 5.1015,-22.4462 6.0489,-33.4507 l -59.1037,-34.9083 28.3494,-105.6724 68.7234,-1.0931 c 4.6642,-10.2029 8.1623,-20.1142 10.9317,-29.9527 2.8422,-10.8587 4.8827,-21.9361 6.0488,-33.0135 l -346.0951,15.1586"
         style="fill:#d0ecf4;fill-opacity:1;fill-rule:nonzero;stroke:none;stroke-width:7.28775"
         id="path308" /><path
         d="m 3019.3212,2562.5488 c -4.0083,8.6724 -7.2149,17.1991 -9.4741,25.4342 -2.332,8.8911 -3.9354,18.3652 -4.737,28.2765 l 170.2418,177.821 -203.2553,-54.4395 c -4.6642,10.13 -8.3809,20.1142 -10.9316,29.8798 -2.405,9.1826 -3.9354,18.3651 -4.4455,27.4019 l 319.0575,85.4853 c 4.2998,-9.0368 7.3606,-17.272 9.4741,-24.997 2.2592,-8.3809 3.7896,-17.6363 4.8099,-27.912 l -169.6588,-178.477 202.818,54.3666 c 4.2998,-9.0368 7.7979,-18.3651 10.4215,-28.2764 2.5507,-9.7656 4.2998,-19.3854 4.9557,-29.0781 l -319.2762,-85.4853"
         style="fill:#d0ecf4;fill-opacity:1;fill-rule:nonzero;stroke:none;stroke-width:7.28775"
         id="path310" /><path
         d="m 3175.4976,3061.4679 c -12.3163,45.84 -55.0954,58.885 -128.6287,39.2081 -36.5116,-9.7656 -62.6018,-22.7378 -77.9789,-38.6979 -15.3772,-16.1059 -19.8956,-35.71 -13.6281,-59.0308 12.4621,-46.4229 55.4598,-59.8324 128.6287,-40.2283 73.5334,19.6769 103.9962,52.6175 91.607,98.7489 z m 54.148,14.5755 c 6.4132,-24.0495 7.7979,-45.8399 4.154,-65.5168 -3.6439,-19.7498 -11.2231,-37.0946 -22.7378,-52.2532 -11.6604,-15.3042 -26.746,-28.2035 -45.3298,-38.9894 -18.438,-10.8587 -39.5724,-19.4583 -63.2576,-25.7986 -23.5394,-6.3404 -46.2772,-9.4012 -68.0676,-9.4012 -21.7903,0 -41.4672,3.6439 -59.2493,10.9316 -17.7821,7.3606 -33.1593,18.5109 -46.1315,33.8151 -13.045,15.1586 -22.6649,34.8355 -29.0781,58.8122 -6.3403,23.9766 -7.9436,45.767 -4.4455,65.371 3.7167,19.7498 11.5146,37.1676 23.2479,52.3989 11.6604,15.1586 27.0375,28.2036 45.767,39.0624 18.9482,10.9316 40.2284,19.6769 63.6221,25.8715 23.8309,6.4132 46.4958,9.5469 67.9218,9.3283 21.3531,-0.073 40.8114,-3.7168 58.6663,-11.0774 17.5635,-7.3606 32.7949,-18.5837 45.9128,-33.8151 12.9722,-15.2314 22.5921,-34.8355 29.0053,-58.7393"
         style="fill:#d0ecf4;fill-opacity:1;fill-rule:nonzero;stroke:none;stroke-width:7.28775"
         id="path312" /></g></g></svg>
