<?xml version="1.0" encoding="UTF-8" standalone="no"?>
<svg
   xmlns:dc="http://purl.org/dc/elements/1.1/"
   xmlns:cc="http://creativecommons.org/ns#"
   xmlns:rdf="http://www.w3.org/1999/02/22-rdf-syntax-ns#"
   xmlns:svg="http://www.w3.org/2000/svg"
   xmlns="http://www.w3.org/2000/svg"
   xmlns:sodipodi="http://sodipodi.sourceforge.net/DTD/sodipodi-0.dtd"
   xmlns:inkscape="http://www.inkscape.org/namespaces/inkscape"
   width="74.964417"
   height="4.0002332"
   viewBox="0 0 74.964417 4.0002332"
   version="1.1"
   id="svg4"
   sodipodi:docname="underline_small.svg"
   inkscape:version="1.0.1 (3bc2e813f5, 2020-09-07)"
   style="fill:none">
  <metadata
     id="metadata10">
    <rdf:RDF>
      <cc:Work
         rdf:about="">
        <dc:format>image/svg+xml</dc:format>
        <dc:type
           rdf:resource="http://purl.org/dc/dcmitype/StillImage" />
        <dc:title />
      </cc:Work>
    </rdf:RDF>
  </metadata>
  <defs
     id="defs8" />
  <sodipodi:namedview
     pagecolor="#ffffff"
     bordercolor="#666666"
     borderopacity="1"
     objecttolerance="10"
     gridtolerance="10"
     guidetolerance="10"
     inkscape:pageopacity="0"
     inkscape:pageshadow="2"
     inkscape:window-width="1920"
     inkscape:window-height="1106"
     id="namedview6"
     showgrid="false"
     inkscape:zoom="45.254834"
     inkscape:cx="62.089936"
     inkscape:cy="-1.5957122"
     inkscape:window-x="-11"
     inkscape:window-y="-11"
     inkscape:window-maximized="1"
     inkscape:current-layer="svg4"
     fit-margin-top="0"
     fit-margin-left="0"
     fit-margin-right="0"
     fit-margin-bottom="0"
     inkscape:document-rotation="0" />
  <path
     d="m 33.018123,3.6670068 c 1.291668,0.04 2.583727,0.098 3.914641,0.137 3.484087,0.118 31.424416,0.4670458 34.713044,-0.3339542 1.180966,-0.2074979 1.702242,-1.0195345 0.475033,-1.1779427 -0.07175,-0.1752826 -0.04858,-0.3828774 -0.587158,-0.3992406 0.19585,-0.352 -0.686467,-0.339851 -1.469477,-0.456851 0.626404,0 3.04072,-0.019011 3.667126,9.885e-4 1.644117,0.019 1.644117,-1.35 0,-1.37 -15.306504,-0.157 -57.194418,-0.04 -72.4616745,0.371 -1.37016352,0.04 -1.83996753,1.214 -0.35245109,1.35 2.34902029,0.216 4.69804009,0.216 7.04666759,0.412 -0.2739541,0.097 -0.4305554,0.254 -0.5090523,0.41 -0.1566014,0 -0.3132026,0.02 -0.4305556,0.02 -1.6445104,0.078 -1.6833661,1.39 0,1.37 8.6515379,-0.118 17.3423229,-0.235 25.9938569,-0.333 z"
     id="path2"
     style="fill:#155de9;fill-opacity:1;stroke-width:0.626486"
     inkscape:connector-curvature="0"
     sodipodi:nodetypes="ccccccccccccccc" />
</svg>
