<?xml version="1.0" standalone="no"?>
<!DOCTYPE svg PUBLIC "-//W3C//DTD SVG 20010904//EN"
 "http://www.w3.org/TR/2001/REC-SVG-20010904/DTD/svg10.dtd">
<svg version="1.0" xmlns="http://www.w3.org/2000/svg"
 width="1280.000000pt" height="922.000000pt" viewBox="0 0 1280.000000 922.000000"
 preserveAspectRatio="xMidYMid meet">
<metadata>
Created by potrace 1.15, written by Peter Selinger 2001-2017
</metadata>
<g transform="translate(0.000000,922.000000) scale(0.100000,-0.100000)"
fill="#000000" stroke="none">
<path d="M10347 8796 c-126 -35 -186 -122 -195 -281 l-5 -95 -68 0 -69 0 0
-135 0 -135 64 0 c49 0 65 -4 70 -16 3 -9 6 -166 6 -350 l0 -334 185 0 185 0
0 350 0 350 90 0 90 0 0 135 0 135 -91 0 -92 0 5 50 c4 35 13 59 29 76 22 24
29 25 104 22 l80 -3 17 80 c9 44 17 94 17 111 1 29 -2 32 -36 38 -86 15 -337
16 -386 2z"/>
<path d="M2282 8123 l3 -668 173 -3 172 -2 0 66 0 66 53 -48 c83 -75 143 -99
257 -99 84 0 102 3 157 29 149 68 234 221 249 443 15 233 -71 415 -234 495
-54 27 -79 33 -152 36 -105 5 -176 -13 -248 -64 l-47 -34 -3 225 -2 225 -190
0 -190 0 2 -667z m616 17 c56 -34 75 -93 70 -220 -3 -96 -6 -111 -30 -147 -70
-106 -211 -85 -262 39 -25 60 -22 203 7 258 42 85 139 116 215 70z"/>
<path d="M6640 8558 l0 -232 -27 27 c-16 14 -55 38 -88 54 -54 25 -70 28 -170
28 -100 0 -115 -3 -168 -29 -72 -35 -147 -109 -181 -178 -77 -158 -73 -415 9
-577 48 -95 95 -145 173 -183 62 -31 74 -33 167 -33 87 0 107 3 157 27 31 14
78 47 103 72 25 25 48 46 50 46 3 0 5 -29 5 -65 l0 -65 175 0 175 0 -2 668 -3
667 -187 3 -188 2 0 -232z m-84 -419 c56 -34 77 -81 82 -178 2 -48 -1 -105 -7
-129 -25 -91 -108 -144 -189 -122 -79 21 -115 92 -116 225 0 109 24 173 76
205 44 26 111 26 154 -1z"/>
<path d="M750 8439 c-173 -12 -285 -60 -343 -148 -29 -44 -60 -132 -50 -142 8
-6 284 -39 329 -39 13 0 26 12 37 35 25 52 67 69 165 70 80 0 85 -1 108 -29
17 -20 24 -38 22 -59 -3 -27 -9 -32 -57 -49 -30 -10 -138 -36 -240 -59 -257
-56 -324 -89 -374 -184 -30 -58 -30 -184 0 -241 29 -55 103 -119 161 -139 149
-53 374 -18 492 75 21 16 40 30 43 30 3 0 8 -15 11 -33 3 -18 13 -43 22 -55
15 -21 21 -22 185 -22 93 0 169 2 169 5 0 3 -8 22 -17 43 -14 31 -18 86 -23
357 -6 297 -8 324 -28 375 -31 78 -73 124 -145 159 -96 47 -256 64 -467 50z
m265 -657 c-8 -42 -59 -100 -110 -123 -22 -10 -64 -19 -92 -19 -70 0 -114 36
-116 94 -2 57 38 88 165 126 57 18 114 35 128 39 24 7 25 6 28 -38 2 -25 1
-61 -3 -79z"/>
<path d="M4565 8439 c-151 -11 -246 -52 -342 -145 -90 -89 -133 -205 -133
-365 0 -91 15 -168 42 -224 61 -121 152 -199 282 -242 75 -24 94 -27 251 -27
190 0 249 13 345 74 90 58 180 180 192 260 l3 25 -150 17 c-187 21 -205 22
-205 5 0 -23 -58 -95 -89 -111 -107 -56 -245 -6 -283 103 -19 54 -16 197 5
253 33 86 121 137 215 124 59 -8 96 -32 122 -78 18 -32 26 -38 53 -38 45 1
307 37 314 43 3 3 -8 35 -25 71 -92 196 -285 279 -597 255z"/>
<path d="M8455 8439 c-291 -27 -465 -216 -465 -504 0 -153 44 -268 140 -365
105 -107 243 -147 470 -136 191 9 281 39 373 124 49 46 107 122 107 140 0 4
-80 16 -177 24 l-178 16 -37 -33 c-60 -55 -142 -69 -213 -36 -49 22 -73 48
-91 98 -28 79 -58 72 354 75 l367 3 -2 97 c-4 240 -111 400 -313 468 -73 25
-231 38 -335 29z m168 -230 c45 -23 78 -64 93 -116 8 -29 13 -57 9 -63 -7 -11
-294 -14 -332 -4 -26 7 -27 14 -13 66 13 47 55 97 95 114 37 16 119 18 148 3z"/>
<path d="M11911 8438 c-156 -18 -272 -125 -316 -295 -19 -73 -19 -239 0 -321
60 -252 287 -387 516 -307 24 9 70 36 103 61 l58 46 -4 -114 c-5 -156 -26
-191 -121 -208 -76 -15 -160 23 -179 80 -3 10 -278 49 -347 50 -23 0 -24 -1
-17 -66 16 -152 92 -236 252 -279 33 -9 120 -19 199 -22 163 -6 294 12 380 52
102 49 181 157 204 280 12 62 16 961 5 1003 -6 22 -9 22 -175 22 l-169 0 0
-66 0 -67 -53 50 c-30 28 -73 61 -96 73 -52 26 -153 38 -240 28z m280 -292
c56 -38 74 -85 74 -191 0 -103 -17 -143 -75 -182 -70 -48 -168 -21 -214 57
-17 29 -21 52 -21 130 0 109 18 160 69 191 46 28 122 25 167 -5z"/>
<path d="M5510 5842 l0 -669 46 -7 c59 -8 297 -8 318 0 13 5 16 26 16 128 l0
122 69 68 69 68 95 -189 96 -190 38 -7 c50 -8 343 -6 365 2 13 6 -14 58 -159
307 -97 165 -176 306 -177 313 0 7 76 89 169 182 l170 170 -230 0 -231 0 -39
-47 c-22 -27 -82 -97 -135 -157 l-95 -110 -5 340 -5 339 -187 3 -188 2 0 -668z"/>
<path d="M350 5830 l0 -670 184 0 184 0 4 283 c5 314 11 346 72 390 42 30 124
31 156 2 47 -42 50 -65 50 -380 l0 -295 190 0 190 0 0 318 c0 174 -5 348 -10
385 -19 132 -74 212 -175 259 -42 19 -67 23 -150 23 -120 0 -169 -16 -261 -86
l-64 -48 0 244 0 245 -185 0 -185 0 0 -670z"/>
<path d="M2340 6365 l0 -125 185 0 185 0 0 125 0 125 -185 0 -185 0 0 -125z"/>
<path d="M7660 5820 l0 -670 190 0 190 0 -2 668 -3 667 -187 3 -188 2 0 -670z"/>
<path d="M3950 6350 l0 -130 185 0 185 0 0 130 0 130 -185 0 -185 0 0 -130z"/>
<path d="M9510 6135 c-60 -17 -110 -47 -170 -101 l-39 -35 -3 63 -3 63 -172 3
-173 2 0 -485 0 -485 184 0 184 0 4 288 c3 237 6 293 19 323 32 71 106 103
172 76 65 -28 67 -39 67 -382 l0 -305 190 0 190 0 0 288 c0 260 2 291 19 329
22 48 64 74 120 75 45 0 73 -15 97 -56 17 -28 19 -59 22 -333 l3 -303 185 0
185 0 -3 368 c-4 418 -7 435 -85 522 -53 59 -122 90 -217 97 -125 10 -221 -26
-321 -118 l-42 -39 -27 39 c-29 42 -82 83 -131 101 -51 19 -193 22 -255 5z"/>
<path d="M12181 6140 c-67 -14 -122 -45 -189 -106 l-62 -56 0 76 0 76 -170 0
-170 0 0 -485 0 -485 184 0 185 0 3 288 c3 264 5 290 23 326 26 52 61 77 111
78 55 3 96 -17 120 -55 17 -29 19 -56 22 -334 l4 -303 185 0 184 0 -3 373 c-4
328 -6 378 -22 419 -25 67 -94 140 -158 168 -59 25 -176 35 -247 20z"/>
<path d="M2340 5644 l0 -484 185 0 185 0 -2 483 -3 482 -182 2 -183 2 0 -485z"/>
<path d="M3948 5605 l-3 -505 -26 -26 c-21 -20 -37 -26 -79 -27 l-53 -2 -27
-128 -27 -129 21 -8 c44 -16 220 -33 293 -27 127 10 204 59 250 163 16 36 18
88 21 617 l3 577 -185 0 -185 0 -3 -505z"/>
<path d="M11423 4083 l-183 -95 0 -89 0 -89 -70 0 -70 0 0 -135 0 -134 68 -3
67 -3 6 -255 c6 -250 11 -297 44 -346 47 -73 114 -104 240 -111 89 -6 269 11
294 26 9 6 9 31 1 102 -18 164 -17 160 -47 148 -14 -5 -48 -10 -75 -11 -82 -1
-82 -1 -86 242 l-3 210 106 0 106 0 -3 133 -3 132 -102 3 -103 3 -2 183 -3
183 -182 -94z"/>
<path d="M4690 3857 c-142 -33 -237 -126 -292 -285 -20 -59 -23 -86 -23 -222
0 -137 3 -163 23 -223 28 -79 68 -135 138 -192 125 -103 341 -107 469 -10 35
27 45 31 49 18 3 -8 6 -109 6 -224 l0 -209 185 0 185 0 0 665 0 665 -175 0
-175 0 0 -63 0 -63 -53 52 c-86 83 -217 118 -337 91z m306 -308 c76 -73 87
-260 21 -353 -29 -41 -98 -69 -148 -61 -90 15 -136 108 -126 255 9 139 64 205
165 197 43 -3 59 -10 88 -38z"/>
<path d="M807 3825 c-96 -24 -167 -65 -240 -136 -75 -75 -109 -138 -132 -246
-18 -86 -18 -130 0 -218 21 -99 60 -171 129 -241 105 -104 239 -153 422 -154
257 0 453 125 522 335 73 218 1 461 -170 579 -99 68 -173 88 -333 92 -100 3
-157 -1 -198 -11z m258 -264 c36 -20 71 -70 85 -120 14 -53 12 -170 -4 -226
-53 -174 -274 -176 -332 -3 -25 76 -17 218 16 277 52 93 147 122 235 72z"/>
<path d="M2972 3826 c-53 -17 -84 -37 -144 -94 l-48 -45 0 67 0 66 -175 0
-175 0 0 -664 0 -665 53 -6 c28 -3 113 -5 187 -3 l135 3 3 229 2 228 35 -27
c20 -14 61 -38 93 -53 50 -23 69 -27 152 -26 132 0 193 25 281 113 102 103
135 210 126 416 -8 169 -45 271 -134 366 -70 75 -137 103 -253 106 -61 2 -110
-2 -138 -11z m94 -297 c48 -46 68 -120 61 -219 -8 -116 -45 -177 -120 -195
-63 -16 -140 22 -173 87 -22 42 -29 164 -14 227 31 131 161 183 246 100z"/>
<path d="M7210 3818 c-31 -16 -58 -42 -85 -82 l-40 -58 -3 71 -3 71 -174 0
-175 0 0 -479 0 -480 53 -6 c28 -3 113 -5 187 -3 l135 3 6 255 c4 155 12 271
19 295 35 114 77 151 164 142 28 -3 60 -8 71 -12 18 -5 27 9 77 125 l57 132
-47 21 c-31 14 -73 22 -122 25 -63 3 -82 0 -120 -20z"/>
<path d="M8985 3828 c-190 -14 -313 -90 -351 -216 -30 -100 -7 -191 70 -267
63 -63 111 -81 341 -126 178 -35 212 -48 221 -85 15 -60 -44 -104 -140 -104
-79 0 -121 20 -154 74 -24 40 -30 45 -57 41 -16 -2 -88 -9 -160 -15 -178 -15
-175 -14 -166 -48 29 -100 114 -188 214 -221 126 -42 331 -53 481 -26 209 37
335 169 324 338 -12 174 -129 257 -413 297 -198 27 -235 41 -235 90 0 59 77
91 165 69 45 -11 95 -51 95 -75 0 -8 5 -14 11 -14 24 0 344 33 347 35 2 2 -11
31 -29 65 -84 159 -245 212 -564 188z"/>
<path d="M312 1148 c4 -358 5 -375 26 -429 44 -110 121 -170 243 -190 130 -21
256 19 351 111 29 28 53 50 55 50 2 0 3 -31 3 -70 l0 -70 175 0 175 0 0 473
c0 259 -4 478 -8 485 -7 9 -51 12 -188 10 l-179 -3 -5 -295 c-6 -327 -8 -341
-73 -380 -40 -25 -114 -26 -146 -4 -47 33 -51 63 -51 361 0 153 -3 288 -6 301
-6 22 -8 22 -191 22 l-185 0 4 -372z"/>
<path d="M2380 1516 c0 -3 73 -179 161 -393 89 -213 178 -428 199 -478 l36
-90 168 0 168 0 188 444 c104 244 196 461 204 482 l16 39 -188 0 -188 0 -94
-295 c-51 -162 -96 -295 -99 -295 -4 0 -44 123 -90 273 -46 149 -87 282 -92
295 -8 22 -11 22 -199 22 -104 0 -190 -2 -190 -4z"/>
<path d="M4283 1432 c17 -49 97 -265 177 -480 169 -455 125 -405 344 -400
l138 3 93 284 c73 222 95 280 102 265 6 -11 50 -137 98 -281 73 -216 92 -263
109 -267 12 -3 85 -6 162 -6 102 0 144 4 151 13 8 10 328 871 347 935 l7 22
-178 0 -178 0 -74 -290 c-41 -160 -77 -293 -80 -295 -4 -2 -51 129 -105 291
l-98 294 -171 -2 -170 -3 -13 -40 c-109 -341 -177 -545 -180 -542 -3 2 -36
127 -74 278 -39 151 -73 282 -76 292 -5 15 -23 17 -184 17 l-180 0 33 -88z"/>
<path d="M9320 1513 c0 -3 91 -222 201 -486 l202 -480 -22 -43 c-38 -80 -105
-104 -240 -86 -47 7 -86 10 -88 8 -7 -7 24 -237 33 -245 5 -6 64 -15 132 -21
271 -25 402 30 487 204 43 87 435 1138 428 1149 -2 4 -83 7 -179 7 -171 0
-175 0 -184 -22 -10 -24 -159 -535 -168 -576 -12 -56 -9 -64 -189 521 l-24 77
-194 0 c-107 0 -195 -3 -195 -7z"/>
<path d="M11340 1390 l0 -130 211 -2 211 -3 -226 -232 -226 -231 0 -121 0
-121 485 0 485 0 0 109 c0 60 -3 116 -6 125 -5 14 -38 16 -261 16 l-255 0 246
253 246 252 0 85 c0 47 -3 95 -6 108 l-6 22 -449 0 -449 0 0 -130z"/>
<path d="M7177 1353 c58 -82 130 -179 158 -218 28 -38 55 -76 59 -83 5 -8 -55
-101 -163 -258 -94 -135 -171 -250 -171 -255 0 -5 81 -9 198 -9 l197 1 104
155 105 155 28 -48 c16 -26 57 -95 91 -153 l62 -105 213 -3 c132 -1 212 1 212
7 0 6 -74 116 -165 245 -91 130 -168 242 -171 249 -2 7 61 105 142 217 80 112
153 214 161 227 l15 23 -206 0 -206 0 -86 -130 c-47 -71 -88 -130 -89 -130 -2
0 -37 58 -77 130 l-73 130 -222 0 -223 0 107 -147z"/>
</g>
</svg>
