<?xml version="1.0" encoding="UTF-8" standalone="no"?>
<svg
   xmlns:dc="http://purl.org/dc/elements/1.1/"
   xmlns:cc="http://creativecommons.org/ns#"
   xmlns:rdf="http://www.w3.org/1999/02/22-rdf-syntax-ns#"
   xmlns:svg="http://www.w3.org/2000/svg"
   xmlns="http://www.w3.org/2000/svg"
   xmlns:sodipodi="http://sodipodi.sourceforge.net/DTD/sodipodi-0.dtd"
   xmlns:inkscape="http://www.inkscape.org/namespaces/inkscape"
   version="1.1"
   id="svg833"
   width="44.352562"
   height="34.891884"
   viewBox="0 0 44.352562 34.891883"
   sodipodi:docname="logo2.svg"
   inkscape:version="1.0.1 (3bc2e813f5, 2020-09-07)">
  <g
     inkscape:groupmode="layer"
     id="layer2"
     inkscape:label="Image 2"
     style="display:inline">
    <path
       style="fill:#155de9;fill-opacity:1;stroke:none;stroke-width:0.1;stroke-linecap:butt;stroke-linejoin:miter;stroke-miterlimit:4;stroke-dasharray:none;stroke-opacity:1"
       d="m 0.17179568,24.565595 0.060793,-9.147056 C 0.16993907,6.9002231 12.757742,3.086434 17.29898,10.859838 l 0.389933,-0.0068 C 18.944353,8.221022 21.92775,7.2036798 24.869266,6.91008 l 0.03527,2.198204 c -2.62779,0.61245 -5.846801,1.680289 -6.162146,6.475348 l -0.0133,8.960553 -2.824332,0.02048 -0.107214,-10.753567 -0.0012,-0.188099 C 15.656883,9.11754 4.4806394,5.4360385 3.1556614,15.102235 l 0.030785,9.459809 z"
       id="path835"
       sodipodi:nodetypes="cccccccccccccc"
       inkscape:connector-curvature="0" />
    <path
       style="fill:#155de9;fill-opacity:1;stroke:none;stroke-width:0.1;stroke-linecap:butt;stroke-linejoin:miter;stroke-miterlimit:4;stroke-dasharray:none;stroke-opacity:1"
       d="m 35.466645,24.57761 c 5.732431,-0.749982 8.686731,-4.749856 8.67078,-9.820947 -0.29189,-5.3259358 -4.155141,-8.4619746 -9.294291,-8.487391 -3.592255,0.2049509 -5.125081,2.1916457 -6.507715,3.4337877 l 0.07719,-9.45011205 -2.393477,-0.0171802 -0.0665,16.27721455 c 0.3237,3.693668 2.627291,5.812191 4.011104,6.566577 l 10e-4,-3.054112 C 29.26816,19.197486 28.710824,18.523938 28.368882,16.398304 l -0.01701,-1.686924 c 0.172559,-3.759493 3.664415,-6.1385501 6.555418,-6.2228161 4.237172,0.026554 6.703942,3.5058621 6.896501,6.7656841 0.05042,3.602115 -3.010586,6.352875 -6.353733,7.12761 z"
       id="path837"
       sodipodi:nodetypes="ccccccccccccccc"
       inkscape:connector-curvature="0" />
    <path
       style="fill:#155de9;fill-opacity:1;stroke:none;stroke-width:0.1;stroke-linecap:butt;stroke-linejoin:miter;stroke-miterlimit:4;stroke-dasharray:none;stroke-opacity:1"
       d="m 31.30011,24.622501 0.07747,-11.890696 c 0.0039,-0.384096 -0.121625,-0.768191 -0.493022,-1.152287 l 2.229317,-1.556973 c 0.814511,0.84707 1.045579,2.193008 1.12171,3.10161 l 0.0099,11.498346 z"
       id="path839"
       sodipodi:nodetypes="ccccccc"
       inkscape:connector-curvature="0" />
    <path
       style="fill:#155de9;fill-opacity:1;stroke:#00ff00;stroke-width:0;stroke-linecap:butt;stroke-linejoin:miter;stroke-miterlimit:4;stroke-dasharray:none;stroke-opacity:1"
       d="M 3.967856,32.754395 C 1.42026,33.496947 1.0002942,32.259245 0.92934637,31.475281 0.96987837,29.806092 2.7064915,29.702932 3.9496201,30.297922 l -0.2307859,0.466786 c -0.3663017,-0.134232 -2.0395687,-0.876743 -2.2647517,0.673083 -0.00658,1.275233 1.3747491,1.230621 2.2722759,0.868514 z"
       id="path841"
       sodipodi:nodetypes="ccccccc"
       inkscape:connector-curvature="0" />
    <path
       id="path841-4"
       style="fill:#155de9;fill-opacity:1;stroke:none;stroke-width:0.0377953;stroke-linecap:butt;stroke-linejoin:miter;stroke-miterlimit:4;stroke-dasharray:none;stroke-opacity:1"
       d="m 7.7426681,29.968746 c -0.964243,0.05284 -1.6177556,0.696761 -1.650847,1.61596 0.028141,0.832746 0.5570103,1.427885 1.666472,1.477632 1.191001,-0.05297 1.5779719,-0.641289 1.6108718,-1.499117 -0.041757,-1.003596 -0.6115463,-1.565186 -1.6264968,-1.594475 z m -0.00147,0.415736 c 1.4822665,0.07462 1.4992531,2.184933 0.00537,2.227347 -1.6642979,-0.109238 -1.3258667,-2.058245 -0.00537,-2.227347 z"
       inkscape:connector-curvature="0"
       sodipodi:nodetypes="cccccccc" />
    <path
       style="fill:#155de9;fill-opacity:1;stroke:none;stroke-width:0.0377953;stroke-linecap:butt;stroke-linejoin:miter;stroke-miterlimit:4;stroke-dasharray:none;stroke-opacity:1"
       d="m 16.311197,32.711876 c 0.659815,0.679718 1.753749,0.310749 1.755235,-0.551534 -0.03613,-0.705382 -1.410233,-1.200243 -1.239776,-1.610051 0.213791,-0.3845 0.59338,-0.110372 0.926793,0.101703 l 0.27333,-0.332885 c -0.127341,-0.12165 -1.352876,-0.807948 -1.668529,0.167721 -0.21115,0.691257 1.099946,1.055264 1.208031,1.686107 0.06716,0.392004 -0.575755,0.74467 -1.15217,0.146582 z"
       id="path841-0"
       sodipodi:nodetypes="ccccccscc"
       inkscape:connector-curvature="0" />
    <path
       style="fill:#155de9;fill-opacity:1;stroke:none;stroke-width:0.0377953;stroke-linecap:butt;stroke-linejoin:miter;stroke-miterlimit:4;stroke-dasharray:none;stroke-opacity:1"
       d="m 22.727665,29.968746 c 0.02558,2.966607 -0.346032,3.048991 -1.236062,3.093592 -0.97762,-0.04777 -1.392073,-0.126985 -1.338237,-3.093592 h 0.602431 c 0.02864,1.365028 -0.07093,2.629776 0.74369,2.625725 0.788991,-0.0012 0.578869,-1.197908 0.632908,-2.625725 z"
       id="path841-6"
       sodipodi:nodetypes="ccccccc"
       inkscape:connector-curvature="0" />
    <path
       style="fill:#155de9;fill-opacity:1;stroke:none;stroke-width:0.0377953;stroke-linecap:butt;stroke-linejoin:miter;stroke-miterlimit:4;stroke-dasharray:none;stroke-opacity:1"
       d="m 24.759926,33.062338 0.02212,-3.093592 h 0.496524 l -0.0066,2.574107 1.229144,0.01021 -0.01364,0.509275 z"
       id="path841-68"
       sodipodi:nodetypes="ccccccc"
       inkscape:connector-curvature="0" />
    <path
       style="fill:#155de9;fill-opacity:1;stroke:none;stroke-width:0.0377953;stroke-linecap:butt;stroke-linejoin:miter;stroke-miterlimit:4;stroke-dasharray:none;stroke-opacity:1"
       d="m 28.461111,33.062338 -0.03416,-2.747368 -0.593545,-2.29e-4 0.001,-0.354401 1.686919,0.0084 -0.0013,0.33893 -0.625258,0.0065 0.02084,2.748162 z"
       id="path841-76"
       sodipodi:nodetypes="ccccccccc"
       inkscape:connector-curvature="0" />
    <path
       style="fill:#155de9;fill-opacity:1;stroke:none;stroke-width:0.0377953;stroke-linecap:butt;stroke-linejoin:miter;stroke-miterlimit:4;stroke-dasharray:none;stroke-opacity:1"
       d="m 31.405639,33.062338 0.0062,-3.093592 0.575961,0 0.0056,3.093592 z"
       id="path841-1"
       sodipodi:nodetypes="ccccc"
       inkscape:connector-curvature="0" />
    <path
       style="fill:#155de9;fill-opacity:1;stroke:none;stroke-width:0.0377953;stroke-linecap:butt;stroke-linejoin:miter;stroke-miterlimit:4;stroke-dasharray:none;stroke-opacity:1"
       d="m 40.559063,33.062338 c -0.764392,-0.01972 -1.72914,-0.331453 -1.688959,-1.495441 0.01777,-1.379905 1.907756,-2.104348 3.208214,-1.19308 l -0.399749,0.292461 c -0.157645,-0.169272 -1.567675,-0.642687 -2.193183,0.509485 -0.118432,0.21815 -0.09087,0.445934 -0.0344,0.650864 0.329499,1.064888 1.369201,0.942655 1.894498,0.618098 0.218519,-0.135013 0.278057,-0.468138 0.103531,-0.472878 l -0.475941,-0.01293 0.01559,-0.369118 c 0.430786,0.0019 0.895359,-0.0082 0.972367,0.15012 0.442628,0.842566 -0.774362,1.322415 -1.401968,1.322415 z"
       id="path841-706"
       sodipodi:nodetypes="ccccscsscccc"
       inkscape:connector-curvature="0" />
    <path
       style="fill:#155de9;fill-opacity:1;stroke:none;stroke-width:0.0377953;stroke-linecap:butt;stroke-linejoin:miter;stroke-miterlimit:4;stroke-dasharray:none;stroke-opacity:1"
       d="m 34.040315,33.062338 -0.01227,-3.093592 h 0.448792 l 1.858336,2.264709 -3.02e-4,-2.264709 0.479898,-4e-6 0.01091,3.093592 h -0.514148 l -1.747692,-2.052697 0.009,2.052701 z"
       id="path841-7-4"
       sodipodi:nodetypes="ccccccccccc"
       inkscape:connector-curvature="0" />
    <path
       style="display:inline;fill:#155de9;fill-opacity:1;stroke:none;stroke-width:0.0377953;stroke-linecap:butt;stroke-linejoin:miter;stroke-miterlimit:4;stroke-dasharray:none;stroke-opacity:1"
       d="m 11.31653,33.062338 -5.5e-4,-3.103865 h 0.44098 l 1.862242,2.283519 -0.01983,-2.283519 h 0.464274 l 0.04607,3.103865 h -0.502429 l -1.712536,-1.989476 -0.01055,1.989476 z"
       id="path841-7-4-3"
       sodipodi:nodetypes="ccccccccccc"
       inkscape:connector-curvature="0" />
  </g>
</svg>
